<svg xmlns="http://www.w3.org/2000/svg" width="71.996" height="63.99" viewBox="0 0 71.996 63.99">
  <g id="noun-brand-strategy-6848452_1_" data-name="noun-brand-strategy-6848452 (1)" transform="translate(0 -0.004)">
    <g id="Group_47139" data-name="Group 47139" transform="translate(0 0.004)">
      <path id="Path_44473" data-name="Path 44473" d="M13.05,15.439a.991.991,0,0,1-.377-.076l-3.58-1.488a.981.981,0,0,1,.754-1.811l3.58,1.488a.986.986,0,0,1-.377,1.887Z" transform="translate(-2.377 -3.36)"/>
      <path id="Path_44474" data-name="Path 44474" d="M10.093,47.77a.987.987,0,0,1-.377-1.89l3.58-1.488A.981.981,0,0,1,14.05,46.2l-3.58,1.488a.954.954,0,0,1-.377.079Z" transform="translate(-2.555 -12.413)"/>
      <path id="Path_44475" data-name="Path 44475" d="M88.374,46.275A.991.991,0,0,1,88,46.2l-3.58-1.488A.981.981,0,1,1,85.17,42.9l3.58,1.488a.985.985,0,0,1-.377,1.887Z" transform="translate(-23.471 -11.995)"/>
      <path id="Path_44476" data-name="Path 44476" d="M84.183,13.942a.987.987,0,0,1-.377-1.89l3.58-1.488a.981.981,0,0,1,.754,1.811l-3.58,1.488a.944.944,0,0,1-.377.079Z" transform="translate(-23.303 -2.94)"/>
      <path id="Path_44477" data-name="Path 44477" d="M8.732,31.209H.981a.982.982,0,0,1,0-1.963H8.732a.982.982,0,1,1,0,1.963Z" transform="translate(0 -8.193)"/>
      <path id="Path_44478" data-name="Path 44478" d="M95.24,29.591H87.489a.982.982,0,0,1,0-1.963H95.24a.982.982,0,1,1,0,1.963Z" transform="translate(-24.225 -7.74)"/>
      <path id="Path_44479" data-name="Path 44479" d="M34.578,68.914a2.883,2.883,0,0,0,0,5.765H55.17a2.883,2.883,0,0,0,0-5.765Z" transform="translate(-8.876 -19.302)"/>
      <path id="Path_44480" data-name="Path 44480" d="M46.531,16.98h4.992v5.163H46.531Z" transform="translate(-13.03 -4.758)"/>
      <path id="Path_44481" data-name="Path 44481" d="M53.875,16.98H50.534v6.145a.981.981,0,0,1-.982.982H42.6a.981.981,0,0,1-.982-.982V16.98H38.273a2.294,2.294,0,0,0-2.292,2.292v14.1a2.294,2.294,0,0,0,2.292,2.292h15.6a2.294,2.294,0,0,0,2.292-2.292v-14.1a2.291,2.291,0,0,0-2.289-2.289Zm-1.406,15.9H49.643a.982.982,0,0,1,0-1.963h2.826a.982.982,0,0,1,0,1.963Z" transform="translate(-10.076 -4.758)"/>
      <path id="Path_44482" data-name="Path 44482" d="M41.638,0a21.7,21.7,0,0,0-21.5,21.32,21.4,21.4,0,0,0,7.914,16.134A12.608,12.608,0,0,1,32.5,47.088v.565H50.781v-.565a12.608,12.608,0,0,1,4.441-9.629,21.4,21.4,0,0,0,7.914-16.134A21.7,21.7,0,0,0,41.638,0ZM53.692,28.617a4.261,4.261,0,0,1-4.255,4.255h-15.6a4.261,4.261,0,0,1-4.255-4.255v-14.1a4.261,4.261,0,0,1,4.255-4.255h15.6a4.261,4.261,0,0,1,4.255,4.255Z" transform="translate(-5.64 -0.004)"/>
      <path id="Path_44484" data-name="Path 44484" d="M39.492,90.379a7.6,7.6,0,0,0,15.131,0Z" transform="translate(-11.059 -33.313)"/>
    </g>
  </g>
</svg>
