<svg id="Component_264_5" data-name="Component 264 – 5" xmlns="http://www.w3.org/2000/svg" width="100%" height="100%" viewBox="0 0 15.898 15.894">
  <path id="Icon_awesome-instagram" data-name="Icon awesome-instagram" d="M7.945,6.11a4.075,4.075,0,1,0,4.075,4.075A4.069,4.069,0,0,0,7.945,6.11Zm0,6.724a2.649,2.649,0,1,1,2.649-2.649,2.654,2.654,0,0,1-2.649,2.649Zm5.192-6.891a.95.95,0,1,1-.95-.95A.948.948,0,0,1,13.137,5.943Zm2.7.965a4.7,4.7,0,0,0-1.284-3.33,4.735,4.735,0,0,0-3.33-1.284c-1.312-.074-5.245-.074-6.558,0a4.728,4.728,0,0,0-3.33,1.28A4.719,4.719,0,0,0,.051,6.9c-.074,1.312-.074,5.245,0,6.558a4.7,4.7,0,0,0,1.284,3.33,4.741,4.741,0,0,0,3.33,1.284c1.312.074,5.245.074,6.558,0a4.7,4.7,0,0,0,3.33-1.284,4.735,4.735,0,0,0,1.284-3.33c.074-1.312.074-5.242,0-6.554Zm-1.7,7.962a2.682,2.682,0,0,1-1.511,1.511c-1.046.415-3.529.319-4.685.319a17.653,17.653,0,0,1-4.685-.319A2.682,2.682,0,0,1,1.749,14.87c-.415-1.046-.319-3.529-.319-4.685A17.653,17.653,0,0,1,1.749,5.5,2.682,2.682,0,0,1,3.26,3.989c1.046-.415,3.529-.319,4.685-.319a17.653,17.653,0,0,1,4.685.319A2.682,2.682,0,0,1,14.141,5.5c.415,1.046.319,3.529.319,4.685S14.556,13.827,14.141,14.87Z" transform="translate(0.005 -2.238)" fill="#4b4b4b"/>
</svg>
