<svg id="Component_265_5" data-name="Component 265 – 5" xmlns="http://www.w3.org/2000/svg" width="100%" height="100%" viewBox="0 0 15.897 15.897">
  <path id="Icon_awesome-linkedin" data-name="Icon awesome-linkedin" d="M14.762,2.25H1.132A1.14,1.14,0,0,0,0,3.4V17a1.14,1.14,0,0,0,1.132,1.146h13.63A1.143,1.143,0,0,0,15.9,17V3.4A1.143,1.143,0,0,0,14.762,2.25ZM4.8,15.876H2.449V8.29h2.36v7.587ZM3.627,7.253A1.366,1.366,0,1,1,4.993,5.887,1.367,1.367,0,0,1,3.627,7.253Zm10.01,8.623H11.281v-3.69c0-.88-.018-2.012-1.224-2.012-1.228,0-1.416.958-1.416,1.948v3.754H6.284V8.29h2.26V9.326h.032A2.482,2.482,0,0,1,10.809,8.1c2.385,0,2.828,1.572,2.828,3.616Z" transform="translate(0 -2.25)" fill="#4b4b4b"/>
</svg>
