<svg id="noun-twitter-6755467" xmlns="http://www.w3.org/2000/svg" width="100%" height="100%" viewBox="0 0 15.274 14.893">
  <path id="Path_45896" data-name="Path 45896" d="M16.971,13.945l4.617-5.252a.373.373,0,0,1,.3-.148h2.057a.388.388,0,0,1,.231.079.326.326,0,0,1,.049.479l-5.87,6.677L23.727,22.9a.327.327,0,0,1-.088.475.381.381,0,0,1-.209.062h-2.8a.372.372,0,0,1-.311-.162l-3.951-5.237-4.617,5.251a.373.373,0,0,1-.3.148H9.4a.388.388,0,0,1-.231-.079.326.326,0,0,1-.049-.479l5.87-6.676L9.616,9.084A.327.327,0,0,1,9.7,8.609a.381.381,0,0,1,.209-.062h2.8a.372.372,0,0,1,.311.162l3.952,5.238Z" transform="translate(-9.034 -8.546)" fill="#4b4b4b"/>
</svg>
