<svg id="Component_266_5" data-name="Component 266 – 5" xmlns="http://www.w3.org/2000/svg" width="100%" height="100%" viewBox="0 0 15.897 11.178">
  <path id="Icon_awesome-youtube" data-name="Icon awesome-youtube" d="M16.615,6.249A2,2,0,0,0,15.21,4.834,47.206,47.206,0,0,0,9,4.5a47.206,47.206,0,0,0-6.211.334A2,2,0,0,0,1.382,6.249,20.955,20.955,0,0,0,1.05,10.1a20.955,20.955,0,0,0,.332,3.851,1.968,1.968,0,0,0,1.406,1.392A47.206,47.206,0,0,0,9,15.678a47.206,47.206,0,0,0,6.211-.334,1.968,1.968,0,0,0,1.406-1.392,20.955,20.955,0,0,0,.332-3.851A20.955,20.955,0,0,0,16.615,6.249ZM7.373,12.464V7.737L11.528,10.1,7.373,12.464Z" transform="translate(-1.05 -4.5)" fill="#4b4b4b"/>
</svg>
