<svg xmlns="http://www.w3.org/2000/svg" xmlns:xlink="http://www.w3.org/1999/xlink" width="100%" height="100%" viewBox="0 0 204.943 128.182">
  <defs>
    <filter id="Path_9108" x="133.481" y="61.533" width="30.234" height="30.234" filterUnits="userSpaceOnUse">
      <feOffset dx="-4" dy="3" input="SourceAlpha"/>
      <feGaussianBlur stdDeviation="3.5" result="blur"/>
      <feFlood flood-opacity="0.459"/>
      <feComposite operator="in" in2="blur"/>
      <feComposite in="SourceGraphic"/>
    </filter>
    <filter id="Ellipse_11170" x="47.757" y="84.19" width="39.945" height="39.946" filterUnits="userSpaceOnUse">
      <feOffset dx="-4" dy="3" input="SourceAlpha"/>
      <feGaussianBlur stdDeviation="3.5" result="blur-2"/>
      <feFlood flood-opacity="0.459"/>
      <feComposite operator="in" in2="blur-2"/>
      <feComposite in="SourceGraphic"/>
    </filter>
    <filter id="Rectangle_331" x="1" y="0" width="87" height="12" filterUnits="userSpaceOnUse">
      <feOffset dy="1" input="SourceAlpha"/>
      <feGaussianBlur result="blur-3"/>
      <feFlood flood-opacity="0.161"/>
      <feComposite operator="in" in2="blur-3"/>
      <feComposite in="SourceGraphic"/>
    </filter>
    <filter id="Path_18162" x="1.096" y="17.542" width="86.614" height="11.964" filterUnits="userSpaceOnUse">
      <feOffset dy="1" input="SourceAlpha"/>
      <feGaussianBlur result="blur-4"/>
      <feFlood flood-opacity="0.161"/>
      <feComposite operator="in" in2="blur-4"/>
      <feComposite in="SourceGraphic"/>
    </filter>
    <filter id="Path_18163" x="0" y="33.988" width="86.614" height="11.964" filterUnits="userSpaceOnUse">
      <feOffset dy="1" input="SourceAlpha"/>
      <feGaussianBlur result="blur-5"/>
      <feFlood flood-opacity="0.161"/>
      <feComposite operator="in" in2="blur-5"/>
      <feComposite in="SourceGraphic"/>
    </filter>
    <filter id="Rectangle_331-2" x="1" y="52" width="87" height="11" filterUnits="userSpaceOnUse">
      <feOffset dy="1" input="SourceAlpha"/>
      <feGaussianBlur result="blur-6"/>
      <feFlood flood-opacity="0.161"/>
      <feComposite operator="in" in2="blur-6"/>
      <feComposite in="SourceGraphic"/>
    </filter>
    <clipPath id="clip">
      <use xlink:href="#fill"/>
    </clipPath>
    <clipPath id="clip-2">
      <use xlink:href="#fill-2"/>
    </clipPath>
    <clipPath id="clip-3">
      <use xlink:href="#fill-3"/>
    </clipPath>
    <clipPath id="clip-4">
      <use xlink:href="#fill-4"/>
    </clipPath>
    <clipPath id="clip-5">
      <use xlink:href="#fill-5"/>
    </clipPath>
    <clipPath id="clip-6">
      <use xlink:href="#fill-6"/>
    </clipPath>
    <clipPath id="clip-7">
      <use xlink:href="#fill-7"/>
    </clipPath>
    <clipPath id="clip-8">
      <use xlink:href="#fill-8"/>
    </clipPath>
  </defs>
  <g id="Basketball_Multiselect" transform="translate(-7.167 -48)" style="mix-blend-mode: luminosity;isolation: isolate">
    <g id="Group_753" data-name="Group 753" transform="translate(15.848 85.277)">
      <path id="Path_6414" data-name="Path 6414" d="M1302.511,333.185l41.941,40.437-193.785.092L1192.95,333Z" transform="translate(-1150.667 -283.811)" fill="#2d8e28" stroke="#2d8e28" stroke-width="2"/>
      <path id="Path_6415" data-name="Path 6415" d="M1212.422,337.666h102.755l39.052,37.852L1173,375.611Z" transform="translate(-1166.814 -287.185)" fill="#59ba46" stroke="#459e25" stroke-width="1"/>
      <g id="right_stand" transform="translate(135.765)">
        <path id="Path_6393" data-name="Path 6393" d="M1724.994,286.54h-6.37L1704,271.916l6.37-.222,2.1,2.216,1.994-29.691-4.432-5.318v-3.1l5.484,8.42.554,33.347Z" transform="translate(-1686.509 -213.532)" fill="#727272"/>
        <path id="Path_6394" data-name="Path 6394" d="M1730.529,281.518h1.662l-.658-35.694L1726.375,238v2.043l4.743,5.782Z" transform="translate(-1702.687 -215.122)" fill="#5b5b5b"/>
        <g id="Path_6395" data-name="Path 6395" transform="translate(-1660.191 -155.4)" fill="#afafaf">
          <path d="M 1681.719360351562 199.6526794433594 L 1669.608642578125 191.8702239990234 L 1669.812622070312 166.6915435791016 L 1681.719360351562 159.0578765869141 L 1681.719360351562 199.6526794433594 Z" stroke="none"/>
          <path d="M 1679.719360351562 162.7158508300781 L 1671.8037109375 167.7906951904297 L 1671.617431640625 190.7837982177734 L 1679.719360351562 195.9901123046875 L 1679.719360351562 162.7158508300781 M 1683.719360351562 155.39990234375 L 1683.719360351562 203.3152313232422 L 1667.599731445312 192.9566650390625 L 1667.821411132812 165.5923614501953 L 1683.719360351562 155.39990234375 Z" stroke="none" fill="#707070"/>
        </g>
        <g id="Basket" transform="translate(0 22.268)">
          <g id="Basket-2" data-name="Basket">
            <path id="Path_6397" data-name="Path 6397" d="M1642.164,245.253l3.561,14.284s3.64,4.392,8.586-.4c.356-3.64,3.047-14.284,3.047-14.284l-15.3.118Z" transform="translate(-1641.726 -242.348)" fill="#fff" stroke="#42424f" stroke-width="1"/>
            <g id="ball" transform="translate(2.222 20.694) rotate(-93)">
              <g transform="matrix(-0.05, 1, -1, -0.05, 87.81, -142.27)" filter="url(#Path_9108)">
                <path id="Path_9108-2" data-name="Path 9108" d="M4.393,0A4.393,4.393,0,1,1,0,4.393,4.393,4.393,0,0,1,4.393,0Z" transform="translate(148.44 78.27) rotate(-93)" fill="#42424f"/>
              </g>
              <g id="Group_750" data-name="Group 750" transform="translate(6.246 0) rotate(45)">
                <path id="Path_6381" data-name="Path 6381" d="M.4.1A4.386,4.386,0,0,0,0,1.8C.35,1.042.586.45.742,0,.584.038.469.075.4.1" transform="translate(0 2.475)" fill="#f15a5c"/>
                <path id="Path_6382" data-name="Path 6382" d="M1.47.229A1.187,1.187,0,0,1,.908,0,4.418,4.418,0,0,0,.213.584,4.864,4.864,0,0,1,0,1.462a6.427,6.427,0,0,1,.823-.088A5.208,5.208,0,0,1,1.47.229" transform="translate(1.036 0.753)" fill="#f15a5c"/>
                <path id="Path_6383" data-name="Path 6383" d="M.482,0A4.419,4.419,0,0,0,0,.719C.081.7.182.67.3.645.39.365.447.154.482,0" transform="translate(0.517 1.613)" fill="#f15a5c"/>
                <path id="Path_6384" data-name="Path 6384" d="M0,.814A4.458,4.458,0,0,0,.865.693,6.8,6.8,0,0,1,3.579.515,4.386,4.386,0,0,0,1.515,0a4.4,4.4,0,0,0-.68.058A4.236,4.236,0,0,0,0,.814" transform="translate(2.894 0)" fill="#f15a5c"/>
                <path id="Path_6385" data-name="Path 6385" d="M1.163,0A4.38,4.38,0,0,0,0,.495a1.147,1.147,0,0,0,.522.16A4.93,4.93,0,0,1,1.163,0" transform="translate(2.123 0.151)" fill="#f15a5c"/>
                <path id="Path_6386" data-name="Path 6386" d="M1.731.248A4.416,4.416,0,0,1,.768.373C.732.373.7.369.666.367A5.006,5.006,0,0,0,0,1.486a7.52,7.52,0,0,1,1.422.119,1.673,1.673,0,0,1,.16-.29A2.1,2.1,0,0,1,2.945.493,4.193,4.193,0,0,1,5.534.741a4.445,4.445,0,0,0-.6-.528,5.8,5.8,0,0,0-3.2.034" transform="translate(2.071 0.635)" fill="#f15a5c"/>
                <path id="Path_6387" data-name="Path 6387" d="M1.457,1.388A5.66,5.66,0,0,1,1.772,0,6.072,6.072,0,0,0,.959.1,21.079,21.079,0,0,1,0,2.392a4.385,4.385,0,0,0,.154.894,2.9,2.9,0,0,1,.2-1.011,1.435,1.435,0,0,1,1.1-.887" transform="translate(0.008 2.326)" fill="#f15a5c"/>
                <path id="Path_6388" data-name="Path 6388" d="M.936,2.481A8.9,8.9,0,0,0,3.607,5.167c.057.032.116.061.174.09a4.413,4.413,0,0,0,1.4-2.414A10.528,10.528,0,0,0,.066,0c-.258.8.279,1.661.87,2.481" transform="translate(3.549 2.462)" fill="#f15a5c"/>
                <path id="Path_6389" data-name="Path 6389" d="M4.295.6A3.636,3.636,0,0,0,1.363.086,1.91,1.91,0,0,0,.124.829,1.563,1.563,0,0,0,0,1.043a10.685,10.685,0,0,1,5.082,2.8,4.4,4.4,0,0,0,.054-.656A4.39,4.39,0,0,0,4.295.6" transform="translate(3.689 1.234)" fill="#f15a5c"/>
                <path id="Path_6390" data-name="Path 6390" d="M1.1,0A1.251,1.251,0,0,0,.2.764,3.024,3.024,0,0,0,.03,2.3a4.438,4.438,0,0,0,2.09,2.163A9.039,9.039,0,0,1,1.1,0" transform="translate(0.349 3.913)" fill="#f15a5c"/>
                <path id="Path_6391" data-name="Path 6391" d="M2.664,2.742C2.2,2.1,1.471,1.08,1.761.11A7.23,7.23,0,0,0,.331,0,5.432,5.432,0,0,0,0,1.4c.034,0,.068,0,.1.005a1.881,1.881,0,0,1,1.186.831c.178.243.346.5.508.745a12.275,12.275,0,0,0,.716,1.015A10.241,10.241,0,0,0,3.606,5.146a3.636,3.636,0,0,0,1.249.835,4.447,4.447,0,0,0,.654-.439c-.037-.019-.075-.037-.111-.057A9.075,9.075,0,0,1,2.664,2.742" transform="translate(1.662 2.315)" fill="#f15a5c"/>
                <path id="Path_6392" data-name="Path 6392" d="M2.393,2.525a12.255,12.255,0,0,1-.728-1.031C1.5,1.25,1.339,1,1.164.758A1.694,1.694,0,0,0,.1,0,.883.883,0,0,0,.016,0a8.992,8.992,0,0,0,1.1,4.6,4.371,4.371,0,0,0,3.528-.091A4.29,4.29,0,0,1,3.508,3.7,10.366,10.366,0,0,1,2.393,2.525" transform="translate(1.629 3.906)" fill="#f15a5c"/>
              </g>
            </g>
            <g id="Group_751" data-name="Group 751" transform="translate(0.706 2.881)">
              <path id="Path_6406" data-name="Path 6406" d="M1686,246.2l2.216,3.379" transform="translate(-1674.201 -246.2)" fill="none" stroke="#42424f" stroke-width="1"/>
              <path id="Path_6407" data-name="Path 6407" d="M1691.4,246.2l1.053,1.828" transform="translate(-1678.105 -246.2)" fill="none" stroke="#42424f" stroke-width="1"/>
              <path id="Path_6408" data-name="Path 6408" d="M1644.125,252.687,1655,265.459" transform="translate(-1643.924 -250.891)" fill="none" stroke="#42424f" stroke-width="1"/>
              <path id="Path_6409" data-name="Path 6409" d="M1646.2,261.6l9.472,10.913" transform="translate(-1645.424 -257.335)" fill="none" stroke="#42424f" stroke-width="1"/>
              <path id="Path_6410" data-name="Path 6410" d="M1647.875,268.594l8.177,9.474" transform="translate(-1646.635 -262.391)" fill="none" stroke="#42424f" stroke-width="1"/>
              <path id="Path_6411" data-name="Path 6411" d="M1650.344,277.375l6.441,7.374" transform="translate(-1648.42 -268.741)" fill="none" stroke="#42424f" stroke-width="1"/>
              <path id="Path_6412" data-name="Path 6412" d="M1652.6,286.25l4.681,5.1" transform="translate(-1650.052 -275.158)" fill="none" stroke="#42424f" stroke-width="1"/>
              <path id="Path_6413" data-name="Path 6413" d="M1654.2,293.2l2.628,2.844" transform="translate(-1651.209 -280.183)" fill="none" stroke="#42424f" stroke-width="1"/>
              <path id="Path_6398" data-name="Path 6398" d="M1643.4,246.2l11.8,13.959" transform="translate(-1643.4 -246.2)" fill="none" stroke="#42424f" stroke-width="1"/>
              <path id="Path_6399" data-name="Path 6399" d="M1648.4,246.2l10.647,12.962" transform="translate(-1647.015 -246.2)" fill="none" stroke="#42424f" stroke-width="1"/>
              <path id="Path_6400" data-name="Path 6400" d="M1654.2,247.118l9.2,11.378" transform="translate(-1651.209 -246.864)" fill="none" stroke="#42424f" stroke-width="1"/>
              <path id="Path_6401" data-name="Path 6401" d="M1659.6,247.118l8,10.068" transform="translate(-1655.113 -246.864)" fill="none" stroke="#42424f" stroke-width="1"/>
              <path id="Path_6402" data-name="Path 6402" d="M1664.7,247.118l6.786,8.775" transform="translate(-1658.801 -246.864)" fill="none" stroke="#42424f" stroke-width="1"/>
              <path id="Path_6403" data-name="Path 6403" d="M1670.8,247.118l5.429,7.5" transform="translate(-1663.211 -246.864)" fill="none" stroke="#42424f" stroke-width="1"/>
              <path id="Path_6404" data-name="Path 6404" d="M1676,247.118l4.265,5.95" transform="translate(-1666.971 -246.864)" fill="none" stroke="#42424f" stroke-width="1"/>
              <path id="Path_6405" data-name="Path 6405" d="M1680.6,246.2l3.379,4.875" transform="translate(-1670.297 -246.2)" fill="none" stroke="#42424f" stroke-width="1"/>
            </g>
            <g id="Group_752" data-name="Group 752" transform="translate(0.898 2.765)">
              <path id="Path_6406-2" data-name="Path 6406" d="M1688.369,246.2l-2.157,3.3" transform="translate(-1685.875 -246.084)" fill="none" stroke="#42424f" stroke-width="1"/>
              <path id="Path_6407-2" data-name="Path 6407" d="M1692.593,246.2l-1,1.745" transform="translate(-1691.594 -246.084)" fill="none" stroke="#42424f" stroke-width="1"/>
              <path id="Path_6408-2" data-name="Path 6408" d="M1654.345,252.531,1643.4,265.346" transform="translate(-1640.185 -250.662)" fill="none" stroke="#42424f" stroke-width="1"/>
              <path id="Path_6409-2" data-name="Path 6409" d="M1655.672,261.211l.106-.149-9.578,11.061" transform="translate(-1642.154 -256.83)" fill="none" stroke="#42424f" stroke-width="1"/>
              <path id="Path_6410-2" data-name="Path 6410" d="M1656.584,268.844l-8.184,9.4" transform="translate(-1643.524 -262.456)" fill="none" stroke="#42424f" stroke-width="1"/>
              <path id="Path_6411-2" data-name="Path 6411" d="M1656.838,275.188l-6.838,7.98" transform="translate(-1644.071 -267.043)" fill="none" stroke="#42424f" stroke-width="1"/>
              <path id="Path_6412-2" data-name="Path 6412" d="M1657.007,283.375l-5.289,5.9" transform="translate(-1644.76 -272.963)" fill="none" stroke="#42424f" stroke-width="1"/>
              <path id="Path_6413-2" data-name="Path 6413" d="M1656.633,291.938l-3.064,3.211" transform="translate(-1644.879 -279.154)" fill="none" stroke="#42424f" stroke-width="1"/>
              <path id="Path_6398-2" data-name="Path 6398" d="M1656.516,245.781l-11.529,13.589" transform="translate(-1642.053 -245.781)" fill="none" stroke="#42424f" stroke-width="1"/>
              <path id="Path_6399-2" data-name="Path 6399" d="M1660.216,246.2l-10.26,12.547" transform="translate(-1647.307 -246.084)" fill="none" stroke="#42424f" stroke-width="1"/>
              <path id="Path_6400-2" data-name="Path 6400" d="M1664,247.118l-8.965,10.977" transform="translate(-1652.694 -246.748)" fill="none" stroke="#42424f" stroke-width="1"/>
              <path id="Path_6401-2" data-name="Path 6401" d="M1668.355,247.118l-7.755,9.921" transform="translate(-1658.548 -246.748)" fill="none" stroke="#42424f" stroke-width="1"/>
              <path id="Path_6402-2" data-name="Path 6402" d="M1671.829,247.118l-6.654,8.6" transform="translate(-1663.435 -246.748)" fill="none" stroke="#42424f" stroke-width="1"/>
              <path id="Path_6403-2" data-name="Path 6403" d="M1676.717,247.118l-5.242,7.42" transform="translate(-1670.012 -246.748)" fill="none" stroke="#42424f" stroke-width="1"/>
              <path id="Path_6404-2" data-name="Path 6404" d="M1680.414,247.118l-4.208,5.914" transform="translate(-1675.15 -246.748)" fill="none" stroke="#42424f" stroke-width="1"/>
              <path id="Path_6405-2" data-name="Path 6405" d="M1684.191,246.2l-3.3,4.792" transform="translate(-1680.201 -246.084)" fill="none" stroke="#42424f" stroke-width="1"/>
            </g>
            <path id="Path_6396" data-name="Path 6396" d="M1641.445,235.8a37.582,37.582,0,0,0,14.917,0,2.541,2.541,0,0,1,.356,2.588c-.475.158-10.485,1.147-15.827,0A3.646,3.646,0,0,1,1641.445,235.8Z" transform="translate(-1640.85 -235.8)" fill="#f15a5c" stroke="#d04e4f" stroke-width="2"/>
          </g>
        </g>
      </g>
      <path id="Path_6416" data-name="Path 6416" d="M1340.482,344.806l31.159,31.379L1211,376.255l30.951-31.505Z" transform="translate(-1194.29 -292.306)" fill="none" stroke="#fff" stroke-width="1"/>
      <g id="right_circle" transform="translate(117.557 53.898)">
        <path id="Path_6417" data-name="Path 6417" d="M1605.062,350l-15.718.277s-23.335,2.354-10.248,15.3c2.285,1.8,11.286,9.14,32.336,10.871h19.8" transform="translate(-1575.111 -350)" fill="none" stroke="#fff" stroke-width="1"/>
        <path id="Path_6418" data-name="Path 6418" d="M1627.477,375.4h-25.149s-8.918.443-4.874,4.875c4.155,2.548,5.65,2.05,9.14,2.659,5.594-.111,28.306,0,28.306,0" transform="translate(-1590.505 -368.365)" fill="none" stroke="#fff" stroke-width="1"/>
        <path id="Path_6419" data-name="Path 6419" d="M1618,375.4l4.155,7.478" transform="translate(-1606.121 -368.365)" fill="none" stroke="#fff" stroke-width="1"/>
        <path id="Path_6420" data-name="Path 6420" d="M1627.4,375.4s13.627,3.157,4.376,7.589" transform="translate(-1612.918 -368.365)" fill="none" stroke="#fff" stroke-width="1" stroke-dasharray="2"/>
      </g>
      <g id="left_circle" transform="translate(20.342 53.898)">
        <path id="Path_6417-2" data-name="Path 6417" d="M1601.285,350l15.718.277s23.334,2.354,10.248,15.3c-2.285,1.8-11.286,9.14-32.336,10.871h-19.8" transform="translate(-1575.111 -350)" fill="none" stroke="#fff" stroke-width="1"/>
        <path id="Path_6418-2" data-name="Path 6418" d="M1603.825,375.4h25.149s8.919.443,4.875,4.875c-4.154,2.548-5.65,2.05-9.14,2.659-5.595-.111-28.306,0-28.306,0" transform="translate(-1584.673 -368.365)" fill="none" stroke="#fff" stroke-width="1"/>
        <path id="Path_6419-2" data-name="Path 6419" d="M1622.155,375.4,1618,382.878" transform="translate(-1577.909 -368.365)" fill="none" stroke="#fff" stroke-width="1"/>
        <path id="Path_6420-2" data-name="Path 6420" d="M1635,375.4s-13.627,3.157-4.376,7.589" transform="translate(-1593.353 -368.365)" fill="none" stroke="#fff" stroke-width="1" stroke-dasharray="2"/>
      </g>
      <path id="Path_6421" data-name="Path 6421" d="M1501,344.954v31.31" transform="translate(-1403.969 -292.454)" fill="none" stroke="#fff" stroke-width="1"/>
      <g id="Ellipse_11171" data-name="Ellipse 11171" transform="translate(85.739 60.627)" fill="none" stroke="#fff" stroke-width="1">
        <ellipse cx="12.024" cy="6.274" rx="12.024" ry="6.274" stroke="none"/>
        <ellipse cx="12.024" cy="6.274" rx="11.524" ry="5.774" fill="none"/>
      </g>
      <g id="ball-2" data-name="ball" transform="translate(50.883 77.406) rotate(-93)">
        <g transform="matrix(-0.05, 1, -1, -0.05, 117.64, -53.48)" filter="url(#Ellipse_11170)">
          <circle id="Ellipse_11170-2" data-name="Ellipse 11170" cx="9.013" cy="9.013" r="9.013" transform="translate(63.2 110.64) rotate(-93)" fill="#42424f"/>
        </g>
        <g id="Group_750-2" data-name="Group 750" transform="translate(12.814 0) rotate(45)">
          <path id="Path_6381-2" data-name="Path 6381" d="M.823.2A9,9,0,0,0,0,3.694C.719,2.138,1.2.923,1.523,0,1.2.079.962.154.823.2" transform="translate(0 5.079)" fill="#f54f4f"/>
          <path id="Path_6382-2" data-name="Path 6382" d="M3.017.471A2.435,2.435,0,0,1,1.863,0,9.065,9.065,0,0,0,.438,1.2,9.98,9.98,0,0,1,0,3a13.186,13.186,0,0,1,1.688-.18A10.685,10.685,0,0,1,3.017.471" transform="translate(2.126 1.546)" fill="#f54f4f"/>
          <path id="Path_6383-2" data-name="Path 6383" d="M.989,0A9.066,9.066,0,0,0,0,1.475c.167-.048.373-.1.613-.152C.8.749.916.317.989,0" transform="translate(1.06 3.31)" fill="#f54f4f"/>
          <path id="Path_6384-2" data-name="Path 6384" d="M0,1.67a9.148,9.148,0,0,0,1.775-.247,13.949,13.949,0,0,1,5.569-.365A9,9,0,0,0,3.109,0,9.032,9.032,0,0,0,1.714.119,8.691,8.691,0,0,0,0,1.67" transform="translate(5.937 0)" fill="#f54f4f"/>
          <path id="Path_6385-2" data-name="Path 6385" d="M2.385,0A8.987,8.987,0,0,0,0,1.015a2.354,2.354,0,0,0,1.072.328A10.114,10.114,0,0,1,2.385,0" transform="translate(4.355 0.309)" fill="#f54f4f"/>
          <path id="Path_6386-2" data-name="Path 6386" d="M3.552.509A9.061,9.061,0,0,1,1.575.766c-.074,0-.138-.01-.209-.013A10.272,10.272,0,0,0,0,3.049a15.429,15.429,0,0,1,2.917.245A3.433,3.433,0,0,1,3.246,2.7a4.313,4.313,0,0,1,2.8-1.688,8.6,8.6,0,0,1,5.312.511A9.121,9.121,0,0,0,10.117.438a11.9,11.9,0,0,0-6.566.07" transform="translate(4.25 1.304)" fill="#f54f4f"/>
          <path id="Path_6387-2" data-name="Path 6387" d="M2.99,2.848A11.613,11.613,0,0,1,3.636,0,12.459,12.459,0,0,0,1.967.2,43.249,43.249,0,0,1,0,4.908,9,9,0,0,0,.315,6.743,5.955,5.955,0,0,1,.735,4.668,2.945,2.945,0,0,1,2.99,2.848" transform="translate(0.017 4.773)" fill="#f54f4f"/>
          <path id="Path_6388-2" data-name="Path 6388" d="M1.92,5.09A18.254,18.254,0,0,0,7.4,10.6c.117.066.237.125.358.184A9.055,9.055,0,0,0,10.64,5.833,21.6,21.6,0,0,0,.136,0C-.393,1.644.709,3.407,1.92,5.09" transform="translate(7.282 5.05)" fill="#f54f4f"/>
          <path id="Path_6389-2" data-name="Path 6389" d="M8.811,1.229C8.488.971,6.452-.5,2.8.176A3.92,3.92,0,0,0,.254,1.7,3.206,3.206,0,0,0,0,2.14,21.924,21.924,0,0,1,10.426,7.875a9.021,9.021,0,0,0,.112-1.347,9.008,9.008,0,0,0-1.727-5.3" transform="translate(7.569 2.532)" fill="#f54f4f"/>
          <path id="Path_6390-2" data-name="Path 6390" d="M2.258,0A2.567,2.567,0,0,0,.4,1.568,6.2,6.2,0,0,0,.062,4.722,9.106,9.106,0,0,0,4.351,9.16,18.545,18.545,0,0,1,2.258,0" transform="translate(0.716 8.029)" fill="#f54f4f"/>
          <path id="Path_6391-2" data-name="Path 6391" d="M5.466,5.626C4.515,4.3,3.018,2.217,3.613.226A14.833,14.833,0,0,0,.68,0,11.145,11.145,0,0,0,0,2.866c.07,0,.139,0,.211.011a3.86,3.86,0,0,1,2.433,1.7c.365.5.71,1.022,1.041,1.529A25.185,25.185,0,0,0,5.154,8.192,21.012,21.012,0,0,0,7.4,10.557,7.46,7.46,0,0,0,9.962,12.27a9.124,9.124,0,0,0,1.341-.9c-.076-.039-.153-.076-.227-.118A18.62,18.62,0,0,1,5.466,5.626" transform="translate(3.41 4.75)" fill="#f54f4f"/>
          <path id="Path_6392-2" data-name="Path 6392" d="M4.91,5.182A25.144,25.144,0,0,1,3.417,3.066c-.329-.5-.67-1.021-1.03-1.511A3.476,3.476,0,0,0,.215.009,1.812,1.812,0,0,0,.032,0,18.45,18.45,0,0,0,2.29,9.436,8.968,8.968,0,0,0,9.528,9.25,8.8,8.8,0,0,1,7.2,7.591,21.267,21.267,0,0,1,4.91,5.182" transform="translate(3.343 8.014)" fill="#f54f4f"/>
        </g>
      </g>
    </g>
    <g id="Left_Box" transform="translate(7.167 48)">
      <g id="row" transform="translate(1.096 0)">
        <g transform="matrix(1, 0, 0, 1, -1.1, 0)" filter="url(#Rectangle_331)">
          <rect id="Rectangle_331-3" data-name="Rectangle 331" width="87" height="11" rx="5" transform="translate(1 0)" fill="#9d9ea0"/>
        </g>
        <g id="cancel" transform="translate(77.843 2.193)">
          <circle id="Ellipse_11172" data-name="Ellipse 11172" cx="3.5" cy="3.5" r="3.5" transform="translate(0.06 -0.193)" fill="#f54f4f"/>
          <g id="Group_754" data-name="Group 754" transform="translate(1.958 1.764)">
            <g id="Rectangle_264" data-name="Rectangle 264" transform="translate(0 0.29) rotate(-40)" fill="#f54f4f" stroke="#fff" stroke-width="1">
              <rect id="fill" width="0.451" height="3.605" rx="0.225" stroke="none"/>
              <path d="M0,0.5h0.4506157636642456M0.5,0v3.604926109313965M0.4506157636642456,3.104926109313965h-0.4506157636642456M-0.049384236335754395,3.604926109313965v-3.604926109313965" fill="none" clip-path="url(#clip)"/>
            </g>
            <g id="Rectangle_265" data-name="Rectangle 265" transform="translate(2.317 0) rotate(40)" fill="#f54f4f" stroke="#fff" stroke-width="1">
              <rect id="fill-2" width="0.451" height="3.605" rx="0.225" stroke="none"/>
              <path d="M0,0.5h0.4506157636642456M0.5,0v3.604926109313965M0.4506157636642456,3.104926109313965h-0.4506157636642456M-0.049384236335754395,3.604926109313965v-3.604926109313965" fill="none" clip-path="url(#clip-2)"/>
            </g>
          </g>
        </g>
        <rect id="Rectangle_30109" data-name="Rectangle 30109" width="59.205" height="2.193" transform="translate(5.299 4.386)" fill="#cfcfce"/>
      </g>
      <g id="row-2" data-name="row" transform="translate(1.096 17.542)">
        <g transform="matrix(1, 0, 0, 1, -1.1, -17.54)" filter="url(#Path_18162)">
          <path id="Path_18162-2" data-name="Path 18162" d="M5.482,0H81.132a5.482,5.482,0,1,1,0,10.964H5.482A5.482,5.482,0,1,1,5.482,0Z" transform="translate(1.1 17.54)" fill="#9d9ea0"/>
        </g>
        <g id="cancel-2" data-name="cancel" transform="translate(77.843 2.193)">
          <ellipse id="Ellipse_11172-2" data-name="Ellipse 11172" cx="3.5" cy="3" rx="3.5" ry="3" transform="translate(0.06 0.265)" fill="#f54f4f"/>
          <g id="Group_754-2" data-name="Group 754" transform="translate(2.193 1.764)">
            <g id="Rectangle_264-2" data-name="Rectangle 264" transform="translate(0 0.29) rotate(-40)" fill="#f54f4f" stroke="#fff" stroke-width="1">
              <rect id="fill-3" width="0.451" height="3.605" rx="0.225" stroke="none"/>
              <path d="M0,0.5h0.4506157636642456M0.5,0v3.604926109313965M0.4506157636642456,3.104926109313965h-0.4506157636642456M-0.049384236335754395,3.604926109313965v-3.604926109313965" fill="none" clip-path="url(#clip-3)"/>
            </g>
            <g id="Rectangle_265-2" data-name="Rectangle 265" transform="translate(2.317 0) rotate(40)" fill="#f54f4f" stroke="#fff" stroke-width="1">
              <rect id="fill-4" width="0.451" height="3.605" rx="0.225" stroke="none"/>
              <path d="M0,0.5h0.4506157636642456M0.5,0v3.604926109313965M0.4506157636642456,3.104926109313965h-0.4506157636642456M-0.049384236335754395,3.604926109313965v-3.604926109313965" fill="none" clip-path="url(#clip-4)"/>
            </g>
          </g>
        </g>
        <rect id="Rectangle_30110" data-name="Rectangle 30110" width="59.205" height="2.193" transform="translate(6.396 4.386)" fill="#cfcfce"/>
      </g>
      <g id="row-3" data-name="row" transform="translate(0 33.988)">
        <g transform="matrix(1, 0, 0, 1, 0, -33.99)" filter="url(#Path_18163)">
          <path id="Path_18163-2" data-name="Path 18163" d="M5.482,0H81.132a5.482,5.482,0,1,1,0,10.964H5.482A5.482,5.482,0,1,1,5.482,0Z" transform="translate(0 33.99)" fill="#9d9ea0"/>
        </g>
        <g id="cancel-3" data-name="cancel" transform="translate(77.843 2.193)">
          <ellipse id="Ellipse_11172-3" data-name="Ellipse 11172" cx="3" cy="3.5" rx="3" ry="3.5" transform="translate(0.157 -0.181)" fill="#f54f4f"/>
          <g id="Group_754-3" data-name="Group 754" transform="translate(1.958 1.764)">
            <g id="Rectangle_264-3" data-name="Rectangle 264" transform="translate(0 0.29) rotate(-40)" fill="#f54f4f" stroke="#fff" stroke-width="1">
              <rect id="fill-5" width="0.451" height="3.605" rx="0.225" stroke="none"/>
              <path d="M0,0.5h0.4506157636642456M0.5,0v3.604926109313965M0.4506157636642456,3.104926109313965h-0.4506157636642456M-0.049384236335754395,3.604926109313965v-3.604926109313965" fill="none" clip-path="url(#clip-5)"/>
            </g>
            <g id="Rectangle_265-3" data-name="Rectangle 265" transform="translate(2.317 0) rotate(40)" fill="#f54f4f" stroke="#fff" stroke-width="1">
              <rect id="fill-6" width="0.451" height="3.605" rx="0.225" stroke="none"/>
              <path d="M0,0.5h0.4506157636642456M0.5,0v3.604926109313965M0.4506157636642456,3.104926109313965h-0.4506157636642456M-0.049384236335754395,3.604926109313965v-3.604926109313965" fill="none" clip-path="url(#clip-6)"/>
            </g>
          </g>
        </g>
        <rect id="Rectangle_30111" data-name="Rectangle 30111" width="59.205" height="2.193" transform="translate(7.492 4.386)" fill="#cfcfce"/>
      </g>
      <g id="row-4" data-name="row" transform="translate(1.096 51.53)">
        <g transform="matrix(1, 0, 0, 1, -1.1, -51.53)" filter="url(#Rectangle_331-2)">
          <rect id="Rectangle_331-4" data-name="Rectangle 331" width="87" height="10" rx="5" transform="translate(1 52)" fill="#9d9ea0"/>
        </g>
        <g id="cancel-4" data-name="cancel" transform="translate(77.843 2.193)">
          <ellipse id="Ellipse_11172-4" data-name="Ellipse 11172" cx="3.5" cy="3" rx="3.5" ry="3" transform="translate(0.06 0.277)" fill="#f54f4f"/>
          <g id="Group_754-4" data-name="Group 754" transform="translate(1.958 1.764)">
            <g id="Rectangle_264-4" data-name="Rectangle 264" transform="translate(0 0.29) rotate(-40)" fill="#f54f4f" stroke="#fff" stroke-width="1">
              <rect id="fill-7" width="0.451" height="3.605" rx="0.225" stroke="none"/>
              <path d="M0,0.5h0.4506157636642456M0.5,0v3.604926109313965M0.4506157636642456,3.104926109313965h-0.4506157636642456M-0.049384236335754395,3.604926109313965v-3.604926109313965" fill="none" clip-path="url(#clip-7)"/>
            </g>
            <g id="Rectangle_265-4" data-name="Rectangle 265" transform="translate(2.317 0) rotate(40)" fill="#f54f4f" stroke="#fff" stroke-width="1">
              <rect id="fill-8" width="0.451" height="3.605" rx="0.225" stroke="none"/>
              <path d="M0,0.5h0.4506157636642456M0.5,0v3.604926109313965M0.4506157636642456,3.104926109313965h-0.4506157636642456M-0.049384236335754395,3.604926109313965v-3.604926109313965" fill="none" clip-path="url(#clip-8)"/>
            </g>
          </g>
        </g>
        <rect id="Rectangle_30112" data-name="Rectangle 30112" width="59.205" height="2.193" transform="translate(6.396 4.386)" fill="#cfcfce"/>
      </g>
    </g>
  </g>
</svg>
