<svg xmlns="http://www.w3.org/2000/svg" xmlns:xlink="http://www.w3.org/1999/xlink" width="100%" height="100%" viewBox="0 0 189.946 136.834">
  <defs>
    <filter id="Rectangle_30096" x="52.383" y="0" width="94" height="55" filterUnits="userSpaceOnUse">
      <feOffset input="SourceAlpha"/>
      <feGaussianBlur stdDeviation="3" result="blur"/>
      <feFlood flood-opacity="0.231"/>
      <feComposite operator="in" in2="blur"/>
      <feComposite in="SourceGraphic"/>
    </filter>
    <linearGradient id="linear-gradient" x1="0.139" y1="0.121" x2="0.687" y2="1" gradientUnits="objectBoundingBox">
      <stop offset="0" stop-color="#f15a5c"/>
      <stop offset="0.536" stop-color="#f18182"/>
      <stop offset="1" stop-color="#f15a5c"/>
    </linearGradient>
    <filter id="Path_6150" x="0" y="8.5" width="50.146" height="6.444" filterUnits="userSpaceOnUse">
      <feOffset input="SourceAlpha"/>
      <feGaussianBlur result="blur-2"/>
      <feFlood flood-opacity="0.161"/>
      <feComposite operator="in" in2="blur-2"/>
      <feComposite in="SourceGraphic"/>
    </filter>
    <filter id="Path_6150-2" x="0" y="18.5" width="50.946" height="6.444" filterUnits="userSpaceOnUse">
      <feOffset input="SourceAlpha"/>
      <feGaussianBlur result="blur-3"/>
      <feFlood flood-opacity="0.161"/>
      <feComposite operator="in" in2="blur-3"/>
      <feComposite in="SourceGraphic"/>
    </filter>
    <filter id="Path_6150-3" x="0" y="28.5" width="51.346" height="6.444" filterUnits="userSpaceOnUse">
      <feOffset input="SourceAlpha"/>
      <feGaussianBlur result="blur-4"/>
      <feFlood flood-opacity="0.161"/>
      <feComposite operator="in" in2="blur-4"/>
      <feComposite in="SourceGraphic"/>
    </filter>
    <filter id="Path_6150-4" x="0" y="38.5" width="51.346" height="6.444" filterUnits="userSpaceOnUse">
      <feOffset input="SourceAlpha"/>
      <feGaussianBlur result="blur-5"/>
      <feFlood flood-opacity="0.161"/>
      <feComposite operator="in" in2="blur-5"/>
      <feComposite in="SourceGraphic"/>
    </filter>
    <filter id="Path_6150-5" x="0" y="48.5" width="51.746" height="6.444" filterUnits="userSpaceOnUse">
      <feOffset input="SourceAlpha"/>
      <feGaussianBlur result="blur-6"/>
      <feFlood flood-opacity="0.161"/>
      <feComposite operator="in" in2="blur-6"/>
      <feComposite in="SourceGraphic"/>
    </filter>
  </defs>
  <g id="Bowling_Multiselect" transform="translate(-5.054 -41)" style="mix-blend-mode: luminosity;isolation: isolate">
    <g id="Group_1897" data-name="Group 1897" transform="translate(258.314 128.5)">
      <g id="bowling_bg" transform="translate(-233.596 -79)">
        <path id="Path_18158" data-name="Path 18158" d="M11779.267,4190l-52.5,19.866v17.4l182.417,2.875v-18.625L11859.017,4190Z" transform="translate(-11739.404 -4130.766)" fill="#9d9ea0" stroke="#9d9ea0" stroke-width="1"/>
        <path id="Path_18159" data-name="Path 18159" d="M12001.982,4193l-74.768,35.266v33l182.5.333v-33.833l-72.8-34.766Z" transform="translate(-11939.934 -4133.766)" fill="#cfcfce" stroke="#cfcfce" stroke-width="1"/>
        <g id="Group_1896" data-name="Group 1896" transform="translate(41.769 0)">
          <g id="Group_1894" data-name="Group 1894" transform="translate(7.798 35.872)">
            <rect id="Rectangle_30097" data-name="Rectangle 30097" width="8" height="23" transform="translate(0.151 0.128)" fill="#42424f"/>
            <path id="Path_18157" data-name="Path 18157" d="M12164.094,4182.906h4.521v-4.177a2.479,2.479,0,0,0-4.465,0c-.033.29-.057,4.177-.057,4.177" transform="translate(-12162.202 -4159.778)" fill="#d04d4f"/>
          </g>
          <g id="Group_1895" data-name="Group 1895" transform="translate(60.826 35.872)">
            <rect id="Rectangle_30097-2" data-name="Rectangle 30097" width="8" height="23" transform="translate(0.124 0.128)" fill="#42424f"/>
            <path id="Path_18157-2" data-name="Path 18157" d="M12164.094,4182.906h4.521v-4.177a2.479,2.479,0,0,0-4.465,0c-.033.29-.057,4.177-.057,4.177" transform="translate(-12162.402 -4159.778)" fill="#d04d4f"/>
          </g>
          <g transform="matrix(1, 0, 0, 1, -61.43, -8.5)" filter="url(#Rectangle_30096)">
            <rect id="Rectangle_30096-2" data-name="Rectangle 30096" width="76" height="37" transform="translate(61.38 9)" fill="#42424f"/>
          </g>
          <g id="Rectangle_30095" data-name="Rectangle 30095" transform="translate(2.95 3)" fill="#f15a5c" stroke="#ef7e80" stroke-width="1">
            <rect width="70" height="32" stroke="none"/>
            <rect x="0.5" y="0.5" width="69" height="31" fill="none"/>
          </g>
        </g>
      </g>
      <g id="Group_739" data-name="Group 739" transform="translate(-171.883 -37.009)">
        <g id="Group_740" data-name="Group 740" transform="translate(0 0)">
          <g id="boll" transform="translate(1.608 44.355)">
            <circle id="Ellipse_11169" data-name="Ellipse 11169" cx="8.747" cy="8.747" r="8.747" transform="translate(13.883 3.4)" fill="#050510"/>
            <path id="Path_18160" data-name="Path 18160" d="M90.745,18.2A16.658,16.658,0,1,0,107.4,34.86,16.656,16.656,0,0,0,90.745,18.2m2.844,11.822A2.215,2.215,0,1,1,94.24,27.2a2.062,2.062,0,0,1-.651,2.827m3.232-4.2a1.921,1.921,0,1,1,3.358-1.785,1.921,1.921,0,1,1-3.358,1.785m3.718,10.113a2.217,2.217,0,1,1,.649-2.829,2.061,2.061,0,0,1-.649,2.829" transform="translate(-74.089 -16.642)" fill="#42424f"/>
            <path id="Path_6353" data-name="Path 6353" d="M90.745,18.2A16.658,16.658,0,1,0,107.4,34.86,16.656,16.656,0,0,0,90.745,18.2m2.844,11.822A2.215,2.215,0,1,1,94.24,27.2a2.062,2.062,0,0,1-.651,2.827m3.232-4.2a1.921,1.921,0,1,1,3.358-1.785,1.921,1.921,0,1,1-3.358,1.785m3.718,10.113a2.217,2.217,0,1,1,.649-2.829,2.061,2.061,0,0,1-.649,2.829" transform="translate(-74.089 -18.202)" fill="url(#linear-gradient)"/>
          </g>
          <g id="five_boll">
            <path id="Path_6354" data-name="Path 6354" d="M56.22,6.135a2.6,2.6,0,0,1-.132-.79c0-.035,0-.066,0-.1H53.774c0,.034,0,.065,0,.1a2.6,2.6,0,0,1-.132.79ZM56.131,4.6c.151-1.294.661-1.734.661-2.853a1.864,1.864,0,0,0-3.72,0c0,1.119.511,1.558.661,2.853Zm.36,2.182H53.373c-.658,1.287-1.9,2.625-1.935,5.19a7.66,7.66,0,0,0,1.914,5.395h3.161a7.658,7.658,0,0,0,1.914-5.395c-.037-2.565-1.277-3.9-1.936-5.19" transform="translate(-29.282 0)" fill="#42424f"/>
            <path id="Path_6360" data-name="Path 6360" d="M56.22,6.135a2.6,2.6,0,0,1-.132-.79c0-.035,0-.066,0-.1H53.774c0,.034,0,.065,0,.1a2.6,2.6,0,0,1-.132.79ZM56.131,4.6c.151-1.294.661-1.734.661-2.853a1.864,1.864,0,0,0-3.72,0c0,1.119.511,1.558.661,2.853Zm.36,2.182H53.373c-.658,1.287-1.9,2.625-1.935,5.19a7.66,7.66,0,0,0,1.914,5.395h3.161a7.658,7.658,0,0,0,1.914-5.395c-.037-2.565-1.277-3.9-1.936-5.19" transform="translate(-21.898 0)" fill="#42424f"/>
            <path id="Path_6355" data-name="Path 6355" d="M39.077,6.135a2.552,2.552,0,0,1-.132-.79c0-.035,0-.066,0-.1H36.629c0,.034,0,.065,0,.1a2.624,2.624,0,0,1-.131.79ZM38.986,4.6c.151-1.294.662-1.734.662-2.853a1.863,1.863,0,0,0-3.719,0c0,1.119.511,1.558.662,2.853Zm.362,2.182H36.23c-.659,1.287-1.9,2.625-1.936,5.19a7.664,7.664,0,0,0,1.913,5.395h3.161a7.658,7.658,0,0,0,1.914-5.395c-.036-2.565-1.277-3.9-1.934-5.19" transform="translate(-19.522 0)" fill="#42424f"/>
            <path id="Path_6356" data-name="Path 6356" d="M21.931,6.135a2.581,2.581,0,0,1-.132-.79c0-.035,0-.066,0-.1H19.484c0,.034,0,.065,0,.1a2.579,2.579,0,0,1-.131.79ZM21.84,4.6c.152-1.294.661-1.734.661-2.853a1.863,1.863,0,0,0-3.719,0c0,1.119.511,1.558.662,2.853ZM22.2,6.781H19.084c-.659,1.287-1.9,2.625-1.936,5.19a7.659,7.659,0,0,0,1.915,5.394h3.159a7.655,7.655,0,0,0,1.916-5.395c-.036-2.565-1.277-3.9-1.936-5.189" transform="translate(-9.761 0)" fill="#42424f"/>
            <path id="Path_6357" data-name="Path 6357" d="M4.785,6.135a2.581,2.581,0,0,1-.132-.79c0-.035,0-.066,0-.1H2.338c0,.034,0,.065,0,.1a2.581,2.581,0,0,1-.132.79ZM4.7,4.6c.151-1.294.661-1.734.661-2.853A1.837,1.837,0,0,0,3.5,0,1.837,1.837,0,0,0,1.636,1.746c0,1.119.511,1.558.661,2.853Zm.36,2.182H1.937C1.279,8.068.038,9.406,0,11.971a7.661,7.661,0,0,0,1.915,5.394H5.077a7.66,7.66,0,0,0,1.915-5.395c-.037-2.565-1.277-3.9-1.936-5.189" transform="translate(0 0)" fill="#42424f"/>
          </g>
        </g>
      </g>
    </g>
    <g id="Left_Panel" transform="translate(-733.195 -94.71)">
      <g id="Group_506" data-name="Group 506" transform="translate(738.25 144.21)">
        <g id="row" transform="translate(0)">
          <g transform="matrix(1, 0, 0, 1, 0, -8.5)" filter="url(#Path_6150)">
            <g id="Path_6150-6" data-name="Path 6150" transform="translate(-2.72 8.6)" fill="#f15a5c">
              <path d="M 3.261204481124878 5.843710422515869 L 3.261204481124878 2.659981966018677 L 3.261204481124878 2.651721954345703 L 3.260934591293335 2.643461942672729 C 3.233695030212402 1.819695115089417 3.216074466705322 0.9088954329490662 3.221246957778931 0.4000416696071625 L 51.37017440795898 0.4146575033664703 C 51.64739608764648 1.104815363883972 52.29054641723633 3.006165266036987 52.36058044433594 3.484034061431885 L 51.70039749145508 4.992767333984375 C 51.63541793823242 5.136828422546387 51.51670837402344 5.407232761383057 51.35332870483398 5.783283710479736 L 3.261204481124878 5.843710422515869 Z" stroke="none"/>
              <path d="M 3.722003936767578 0.9001936912536621 C 3.726779937744141 1.401944160461426 3.741592407226562 2.050148487091064 3.760654449462891 2.62693190574646 L 3.761203765869141 2.659981966018677 L 3.761203765869141 5.343081474304199 L 51.02551651000977 5.283694744110107 C 51.12307739257812 5.060276031494141 51.19606018066406 4.894872665405273 51.24363708496094 4.789371013641357 L 51.83916854858398 3.428377628326416 C 51.72100448608398 2.916194677352905 51.29748153686523 1.644486904144287 51.02657699584961 0.914553165435791 L 3.722003936767578 0.9001936912536621 M 2.761203765869141 -0.1000981330871582 L 51.68165588378906 -0.08524799346923828 C 51.77292633056641 -0.08524799346923828 52.99342346191406 3.385531902313232 52.85569381713867 3.599812030792236 L 52.15739059448242 5.195660591125488 C 52.08777618408203 5.349886417388916 51.9416618347168 5.682417869567871 51.68165588378906 6.282872200012207 L 2.926475524902344 6.344131946563721 C 2.835193634033203 6.344131946563721 2.761203765869141 6.261891841888428 2.761203765869141 6.160431861877441 L 2.761203765869141 2.659981966018677 C 2.761203765869141 2.659981966018677 2.669925689697266 -0.1000981330871582 2.761203765869141 -0.1000981330871582 Z M 52.20905303955078 5.08683443069458 C 52.21882629394531 5.08683443069458 51.68165588378906 6.351120948791504 51.68165588378906 6.282872200012207 L 52.15739059448242 5.195660591125488 C 52.19178009033203 5.119472026824951 52.20748138427734 5.08683443069458 52.20905303955078 5.08683443069458 Z" stroke="none" fill="#f15a5c"/>
            </g>
          </g>
          <g id="cancel" transform="translate(2.361 1.861)">
            <rect id="Rectangle_264" data-name="Rectangle 264" width="0.339" height="2.708" rx="0.169" transform="translate(0 0.218) rotate(-40)" fill="#fff" stroke="#cfcfce" stroke-width="0.8"/>
            <rect id="Rectangle_265" data-name="Rectangle 265" width="0.339" height="2.708" rx="0.169" transform="translate(1.741 0) rotate(40)" fill="none" stroke="#cfcfce" stroke-width="0.8"/>
          </g>
          <rect id="Rectangle_30113" data-name="Rectangle 30113" width="40" height="1.5" rx="0.75" transform="translate(6.946 2.5)" fill="#cfcfce"/>
        </g>
        <g id="row-2" data-name="row" transform="translate(0 10)">
          <g transform="matrix(1, 0, 0, 1, 0, -18.5)" filter="url(#Path_6150-2)">
            <g id="Path_6150-7" data-name="Path 6150" transform="translate(-2.72 18.6)" fill="#f15a5c">
              <path d="M 3.26185131072998 5.843720436096191 L 3.26185131072998 2.659981966018677 L 3.26185131072998 2.651592016220093 L 3.261571168899536 2.643192052841187 C 3.233908176422119 1.819548487663269 3.21599555015564 0.9085592031478882 3.221254348754883 0.4000392854213715 L 52.15362548828125 0.414659708738327 C 52.43395614624023 1.101141333580017 53.08754348754883 3.002394437789917 53.16021347045898 3.483100414276123 L 52.49050140380859 4.989573001861572 C 52.42439270019531 5.13381290435791 52.30330276489258 5.405305862426758 52.136474609375 5.78327465057373 L 3.26185131072998 5.843720436096191 Z" stroke="none"/>
              <path d="M 3.722015380859375 0.9001889228820801 C 3.726871490478516 1.401746273040771 3.741928100585938 2.049924850463867 3.76129150390625 2.626411914825439 L 3.761852264404297 2.659981966018677 L 3.761852264404297 5.343101501464844 L 51.81075668334961 5.283677101135254 C 51.91072463989258 5.058345794677734 51.9864616394043 4.889339447021484 52.03462982177734 4.784170627593994 L 52.6379508972168 3.427040338516235 C 52.51636505126953 2.911872148513794 52.08614730834961 1.641045570373535 51.81207275390625 0.914557933807373 L 3.722015380859375 0.9001889228820801 M 2.761852264404297 -0.1000981330871582 L 52.46273040771484 -0.08524799346923828 C 52.55546188354492 -0.08524799346923828 53.7954216003418 3.385531902313232 53.65550231933594 3.599812030792236 L 52.94600677490234 5.195777893066406 C 52.87525939941406 5.350059986114502 52.72681427001953 5.682584762573242 52.46273040771484 6.282872200012207 L 2.929759979248047 6.344131946563721 C 2.837020874023438 6.344131946563721 2.761852264404297 6.261891841888428 2.761852264404297 6.160431861877441 L 2.761852264404297 2.659981966018677 C 2.761852264404297 2.659981966018677 2.669109344482422 -0.1000981330871582 2.761852264404297 -0.1000981330871582 Z M 52.9985466003418 5.08683443069458 C 53.00847244262695 5.08683443069458 52.46273040771484 6.351123332977295 52.46273040771484 6.282872200012207 L 52.94600677490234 5.195777893066406 C 52.98098373413086 5.119497299194336 52.9969482421875 5.08683443069458 52.9985466003418 5.08683443069458 Z" stroke="none" fill="#f15a5c"/>
            </g>
          </g>
          <g id="cancel-2" data-name="cancel" transform="translate(2.361 1.861)">
            <rect id="Rectangle_264-2" data-name="Rectangle 264" width="0.339" height="2.708" rx="0.169" transform="translate(0 0.218) rotate(-40)" fill="#fff" stroke="#cfcfce" stroke-width="0.8"/>
            <rect id="Rectangle_265-2" data-name="Rectangle 265" width="0.339" height="2.708" rx="0.169" transform="translate(1.741 0) rotate(40)" fill="none" stroke="#cfcfce" stroke-width="0.8"/>
          </g>
          <rect id="Rectangle_30114" data-name="Rectangle 30114" width="40" height="1.5" rx="0.75" transform="translate(6.946 2.5)" fill="#cfcfce"/>
        </g>
        <g id="row-3" data-name="row" transform="translate(0 20)">
          <g transform="matrix(1, 0, 0, 1, 0, -28.5)" filter="url(#Path_6150-3)">
            <g id="Path_6150-8" data-name="Path 6150" transform="translate(-2.72 28.6)" fill="#f15a5c">
              <path d="M 3.262178659439087 5.843725204467773 L 3.262178659439087 2.659981966018677 L 3.262178659439087 2.651521921157837 L 3.26188850402832 2.643062114715576 C 3.234015941619873 1.819538474082947 3.215961933135986 0.9084152579307556 3.221261262893677 0.4000381231307983 L 52.54537963867188 0.414660781621933 C 52.82722091674805 1.099223494529724 53.48601150512695 3.000426769256592 53.56005477905273 3.482645750045776 L 52.88544082641602 4.988297462463379 C 52.81869888305664 5.132800579071045 52.69646072387695 5.404751300811768 52.52807998657227 5.783270359039307 L 3.262178659439087 5.843725204467773 Z" stroke="none"/>
              <path d="M 3.722030639648438 0.9001865386962891 C 3.7269287109375 1.401647090911865 3.742099761962891 2.049804210662842 3.761608123779297 2.626142024993896 L 3.762180328369141 2.659981966018677 L 3.762180328369141 5.343111038208008 L 52.20339202880859 5.283668041229248 C 52.30475616455078 5.05695915222168 52.38143920898438 4.887164115905762 52.43004608154297 4.781866073608398 L 53.03736114501953 3.426377296447754 C 52.91408157348633 2.909788370132446 52.48050308227539 1.639382362365723 52.20484161376953 0.9145598411560059 L 3.722030639648438 0.9001865386962891 M 2.762180328369141 -0.1000981330871582 L 52.85330963134766 -0.08524799346923828 C 52.94675827026367 -0.08524799346923828 54.19645690917969 3.385531902313232 54.05543899536133 3.599812030792236 L 53.34041595458984 5.19568920135498 C 53.26913452148438 5.34991455078125 53.11953735351562 5.682417869567871 52.85330963134766 6.282872200012207 L 2.931400299072266 6.344131946563721 C 2.837940216064453 6.344131946563721 2.762180328369141 6.261891841888428 2.762180328369141 6.160431861877441 L 2.762180328369141 2.659981966018677 C 2.762180328369141 2.659981966018677 2.668708801269531 -0.1000981330871582 2.762180328369141 -0.1000981330871582 Z M 53.39332580566406 5.08683443069458 C 53.4033317565918 5.08683443069458 52.85330581665039 6.351124286651611 52.85330963134766 6.282872200012207 L 53.34041595458984 5.19568920135498 C 53.37562561035156 5.119500160217285 53.39171600341797 5.08683443069458 53.39332580566406 5.08683443069458 Z" stroke="none" fill="#f15a5c"/>
            </g>
          </g>
          <g id="cancel-3" data-name="cancel" transform="translate(2.361 1.861)">
            <rect id="Rectangle_264-3" data-name="Rectangle 264" width="0.339" height="2.708" rx="0.169" transform="translate(0 0.218) rotate(-40)" fill="#fff" stroke="#cfcfce" stroke-width="0.8"/>
            <rect id="Rectangle_265-3" data-name="Rectangle 265" width="0.339" height="2.708" rx="0.169" transform="translate(1.741 0) rotate(40)" fill="none" stroke="#cfcfce" stroke-width="0.8"/>
          </g>
          <rect id="Rectangle_30115" data-name="Rectangle 30115" width="40" height="1.5" rx="0.75" transform="translate(6.946 2.5)" fill="#cfcfce"/>
        </g>
        <g id="row-4" data-name="row" transform="translate(0 30)">
          <g transform="matrix(1, 0, 0, 1, 0, -38.5)" filter="url(#Path_6150-4)">
            <g id="Path_6150-9" data-name="Path 6150" transform="translate(-2.72 38.6)" fill="#f15a5c">
              <path d="M 3.262178659439087 5.843725204467773 L 3.262178659439087 2.659981966018677 L 3.262178659439087 2.651521921157837 L 3.26188850402832 2.643062114715576 C 3.234015941619873 1.819538474082947 3.215961933135986 0.9084152579307556 3.221261262893677 0.4000381231307983 L 52.54537963867188 0.414660781621933 C 52.82722091674805 1.099223494529724 53.48601150512695 3.000426769256592 53.56005477905273 3.482645750045776 L 52.88544082641602 4.988297462463379 C 52.81869888305664 5.132800579071045 52.69646072387695 5.404751300811768 52.52807998657227 5.783270359039307 L 3.262178659439087 5.843725204467773 Z" stroke="none"/>
              <path d="M 3.722030639648438 0.9001865386962891 C 3.7269287109375 1.401647090911865 3.742099761962891 2.049804210662842 3.761608123779297 2.626142024993896 L 3.762180328369141 2.659981966018677 L 3.762180328369141 5.343111038208008 L 52.20339202880859 5.283668041229248 C 52.30475616455078 5.05695915222168 52.38143920898438 4.887164115905762 52.43004608154297 4.781866073608398 L 53.03736114501953 3.426377296447754 C 52.91408157348633 2.909788370132446 52.48050308227539 1.639382362365723 52.20484161376953 0.9145598411560059 L 3.722030639648438 0.9001865386962891 M 2.762180328369141 -0.1000981330871582 L 52.85330963134766 -0.08524799346923828 C 52.94675827026367 -0.08524799346923828 54.19645690917969 3.385531902313232 54.05543899536133 3.599812030792236 L 53.34041595458984 5.19568920135498 C 53.26913452148438 5.34991455078125 53.11953735351562 5.682417869567871 52.85330963134766 6.282872200012207 L 2.931400299072266 6.344131946563721 C 2.837940216064453 6.344131946563721 2.762180328369141 6.261891841888428 2.762180328369141 6.160431861877441 L 2.762180328369141 2.659981966018677 C 2.762180328369141 2.659981966018677 2.668708801269531 -0.1000981330871582 2.762180328369141 -0.1000981330871582 Z M 53.39332580566406 5.08683443069458 C 53.4033317565918 5.08683443069458 52.85330581665039 6.351124286651611 52.85330963134766 6.282872200012207 L 53.34041595458984 5.19568920135498 C 53.37562561035156 5.119500160217285 53.39171600341797 5.08683443069458 53.39332580566406 5.08683443069458 Z" stroke="none" fill="#f15a5c"/>
            </g>
          </g>
          <g id="cancel-4" data-name="cancel" transform="translate(2.361 1.861)">
            <rect id="Rectangle_264-4" data-name="Rectangle 264" width="0.339" height="2.708" rx="0.169" transform="translate(0 0.218) rotate(-40)" fill="#fff" stroke="#cfcfce" stroke-width="0.8"/>
            <rect id="Rectangle_265-4" data-name="Rectangle 265" width="0.339" height="2.708" rx="0.169" transform="translate(1.741 0) rotate(40)" fill="none" stroke="#cfcfce" stroke-width="0.8"/>
          </g>
          <rect id="Rectangle_30116" data-name="Rectangle 30116" width="40" height="1.5" rx="0.75" transform="translate(6.946 2.5)" fill="#cfcfce"/>
        </g>
        <g id="row-5" data-name="row" transform="translate(0 40)">
          <g transform="matrix(1, 0, 0, 1, 0, -48.5)" filter="url(#Path_6150-5)">
            <g id="Path_6150-10" data-name="Path 6150" transform="translate(-2.72 48.6)" fill="#f15a5c">
              <path d="M 3.262495517730713 5.843729972839355 L 3.262495517730713 2.659981966018677 L 3.262495517730713 2.65145206451416 L 3.262205362319946 2.642931938171387 C 3.234113216400146 1.819460272789001 3.215913534164429 0.9082455635070801 3.221257925033569 0.4000369608402252 L 52.93707275390625 0.4146618247032166 C 53.22044372558594 1.097420811653137 53.88441467285156 2.998474836349487 53.95983505249023 3.482177019119263 L 53.28006744384766 4.987621784210205 C 53.21267318725586 5.132404804229736 53.08937072753906 5.404603958129883 52.91962051391602 5.783266067504883 L 3.262495517730713 5.843729972839355 Z" stroke="none"/>
              <path d="M 3.722030639648438 0.900184154510498 C 3.726966857910156 1.401554107666016 3.742263793945312 2.049682140350342 3.761917114257812 2.625881910324097 L 3.762496948242188 2.659981966018677 L 3.762496948242188 5.343120574951172 L 52.5959587097168 5.2836594581604 C 52.69873809814453 5.055542945861816 52.77645492553711 4.884779930114746 52.82565307617188 4.779015064239502 L 53.43671798706055 3.425711393356323 C 53.31167984008789 2.907573223114014 52.8747673034668 1.637618541717529 52.59755325317383 0.9145622253417969 L 3.722030639648438 0.900184154510498 M 2.762496948242188 -0.1000981330871582 L 53.24382400512695 -0.08524799346923828 C 53.33800506591797 -0.08524799346923828 54.59744644165039 3.385531902313232 54.45532608032227 3.599812030792236 L 53.73476409912109 5.195609092712402 C 53.66295623779297 5.349778175354004 53.51220321655273 5.682250499725342 53.24382400512695 6.282872200012207 L 2.93304443359375 6.344131946563721 C 2.838855743408203 6.344131946563721 2.762496948242188 6.261891841888428 2.762496948242188 6.160431861877441 L 2.762496948242188 2.659981966018677 C 2.762496948242188 2.659981966018677 2.668304443359375 -0.1000981330871582 2.762496948242188 -0.1000981330871582 Z M 53.78805160522461 5.08683443069458 C 53.79813385009766 5.08683443069458 53.24382400512695 6.351125240325928 53.24382400512695 6.282872200012207 L 53.73476409912109 5.195609092712402 C 53.77021026611328 5.119512557983398 53.78643035888672 5.08683443069458 53.78805160522461 5.08683443069458 Z" stroke="none" fill="#f15a5c"/>
            </g>
          </g>
          <g id="cancel-5" data-name="cancel" transform="translate(2.361 1.861)">
            <rect id="Rectangle_264-5" data-name="Rectangle 264" width="0.339" height="2.708" rx="0.169" transform="translate(0 0.218) rotate(-40)" fill="#fff" stroke="#cfcfce" stroke-width="0.8"/>
            <rect id="Rectangle_265-5" data-name="Rectangle 265" width="0.339" height="2.708" rx="0.169" transform="translate(1.741 0) rotate(40)" fill="none" stroke="#cfcfce" stroke-width="0.8"/>
          </g>
          <rect id="Rectangle_30117" data-name="Rectangle 30117" width="40" height="1.5" rx="0.75" transform="translate(6.946 2.5)" fill="#cfcfce"/>
        </g>
      </g>
    </g>
  </g>
</svg>
