<svg xmlns="http://www.w3.org/2000/svg" width="100%" height="100%" viewBox="0 0 148.667 156.835">
  <g id="Multi_Viewfinder_Rating" transform="translate(-29.5 -21.5)" style="mix-blend-mode: luminosity;isolation: isolate">
    <g id="Group_101" data-name="Group 101" transform="translate(45.33 29.53)">
      <rect id="Rectangle_295" data-name="Rectangle 295" width="147.667" height="30.333" rx="2" transform="translate(-15.33 -7.53)" fill="#fff" stroke="#cfcfce" stroke-width="1"/>
    </g>
    <g id="love" transform="translate(-21.221 46.572)">
      <path id="Path_427" data-name="Path 427" d="M126.933,35.228l9.688-6.2s11.8-8,28.4,6.2c13.8,23-1.2,46.4-2.8,48.8s-28.4,39.6-33.4,43.4c-9-3.4-38-42.2-43.4-58.2,0-4-8-26.2,8-37,8.8-4.8,15-8.2,25.4-3.2C122.421,31.628,126.933,35.228,126.933,35.228Z" fill="#ccc" stroke="#707070" stroke-width="1"/>
      <path id="heart" d="M316.717,293.748a2.5,2.5,0,0,1-1.722-.684c-1.854-1.747-45.432-43.158-45.932-74.135-.15-9.34,2.98-17.753,8.818-23.686a27.464,27.464,0,0,1,20.06-8.164c4.816,0,10.648,3.845,15.336,6.935.785.516,1.543,1.018,2.231,1.455.814-.536,1.713-1.17,2.643-1.827,4.361-3.076,9.307-6.563,13.971-6.563,17.022,0,29.858,13.674,29.858,31.809,0,29.988-41.7,72.333-43.479,74.118a2.509,2.509,0,0,1-1.785.742ZM297.939,192.1a22.552,22.552,0,0,0-16.48,6.663c-4.885,4.966-7.5,12.1-7.377,20.082.41,25.5,34.34,60.664,42.573,68.826,7.912-8.37,40.3-44.147,40.3-68.786,0-15.271-10.677-26.787-24.836-26.787-3.07,0-7.509,3.13-11.074,5.646-1.534,1.081-2.982,2.1-4.267,2.847a2.509,2.509,0,0,1-2.516,0c-1.094-.632-2.386-1.484-3.753-2.386-3.908-2.578-9.26-6.108-12.569-6.108Z" transform="translate(-188.587 -163.486)" fill="#ccc" stroke="#ccc" stroke-width="3"/>
      <path id="Path_424" data-name="Path 424" d="M146.939,125.428a48.5,48.5,0,1,1,34.3-14.2A48.187,48.187,0,0,1,146.939,125.428Zm0-95.34A46.842,46.842,0,1,0,193.781,76.93,46.9,46.9,0,0,0,146.939,30.088Z" transform="translate(-20.007)" fill="#f15a5c" stroke="#f15a5c" stroke-width="1"/>
      <path id="Path_425" data-name="Path 425" d="M200.133,166.2A36.063,36.063,0,1,1,236.2,130.133,36.1,36.1,0,0,1,200.133,166.2Zm0-70.47a34.405,34.405,0,1,0,34.405,34.405A34.444,34.444,0,0,0,200.133,95.726Z" transform="translate(-73.201 -53.203)" fill="#f15a5c" stroke="#f15a5c" stroke-width="1"/>
      <path id="Path_426" data-name="Path 426" d="M186.76,139.451a22.69,22.69,0,1,1,22.69-22.69A22.716,22.716,0,0,1,186.76,139.451Zm0-44.339a21.647,21.647,0,1,0,21.647,21.647A21.672,21.672,0,0,0,186.76,95.112Z" transform="translate(-59.828 -39.83)" fill="#f15a5c" stroke="#f15a5c" stroke-width="1.6"/>
    </g>
    <text id="Statement_Here" data-name="Statement Here" transform="translate(60 41)" fill="#42424f" font-size="12" font-family="Arial-BoldMT, Arial" font-weight="700"><tspan x="0" y="0">Statement Here</tspan></text>
    <g id="noun-close-636011" transform="translate(-115.571 -13)">
      <path id="Path_428" data-name="Path 428" d="M214.3,116.628l4.21-4.229a.558.558,0,0,0-.789-.789l-4.21,4.229-4.229-4.229a.558.558,0,1,0-.789.789l4.21,4.229-4.21,4.229a.545.545,0,0,0,0,.789.545.545,0,0,0,.789,0l4.229-4.229,4.229,4.229a.545.545,0,0,0,.789,0,.545.545,0,0,0,0-.789Z" transform="translate(0 0)" fill="#42424f" stroke="#42424f" stroke-width="0.5"/>
    </g>
    <g id="close-636011" transform="translate(-98.571 27)">
      <path id="Path_428-2" data-name="Path 428" d="M214.3,116.628l4.21-4.229a.558.558,0,0,0-.789-.789l-4.21,4.229-4.229-4.229a.558.558,0,1,0-.789.789l4.21,4.229-4.21,4.229a.545.545,0,0,0,0,.789.545.545,0,0,0,.789,0l4.229-4.229,4.229,4.229a.545.545,0,0,0,.789,0,.545.545,0,0,0,0-.789Z" transform="translate(0 0)" fill="#42424f" stroke="#42424f" stroke-width="0.5"/>
    </g>
    <g id="close-636011-2" data-name="close-636011" transform="translate(-152.571 21.813)">
      <path id="Path_428-3" data-name="Path 428" d="M214.3,116.628l4.21-4.229a.558.558,0,0,0-.789-.789l-4.21,4.229-4.229-4.229a.558.558,0,1,0-.789.789l4.21,4.229-4.21,4.229a.545.545,0,0,0,0,.789.545.545,0,0,0,.789,0l4.229-4.229,4.229,4.229a.545.545,0,0,0,.789,0,.545.545,0,0,0,0-.789Z" transform="translate(0 0)" fill="#42424f" stroke="#42424f" stroke-width="0.5"/>
    </g>
  </g>
</svg>
