<svg xmlns="http://www.w3.org/2000/svg" width="100%" height="100%" viewBox="0 0 150 147.907">
  <g id="Tarot_Cards_Artfact" transform="translate(-159.203 -204.951)" style="mix-blend-mode: luminosity;isolation: isolate">
    <path id="Path_18531" data-name="Path 18531" d="M309.029,223.908c-.573-1.947-2.205-2.645-3.873-3.232-29.781-8.493,0-.018-29.789-8.432-1.791-.679.008.055-5.444-1.786a28.131,28.131,0,0,0-3.6-1.007,4.039,4.039,0,0,0-2.286-3.124c-.959-.368.572-1.014-15.485-1.091-22.652-.152.024.076-24.394-.285l-12.8.175a38.982,38.982,0,0,0-5.274.174,4.215,4.215,0,0,0-3.632,2.631,1.554,1.554,0,0,1-1.234,1.037c-1.005.186-2.016.384-3.008.617-1.447.339-.138-.033-29.748,7.747-2.091.844-4.381,1.071-6.451,1.986a4.315,4.315,0,0,0-2.728,3.307,10.633,10.633,0,0,0,.418,4.033,67.693,67.693,0,0,0,2.022,7.177c.869,2.73,1.566,5.514,2.328,8.28,1.072,3.888,2.15,7.773,3.192,11.668.612,2.292,1.384,4.535,2.02,6.818,1.28,4.568,2.477,9.158,3.744,13.731,1.415,5.11,2.7,10.254,4.3,15.312,1.023,3.212,1.745,6.514,2.678,9.755,1.235,4.3,2.222,8.673,3.668,12.921.761,2.238,1.3,4.55,1.993,6.813a3.721,3.721,0,0,0,1.822,2.5,1.444,1.444,0,0,0,.726.206,6.232,6.232,0,0,0,2.538-.6,14.742,14.742,0,0,1,2.672-.792q6.055-1.616,12.117-3.222c4.521-1.209,9.045-2.406,13.554-3.652,2.111-.584,4.25-1.056,6.32-1.8a7.037,7.037,0,0,1,2.316-.645q3.606-.022,7.207-.038a2.106,2.106,0,0,1,.581.07c1.646.463,3.289.94,4.95,1.348,7.138,1.751,14.174,3.874,21.343,5.512a110.812,110.812,0,0,1,11.756,3.235,19.97,19.97,0,0,0,6.781,1.6c.8-.009,2.469-1.155,2.572-1.974a.352.352,0,0,0-.008-.131,2.119,2.119,0,0,1,.157-1.271q.444-1.359.886-2.719c.688-2.117,1.193-4.292,1.75-6.45,1.008-3.9,2.108-7.778,3.176-11.664.826-3.007,1.682-6.009,2.472-9.026.654-2.509,1.419-4.98,2.209-7.447.741-2.308,1.173-4.7,1.876-7.025.9-2.967,1.635-5.979,2.445-8.969.981-3.62,1.943-7.245,2.961-10.854.666-2.369,1.3-4.746,2.07-7.088a23.1,23.1,0,0,0,1.127-4.62,12.238,12.238,0,0,1,.739-2.167c.942-3.107,1.607-6.289,2.78-9.34a28.378,28.378,0,0,0,1.515-5.444,6.083,6.083,0,0,0-.027-2.759Zm-106.8,21.623C202.256,254.251,202.233,245.266,202.233,245.531Zm15.923,66.883c-1.838.522-3.668,1.11-5.505,1.594-2.362.621-4.67,1.419-7.042,2.005-3.2.792-6.4,1.624-9.552,2.583-1.114.339-2.247.65-3.358.99a27.267,27.267,0,0,1-4.327.986c-.647.083-1.032-.448-1.195-1.022-.561-1.951-1.093-3.908-1.623-5.867q-1.816-6.726-3.623-13.459c-.7-2.594-1.295-5.222-2.139-7.771-.828-2.506-1.518-5.043-2.224-7.58-1.019-3.667-1.977-7.35-3.011-11.014-.354-1.247-.677-2.5-1.08-3.741-.3-.917-.461-1.905-.724-2.847-.655-2.315-1.422-4.6-2.059-6.919-1.6-5.841-3.15-11.7-4.745-17.542-1.176-4.3-2.4-8.594-3.588-12.894q-.833-3.016-1.609-6.046a2.932,2.932,0,0,1,1.981-3.226c3.207-.838,6.418-1.663,9.621-2.514,4.309-1.145,8.6-2.312,12.912-3.457,3.153-.838,6.319-1.628,9.473-2.454,2.15-.563,4.351-.867,6.473-1.515.282-.086.562-.11.746.236a7.354,7.354,0,0,0-.186,2.719c-.009.384.105,5.089-.035,5.526.22,16.247.237.885.337,16.247.026,8.191.776,22.1.538,47.3.1,4.5-.442.926,0,18.948a64.557,64.557,0,0,0,.369,7.635,6,6,0,0,0,.858,1.2c.968,1.283,5.923.945,6.1.944,7.338-.3,7.374-.371,12.315-.375a.46.46,0,0,1,.342.144c-1.482.393-2.963.764-4.435,1.184Zm13.531-2.674c-6.24.179-12.474.185-18.713.255-1.131.011-2.282.047-3.409.074-1.386.036-2.808-.03-4.207-.125a1.172,1.172,0,0,1-1.1-1.255c-.055-.984-.054-1.974-.055-2.963q0-6.852.005-13.707c0-.3.007-1.561.005-1.923-.016-3.337.122-6.686-.053-10.016-.35-6.757-.115-13.514-.228-20.272-.024-1.355.036-2.712-.026-4.065-.393-8.228-.162-16.461-.238-24.691-.038-4.3.023-8.609-.026-12.913-.018-1.27-.077-2.545-.059-3.818.005-.362,0-1.355,0-1.656-.008-.944-.009-1.891,0-2.832a2.835,2.835,0,0,1,3.058-3.039c9.372.005,18.739.036,28.106.03,2.155,0,4.323-.013,6.467.075,2.264.094,4.523.178,6.788.168.726,0,8.23-.105,11.261.026a17.835,17.835,0,0,1,3.874.548.813.813,0,0,1,.327.2,4.449,4.449,0,0,1,1.561,2.65,22.809,22.809,0,0,1,.131,5.288c-.308,4.3,0,8.6-.226,12.9-.439,8.425-.051,16.853-.214,25.276-.036,1.954.054,3.913-.051,5.863-.426,7.81-.092,15.627-.259,23.439-.032,1.446.032,2.9-.043,4.343-.361,6.822-.041,13.651-.191,20.474a1.857,1.857,0,0,1-1.889,1.883c-2.751-.04-5.5-.093-8.252-.215s-5.508-.044-8.264-.04c-4.686,0-9.388-.1-14.078.038Zm75.848-83.158a17.443,17.443,0,0,1-1.214,4.966c-1.368,4.135-2.193,8.427-3.593,12.544-1.753,5.151-2.885,10.463-4.387,15.68-1.141,3.981-2.165,7.995-3.319,11.974-1.32,4.553-2.672,9.1-3.859,13.69-1.139,4.413-2.385,8.8-3.673,13.177-1.357,4.595-2.661,9.2-3.859,13.84-.7,2.7-1.491,5.381-2.247,8.072a1.843,1.843,0,0,1-2.039,1.17c-1.935-.552-3.858-1.133-5.792-1.685-2.739-.782-5.465-1.609-8.234-2.285-3.312-.808-6.588-1.769-9.88-2.657-2.058-.553-4.112-1.122-6.177-1.632-2.74-.681-5.495-1.314-8.236-1.974a3.57,3.57,0,0,1-.78-.3,133.3,133.3,0,0,1,19.011-.008c3.626-.033,3.657,0,4.392-.04a2.949,2.949,0,0,0,2.15-2.452c-.06-6.015-.052-2.1-.031-6.034.065-24.928.206-35.225.2-35.451q-.014-2.125-.007-4.254c.005-4.973.023-9.942.005-14.915,0-.61.288-30.161.394-30.452.588.385.57-2.621.242-2.723v-3.243a6.587,6.587,0,0,1,1.836.393c4.427,1.163,8.851,2.342,13.259,3.575,2.93.821,5.834,1.734,8.742,2.629,1.273.393,2.651.346,3.885.828,2.492.968,5.112,1.475,7.666,2.212,1.151.333,2.251.785,3.365,1.2a2.939,2.939,0,0,1,2.069,2.075,7.022,7.022,0,0,1,.108,2.079Z" transform="translate(0 0)" fill="#bebebe" fill-rule="evenodd"/>
    <path id="Path_18546" data-name="Path 18546" d="M433.8,484.589a1.012,1.012,0,0,0-.9.983,1.128,1.128,0,0,0,1.04,1.021,1.019,1.019,0,0,0,.983-.975A1.226,1.226,0,0,0,433.8,484.589Zm.132,1.446c-.292.022-.553-.037-.555-.4,0-.32.206-.471.509-.49a.49.49,0,0,1,.586.425.539.539,0,0,1-.54.462Z" transform="translate(-179.024 -183.475)" fill-rule="evenodd"/>
    <path id="Path_18547" data-name="Path 18547" d="M315.686,485.47a1.007,1.007,0,0,0-.939.93.989.989,0,0,0,.987.915.87.87,0,0,0,.9-.836,1.035,1.035,0,0,0-.952-1.009Zm0,1.333c-.261-.023-.429-.14-.417-.415.014-.243.124-.424.4-.424.243,0,.457.075.452.356a.467.467,0,0,1-.44.483Z" transform="translate(-101.737 -184.05)" fill-rule="evenodd"/>
    <path id="Path_18549" data-name="Path 18549" d="M295.67,292.849h.023v-1.487h-.023Z" transform="translate(-89.258 -56.687)" fill-rule="evenodd"/>
    <path id="Path_18550" data-name="Path 18550" d="M457.424,273.69h-.041v.893c.014-.008.03-.016.041-.024Z" transform="translate(-195.027 -45.105)" fill-rule="evenodd"/>
    <path id="Path_18557" data-name="Path 18557" d="M489.16,513.7a.835.835,0,0,0-.892.836,1,1,0,0,0,1.007,1.154.89.89,0,0,0,.938-.881,1.156,1.156,0,0,0-1.053-1.109Zm.175,1.476c-.224-.008-.52.026-.646-.318a.386.386,0,0,1,.171-.5c.32-.219.618-.11.906.2C489.752,514.873,489.706,515.183,489.335,515.174Z" transform="translate(-215.233 -202.467)" fill-rule="evenodd"/>
    <path id="Path_18564" data-name="Path 18564" d="M260.769,510.5a1.112,1.112,0,0,0-.975.906,1.127,1.127,0,0,0,.907.977,1.066,1.066,0,0,0,1.056-.9,1.277,1.277,0,0,0-.988-.987Zm.411,1.047a.762.762,0,0,1-.58.327c-.189-.187-.339-.343-.272-.6.133-.254.394-.225.572-.319a.536.536,0,0,1,.28.589Z" transform="translate(-65.794 -200.381)" fill-rule="evenodd"/>
    <path id="Path_18565" data-name="Path 18565" d="M204.046,378.894a.071.071,0,0,1,.016-.009c-.037-.064-.075-.126-.141-.239C203.979,378.762,204.013,378.827,204.046,378.894Z" transform="translate(-29.176 -113.879)" fill-rule="evenodd"/>
    <g id="Group_114" data-name="Group 114" transform="translate(204.203 330.857)">
      <rect id="Rectangle_315" data-name="Rectangle 315" width="22" height="22" rx="8" transform="translate(1)" fill="#6cc959"/>
      <g id="Group_296" data-name="Group 296" transform="translate(5.254 4.707)">
        <g id="Group_111" data-name="Group 111" transform="translate(0 4.501)">
          <path id="Path_99" data-name="Path 99" d="M62.155,170h-1.8a.457.457,0,0,0-.453.453v7.189a.457.457,0,0,0,.453.453h1.8a.457.457,0,0,0,.453-.453v-7.189A.457.457,0,0,0,62.155,170Z" transform="translate(-59.9 -170)" fill="#fff"/>
        </g>
        <g id="Group_112" data-name="Group 112" transform="translate(3.605)">
          <path id="Path_100" data-name="Path 100" d="M104.777,131.985a1.416,1.416,0,0,0-1.432-1.195h-3.5a7.914,7.914,0,0,0,.453-2.657,1.866,1.866,0,0,0-1.874-1.833h-.371a.457.457,0,0,0-.453.453,6.269,6.269,0,0,1-1.164,3.677,5,5,0,0,1-1.535.989v6.746a10.41,10.41,0,0,0,3.708.721h2.945a1.368,1.368,0,0,0,1.349-1.844,1.347,1.347,0,0,0,1-1.3,1.319,1.319,0,0,0-.093-.494,1.351,1.351,0,0,0,.649-2.2A1.358,1.358,0,0,0,104.777,131.985Z" transform="translate(-94.9 -126.3)" fill="#fff"/>
        </g>
      </g>
    </g>
    <g id="Group_119" data-name="Group 119" transform="translate(242.203 330.857)">
      <rect id="Rectangle_316" data-name="Rectangle 316" width="22" height="22" rx="8" fill="#f54f4f"/>
      <g id="Group_297" data-name="Group 297" transform="translate(4.238 4.707)">
        <g id="Group_116" data-name="Group 116" transform="translate(10.8)">
          <path id="Path_101" data-name="Path 101" d="M404.563,134.4h1.792a.457.457,0,0,0,.453-.453v-7.189a.457.457,0,0,0-.453-.453h-1.8a.457.457,0,0,0-.453.453v7.189A.473.473,0,0,0,404.563,134.4Z" transform="translate(-404.1 -126.3)" fill="#fff"/>
        </g>
        <g id="Group_117" data-name="Group 117" transform="translate(0 0)">
          <path id="Path_102" data-name="Path 102" d="M299.272,133.2A1.416,1.416,0,0,0,300.7,134.4h3.5a7.914,7.914,0,0,0-.453,2.657,1.866,1.866,0,0,0,1.875,1.833H306a.457.457,0,0,0,.453-.453,6.269,6.269,0,0,1,1.164-3.677,5,5,0,0,1,1.535-.989v-6.746a10.411,10.411,0,0,0-3.708-.721H302.5a1.368,1.368,0,0,0-1.349,1.844,1.347,1.347,0,0,0-1,1.3,1.319,1.319,0,0,0,.093.494,1.351,1.351,0,0,0-.649,2.2A1.455,1.455,0,0,0,299.272,133.2Z" transform="translate(-299.246 -126.3)" fill="#fff"/>
        </g>
      </g>
    </g>
    <rect id="Rectangle_30288" data-name="Rectangle 30288" width="58" height="101" rx="4" transform="translate(205.203 207.857)" fill="#bebebe"/>
    <path id="Path_18583" data-name="Path 18583" d="M15.693.141,54,0a4,4,0,0,1,4,4l.686,91.763a4,4,0,0,1-4,4l-32.158.625c-2.209,0,18.987-4.645,18.987-6.854L17.365,5.97C17.365,3.761,13.484.141,15.693.141Z" transform="matrix(0.961, 0.276, -0.276, 0.961, 251.043, 207.856)" fill="#bebebe"/>
    <path id="Path_18584" data-name="Path 18584" d="M.68,100.247l38.306.141a4,4,0,0,0,4-4l.686-91.763a4,4,0,0,0-4-4L8.4-.836c-2.209,0,18.13,4.184,18.13,6.393L2.351,94.418C2.351,96.627-1.529,100.247.68,100.247Z" transform="translate(230.455 307.494) rotate(164)" fill="#bebebe"/>
    <g id="Group_1874" data-name="Group 1874" transform="translate(-1120.06 -42.523)">
      <g id="eye" transform="translate(1330.27 253.779)">
        <path id="Path_17614" data-name="Path 17614" d="M4.48,12.469c4.514,9.873,18.876,9.873,23.39,0C23.356,2.6,8.994,2.6,4.48,12.469Zm11.695-5.2a5.2,5.2,0,1,1-5.2,5.2A5.2,5.2,0,0,1,16.175,7.269Zm0,3.762a1.438,1.438,0,1,1-1.437,1.438A1.438,1.438,0,0,1,16.175,11.031ZM.928,8.921,3.29,10.666l-.928,1.251L0,10.172.928,8.921ZM3.485,5.208,5.634,7.366l-1.1,1.1L2.38,6.306Zm3.6-2.677L8.745,4.922l-1.282.886L5.807,3.416Zm4.5-1.755.874,2.708-1.484.476L10.1,1.251Zm20.763,9.4-2.361,1.745-.928-1.251,2.361-1.745.928,1.251ZM29.969,6.307,27.819,8.465l-1.1-1.1,2.149-2.159ZM26.541,3.415,24.885,5.807,23.6,4.922,25.259,2.53ZM22.246,1.251l-.874,2.708-1.484-.476L20.762.776ZM15.392,3.067V0h1.562V3.067Zm.782,2.639a6.762,6.762,0,1,1-6.762,6.762A6.762,6.762,0,0,1,16.174,5.705Z" transform="translate(0 6.172) rotate(-11)" fill="#cfcfce" stroke="#42424f" stroke-width="1" fill-rule="evenodd"/>
      </g>
      <g id="Group_1858" data-name="Group 1858" transform="translate(1335.17 273.536)">
        <g id="Group_1859" data-name="Group 1859" transform="translate(0 0)">
          <path id="Path_17612" data-name="Path 17612" d="M20.815,0A12.74,12.74,0,0,0,19.4.312c-3.74,1.042-5.391,1.541-9.588,2.71-.127.86-.054.385-.151.96-.29,1.246.016-.043-.216.942-.232,1.1-.19.681-.411,1.88-.865,4.467-1.875,9.681-3.071,15.848-.684,3.526-1.435,7.408-2.267,11.7C2.769,39.124,1.735,44.462.57,50.471a19.27,19.27,0,0,0-.4,6.945c.371,1.913,1.18,2.918,2.415,2.972s3.236-.835,5.922-2.609c4.187-2.9,6.108-3.873,6.941-5.322.4-.906.181-1.232,0-3.224-.217-2.9-.181-2.282-.254-3.852-.036-2.017.028-1.787,0-2.9-.051-2.817.045-6.161,0-8.659,3.058-1.606,9.717-3.9,12.507-5.363l3.28,5.363c1.585,2.538,2.943,4.117,4.011,4.629a3.128,3.128,0,0,0,2.449-.018,53.561,53.561,0,0,1-7.087-12.348C26.877,18.132,23.881,9.21,20.815,0m-5.622,23.16c.58-4.444,1.712-11.288,1.642-13.912,1.336,2.124,5.443,8.319,6.956,10.724-1.32.581-7.222,2.583-8.6,3.188" transform="translate(0 0.001)" fill="#42424f" stroke="#f15a5c" stroke-width="1"/>
          <path id="Path_17613" data-name="Path 17613" d="M121,27.209a122.387,122.387,0,0,1-9.908-20.133L108.214,3.92a7.058,7.058,0,0,0-.731-.706c3.279,9.632,6.517,18.334,10.49,25.183,2.633,4.53,5.959,7.57,9.237,8.8-.392-2.839-.054-.52-.417-2.694-2.222-2.512-.435-.483-2.705-3.14A49.507,49.507,0,0,1,121,27.209" transform="translate(-83.728 -2.503)" fill="#42424f" stroke="#f15a5c" stroke-width="1"/>
        </g>
      </g>
      <g id="technical" transform="translate(1354.233 312.548)">
        <path id="Path_17615" data-name="Path 17615" d="M334.417,73.834a1.917,1.917,0,1,1,1.917-1.917A1.919,1.919,0,0,1,334.417,73.834Zm0-3.067a1.15,1.15,0,1,0,1.15,1.15A1.151,1.151,0,0,0,334.417,70.767Z" transform="translate(-324.066 -67.7)" fill="#f15a5c"/>
        <path id="Path_17616" data-name="Path 17616" d="M89.66,192.815a4.981,4.981,0,0,1,3.025-9.077,5.05,5.05,0,0,1,4.788,4.864,4.972,4.972,0,0,1-2.147,4.211.365.365,0,0,0-.151.3v1.268a1.142,1.142,0,0,1-.136,1.811,1.083,1.083,0,0,1,.136.517v.114a1.091,1.091,0,0,1-.8,1.048,1.912,1.912,0,0,1-3.766,0,1.091,1.091,0,0,1-.8-1.048v-.114a1.083,1.083,0,0,1,.136-.517,1.142,1.142,0,0,1-.136-1.811v-1.268a.363.363,0,0,0-.147-.3Zm2.831,5.87a1.149,1.149,0,0,0,1.08-.767H91.412A1.148,1.148,0,0,0,92.491,198.685Zm-1.917-1.86a.327.327,0,0,0,.327.327h3.181a.327.327,0,0,0,.326-.327v-.114a.327.327,0,0,0-.327-.326H90.9a.327.327,0,0,0-.326.327Zm0-1.207h3.834a.383.383,0,0,0,0-.767H90.574a.383.383,0,0,0,0,.767Zm2.3-6.586h-.767a.773.773,0,0,1-.767-.778v-1.191a2.01,2.01,0,0,0-.767,1.586,1.985,1.985,0,0,0,1.281,1.872.383.383,0,0,1,.252.36v3.2h.767v-3.2a.383.383,0,0,1,.254-.361,1.969,1.969,0,0,0,1.239-1.46,2.029,2.029,0,0,0-.727-2v1.193a.773.773,0,0,1-.767.778ZM90.1,192.185a1.128,1.128,0,0,1,.478.932v.969h.767v-2.951a2.777,2.777,0,0,1,.252-5.077.383.383,0,0,1,.514.36v1.848l.767-.011v-1.836a.383.383,0,0,1,.515-.36,2.759,2.759,0,0,1,1.731,3.151,2.721,2.721,0,0,1-1.479,1.929v2.947h.767v-.97a1.133,1.133,0,0,1,.481-.933,4.208,4.208,0,0,0,1.818-3.563,4.272,4.272,0,0,0-4.05-4.115,4.214,4.214,0,0,0-2.56,7.68Z" transform="translate(-74.473 -176.45)" fill="#f15a5c"/>
        <path id="Path_17617" data-name="Path 17617" d="M288.051,22.867h-.583a3.428,3.428,0,0,1-.138.335l.412.413a.383.383,0,0,1,0,.542l-1.085,1.085a.383.383,0,0,1-.542,0l-.413-.412a3.492,3.492,0,0,1-.335.138v.583a.384.384,0,0,1-.383.383H283.45a.384.384,0,0,1-.383-.383v-.583a3.424,3.424,0,0,1-.335-.138l-.413.412a.383.383,0,0,1-.542,0l-1.085-1.085a.383.383,0,0,1,0-.542l.412-.413a3.494,3.494,0,0,1-.138-.335h-.583a.384.384,0,0,1-.383-.383V20.951a.384.384,0,0,1,.383-.383h.583a3.42,3.42,0,0,1,.138-.335l-.412-.413a.383.383,0,0,1,0-.542l1.085-1.085a.383.383,0,0,1,.542,0l.413.412q.164-.077.335-.138v-.583a.384.384,0,0,1,.383-.383h1.533a.384.384,0,0,1,.383.383v.583a3.424,3.424,0,0,1,.335.138l.413-.412a.383.383,0,0,1,.542,0l1.085,1.085a.383.383,0,0,1,0,.542l-.412.413q.077.163.138.334h.583a.384.384,0,0,1,.383.383v1.533a.384.384,0,0,1-.383.383Zm-.383-1.533h-.484a.383.383,0,0,1-.371-.288,2.649,2.649,0,0,0-.286-.69.383.383,0,0,1,.059-.466l.342-.342-.543-.543-.342.342a.382.382,0,0,1-.466.059,2.672,2.672,0,0,0-.69-.286.383.383,0,0,1-.287-.371v-.484h-.767v.484a.383.383,0,0,1-.288.371,2.65,2.65,0,0,0-.69.286.384.384,0,0,1-.466-.059l-.342-.342-.543.543.342.342a.383.383,0,0,1,.059.466,2.672,2.672,0,0,0-.286.69.383.383,0,0,1-.371.288h-.484V22.1h.484a.383.383,0,0,1,.371.288,2.65,2.65,0,0,0,.286.69.383.383,0,0,1-.059.466l-.342.342.543.543.342-.342a.383.383,0,0,1,.466-.059,2.673,2.673,0,0,0,.69.286.383.383,0,0,1,.287.371v.484h.767v-.484a.383.383,0,0,1,.288-.371,2.65,2.65,0,0,0,.69-.286.383.383,0,0,1,.466.059l.342.342.543-.543-.342-.342a.383.383,0,0,1-.059-.466,2.672,2.672,0,0,0,.286-.69.383.383,0,0,1,.371-.287h.484Z" transform="translate(-273.866 -17.5)" fill="#cfcfce"/>
        <path id="Path_17618" data-name="Path 17618" d="M474.417,280a1.917,1.917,0,1,1-1.917,1.917A1.919,1.919,0,0,1,474.417,280Zm0,3.067a1.15,1.15,0,1,0-1.15-1.15A1.151,1.151,0,0,0,474.417,283.067Z" transform="translate(-470.2 -268.499)" fill="#f15a5c"/>
        <path id="Path_17619" data-name="Path 17619" d="M420.384,230.567h.583a3.428,3.428,0,0,1,.138-.335l-.412-.413a.383.383,0,0,1,0-.542l1.085-1.085a.383.383,0,0,1,.542,0l.413.412a3.5,3.5,0,0,1,.335-.138v-.583a.384.384,0,0,1,.383-.383h1.533a.384.384,0,0,1,.383.383v.583a3.427,3.427,0,0,1,.335.138l.413-.412a.383.383,0,0,1,.542,0l1.085,1.085a.383.383,0,0,1,0,.542l-.412.413a3.487,3.487,0,0,1,.138.335h.583a.384.384,0,0,1,.383.383v1.533a.384.384,0,0,1-.383.383h-.583a3.419,3.419,0,0,1-.138.335l.412.413a.383.383,0,0,1,0,.542l-1.085,1.085a.383.383,0,0,1-.542,0l-.413-.412a3.5,3.5,0,0,1-.335.138v.583a.384.384,0,0,1-.383.383h-1.533a.384.384,0,0,1-.383-.383v-.583a3.427,3.427,0,0,1-.335-.138l-.413.412a.383.383,0,0,1-.542,0l-1.085-1.085a.383.383,0,0,1,0-.542l.412-.413a3.5,3.5,0,0,1-.138-.335h-.583a.384.384,0,0,1-.383-.383v-1.533A.384.384,0,0,1,420.384,230.567Zm.383,1.533h.484a.383.383,0,0,1,.371.288,2.652,2.652,0,0,0,.286.69.383.383,0,0,1-.059.466l-.342.342.543.543.342-.342a.383.383,0,0,1,.466-.059,2.672,2.672,0,0,0,.69.286.383.383,0,0,1,.287.371v.484h.767v-.484a.383.383,0,0,1,.288-.371,2.65,2.65,0,0,0,.69-.286.383.383,0,0,1,.466.059l.342.342.543-.543-.342-.342a.383.383,0,0,1-.059-.466,2.672,2.672,0,0,0,.286-.69.383.383,0,0,1,.371-.287h.484v-.767h-.484a.383.383,0,0,1-.371-.288,2.65,2.65,0,0,0-.286-.69.383.383,0,0,1,.059-.466l.342-.342-.543-.543-.342.342a.382.382,0,0,1-.466.059,2.673,2.673,0,0,0-.69-.286.383.383,0,0,1-.288-.371v-.484h-.767v.484a.383.383,0,0,1-.288.371,2.651,2.651,0,0,0-.69.286.384.384,0,0,1-.466-.059l-.342-.342-.543.543.342.342a.383.383,0,0,1,.059.466,2.673,2.673,0,0,0-.286.69.383.383,0,0,1-.371.288h-.484Z" transform="translate(-420.001 -218.3)" fill="#cfcfce"/>
        <path id="Path_17620" data-name="Path 17620" d="M193.267,148.75H192.5v.767h.767Z" transform="translate(-174.865 -143)" fill="#f15a5c"/>
        <path id="Path_17621" data-name="Path 17621" d="M237.017,78.75h-.767v.767h.767Z" transform="translate(-220.532 -76.066)" fill="#f15a5c"/>
        <path id="Path_17622" data-name="Path 17622" d="M499.517,105h-.767v.767h.767Z" transform="translate(-494.533 -101.166)" fill="#f15a5c"/>
        <path id="Path_17623" data-name="Path 17623" d="M534.517,183.75h-.767v.767h.767Z" transform="translate(-531.066 -176.466)" fill="#f15a5c"/>
        <path id="Path_17624" data-name="Path 17624" d="M368.267,262.5H367.5v.767h.767Z" transform="translate(-357.533 -251.766)" fill="#f15a5c"/>
        <path id="Path_17625" data-name="Path 17625" d="M569.517,35h-.767v.767h.767Z" transform="translate(-567.6 -34.233)" fill="#f15a5c"/>
      </g>
    </g>
    <g id="Group_1884" data-name="Group 1884" transform="translate(-1232.741 295.131) rotate(-16)">
      <g id="news" transform="translate(1375.615 328.397)">
        <path id="Path_17909" data-name="Path 17909" d="M191.179,72.777h0a.478.478,0,0,1-.33-.582,23.465,23.465,0,0,1,1.164-2.239c-.107-.019-.214-.032-.321-.051-.387-.063-.406-.544-.211-.789h0a7.349,7.349,0,0,0,.673-1,8.366,8.366,0,0,1-4.066-.359c-1-.374-1.915-1.261-1.28-2.4.082-.145.166-.3.251-.456-1.068-.616-1.632-2.063-2.147-3.116-.434-.882-.984-1.638-1.469-2.478h0a1.765,1.765,0,0,1-.334-1.037c.4-4,1.333-7.886,1.4-11.925a32.04,32.04,0,0,1,.748-5.679c.2-1.006.186-2.123,1.214-2.654,1.421-.736,3.018-1.176,4.493-1.814.666-.293,1.336-.569,2.019-.827.325-.123,1.547-.748,1.81-1.434l.01-.029a.627.627,0,0,0-.019-.487,6.622,6.622,0,0,1-1.1-2.2,2.618,2.618,0,0,1-1.711-2.607,1.937,1.937,0,0,1,.339-1.249,8.539,8.539,0,0,1-.6-1.877,17.632,17.632,0,0,1-.293-1.931,5.769,5.769,0,0,1,.053-1.857,3.246,3.246,0,0,1,.12-.44c.06-.139.116-.279.173-.418a3.82,3.82,0,0,1,1.755-1.661,1.14,1.14,0,0,1,.157-.333,1.83,1.83,0,0,1,.468-.453,4.294,4.294,0,0,1,1.286-.557,9.891,9.891,0,0,1,3.336-.293,6.1,6.1,0,0,1,2.843.919,3.481,3.481,0,0,1,.943.937,2.945,2.945,0,0,1,.421,1.021l.038.148-.06.093h0a0,0,0,0,1,0,0c.035.038.073.075.1.116a5.588,5.588,0,0,1,.531.793c.082.132.173.312.274.507a3.852,3.852,0,0,1,.242.635,8.542,8.542,0,0,1,.129,3.358l-.085-.009a1.359,1.359,0,0,1,.516.918,2.7,2.7,0,0,1-.912,2.646h0C203.748,30.143,193.31,73.318,191.179,72.777Zm1.99-10.156h0C193.595,63,195.263,62.64,193.169,62.621Zm10.468-34.329a2.536,2.536,0,0,0,.129-.858c-.012-.472-.073-.723-.446-.472.126.446.237.887.317,1.33Zm-.339-2.356a8.869,8.869,0,0,0-.035-3,3.8,3.8,0,0,0-.163-.528c-.066-.154-.126-.308-.208-.475a2.2,2.2,0,0,0-1.736-1.493,1.87,1.87,0,0,1,1.044-.009,2.339,2.339,0,0,0-.4-.8,4.254,4.254,0,0,0-.77-.406,6.491,6.491,0,0,0-2.356-.629,12.168,12.168,0,0,0-2.623.066c.289-.006.566-.006.817-.006a8.148,8.148,0,0,1,.836.032c.069.009.135.012.2.025s.129.032.189.046h0a1.488,1.488,0,0,1,.346.119,3.044,3.044,0,0,1,.877.61c.371.361.511.535.475.591s-.262-.032-.7-.3a3.558,3.558,0,0,0-.836-.406,3.7,3.7,0,0,0-1.374-.046,12.508,12.508,0,0,0-1.956.226,4.084,4.084,0,0,0-.531.151,3.364,3.364,0,0,0-.525.223,5.835,5.835,0,0,0-.511.327,3.041,3.041,0,0,0-.44.437,2.717,2.717,0,0,0-.355.538c-.041.1-.082.208-.123.314a2.923,2.923,0,0,0-.088.34,5.043,5.043,0,0,0-.012,1.575,17.505,17.505,0,0,0,.289,1.824,7.415,7.415,0,0,0,.6,1.8,1.476,1.476,0,0,1,.252.079l.028-.217c.139-1.1-.515-1.755-.6-2.764h0a2.446,2.446,0,0,1,1.2-2.465.517.517,0,0,0-.312-.258.386.386,0,0,0-.374.088c-.157.163-.2.286-.258.27-.028-.006-.044-.038-.051-.107a.575.575,0,0,1,.1-.337.638.638,0,0,1,.65-.257.835.835,0,0,1,.591.456,2.342,2.342,0,0,1,.572-.116.854.854,0,0,0-.387-.468,1.912,1.912,0,0,0-.746-.264c-.4-.057-.55.025-.579-.038-.012-.022.016-.059.1-.119a1.013,1.013,0,0,1,.491-.11,1.8,1.8,0,0,1,.905.229,1.221,1.221,0,0,1,.5.491.789.789,0,0,1,.093.333c.383.088.732.2,1.084.242a.317.317,0,0,0,.01-.079,1.037,1.037,0,0,0-.264-.528,3.547,3.547,0,0,0-.731-.63c-.415-.271-.6-.293-.6-.349s.239-.119.727.116h0a2.954,2.954,0,0,1,.865.635,1.3,1.3,0,0,1,.368.739.7.7,0,0,1,0,.11,1.836,1.836,0,0,0,.777-.22,1.039,1.039,0,0,0-.073-.787,1.439,1.439,0,0,0-.544-.5c-.352-.189-.506-.252-.491-.308s.182-.078.6.063h0a1.476,1.476,0,0,1,.726.559,1.217,1.217,0,0,1,.192.65.589.589,0,0,1-.007.076,3.273,3.273,0,0,1,.915-.39c.088-.019.17-.038.255-.053a.722.722,0,0,0-.186-.355,2.581,2.581,0,0,0-.444-.359c-.251-.163-.349-.245-.325-.3s.148-.054.45.059a1.739,1.739,0,0,1,.566.349,1.016,1.016,0,0,1,.283.434.631.631,0,0,1,.025.113,3.237,3.237,0,0,1,1.582.176c1.632.613,1.242,2.8,1.594,4.107.085.318.179.628.27.937a1.57,1.57,0,0,1,.251-.1Zm-2.431,13.485c-.161.308-.283.632-.422.949C201.234,42.695,201.314,39.751,200.867,39.421Zm1.5-7.7a6.83,6.83,0,0,0,.057-4.585,13.2,13.2,0,0,1-.771-3.235c-.107-1.412-.865-2.572-2.421-2.069-.541.176-.947.544-1.469.726a4.648,4.648,0,0,1-2.714-.154c-2.151.17-.858,2.164-.628,3.114h0a3.625,3.625,0,0,1,.041,1.437,8.144,8.144,0,0,0,.55,5.044,6.2,6.2,0,0,0,3.15,2.607c2.157.981,3.607-1.078,4.2-2.884Zm-.494,4.4h0a12,12,0,0,1-1.55,1.679C200.851,38.182,202.011,35.965,201.87,36.122Zm.359-1.975h0a.381.381,0,0,0,.012-.057,4.561,4.561,0,0,1-1.34,1.315c-1.78,1.091-3.629-.041-5.166-1.094a.554.554,0,0,1-.05-.038c-.019.082-.035.167-.046.248a9.356,9.356,0,0,0,2.569,2.553c1.27.673,1.934-.418,2.7-1.28.44-.5,1.082-.906,1.3-1.544a.493.493,0,0,1,.028-.1Zm-2.334,6.645c-.009,0-.012.007-.022.007h-.726c-.387,2.359-.289,4.758-.531,7.128C198.691,48.125,200.829,43.453,199.894,40.791Zm-3.388,10.651h0a24.319,24.319,0,0,1-2.534-4.213c-.588-1.346-1.01-2.553-1.544-3.522h0a7.466,7.466,0,0,0-.4-.686q-.109-.16-.208-.311h0a1.117,1.117,0,0,0-.085-.107l-.1-.116c-.066-.076-.129-.154-.195-.229s-.126-.151-.189-.223l-.093-.113c-.028-.035-.093-.076-.012-.1.182-.107.359-.214.534-.318.132-.076.264-.154.393-.23.088-.059.17-.126.255-.186.163-.12.321-.239.468-.362h0a1.787,1.787,0,0,0-.279-.2l-.123-.063-.06-.022a.531.531,0,0,0-.066-.022l-.093-.025c-.252-.038-.5-.076-.748-.11.093-.279.179-.55.264-.815.035-.1.069-.208.1-.308.025-.07.046-.136.075-.2.107-.258.2-.507.315-.732s.217-.441.321-.645.217-.383.317-.56c.173-.3.337-.55.491-.786-.161.063-.325.126-.491.192-1.512.6-2.971,1.311-4.512,1.837-.972.33-1.8.582-1.981,1.745-.135.856-.343,1.691-.511,2.541-.431,2.228-.261,4.437-.484,6.679-.179,1.827-.484,3.648-.751,5.465-.145.994-.3,1.981-.456,2.971-.173,1.057.464,1.486.928,2.346.384.7.78,1.815,1.311,2.732h0a2,2,0,0,1,.235-.418,3.2,3.2,0,0,1,.641-.645,4.341,4.341,0,0,1,1.362-.7,3.224,3.224,0,0,1,.65-.135,1.963,1.963,0,0,1,.308-.007,1.5,1.5,0,0,1,.289.022c.093.019.179.035.267.054a2.428,2.428,0,0,1,.644.3,2.2,2.2,0,0,1,.2.164,10.055,10.055,0,0,0-.447-2.46,5.091,5.091,0,0,0-.541-1.17,1.539,1.539,0,0,0-.145-.2,4.408,4.408,0,0,0-1.3-.342l-.676-.073-.223-.028c-.1-.013-.2-.029-.3-.041l-.56-.085c.088-.073.177-.142.264-.211s.208-.161.274-.232c.019-.019.038-.041.057-.06h0a2.175,2.175,0,0,0-.984-.01,5.885,5.885,0,0,0-.89.261c-.453.167-.65.226-.673.182s.132-.177.566-.415a4.373,4.373,0,0,1,.915-.375,2.272,2.272,0,0,1,1.56.085l.255.116-.252.267h0a.316.316,0,0,1-.059.053.053.053,0,0,0-.009.012.1.1,0,0,0-.013.016h.019c.016,0,0,0,.025,0l.079.006h0a13.889,13.889,0,0,1,1.566.176c-.279-.245-.046-.462.245-.519-.2-.343-.975-.343-1.333-.422h0a5.672,5.672,0,0,0-1.019-.142c-.519-.015-.723.076-.774,0-.046-.051.129-.315.733-.441h0a3.831,3.831,0,0,1,1.154-.037,6.715,6.715,0,0,1,1.079.2,2,2,0,0,0,.182-.8c.016-.434-.046-.9-.076-1.393-.006-.123-.009-.248-.009-.374s0-.232.012-.371a2.988,2.988,0,0,1,.158-.759,1.859,1.859,0,0,0,.145-1l-.007-.019v-.016h0a4.3,4.3,0,0,0-.657-1.308,6.234,6.234,0,0,1-.409-.714,2.7,2.7,0,0,1-.157-.393,2.519,2.519,0,0,1-.107-.4c-.195-.965-.286-1.839-.393-2.6a35.071,35.071,0,0,0-.776-3.611c-.415-1.857-.5-2.6-.393-2.626s.393.676.956,2.465h0a24.531,24.531,0,0,1,.993,3.644c.139.786.255,1.632.459,2.538a1.7,1.7,0,0,0,.088.3,1.48,1.48,0,0,0,.126.293,5.006,5.006,0,0,0,.364.613,4.955,4.955,0,0,1,.792,1.578,4.413,4.413,0,0,0,.871.55l.793.406a2.573,2.573,0,0,1-.1.261c-.034.082-.088.2-.093.226a1.982,1.982,0,0,0-.085.279,1.325,1.325,0,0,0,.091.994,2.186,2.186,0,0,0,.679.692c.267.189.541.352.8.516s.5.343.713.5c.431.318.815.582,1.145.814.663.446.308.594-.183.283-.346-.217-.743-.468-1.185-.777-.23-.154-.45-.311-.708-.459s-.541-.318-.836-.515h0a2.566,2.566,0,0,1-.823-.83,1.8,1.8,0,0,1-.151-1.321,2.346,2.346,0,0,1,.1-.33c.026-.076.019-.053.026-.073a.257.257,0,0,0,.015-.034c-.135-.069-.27-.136-.412-.208-.192-.1-.4-.2-.594-.333-.007.063-.012.125-.025.189h0a4.948,4.948,0,0,1-.173.692,2.075,2.075,0,0,0-.107.548c-.007.088-.012.217-.012.317s.006.211.012.321c0,.069.009.142.015.213a1.648,1.648,0,0,1,.595.305.978.978,0,0,1,.191.2.888.888,0,0,1,.139.258.861.861,0,0,1,.063.267.977.977,0,0,1,.006.236,4.992,4.992,0,0,1-.11.683,2.024,2.024,0,0,0-.05.484,1,1,0,0,0,.022.2,1.861,1.861,0,0,0,.057.182c.031.05.06.119.085.154a.382.382,0,0,0,.093.088c.093.076.255.154.44.305h0a1.056,1.056,0,0,1,.264.318,1.375,1.375,0,0,1,.123.325c.046.2.06.349.085.459h0a1.965,1.965,0,0,0,.116.318,3.021,3.021,0,0,0,.377.585,4.753,4.753,0,0,0,.882.814c.411.295.132.854-.358.562a4.741,4.741,0,0,1-1.114-.865,3.759,3.759,0,0,1-.525-.72c-.025-.053-.053-.107-.078-.163-.012.046-.025.088-.041.135h0a2.286,2.286,0,0,0-.129.613.976.976,0,0,1,.007.139c.006.053.019.123.028.186.019.129.046.267.073.409.056.286.122.6.16.953a4.3,4.3,0,0,1,0,.783C194.493,61.68,197.013,52.172,196.507,51.443Zm3.316-11.282c.177-.39.315-.793.522-1.164-.308-.242-.623-.475-.947-.7a.2.2,0,0,0-.025-.025.6.6,0,0,1-.069.107c-.258.3-.5.61-.746.924a4.084,4.084,0,0,1,.522.865h.743Zm-2.543,6.978a27.725,27.725,0,0,1-1.9-7.506h0a8.348,8.348,0,0,0-.1-.849.706.706,0,0,1-.041.059c-.214.305-.525.7-.906,1.189h0a10.89,10.89,0,0,1-1.588,1.591c-.088.073-.177.148-.271.217l-.151.1-.041.028-.076.053c.007.028.066.075.093.11l.054.057.025.028h0a.212.212,0,0,1,.038.044c.078.11.16.223.242.336a8.2,8.2,0,0,1,.464.733c.6,1.021,1.057,2.252,1.651,3.553h0a24.98,24.98,0,0,0,2.5,4.039C197.788,51.65,198.106,49.427,197.279,47.138Zm1.232-6.512a.233.233,0,0,1-.038-.2,3.586,3.586,0,0,0-.325-.582,12.134,12.134,0,0,1-1.085,1.421h0a1.959,1.959,0,0,0-.621-.635,1.082,1.082,0,0,0,.009.3c.016.107.044.214.069.318a52.2,52.2,0,0,0,1.554,5.189,54.4,54.4,0,0,1,.437-5.811Zm-1.522-.8c.409-.554.824-1.1,1.258-1.641a6.532,6.532,0,0,1-2.6-2.151c.069.446.182.887.293,1.339h0a10.924,10.924,0,0,0,1.049,2.453ZM195.2,38.355c-.05-.242-.1-.484-.157-.723a11.677,11.677,0,0,1-.4-2.066q-.094.07-.2.139c-.007.016-.016.032-.022.046-.22.422-.5.968-.868,1.667q-.127.264-.274.557c-.085.195-.179.4-.274.619s-.176.45-.27.689c-.026.059-.044.123-.063.182l-.028.093h.006a0,0,0,0,1,0,0l.019.007.11.041.2.1h0a2.666,2.666,0,0,1,.522.39c.151-.148.3-.289.428-.424.409-.441.743-.777,1.009-1.06.091-.1.173-.18.248-.257Zm-1.43,26.188a5.034,5.034,0,0,0-1.868-1.607,3.948,3.948,0,0,0-1.827-.368c-.893.49-1.253,1.478-1.818,2.289-.361.516-1.018,1.512-.167,1.89h0a4.363,4.363,0,0,0,.882.279c-.028-.041-.053-.082-.079-.12-.182-.3-.195-.444-.139-.477s.167.041.4.27c.119.113.27.261.475.434l.016.012a11.321,11.321,0,0,0,1.43.12,3.548,3.548,0,0,1-.325-.179,5.819,5.819,0,0,1-.952-.7c-.434-.406-.538-.619-.494-.66s.232.075.7.4h0a10.259,10.259,0,0,0,.96.591,4.711,4.711,0,0,0,.7.305,1.821,1.821,0,0,0,.77.1,1.738,1.738,0,0,0,.657-.34,2.975,2.975,0,0,1-.743-.16,3.421,3.421,0,0,1-.928-.516,7.536,7.536,0,0,1-1.041-1.013c-.464-.541-.616-.767-.572-.817s.286.1.812.582a10.883,10.883,0,0,0,1.06.9,2.87,2.87,0,0,0,1.647.572,3.74,3.74,0,0,0-.877-1.645c-.038-.041-.073-.078-.1-.119a.34.34,0,0,0-.1-.028l-.179-.025h0a.967.967,0,0,1-.145-.035.563.563,0,0,1-.129-.073.3.3,0,0,1-.116-.239.934.934,0,0,1,.009-.136l.009-.059c.007-.032.016-.022-.066-.116a2.626,2.626,0,0,0-.418-.544c-.1-.093-.157-.135-.144-.17s.085-.041.239.013h0a.87.87,0,0,1,.274.169,4.289,4.289,0,0,1,.3.315.836.836,0,0,1,.11.11.365.365,0,0,1,.066.232l0,.088,0,.016a.024.024,0,0,0,.016.025h.016c.009,0-.009,0,.022,0,.063,0,.126.007.189.013a.609.609,0,0,1,.122.022.451.451,0,0,1,.151.063c.069.032.078.07.11.093l.076.082h0C193.211,64.816,194.033,64.9,193.766,64.543Zm-.39-36.372a.093.093,0,0,0-.031-.013c-.293-.173-.39-.226-.415.151a2.661,2.661,0,0,0,.034.821,1.762,1.762,0,0,0,.441.843,7.857,7.857,0,0,1-.029-1.8Zm-2.228,29.876a1.513,1.513,0,0,0,.107-.745h0c-.026-.019-.053-.035-.082-.057h0a1.459,1.459,0,0,1-.293-.274,3.164,3.164,0,0,1-.186-.321c-.035-.082-.063-.17-.093-.258-.073-.085-.139-.17-.2-.255l-.044.085c-.028.063-.06.126-.093.189s-.088.144-.117.195h0a.178.178,0,0,1-.022.028c0,.006.022.012.031.019l.016.007.007,0,.057.05h0a2.469,2.469,0,0,1,.248.261,2.031,2.031,0,0,1,.223.289,5.115,5.115,0,0,1,.443.785Zm-.346,3.6a1.978,1.978,0,0,0-.217-.148,2.147,2.147,0,0,0-1.84-.1,4.1,4.1,0,0,0-1.211.654,2.008,2.008,0,0,0-.821,1.229,3.637,3.637,0,0,0,.434.5,3.007,3.007,0,0,1,2.626-2.129.521.521,0,0,1,.312-.028,4.59,4.59,0,0,1,.716.023Z" transform="translate(-183.109 -17.51)" fill="#42424f"/>
        <path id="Path_17910" data-name="Path 17910" d="M315.991,106.48a.611.611,0,0,1,.022.261.43.43,0,0,1-.186.289,1.167,1.167,0,0,1-.387.139,1.443,1.443,0,0,0-.214.069c-.006.019-.025.066-.053.144a.577.577,0,0,1-.139.22c-.279.264-.337.032-.594-.038-.333-.085-.682-.107-1.021-.189h0a1.407,1.407,0,0,1-.286-.107.706.706,0,0,1-.163-.129.47.47,0,0,1-.1-.226.727.727,0,0,1,.041-.346c.028-.085.057-.158.085-.227.06-.139.116-.27.161-.39a3.75,3.75,0,0,0,.125-.371,3.108,3.108,0,0,0,.114-.67,2.453,2.453,0,0,0-.116-.975,1.359,1.359,0,0,0-.11-.261c-.028-.063-.035-.1-.019-.113s.046.007.1.046h0a.709.709,0,0,1,.2.22,2.071,2.071,0,0,1,.318,1.082,3.3,3.3,0,0,1-.063.78,3.735,3.735,0,0,1-.11.409c-.2.632-.337.764.4.84a.406.406,0,0,0,.06.01l.032,0h.016c.158.019.312.229.453.214.226-.026.3-.279.481-.381.144-.082.359.046.511-.116.393-.431-.711-.632-.882-1h0a1.6,1.6,0,0,1-.148-.764,4.031,4.031,0,0,1,.041-.538c.04-.293.078-.449.119-.453s.076.167.1.456c.016.144.026.321.057.516h0a1.469,1.469,0,0,0,.17.579l.01.012a.6.6,0,0,0,.283.255,2.041,2.041,0,0,1,.267.139.676.676,0,0,1,.16.135.693.693,0,0,1,.1.126l.022.031.006.006.019.031.009.019.041.078h0a1.338,1.338,0,0,1,.067.182Z" transform="translate(-299.092 -94.428)" fill="#42424f"/>
        <path id="Path_17911" data-name="Path 17911" d="M273.031,225.219s0,0,0,0Z" transform="translate(-263.488 -203.177)" fill="#42424f"/>
      </g>
      <g id="newspaper" transform="translate(1362.785 375.532)">
        <path id="Path_17912" data-name="Path 17912" d="M147.8,79.623h-6.227a.283.283,0,0,0-.283.283v3.4a.283.283,0,0,0,.283.283H147.8a.283.283,0,0,0,.283-.283v-3.4a.283.283,0,0,0-.283-.283Zm-.283,3.4h-5.661V80.189h5.661Zm-12.455-3.114a.283.283,0,0,1,.283-.283h5.1a.283.283,0,0,1,0,.566h-5.1A.283.283,0,0,1,135.062,79.906Zm0,1.7a.283.283,0,0,1,.283-.283h5.1a.283.283,0,0,1,0,.566h-5.1A.283.283,0,0,1,135.062,81.6Zm0,1.7h0a.283.283,0,0,1,.283-.283h5.1a.283.283,0,1,1,0,.566h-5.1a.283.283,0,0,1-.283-.283ZM148.083,85h0a.283.283,0,0,1-.283.283H135.345a.283.283,0,1,1,0-.566H147.8a.283.283,0,0,1,.283.283Zm0,1.7h0a.283.283,0,0,1-.283.283H135.345a.283.283,0,1,1,0-.566H147.8a.283.283,0,0,1,.283.283Zm4.529-12.738H149.5v-3.68a.283.283,0,0,0-.283-.283H133.93a.283.283,0,0,0-.283.283v16.7a1.7,1.7,0,0,0,1.7,1.7h15.569c.525,0,1.981-1.456,1.981-14.436a.283.283,0,0,0-.283-.283Zm-3.084,14.153H135.345a1.134,1.134,0,0,1-1.132-1.132V70.565h14.719V86.7a2,2,0,0,0,.6,1.415Zm2.093-.19A1.415,1.415,0,0,1,149.5,86.7V74.527h2.831S152.059,87.672,151.622,87.925Z" transform="translate(-133.647 -69.999)" fill="#f15a5c"/>
        <line id="Line_273" data-name="Line 273" x2="13.066" transform="translate(1.115 1.335)" fill="none" stroke="#f15a5c" stroke-linecap="round" stroke-width="0.5"/>
        <line id="Line_276" data-name="Line 276" x2="11.003" transform="translate(1.745 2.764)" fill="none" stroke="#f15a5c" stroke-linecap="round" stroke-width="0.5"/>
        <line id="Line_277" data-name="Line 277" x2="11.003" transform="translate(1.865 5.919)" fill="none" stroke="#f15a5c" stroke-linecap="round" stroke-width="0.5"/>
        <line id="Line_274" data-name="Line 274" x2="13.066" transform="translate(1.249 4.495)" fill="none" stroke="#f15a5c" stroke-linecap="round" stroke-width="0.5"/>
        <line id="Line_275" data-name="Line 275" x2="13.066" transform="translate(1.383 7.654)" fill="none" stroke="#f15a5c" stroke-linecap="round" stroke-width="0.5"/>
      </g>
    </g>
    <g id="backstab" transform="translate(158.314 181.636)">
      <path id="Path_18142" data-name="Path 18142" d="M497.921,74.813a5.93,5.93,0,1,1-7.121,4.43,5.93,5.93,0,0,1,7.121-4.43" transform="translate(-374.956 -27.103)" fill="#42424f" stroke="#bebebe" stroke-width="1"/>
      <path id="Path_18143" data-name="Path 18143" d="M440.343,193.52c.188.621.389,1.353.582,2.183h.107v-2.749h.41c1.887,2.106,5.048,2.373,5.09-1.729-.178-.562-.346-1.046-.493-1.443-.553-4.131.461-8.889,1.192-12.493a34.377,34.377,0,0,1-.038,7.925,32.019,32.019,0,0,1,1.134,3.183q.9-1.485,1.668-3.093c-.129-3.8-1.622-11.53-2.9-13.532a.1.1,0,0,0-.046-.039,3.325,3.325,0,0,0-2.1-1.786c-2.25-.561-5.513.661-6.84,4.521a29.134,29.134,0,0,0-1.5,14.637c.559,2.865,2.066,3.994,3.73,4.416Z" transform="translate(-327.56 -110.09)" fill="#42424f" stroke="#bebebe" stroke-width="1"/>
      <path id="Path_18144" data-name="Path 18144" d="M510.43,367.138V366.4h-.614a2.53,2.53,0,0,1-1.094.743h1.707Z" transform="translate(-389.387 -281.524)" fill="#42424f" stroke="#cfcfce" stroke-width="1"/>
      <path id="Path_18145" data-name="Path 18145" d="M462.265,472.852a3.3,3.3,0,1,0,6.181,2.288,39.394,39.394,0,0,0,2.273-9.978h-6.627a32.734,32.734,0,0,1-1.827,7.69Z" transform="translate(-350.026 -367.658)" fill="#42424f" stroke="#bebebe" stroke-width="1"/>
      <path id="Path_18150" data-name="Path 18150" d="M456.32,354.84a2.636,2.636,0,0,1-.279.952h.786v1.8h-5.286v-1.5c-.023-.034-.05-.065-.072-.1-.244-.386-.473-.77-.7-1.154h-.184v2.749h-3.937v10.837h15.065V357.589h-3.939V354.84Zm3.627,5.861v.753H448.423V360.7Z" transform="translate(-336.59 -271.447)" fill="#42424f" stroke="#f15a5c" stroke-width="1"/>
      <path id="Path_18151" data-name="Path 18151" d="M460.338,200.388a10.113,10.113,0,0,1,1.054-4.64,7.428,7.428,0,0,1,.687-1.109c.087-.116.155-.2.193-.24l.031-.035a2.109,2.109,0,0,0-3-2.968h0a10.041,10.041,0,0,0-1.672,2.434,14.349,14.349,0,0,0-1.515,6.558c0,3.342,1.042,7.482,4.051,12.247a2.109,2.109,0,1,0,3.569-2.249c-2.66-4.227-3.4-7.53-3.4-10Z" transform="translate(-344.847 -128.37)" fill="#42424f" stroke="#bebebe" stroke-width="1"/>
      <path id="Path_18154" data-name="Path 18154" d="M334.939,158.27v.571a2.162,2.162,0,0,0,1.408.345Z" transform="translate(-227.934 -96.642)" fill="#42424f" stroke="#f15a5c" stroke-width="1"/>
    </g>
  </g>
</svg>
