<svg xmlns="http://www.w3.org/2000/svg" xmlns:xlink="http://www.w3.org/1999/xlink" width="100%" height="100%" viewBox="0 0 194.245 119.373">
  <defs>
    <filter id="Ellipse_9" x="149.421" y="45.165" width="25.917" height="25.917" filterUnits="userSpaceOnUse">
      <feOffset input="SourceAlpha"/>
      <feGaussianBlur stdDeviation="1" result="blur"/>
      <feFlood flood-opacity="0.412"/>
      <feComposite operator="in" in2="blur"/>
      <feComposite in="SourceGraphic"/>
    </filter>
    <filter id="Ellipse_9-2" x="149.683" y="93.457" width="25.917" height="25.917" filterUnits="userSpaceOnUse">
      <feOffset input="SourceAlpha"/>
      <feGaussianBlur stdDeviation="1" result="blur-2"/>
      <feFlood flood-opacity="0.412"/>
      <feComposite operator="in" in2="blur-2"/>
      <feComposite in="SourceGraphic"/>
    </filter>
    <filter id="Ellipse_9-3" x="146.303" y="0" width="25.917" height="25.917" filterUnits="userSpaceOnUse">
      <feOffset input="SourceAlpha"/>
      <feGaussianBlur stdDeviation="1" result="blur-3"/>
      <feFlood flood-opacity="0.412"/>
      <feComposite operator="in" in2="blur-3"/>
      <feComposite in="SourceGraphic"/>
    </filter>
  </defs>
  <g id="Video_Face_Rating_Vertical" transform="translate(-9 -54.285)" style="mix-blend-mode: luminosity;isolation: isolate">
    <g id="Group_298" data-name="Group 298" transform="translate(9 56)">
      <g id="Rectangle_318" data-name="Rectangle 318" transform="translate(0 0.001)" fill="#42424f" stroke="#42424f" stroke-width="1">
        <rect width="144" height="116" rx="2" stroke="none"/>
        <rect x="0.5" y="0.5" width="143" height="115" rx="1.5" fill="none"/>
      </g>
      <g id="play" transform="translate(52.528 38.302)">
        <circle id="Ellipse_118" data-name="Ellipse 118" cx="19.81" cy="19.81" r="19.81" transform="translate(0 0)" fill="#f15a5c"/>
        <path id="Path_467" data-name="Path 467" d="M302.105,180.951a.749.749,0,0,1-.354-.059.79.79,0,0,1-.472-.767V155.364a.79.79,0,0,1,.472-.767.94.94,0,0,1,.884.118l13.8,12.381a.861.861,0,0,1,0,1.3l-13.8,12.322a.72.72,0,0,1-.53.236Zm.825-23.7v20.988L314.6,167.745Z" transform="translate(-286.597 -147.936)" fill="#42424f"/>
        <path id="Path_468" data-name="Path 468" d="M181.649,131.458a19.809,19.809,0,1,1,19.809-19.809A19.852,19.852,0,0,1,181.649,131.458Zm0-37.967a18.158,18.158,0,1,0,18.158,18.158A18.166,18.166,0,0,0,181.649,93.491Z" transform="translate(-161.837 -91.84)" fill="#f15a5c"/>
      </g>
    </g>
    <g id="Group_287" data-name="Group 287" transform="translate(158.303 57.285)">
      <g id="Emoticon_Vertical_Slider_" data-name="Emoticon_Vertical_Slider​" transform="translate(0 0)">
        <g id="Group_168" data-name="Group 168" transform="translate(0 0)">
          <g id="line" transform="translate(27.98 8.017)">
            <rect id="Rectangle_191" data-name="Rectangle 191" width="3.08" height="98.487" transform="translate(5.257 0)" fill="#d2d2d2"/>
            <rect id="Rectangle_343" data-name="Rectangle 343" width="5.472" height="1.094" transform="translate(0 0)" fill="#d2d2d2"/>
            <rect id="Rectangle_344" data-name="Rectangle 344" width="6" height="1" transform="translate(-0.283 46.698)" fill="#d2d2d2"/>
            <rect id="Rectangle_345" data-name="Rectangle 345" width="5.472" height="1.094" transform="translate(0 97.396)" fill="#d2d2d2"/>
            <path id="Polygon_4" data-name="Polygon 4" d="M4.69,0,9.38,7.387H0Z" transform="translate(9.576 51.59) rotate(-90)" fill="#e8d909"/>
          </g>
          <g id="Group_25" data-name="Group 25" transform="translate(3.118 45.165)">
            <g transform="matrix(1, 0, 0, 1, -152.42, -48.16)" filter="url(#Ellipse_9)">
              <circle id="Ellipse_9-4" data-name="Ellipse 9" cx="9.958" cy="9.958" r="9.958" transform="translate(152.42 48.16)" fill="#e8d909"/>
            </g>
            <g id="Group_14" data-name="Group 14" transform="translate(4.408 6.652)">
              <g id="Group_10" data-name="Group 10" transform="translate(0 0)">
                <path id="Path_9" data-name="Path 9" d="M332.342,299.964a1.428,1.428,0,1,1,1.428,1.428h0a1.427,1.427,0,0,1-1.428-1.426Z" transform="translate(-332.342 -298.536)" fill="#fff"/>
              </g>
              <g id="Group_11" data-name="Group 11" transform="translate(9.282 0)">
                <path id="Path_10" data-name="Path 10" d="M342.362,299.964a1.428,1.428,0,1,1,1.428,1.428,1.427,1.427,0,0,1-1.428-1.428Z" transform="translate(-342.362 -298.536)" fill="#fff"/>
              </g>
              <g id="Group_13" data-name="Group 13" transform="translate(0.294 5.744)">
                <g id="Path_12" data-name="Path 12" transform="translate(-332.191 -304.737)" fill="#fff">
                  <path d="M 343.4682922363281 305.732666015625 L 332.5755004882812 305.732666015625 L 332.5737609863281 305.482666015625 L 332.5737609863281 305.732666015625 C 332.2263488769531 305.732666015625 331.9425354003906 305.4547729492188 331.9411010742188 305.1131591796875 C 331.9395141601562 304.9469604492188 332.0047607421875 304.7892150878906 332.1248474121094 304.67041015625 C 332.2428894042969 304.5536193847656 332.4001159667969 304.4884948730469 332.5675354003906 304.4869995117188 L 332.5755004882812 304.4869995117188 L 343.4682922363281 304.4869995117188 C 343.8182067871094 304.4869689941406 344.1011352539062 304.7644653320312 344.1026916503906 305.1054992675781 C 344.1042175292969 305.272216796875 344.0390014648438 305.4301147460938 343.9190063476562 305.5490112304688 C 343.8009643554688 305.6660461425781 343.6436767578125 305.7312316894531 343.4761352539062 305.732666015625 L 343.4682922363281 305.732666015625 Z" stroke="none"/>
                  <path d="M 332.5737609863281 305.482666015625 C 332.5743408203125 305.482666015625 332.5749206542969 305.482666015625 332.5755004882812 305.482666015625 L 343.4740295410156 305.482666015625 C 343.6846313476562 305.4808959960938 343.8545837402344 305.3132019042969 343.8526916503906 305.1066589355469 C 343.8517456054688 304.9020690917969 343.6810913085938 304.7369995117188 343.4719848632812 304.7369995117188 C 343.4707641601562 304.7369995117188 343.4695129394531 304.7369995117188 343.4682922363281 304.7369995117188 L 332.5697631835938 304.7369995117188 C 332.3590393066406 304.7388610839844 332.1891174316406 304.9064636230469 332.1911010742188 305.1121215820312 C 332.1919555664062 305.3172607421875 332.3638000488281 305.482666015625 332.5737609863281 305.482666015625 M 343.4761352539062 305.982666015625 L 332.5755004882812 305.982666015625 C 332.0890808105469 305.9826965332031 331.693115234375 305.5931091308594 331.6911010742188 305.1142272949219 C 331.6888427734375 304.8811645507812 331.7804260253906 304.6594543457031 331.9490356445312 304.4927062988281 C 332.1135864257812 304.3298645019531 332.3324584960938 304.2390747070312 332.5653381347656 304.2370300292969 L 332.5755004882812 304.2369995117188 L 343.4682922363281 304.2369995117188 C 343.9554443359375 304.2369689941406 344.3505249023438 304.6260986328125 344.3526916503906 305.1043701171875 C 344.3548278808594 305.3379821777344 344.2633056640625 305.5597839355469 344.0950012207031 305.7265930175781 C 343.9303588867188 305.8897399902344 343.7113342285156 305.9806823730469 343.4782409667969 305.9826354980469 L 343.4761352539062 305.982666015625 Z" stroke="none" fill="#fff"/>
                </g>
              </g>
            </g>
          </g>
          <g id="Group_168-2" data-name="Group 168" transform="translate(3.38 93.457)">
            <g id="Group_25-2" data-name="Group 25" transform="translate(0 0)">
              <g transform="matrix(1, 0, 0, 1, -152.68, -96.46)" filter="url(#Ellipse_9-2)">
                <circle id="Ellipse_9-5" data-name="Ellipse 9" cx="9.958" cy="9.958" r="9.958" transform="translate(152.68 96.46)" fill="#f54f4f"/>
              </g>
              <g id="Group_274" data-name="Group 274" transform="translate(4.161 6.652)">
                <path id="Path_18" data-name="Path 18" d="M332.634,356.736a.373.373,0,0,1-.342-.521,5.809,5.809,0,0,1,10.659,0,.373.373,0,1,1-.675.315l-.008-.019a5.064,5.064,0,0,0-9.291,0A.371.371,0,0,1,332.634,356.736Z" transform="translate(-331.429 -349.231)" fill="#f54f4f" stroke="#fff" stroke-width="1"/>
                <path id="Path_19" data-name="Path 19" d="M332.908,350.471a1.724,1.724,0,0,1-1.486-.858.438.438,0,1,1,.759-.439.841.841,0,0,0,1.423.049.438.438,0,0,1,.726.491h0A1.718,1.718,0,0,1,332.908,350.471Z" transform="translate(-331.363 -348.954)" fill="#f54f4f" stroke="#fff" stroke-width="1"/>
                <path id="Path_20" data-name="Path 20" d="M342.946,350.471a1.717,1.717,0,0,1-1.423-.757.438.438,0,0,1,.726-.491h0a.839.839,0,0,0,1.166.225.855.855,0,0,0,.257-.274.438.438,0,1,1,.759.439A1.723,1.723,0,0,1,342.946,350.471Z" transform="translate(-332.106 -348.954)" fill="#f54f4f" stroke="#fff" stroke-width="1"/>
              </g>
            </g>
          </g>
          <g id="Group_168-3" data-name="Group 168" transform="translate(0)">
            <g id="Group_25-3" data-name="Group 25" transform="translate(0 0)">
              <g transform="matrix(1, 0, 0, 1, -149.3, -3)" filter="url(#Ellipse_9-3)">
                <circle id="Ellipse_9-6" data-name="Ellipse 9" cx="9.958" cy="9.958" r="9.958" transform="translate(149.3 3)" fill="#6cc959"/>
              </g>
              <g id="Group_273" data-name="Group 273" transform="translate(3.569 5.711)">
                <path id="Path_2" data-name="Path 2" d="M344.588,253.328a.369.369,0,0,1-.334.213.377.377,0,0,1-.162-.037l-.228-.108a6.171,6.171,0,0,1-11.527,0l-.228.108a.361.361,0,0,1-.159.037.373.373,0,0,1-.161-.711l1.055-.5a.373.373,0,1,1,.351.658l-.029.014-.155.071a5.428,5.428,0,0,0,10.18,0l-.154-.071a.372.372,0,1,1,.32-.672h0l1.056.5a.371.371,0,0,1,.177.495Z" transform="translate(-331.571 -248.274)" fill="#6cc959" stroke="#fff" stroke-width="1"/>
                <g id="Group_3" data-name="Group 3" transform="translate(0.338 0.004)">
                  <path id="Path_3" data-name="Path 3" d="M333.481,249.471a1.725,1.725,0,0,1-1.486-.854.438.438,0,0,1,.759-.439.841.841,0,0,0,1.422.049.438.438,0,0,1,.726.49A1.716,1.716,0,0,1,333.481,249.471Z" transform="translate(-331.936 -247.959)" fill="#6cc959" stroke="#fff" stroke-width="1"/>
                </g>
                <g id="Group_4" data-name="Group 4" transform="translate(9.679)">
                  <path id="Path_4" data-name="Path 4" d="M343.518,249.471a1.717,1.717,0,0,1-1.423-.757.438.438,0,1,1,.726-.491.841.841,0,0,0,1.168.224.863.863,0,0,0,.255-.273.438.438,0,0,1,.758.439A1.724,1.724,0,0,1,343.518,249.471Z" transform="translate(-342.02 -247.955)" fill="#6cc959" stroke="#fff" stroke-width="1"/>
                </g>
              </g>
            </g>
          </g>
        </g>
      </g>
    </g>
  </g>
</svg>
