<svg id="Raven_Slider3" xmlns="http://www.w3.org/2000/svg" width="100%" height="100%" viewBox="0 0 920 480">
  <g id="Group_58432" data-name="Group 58432">
    <rect id="Rectangle_26560" data-name="Rectangle 26560" width="920" height="475.052" transform="translate(0 4.948)" fill="#fff"/>
    <g id="border" transform="translate(161.858 119.4)">
      <path id="Path_45642" data-name="Path 45642" d="M229.62,198.47l30.3,12.312m0,0,12.44,29.983m0,0L259.916,270.6m0,0-30.3,12.312m0,0L199.471,270.6m0,0-12.44-29.838m0,0,12.44-29.983m0,0L229.62,198.47m0-42.3,60.445,24.769m0,0,25.027,59.822m0,0-25.027,59.677m0,0L229.62,325.211m0,0-60.3-24.769m0,0-25.027-59.677m0,0,25.027-59.822m0,0,60.3-24.769m0-42.15L320.214,151.1m0,0,37.613,89.66m0,0L320.214,330.28m0,0L229.62,367.506m0,0L139.172,330.28m0,0-37.613-89.516m0,0,37.613-89.66m0,0,90.448-37.081m0-42.322,120.744,49.564m0,0,50.083,119.5m0,0-50.083,119.5m0,0L229.62,409.71m0,0L108.877,360.264m0,0-49.959-119.5m0,0,49.959-119.5m0,0L229.62,71.7" transform="translate(-58.918 -71.702)" fill="none" stroke="#d4d5d7" stroke-linejoin="round" stroke-width="0.75"/>
      <path id="Path_45643" data-name="Path 45643" d="M140.868,147.766l84.447-31.26L324.4,133.426l49.544,98.061L332.887,337.805l-107.572,5.166L138.38,317.527,78.519,231.488l62.349-83.722" transform="translate(-54.613 -62.425)" fill="none" stroke="#646464" stroke-linecap="round" stroke-linejoin="round" stroke-width="1.25"/>
      <path id="Path_45644" data-name="Path 45644" d="M199.559,113.52l3.659,7.242H195.9Z" transform="translate(-28.832 -63.044)" fill="#00476b"/>
      <path id="Path_45645" data-name="Path 45645" d="M199.559,113.52l3.659,7.242H195.9Z" transform="translate(-28.832 -63.044)" fill="none" stroke="#00476b" stroke-linejoin="round" stroke-width="0.75"/>
      <path id="Path_45646" data-name="Path 45646" d="M280.8,127.56l3.659,7.242H277.14Z" transform="translate(-10.989 -60.137)" fill="#00476b"/>
      <path id="Path_45647" data-name="Path 45647" d="M280.8,127.56l3.659,7.242H277.14Z" transform="translate(-10.989 -60.137)" fill="#646464" stroke="#646464" stroke-linejoin="round" stroke-width="0.75"/>
      <path id="Path_45648" data-name="Path 45648" d="M321.479,208.8l3.659,7.242H317.82Z" transform="translate(-2.055 -43.315)" fill="#00476b"/>
      <path id="Path_45649" data-name="Path 45649" d="M321.479,208.8l3.659,7.242H317.82Z" transform="translate(-2.055 -43.315)" fill="#646464" stroke="#646464" stroke-linejoin="round" stroke-width="0.75"/>
      <path id="Path_45650" data-name="Path 45650" d="M287.76,296.88l3.659,7.242H284.1Z" transform="translate(-9.461 -25.077)" fill="#00476b"/>
      <path id="Path_45651" data-name="Path 45651" d="M287.76,296.88l3.659,7.242H284.1Z" transform="translate(-9.461 -25.077)" fill="#646464" stroke="#646464" stroke-linejoin="round" stroke-width="0.75"/>
      <path id="Path_45652" data-name="Path 45652" d="M199.56,301.2l3.659,7.242H195.9Z" transform="translate(-28.832 -24.182)" fill="#646464" stroke="#646464" stroke-width="1"/>
      <path id="Path_45653" data-name="Path 45653" d="M199.56,301.2l3.659,7.242H195.9Z" transform="translate(-28.832 -24.182)" fill="none" stroke="#646464" stroke-linejoin="round" stroke-width="0.75"/>
      <path id="Path_45654" data-name="Path 45654" d="M128.28,280.08l3.659,7.242h-7.318Z" transform="translate(-44.487 -28.556)" fill="#00476b"/>
      <path id="Path_45655" data-name="Path 45655" d="M128.28,280.08l3.659,7.242h-7.318Z" transform="translate(-44.487 -28.556)" fill="#646464" stroke="#646464" stroke-linejoin="round" stroke-width="0.75"/>
      <path id="Path_45656" data-name="Path 45656" d="M79.2,208.8l3.659,7.242H75.541Z" transform="translate(-55.267 -43.315)" fill="#00476b"/>
      <path id="Path_45657" data-name="Path 45657" d="M79.2,208.8l3.659,7.242H75.541Z" transform="translate(-55.267 -43.315)" fill="#646464" stroke="#646464" stroke-linejoin="round" stroke-width="0.75"/>
      <path id="Path_45658" data-name="Path 45658" d="M130.32,139.44l3.659,7.242h-7.318Z" transform="translate(-44.039 -57.676)" fill="#00476b"/>
      <path id="Path_45659" data-name="Path 45659" d="M130.32,139.44l3.659,7.242h-7.318Z" transform="translate(-44.039 -57.676)" fill="#646464" stroke="#646464" stroke-linejoin="round" stroke-width="0.75"/>
      <path id="Path_45660" data-name="Path 45660" d="M167.911,178.037l50.639-46.13,16.977,79.59,32.607,16.8-22.947,26.217L218.55,373.583,113.613,332.154,109.322,228.3l58.589-50.262" transform="translate(-47.848 -59.236)" fill="none" stroke="#f1ad0f" stroke-linecap="round" stroke-linejoin="round" stroke-width="1.25"/>
      <g id="Group_58434" data-name="Group 58434" transform="translate(76.62 50.477)">
        <rect id="Rectangle_26543" data-name="Rectangle 26543" width="7.318" height="7.242" transform="translate(90.448)" stroke="#000" stroke-linejoin="round" stroke-width="0.75"/>
        <rect id="Rectangle_26544" data-name="Rectangle 26544" width="7.318" height="7.242" transform="translate(155.723 50.406)" stroke="#000" stroke-width="1"/>
        <rect id="Rectangle_26547" data-name="Rectangle 26547" width="7.318" height="7.242" transform="translate(150.307 115.009)" stroke="#000" stroke-linejoin="round" stroke-width="0.75"/>
        <rect id="Rectangle_26549" data-name="Rectangle 26549" width="7.318" height="7.242" transform="translate(97.766 122.106)" stroke="#000" stroke-linejoin="round" stroke-width="0.75"/>
        <rect id="Rectangle_26551" data-name="Rectangle 26551" width="7.318" height="7.242" transform="translate(90.448 231.611)" stroke="#000" stroke-linejoin="round" stroke-width="0.75"/>
        <rect id="Rectangle_26553" data-name="Rectangle 26553" width="7.318" height="7.242" transform="translate(24.149 180.624)" stroke="#000" stroke-linejoin="round" stroke-width="0.75"/>
        <rect id="Rectangle_26554" data-name="Rectangle 26554" width="7.318" height="7.242" transform="translate(18.734 115.009)" stroke="#000" stroke-width="1"/>
        <rect id="Rectangle_26557" data-name="Rectangle 26557" width="7.318" height="7.242" transform="translate(0 25.348)" stroke="#000" stroke-linejoin="round" stroke-width="0.75"/>
      </g>
      <rect id="Rectangle_26545" data-name="Rectangle 26545" width="7.318" height="7.242" transform="translate(232.342 100.883)" fill="none" stroke="#165326" stroke-linejoin="round" stroke-width="0.75"/>
      <g id="Group_58435" data-name="Group 58435" transform="translate(42.691 42.25)">
        <ellipse id="Ellipse_11264" data-name="Ellipse 11264" cx="3.659" cy="3.621" rx="3.659" ry="3.621" transform="translate(124.377 26.911)" fill="#f1ad0f" stroke="#f1ad0f" stroke-linejoin="round" stroke-width="0.75"/>
        <ellipse id="Ellipse_11265" data-name="Ellipse 11265" cx="3.659" cy="3.621" rx="3.659" ry="3.621" transform="translate(141.354 106.432)" fill="#f1ad0f" stroke="#f1ad0f" stroke-linejoin="round" stroke-width="0.75"/>
        <ellipse id="Ellipse_11266" data-name="Ellipse 11266" cx="3.659" cy="3.621" rx="3.659" ry="3.621" transform="translate(173.992 123.235)" fill="#f1ad0f" stroke="#f1ad0f" stroke-linejoin="round" stroke-width="0.75"/>
        <path id="Path_45664" data-name="Path 45664" d="M225.058,234.141a3.659,3.659,0,1,1-3.659-3.621,3.64,3.64,0,0,1,3.659,3.621" transform="translate(-66.726 -81.068)" fill="#f1ad0f" stroke="#f1ad0f" stroke-width="1"/>
        <ellipse id="Ellipse_11269" data-name="Ellipse 11269" cx="3.659" cy="3.621" rx="3.659" ry="3.621" transform="translate(19.44 227.09)" fill="#f1ad0f" stroke="#f1ad0f" stroke-linejoin="round" stroke-width="0.75"/>
        <ellipse id="Ellipse_11270" data-name="Ellipse 11270" cx="3.659" cy="3.621" rx="3.659" ry="3.621" transform="translate(15.195 123.235)" fill="#f1ad0f" stroke="#f1ad0f" stroke-linejoin="round" stroke-width="0.75"/>
        <path id="Path_45668" data-name="Path 45668" d="M161.7,170.781a3.659,3.659,0,1,1-3.659-3.621,3.64,3.64,0,0,1,3.659,3.621" transform="translate(-80.642 -94.187)" fill="#f1ad0f" stroke="#f1ad0f" stroke-width="1"/>
        <path id="Path_45670" data-name="Path 45670" d="M131.485,143.857,221.932,106.7l90.594,37.152,37.541,89.66-37.541,89.515-90.594,37.179-90.448-37.179L93.921,233.517l37.563-89.66" transform="translate(-93.921 -106.705)" fill="none" stroke="#84c073" stroke-linecap="round" stroke-linejoin="round" stroke-width="1" stroke-dasharray="2 2"/>
      </g>
      <g id="Group_58436" data-name="Group 58436" transform="translate(57.886 50.477)">
        <path id="Path_45661" data-name="Path 45661" d="M203.218,132.621A3.659,3.659,0,1,1,199.559,129a3.64,3.64,0,0,1,3.659,3.621" transform="translate(-86.719 -110.315)" fill="#e25316"/>
        <path id="Path_45663" data-name="Path 45663" d="M243.9,212.421a3.659,3.659,0,1,1-3.659-3.621,3.64,3.64,0,0,1,3.659,3.621" transform="translate(-77.784 -93.791)" fill="#e25316"/>
        <path id="Path_45665" data-name="Path 45665" d="M203.218,332.781a3.659,3.659,0,1,1-3.659-3.621,3.64,3.64,0,0,1,3.659,3.621" transform="translate(-86.719 -68.87)" fill="#e25316"/>
        <path id="Path_45662" data-name="Path 45662" d="M217.138,198.5a3.659,3.659,0,1,1-3.659-3.621,3.64,3.64,0,0,1,3.659,3.621" transform="translate(-83.661 -96.674)" fill="#e25316"/>
        <ellipse id="Ellipse_11267" data-name="Ellipse 11267" cx="3.659" cy="3.621" rx="3.659" ry="3.621" transform="translate(135.818 141.225)" fill="none" stroke="#e25316" stroke-linejoin="round" stroke-width="0.75"/>
        <ellipse id="Ellipse_11268" data-name="Ellipse 11268" cx="3.659" cy="3.621" rx="3.659" ry="3.621" transform="translate(109.182 260.289)" fill="#f1ad0f" stroke="#f1ad0f" stroke-linejoin="round" stroke-width="0.75"/>
        <path id="Path_45666" data-name="Path 45666" d="M117.178,298.461a3.659,3.659,0,1,1-3.659-3.621,3.64,3.64,0,0,1,3.659,3.621" transform="translate(-105.616 -75.976)" fill="#e25316"/>
        <path id="Path_45667" data-name="Path 45667" d="M113.7,212.421a3.659,3.659,0,1,1-3.659-3.621,3.64,3.64,0,0,1,3.659,3.621" transform="translate(-106.38 -93.791)" fill="#e25316"/>
        <ellipse id="Ellipse_11271" data-name="Ellipse 11271" cx="3.659" cy="3.621" rx="3.659" ry="3.621" transform="translate(58.542 64.746)" fill="none" stroke="#e25316" stroke-linejoin="round" stroke-width="0.75"/>
        <path id="Path_45669" data-name="Path 45669" d="M124.678,141.827l90.5-25.322,65.267,50.38-5.408,64.6-52.542,7.1-7.318,109.456-66.3-50.938-5.415-65.616-18.785-89.66" transform="translate(-102.361 -112.902)" fill="none" stroke="#000" stroke-linecap="round" stroke-linejoin="round" stroke-width="1.25"/>
        <rect id="Rectangle_26542" data-name="Rectangle 26542" width="7.318" height="7.242" transform="translate(109.181)" fill="#7e167b"/>
        <rect id="Rectangle_26546" data-name="Rectangle 26546" width="7.318" height="7.242" transform="translate(169.041 115.009)" fill="#7e167b"/>
        <rect id="Rectangle_26548" data-name="Rectangle 26548" width="7.318" height="7.242" transform="translate(116.499 122.106)" fill="#7e167b"/>
        <rect id="Rectangle_26550" data-name="Rectangle 26550" width="7.318" height="7.242" transform="translate(109.181 231.611)" fill="#7e167b"/>
        <rect id="Rectangle_26552" data-name="Rectangle 26552" width="7.318" height="7.242" transform="translate(42.882 180.624)" fill="#7e167b"/>
        <rect id="Rectangle_26555" data-name="Rectangle 26555" width="7.318" height="7.242" transform="translate(37.467 115.009)" fill="none" stroke="#165326" stroke-linejoin="round" stroke-width="0.75"/>
        <rect id="Rectangle_26556" data-name="Rectangle 26556" width="7.318" height="7.242" transform="translate(18.734 25.348)" fill="#7e167b"/>
      </g>
    </g>
    <g id="number" transform="translate(300.045 114.896)">
      <path id="Path_45671" data-name="Path 45671" d="M183.524,215.863a2.4,2.4,0,0,0,1.976.892,2.424,2.424,0,0,0,1.581-.508,3.051,3.051,0,0,0,.94-1.438,7.856,7.856,0,0,0,.313-2.445,8.429,8.429,0,0,0-.2-2.034,4.3,4.3,0,0,0-.54-1.279,2.334,2.334,0,0,0-.872-.8,2.588,2.588,0,0,0-1.227-.279,2.428,2.428,0,0,0-1.576.5,3.058,3.058,0,0,0-.943,1.435,7.815,7.815,0,0,0-.317,2.456,5.629,5.629,0,0,0,.86,3.5m.789-6.4a1.374,1.374,0,0,1,1.175-.617,1.492,1.492,0,0,1,1.249.7,8.188,8.188,0,0,1,0,5.642,1.44,1.44,0,0,1-2.473,0,5.346,5.346,0,0,1-.5-2.821,5.4,5.4,0,0,1,.551-2.905" transform="translate(-169.926 -38.983)" fill="#a2a5a8"/>
      <path id="Path_45672" data-name="Path 45672" d="M178.477,180.594a3.384,3.384,0,0,1,.452-.571q.271-.286,1.232-1.084a17.134,17.134,0,0,0,1.646-1.514,3.925,3.925,0,0,0,.709-1.051,2.55,2.55,0,0,0,.213-1.015,2.253,2.253,0,0,0-.728-1.7,2.78,2.78,0,0,0-1.982-.687,2.915,2.915,0,0,0-1.976.637,2.663,2.663,0,0,0-.848,1.852l1.1.112a1.731,1.731,0,0,1,.468-1.269,1.68,1.68,0,0,1,1.235-.457,1.644,1.644,0,0,1,1.182.431,1.408,1.408,0,0,1,.455,1.06,2.172,2.172,0,0,1-.5,1.271,11.7,11.7,0,0,1-1.916,1.823,11.025,11.025,0,0,0-1.4,1.3,3.855,3.855,0,0,0-.7,1.144,1.877,1.877,0,0,0-.124.734h5.749v-1.016Zm6.243.5a2.824,2.824,0,0,0,1.937.659,2.762,2.762,0,0,0,2.282-1.047,3.1,3.1,0,0,0,.688-2.018,2.707,2.707,0,0,0-.783-2.007,2.615,2.615,0,0,0-1.921-.781,2.842,2.842,0,0,0-1.643.54l.47-2.313h3.47v-1.009h-4.326l-.842,4.42,1,.129a1.768,1.768,0,0,1,.653-.6,1.869,1.869,0,0,1,.931-.232,1.8,1.8,0,0,1,1.343.523,1.952,1.952,0,0,1,.513,1.427,2.146,2.146,0,0,1-.534,1.526,1.715,1.715,0,0,1-1.3.576,1.579,1.579,0,0,1-1.094-.408,1.982,1.982,0,0,1-.581-1.218l-1.12.094a2.55,2.55,0,0,0,.857,1.742" transform="translate(-171.172 -46.23)" fill="#a2a5a8"/>
      <path id="Path_45673" data-name="Path 45673" d="M177.963,146.1a2.835,2.835,0,0,0,1.937.658,2.768,2.768,0,0,0,2.284-1.045,3.112,3.112,0,0,0,.688-2.019,2.714,2.714,0,0,0-.783-2.007,2.618,2.618,0,0,0-1.922-.781,2.853,2.853,0,0,0-1.643.541l.468-2.313h3.47v-1.01h-4.324l-.843,4.42,1,.129a1.8,1.8,0,0,1,.652-.6,1.88,1.88,0,0,1,.932-.232,1.8,1.8,0,0,1,1.343.521,1.947,1.947,0,0,1,.513,1.427,2.156,2.156,0,0,1-.534,1.527,1.714,1.714,0,0,1-1.3.575,1.575,1.575,0,0,1-1.094-.408,1.977,1.977,0,0,1-.578-1.218l-1.121.094a2.552,2.552,0,0,0,.856,1.743m6.735-.234a2.4,2.4,0,0,0,1.976.892,2.424,2.424,0,0,0,1.581-.508,3.051,3.051,0,0,0,.94-1.438,7.857,7.857,0,0,0,.313-2.446,8.429,8.429,0,0,0-.2-2.034,4.3,4.3,0,0,0-.54-1.279,2.334,2.334,0,0,0-.872-.8,2.588,2.588,0,0,0-1.227-.279,2.428,2.428,0,0,0-1.576.5,3.059,3.059,0,0,0-.943,1.435,7.815,7.815,0,0,0-.317,2.456,5.631,5.631,0,0,0,.86,3.5m.789-6.4a1.374,1.374,0,0,1,1.175-.617,1.492,1.492,0,0,1,1.249.7,8.188,8.188,0,0,1,0,5.642,1.44,1.44,0,0,1-2.473,0,5.346,5.346,0,0,1-.5-2.821,5.4,5.4,0,0,1,.551-2.905" transform="translate(-171.147 -53.477)" fill="#a2a5a8"/>
      <path id="Path_45674" data-name="Path 45674" d="M181.423,104.107a11.928,11.928,0,0,0-1.532,2.251,12.841,12.841,0,0,0-1.107,2.774,10.459,10.459,0,0,0-.4,2.454h1.1a11.018,11.018,0,0,1,.41-2.366,14.122,14.122,0,0,1,1.26-2.981,11.69,11.69,0,0,1,1.648-2.325v-.822h-5.63v1.015Zm3.26,6.968a2.829,2.829,0,0,0,1.937.658,2.765,2.765,0,0,0,2.282-1.045,3.107,3.107,0,0,0,.688-2.019,2.707,2.707,0,0,0-.783-2.007,2.615,2.615,0,0,0-1.921-.781,2.851,2.851,0,0,0-1.643.54l.47-2.313h3.47V103.1h-4.326l-.842,4.42,1,.129a1.778,1.778,0,0,1,.653-.6,1.869,1.869,0,0,1,.931-.232,1.8,1.8,0,0,1,1.343.523,1.952,1.952,0,0,1,.513,1.427,2.146,2.146,0,0,1-.534,1.526,1.71,1.71,0,0,1-1.3.576,1.579,1.579,0,0,1-1.094-.408,1.982,1.982,0,0,1-.581-1.218l-1.12.094a2.556,2.556,0,0,0,.857,1.743" transform="translate(-171.134 -60.699)" fill="#a2a5a8"/>
      <path id="Path_45675" data-name="Path 45675" d="M175.423,67.971h-.688a4.007,4.007,0,0,1-.949,1.15,6.492,6.492,0,0,1-1.566,1.009v1.022a7.281,7.281,0,0,0,1.123-.547,5.54,5.54,0,0,0,1.012-.728v6.733h1.067Zm3.57,7.9a2.4,2.4,0,0,0,1.976.892,2.424,2.424,0,0,0,1.581-.508,3.051,3.051,0,0,0,.94-1.438,7.856,7.856,0,0,0,.313-2.446,8.429,8.429,0,0,0-.2-2.034,4.3,4.3,0,0,0-.54-1.279,2.335,2.335,0,0,0-.872-.8,2.588,2.588,0,0,0-1.227-.279,2.428,2.428,0,0,0-1.576.5,3.059,3.059,0,0,0-.943,1.435,7.814,7.814,0,0,0-.317,2.456,5.631,5.631,0,0,0,.86,3.5m.789-6.4a1.374,1.374,0,0,1,1.174-.617,1.492,1.492,0,0,1,1.249.7,5.348,5.348,0,0,1,.5,2.823,5.354,5.354,0,0,1-.5,2.818,1.44,1.44,0,0,1-2.473,0,5.346,5.346,0,0,1-.5-2.821,5.4,5.4,0,0,1,.551-2.905" transform="translate(-172.22 -67.971)" fill="#a2a5a8"/>
      <path id="Path_45676" data-name="Path 45676" d="M183.567,75.866a2.4,2.4,0,0,0,1.976.892,2.424,2.424,0,0,0,1.581-.508,3.051,3.051,0,0,0,.94-1.438,7.855,7.855,0,0,0,.313-2.446,8.429,8.429,0,0,0-.2-2.034,4.3,4.3,0,0,0-.54-1.279,2.335,2.335,0,0,0-.872-.8,2.588,2.588,0,0,0-1.227-.279,2.428,2.428,0,0,0-1.576.5,3.059,3.059,0,0,0-.943,1.435,7.814,7.814,0,0,0-.317,2.456,5.631,5.631,0,0,0,.86,3.5m.789-6.4a1.374,1.374,0,0,1,1.174-.617,1.492,1.492,0,0,1,1.249.7,5.348,5.348,0,0,1,.5,2.823,5.353,5.353,0,0,1-.5,2.818,1.44,1.44,0,0,1-2.473,0,5.346,5.346,0,0,1-.5-2.821,5.4,5.4,0,0,1,.551-2.905" transform="translate(-169.917 -67.971)" fill="#a2a5a8"/>
    </g>
    <g id="text" transform="translate(0 88.622)">
      <path id="Appearance" d="M170.877,66.719l1.276-3.481h4.856l1.355,3.481h1.75l-4.753-11.5H173.7l-4.461,11.5Zm3-8.092a14.489,14.489,0,0,0,.625-2.2q.271.934.825,2.384L176.534,62H172.6Zm8.682,11.283V65.856a2.924,2.924,0,0,0,.932.753,2.709,2.709,0,0,0,1.279.3,3.524,3.524,0,0,0,3.206-2.112,5.527,5.527,0,0,0,.463-2.3,5.585,5.585,0,0,0-.42-2.191,3.282,3.282,0,0,0-3.145-2.1,2.881,2.881,0,0,0-1.4.317,3.2,3.2,0,0,0-1.038.953V58.391h-1.3V69.91Zm.567-9.759a2.059,2.059,0,0,1,1.612-.842,2,2,0,0,1,1.58.791,3.655,3.655,0,0,1,.661,2.384,3.737,3.737,0,0,1-.678,2.466,2.068,2.068,0,0,1-1.628.8,2.02,2.02,0,0,1-1.592-.769,3.6,3.6,0,0,1-.657-2.375,3.747,3.747,0,0,1,.7-2.451m8.424,9.759V65.856a2.918,2.918,0,0,0,.93.753,2.72,2.72,0,0,0,1.28.3,3.524,3.524,0,0,0,3.206-2.112,5.527,5.527,0,0,0,.463-2.3A5.585,5.585,0,0,0,197,60.3a3.282,3.282,0,0,0-3.145-2.1,2.882,2.882,0,0,0-1.4.317,3.2,3.2,0,0,0-1.038.953V58.391h-1.3V69.91Zm.566-9.759a2.061,2.061,0,0,1,1.612-.842,2,2,0,0,1,1.581.791,3.655,3.655,0,0,1,.661,2.384,3.745,3.745,0,0,1-.678,2.466,2.068,2.068,0,0,1-1.628.8,2.02,2.02,0,0,1-1.592-.769,3.587,3.587,0,0,1-.658-2.375,3.747,3.747,0,0,1,.7-2.451m11.88,5.187a2.2,2.2,0,0,1-1.339.409,2.35,2.35,0,0,1-1.759-.73,3.179,3.179,0,0,1-.783-2.1h6.274c.006-.167.007-.294.007-.377a4.494,4.494,0,0,0-1.068-3.2,3.616,3.616,0,0,0-2.757-1.136,3.719,3.719,0,0,0-2.837,1.161,4.568,4.568,0,0,0-1.093,3.261,4.367,4.367,0,0,0,1.082,3.156,4.411,4.411,0,0,0,5.335.419,3.55,3.55,0,0,0,1.292-1.984l-1.474-.18a2.7,2.7,0,0,1-.879,1.3m-3.061-5.324a2.277,2.277,0,0,1,1.652-.65,2.2,2.2,0,0,1,1.767.815,2.806,2.806,0,0,1,.538,1.577h-4.7a2.557,2.557,0,0,1,.741-1.741m12.948,6.7h1.489a3.109,3.109,0,0,1-.36-1,19.886,19.886,0,0,1-.091-2.49V61.347a7.932,7.932,0,0,0-.071-1.3,2.222,2.222,0,0,0-.444-.961,2.321,2.321,0,0,0-.991-.631,5.109,5.109,0,0,0-1.75-.25,5.654,5.654,0,0,0-1.909.294,2.75,2.75,0,0,0-1.261.839,3.4,3.4,0,0,0-.625,1.431l1.393.188a2.123,2.123,0,0,1,.71-1.235,2.534,2.534,0,0,1,1.484-.349,2.409,2.409,0,0,1,1.625.479,1.549,1.549,0,0,1,.4,1.215c0,.052,0,.176-.007.369a13.265,13.265,0,0,1-2.543.486,10.509,10.509,0,0,0-1.268.211,3.493,3.493,0,0,0-1.026.463,2.319,2.319,0,0,0-.736.812,2.256,2.256,0,0,0-.282,1.119,2.2,2.2,0,0,0,.745,1.712,3.075,3.075,0,0,0,2.131.671,4.47,4.47,0,0,0,1.573-.273,5.326,5.326,0,0,0,1.526-.941,2.965,2.965,0,0,0,.285,1.027m-.4-3.661a3.384,3.384,0,0,1-.229,1.411,2.208,2.208,0,0,1-.944.976,2.955,2.955,0,0,1-1.465.356,1.877,1.877,0,0,1-1.264-.375,1.238,1.238,0,0,1-.234-1.612,1.239,1.239,0,0,1,.563-.46,5.533,5.533,0,0,1,1.243-.282,10.475,10.475,0,0,0,2.33-.532Zm5.031,3.661V62.359a5.435,5.435,0,0,1,.237-1.647,1.509,1.509,0,0,1,.531-.772,1.367,1.367,0,0,1,.841-.279,2.057,2.057,0,0,1,1.045.307l.492-1.311a2.811,2.811,0,0,0-1.467-.454,1.584,1.584,0,0,0-.914.282,3.424,3.424,0,0,0-.907,1.168V58.391h-1.285v8.327Zm9.735,0h1.49a3.113,3.113,0,0,1-.362-1,19.891,19.891,0,0,1-.091-2.49V61.347a7.925,7.925,0,0,0-.071-1.3,2.222,2.222,0,0,0-.444-.961,2.321,2.321,0,0,0-.991-.631,5.1,5.1,0,0,0-1.75-.25,5.654,5.654,0,0,0-1.909.294,2.738,2.738,0,0,0-1.26.839,3.387,3.387,0,0,0-.626,1.431l1.393.188a2.13,2.13,0,0,1,.71-1.235,2.536,2.536,0,0,1,1.486-.349,2.407,2.407,0,0,1,1.624.479,1.549,1.549,0,0,1,.4,1.215c0,.052,0,.176-.009.369a13.265,13.265,0,0,1-2.543.486,10.507,10.507,0,0,0-1.268.211,3.511,3.511,0,0,0-1.026.463,2.334,2.334,0,0,0-.736.812,2.256,2.256,0,0,0-.281,1.119,2.2,2.2,0,0,0,.744,1.712,3.075,3.075,0,0,0,2.131.671,4.47,4.47,0,0,0,1.573-.273,5.326,5.326,0,0,0,1.526-.941,2.965,2.965,0,0,0,.285,1.027m-.4-3.661a3.384,3.384,0,0,1-.229,1.411,2.208,2.208,0,0,1-.944.976,2.955,2.955,0,0,1-1.465.356,1.877,1.877,0,0,1-1.264-.375,1.242,1.242,0,0,1-.234-1.612,1.239,1.239,0,0,1,.563-.46,5.533,5.533,0,0,1,1.243-.282,10.475,10.475,0,0,0,2.33-.532Zm5.046,3.661V62.17A2.8,2.8,0,0,1,233.545,60a2.324,2.324,0,0,1,1.573-.572,1.889,1.889,0,0,1,.994.255,1.368,1.368,0,0,1,.591.682,3.784,3.784,0,0,1,.166,1.29v5.065h1.426V61.6a7.973,7.973,0,0,0-.079-1.372,2.689,2.689,0,0,0-.444-1.043,2.183,2.183,0,0,0-.954-.71,3.547,3.547,0,0,0-1.4-.271,3.034,3.034,0,0,0-2.678,1.372V58.391h-1.283v8.327Zm12.344-1.482a2.014,2.014,0,0,1-1.4.511,2.124,2.124,0,0,1-1.695-.761,3.724,3.724,0,0,1-.65-2.439,3.6,3.6,0,0,1,.673-2.419,2.222,2.222,0,0,1,1.75-.764,1.829,1.829,0,0,1,1.217.423,2.273,2.273,0,0,1,.7,1.263l1.386-.212a3.14,3.14,0,0,0-1.117-1.949,3.518,3.518,0,0,0-2.241-.685,4.125,4.125,0,0,0-2.009.5,3.128,3.128,0,0,0-1.374,1.519,5.735,5.735,0,0,0-.451,2.359,4.5,4.5,0,0,0,1.049,3.2,3.631,3.631,0,0,0,2.776,1.117,3.448,3.448,0,0,0,2.325-.812,3.581,3.581,0,0,0,1.177-2.246l-1.4-.18a2.522,2.522,0,0,1-.713,1.568m8.182.1a2.2,2.2,0,0,1-1.339.409,2.346,2.346,0,0,1-1.758-.73,3.18,3.18,0,0,1-.785-2.1H255.8c.006-.167.009-.294.009-.377a4.494,4.494,0,0,0-1.07-3.2,3.614,3.614,0,0,0-2.757-1.136,3.721,3.721,0,0,0-2.837,1.161,4.568,4.568,0,0,0-1.093,3.261,4.374,4.374,0,0,0,1.082,3.156,4.413,4.413,0,0,0,5.337.419,3.565,3.565,0,0,0,1.292-1.984l-1.474-.18a2.708,2.708,0,0,1-.88,1.3m-3.061-5.324a2.279,2.279,0,0,1,1.652-.65,2.2,2.2,0,0,1,1.767.815,2.806,2.806,0,0,1,.539,1.577h-4.7a2.557,2.557,0,0,1,.741-1.741" transform="translate(117.499 -55.223)" fill="#636567"/>
      <g id="Aroma" transform="translate(521.68 65.188)">
        <path id="Path_45678" data-name="Path 45678" d="M303.512,115.955l1.276-3.517h4.856L311,115.955h1.75L308,104.34H306.34l-4.461,11.615Zm2.994-8.176a14.594,14.594,0,0,0,.626-2.219q.269.944.825,2.409l1.212,3.217H305.23Zm8.651,8.176v-4.4a5.545,5.545,0,0,1,.238-1.664,1.516,1.516,0,0,1,.531-.78,1.354,1.354,0,0,1,.839-.282,2.043,2.043,0,0,1,1.046.31l.491-1.324a2.785,2.785,0,0,0-1.465-.459,1.581,1.581,0,0,0-.916.285,3.491,3.491,0,0,0-.907,1.18v-1.276h-1.283v8.414Zm4.5-.942a3.786,3.786,0,0,0,2.856,1.132,4.121,4.121,0,0,0,2.033-.514,3.449,3.449,0,0,0,1.418-1.446,5.566,5.566,0,0,0,.487-2.554,4.326,4.326,0,0,0-1.1-3.142,3.778,3.778,0,0,0-2.837-1.136,3.912,3.912,0,0,0-2.645.935,4.332,4.332,0,0,0-1.3,3.463,4.528,4.528,0,0,0,1.089,3.264m1.082-5.682a2.352,2.352,0,0,1,3.538,0,3.481,3.481,0,0,1,.708,2.365,3.671,3.671,0,0,1-.705,2.465,2.346,2.346,0,0,1-3.541,0,4.5,4.5,0,0,1,0-4.837m8.761,6.624V111.59a5.234,5.234,0,0,1,.229-1.759,1.8,1.8,0,0,1,.741-.927,2.085,2.085,0,0,1,1.114-.316,1.322,1.322,0,0,1,1.14.475,2.407,2.407,0,0,1,.348,1.426v5.467H334.5v-4.888a2.6,2.6,0,0,1,.586-1.89,2,2,0,0,1,1.474-.589,1.57,1.57,0,0,1,.855.229,1.2,1.2,0,0,1,.5.606,3.956,3.956,0,0,1,.138,1.233v5.3h1.418v-5.776a2.968,2.968,0,0,0-.673-2.136,2.567,2.567,0,0,0-1.925-.692,3.02,3.02,0,0,0-2.6,1.473,2.078,2.078,0,0,0-.845-1.085,2.767,2.767,0,0,0-1.533-.388,2.95,2.95,0,0,0-1.5.376,2.988,2.988,0,0,0-1.054.994v-1.18h-1.276v8.414Z" transform="translate(-301.879 -104.34)" fill="#636567"/>
        <path id="Path_45679" data-name="Path 45679" d="M334.832,114.992h1.489a3.161,3.161,0,0,1-.36-1.01,20.276,20.276,0,0,1-.091-2.515v-1.9a8.123,8.123,0,0,0-.07-1.315,2.26,2.26,0,0,0-.444-.97,2.306,2.306,0,0,0-.991-.638,5.056,5.056,0,0,0-1.75-.254,5.652,5.652,0,0,0-1.911.3,2.752,2.752,0,0,0-1.259.848,3.485,3.485,0,0,0-.626,1.446l1.395.19a2.15,2.15,0,0,1,.71-1.248,2.514,2.514,0,0,1,1.484-.353,2.388,2.388,0,0,1,1.624.484,1.571,1.571,0,0,1,.4,1.229c0,.053,0,.176-.007.372a13.032,13.032,0,0,1-2.543.491,10.352,10.352,0,0,0-1.268.215,3.476,3.476,0,0,0-1.026.467,2.351,2.351,0,0,0-1.019,1.949,2.235,2.235,0,0,0,.745,1.731,3.061,3.061,0,0,0,2.131.678,4.4,4.4,0,0,0,1.573-.278,5.3,5.3,0,0,0,1.526-.951,3.011,3.011,0,0,0,.285,1.038m-.4-3.7a3.445,3.445,0,0,1-.229,1.426,2.22,2.22,0,0,1-.944.986,2.931,2.931,0,0,1-1.465.362,1.864,1.864,0,0,1-1.264-.381,1.26,1.26,0,0,1-.234-1.628,1.249,1.249,0,0,1,.563-.463,5.328,5.328,0,0,1,1.243-.285,10.474,10.474,0,0,0,2.329-.539Z" transform="translate(-289.341 -103.379)" fill="#636567"/>
      </g>
      <g id="Colour" transform="translate(597.193 190.267)">
        <path id="Path_45680" data-name="Path 45680" d="M352.612,217.116a3.307,3.307,0,0,1-2.187.745,3.761,3.761,0,0,1-1.972-.547,3.215,3.215,0,0,1-1.343-1.652,7.086,7.086,0,0,1-.432-2.587,6.957,6.957,0,0,1,.365-2.231,3.387,3.387,0,0,1,1.264-1.722,3.755,3.755,0,0,1,2.238-.642,3.12,3.12,0,0,1,1.933.579,3.582,3.582,0,0,1,1.173,1.846l1.512-.357a4.612,4.612,0,0,0-1.655-2.5,4.767,4.767,0,0,0-2.932-.888,5.761,5.761,0,0,0-2.816.7,4.745,4.745,0,0,0-1.972,2.052,6.838,6.838,0,0,0-.694,3.166,7.892,7.892,0,0,0,.614,3.114,4.769,4.769,0,0,0,1.79,2.213,5.514,5.514,0,0,0,3.054.764,4.793,4.793,0,0,0,3.07-.994,5.177,5.177,0,0,0,1.739-2.888l-1.537-.388a3.805,3.805,0,0,1-1.211,2.21m4.937.919a3.782,3.782,0,0,0,2.857,1.133,4.135,4.135,0,0,0,2.031-.514,3.45,3.45,0,0,0,1.418-1.446,5.567,5.567,0,0,0,.488-2.556,4.328,4.328,0,0,0-1.1-3.141,3.775,3.775,0,0,0-2.837-1.138,3.92,3.92,0,0,0-2.647.936,4.336,4.336,0,0,0-1.3,3.461,4.526,4.526,0,0,0,1.089,3.264m1.082-5.68a2.352,2.352,0,0,1,3.538,0,3.474,3.474,0,0,1,.71,2.365,3.664,3.664,0,0,1-.706,2.463,2.348,2.348,0,0,1-3.542,0,4.5,4.5,0,0,1,0-4.837m8.7-4.991H365.9v11.615h1.426Z" transform="translate(-345.093 -207.164)" fill="#636567"/>
        <path id="Path_45681" data-name="Path 45681" d="M362.556,217.01a3.786,3.786,0,0,0,2.856,1.132,4.121,4.121,0,0,0,2.033-.514,3.45,3.45,0,0,0,1.418-1.446,5.566,5.566,0,0,0,.486-2.554,4.326,4.326,0,0,0-1.1-3.142,3.778,3.778,0,0,0-2.837-1.136,3.912,3.912,0,0,0-2.645.935,4.332,4.332,0,0,0-1.3,3.463,4.528,4.528,0,0,0,1.089,3.264m1.082-5.682a2.352,2.352,0,0,1,3.538,0,3.482,3.482,0,0,1,.708,2.365,3.671,3.671,0,0,1-.705,2.465,2.345,2.345,0,0,1-3.541,0,4.5,4.5,0,0,1,0-4.837m14.14,6.624v-8.414h-1.426v4.508a4.5,4.5,0,0,1-.234,1.645,1.828,1.828,0,0,1-.8.9,2.347,2.347,0,0,1-1.2.329,1.77,1.77,0,0,1-1.077-.32,1.486,1.486,0,0,1-.57-.885,8.216,8.216,0,0,1-.088-1.505v-4.666h-1.426v5.213a7.326,7.326,0,0,0,.087,1.332,2.684,2.684,0,0,0,.441,1.057,2.282,2.282,0,0,0,.958.717,3.387,3.387,0,0,0,1.39.285,3.081,3.081,0,0,0,2.671-1.426v1.236Zm3.613,0v-4.4a5.543,5.543,0,0,1,.238-1.664,1.516,1.516,0,0,1,.531-.78,1.354,1.354,0,0,1,.839-.282,2.046,2.046,0,0,1,1.046.31l.491-1.324a2.785,2.785,0,0,0-1.465-.459,1.577,1.577,0,0,0-.916.285,3.49,3.49,0,0,0-.907,1.18v-1.276h-1.283v8.414Z" transform="translate(-337.402 -206.138)" fill="#636567"/>
      </g>
      <path id="Taste_Flavor" data-name="Taste/Flavor" d="M307.518,321.814V311.676h3.842v-1.357h-9.206v1.357h3.827v10.138Zm10.98,0h1.489a3.11,3.11,0,0,1-.36-1,19.589,19.589,0,0,1-.091-2.49v-1.882a7.725,7.725,0,0,0-.072-1.3,2.208,2.208,0,0,0-.444-.962,2.307,2.307,0,0,0-.989-.631,5.113,5.113,0,0,0-1.752-.25,5.667,5.667,0,0,0-1.909.294,2.745,2.745,0,0,0-1.26.839,3.386,3.386,0,0,0-.626,1.431l1.395.188a2.129,2.129,0,0,1,.708-1.235,2.542,2.542,0,0,1,1.486-.349,2.4,2.4,0,0,1,1.624.479,1.55,1.55,0,0,1,.4,1.215c0,.052,0,.176-.007.37a13.149,13.149,0,0,1-2.544.486,10.488,10.488,0,0,0-1.267.211,3.446,3.446,0,0,0-1.026.464,2.321,2.321,0,0,0-.738.81,2.271,2.271,0,0,0-.281,1.119,2.2,2.2,0,0,0,.745,1.712,3.072,3.072,0,0,0,2.131.671,4.475,4.475,0,0,0,1.573-.273,5.363,5.363,0,0,0,1.526-.941,2.936,2.936,0,0,0,.285,1.027m-.4-3.661a3.358,3.358,0,0,1-.231,1.411,2.2,2.2,0,0,1-.942.976,2.958,2.958,0,0,1-1.465.356,1.874,1.874,0,0,1-1.264-.375,1.237,1.237,0,0,1-.234-1.612,1.231,1.231,0,0,1,.563-.46,5.539,5.539,0,0,1,1.243-.282,10.511,10.511,0,0,0,2.329-.532Zm4.146,3.175a3.985,3.985,0,0,0,2.5.673,4.41,4.41,0,0,0,1.774-.34,2.679,2.679,0,0,0,1.2-.964,2.349,2.349,0,0,0,.416-1.329,2.05,2.05,0,0,0-.341-1.207,2.123,2.123,0,0,0-.938-.74,17.867,17.867,0,0,0-2.112-.656q-1.045-.281-1.26-.361a1.254,1.254,0,0,1-.547-.375.777.777,0,0,1-.175-.495.931.931,0,0,1,.42-.752,2.34,2.34,0,0,1,1.4-.321,2.025,2.025,0,0,1,1.288.361,1.5,1.5,0,0,1,.551,1l1.393-.189a2.967,2.967,0,0,0-.491-1.29,2.353,2.353,0,0,0-1.105-.764,4.89,4.89,0,0,0-1.739-.282,4.313,4.313,0,0,0-1.232.169,2.9,2.9,0,0,0-.907.412,2.281,2.281,0,0,0-.7.787,2.144,2.144,0,0,0-.257,1.031,2.076,2.076,0,0,0,.313,1.117,2.106,2.106,0,0,0,.919.793,13.37,13.37,0,0,0,2.175.678,6.235,6.235,0,0,1,1.458.479.854.854,0,0,1,.42.754,1.177,1.177,0,0,1-.476.928,2.237,2.237,0,0,1-1.456.4,2.322,2.322,0,0,1-1.518-.448,1.945,1.945,0,0,1-.661-1.286l-1.409.22a3.119,3.119,0,0,0,1.1,2m10.041-.721a.947.947,0,0,1-.486-.1.586.586,0,0,1-.245-.275,2.386,2.386,0,0,1-.076-.777v-4.868h1.434v-1.1h-1.434v-2.909l-1.417.847v2.063h-1.046v1.1h1.046v4.791a5.008,5.008,0,0,0,.173,1.666,1.361,1.361,0,0,0,.6.639,2.449,2.449,0,0,0,1.2.243,5.282,5.282,0,0,0,1.077-.125l-.206-1.247a4.731,4.731,0,0,1-.626.055m6.868-.173a2.2,2.2,0,0,1-1.339.409,2.344,2.344,0,0,1-1.758-.73,3.18,3.18,0,0,1-.785-2.1h6.274c.006-.167.009-.294.009-.377a4.494,4.494,0,0,0-1.07-3.2,3.614,3.614,0,0,0-2.757-1.136,3.719,3.719,0,0,0-2.837,1.161,4.57,4.57,0,0,0-1.093,3.261,4.374,4.374,0,0,0,1.082,3.156,4.414,4.414,0,0,0,5.337.419,3.556,3.556,0,0,0,1.29-1.984l-1.473-.18a2.709,2.709,0,0,1-.88,1.3m-3.061-5.324a2.279,2.279,0,0,1,1.652-.65,2.2,2.2,0,0,1,1.767.815,2.816,2.816,0,0,1,.539,1.577h-4.7a2.557,2.557,0,0,1,.741-1.741m7.252,6.9,3.36-11.887h-1.141l-3.367,11.887Zm6.195-.2v-5.222h5.451v-1.357h-5.451v-3.559h6.3v-1.357H348v11.5Zm9.475-11.5h-1.426v11.5h1.426Zm7.954,11.5h1.489a3.11,3.11,0,0,1-.36-1,19.891,19.891,0,0,1-.091-2.49v-1.882a7.722,7.722,0,0,0-.072-1.3,2.207,2.207,0,0,0-.444-.962,2.307,2.307,0,0,0-.989-.631,5.113,5.113,0,0,0-1.752-.25,5.667,5.667,0,0,0-1.909.294,2.745,2.745,0,0,0-1.259.839,3.4,3.4,0,0,0-.626,1.431l1.395.188a2.129,2.129,0,0,1,.708-1.235,2.542,2.542,0,0,1,1.486-.349,2.4,2.4,0,0,1,1.624.479,1.544,1.544,0,0,1,.4,1.215c0,.052,0,.176-.007.37a13.15,13.15,0,0,1-2.544.486,10.488,10.488,0,0,0-1.267.211,3.446,3.446,0,0,0-1.026.464,2.321,2.321,0,0,0-.738.81,2.272,2.272,0,0,0-.281,1.119,2.2,2.2,0,0,0,.745,1.712,3.075,3.075,0,0,0,2.131.671,4.469,4.469,0,0,0,1.573-.273,5.362,5.362,0,0,0,1.526-.941,2.934,2.934,0,0,0,.285,1.027m-.4-3.661a3.358,3.358,0,0,1-.231,1.411,2.2,2.2,0,0,1-.942.976,2.959,2.959,0,0,1-1.465.356,1.874,1.874,0,0,1-1.264-.375,1.237,1.237,0,0,1-.234-1.612,1.231,1.231,0,0,1,.563-.46,5.537,5.537,0,0,1,1.243-.282,10.493,10.493,0,0,0,2.33-.532Zm7.288,3.661,3.185-8.327h-1.467l-1.87,5.081q-.339.925-.531,1.584-.245-.871-.539-1.677l-1.806-4.988h-1.5l3.2,8.327Zm4.971-.932a3.806,3.806,0,0,0,2.856,1.12,4.159,4.159,0,0,0,2.033-.509,3.431,3.431,0,0,0,1.418-1.431,5.46,5.46,0,0,0,.486-2.528,4.261,4.261,0,0,0-1.1-3.11,3.8,3.8,0,0,0-2.836-1.124,3.938,3.938,0,0,0-2.646.925,4.264,4.264,0,0,0-1.3,3.427,4.453,4.453,0,0,0,1.089,3.231m1.082-5.623a2.367,2.367,0,0,1,3.536,0,3.414,3.414,0,0,1,.71,2.34,3.607,3.607,0,0,1-.705,2.439,2.362,2.362,0,0,1-3.541,0,4.413,4.413,0,0,1,0-4.787m8.761,6.556v-4.359a5.434,5.434,0,0,1,.238-1.647,1.5,1.5,0,0,1,.531-.772,1.362,1.362,0,0,1,.839-.279,2.063,2.063,0,0,1,1.046.307l.491-1.311a2.806,2.806,0,0,0-1.465-.454,1.589,1.589,0,0,0-.916.282,3.461,3.461,0,0,0-.907,1.168v-1.263h-1.283v8.327Z" transform="translate(222.93 10.176)" fill="#636567"/>
      <g id="Texture" transform="translate(308.345 376.988)">
        <path id="Path_45683" data-name="Path 45683" d="M185.9,371V360.757h3.843v-1.371H180.54v1.371h3.827V371Zm10.1-1.395a2.179,2.179,0,0,1-1.339.413,2.338,2.338,0,0,1-1.759-.738,3.239,3.239,0,0,1-.783-2.122H198.4c.006-.169.009-.3.009-.381a4.571,4.571,0,0,0-1.07-3.233,3.6,3.6,0,0,0-2.757-1.148,3.7,3.7,0,0,0-2.837,1.173,4.648,4.648,0,0,0-1.093,3.3,4.441,4.441,0,0,0,1.082,3.189,4.378,4.378,0,0,0,5.337.423,3.6,3.6,0,0,0,1.29-2l-1.473-.182a2.737,2.737,0,0,1-.88,1.315m-3.061-5.379a2.264,2.264,0,0,1,1.652-.657,2.188,2.188,0,0,1,1.767.823,2.853,2.853,0,0,1,.538,1.593h-4.7a2.6,2.6,0,0,1,.741-1.759M200.909,371l2.21-3.32.459.706L205.306,371h1.75l-3.129-4.453,2.907-3.961h-1.7l-1.418,1.989c-.2.269-.41.579-.642.927-.147-.254-.342-.567-.586-.944l-1.29-1.972h-1.783l2.844,4.04L199.182,371Zm9.808-1.22a.94.94,0,0,1-.487-.1.6.6,0,0,1-.247-.278,2.5,2.5,0,0,1-.075-.785V363.7h1.434v-1.11h-1.434v-2.939l-1.418.855v2.084h-1.045v1.11h1.045v4.841a5.1,5.1,0,0,0,.175,1.683,1.369,1.369,0,0,0,.6.645,2.428,2.428,0,0,0,1.2.245,5.229,5.229,0,0,0,1.077-.126l-.206-1.26a4.681,4.681,0,0,1-.626.056M219.51,371v-8.414h-1.426v4.508a4.5,4.5,0,0,1-.234,1.645,1.828,1.828,0,0,1-.8.9,2.347,2.347,0,0,1-1.2.329,1.77,1.77,0,0,1-1.077-.32,1.486,1.486,0,0,1-.57-.885,8.213,8.213,0,0,1-.088-1.5v-4.667h-1.426V367.8a7.325,7.325,0,0,0,.087,1.332,2.685,2.685,0,0,0,.441,1.057,2.282,2.282,0,0,0,.958.717,3.387,3.387,0,0,0,1.39.285,3.081,3.081,0,0,0,2.671-1.426V371Zm3.629,0v-4.4a5.542,5.542,0,0,1,.238-1.664,1.516,1.516,0,0,1,.531-.78,1.354,1.354,0,0,1,.839-.282,2.047,2.047,0,0,1,1.046.31l.491-1.324a2.786,2.786,0,0,0-1.465-.459,1.578,1.578,0,0,0-.916.285,3.49,3.49,0,0,0-.907,1.18v-1.276h-1.283V371Z" transform="translate(-180.54 -359.386)" fill="#636567"/>
        <path id="Path_45684" data-name="Path 45684" d="M217.238,368.644a2.179,2.179,0,0,1-1.339.413,2.334,2.334,0,0,1-1.758-.738,3.232,3.232,0,0,1-.785-2.122h6.274c.006-.169.009-.3.009-.381a4.571,4.571,0,0,0-1.07-3.233,3.6,3.6,0,0,0-2.757-1.148,3.7,3.7,0,0,0-2.837,1.173,4.645,4.645,0,0,0-1.094,3.3,4.447,4.447,0,0,0,1.082,3.189,4.378,4.378,0,0,0,5.337.423,3.6,3.6,0,0,0,1.29-2l-1.473-.182a2.737,2.737,0,0,1-.88,1.315m-3.061-5.379a2.266,2.266,0,0,1,1.652-.657,2.184,2.184,0,0,1,1.767.823,2.865,2.865,0,0,1,.539,1.593h-4.7a2.6,2.6,0,0,1,.741-1.759" transform="translate(-165.818 -358.423)" fill="#636567"/>
      </g>
      <g id="Saltness" transform="translate(67.164 325.601)">
        <path id="Path_45685" data-name="Path 45685" d="M52.46,320.3a3.7,3.7,0,0,0,1.671,1.382,6.675,6.675,0,0,0,2.643.46,5.307,5.307,0,0,0,2.238-.456,3.5,3.5,0,0,0,1.526-1.276,3.167,3.167,0,0,0,.531-1.746,2.885,2.885,0,0,0-.484-1.652,3.511,3.511,0,0,0-1.5-1.185,15.228,15.228,0,0,0-2.571-.741,6.114,6.114,0,0,1-2.318-.829,1.319,1.319,0,0,1-.451-1.029A1.536,1.536,0,0,1,54.385,312a3.246,3.246,0,0,1,2.033-.51,3.132,3.132,0,0,1,2.024.561,2.381,2.381,0,0,1,.8,1.664l1.474-.11a3.521,3.521,0,0,0-.57-1.83,3.276,3.276,0,0,0-1.518-1.224,5.812,5.812,0,0,0-2.278-.416,5.553,5.553,0,0,0-2.131.4,3.1,3.1,0,0,0-1.458,1.161,2.958,2.958,0,0,0-.5,1.645,2.644,2.644,0,0,0,.407,1.445,3.15,3.15,0,0,0,1.24,1.082,10.508,10.508,0,0,0,2.243.725,20.488,20.488,0,0,1,2.068.567,2.355,2.355,0,0,1,1.045.685,1.511,1.511,0,0,1,.317.955,1.662,1.662,0,0,1-.329.993,2.14,2.14,0,0,1-1,.717,4.252,4.252,0,0,1-1.552.262,4.429,4.429,0,0,1-1.783-.344,2.617,2.617,0,0,1-1.168-.9,3.2,3.2,0,0,1-.481-1.43l-1.449.126a3.915,3.915,0,0,0,.638,2.089m16.285,1.643h1.49a3.166,3.166,0,0,1-.362-1.01,20.3,20.3,0,0,1-.091-2.516v-1.9a8.1,8.1,0,0,0-.071-1.315,2.257,2.257,0,0,0-.444-.972,2.333,2.333,0,0,0-.991-.638,5.088,5.088,0,0,0-1.75-.253,5.6,5.6,0,0,0-1.909.3,2.75,2.75,0,0,0-1.261.848,3.466,3.466,0,0,0-.625,1.446l1.393.19a2.157,2.157,0,0,1,.71-1.248,2.516,2.516,0,0,1,1.486-.353,2.39,2.39,0,0,1,1.624.484,1.577,1.577,0,0,1,.4,1.229c0,.053,0,.176-.009.372a13.033,13.033,0,0,1-2.543.491,10.07,10.07,0,0,0-1.268.215,3.494,3.494,0,0,0-1.026.467,2.351,2.351,0,0,0-1.019,1.949,2.237,2.237,0,0,0,.745,1.731,3.061,3.061,0,0,0,2.131.678,4.4,4.4,0,0,0,1.573-.278,5.284,5.284,0,0,0,1.526-.951,3.012,3.012,0,0,0,.285,1.038m-.4-3.7a3.447,3.447,0,0,1-.229,1.426,2.221,2.221,0,0,1-.944.986,2.931,2.931,0,0,1-1.465.361,1.864,1.864,0,0,1-1.264-.381,1.26,1.26,0,0,1-.234-1.629,1.248,1.248,0,0,1,.563-.463,5.324,5.324,0,0,1,1.243-.285,10.453,10.453,0,0,0,2.33-.539Zm5.031-7.914H71.946v11.615h1.426Zm4.683,10.394a.945.945,0,0,1-.488-.1.6.6,0,0,1-.245-.278,2.491,2.491,0,0,1-.075-.783v-4.921h1.433v-1.11H77.245v-2.939l-1.418.857v2.083H74.781v1.11h1.046v4.841A5.109,5.109,0,0,0,76,321.166a1.379,1.379,0,0,0,.6.647,2.444,2.444,0,0,0,1.2.245,5.268,5.268,0,0,0,1.079-.128l-.207-1.26a4.456,4.456,0,0,1-.625.056m3.438-10.394H80.066v1.64h1.426Zm0,3.2H80.066v8.414h1.426Zm3.58,8.414v-4.594a2.859,2.859,0,0,1,.661-2.2,2.313,2.313,0,0,1,1.573-.578,1.879,1.879,0,0,1,1,.257,1.368,1.368,0,0,1,.589.689,3.821,3.821,0,0,1,.168,1.3v5.118h1.426v-5.173a8.152,8.152,0,0,0-.079-1.386,2.753,2.753,0,0,0-.444-1.054,2.2,2.2,0,0,0-.954-.717,3.52,3.52,0,0,0-1.4-.273,3.028,3.028,0,0,0-2.678,1.386v-1.2H83.646v8.414Zm12.462-1.395a2.179,2.179,0,0,1-1.339.413,2.327,2.327,0,0,1-1.758-.738,3.229,3.229,0,0,1-.785-2.122h6.274c.006-.169.009-.3.009-.381a4.564,4.564,0,0,0-1.07-3.232,3.6,3.6,0,0,0-2.757-1.149,3.7,3.7,0,0,0-2.837,1.173,4.648,4.648,0,0,0-1.093,3.3A4.441,4.441,0,0,0,93.26,321a4.372,4.372,0,0,0,5.337.423,3.6,3.6,0,0,0,1.29-2l-1.473-.182a2.733,2.733,0,0,1-.88,1.314m-3.061-5.379a2.264,2.264,0,0,1,1.652-.657,2.188,2.188,0,0,1,1.767.823,2.854,2.854,0,0,1,.538,1.593h-4.7a2.6,2.6,0,0,1,.741-1.759m7.716,6.283a3.955,3.955,0,0,0,2.5.682,4.376,4.376,0,0,0,1.774-.345,2.685,2.685,0,0,0,1.2-.974,2.391,2.391,0,0,0,.416-1.343,2.087,2.087,0,0,0-.341-1.22,2.132,2.132,0,0,0-.939-.748,17.366,17.366,0,0,0-2.111-.661c-.7-.191-1.117-.312-1.26-.365a1.268,1.268,0,0,1-.547-.381.79.79,0,0,1-.175-.5.944.944,0,0,1,.42-.76,2.332,2.332,0,0,1,1.4-.325,2.019,2.019,0,0,1,1.287.364,1.527,1.527,0,0,1,.551,1.014l1.393-.191a3.008,3.008,0,0,0-.491-1.3,2.362,2.362,0,0,0-1.105-.773,4.885,4.885,0,0,0-1.739-.285,4.314,4.314,0,0,0-1.232.171,2.947,2.947,0,0,0-.908.416,2.313,2.313,0,0,0-.7.8,2.159,2.159,0,0,0-.257,1.042,2.075,2.075,0,0,0,1.232,1.928,13.28,13.28,0,0,0,2.175.685,6.209,6.209,0,0,1,1.458.484.87.87,0,0,1,.42.761,1.2,1.2,0,0,1-.476.939,2.231,2.231,0,0,1-1.458.4,2.311,2.311,0,0,1-1.517-.451,1.975,1.975,0,0,1-.661-1.3l-1.411.222a3.168,3.168,0,0,0,1.1,2.021" transform="translate(-51.822 -310.134)" fill="#636567"/>
        <path id="Path_45686" data-name="Path 45686" d="M91.872,320.43a3.955,3.955,0,0,0,2.5.682,4.377,4.377,0,0,0,1.774-.345,2.685,2.685,0,0,0,1.2-.974,2.391,2.391,0,0,0,.416-1.343,2.087,2.087,0,0,0-.341-1.22,2.132,2.132,0,0,0-.939-.748,17.375,17.375,0,0,0-2.111-.661c-.7-.191-1.117-.312-1.26-.365a1.268,1.268,0,0,1-.547-.381.79.79,0,0,1-.175-.5.944.944,0,0,1,.42-.76,2.332,2.332,0,0,1,1.4-.325,2.019,2.019,0,0,1,1.287.365,1.533,1.533,0,0,1,.551,1.014l1.393-.191a3.008,3.008,0,0,0-.491-1.3,2.362,2.362,0,0,0-1.105-.773,4.885,4.885,0,0,0-1.739-.285,4.315,4.315,0,0,0-1.232.171,2.946,2.946,0,0,0-.908.416,2.313,2.313,0,0,0-.7.8,2.159,2.159,0,0,0-.257,1.042,2.075,2.075,0,0,0,1.232,1.928,13.275,13.275,0,0,0,2.175.685,6.211,6.211,0,0,1,1.458.484.87.87,0,0,1,.42.761,1.2,1.2,0,0,1-.476.939,2.231,2.231,0,0,1-1.458.4,2.311,2.311,0,0,1-1.517-.451,1.975,1.975,0,0,1-.661-1.3l-1.411.222a3.168,3.168,0,0,0,1.1,2.021" transform="translate(-33.525 -309.109)" fill="#636567"/>
      </g>
      <path id="Sweetness" d="M.638,217.239a3.69,3.69,0,0,0,1.673,1.367,6.722,6.722,0,0,0,2.641.455,5.35,5.35,0,0,0,2.238-.451,3.493,3.493,0,0,0,1.526-1.263,3.1,3.1,0,0,0,.531-1.728,2.834,2.834,0,0,0-.484-1.635,3.505,3.505,0,0,0-1.5-1.172,15.354,15.354,0,0,0-2.571-.733,6.163,6.163,0,0,1-2.318-.82,1.3,1.3,0,0,1-.451-1.018,1.516,1.516,0,0,1,.638-1.22,3.272,3.272,0,0,1,2.033-.5,3.155,3.155,0,0,1,2.024.556,2.348,2.348,0,0,1,.8,1.647l1.474-.109a3.446,3.446,0,0,0-.57-1.811,3.269,3.269,0,0,0-1.518-1.212,5.863,5.863,0,0,0-2.277-.412,5.594,5.594,0,0,0-2.131.391,3.083,3.083,0,0,0-1.458,1.149,2.9,2.9,0,0,0-.5,1.628,2.6,2.6,0,0,0,.409,1.43,3.125,3.125,0,0,0,1.239,1.071,10.586,10.586,0,0,0,2.243.717,20.675,20.675,0,0,1,2.068.561,2.348,2.348,0,0,1,1.045.678,1.486,1.486,0,0,1,.317.945,1.633,1.633,0,0,1-.329.983,2.14,2.14,0,0,1-1,.71,4.291,4.291,0,0,1-1.552.259,4.474,4.474,0,0,1-1.783-.34,2.621,2.621,0,0,1-1.168-.895,3.129,3.129,0,0,1-.479-1.415L0,215.172a3.859,3.859,0,0,0,.638,2.067m13.536,1.626,1.7-6.406.325,1.42,1.339,4.986h1.481l2.629-8.327H20.266l-1.442,4.815-.484,1.607-.42-1.591-1.26-4.831H15.2l-1.339,4.877q-.4,1.584-.437,1.718l-.5-1.788-1.339-4.807H10.109l2.575,8.327Zm13.523-1.38a2.2,2.2,0,0,1-1.339.409,2.344,2.344,0,0,1-1.759-.73,3.177,3.177,0,0,1-.785-2.1H30.09c0-.167.007-.292.007-.377a4.482,4.482,0,0,0-1.07-3.2,3.615,3.615,0,0,0-2.757-1.137,3.718,3.718,0,0,0-2.835,1.161,4.57,4.57,0,0,0-1.093,3.261,4.367,4.367,0,0,0,1.082,3.156,3.866,3.866,0,0,0,2.926,1.126,3.908,3.908,0,0,0,2.409-.707,3.551,3.551,0,0,0,1.292-1.983l-1.474-.18a2.7,2.7,0,0,1-.879,1.3m-3.063-5.324a2.282,2.282,0,0,1,1.652-.65,2.2,2.2,0,0,1,1.767.815,2.794,2.794,0,0,1,.539,1.577h-4.7a2.573,2.573,0,0,1,.741-1.741m12.055,5.324a2.2,2.2,0,0,1-1.339.409,2.344,2.344,0,0,1-1.759-.73,3.177,3.177,0,0,1-.785-2.1h6.276c0-.167.007-.292.007-.377a4.488,4.488,0,0,0-1.07-3.2,3.615,3.615,0,0,0-2.757-1.137,3.721,3.721,0,0,0-2.837,1.161,4.569,4.569,0,0,0-1.092,3.261,4.373,4.373,0,0,0,1.08,3.156,3.871,3.871,0,0,0,2.928,1.126,3.908,3.908,0,0,0,2.409-.707,3.559,3.559,0,0,0,1.292-1.983l-1.474-.18a2.7,2.7,0,0,1-.879,1.3m-3.063-5.324a2.279,2.279,0,0,1,1.652-.65,2.2,2.2,0,0,1,1.767.815,2.805,2.805,0,0,1,.539,1.577h-4.7a2.56,2.56,0,0,1,.741-1.741m9.661,5.5a.952.952,0,0,1-.486-.1.594.594,0,0,1-.245-.275,2.442,2.442,0,0,1-.075-.775v-4.87h1.433v-1.1H42.48v-2.909l-1.418.848v2.061H40.015v1.1h1.046v4.791a5.007,5.007,0,0,0,.173,1.665,1.37,1.37,0,0,0,.6.64,2.466,2.466,0,0,0,1.2.243,5.292,5.292,0,0,0,1.077-.127l-.206-1.247a4.5,4.5,0,0,1-.626.055m3.414,1.207v-4.547a2.81,2.81,0,0,1,.661-2.173,2.327,2.327,0,0,1,1.573-.572,1.891,1.891,0,0,1,1,.255,1.368,1.368,0,0,1,.591.682,3.789,3.789,0,0,1,.166,1.29v5.065h1.426v-5.12a7.985,7.985,0,0,0-.079-1.372,2.688,2.688,0,0,0-.444-1.043,2.194,2.194,0,0,0-.954-.71,3.552,3.552,0,0,0-1.4-.271,3.037,3.037,0,0,0-2.678,1.372v-1.184H45.275v8.327Zm12.446-1.38a2.195,2.195,0,0,1-1.339.409,2.341,2.341,0,0,1-1.758-.73,3.177,3.177,0,0,1-.785-2.1h6.274c.006-.167.009-.292.009-.377a4.488,4.488,0,0,0-1.07-3.2,3.615,3.615,0,0,0-2.757-1.137,3.719,3.719,0,0,0-2.837,1.161,4.57,4.57,0,0,0-1.093,3.261,4.374,4.374,0,0,0,1.082,3.156,4.408,4.408,0,0,0,5.337.419,3.557,3.557,0,0,0,1.29-1.983l-1.473-.18a2.7,2.7,0,0,1-.88,1.3m-3.061-5.324a2.279,2.279,0,0,1,1.652-.65,2.2,2.2,0,0,1,1.767.815,2.816,2.816,0,0,1,.539,1.577h-4.7a2.56,2.56,0,0,1,.741-1.741m7.7,6.218a3.985,3.985,0,0,0,2.5.675,4.411,4.411,0,0,0,1.774-.342,2.679,2.679,0,0,0,1.2-.964,2.349,2.349,0,0,0,.416-1.329,2.05,2.05,0,0,0-.341-1.207,2.129,2.129,0,0,0-.939-.74,17.53,17.53,0,0,0-2.111-.655c-.7-.189-1.117-.308-1.26-.361a1.269,1.269,0,0,1-.547-.377.777.777,0,0,1-.175-.495.931.931,0,0,1,.42-.752,2.351,2.351,0,0,1,1.4-.321,2.034,2.034,0,0,1,1.287.361,1.5,1.5,0,0,1,.551,1l1.393-.189a2.958,2.958,0,0,0-.491-1.289,2.361,2.361,0,0,0-1.105-.765,4.924,4.924,0,0,0-1.739-.282,4.364,4.364,0,0,0-1.232.169,2.958,2.958,0,0,0-.908.412,2.3,2.3,0,0,0-.7.788,2.136,2.136,0,0,0-.257,1.031,2.052,2.052,0,0,0,1.232,1.908,13.371,13.371,0,0,0,2.175.678,6.257,6.257,0,0,1,1.458.479.859.859,0,0,1,.42.753,1.182,1.182,0,0,1-.476.929,2.247,2.247,0,0,1-1.458.4,2.328,2.328,0,0,1-1.517-.447,1.948,1.948,0,0,1-.661-1.287l-1.411.22a3.128,3.128,0,0,0,1.1,2m8.081,0a3.985,3.985,0,0,0,2.5.675,4.416,4.416,0,0,0,1.774-.342,2.679,2.679,0,0,0,1.2-.964,2.349,2.349,0,0,0,.416-1.329,2.05,2.05,0,0,0-.341-1.207,2.129,2.129,0,0,0-.939-.74,17.53,17.53,0,0,0-2.111-.655c-.7-.189-1.117-.308-1.26-.361a1.269,1.269,0,0,1-.547-.377.777.777,0,0,1-.175-.495.931.931,0,0,1,.42-.752,2.351,2.351,0,0,1,1.4-.321,2.034,2.034,0,0,1,1.287.361,1.507,1.507,0,0,1,.551,1l1.393-.189a2.958,2.958,0,0,0-.491-1.289,2.361,2.361,0,0,0-1.105-.765,4.93,4.93,0,0,0-1.739-.282,4.357,4.357,0,0,0-1.232.169,2.958,2.958,0,0,0-.908.412,2.3,2.3,0,0,0-.7.788,2.119,2.119,0,0,0-.257,1.031,2.052,2.052,0,0,0,1.232,1.908,13.371,13.371,0,0,0,2.175.678,6.257,6.257,0,0,1,1.458.479.859.859,0,0,1,.42.753,1.182,1.182,0,0,1-.476.929,2.247,2.247,0,0,1-1.458.4,2.328,2.328,0,0,1-1.517-.447,1.948,1.948,0,0,1-.661-1.287l-1.411.22a3.128,3.128,0,0,0,1.1,2" transform="translate(0 -15.84)" fill="#636567"/>
      <path id="Greasiness" d="M50.145,111.4v2.14a5.028,5.028,0,0,1-1.442.812,5.2,5.2,0,0,1-1.95.381,4.863,4.863,0,0,1-2.171-.5,3.415,3.415,0,0,1-1.556-1.537,5.574,5.574,0,0,1-.534-2.572,5.969,5.969,0,0,1,.442-2.313,3.983,3.983,0,0,1,.733-1.137,3.432,3.432,0,0,1,1.239-.835,4.752,4.752,0,0,1,1.822-.317,4.122,4.122,0,0,1,1.6.3,2.668,2.668,0,0,1,1.108.8,4.213,4.213,0,0,1,.65,1.379l1.386-.375a4.989,4.989,0,0,0-.877-1.882,3.792,3.792,0,0,0-1.6-1.126,6.138,6.138,0,0,0-2.278-.4,6.449,6.449,0,0,0-3.064.705,4.684,4.684,0,0,0-2.041,2.16,7.051,7.051,0,0,0-.71,3.133,6.567,6.567,0,0,0,.713,3.065,4.824,4.824,0,0,0,2.112,2.1,6.643,6.643,0,0,0,3.11.726,6.984,6.984,0,0,0,2.472-.451,8.732,8.732,0,0,0,2.337-1.344v-4.266l-4.921.007v1.35Zm4.966,4.508v-4.359a5.434,5.434,0,0,1,.238-1.647,1.521,1.521,0,0,1,.531-.772,1.375,1.375,0,0,1,.841-.278,2.055,2.055,0,0,1,1.045.305l.491-1.309a2.787,2.787,0,0,0-1.464-.455,1.6,1.6,0,0,0-.917.282,3.46,3.46,0,0,0-.907,1.168v-1.263H53.685v8.327Zm8.84-1.38a2.195,2.195,0,0,1-1.339.409,2.341,2.341,0,0,1-1.758-.73,3.184,3.184,0,0,1-.785-2.1h6.276c0-.167.009-.292.009-.377a4.488,4.488,0,0,0-1.07-3.2,3.619,3.619,0,0,0-2.757-1.137,3.717,3.717,0,0,0-2.837,1.161,4.564,4.564,0,0,0-1.095,3.261,4.374,4.374,0,0,0,1.082,3.156,4.408,4.408,0,0,0,5.337.419,3.566,3.566,0,0,0,1.292-1.983l-1.474-.18a2.694,2.694,0,0,1-.88,1.3M60.89,109.2a2.279,2.279,0,0,1,1.652-.65,2.2,2.2,0,0,1,1.767.815,2.805,2.805,0,0,1,.539,1.577h-4.7a2.553,2.553,0,0,1,.739-1.741m12.948,6.7h1.49a3.109,3.109,0,0,1-.36-1,19.587,19.587,0,0,1-.091-2.49v-1.881a7.891,7.891,0,0,0-.072-1.3,2.206,2.206,0,0,0-.444-.961,2.31,2.31,0,0,0-.991-.63,5.093,5.093,0,0,0-1.75-.252,5.673,5.673,0,0,0-1.909.294,2.737,2.737,0,0,0-1.26.839,3.414,3.414,0,0,0-.626,1.431l1.395.188a2.129,2.129,0,0,1,.708-1.235,2.539,2.539,0,0,1,1.486-.349,2.4,2.4,0,0,1,1.624.479,1.551,1.551,0,0,1,.4,1.216c0,.052,0,.175-.009.368a13.129,13.129,0,0,1-2.543.486,10.088,10.088,0,0,0-1.267.212,3.493,3.493,0,0,0-1.026.463,2.326,2.326,0,0,0-.738.812,2.269,2.269,0,0,0-.279,1.117,2.2,2.2,0,0,0,.745,1.713,3.072,3.072,0,0,0,2.13.671,4.45,4.45,0,0,0,1.573-.275,5.308,5.308,0,0,0,1.524-.941,2.989,2.989,0,0,0,.285,1.027m-.4-3.661a3.38,3.38,0,0,1-.229,1.411,2.2,2.2,0,0,1-.942.976,2.961,2.961,0,0,1-1.467.358,1.87,1.87,0,0,1-1.262-.377A1.238,1.238,0,0,1,69.3,113a1.234,1.234,0,0,1,.561-.458,5.429,5.429,0,0,1,1.245-.282,10.548,10.548,0,0,0,2.328-.534Zm4.148,3.175a3.985,3.985,0,0,0,2.5.675,4.415,4.415,0,0,0,1.774-.342,2.679,2.679,0,0,0,1.2-.964,2.349,2.349,0,0,0,.416-1.329,2.05,2.05,0,0,0-.341-1.207,2.128,2.128,0,0,0-.939-.74,17.526,17.526,0,0,0-2.111-.655c-.7-.189-1.117-.308-1.26-.361a1.268,1.268,0,0,1-.547-.377.777.777,0,0,1-.175-.495.931.931,0,0,1,.42-.752,2.351,2.351,0,0,1,1.4-.321,2.034,2.034,0,0,1,1.287.361,1.513,1.513,0,0,1,.551,1l1.393-.189a2.958,2.958,0,0,0-.491-1.289,2.361,2.361,0,0,0-1.105-.765,4.93,4.93,0,0,0-1.739-.282,4.357,4.357,0,0,0-1.232.169,2.96,2.96,0,0,0-.908.412,2.3,2.3,0,0,0-.7.788,2.119,2.119,0,0,0-.257,1.031,2.052,2.052,0,0,0,1.232,1.908,13.328,13.328,0,0,0,2.175.678,6.257,6.257,0,0,1,1.458.479.859.859,0,0,1,.42.753,1.182,1.182,0,0,1-.476.929,2.248,2.248,0,0,1-1.458.4,2.327,2.327,0,0,1-1.517-.447,1.948,1.948,0,0,1-.661-1.287l-1.411.22a3.128,3.128,0,0,0,1.1,2m8.987-11.008H85.143v1.623h1.426Zm0,3.167H85.143v8.327h1.426Zm3.564,8.327v-4.547a2.81,2.81,0,0,1,.661-2.173,2.327,2.327,0,0,1,1.573-.572,1.89,1.89,0,0,1,1,.255,1.368,1.368,0,0,1,.591.682,3.789,3.789,0,0,1,.166,1.29v5.065h1.426v-5.12a7.984,7.984,0,0,0-.079-1.372,2.688,2.688,0,0,0-.444-1.043,2.194,2.194,0,0,0-.954-.71,3.552,3.552,0,0,0-1.4-.271,3.037,3.037,0,0,0-2.678,1.372v-1.184H88.707v8.327Zm12.446-1.38a2.195,2.195,0,0,1-1.339.409,2.341,2.341,0,0,1-1.758-.73,3.177,3.177,0,0,1-.785-2.1h6.274c.006-.167.009-.292.009-.377a4.488,4.488,0,0,0-1.07-3.2,3.615,3.615,0,0,0-2.757-1.137,3.719,3.719,0,0,0-2.837,1.161,4.57,4.57,0,0,0-1.093,3.261A4.374,4.374,0,0,0,98.3,114.97a4.408,4.408,0,0,0,5.337.419,3.557,3.557,0,0,0,1.29-1.983l-1.473-.18a2.7,2.7,0,0,1-.88,1.3M99.517,109.2a2.279,2.279,0,0,1,1.652-.65,2.2,2.2,0,0,1,1.767.815,2.817,2.817,0,0,1,.539,1.577h-4.7a2.56,2.56,0,0,1,.741-1.741m7.7,6.218a3.985,3.985,0,0,0,2.5.675,4.41,4.41,0,0,0,1.774-.342,2.679,2.679,0,0,0,1.2-.964,2.349,2.349,0,0,0,.416-1.329,2.05,2.05,0,0,0-.341-1.207,2.128,2.128,0,0,0-.939-.74,17.525,17.525,0,0,0-2.111-.655c-.7-.189-1.117-.308-1.26-.361a1.268,1.268,0,0,1-.547-.377.777.777,0,0,1-.175-.495.931.931,0,0,1,.42-.752,2.351,2.351,0,0,1,1.4-.321,2.034,2.034,0,0,1,1.287.361,1.5,1.5,0,0,1,.551,1l1.393-.189a2.959,2.959,0,0,0-.491-1.289,2.361,2.361,0,0,0-1.105-.765,4.924,4.924,0,0,0-1.739-.282,4.365,4.365,0,0,0-1.232.169,2.934,2.934,0,0,0-.907.412,2.285,2.285,0,0,0-.7.788,2.135,2.135,0,0,0-.257,1.031,2.052,2.052,0,0,0,1.232,1.908,13.377,13.377,0,0,0,2.175.678,6.257,6.257,0,0,1,1.458.479.856.856,0,0,1,.42.753,1.182,1.182,0,0,1-.476.929,2.248,2.248,0,0,1-1.458.4,2.327,2.327,0,0,1-1.517-.447,1.948,1.948,0,0,1-.661-1.287l-1.409.22a3.12,3.12,0,0,0,1.1,2m8.081,0a3.985,3.985,0,0,0,2.5.675,4.415,4.415,0,0,0,1.774-.342,2.679,2.679,0,0,0,1.2-.964,2.349,2.349,0,0,0,.416-1.329,2.049,2.049,0,0,0-.341-1.207,2.128,2.128,0,0,0-.939-.74,17.523,17.523,0,0,0-2.111-.655c-.7-.189-1.117-.308-1.26-.361a1.268,1.268,0,0,1-.547-.377.777.777,0,0,1-.175-.495.931.931,0,0,1,.42-.752,2.351,2.351,0,0,1,1.4-.321,2.034,2.034,0,0,1,1.288.361,1.507,1.507,0,0,1,.551,1l1.393-.189a2.958,2.958,0,0,0-.491-1.289,2.361,2.361,0,0,0-1.105-.765,4.924,4.924,0,0,0-1.739-.282,4.365,4.365,0,0,0-1.232.169,2.96,2.96,0,0,0-.908.412,2.3,2.3,0,0,0-.7.788,2.136,2.136,0,0,0-.257,1.031,2.052,2.052,0,0,0,1.232,1.908,13.376,13.376,0,0,0,2.175.678,6.257,6.257,0,0,1,1.458.479.859.859,0,0,1,.42.753,1.182,1.182,0,0,1-.476.929,2.248,2.248,0,0,1-1.458.4,2.327,2.327,0,0,1-1.517-.447,1.948,1.948,0,0,1-.661-1.287l-1.411.22a3.127,3.127,0,0,0,1.1,2" transform="translate(26.215 -39.88)" fill="#636567"/>
    </g>
    <g id="legend" transform="translate(764.052 215.938)">
      <line id="Line_811" data-name="Line 811" x2="36.415" transform="translate(0 6.902)" fill="none" stroke="#646464" stroke-linecap="round" stroke-linejoin="round" stroke-width="1.25"/>
      <path id="Path_45699" data-name="Path 45699" d="M399.775,143.124l4.335,8.581h-8.67Z" transform="translate(-381.574 -140.555)" fill="#646464" stroke="#646464" stroke-width="1"/>
      <path id="Path_45700" data-name="Path 45700" d="M399.775,143.124l4.335,8.581h-8.67Z" transform="translate(-381.574 -140.555)" fill="none" stroke="#646464" stroke-linejoin="round" stroke-width="0.75"/>
      <path id="Path_45701" data-name="Path 45701" d="M419.832,153.613V142.778h4.107v-1.45H414.1v1.45h4.089v10.835Zm10.794-1.474a2.346,2.346,0,0,1-1.431.435,2.5,2.5,0,0,1-1.88-.779,3.393,3.393,0,0,1-.838-2.245h6.706c.006-.179.009-.313.009-.4a4.8,4.8,0,0,0-1.143-3.419,3.87,3.87,0,0,0-2.948-1.214,3.974,3.974,0,0,0-3.03,1.24,4.884,4.884,0,0,0-1.169,3.485,4.673,4.673,0,0,0,1.156,3.374,4.716,4.716,0,0,0,5.7.448,3.8,3.8,0,0,0,1.38-2.119l-1.574-.193a2.9,2.9,0,0,1-.941,1.392m-3.273-5.69a2.437,2.437,0,0,1,1.766-.7,2.347,2.347,0,0,1,1.889.871,3,3,0,0,1,.575,1.685h-5.02a2.737,2.737,0,0,1,.79-1.861m8.247,6.646a4.258,4.258,0,0,0,2.672.719,4.7,4.7,0,0,0,1.9-.363,2.872,2.872,0,0,0,1.283-1.031A2.518,2.518,0,0,0,441.9,151a2.2,2.2,0,0,0-.364-1.291,2.289,2.289,0,0,0-1-.791,19.025,19.025,0,0,0-2.256-.7c-.746-.2-1.194-.329-1.347-.385a1.348,1.348,0,0,1-.584-.4.83.83,0,0,1-.186-.528,1,1,0,0,1,.449-.805,2.511,2.511,0,0,1,1.5-.343,2.175,2.175,0,0,1,1.376.385,1.615,1.615,0,0,1,.588,1.073l1.49-.2a3.156,3.156,0,0,0-.525-1.379,2.524,2.524,0,0,0-1.181-.817,5.249,5.249,0,0,0-1.86-.3,4.66,4.66,0,0,0-1.316.18,3.181,3.181,0,0,0-.97.439,2.461,2.461,0,0,0-.749.842,2.272,2.272,0,0,0-.276,1.1A2.193,2.193,0,0,0,436,149.116a14.174,14.174,0,0,0,2.324.725,6.648,6.648,0,0,1,1.558.512.913.913,0,0,1,.449.8,1.261,1.261,0,0,1-.509.992,2.393,2.393,0,0,1-1.558.423,2.479,2.479,0,0,1-1.621-.478,2.069,2.069,0,0,1-.707-1.374l-1.507.235a3.34,3.34,0,0,0,1.172,2.138m10.748-.771a1.017,1.017,0,0,1-.52-.11.624.624,0,0,1-.263-.293,2.616,2.616,0,0,1-.079-.829v-5.2h1.532v-1.174h-1.532V141.6l-1.516.905v2.2h-1.118v1.174h1.118v5.12a5.347,5.347,0,0,0,.186,1.781,1.459,1.459,0,0,0,.643.682,2.632,2.632,0,0,0,1.287.26,5.668,5.668,0,0,0,1.152-.134l-.221-1.331a5.072,5.072,0,0,1-.669.059m8.78,1.29v-4.994h3.183q2.634,0,3.641-1.085a3.964,3.964,0,0,0,.63-4.328,3.028,3.028,0,0,0-.994-1.187,3.77,3.77,0,0,0-1.533-.573,11.369,11.369,0,0,0-1.889-.117h-4.682v12.285Zm0-10.835H458.3a7.084,7.084,0,0,1,1.533.109,1.842,1.842,0,0,1,1.038.725,2.209,2.209,0,0,1,.393,1.32,2.078,2.078,0,0,1-.669,1.65,3.433,3.433,0,0,1-2.26.586h-3.209Zm11.218,10.835v-4.659a5.825,5.825,0,0,1,.254-1.759,1.607,1.607,0,0,1,.568-.827,1.463,1.463,0,0,1,.9-.3,2.2,2.2,0,0,1,1.117.327l.525-1.4a3,3,0,0,0-1.566-.485,1.7,1.7,0,0,0-.977.3,3.668,3.668,0,0,0-.97,1.248v-1.35h-1.371v8.9Zm4.846-1a4.071,4.071,0,0,0,3.053,1.2,4.447,4.447,0,0,0,2.172-.543,3.676,3.676,0,0,0,1.516-1.53,5.838,5.838,0,0,0,.52-2.7,4.549,4.549,0,0,0-1.178-3.324,4.057,4.057,0,0,0-3.03-1.2,4.208,4.208,0,0,0-2.828.988,4.561,4.561,0,0,0-1.389,3.663,4.759,4.759,0,0,0,1.163,3.452m1.156-6.009a2.533,2.533,0,0,1,3.782,0,3.658,3.658,0,0,1,.757,2.5,3.852,3.852,0,0,1-.754,2.607,2.528,2.528,0,0,1-3.784,0,4.724,4.724,0,0,1,0-5.117m15.122,7.006V141.328h-1.516v4.408a3.008,3.008,0,0,0-2.481-1.223,3.616,3.616,0,0,0-2.006.578,3.5,3.5,0,0,0-1.347,1.663,6.269,6.269,0,0,0-.449,2.417,5.624,5.624,0,0,0,.5,2.418,3.87,3.87,0,0,0,1.4,1.637,3.546,3.546,0,0,0,1.977.586,2.8,2.8,0,0,0,2.514-1.323v1.123Zm-5.55-7.03a2.118,2.118,0,0,1,1.7-.821,2.2,2.2,0,0,1,1.753.854,4.157,4.157,0,0,1,.711,2.681,3.7,3.7,0,0,1-.7,2.468,2.165,2.165,0,0,1-1.7.808,2.207,2.207,0,0,1-1.72-.845,3.841,3.841,0,0,1-.728-2.557,4.025,4.025,0,0,1,.682-2.589m15.186,7.03v-8.9h-1.524v4.768a4.715,4.715,0,0,1-.25,1.739,1.942,1.942,0,0,1-.851.947,2.528,2.528,0,0,1-1.288.348,1.9,1.9,0,0,1-1.15-.339,1.567,1.567,0,0,1-.61-.934,8.689,8.689,0,0,1-.094-1.593v-4.935h-1.523v5.515a7.593,7.593,0,0,0,.092,1.407,2.819,2.819,0,0,0,.47,1.118,2.45,2.45,0,0,0,1.025.759,3.686,3.686,0,0,0,1.487.3,3.3,3.3,0,0,0,2.852-1.507v1.307Zm7.475-1.585a2.147,2.147,0,0,1-1.5.545,2.267,2.267,0,0,1-1.812-.812,3.981,3.981,0,0,1-.694-2.606,3.853,3.853,0,0,1,.72-2.586,2.374,2.374,0,0,1,1.871-.817,1.95,1.95,0,0,1,1.3.452,2.426,2.426,0,0,1,.749,1.35l1.483-.227a3.358,3.358,0,0,0-1.194-2.082,3.768,3.768,0,0,0-2.4-.732,4.392,4.392,0,0,0-2.146.541,3.328,3.328,0,0,0-1.468,1.62,6.133,6.133,0,0,0-.483,2.523,4.813,4.813,0,0,0,1.121,3.424,3.884,3.884,0,0,0,2.968,1.193,3.685,3.685,0,0,0,2.484-.867,3.83,3.83,0,0,0,1.257-2.4l-1.5-.192a2.686,2.686,0,0,1-.761,1.675m6.206.295a1.019,1.019,0,0,1-.522-.11.622.622,0,0,1-.262-.293,2.557,2.557,0,0,1-.081-.829v-5.2h1.533v-1.174h-1.533V141.6l-1.516.905v2.2h-1.117v1.174h1.117v5.12a5.347,5.347,0,0,0,.186,1.781,1.459,1.459,0,0,0,.643.682,2.633,2.633,0,0,0,1.288.26,5.667,5.667,0,0,0,1.152-.134l-.22-1.331a5.111,5.111,0,0,1-.669.059m7.517,1.29,1.364-3.721h5.189l1.448,3.721h1.871L523.1,141.328h-1.77l-4.767,12.285Zm3.2-8.648a15.662,15.662,0,0,0,.669-2.347q.288,1,.88,2.548l1.3,3.4h-4.208Z" transform="translate(-373.269 -141.328)" fill="#636567"/>
      <line id="Line_812" data-name="Line 812" x2="36.415" transform="translate(0 37.672)" fill="none" stroke="#f1ad0f" stroke-linecap="round" stroke-linejoin="round" stroke-width="1.25"/>
      <path id="Path_45702" data-name="Path 45702" d="M404.11,168.894a4.335,4.335,0,1,1-4.335-4.29,4.313,4.313,0,0,1,4.335,4.29" transform="translate(-381.574 -131.316)" fill="#f1ad0f" stroke="#f1ad0f" stroke-width="1"/>
      <ellipse id="Ellipse_11272" data-name="Ellipse 11272" cx="4.335" cy="4.29" rx="4.335" ry="4.29" transform="translate(13.867 33.288)" fill="none" stroke="#f1ad0f" stroke-linejoin="round" stroke-width="0.75"/>
      <path id="Path_45703" data-name="Path 45703" d="M419.832,175.129V164.294h4.107v-1.45H414.1v1.45h4.089v10.835Zm10.8-1.474a2.352,2.352,0,0,1-1.431.435,2.5,2.5,0,0,1-1.88-.779,3.393,3.393,0,0,1-.838-2.245h6.7c.006-.179.009-.313.009-.4a4.794,4.794,0,0,0-1.143-3.419,3.865,3.865,0,0,0-2.946-1.214,3.98,3.98,0,0,0-3.032,1.24,4.883,4.883,0,0,0-1.168,3.485,4.666,4.666,0,0,0,1.156,3.374,4.716,4.716,0,0,0,5.7.448,3.8,3.8,0,0,0,1.38-2.119l-1.575-.193a2.9,2.9,0,0,1-.939,1.392m-3.273-5.69a2.435,2.435,0,0,1,1.766-.7,2.345,2.345,0,0,1,1.887.871,2.994,2.994,0,0,1,.577,1.685h-5.021a2.738,2.738,0,0,1,.792-1.861m8.247,6.646a4.258,4.258,0,0,0,2.672.719,4.733,4.733,0,0,0,1.9-.363,2.872,2.872,0,0,0,1.283-1.031,2.516,2.516,0,0,0,.444-1.42,2.2,2.2,0,0,0-.364-1.291,2.284,2.284,0,0,0-1-.791,19.023,19.023,0,0,0-2.256-.7q-1.118-.3-1.347-.385a1.331,1.331,0,0,1-.584-.4.831.831,0,0,1-.186-.529,1,1,0,0,1,.448-.8,2.514,2.514,0,0,1,1.5-.343,2.172,2.172,0,0,1,1.376.385,1.611,1.611,0,0,1,.59,1.073l1.49-.2a3.192,3.192,0,0,0-.525-1.379,2.54,2.54,0,0,0-1.182-.818,5.274,5.274,0,0,0-1.858-.3,4.7,4.7,0,0,0-1.316.179,3.2,3.2,0,0,0-.97.44,2.432,2.432,0,0,0-.749.842,2.269,2.269,0,0,0-.276,1.1A2.2,2.2,0,0,0,436,170.632a14.2,14.2,0,0,0,2.325.725,6.77,6.77,0,0,1,1.558.511.915.915,0,0,1,.448.805,1.259,1.259,0,0,1-.507.993,2.4,2.4,0,0,1-1.558.423,2.476,2.476,0,0,1-1.621-.478,2.077,2.077,0,0,1-.708-1.374l-1.507.235a3.347,3.347,0,0,0,1.173,2.138m10.748-.772a1.019,1.019,0,0,1-.52-.109.625.625,0,0,1-.263-.293,2.6,2.6,0,0,1-.081-.829v-5.2h1.533v-1.173h-1.533V163.12l-1.514.905v2.2h-1.119V167.4h1.119v5.121a5.363,5.363,0,0,0,.185,1.781,1.463,1.463,0,0,0,.644.682,2.63,2.63,0,0,0,1.286.26,5.656,5.656,0,0,0,1.152-.134l-.22-1.333a4.872,4.872,0,0,1-.669.059m8.78,1.291v-4.994h3.183q2.634,0,3.64-1.085a3.963,3.963,0,0,0,.631-4.329,3.037,3.037,0,0,0-1-1.186,3.756,3.756,0,0,0-1.532-.573,11.385,11.385,0,0,0-1.889-.117h-4.682v12.285Zm0-10.835H458.3a7.056,7.056,0,0,1,1.532.109,1.837,1.837,0,0,1,1.038.725,2.2,2.2,0,0,1,.394,1.319,2.084,2.084,0,0,1-.669,1.652,3.435,3.435,0,0,1-2.261.586H455.13Zm11.218,10.835v-4.659a5.825,5.825,0,0,1,.254-1.759,1.614,1.614,0,0,1,.566-.827,1.469,1.469,0,0,1,.9-.3,2.206,2.206,0,0,1,1.118.328l.525-1.4a3,3,0,0,0-1.566-.485,1.711,1.711,0,0,0-.978.3,3.691,3.691,0,0,0-.968,1.25v-1.35h-1.373v8.9Zm4.847-1a4.065,4.065,0,0,0,3.052,1.2,4.462,4.462,0,0,0,2.172-.543,3.668,3.668,0,0,0,1.516-1.53,5.836,5.836,0,0,0,.522-2.7,4.549,4.549,0,0,0-1.178-3.324,4.058,4.058,0,0,0-3.032-1.2,4.213,4.213,0,0,0-2.828.988,4.564,4.564,0,0,0-1.387,3.661,4.76,4.76,0,0,0,1.163,3.454m1.156-6.009a2.532,2.532,0,0,1,3.78,0,3.651,3.651,0,0,1,.759,2.5,3.853,3.853,0,0,1-.754,2.607,2.528,2.528,0,0,1-3.784,0,4.716,4.716,0,0,1,0-5.117m15.122,7.006V162.844h-1.516v4.408a3.008,3.008,0,0,0-2.481-1.223,3.621,3.621,0,0,0-2.007.578,3.5,3.5,0,0,0-1.345,1.663,6.243,6.243,0,0,0-.449,2.417,5.6,5.6,0,0,0,.5,2.418,3.86,3.86,0,0,0,1.4,1.637,3.545,3.545,0,0,0,1.977.586,2.8,2.8,0,0,0,2.514-1.323v1.123Zm-5.55-7.031a2.117,2.117,0,0,1,1.7-.821,2.2,2.2,0,0,1,1.753.854,4.148,4.148,0,0,1,.712,2.682,3.7,3.7,0,0,1-.7,2.468,2.163,2.163,0,0,1-1.7.808,2.2,2.2,0,0,1-1.718-.847,3.834,3.834,0,0,1-.728-2.556,4.016,4.016,0,0,1,.682-2.589m15.184,7.031v-8.9h-1.524V171a4.718,4.718,0,0,1-.249,1.739,1.949,1.949,0,0,1-.851.947,2.532,2.532,0,0,1-1.287.348,1.907,1.907,0,0,1-1.152-.339,1.575,1.575,0,0,1-.61-.934,8.742,8.742,0,0,1-.092-1.593v-4.935h-1.525v5.515a7.551,7.551,0,0,0,.094,1.407,2.818,2.818,0,0,0,.47,1.118,2.427,2.427,0,0,0,1.024.758,3.658,3.658,0,0,0,1.486.3,3.3,3.3,0,0,0,2.854-1.507v1.307Zm7.477-1.585a2.15,2.15,0,0,1-1.5.545,2.268,2.268,0,0,1-1.812-.812,3.972,3.972,0,0,1-.695-2.606,3.85,3.85,0,0,1,.72-2.586,2.376,2.376,0,0,1,1.871-.817,1.954,1.954,0,0,1,1.3.452,2.435,2.435,0,0,1,.749,1.349l1.483-.226a3.36,3.36,0,0,0-1.2-2.082,3.753,3.753,0,0,0-2.4-.732,4.391,4.391,0,0,0-2.146.539,3.347,3.347,0,0,0-1.47,1.622,6.157,6.157,0,0,0-.483,2.523,4.807,4.807,0,0,0,1.123,3.422,3.877,3.877,0,0,0,2.967,1.194,3.689,3.689,0,0,0,2.485-.867,3.831,3.831,0,0,0,1.257-2.4l-1.5-.193a2.69,2.69,0,0,1-.761,1.676m6.2.293a1.019,1.019,0,0,1-.52-.109.625.625,0,0,1-.263-.293,2.615,2.615,0,0,1-.08-.829v-5.2h1.532v-1.173h-1.532V163.12l-1.516.905v2.2h-1.118V167.4h1.118v5.121a5.355,5.355,0,0,0,.186,1.781,1.46,1.46,0,0,0,.643.682,2.632,2.632,0,0,0,1.287.26,5.668,5.668,0,0,0,1.152-.134l-.221-1.333a4.836,4.836,0,0,1-.669.059m11.8,1.291a8.321,8.321,0,0,0,2-.206,3.791,3.791,0,0,0,1.36-.608,3.112,3.112,0,0,0,.91-1.143,3.559,3.559,0,0,0,.369-1.6,2.967,2.967,0,0,0-.606-1.861,3.257,3.257,0,0,0-1.733-1.115,3.059,3.059,0,0,0,1.3-1.123,2.766,2.766,0,0,0,.432-1.483,3.017,3.017,0,0,0-.487-1.622,2.936,2.936,0,0,0-1.347-1.147,5.815,5.815,0,0,0-2.282-.373h-4.657v12.285ZM519.5,164.294h2.481a7.141,7.141,0,0,1,1.887.172,1.492,1.492,0,0,1,.847.636,1.958,1.958,0,0,1,.3,1.077,1.616,1.616,0,0,1-1.262,1.685,6.077,6.077,0,0,1-1.566.142H519.5Zm0,5.161h2.87a6.159,6.159,0,0,1,1.816.206,1.866,1.866,0,0,1,.987.712,2.024,2.024,0,0,1,.355,1.194,2.122,2.122,0,0,1-.246,1.034,1.791,1.791,0,0,1-.627.684,2.7,2.7,0,0,1-.948.335,7.235,7.235,0,0,1-1.117.059H519.5Z" transform="translate(-373.269 -132.073)" fill="#636567"/>
      <line id="Line_813" data-name="Line 813" x2="36.415" transform="translate(0 68.443)" fill="none" stroke="#000" stroke-linecap="round" stroke-linejoin="round" stroke-width="1.25"/>
      <rect id="Rectangle_26558" data-name="Rectangle 26558" width="8.67" height="8.581" transform="translate(13.866 64.007)"/>
      <rect id="Rectangle_26559" data-name="Rectangle 26559" width="8.67" height="8.581" transform="translate(13.866 64.007)" fill="none" stroke="#000" stroke-linejoin="round" stroke-width="0.75"/>
      <path id="Path_45704" data-name="Path 45704" d="M419.832,196.708V185.873h4.107v-1.45H414.1v1.45h4.089v10.835Zm10.794-1.474a2.346,2.346,0,0,1-1.431.435,2.5,2.5,0,0,1-1.88-.779,3.393,3.393,0,0,1-.838-2.245h6.706c.006-.179.009-.313.009-.4a4.8,4.8,0,0,0-1.143-3.419,3.867,3.867,0,0,0-2.946-1.214,3.975,3.975,0,0,0-3.032,1.24,4.886,4.886,0,0,0-1.169,3.485,4.673,4.673,0,0,0,1.156,3.374,4.71,4.71,0,0,0,5.7.448,3.787,3.787,0,0,0,1.38-2.119l-1.574-.193a2.9,2.9,0,0,1-.941,1.392m-3.272-5.69a2.434,2.434,0,0,1,1.764-.7,2.347,2.347,0,0,1,1.889.871,3,3,0,0,1,.575,1.685h-5.02a2.732,2.732,0,0,1,.792-1.861m8.245,6.646a4.258,4.258,0,0,0,2.672.721,4.7,4.7,0,0,0,1.9-.365,2.863,2.863,0,0,0,1.283-1.031,2.518,2.518,0,0,0,.445-1.42,2.2,2.2,0,0,0-.364-1.291,2.289,2.289,0,0,0-1-.791,18.82,18.82,0,0,0-2.256-.7c-.746-.2-1.194-.33-1.347-.386a1.348,1.348,0,0,1-.584-.4.83.83,0,0,1-.186-.528,1,1,0,0,1,.449-.805,2.511,2.511,0,0,1,1.5-.343,2.175,2.175,0,0,1,1.376.385,1.609,1.609,0,0,1,.588,1.073l1.49-.2a3.156,3.156,0,0,0-.525-1.379,2.524,2.524,0,0,0-1.181-.817,5.241,5.241,0,0,0-1.858-.3,4.663,4.663,0,0,0-1.318.18,3.155,3.155,0,0,0-.968.439,2.464,2.464,0,0,0-.75.842,2.275,2.275,0,0,0-.275,1.1A2.188,2.188,0,0,0,436,192.211a14.222,14.222,0,0,0,2.324.725,6.648,6.648,0,0,1,1.558.512.913.913,0,0,1,.449.8,1.257,1.257,0,0,1-.509.992,2.393,2.393,0,0,1-1.558.423,2.481,2.481,0,0,1-1.621-.478,2.069,2.069,0,0,1-.707-1.374l-1.507.236a3.34,3.34,0,0,0,1.172,2.137m10.748-.771a1.017,1.017,0,0,1-.52-.11.632.632,0,0,1-.263-.293,2.616,2.616,0,0,1-.079-.829v-5.2h1.532v-1.174h-1.532V184.7l-1.516.905v2.2h-1.117v1.174h1.117v5.12a5.346,5.346,0,0,0,.186,1.78,1.459,1.459,0,0,0,.643.682,2.632,2.632,0,0,0,1.287.26,5.667,5.667,0,0,0,1.152-.134l-.221-1.331a5.072,5.072,0,0,1-.669.059m8.78,1.29v-4.994h3.183q2.634,0,3.641-1.085a3.964,3.964,0,0,0,.63-4.328,3.014,3.014,0,0,0-.994-1.186,3.744,3.744,0,0,0-1.533-.575,11.364,11.364,0,0,0-1.887-.117h-4.683v12.285Zm0-10.835H458.3a7.085,7.085,0,0,1,1.533.109,1.842,1.842,0,0,1,1.038.725,2.209,2.209,0,0,1,.393,1.32,2.076,2.076,0,0,1-.669,1.65,3.43,3.43,0,0,1-2.26.586h-3.209Zm11.218,10.835v-4.659a5.825,5.825,0,0,1,.254-1.759,1.6,1.6,0,0,1,.568-.825,1.454,1.454,0,0,1,.9-.3,2.2,2.2,0,0,1,1.117.326l.526-1.4a2.994,2.994,0,0,0-1.566-.486,1.7,1.7,0,0,0-.978.3,3.668,3.668,0,0,0-.97,1.249v-1.35h-1.371v8.9Zm4.848-1a4.066,4.066,0,0,0,3.052,1.2,4.448,4.448,0,0,0,2.172-.545,3.676,3.676,0,0,0,1.516-1.53,5.834,5.834,0,0,0,.52-2.7,4.557,4.557,0,0,0-1.176-3.324,4.061,4.061,0,0,0-3.032-1.2,4.208,4.208,0,0,0-2.828.988,4.561,4.561,0,0,0-1.389,3.663,4.753,4.753,0,0,0,1.165,3.452m1.155-6.008a2.532,2.532,0,0,1,3.782,0,3.658,3.658,0,0,1,.757,2.5,3.86,3.86,0,0,1-.753,2.607,2.53,2.53,0,0,1-3.786,0,4.722,4.722,0,0,1,0-5.116m15.122,7V184.423h-1.516v4.408a3.008,3.008,0,0,0-2.481-1.223,3.62,3.62,0,0,0-2.006.578,3.513,3.513,0,0,0-1.347,1.663,6.269,6.269,0,0,0-.449,2.417,5.623,5.623,0,0,0,.5,2.418,3.869,3.869,0,0,0,1.4,1.637,3.547,3.547,0,0,0,1.977.588,2.8,2.8,0,0,0,2.514-1.324v1.123Zm-5.55-7.031a2.12,2.12,0,0,1,1.7-.821,2.2,2.2,0,0,1,1.753.854,4.157,4.157,0,0,1,.711,2.681,3.7,3.7,0,0,1-.7,2.468,2.165,2.165,0,0,1-1.7.808,2.207,2.207,0,0,1-1.72-.845,3.841,3.841,0,0,1-.728-2.557,4.025,4.025,0,0,1,.682-2.589m15.186,7.031v-8.9h-1.524v4.768a4.71,4.71,0,0,1-.25,1.739,1.942,1.942,0,0,1-.851.947,2.527,2.527,0,0,1-1.286.348,1.9,1.9,0,0,1-1.152-.339,1.568,1.568,0,0,1-.61-.934,8.689,8.689,0,0,1-.094-1.593v-4.935h-1.523v5.515a7.593,7.593,0,0,0,.092,1.407,2.831,2.831,0,0,0,.47,1.118,2.46,2.46,0,0,0,1.025.759,3.688,3.688,0,0,0,1.487.3,3.3,3.3,0,0,0,2.852-1.509v1.307Zm7.475-1.583a2.153,2.153,0,0,1-1.5.543,2.267,2.267,0,0,1-1.812-.812,3.981,3.981,0,0,1-.694-2.606,3.853,3.853,0,0,1,.72-2.586,2.374,2.374,0,0,1,1.871-.817,1.95,1.95,0,0,1,1.3.452,2.436,2.436,0,0,1,.75,1.35l1.481-.227a3.362,3.362,0,0,0-1.194-2.082,3.766,3.766,0,0,0-2.4-.732,4.393,4.393,0,0,0-2.147.541,3.334,3.334,0,0,0-1.468,1.62,6.132,6.132,0,0,0-.483,2.523,4.813,4.813,0,0,0,1.121,3.424,3.885,3.885,0,0,0,2.968,1.194,3.686,3.686,0,0,0,2.484-.868,3.839,3.839,0,0,0,1.259-2.4l-1.5-.192a2.694,2.694,0,0,1-.761,1.676m6.206.293a1.02,1.02,0,0,1-.522-.11.622.622,0,0,1-.262-.293,2.6,2.6,0,0,1-.081-.829v-5.2h1.533v-1.174h-1.533V184.7l-1.516.905v2.2h-1.117v1.174h1.117v5.12a5.346,5.346,0,0,0,.186,1.78,1.466,1.466,0,0,0,.643.682,2.633,2.633,0,0,0,1.288.26,5.666,5.666,0,0,0,1.152-.134l-.22-1.331a5.111,5.111,0,0,1-.669.059m14.7-.679a3.558,3.558,0,0,1-2.337.788,4.049,4.049,0,0,1-2.108-.579,3.4,3.4,0,0,1-1.435-1.746,7.425,7.425,0,0,1-.462-2.736,7.263,7.263,0,0,1,.39-2.36,3.58,3.58,0,0,1,1.35-1.822,4.04,4.04,0,0,1,2.393-.679,3.363,3.363,0,0,1,2.065.612,3.8,3.8,0,0,1,1.254,1.952l1.617-.376a4.875,4.875,0,0,0-1.77-2.64,5.122,5.122,0,0,0-3.133-.938,6.206,6.206,0,0,0-3.01.741,5.052,5.052,0,0,0-2.108,2.171,7.172,7.172,0,0,0-.741,3.348,8.274,8.274,0,0,0,.658,3.292,5.054,5.054,0,0,0,1.913,2.343,5.943,5.943,0,0,0,3.264.808,5.157,5.157,0,0,0,3.28-1.051,5.46,5.46,0,0,0,1.858-3.055l-1.643-.41a4.02,4.02,0,0,1-1.295,2.338" transform="translate(-373.269 -122.881)" fill="#636567"/>
      <line id="Line_814" data-name="Line 814" x2="36.415" transform="translate(0 99.214)" fill="none" stroke="#84c073" stroke-linecap="round" stroke-linejoin="round" stroke-width="1" stroke-dasharray="2 2"/>
      <path id="Path_45705" data-name="Path 45705" d="M419.432,218.16a8.324,8.324,0,0,0,2-.206,3.807,3.807,0,0,0,1.358-.606,3.117,3.117,0,0,0,.91-1.144,3.559,3.559,0,0,0,.368-1.6,2.967,2.967,0,0,0-.605-1.861,3.243,3.243,0,0,0-1.731-1.114,3.082,3.082,0,0,0,1.3-1.123,2.772,2.772,0,0,0,.432-1.484,3.009,3.009,0,0,0-.487-1.62,2.923,2.923,0,0,0-1.347-1.148,5.811,5.811,0,0,0-2.282-.373H414.7V218.16Zm-3.091-10.835h2.481a7.155,7.155,0,0,1,1.889.172,1.5,1.5,0,0,1,.847.636,1.971,1.971,0,0,1,.3,1.077,1.62,1.62,0,0,1-1.261,1.685,6.077,6.077,0,0,1-1.566.143h-2.685Zm0,5.161h2.87a6.159,6.159,0,0,1,1.816.206,1.881,1.881,0,0,1,.987.712,2.027,2.027,0,0,1,.355,1.194,2.122,2.122,0,0,1-.246,1.034,1.788,1.788,0,0,1-.626.684,2.715,2.715,0,0,1-.949.335,7.056,7.056,0,0,1-1.117.059h-3.091Zm14.943,4.2a2.352,2.352,0,0,1-1.431.435,2.506,2.506,0,0,1-1.88-.778,3.4,3.4,0,0,1-.838-2.247h6.7c.006-.179.009-.313.009-.4a4.8,4.8,0,0,0-1.143-3.419,3.864,3.864,0,0,0-2.946-1.214,3.98,3.98,0,0,0-3.032,1.24,4.886,4.886,0,0,0-1.168,3.485,4.673,4.673,0,0,0,1.156,3.374,4.71,4.71,0,0,0,5.7.448,3.794,3.794,0,0,0,1.38-2.119l-1.575-.193a2.9,2.9,0,0,1-.939,1.392m-3.273-5.69a2.435,2.435,0,0,1,1.766-.7,2.347,2.347,0,0,1,1.889.871,3.009,3.009,0,0,1,.575,1.685h-5.022a2.741,2.741,0,0,1,.792-1.861m9.156,7.165V213.3a3,3,0,0,1,.707-2.321,2.479,2.479,0,0,1,1.681-.612,2.022,2.022,0,0,1,1.064.272,1.453,1.453,0,0,1,.63.729,4.027,4.027,0,0,1,.178,1.379v5.413h1.524v-5.472a8.569,8.569,0,0,0-.085-1.467,2.9,2.9,0,0,0-.474-1.114,2.341,2.341,0,0,0-1.02-.758,3.779,3.779,0,0,0-1.494-.289,3.243,3.243,0,0,0-2.861,1.466V209.26h-1.373v8.9Zm13.156-1.583a2.146,2.146,0,0,1-1.5.543,2.272,2.272,0,0,1-1.812-.812,3.981,3.981,0,0,1-.694-2.606,3.853,3.853,0,0,1,.72-2.586,2.376,2.376,0,0,1,1.871-.817,1.95,1.95,0,0,1,1.3.452,2.436,2.436,0,0,1,.75,1.35l1.481-.227a3.356,3.356,0,0,0-1.194-2.082,3.763,3.763,0,0,0-2.4-.732,4.4,4.4,0,0,0-2.147.541,3.347,3.347,0,0,0-1.468,1.62,6.133,6.133,0,0,0-.483,2.523,4.819,4.819,0,0,0,1.121,3.424,3.885,3.885,0,0,0,2.968,1.194,3.69,3.69,0,0,0,2.485-.868,3.844,3.844,0,0,0,1.257-2.4l-1.5-.192a2.687,2.687,0,0,1-.763,1.676m5.02,1.583v-4.868a4.27,4.27,0,0,1,.254-1.643,1.967,1.967,0,0,1,.851-.942,2.488,2.488,0,0,1,1.273-.348,1.853,1.853,0,0,1,1.4.515,2.314,2.314,0,0,1,.5,1.648v5.639h1.525v-5.639a4.928,4.928,0,0,0-.318-2,2.307,2.307,0,0,0-1.055-1.077,3.672,3.672,0,0,0-1.736-.389,3.419,3.419,0,0,0-2.692,1.223v-4.408h-1.525V218.16Zm9.575,0v-4.618a5.434,5.434,0,0,1,.246-1.859,1.9,1.9,0,0,1,.792-.981,2.229,2.229,0,0,1,1.189-.335,1.42,1.42,0,0,1,1.22.5,2.536,2.536,0,0,1,.371,1.509v5.782h1.525v-5.17a2.726,2.726,0,0,1,.627-2,2.137,2.137,0,0,1,1.574-.624,1.679,1.679,0,0,1,.915.243,1.255,1.255,0,0,1,.538.641,4.057,4.057,0,0,1,.149,1.3v5.606h1.516v-6.108a3.117,3.117,0,0,0-.72-2.26,2.759,2.759,0,0,0-2.058-.732,3.235,3.235,0,0,0-2.777,1.559,2.2,2.2,0,0,0-.9-1.148,2.976,2.976,0,0,0-1.639-.41,3.18,3.18,0,0,0-2.727,1.449V209.26h-1.363v8.9Zm19.024,0h1.591a3.288,3.288,0,0,1-.384-1.068,21.041,21.041,0,0,1-.1-2.66v-2.012a8.453,8.453,0,0,0-.075-1.39A2.357,2.357,0,0,0,484.5,210a2.457,2.457,0,0,0-1.058-.675,5.456,5.456,0,0,0-1.871-.267,6.079,6.079,0,0,0-2.04.313,2.949,2.949,0,0,0-1.347.9,3.64,3.64,0,0,0-.669,1.53L479,212a2.268,2.268,0,0,1,.757-1.319,2.713,2.713,0,0,1,1.588-.373,2.572,2.572,0,0,1,1.735.511,1.657,1.657,0,0,1,.432,1.3q0,.084-.009.395a14.077,14.077,0,0,1-2.718.519,11.329,11.329,0,0,0-1.355.226,3.718,3.718,0,0,0-1.1.495,2.452,2.452,0,0,0-.788.867,2.413,2.413,0,0,0-.3,1.194,2.351,2.351,0,0,0,.8,1.832,3.289,3.289,0,0,0,2.277.717,4.78,4.78,0,0,0,1.681-.293,5.715,5.715,0,0,0,1.63-1.007,3.152,3.152,0,0,0,.3,1.1m-.432-3.913a3.609,3.609,0,0,1-.246,1.507,2.366,2.366,0,0,1-1.007,1.044,3.168,3.168,0,0,1-1.566.38,2,2,0,0,1-1.351-.4,1.325,1.325,0,0,1-.25-1.722,1.342,1.342,0,0,1,.6-.491,5.872,5.872,0,0,1,1.329-.3,11.275,11.275,0,0,0,2.49-.569Zm5.341,3.913V213.5a5.825,5.825,0,0,1,.254-1.759,1.61,1.61,0,0,1,.566-.825,1.461,1.461,0,0,1,.9-.3,2.2,2.2,0,0,1,1.118.326l.525-1.4a2.986,2.986,0,0,0-1.566-.486,1.7,1.7,0,0,0-.978.3,3.666,3.666,0,0,0-.968,1.248v-1.35h-1.373v8.9Z" transform="translate(-373.003 -113.564)" fill="#636567"/>
      <path id="Path_45706" data-name="Path 45706" d="M470.74,218.159v-3.528l1.075-1.023,2.972,4.551h1.88l-3.786-5.6,3.438-3.3h-1.972l-3.607,3.621v-7.006h-1.525v12.285Z" transform="translate(-348.742 -113.564)" fill="#636567"/>
    </g>
    <text id="Sensory_Liking_Scores_of_Test_Products_" data-name="Sensory Liking Scores of Test Products " transform="translate(0.485 36)" font-size="34" font-family="Poppins-Bold, Poppins" font-weight="700"><tspan x="0" y="0">Sensory Liking Scores of Test Products </tspan></text>
    <text id="Source:_E2E_Sensory_Data_Research" data-name="Source: E2E Sensory Data Research" transform="translate(0.485 70)" fill="#666" font-size="20" font-family="Poppins-Regular, Poppins"><tspan x="0" y="0">Source: E2E Sensory Data Research</tspan></text>
  </g>
</svg>
