<svg id="Raven_Slider2" xmlns="http://www.w3.org/2000/svg" xmlns:xlink="http://www.w3.org/1999/xlink" width="100%" height="100%" viewBox="0 0 929.5 480.1">
  <defs>
    <filter id="Rectangle_26538" x="805.787" y="58" width="123.713" height="122.7" filterUnits="userSpaceOnUse">
      <feOffset dy="3" input="SourceAlpha"/>
      <feGaussianBlur stdDeviation="3" result="blur"/>
      <feFlood flood-opacity="0.114"/>
      <feComposite operator="in" in2="blur"/>
      <feComposite in="SourceGraphic"/>
    </filter>
  </defs>
  <g id="historic-world-populatio" transform="translate(-128 -102)">
    <g id="Group_48335" data-name="Group 48335" transform="translate(128.528 170.2)">
      <path id="Path_45615" data-name="Path 45615" d="M73.5,61V471.8" transform="translate(-73.5 -61)" fill="none" stroke="#e6e6e6" stroke-width="0"/>
      <path id="Path_45616" data-name="Path 45616" d="M124.5,61V471.8" transform="translate(-39.89 -61)" fill="none" stroke="#e6e6e6" stroke-width="0"/>
      <path id="Path_45617" data-name="Path 45617" d="M176.5,61V471.8" transform="translate(-5.621 -61)" fill="none" stroke="#e6e6e6" stroke-width="0"/>
      <path id="Path_45618" data-name="Path 45618" d="M228.5,61V471.8" transform="translate(31.81 -61)" fill="none" stroke="#e6e6e6" stroke-width="0"/>
      <path id="Path_45619" data-name="Path 45619" d="M279.5,61V471.8" transform="translate(66.46 -61)" fill="none" stroke="#e6e6e6" stroke-width="0"/>
      <path id="Path_45620" data-name="Path 45620" d="M331.5,61V471.8" transform="translate(101.79 -61)" fill="none" stroke="#e6e6e6" stroke-width="0"/>
      <path id="Path_45621" data-name="Path 45621" d="M383.5,61V471.8" transform="translate(137.12 -61)" fill="none" stroke="#e6e6e6" stroke-width="0"/>
      <path id="Path_45622" data-name="Path 45622" d="M434.5,61V471.8" transform="translate(171.77 -61)" fill="none" stroke="#e6e6e6" stroke-width="0"/>
      <path id="Path_45623" data-name="Path 45623" d="M486.5,61V471.8" transform="translate(207.1 -61)" fill="none" stroke="#e6e6e6" stroke-width="0"/>
      <path id="Path_45624" data-name="Path 45624" d="M538.5,61V471.8" transform="translate(243.49 -61)" fill="none" stroke="#e6e6e6" stroke-width="0"/>
      <path id="Path_45625" data-name="Path 45625" d="M590.5,61V471.8" transform="translate(277.759 -61)" fill="none" stroke="#e6e6e6" stroke-width="0"/>
    </g>
    <g id="Group_48336" data-name="Group 48336" transform="translate(262.689 279.843)">
      <path id="Path_45626" data-name="Path 45626" d="M73,129.5H857.926" transform="translate(-73 -121.5)" fill="none" stroke="#e6e6e6" stroke-width="1"/>
      <path id="Path_45627" data-name="Path 45627" d="M73,198.5H857.926" transform="translate(-73 -90.028)" fill="none" stroke="#e6e6e6" stroke-width="1"/>
      <path id="Path_45628" data-name="Path 45628" d="M73,266.5H857.926" transform="translate(-73 -55.215)" fill="none" stroke="#e6e6e6" stroke-width="1"/>
      <path id="Path_45629" data-name="Path 45629" d="M73,335.5H856.934" transform="translate(-72.008 -33.743)" fill="none" stroke="#e6e6e6" stroke-width="1"/>
    </g>
    <g id="Group_48342" data-name="Group 48342" transform="translate(262.89 184)">
      <g id="Group_58430" data-name="Group 58430" transform="translate(0.327 11)">
        <g id="Group_48368" data-name="Group 48368" transform="translate(0)">
          <path id="Path_45633" data-name="Path 45633" d="M24.885,541.127V0H0V541.127C17.873,542.166,7.428,541.449,24.885,541.127Z" transform="translate(0 24.885) rotate(-90)" fill="#f1ad0f" stroke="#fff" stroke-width="1"/>
          <text id="_63_" data-name="63%" transform="translate(591.783 19.698)" fill="#333" font-size="18" font-family="Poppins-Regular, Poppins"><tspan x="-33.642" y="0">63%</tspan></text>
        </g>
        <g id="Group_48366" data-name="Group 48366" transform="translate(0 53.698) rotate(-90)">
          <path id="Path_45637" data-name="Path 45637" d="M24.885,341.02V0H0V341.02C20.1,341.634,6.3,341.634,24.885,341.02Z" transform="translate(1.951)" stroke="#fff" stroke-width="1"/>
          <text id="_34_" data-name="34%" transform="translate(6 392.783) rotate(90)" fill="#333" font-size="18" font-family="Poppins-Regular, Poppins"><tspan x="-33.624" y="0">34%</tspan></text>
        </g>
        <g id="Group_48367" data-name="Group 48367" transform="translate(0 80.836) rotate(-90)">
          <path id="Path_45641" data-name="Path 45641" d="M24.885,226.456V0H0V226.456C18.249,226.456,4.355,226.248,24.885,226.456Z" transform="translate(1.089)" fill="#727272" stroke="#fff" stroke-width="1"/>
          <text id="_22_" data-name="22%" transform="translate(6 274.783) rotate(90)" fill="#333" font-size="18" font-family="Poppins-Regular, Poppins"><tspan x="-32.274" y="0">22%</tspan></text>
        </g>
      </g>
      <g id="Group_58429" data-name="Group 58429" transform="translate(0.327 114.001)">
        <g id="Group_48369" data-name="Group 48369" transform="translate(-0.106)">
          <path id="Path_45633-2" data-name="Path 45633" d="M24.885,633.939V0H0V633.939C17.873,635.156,7.428,634.316,24.885,633.939Z" transform="translate(0 24.885) rotate(-90)" fill="#f1ad0f" stroke="#fff" stroke-width="1"/>
          <text id="_76_" data-name="76%" transform="translate(683.783 19.226)" fill="#333" font-size="18" font-family="Poppins-Regular, Poppins"><tspan x="-32.148" y="0">76%</tspan></text>
        </g>
        <g id="Group_48370" data-name="Group 48370" transform="translate(0 52.227) rotate(-90)">
          <path id="Path_45637-2" data-name="Path 45637" d="M24.885,475.219V0H0V475.219C20.1,476.075,6.3,476.075,24.885,475.219Z" transform="translate(0.479)" stroke="#fff" stroke-width="1"/>
          <text id="_54_" data-name="54%" transform="translate(6 525.783) rotate(90)" fill="#333" font-size="18" font-family="Poppins-Regular, Poppins"><tspan x="-34.11" y="0">54%</tspan></text>
        </g>
        <g id="Group_48371" data-name="Group 48371" transform="translate(0 80.227) rotate(-90)">
          <path id="Path_45641-2" data-name="Path 45641" d="M24.885,48.941V0H0V48.941C18.249,48.941,4.355,48.9,24.885,48.941Z" transform="translate(1.616)" fill="#727272" stroke="#fff" stroke-width="1"/>
          <text id="_3_" data-name="3%" transform="translate(6 87.783) rotate(90)" fill="#333" font-size="18" font-family="Poppins-Regular, Poppins"><tspan x="-22.464" y="0">3%</tspan></text>
        </g>
      </g>
      <g id="Group_58428" data-name="Group 58428" transform="translate(0.327 217)">
        <g id="Group_48372" data-name="Group 48372" transform="translate(0)">
          <path id="Path_45633-3" data-name="Path 45633" d="M24.885,584.5V0H0V584.5C17.873,585.625,7.428,584.85,24.885,584.5Z" transform="translate(0 24.885) rotate(-90)" fill="#f1ad0f" stroke="#fff" stroke-width="1"/>
          <text id="_86_" data-name="86%" transform="translate(636.331 19.754)" fill="#333" font-size="18" font-family="Poppins-Regular, Poppins"><tspan x="-34.29" y="0">86%</tspan></text>
        </g>
        <g id="Group_48373" data-name="Group 48373" transform="translate(0 52.754) rotate(-90)">
          <path id="Path_45637-3" data-name="Path 45637" d="M24.885,505.041V0H0V505.041C20.1,505.95,6.3,505.95,24.885,505.041Z" transform="translate(1.007)" stroke="#fff" stroke-width="1"/>
          <text id="_56_" data-name="56%" transform="translate(6 555.783) rotate(90)" fill="#333" font-size="18" font-family="Poppins-Regular, Poppins"><tspan x="-34.128" y="0">56%</tspan></text>
        </g>
        <g id="Group_48374" data-name="Group 48374" transform="translate(0 78.754) rotate(-90)">
          <path id="Path_45641-3" data-name="Path 45641" d="M24.885,138.528V0H0V138.528C18.249,138.528,4.355,138.4,24.885,138.528Z" transform="translate(0.145)" fill="#727272" stroke="#fff" stroke-width="1"/>
          <text id="_9_" data-name="9%" transform="translate(6 175.783) rotate(90)" fill="#333" font-size="18" font-family="Poppins-Regular, Poppins"><tspan x="-22.806" y="0">9%</tspan></text>
        </g>
      </g>
      <g id="Group_58431" data-name="Group 58431" transform="translate(0 318)">
        <g id="Group_48375" data-name="Group 48375" transform="translate(0.327)">
          <path id="Path_45633-4" data-name="Path 45633" d="M24.885,675.657V0H0V675.657C17.873,676.954,7.428,676.059,24.885,675.657Z" transform="translate(0 24.885) rotate(-90)" fill="#f1ad0f" stroke="#fff" stroke-width="1"/>
          <text id="_91_" data-name="91%" transform="translate(720.331 19.6)" fill="#333" font-size="18" font-family="Poppins-Regular, Poppins"><tspan x="-27.972" y="0">91%</tspan></text>
        </g>
        <g id="Group_48376" data-name="Group 48376" transform="translate(0 52.6) rotate(-90)">
          <path id="Path_45637-4" data-name="Path 45637" d="M24.885,552.286V0H0V552.286C20.1,553.28,6.3,553.28,24.885,552.286Z" transform="translate(0.853)" stroke="#fff" stroke-width="1"/>
          <text id="_79_" data-name="79%" transform="translate(6 600.128) rotate(90)" fill="#333" font-size="18" font-family="Poppins-Regular, Poppins"><tspan x="-31.914" y="0">79%</tspan></text>
        </g>
        <g id="Group_48377" data-name="Group 48377" transform="translate(0.327 79.6) rotate(-90)">
          <path id="Path_45641-4" data-name="Path 45641" d="M24.885,271.249V0H0V271.249C18.249,271.249,4.355,271,24.885,271.249Z" transform="translate(0.99)" fill="#727272" stroke="#fff" stroke-width="1"/>
          <text id="_32_" data-name="32%" transform="translate(6 319.783) rotate(90)" fill="#333" font-size="18" font-family="Poppins-Regular, Poppins"><tspan x="-32.67" y="0">32%</tspan></text>
        </g>
      </g>
    </g>
    <g id="Group_48365" data-name="Group 48365" transform="translate(128 214)">
      <text id="LATAM" transform="translate(86 21)" fill="#333" font-size="20" font-family="Poppins-Regular, Poppins"><tspan x="-62.64" y="0">LATAM</tspan></text>
      <text id="America" transform="translate(85 134)" fill="#333" font-size="20" font-family="Poppins-Regular, Poppins"><tspan x="-84.62" y="0">America</tspan></text>
      <text id="APAC" transform="translate(86 248)" fill="#333" font-size="20" font-family="Poppins-Regular, Poppins"><tspan x="-53.16" y="0">APAC</tspan></text>
      <text id="EU5" transform="translate(87 361)" fill="#333" font-size="20" font-family="Poppins-Regular, Poppins"><tspan x="-35.66" y="0">EU5</tspan></text>
    </g>
    <g id="Group_48363" data-name="Group 48363" transform="translate(943.287 166.5)">
      <g transform="matrix(1, 0, 0, 1, -815.29, -64.5)" filter="url(#Rectangle_26538)">
        <rect id="Rectangle_26538-2" data-name="Rectangle 26538" width="104.713" height="103.7" rx="7" transform="translate(815.29 64.5)" fill="#fff" stroke="#e3e3e3" stroke-width="1"/>
      </g>
      <g id="Component_440_3" data-name="Component 440 – 3" transform="translate(11.5 12.5)">
        <g id="Group_48361" data-name="Group 48361">
          <g id="Group_48358" data-name="Group 48358">
            <text id="Brand_A" data-name="Brand A" transform="translate(21.521 16)" fill="#333" font-size="15" font-family="Poppins-Regular, Poppins"><tspan x="0" y="0">Brand A</tspan></text>
            <rect id="Rectangle_26539" data-name="Rectangle 26539" width="12" height="12" rx="1" transform="translate(0 4.954)" fill="#f1ad0f"/>
          </g>
          <g id="Group_48359" data-name="Group 48359" transform="translate(0 29)">
            <text id="Brand_B" data-name="Brand B" transform="translate(21.521 16)" fill="#333" font-size="15" font-family="Poppins-Regular, Poppins"><tspan x="0" y="0">Brand B</tspan></text>
            <rect id="Rectangle_26540" data-name="Rectangle 26540" width="12" height="12" rx="1" transform="translate(0 4.954)"/>
          </g>
          <g id="Group_48360" data-name="Group 48360" transform="translate(0 59)">
            <text id="Brand_C" data-name="Brand C" transform="translate(21.521 16)" fill="#333" font-size="15" font-family="Poppins-Regular, Poppins"><tspan x="0" y="0">Brand C</tspan></text>
            <rect id="Rectangle_26541" data-name="Rectangle 26541" width="12" height="12" rx="1" transform="translate(0 4.954)" fill="#727272"/>
          </g>
        </g>
      </g>
    </g>
    <text id="Brand_Awareness_Measured_in_Target_Markets" data-name="Brand Awareness Measured in Target Markets" transform="translate(128 137)" font-size="33" font-family="Poppins-Bold, Poppins" font-weight="700"><tspan x="0" y="0">Brand Awareness Measured in Target Markets</tspan></text>
    <text id="Source:_E2EvBrand_Tracker_TM" data-name="Source: E2EvBrand Tracker TM" transform="translate(128 168)" fill="#666" font-size="22" font-family="Poppins-Regular, Poppins"><tspan x="0" y="0">Source: E2EvBrand Tracker </tspan><tspan y="0" font-size="12.833" baseline-shift="7.332599794233149">TM</tspan></text>
  </g>
</svg>
