<svg xmlns="http://www.w3.org/2000/svg" width="100%" height="100%" viewBox="0 0 34 34">
  <g id="facebook_fb_face_book" data-name="facebook fb face book" transform="translate(-3 -3)">
    <path id="Path_45891" data-name="Path 45891" d="M30.462,3H9.538A6.538,6.538,0,0,0,3,9.538V30.462A6.538,6.538,0,0,0,9.538,37H20a1.308,1.308,0,0,0,1.308-1.308V25.231A1.308,1.308,0,0,0,20,23.923H18.692V21.308H20A1.308,1.308,0,0,0,21.308,20V15.423a3.269,3.269,0,0,1,3.269-3.269h3.269v2.615H26.538a2.615,2.615,0,0,0-2.615,2.615V20a1.308,1.308,0,0,0,1.308,1.308H27.48l-.654,2.615h-1.6a1.308,1.308,0,0,0-1.308,1.308v5.231a1.308,1.308,0,1,0,2.615,0V26.538h1.308a1.308,1.308,0,0,0,1.308-.994l1.308-5.231a1.3,1.3,0,0,0-1.308-1.622H26.538V17.385h2.615a1.308,1.308,0,0,0,1.308-1.308V10.846a1.308,1.308,0,0,0-1.308-1.308H24.577a5.9,5.9,0,0,0-5.885,5.885v3.269H17.385A1.308,1.308,0,0,0,16.077,20v5.231a1.308,1.308,0,0,0,1.308,1.308h1.308v7.846H9.538a3.923,3.923,0,0,1-3.923-3.923V9.538A3.923,3.923,0,0,1,9.538,5.615H30.462a3.923,3.923,0,0,1,3.923,3.923V30.462a3.923,3.923,0,0,1-3.923,3.923H25.231a1.308,1.308,0,1,0,0,2.615h5.231A6.538,6.538,0,0,0,37,30.462V9.538A6.538,6.538,0,0,0,30.462,3Z" transform="translate(0)" fill="#fff"/>
  </g>
</svg>
