<svg xmlns="http://www.w3.org/2000/svg" width="100%" height="100%" viewBox="0 0 34 34">
  <g id="_7156610_linkedin_social_media_icon" data-name="7156610_linkedin_social_media_icon" transform="translate(-0.25 -0.25)">
    <path id="Path_45892" data-name="Path 45892" d="M25.006,34.25H9.494A9.254,9.254,0,0,1,.25,25.006V9.494A9.254,9.254,0,0,1,9.494.25H25.006A9.254,9.254,0,0,1,34.25,9.494V25.006A9.254,9.254,0,0,1,25.006,34.25ZM9.494,2.714a6.79,6.79,0,0,0-6.78,6.78V25.006a6.79,6.79,0,0,0,6.78,6.78H25.006a6.79,6.79,0,0,0,6.78-6.78V9.494a6.79,6.79,0,0,0-6.78-6.78Z" fill="#fff"/>
    <rect id="Rectangle_26694" data-name="Rectangle 26694" width="3.43" height="10.96" rx="1.71" transform="translate(8.603 14.511)" fill="#fff"/>
    <path id="Path_45893" data-name="Path 45893" d="M10.46,9.22a1.72,1.72,0,1,0,1.71,1.71A1.72,1.72,0,0,0,10.46,9.22Z" transform="translate(-0.137 -0.144)" fill="#fff"/>
    <path id="Path_45894" data-name="Path 45894" d="M20,17.16a2.17,2.17,0,0,1,1.95.4,3.59,3.59,0,0,1,.84,2.69v3.82a1.72,1.72,0,0,0,1.72,1.71h0a1.71,1.71,0,0,0,1.71-1.71v-5a5.9,5.9,0,0,0-.84-3l-.05-.06a4,4,0,0,0-3.19-1.51,3.84,3.84,0,0,0-3.47,1.7l-.46.67v-.4a1.71,1.71,0,0,0-1.71-1.71h0a1.71,1.71,0,0,0-1.71,1.71v7.54a1.71,1.71,0,0,0,1.71,1.71h0a1.7,1.7,0,0,0,1.71-1.71V19C18.88,17.3,20,17.17,20,17.16Z" transform="translate(-0.315 -0.307)" fill="#fff"/>
  </g>
</svg>
