<svg xmlns="http://www.w3.org/2000/svg" width="100%" height="100%" viewBox="0 0 34 34">
  <g id="noun-twitter-6755467" transform="translate(-3.504 -3.5)">
    <path id="Path_45896" data-name="Path 45896" d="M24.663,36.4a.548.548,0,0,1,0,1.1H7.28A3.789,3.789,0,0,1,3.5,33.723V7.279A3.768,3.768,0,0,1,4.612,4.611l.033-.03A3.768,3.768,0,0,1,7.281,3.5H8.824a.548.548,0,0,1,0,1.1H7.281A2.689,2.689,0,0,0,4.6,7.279V33.723A2.687,2.687,0,0,0,7.281,36.4H24.664ZM20.954,17.214l6.933-8.431a.548.548,0,0,1,.451-.237h3.089a.559.559,0,0,1,.347.127.546.546,0,0,1,.074.77L23.033,20.162,31.1,31.589a.548.548,0,0,1-.447.863h-4.2a.55.55,0,0,1-.467-.26l-5.934-8.407-6.933,8.43a.548.548,0,0,1-.451.237H9.581a.559.559,0,0,1-.347-.127.546.546,0,0,1-.074-.77l8.816-10.718L9.908,9.41a.548.548,0,0,1,.447-.863h4.2a.55.55,0,0,1,.467.26l5.935,8.409ZM16.344,4.6a.548.548,0,1,1,0-1.1H33.725a3.774,3.774,0,0,1,2.669,1.108l.03.033A3.768,3.768,0,0,1,37.5,7.277V33.721A3.791,3.791,0,0,1,33.725,37.5H32.184a.548.548,0,0,1,0-1.1h1.541a2.687,2.687,0,0,0,2.682-2.681V7.279A2.689,2.689,0,0,0,33.727,4.6H16.345Z" transform="translate(0)" fill="#fff"/>
  </g>
</svg>
