<svg xmlns="http://www.w3.org/2000/svg" width="100%" height="100%" viewBox="0 0 198.773 57.711">
  <g id="SLM_Dark_Logo" transform="translate(-64.381 -1551.193)">
    <g id="Group_1477" data-name="Group 1477" transform="translate(119.246 1553.067)">
      <g id="Group_1476" data-name="Group 1476" transform="translate(0 0)">
        <g id="Group_1475" data-name="Group 1475">
          <g id="Group_1474" data-name="Group 1474">
            <g id="Group_1473" data-name="Group 1473">
              <path id="SLM" d="M12.245,2.976A15.111,15.111,0,0,1,7.4.852,17.4,17.4,0,0,1,3.5-2.686,15.741,15.741,0,0,1,.92-7.287,15.715,15.715,0,0,1,0-12.666,15.571,15.571,0,0,1,1.274-18.93a16.734,16.734,0,0,1,3.433-5.131A16,16,0,0,1,9.8-27.53,15.571,15.571,0,0,1,16.067-28.8a26.492,26.492,0,0,1,8.883,1.486,26.22,26.22,0,0,1,7.609,4.176l-7.715,7.715a16.536,16.536,0,0,0-4.07-1.911,15.464,15.464,0,0,0-4.707-.708,5.2,5.2,0,0,0-3.822,1.557,5.2,5.2,0,0,0-1.557,3.822A5.532,5.532,0,0,0,11.962-9.2a5.9,5.9,0,0,0,3.185,1.84,26.725,26.725,0,0,0,3.964.566,17.671,17.671,0,0,1,6.122,1.345,15.474,15.474,0,0,1,4.919,3.22,14.952,14.952,0,0,1,3.256,4.813,15.507,15.507,0,0,1,1.2,6.193,15.571,15.571,0,0,1-1.274,6.264,16.05,16.05,0,0,1-8.529,8.529,15.571,15.571,0,0,1-6.264,1.274A26.164,26.164,0,0,1,8.352,22.865,26.915,26.915,0,0,1,0,17.415L7.573,9.841a16.077,16.077,0,0,0,4.99,3.185,15.778,15.778,0,0,0,5.981,1.132A5.113,5.113,0,0,0,22.3,12.6,5.2,5.2,0,0,0,23.853,8.78a5.77,5.77,0,0,0-.5-2.336,3.694,3.694,0,0,0-1.628-1.769,7.4,7.4,0,0,0-2.194-.814,20.869,20.869,0,0,0-2.477-.354L14.51,3.294A18.052,18.052,0,0,1,12.245,2.976Zm34.4,21.871V-28.8H57.331V14.088H76.866V24.847Zm75.238,0H110.345L99.586-1.979V24.847H88.9V-28.8h11.537l15.713,39.212L131.791-28.8h11.537V24.847H132.64V-1.979Z" transform="translate(0 28.804)" fill="#617482" stroke="#617482" stroke-width="1.16"/>
            </g>
          </g>
        </g>
      </g>
    </g>
    <g id="Group_1479" data-name="Group 1479" transform="translate(64.381 1551.193)">
      <g id="Group_1478" data-name="Group 1478" transform="translate(13.489 0)">
        <path id="Path_1302" data-name="Path 1302" d="M99.093,1572.872a2.542,2.542,0,1,1-2.542-2.542,2.542,2.542,0,0,1,2.542,2.542Z" transform="translate(-94.008 -1570.33)" fill="#617482"/>
        <rect id="Rectangle_1420" data-name="Rectangle 1420" width="23.689" height="4.431" transform="translate(8.771 0.326)" fill="#617482"/>
        <circle id="Ellipse_37" data-name="Ellipse 37" cx="2.542" cy="2.542" r="2.542" transform="translate(0 15.32)" fill="#617482"/>
        <path id="Path_1303" data-name="Path 1303" d="M128.728,1609.126h-15.46V1604.7H132.08" transform="translate(-104.506 -1589.049)" fill="#617482"/>
        <path id="Path_1304" data-name="Path 1304" d="M99.093,1589.763a2.542,2.542,0,1,1-2.542-2.542A2.542,2.542,0,0,1,99.093,1589.763Z" transform="translate(-94.008 -1579.531)" fill="#617482"/>
        <path id="Path_1305" data-name="Path 1305" d="M132.724,1592.369H113.273v-4.431H136.96" transform="translate(-104.502 -1579.921)" fill="#617482"/>
      </g>
      <path id="Path_1306" data-name="Path 1306" d="M64.381,1625.384l29.651,25.509,19.241-28.945-.7-9.669L94.531,1636.4l-23.692-12.785" transform="translate(-64.381 -1593.182)" fill="#f05b5b"/>
    </g>
  </g>
</svg>
