<svg xmlns="http://www.w3.org/2000/svg" width="100%" height="100%" viewBox="0 0 55.291 65.116">
  <g id="noun-access-control-7120888" transform="translate(-7.968 -0.5)">
    <path id="Path_44889" data-name="Path 44889" d="M18.4,17.411H14.369V13a12.493,12.493,0,0,1,24.986-.005v4.414H35.324V12.992a8.458,8.458,0,0,0-16.916,0v4.419ZM39.573,32.729a12.9,12.9,0,0,1,6.151-11,2.631,2.631,0,0,0-2.592-2.222l-32.532,0a2.638,2.638,0,0,0-2.631,2.623V43.32A2.633,2.633,0,0,0,10.6,45.943h3.176l-.262-.455a4.16,4.16,0,0,1,1.518-5.67l.051-.033.051-.026a4.216,4.216,0,0,1,4.671.493l0-10.041a4.149,4.149,0,1,1,8.3,0v1.21a4.158,4.158,0,0,1,3.769,2.526c.092-.008.185-.008.283-.008a4.159,4.159,0,0,1,3.466,1.868,4.048,4.048,0,0,1,.637-.051A4.152,4.152,0,0,1,40.411,39.9v6.033h2.7a2.633,2.633,0,0,0,2.592-2.222,12.894,12.894,0,0,1-6.133-10.986ZM21.914,57.808v.051H37l.771-1.868a6.977,6.977,0,0,0,.552-2.808l0-13.278a2.053,2.053,0,1,0-4.106,0V38.089a2.053,2.053,0,0,0-4.106,0V35.571a2.053,2.053,0,0,0-4.106,0v-5.36a2.053,2.053,0,0,0-4.106,0V47.628l-3.027-5.241a2.052,2.052,0,0,0-3.553,2.053l5.591,9.688a6.915,6.915,0,0,1,1,3.679ZM38.1,59.959H19.945a.561.561,0,0,0-.56.565v4.532a.56.56,0,0,0,.56.56h18.16a.56.56,0,0,0,.56-.56V60.524a.572.572,0,0,0-.565-.565ZM63.259,32.73A10.8,10.8,0,1,1,52.465,21.936,10.814,10.814,0,0,1,63.259,32.73Zm-5.105-3.7a1.056,1.056,0,0,0-1.488,0L51.5,34.192l-3.242-3.242a1.049,1.049,0,0,0-1.488,1.48l3.985,3.985a1.056,1.056,0,0,0,1.488,0l5.907-5.907a1.044,1.044,0,0,0,0-1.48Z"/>
  </g>
</svg>
