<svg xmlns="http://www.w3.org/2000/svg" width="100%" height="100%" viewBox="0 0 66.556 47.095">
  <g id="noun-automated-reporting-7188299" transform="translate(-3.383 -17.015)">
    <path id="Path_44888" data-name="Path 44888" d="M36.377,57.809l2.15,4.4h8.338a.951.951,0,1,1,0,1.9H13.935a.951.951,0,1,1,0-1.9h8.148l2.15-4.4Zm20.85,5.348H58.3a1.22,1.22,0,0,0,1.219-1.219V60.321a1.2,1.2,0,0,1,.05-.349,9.814,9.814,0,0,0,2.741-1.135,1.265,1.265,0,0,1,.282.212l1.143,1.143a1.222,1.222,0,0,0,1.723,0l1.517-1.517a1.222,1.222,0,0,0,0-1.723l-1.143-1.143a1.265,1.265,0,0,1-.212-.282,9.731,9.731,0,0,0,1.135-2.741,1.316,1.316,0,0,1,.349-.05h1.617a1.22,1.22,0,0,0,1.219-1.219V49.371a1.22,1.22,0,0,0-1.219-1.219H67.1a1.2,1.2,0,0,1-.349-.05,9.814,9.814,0,0,0-1.135-2.741,1.265,1.265,0,0,1,.212-.282l1.143-1.143a1.222,1.222,0,0,0,0-1.723L65.458,40.7a1.222,1.222,0,0,0-1.723,0l-1.143,1.143a1.265,1.265,0,0,1-.282.212,9.731,9.731,0,0,0-2.741-1.135,1.316,1.316,0,0,1-.05-.349V38.95A1.22,1.22,0,0,0,58.3,37.732H56.153a1.22,1.22,0,0,0-1.219,1.219v1.617a1.2,1.2,0,0,1-.05.349,9.814,9.814,0,0,0-2.741,1.135,1.265,1.265,0,0,1-.282-.212L50.718,40.7a1.222,1.222,0,0,0-1.723,0l-1.517,1.517a1.222,1.222,0,0,0,0,1.723l1.143,1.143a1.265,1.265,0,0,1,.212.282A9.731,9.731,0,0,0,47.7,48.1a1.316,1.316,0,0,1-.349.05H45.733a1.22,1.22,0,0,0-1.219,1.219v2.147a1.22,1.22,0,0,0,1.219,1.219H47.35a1.211,1.211,0,0,1,.349.05,9.814,9.814,0,0,0,1.135,2.741,1.265,1.265,0,0,1-.212.282l-1.143,1.143a1.222,1.222,0,0,0,0,1.723l1.517,1.517a1.222,1.222,0,0,0,1.723,0l1.143-1.143a1.265,1.265,0,0,1,.282-.212,9.731,9.731,0,0,0,2.741,1.135,1.316,1.316,0,0,1,.05.349v1.617a1.22,1.22,0,0,0,1.219,1.219Zm0-17.4a4.684,4.684,0,1,1-3.313,1.372,4.67,4.67,0,0,1,3.313-1.372Zm-4.66.028a6.584,6.584,0,1,1-1.93,4.657A6.569,6.569,0,0,1,52.567,45.787ZM8.138,17.015H52.472a4.768,4.768,0,0,1,4.754,4.754V35.832H56.153a3.124,3.124,0,0,0-3.12,3.12v.558c-.2.075-.385.153-.574.24l-.243-.243,0-9.893a1.98,1.98,0,0,0-1.974-1.974H48.574A1.98,1.98,0,0,0,46.6,29.614V40.4l-.468.468-.106.109,0-8.318a1.924,1.924,0,0,0-.572-1.369l-.006-.006a1.939,1.939,0,0,0-1.366-.566H42.361a1.924,1.924,0,0,0-1.369.572l-.006.006a1.936,1.936,0,0,0-.569,1.366V44.028a1.924,1.924,0,0,0,.572,1.369l.006.006a1.936,1.936,0,0,0,1.366.569h1.723a1.924,1.924,0,0,0,1.369-.572l.006-.006a1.944,1.944,0,0,0,.351-.485,3.087,3.087,0,0,0,.318.374l.4.4c-.084.19-.165.382-.24.574h-.558a3.114,3.114,0,0,0-2.454,1.2l-39.89,0V21.767a4.767,4.767,0,0,1,4.754-4.752ZM22.708,43.64H10.424a.951.951,0,0,0,0,1.9H22.708a.951.951,0,1,0,0-1.9Zm0-3.764H10.424a.951.951,0,0,0,0,1.9H22.708a.951.951,0,1,0,0-1.9ZM16.565,21.555a8.169,8.169,0,1,0,5.775,2.393,8.141,8.141,0,0,0-5.775-2.393ZM21,25.292a6.255,6.255,0,0,0-3.48-1.765v5.245h5.245A6.264,6.264,0,0,0,21,25.292Zm-5.382-1.762A6.27,6.27,0,0,0,11.54,33.47l4.074-4.133ZM12.889,34.8a6.269,6.269,0,0,0,9.871-4.124h-5.8Zm16.2-.848a31.53,31.53,0,0,0,11.988-3.7,34.481,34.481,0,0,0,9.886-8.3.946.946,0,0,0-1.009-1.509v0l-4.824,1.509a.949.949,0,0,0,.563,1.813l1.478-.463a31.212,31.212,0,0,1-7.008,5.293A29.6,29.6,0,0,1,28.9,32.068a.948.948,0,1,0,.2,1.885Zm21.218,4.52a3.15,3.15,0,0,0-1.81.273V29.614a.076.076,0,0,1,.073-.073h1.665a.077.077,0,0,1,.072.073Zm-7.95,5.594h1.723a.045.045,0,0,0,.031-.008l0,0a.045.045,0,0,0,.008-.031V32.659a.045.045,0,0,0-.008-.031l0,0a.045.045,0,0,0-.031-.008H42.361a.045.045,0,0,0-.031.008l0,0a.045.045,0,0,0-.008.031V44.025a.045.045,0,0,0,.008.031l0,0A.045.045,0,0,0,42.361,44.067Zm-6.165,0h1.681a.055.055,0,0,0,.045-.017l0,0A.066.066,0,0,0,37.941,44V36.136a.067.067,0,0,0-.064-.064H36.2a.055.055,0,0,0-.045.017l0,0a.066.066,0,0,0-.017.045V44a.055.055,0,0,0,.017.045l0,0A.059.059,0,0,0,36.2,44.067Zm1.681,1.9a1.957,1.957,0,0,0,1.386-.577l.006-.006A1.964,1.964,0,0,0,39.843,44V36.136a1.971,1.971,0,0,0-1.966-1.966H36.2a1.957,1.957,0,0,0-1.386.577l-.006.006a1.964,1.964,0,0,0-.574,1.383V44a1.957,1.957,0,0,0,.577,1.386l.006.006a1.964,1.964,0,0,0,1.383.574Zm-7.838-1.9h1.626a.1.1,0,0,0,.092-.092v-4.5a.1.1,0,0,0-.092-.092H30.039a.1.1,0,0,0-.092.092v4.5a.091.091,0,0,0,.028.064.115.115,0,0,0,.064.025Zm1.626,1.9a2,2,0,0,0,1.994-1.994v-4.5a2,2,0,0,0-1.994-1.994H30.039a2,2,0,0,0-1.994,1.994v4.5a2,2,0,0,0,1.994,1.994Zm-25,9.936a3.288,3.288,0,0,1-3.279-3.279V49.345H42.613v2.172a3.124,3.124,0,0,0,3.12,3.12h.558c.075.2.153.385.24.574l-.4.4a3.29,3.29,0,0,0-.262.3H6.663ZM27.8,53.578h5.005a.951.951,0,0,0,0-1.9H27.8a.951.951,0,1,0,0,1.9Z" fill-rule="evenodd"/>
  </g>
</svg>
