<svg xmlns="http://www.w3.org/2000/svg" width="100%" height="100%" viewBox="0 0 77.303 56.716">
  <g id="noun-data-access-6353514" transform="translate(-1 -13.383)">
    <path id="Path_44883" data-name="Path 44883" d="M41.423,19.561a.685.685,0,1,1,.685.684.685.685,0,0,1-.685-.684ZM1,41.142v-8a2.186,2.186,0,0,1,2.18-2.179H49.044a2.186,2.186,0,0,1,2.18,2.179v2.909a9.994,9.994,0,0,0-5.153-1.436,10.159,10.159,0,0,0-1.9.18,2.845,2.845,0,0,0-4.457,2.093A9.952,9.952,0,0,0,37.5,39.456h-.051A13.038,13.038,0,0,0,28.21,43.32H3.18A2.187,2.187,0,0,1,1,41.142Zm31.39-4a1.081,1.081,0,0,0,1.081,1.081H35.32a1.081,1.081,0,1,0,0-2.161H33.473a1.081,1.081,0,0,0-1.082,1.081Zm-17.948,0a1.081,1.081,0,0,0,1.081,1.081H30.194a1.081,1.081,0,1,0,0-2.161H15.524a1.081,1.081,0,0,0-1.082,1.081Zm-7.612-1.5a1.081,1.081,0,0,0,1.081,1.081h2.208a1.081,1.081,0,1,0,0-2.161H7.912A1.081,1.081,0,0,0,6.83,35.641Zm0,3.006a1.081,1.081,0,0,0,1.081,1.081h2.208a1.081,1.081,0,1,0,0-2.161H7.912A1.081,1.081,0,0,0,6.83,38.647Zm11.015,7.739v-.9H6.585v.9ZM15.524,55.81h2.037a10.307,10.307,0,0,0-1.931,5.1H3.18A2.186,2.186,0,0,1,1,58.726v-8a2.187,2.187,0,0,1,2.18-2.18H25.048a13.092,13.092,0,0,0-.582,3.083,10.324,10.324,0,0,0-4.781,2.012H15.529a1.081,1.081,0,1,0,0,2.161Zm-4.322.421a1.081,1.081,0,0,0-1.081-1.081H7.912a1.081,1.081,0,1,0,0,2.161H10.12A1.081,1.081,0,0,0,11.2,56.232Zm0-3.007a1.081,1.081,0,0,0-1.081-1.081H7.912a1.081,1.081,0,1,0,0,2.161H10.12A1.081,1.081,0,0,0,11.2,53.224ZM17.845,28.8v-.9H6.585v.9ZM1,23.558V15.563a2.186,2.186,0,0,1,2.18-2.18H49.044a2.186,2.186,0,0,1,2.18,2.18v7.995a2.186,2.186,0,0,1-2.18,2.18H3.18A2.186,2.186,0,0,1,1,23.558Zm38.259-4a2.849,2.849,0,1,0,2.849-2.849A2.849,2.849,0,0,0,39.259,19.561Zm-7.307,0a1.081,1.081,0,0,0,1.081,1.081h1.85a1.081,1.081,0,1,0,0-2.161H33.034a1.081,1.081,0,0,0-1.082,1.081ZM14,19.561a1.081,1.081,0,0,0,1.081,1.081H29.76a1.081,1.081,0,0,0,0-2.161H15.086A1.081,1.081,0,0,0,14,19.561Zm-7.612-1.5a1.081,1.081,0,0,0,1.081,1.081H9.679a1.081,1.081,0,1,0,0-2.161H7.474a1.081,1.081,0,0,0-1.082,1.081Zm0,3.007a1.081,1.081,0,0,0,1.081,1.081H9.679a1.081,1.081,0,0,0,0-2.161H7.474a1.081,1.081,0,0,0-1.082,1.081ZM45.641,28.8v-.9H34.38v.9ZM67.225,59.826A13.234,13.234,0,0,1,55.943,39.658a11.5,11.5,0,0,0-3.047,1.12,7.836,7.836,0,0,0-14.1.927A10.876,10.876,0,0,0,26.658,53.691h-.711a8.2,8.2,0,1,0,0,16.408h40.7A9.181,9.181,0,0,0,75.8,60.942a9.06,9.06,0,0,0-.774-3.67,13.166,13.166,0,0,1-7.8,2.553ZM71.16,47.352a1.094,1.094,0,1,0-1.094-1.093,1.094,1.094,0,0,0,1.094,1.093Zm-15.012-.768A11.077,11.077,0,1,1,67.225,57.66,11.078,11.078,0,0,1,56.148,46.584Zm3.883-.325a1.081,1.081,0,0,0,.748,1.028v1.8a1.081,1.081,0,1,0,2.161,0V47.339h.442v.919a1.081,1.081,0,0,0,2.161,0v-.918h2.542a3.258,3.258,0,1,0,0-2.161H61.113a1.081,1.081,0,0,0-1.082,1.079Z"/>
  </g>
</svg>
