<svg xmlns="http://www.w3.org/2000/svg" width="100%" height="100%" viewBox="0 0 66.376 66.376">
  <g id="noun-human-centric-6561641" transform="translate(-28.961 -478.77)">
    <g id="Group_47258" data-name="Group 47258" transform="translate(28.961 478.77)">
      <path id="Path_44885" data-name="Path 44885" d="M1307.41,1310.634h3.128a1.417,1.417,0,0,1,1.211-.711,1.438,1.438,0,1,1,0,2.876,1.418,1.418,0,0,1-1.211-.711h-3.128v2.41h4.3a.726.726,0,0,1,.727.727v1.867a1.414,1.414,0,0,1,.709,1.208,1.435,1.435,0,1,1-2.87,0,1.414,1.414,0,0,1,.707-1.207v-1.14h-3.57v3.975h12.517v-4.2h-1.636l-.917,1.375a1.437,1.437,0,1,1-2.491-.2,1.446,1.446,0,0,1,.926-.615,1.4,1.4,0,0,1,.359,0l1.13-1.694a.727.727,0,0,1,.605-.324h2.025v-.719H1317.9a.729.729,0,0,1-.605-.324l-1.137-1.7c-.024,0-.047.01-.07.01a1.423,1.423,0,0,1-.8-2.6h0a1.384,1.384,0,0,1,2.063,1.765l.935,1.4h1.636v-4.691H1307.41Z" transform="translate(-1280.481 -1280.481)"/>
      <path id="Path_44886" data-name="Path 44886" d="M1231.925,1230.057v-14.9a1.871,1.871,0,0,0-1.869-1.87h-14.9a1.871,1.871,0,0,0-1.869,1.87v14.9a1.87,1.87,0,0,0,1.869,1.869h14.9A1.871,1.871,0,0,0,1231.925,1230.057Zm-16.3.264a.727.727,0,0,1-.727-.727v-13.972a.727.727,0,0,1,.727-.727h13.972a.727.727,0,0,1,.727.727v13.972a.727.727,0,0,1-.727.727Z" transform="translate(-1189.419 -1189.419)"/>
      <path id="Path_44887" data-name="Path 44887" d="M544.255,506.515h-4.59a2.343,2.343,0,0,1-2.255-1.723A26.272,26.272,0,0,0,535,499.1a2.371,2.371,0,0,1,.361-2.845l3.282-3.282a.892.892,0,0,0,0-1.261l-6.438-6.436a.911.911,0,0,0-1.261,0l-3.354,3.354a2.334,2.334,0,0,1-2.809.373,26.3,26.3,0,0,0-5.644-2.325,2.335,2.335,0,0,1-1.737-2.253v-4.76a.893.893,0,0,0-.892-.891h-9.1a.893.893,0,0,0-.892.891v4.76a2.335,2.335,0,0,1-1.735,2.253A26.309,26.309,0,0,0,499.134,489a2.334,2.334,0,0,1-2.81-.373l-3.353-3.353a.911.911,0,0,0-1.261,0l-6.438,6.436a.892.892,0,0,0,0,1.261l3.282,3.282a2.371,2.371,0,0,1,.361,2.844,26.28,26.28,0,0,0-2.407,5.7,2.344,2.344,0,0,1-2.255,1.723h-4.59a.893.893,0,0,0-.892.892v9.1a.893.893,0,0,0,.892.892h4.448a2.37,2.37,0,0,1,2.265,1.759,26.313,26.313,0,0,0,2.386,5.85,2.342,2.342,0,0,1-.373,2.819l-3.116,3.116a.892.892,0,0,0,0,1.261l6.438,6.438a.9.9,0,0,0,1.261,0l3.048-3.049a2.334,2.334,0,0,1,1.652-.676,2.4,2.4,0,0,1,1.191.317,26.244,26.244,0,0,0,5.911,2.472,2.344,2.344,0,0,1,1.743,2.261v4.285a.893.893,0,0,0,.892.892h9.1a.893.893,0,0,0,.892-.892V539.97a2.345,2.345,0,0,1,1.741-2.261,26.207,26.207,0,0,0,5.911-2.472,2.376,2.376,0,0,1,2.845.358l3.048,3.051a.9.9,0,0,0,1.261,0l6.438-6.438a.892.892,0,0,0,0-1.261l-3.116-3.116a2.344,2.344,0,0,1-.373-2.82,26.279,26.279,0,0,0,2.386-5.848,2.37,2.37,0,0,1,2.265-1.759h4.448a.893.893,0,0,0,.892-.892v-9.1A.892.892,0,0,0,544.255,506.515Zm-13.1.3a1.437,1.437,0,0,1,0,2.874,1.417,1.417,0,0,1-1.211-.71h-6.047a.727.727,0,1,1,0-1.454h6.047A1.417,1.417,0,0,1,531.152,506.813Zm-3.376,5.145a.727.727,0,0,1-.727.727h-3.154a.727.727,0,0,1,0-1.454h3.154A.726.726,0,0,1,527.776,511.958Zm-8.691-15.25a.727.727,0,1,1,1.454,0v1.835a8.753,8.753,0,0,1,5.167,5.243c0,.009,0,.019,0,.028h1.34a.727.727,0,1,1,0,1.454h-3.154a.727.727,0,1,1,0-1.454h.257a7.61,7.61,0,0,0-3.656-3.739.718.718,0,0,1-.684.513.727.727,0,0,1-.727-.727v-3.154Zm-2.981-5.515a1.413,1.413,0,0,1,1.412,1.412,1.392,1.392,0,0,1-.684,1.181v6.076a.727.727,0,1,1-1.454,0v-6.076a1.392,1.392,0,0,1-.685-1.181A1.413,1.413,0,0,1,516.1,491.193Zm-4.435,5.515a.727.727,0,0,1,1.454,0v3.154a.727.727,0,0,1-1.454,0Zm-2.981-5.529a1.427,1.427,0,0,1,1.426,1.426,1.406,1.406,0,0,1-.7,1.2v6.059a.727.727,0,1,1-1.454,0V493.8a1.407,1.407,0,0,1-.7-1.2A1.426,1.426,0,0,1,508.688,491.179Zm-11.82,12.635h1.448a9.928,9.928,0,0,1,5.876-5.39c.02-.007.04,0,.06-.007v-1.709a.727.727,0,0,1,1.454,0v3.154a.726.726,0,0,1-.727.727.719.719,0,0,1-.708-.634,8.689,8.689,0,0,0-4.4,3.859h.147a.727.727,0,1,1,0,1.454h-3.154a.727.727,0,0,1,0-1.454Zm-4.1,3.061a1.353,1.353,0,0,1,1.137.648h6.12a.727.727,0,1,1,0,1.454H493.9a1.353,1.353,0,0,1-1.136.647,1.374,1.374,0,0,1,0-2.749Zm7.984,5.083a.727.727,0,0,1-.727.727h-3.154a.727.727,0,0,1,0-1.454h3.154A.726.726,0,0,1,500.749,511.958Zm-6.772,4.435a1.418,1.418,0,0,1-1.212.711,1.438,1.438,0,0,1,0-2.876,1.418,1.418,0,0,1,1.212.71h6.045a.727.727,0,1,1,0,1.454h-6.045Zm11.728,10.815a.727.727,0,1,1-1.454,0v-1.037c-2.622-.745-5.188-3.927-5.79-6.07h-1.594a.727.727,0,1,1,0-1.454h3.154a.727.727,0,0,1,0,1.454h-.041a9.285,9.285,0,0,0,4.27,4.556v-.6a.727.727,0,0,1,1.454,0Zm2.982,5.464a1.362,1.362,0,0,1-1.36-1.36,1.337,1.337,0,0,1,.633-1.119v-6.137a.727.727,0,1,1,1.454,0v6.137a1.337,1.337,0,0,1,.632,1.118A1.361,1.361,0,0,1,508.688,532.672Zm4.435-5.464a.727.727,0,0,1-1.454,0v-3.153a.727.727,0,0,1,1.454,0Zm2.981,5.482a1.381,1.381,0,0,1-1.379-1.379,1.356,1.356,0,0,1,.652-1.14v-6.115a.727.727,0,0,1,1.454,0v6.115a1.356,1.356,0,0,1,.65,1.14A1.38,1.38,0,0,1,516.1,532.69Zm-11.594-9.96a3.328,3.328,0,0,1-3.323-3.323v-14.9a3.328,3.328,0,0,1,3.323-3.324h14.9a3.328,3.328,0,0,1,3.323,3.324v14.9a3.328,3.328,0,0,1-3.323,3.323Zm22.54-2.629h-1.357a.64.64,0,0,1-.016.068,9.16,9.16,0,0,1-5,5.05.668.668,0,0,1-.134.026v1.962a.727.727,0,1,1-1.454,0v-3.153a.727.727,0,0,1,.727-.727.717.717,0,0,1,.627.38,7.648,7.648,0,0,0,3.625-3.606h-.169a.727.727,0,1,1,0-1.454h3.154a.727.727,0,1,1,0,1.454Zm4.1-2.988a1.427,1.427,0,0,1-1.222-.72h-6.035a.727.727,0,0,1,0-1.454h6.035a1.428,1.428,0,0,1,1.222-.719,1.446,1.446,0,0,1,0,2.893Z" transform="translate(-478.77 -478.77)"/>
    </g>
  </g>
</svg>
