<svg xmlns="http://www.w3.org/2000/svg" width="100%" height="100%" viewBox="0 0 63.354 59.667">
  <g id="noun-scripting-7023768" transform="translate(-3.241 -5.96)">
    <path id="Path_44849" data-name="Path 44849" d="M36.628,53.6a.674.674,0,0,1,0-1.347H56.09a.674.674,0,0,1,0,1.347Zm0,4.269a.674.674,0,0,1,0-1.347H56.09a.674.674,0,0,1,0,1.347Zm0,4.269a.674.674,0,0,1,0-1.347H56.09a.674.674,0,0,1,0,1.347ZM18.517,39.482a6.57,6.57,0,1,1-.063-.008.231.231,0,0,1,.064.008ZM28.16,27.655a.673.673,0,0,1-.81,1.074l-5.817-4.385a.672.672,0,0,1-.005-1.069L27.3,18.046a.671.671,0,1,1,.9,1l-5.213,4.718Zm14.616,1.074a.673.673,0,0,1-.81-1.074l5.168-3.9-5.213-4.718a.671.671,0,0,1,.9-1l5.9,5.356a.672.672,0,0,1-.132.942ZM37.461,16.845a.671.671,0,0,1,1.209.58l-6.01,12.518a.671.671,0,0,1-1.209-.58Zm23.717-1.556c1.559.635,2.506,1.667,2.543,3a6.064,6.064,0,0,1-.95,2.937l-1.593,2.927V59.65H66.6V5.96H25.167v4.628H60.506a.674.674,0,0,1,.675.675ZM48.3,44.647c-.929.855-3.025,2.533-4.314,3.6.2-1.662.468-4.335.68-5.579Zm-4.663-3.274.013-.024L56.462,17.794c.767-1.408,1.731-2.8,3.369-2.8V11.935H18.4V30.277h1.564a.674.674,0,0,1,.646.484L21.6,34.18a12.288,12.288,0,0,1,1.739.722l3.117-1.72a.671.671,0,0,1,.8.114l3.215,3.215a.671.671,0,0,1,.093.836l-1.7,3.08a12.289,12.289,0,0,1,.722,1.739L33,43.154a.672.672,0,0,1,.484.646h0v4.546a.673.673,0,0,1-.543.662l-3.361.971a12.288,12.288,0,0,1-.722,1.739l1.72,3.117a.671.671,0,0,1-.114.8L27.255,58.85a.671.671,0,0,1-.836.093l-3.083-1.7a12.289,12.289,0,0,1-1.739.722l-.987,3.419a.671.671,0,0,1-.667.484H18.389l.005,3.76H59.828l0-38.992L49.955,44.784A27.842,27.842,0,0,1,46.041,48.3c-1.059.865-2.046,1.673-2.477,2.085a.674.674,0,0,1-1.156-.585c.326-1.654.736-7.441,1.225-8.426ZM61.27,21.179,57.319,19.03,45.146,41.4,49.1,43.554Zm-3.3-3.324c.884-1.458,1.654-1.921,3.146-1.109,1.6.871,1.453,1.852.778,3.244ZM17.786,31.621h-1.86l-.939,3.25a.666.666,0,0,1-.466.49,11.429,11.429,0,0,0-2.125.876.672.672,0,0,1-.68.019L8.725,34.6l-2.5,2.5L7.875,40.1h0a.676.676,0,0,1,0,.643A11.113,11.113,0,0,0,6.981,42.9a.676.676,0,0,1-.458.455L3.241,44.3v3.536l3.25.939a.666.666,0,0,1,.49.466,11.428,11.428,0,0,0,.876,2.125.672.672,0,0,1,.019.68l-1.651,2.99,2.5,2.5,2.99-1.651v0a.676.676,0,0,1,.643,0,11.113,11.113,0,0,0,2.162.894.676.676,0,0,1,.455.458l.947,3.282h3.536l.939-3.25a.667.667,0,0,1,.463-.49,11.429,11.429,0,0,0,2.125-.876.672.672,0,0,1,.68-.019l2.99,1.651,2.5-2.5-1.651-2.99a.669.669,0,0,1,0-.643,11.28,11.28,0,0,0,.894-2.162.671.671,0,0,1,.458-.455l3.279-.947.008-3.536L28.9,43.369a.666.666,0,0,1-.49-.466,11.429,11.429,0,0,0-.876-2.125.672.672,0,0,1-.019-.68l1.651-2.99-2.5-2.5-2.99,1.651v0a.676.676,0,0,1-.643,0,11.113,11.113,0,0,0-2.162-.894.676.676,0,0,1-.455-.458l-.947-3.282Z" fill-rule="evenodd"/>
  </g>
</svg>
