<svg id="noun-statistics-3076852" xmlns="http://www.w3.org/2000/svg" width="100%" height="100%" viewBox="0 0 66.271 66.271">
  <path id="Path_44884" data-name="Path 44884" d="M303.8,776h50.678a7.8,7.8,0,0,1,7.8,7.8v50.678a7.8,7.8,0,0,1-7.8,7.8H303.8a7.8,7.8,0,0,1-7.8-7.8V783.8A7.8,7.8,0,0,1,303.8,776Zm10.72,34.11a11.695,11.695,0,1,0-11.695-11.695A11.7,11.7,0,0,0,314.517,810.11ZM325.7,822.419l4.8,6.4a1.949,1.949,0,0,0,2.619.467l16.568-10.72a1.949,1.949,0,0,0-2.119-3.273l-15.041,9.732-4.756-6.342a1.949,1.949,0,0,0-2.548-.511l-16.568,9.746a1.949,1.949,0,1,0,1.976,3.36Zm25.853-31.8H334.009a1.949,1.949,0,1,0,0,3.9h17.542a1.949,1.949,0,0,0,0-3.9Zm0,9.746H334.009a1.949,1.949,0,1,0,0,3.9h17.542a1.949,1.949,0,0,0,0-3.9Zm-44.244,1.022a7.8,7.8,0,0,1,5.261-10.523v6.576Zm2.34,3.118,4.87-3.653,4.87,3.653a7.8,7.8,0,0,1-9.74,0Zm6.819-13.64a7.8,7.8,0,0,1,5.261,10.523l-5.261-3.946Z" transform="translate(-296 -776)"/>
</svg>
