<svg xmlns="http://www.w3.org/2000/svg" width="56.331" height="58.911" viewBox="0 0 56.331 58.911">
  <g id="noun-market-trends-6400226" transform="translate(-9.265 -7.4)">
    <path id="Path_44523" data-name="Path 44523" d="M65.291,7.4H9.57a.306.306,0,0,0-.215.09.3.3,0,0,0-.09.215v2.607a.306.306,0,0,0,.09.215.3.3,0,0,0,.215.09H65.291a.306.306,0,0,0,.215-.09.3.3,0,0,0,.09-.215V7.7a.306.306,0,0,0-.09-.215.3.3,0,0,0-.215-.09h0Zm0,40.057H9.57a.306.306,0,0,0-.215.09.3.3,0,0,0-.09.215v2.607a.306.306,0,0,0,.09.215.3.3,0,0,0,.215.09H65.291a.306.306,0,0,0,.215-.09.3.3,0,0,0,.09-.215V47.762a.306.306,0,0,0-.09-.215.3.3,0,0,0-.215-.09ZM36.258,52.33V66.311H38.6V52.33ZM63.144,12.272H11.717V45.8H63.145V12.272h0ZM30.488,52.329H27.966L22.446,66.31h2.522l5.52-13.981Zm16.406,0H44.372l5.52,13.981h2.522l-5.52-13.981ZM41.283,18.838a.826.826,0,1,1-.3-1.623l3.293-.62a.827.827,0,0,1,1.013.781l.307,3.321a.825.825,0,0,1-1.644.149l-.132-1.431q-.119.182-.23.373a7.4,7.4,0,0,0,8.333,10.857.827.827,0,1,1,.427,1.6A9.06,9.06,0,0,1,42.155,18.96q.1-.164.2-.324l-1.068.2h0Zm17.436,9.307a.826.826,0,1,1,.3,1.623l-3.293.62a.827.827,0,0,1-1.012-.781l-.307-3.321a.825.825,0,1,1,1.644-.149l.132,1.431q.119-.181.23-.373h0a7.415,7.415,0,0,0-2.672-10.1l-.041-.023a7.367,7.367,0,0,0-5.62-.738.827.827,0,0,1-.427-1.6,9.05,9.05,0,0,1,6.876.907l.047.03A9.052,9.052,0,0,1,57.848,28.02v0h0c-.063.111-.129.218-.2.324l1.068-.2h0ZM51.2,21.658a.826.826,0,0,1-.077-1.65l3.141-.147a.828.828,0,0,1,.923.912c-.037,1.048-.1,2.1-.149,3.151a.826.826,0,1,1-1.65-.077l.05-1.068L50.316,25.9h0a.827.827,0,0,1-1.384-.372L48.469,23.8l-2.283,2.283a.828.828,0,0,1-1.171-1.171l3.3-3.3a.828.828,0,0,1,1.171,0,.819.819,0,0,1,.224.411l.453,1.691,2.112-2.112-1.068.05h0Zm-18.51,7.158H28.844V24.967a4.755,4.755,0,0,1,3.849,3.849Zm-3.849-5.525a6.41,6.41,0,0,1,5.525,5.525h.386a.828.828,0,0,1,.828.828,7.566,7.566,0,1,1-7.566-7.566.828.828,0,0,1,.828.828v.386h0Zm6.253,17.6v.916a.828.828,0,0,1-1.657,0v-.916H30.928v1.581a.828.828,0,1,1-1.657,0V40.895H26.759v.916a.828.828,0,0,1-1.657,0v-.916H22.59v1.581a.828.828,0,1,1-1.657,0V40.895H18.42v.916a.828.828,0,0,1-1.657,0v-.916h-.916a.828.828,0,1,1,0-1.657h.916V36.726H15.183a.828.828,0,0,1,0-1.657h1.581V32.556h-.916a.828.828,0,1,1,0-1.657h.916V28.387H15.183a.828.828,0,1,1,0-1.657h1.581V24.218h-.916a.828.828,0,1,1,0-1.657h.916V20.048H15.183a.828.828,0,1,1,0-1.657h2.408a.828.828,0,0,1,.828.828V39.237H38.436a.828.828,0,0,1,.828.828v2.408a.828.828,0,0,1-1.657,0V40.893H35.1Zm-6.366-5.383a5.964,5.964,0,0,1-.716.043,5.91,5.91,0,0,1-.828-11.763v5.853a.836.836,0,0,0,.041.258l1.5,5.61h0Zm.362-5.039h4.774a5.92,5.92,0,0,1-3.539,4.613l-1.236-4.612h0ZM42.872,36.28a.828.828,0,0,1,0-1.657H59.338a.828.828,0,0,1,0,1.657Zm0,3.725a.828.828,0,0,1,0-1.657H59.338a.828.828,0,1,1,0,1.657Zm0,3.725a.828.828,0,0,1,0-1.657H59.338a.828.828,0,1,1,0,1.657Z" fill-rule="evenodd"/>
  </g>
</svg>
