<svg xmlns="http://www.w3.org/2000/svg" xmlns:xlink="http://www.w3.org/1999/xlink" width="100%" height="100%" viewBox="0 0 922 480"><defs><filter id="a" x="110.935" y="19.959" width="11.787" height="23.089" filterUnits="userSpaceOnUse"><feOffset dy="3" input="SourceAlpha"/><feGaussianBlur stdDeviation="3" result="b"/><feFlood flood-opacity="0.694" result="c"/><feComposite operator="out" in="SourceGraphic" in2="b"/><feComposite operator="in" in="c"/><feComposite operator="in" in2="SourceGraphic"/></filter><linearGradient id="d" x1="0.979" y1="0.049" x2="0.012" y2="0.947" gradientUnits="objectBoundingBox"><stop offset="0" stop-color="#f5893f"/><stop offset="1" stop-color="#ed595b"/></linearGradient><linearGradient id="e" x1="0.978" y1="0.036" x2="0.012" y2="0.969" gradientUnits="objectBoundingBox"><stop offset="0" stop-color="#d55a86"/><stop offset="1" stop-color="#a9548f"/></linearGradient><clipPath id="f"><rect width="125.271" height="14.476" fill="none"/></clipPath><clipPath id="g"><path d="M0,0H122.274V13.476H0Z" fill="none"/></clipPath><linearGradient id="h" x1="0.527" x2="0.53" y2="1.078" gradientUnits="objectBoundingBox"><stop offset="0" stop-color="#feda00"/><stop offset="0.355" stop-color="#fdada8"/><stop offset="1" stop-color="#f05a5c"/></linearGradient></defs><rect width="920" height="480" fill="none"/><rect width="920" height="400" transform="translate(0 80)" fill="#fcfcfc"/><g transform="translate(0 62)"><g transform="translate(669 -15)"><text transform="translate(140 111)" font-size="12" font-family="Poppins-Light, Poppins" font-weight="300"><tspan x="0" y="0">McDonalds Survey</tspan></text><text transform="translate(48 111)" fill="#848484" font-size="12" font-family="Poppins-Light, Poppins" font-weight="300"><tspan x="0" y="0">Dashboard</tspan></text><text transform="translate(125 111)" fill="#989898" font-size="15" font-family="TeluguMN-Bold, Telugu MN" font-weight="700"><tspan x="0" y="0">/</tspan></text></g><g transform="translate(-446 57)"><text transform="translate(446 36)" fill="#ed595b" font-size="14" font-family="Poppins-Light, Poppins" font-weight="300"><tspan x="0" y="0">Dashboard</tspan><tspan y="0" fill="#000"> </tspan></text><rect width="83" height="1" transform="translate(447 44)" fill="#ed595b"/><text transform="translate(566 36)" font-size="14" font-family="Poppins-Light, Poppins" font-weight="300"><tspan x="0" y="0">resQ Settings</tspan></text><text transform="translate(695 36)" font-size="14" font-family="Poppins-Light, Poppins" font-weight="300"><tspan x="0" y="0">Share Project</tspan></text><text transform="translate(824 36)" font-size="14" font-family="Poppins-Light, Poppins" font-weight="300"><tspan x="0" y="0">Reports &amp; Downloads</tspan></text></g></g><g transform="translate(725.918 173.889)"><g transform="translate(1.082 0.111)" stroke="#f1744b" stroke-width="1" fill="url(#d)"><rect width="193" height="68" rx="5" stroke="none"/><rect x="0.5" y="0.5" width="192" height="67" rx="4.5" fill="none"/></g><g transform="translate(11.082 9.111)"><text transform="translate(0 12)" fill="#fff" font-size="11" font-family="Poppins-Regular, Poppins"><tspan x="0" y="0">Total Responses </tspan></text><text transform="translate(0 42)" fill="#fff" font-size="22" font-family="Poppins-SemiBold, Poppins" font-weight="600"><tspan x="0" y="0">1000</tspan></text></g><g transform="translate(134.957 10.111)"><path d="M23.142,12.743a7.3,7.3,0,0,0-9.771,0,6.073,6.073,0,0,0,0,9.051,7.3,7.3,0,0,0,9.771,0,6.073,6.073,0,0,0,0-9.051ZM46,46.61a.752.752,0,0,1,.779-.722h.283a2.178,2.178,0,0,0,1.481-.571,1.869,1.869,0,0,0,.617-1.372V32.726a1.869,1.869,0,0,0-.617-1.372,2.176,2.176,0,0,0-1.481-.571H25.677a2.178,2.178,0,0,0-1.481.571,1.869,1.869,0,0,0-.617,1.372V43.945a1.869,1.869,0,0,0,.617,1.372,2.176,2.176,0,0,0,1.481.571H41.007a.831.831,0,0,1,.361.082l0,0,.012.006,0,0,.013.007,0,0,.012.007,0,0,.012.007,0,0,.01.006.007,0,.029.02h0l.015.011h0a.767.767,0,0,1,.063.054L46,50.217V46.61h0ZM9.962,51.279H6.113v-22.5a3.523,3.523,0,0,1,1.162-2.586,4.1,4.1,0,0,1,2.792-1.076h16.38a4.105,4.105,0,0,1,2.792,1.076A3.523,3.523,0,0,1,30.4,28.775v.564H25.678a3.8,3.8,0,0,0-2.584.994,3.259,3.259,0,0,0-1.074,2.393V43.944a3.259,3.259,0,0,0,1.074,2.393,3.8,3.8,0,0,0,2.584.994H30.4v3.947H11.521V40.529a.782.782,0,0,0-1.559,0V51.279h0ZM34.225,37.048a.685.685,0,0,1,0,1.021.825.825,0,0,1-1.1,0l-2.213-2.05,0,0,0,0,0,0,0,0h0L30.889,36h0l0,0-.012-.012,0,0-.01-.01,0,0h0l0,0,0,0,0,0,0,0,0,0h0l0,0,0,0h0l-.012-.014h0l-.025-.035-.007-.011-.021-.035,0,0,0,0,0,0h0l0,0,0-.009h0l0,0,0,0,0-.01,0,0v0l-.007-.014h0a.673.673,0,0,1,0-.543h0l.007-.015v0l.007-.013,0,0v0l0-.01,0,0h0l0,0,0,0,0,0,.021-.035.007-.011.025-.035h0l0,0h0l.012-.014h.007l0,0h.008l.008-.008h0l0,0h0L30.891,35H30.9l.007-.006h.007l0,0,2.215-2.052a.825.825,0,0,1,1.1,0,.685.685,0,0,1,0,1.021l-.889.824h3.884a5.034,5.034,0,0,1,3.426,1.319,4.32,4.32,0,0,1,1.424,3.173v3.953a.782.782,0,0,1-1.559,0V39.263a2.931,2.931,0,0,0-.967-2.152,3.414,3.414,0,0,0-2.323-.9H33.344l.889.824h0ZM51.5,8.088a12.031,12.031,0,0,0-16.095,0,10,10,0,0,0,0,14.909A12.031,12.031,0,0,0,51.5,23a10,10,0,0,0,0-14.909ZM43.456,5.775a10.947,10.947,0,0,1,7.456,2.861,9.266,9.266,0,0,1,0,13.813,11.146,11.146,0,0,1-14.912,0A9.266,9.266,0,0,1,36,8.636a10.948,10.948,0,0,1,7.456-2.861h0Zm.366,9.428a.456.456,0,0,1,0,.679.548.548,0,0,1-.733,0,.456.456,0,0,1,0-.679.548.548,0,0,1,.733,0ZM39.651,8a9.49,9.49,0,0,1,3.025-.75v1.1a.782.782,0,0,0,1.559,0v-1.1A9.493,9.493,0,0,1,47.259,8l-.593.951a.692.692,0,0,0,.283.984.812.812,0,0,0,1.062-.262l.593-.952a8.912,8.912,0,0,1,1.2.936,8.549,8.549,0,0,1,1.011,1.116l-1.026.549a.692.692,0,0,0-.286.982.811.811,0,0,0,1.06.265l1.03-.551a7.8,7.8,0,0,1,.809,2.8H51.222a.724.724,0,1,0,0,1.444h1.185a7.8,7.8,0,0,1-.809,2.8l-1.027-.549a.812.812,0,0,0-1.062.262.692.692,0,0,0,.283.984l1.028.55a8.6,8.6,0,0,1-1.01,1.115,8.93,8.93,0,0,1-1.205.937l-.592-.95a.811.811,0,0,0-1.06-.265.692.692,0,0,0-.286.982l.595.954a9.49,9.49,0,0,1-3.025.75v-1.1a.782.782,0,0,0-1.559,0v1.1a9.5,9.5,0,0,1-3.024-.749l.593-.951a.692.692,0,0,0-.283-.984.812.812,0,0,0-1.062.262l-.593.952a8.912,8.912,0,0,1-1.2-.936,8.55,8.55,0,0,1-1.011-1.116l1.026-.549a.692.692,0,0,0,.286-.982.811.811,0,0,0-1.06-.265l-1.03.551a7.8,7.8,0,0,1-.809-2.8H35.69a.724.724,0,1,0,0-1.444H34.5a7.8,7.8,0,0,1,.809-2.8l1.027.549a.812.812,0,0,0,1.062-.262.692.692,0,0,0-.283-.984l-1.028-.55A8.566,8.566,0,0,1,37.1,9.657a8.93,8.93,0,0,1,1.205-.937l.592.95a.811.811,0,0,0,1.06.265.692.692,0,0,0,.286-.982L39.651,8h0Zm1.879,8.264H39.093a.724.724,0,1,1,0-1.444H41.53a1.922,1.922,0,0,1,.457-.639,2.2,2.2,0,0,1,2.938,0,1.826,1.826,0,0,1,0,2.721,2.1,2.1,0,0,1-.689.424v1.661a.782.782,0,0,1-1.559,0V17.327a2.1,2.1,0,0,1-.689-.424,1.922,1.922,0,0,1-.457-.639Z" transform="translate(-6.113 -5)" fill="#fff" fill-rule="evenodd"/></g></g><g transform="translate(470.516 249)"><g transform="translate(256.484)" stroke="#c5588a" stroke-width="1" fill="url(#e)"><rect width="193" height="70" rx="5" stroke="none"/><rect x="0.5" y="0.5" width="192" height="69" rx="4.5" fill="none"/></g><g transform="translate(266.484 9)"><text transform="translate(0 16)" fill="#fff" font-size="11" font-family="Poppins-Regular, Poppins"><tspan x="0" y="0">Disqualified</tspan></text><text transform="translate(0 46)" fill="#fff" font-size="22" font-family="Poppins-ExtraBold, Poppins" font-weight="800"><tspan x="0" y="0">823</tspan></text></g><g transform="translate(385.484 10.138)"><path d="M60.723,37.809a1.2,1.2,0,0,0-.393-.873l-1.311-1.207a1.439,1.439,0,0,0-1.895,0l-.6.554c-.221-.091-.446-.173-.675-.243v-.785a1.2,1.2,0,0,0-.4-.881,1.41,1.41,0,0,0-.956-.364H52.681a1.3,1.3,0,0,0-1.352,1.245v.8a4.85,4.85,0,0,0-.629.255l-.621-.579h0a1.436,1.436,0,0,0-1.892,0l-1.352,1.207h0a1.169,1.169,0,0,0,0,1.745l.616.554a4.454,4.454,0,0,0-.256.624h-.819A1.3,1.3,0,0,0,45.019,41.1v1.707a1.2,1.2,0,0,0,.4.881,1.415,1.415,0,0,0,.956.364H47.2a5.023,5.023,0,0,0,.284.624l-.6.542h0a1.175,1.175,0,0,0,0,1.745l1.352,1.207a1.439,1.439,0,0,0,1.895,0l.54-.516a4.888,4.888,0,0,0,.677.262v.729a1.2,1.2,0,0,0,.4.881,1.415,1.415,0,0,0,.956.364H54.56a1.41,1.41,0,0,0,.956-.364,1.2,1.2,0,0,0,.4-.881v-.7a3.885,3.885,0,0,0,.662-.343l.548.5a1.434,1.434,0,0,0,1.895,0L60.33,46.9a1.2,1.2,0,0,0,.393-.871,1.164,1.164,0,0,0-.393-.873l-.548-.493v0a4.948,4.948,0,0,0,.284-.661h.784a1.41,1.41,0,0,0,.956-.364,1.2,1.2,0,0,0,.4-.881v-1.7a1.2,1.2,0,0,0-.4-.881,1.41,1.41,0,0,0-.956-.364h-.8a4.753,4.753,0,0,0-.3-.624l.581-.535a1.2,1.2,0,0,0,.393-.852Zm-7.116,8.158a4.412,4.412,0,0,1-4.06-2.5,3.818,3.818,0,0,1,.954-4.412,4.675,4.675,0,0,1,4.791-.878A4.066,4.066,0,0,1,58,41.92a4.233,4.233,0,0,1-4.4,4.048ZM56.65,41.92a2.807,2.807,0,0,1-1.877,2.588,3.237,3.237,0,0,1-3.317-.607,2.643,2.643,0,0,1-.659-3.055,3.053,3.053,0,0,1,2.81-1.728,2.936,2.936,0,0,1,3.018,2.8Zm-35.871,0A2.812,2.812,0,0,1,18.9,44.51a3.238,3.238,0,0,1-3.317-.612,2.644,2.644,0,0,1-.657-3.055,3.057,3.057,0,0,1,2.818-1.726,2.927,2.927,0,0,1,3.036,2.8Zm4.2,2.086a1.41,1.41,0,0,0,.956-.364,1.2,1.2,0,0,0,.4-.881v-1.7a1.2,1.2,0,0,0-.4-.881,1.41,1.41,0,0,0-.956-.364h-.817a3.959,3.959,0,0,0-.3-.624l.581-.535h0a1.152,1.152,0,0,0,.391-.871,1.2,1.2,0,0,0-.385-.873l-1.319-1.207a1.436,1.436,0,0,0-1.892,0l-.588.554a6.387,6.387,0,0,0-.677-.243v-.766a1.2,1.2,0,0,0-.4-.881,1.415,1.415,0,0,0-.956-.364H16.777a1.3,1.3,0,0,0-1.354,1.245v.8a4.383,4.383,0,0,0-.629.255l-.629-.579a1.436,1.436,0,0,0-1.892,0l-1.311,1.207h0a1.178,1.178,0,0,0,0,1.745l.616.554a4.5,4.5,0,0,0-.264.624h-.845A1.3,1.3,0,0,0,9.113,41.1v1.707a1.2,1.2,0,0,0,.4.881,1.41,1.41,0,0,0,.956.364h.845a4.378,4.378,0,0,0,.284.624l-.588.542a1.178,1.178,0,0,0,0,1.745l1.311,1.207a1.439,1.439,0,0,0,1.895,0l.548-.516a4.609,4.609,0,0,0,.677.262v.729a1.2,1.2,0,0,0,.4.881,1.415,1.415,0,0,0,.956.364h1.859a1.41,1.41,0,0,0,.956-.364,1.2,1.2,0,0,0,.4-.881v-.7a4,4,0,0,0,.675-.343l.548.5a1.435,1.435,0,0,0,1.887,0L24.423,46.9h0a1.178,1.178,0,0,0,0-1.745l-.555-.493v0a3.606,3.606,0,0,0,.292-.661Zm-7.236,1.962a4.418,4.418,0,0,1-4.065-2.494,3.816,3.816,0,0,1,.948-4.414,4.675,4.675,0,0,1,4.791-.881,4.06,4.06,0,0,1,2.716,3.742,3.9,3.9,0,0,1-1.3,2.868,4.594,4.594,0,0,1-3.122,1.179Zm.332-25.143H53.647a3.006,3.006,0,0,1,2.993,2.887A3.007,3.007,0,0,1,53.647,26.6H18.075a3.007,3.007,0,0,1-2.993-2.887,3.006,3.006,0,0,1,2.993-2.887Zm4.39-5.276h0a2.9,2.9,0,0,1-2.66-1.637,2.5,2.5,0,0,1,.624-2.891,3.069,3.069,0,0,1,3.14-.577A2.661,2.661,0,0,1,25.344,12.9a2.772,2.772,0,0,1-2.861,2.66Zm11.95-.852h0a2.892,2.892,0,0,1,2.663,1.637,2.5,2.5,0,0,1-.624,2.891,3.063,3.063,0,0,1-3.14.575,2.661,2.661,0,0,1-1.78-2.45,2.555,2.555,0,0,1,.855-1.88,3.023,3.023,0,0,1,2.047-.768Zm11.95-1.8h0a2.658,2.658,0,0,1-1.788,2.448,3.059,3.059,0,0,1-3.14-.586,2.508,2.508,0,0,1-.609-2.9A2.9,2.9,0,0,1,43.5,10.235a3.008,3.008,0,0,1,2.042.782,2.535,2.535,0,0,1,.839,1.885Zm3.51,2.653h0a.65.65,0,0,1-.675-.624V11.263a.678.678,0,0,1,1.352,0v3.669a.652.652,0,0,1-.657.624Zm-2.658.474v3.669l0,0a.678.678,0,0,1-1.352,0V16.027a.678.678,0,0,1,1.352,0ZM35.2,8.418a.707.707,0,0,1,.477.182.6.6,0,0,1,.2.439v3.688a.678.678,0,0,1-1.352,0V9.039a.65.65,0,0,1,.677-.621ZM26.406,19.809a.652.652,0,0,1-.677-.624V15.518a.679.679,0,0,1,1.354,0v3.667a.608.608,0,0,1-.208.451.716.716,0,0,1-.5.173Zm1.61,22.228v-1.8A5.451,5.451,0,0,0,26.7,36.73l-7.616-8.88H52.66l-7.588,8.88a5.382,5.382,0,0,0-1.352,3.508v1.8l-.806-.743a2.888,2.888,0,0,0-1.968-.74,3.059,3.059,0,0,0-1.352.318A2.762,2.762,0,0,0,36.888,39H34.806A2.764,2.764,0,0,0,32.1,40.873a2.958,2.958,0,0,0-1.352-.325,2.9,2.9,0,0,0-1.968.754ZM43.259,51.5h.893a1.393,1.393,0,0,0,1.441-1.327V48.228a1.385,1.385,0,0,0-1.441-1.32h-.933a.081.081,0,0,1-.074-.051,7.446,7.446,0,0,0-.332-.722.079.079,0,0,1,0-.082l.677-.624v0a1.26,1.26,0,0,0,0-1.868l-1.5-1.383a1.56,1.56,0,0,0-2.029,0l-.677.624v0a.1.1,0,0,1-.094,0c-.243-.105-.495-.2-.751-.28a.071.071,0,0,1-.053-.068v-.89a1.381,1.381,0,0,0-1.435-1.322H34.806a1.38,1.38,0,0,0-1.433,1.322V42.5a.077.077,0,0,1-.056.068,7.394,7.394,0,0,0-.73.28.086.086,0,0,1-.094,0l-.718-.661a1.483,1.483,0,0,0-1.014-.385,1.5,1.5,0,0,0-1.014.385l-1.527,1.371a1.247,1.247,0,0,0,0,1.868l.71.624a.069.069,0,0,1,0,.086,5.737,5.737,0,0,0-.312.68.079.079,0,0,1-.074.049h-.961a1.493,1.493,0,0,0-1.03.4,1.263,1.263,0,0,0-.4.962v1.955a1.392,1.392,0,0,0,1.433,1.327h.966a.085.085,0,0,1,.076.051,7.315,7.315,0,0,0,.312.71h0a.077.077,0,0,1,0,.086l-.677.624h0a1.247,1.247,0,0,0,0,1.868l1.5,1.39v0a1.533,1.533,0,0,0,2.029,0l.677-.624,0,0a.077.077,0,0,1,.089,0,7.661,7.661,0,0,0,.812.311.077.077,0,0,1,.048.068v.829a1.38,1.38,0,0,0,1.433,1.32h2.13a1.376,1.376,0,0,0,1.387-1.32v-.81a.068.068,0,0,1,.053-.068c.276-.093.555-.2.824-.318a.086.086,0,0,1,.089,0l.629.579a1.521,1.521,0,0,0,2.029,0l1.509-1.39a1.26,1.26,0,0,0,0-1.868l-.637-.579a.075.075,0,0,1,0-.079,6.223,6.223,0,0,0,.337-.761.08.08,0,0,1,.061-.03Zm-7.243,2.235a4.95,4.95,0,0,1-4.555-2.8,4.28,4.28,0,0,1,1.07-4.947A5.241,5.241,0,0,1,37.9,45a4.552,4.552,0,0,1,3.043,4.195,4.753,4.753,0,0,1-4.93,4.54Zm3.578-4.54a3.308,3.308,0,0,1-2.209,3.046,3.807,3.807,0,0,1-3.9-.715,3.109,3.109,0,0,1-.776-3.592,3.592,3.592,0,0,1,3.3-2.032,3.74,3.74,0,0,1,2.531.965,3.169,3.169,0,0,1,1.047,2.329Z" transform="translate(-9.113 -8.418)" fill="#fff"/></g></g><g transform="translate(0 174)"><g fill="#fff" stroke="#e5e5e5" stroke-width="1"><rect width="438" height="145" rx="5" stroke="none"/><rect x="0.5" y="0.5" width="437" height="144" rx="4.5" fill="none"/></g><text transform="translate(12 20)" font-size="12" font-family="Poppins-SemiBold, Poppins" font-weight="600"><tspan x="0" y="0">resQ Statistics</tspan></text><g transform="translate(72.199 32.478)"><rect width="1" height="89" transform="translate(322.801 -0.478)" fill="#f4f4f4"/><rect width="1" height="89" transform="translate(354.801 -0.478)" fill="#f4f4f4"/><rect width="1" height="89" transform="translate(291.801 -0.478)" fill="#f4f4f4"/><rect width="1" height="89" transform="translate(260.801 -0.478)" fill="#f4f4f4"/><rect width="1" height="89" transform="translate(229.801 -0.478)" fill="#f4f4f4"/><rect width="1" height="89" transform="translate(199.801 -0.478)" fill="#f4f4f4"/><rect width="1" height="89" transform="translate(169.801 -0.478)" fill="#f4f4f4"/><rect width="1" height="89" transform="translate(139.801 -0.478)" fill="#f4f4f4"/><rect width="1" height="89" transform="translate(109.801 -0.478)" fill="#f4f4f4"/><rect width="1" height="89" transform="translate(80.801 -0.478)" fill="#f4f4f4"/><rect width="1" height="89" transform="translate(53.801 -0.478)" fill="#f4f4f4"/><g transform="translate(0)"><g transform="translate(14.003)"><text transform="translate(34.799 7.523)" fill="#343434" font-size="10" font-family="Poppins-Regular, Poppins"><tspan x="-81" y="0">Filter by Country</tspan></text><g transform="translate(202.782) rotate(90)"><g transform="translate(-1 59.984)"><path d="M0,0H78.9V5.769H0Z" transform="translate(1.361 102) rotate(-90)" fill="#f48641"/><text transform="translate(7 18) rotate(-90)" font-size="7" font-family="Poppins-Regular, Poppins"><tspan x="0" y="0">13</tspan></text></g><g transform="translate(7.571 0.251)"><path d="M0,0H140.333V5.769H0Z" transform="translate(0.361 161.702) rotate(-90)" fill="#ed5b58"/><text transform="translate(6 14) rotate(-90)" font-size="7" font-family="Poppins-Regular, Poppins"><tspan x="0" y="0">38</tspan></text></g></g><g transform="translate(267.983 22.353) rotate(90)"><g transform="translate(0 0.251)"><path d="M0,0H210.44V5.769H0Z" transform="translate(0.361 226.897) rotate(-90)" fill="#f48641"/><text transform="translate(6 10) rotate(-90)" font-size="7" font-family="Poppins-Regular, Poppins"><tspan x="0" y="0">109</tspan></text></g><g transform="translate(7.571 12.118)"><path d="M0,0H196.729V5.769H0Z" transform="translate(0.361 215.084) rotate(-90)" fill="#ed5b58"/><text transform="translate(6 12) rotate(-90)" font-size="7" font-family="Poppins-Regular, Poppins"><tspan x="0" y="0">67</tspan></text></g></g><g transform="translate(279.958 46.385) rotate(90)"><g transform="translate(0.138 36.095)"><path d="M0,0H187.992V5.769H0Z" transform="translate(0.348 203.085) rotate(-90)" fill="#f48641"/><text transform="translate(6 8.066) rotate(-90)" font-size="7" font-family="Poppins-Regular, Poppins"><tspan x="0" y="0">74</tspan></text></g><g transform="translate(8.057 0.494)"><path d="M0,0H224.693V5.769H0Z" transform="translate(0 238.673) rotate(-90)" fill="#ed5b58"/><text transform="translate(5.081 6.666) rotate(-90)" font-size="7" font-family="Poppins-Regular, Poppins"><tspan x="0" y="0">345</tspan></text></g></g><g transform="translate(336.654 68.264) rotate(90)"><g transform="translate(0.238 13.124)"><path d="M0,0H269.478V5.769H0Z" transform="translate(0 282.723) rotate(-90)" fill="#f48641"/><text transform="translate(5.019 6.733) rotate(-90)" font-size="7" font-family="Poppins-Regular, Poppins"><tspan x="0" y="0">421</tspan></text></g><g transform="translate(7.81 0.123)"><path d="M0,0H280.53V5.769H0Z" transform="translate(0 295.733) rotate(-90)" fill="#ed5b58"/><text transform="translate(5.448 8.733) rotate(-90)" font-size="7" font-family="Poppins-Regular, Poppins"><tspan x="0" y="0">460</tspan></text></g></g></g><g transform="translate(16.629 26.255)"><text transform="translate(30.172 4.267)" fill="#343434" font-size="10" font-family="Poppins-Regular, Poppins"><tspan x="-74.88" y="0">Filter by Device</tspan></text></g><g transform="translate(25.379 49.885)"><text transform="translate(22.422 3.637)" fill="#343434" font-size="10" font-family="Poppins-Regular, Poppins"><tspan x="-54.03" y="0">resQ Score</tspan></text></g><g transform="translate(14 71.764)"><text transform="translate(33.801 2.758)" fill="#343434" font-size="10" font-family="Poppins-Regular, Poppins"><tspan x="-113.28" y="0">Duplicate IP Restriction</tspan></text></g></g><g transform="translate(108.143 99.396)"><g transform="translate(0 0)"><g transform="translate(0 1)"><rect width="5" height="2" transform="translate(-4.342 0.127)" fill="#f48641"/><text transform="translate(5.658 3.126)" fill="#343434" font-size="5" font-family="Poppins-Regular, Poppins"><tspan x="0" y="0">Filtered Out</tspan></text></g><g transform="translate(49.009)"><g transform="translate(0)"><rect width="5" height="2" transform="translate(-4.352 1.127)" fill="#ed5b58"/><text transform="translate(5.649 4.126)" fill="#343434" font-size="5" font-family="Poppins-Regular, Poppins"><tspan x="0" y="0">Qualified</tspan></text></g></g></g></g><text transform="translate(53.801 93.523)" font-size="7" font-family="Poppins-Regular, Poppins"><tspan x="0" y="0">0</tspan></text><text transform="translate(77.8 93.523)" font-size="7" font-family="Poppins-Regular, Poppins"><tspan x="0" y="0">50</tspan></text><text transform="translate(105.8 93.523)" font-size="7" font-family="Poppins-Regular, Poppins"><tspan x="0" y="0">100</tspan></text><text transform="translate(134.802 93.523)" font-size="7" font-family="Poppins-Regular, Poppins"><tspan x="0" y="0">150</tspan></text><text transform="translate(163.801 93.523)" font-size="7" font-family="Poppins-Regular, Poppins"><tspan x="0" y="0">200</tspan></text><text transform="translate(194.801 93.523)" font-size="7" font-family="Poppins-Regular, Poppins"><tspan x="0" y="0">250</tspan></text><text transform="translate(224.8 93.523)" font-size="7" font-family="Poppins-Regular, Poppins"><tspan x="0" y="0">300</tspan></text><text transform="translate(255.8 93.523)" font-size="7" font-family="Poppins-Regular, Poppins"><tspan x="0" y="0">350</tspan></text><text transform="translate(286.801 93.523)" font-size="7" font-family="Poppins-Regular, Poppins"><tspan x="0" y="0">400</tspan></text><text transform="translate(317.801 93.523)" font-size="7" font-family="Poppins-Regular, Poppins"><tspan x="0" y="0">450</tspan></text><text transform="translate(348.801 93.523)" font-size="7" font-family="Poppins-Regular, Poppins"><tspan x="0" y="0">500</tspan></text></g><g transform="translate(417.711 7)"><path d="M21.13,16.863H17.575a.715.715,0,0,0-.711.711v7.111a.715.715,0,0,0,.711.711h7.111a.715.715,0,0,0,.711-.711V21.13h.94v3.556a1.655,1.655,0,0,1-1.652,1.652H17.575a1.655,1.655,0,0,1-1.652-1.652V17.575a1.655,1.655,0,0,1,1.652-1.652H21.13v.94ZM25.4,18.932h.94V16.393a.47.47,0,0,0-.47-.47H23.328v.94h1.4L20.8,20.8l.665.665L25.4,17.528Z" transform="translate(-15.923 -15.923)" fill="#939393" fill-rule="evenodd"/></g><path d="M0,0H0A5,5,0,0,1,5,5V15a5,5,0,0,1-5,5H0a0,0,0,0,1,0,0V0A0,0,0,0,1,0,0Z" transform="translate(0 5)" fill="#ed5b58"/></g><g transform="translate(28 80)"><rect width="920" height="52" transform="translate(-28)" fill="#fcfcfc"/><g transform="translate(-20 -23)"><rect width="38" height="35" rx="5" transform="translate(-8 32)" fill="#ea595b"/><g transform="translate(-498 7)"><g transform="translate(498 32)"><g transform="translate(-29 -134.711)"><g transform="translate(29 134.711)"><path d="M16.8,5.8a11,11,0,1,0,11,11A11,11,0,0,0,16.8,5.8Zm-.755,14.62a.418.418,0,0,1-.418.419H13.786a.418.418,0,0,1-.418-.419V13.176a.418.418,0,0,1,.418-.418h1.837a.418.418,0,0,1,.418.418Zm4.183,0a.418.418,0,0,1-.418.419H17.969a.418.418,0,0,1-.418-.419V13.176a.418.418,0,0,1,.418-.418h1.837a.418.418,0,0,1,.418.418Z" transform="translate(-5.796 -5.796)" fill="#fff"/></g></g></g></g></g><g transform="translate(-50 -9)"><g transform="translate(178 39)"><text transform="translate(19.901 11)" fill="#989898" font-size="10" font-family="Poppins-Medium, Poppins" font-weight="500"><tspan x="0" y="0">Filter by Device</tspan></text><g transform="translate(0 2.368)"><path d="M24.15,24.773h0a.893.893,0,0,0-.893.894v3.954h4.067V25.668a.894.894,0,0,0-.894-.894H24.15Zm1.187,5.83a.3.3,0,1,1-.3.3.3.3,0,0,1,.3-.3Zm-.1-10.037H14.711a.9.9,0,0,0-.895.895v6.007h8.438a.3.3,0,1,1,0,.6H13.816V29.11a.9.9,0,0,0,.895.9H18.9v.949H17.711a.3.3,0,1,0,0,.6h4.524a.3.3,0,1,0,0-.6H21.044v-.949h1.8V25.668a1.306,1.306,0,0,1,1.266-1.306h0a.251.251,0,0,1,.041,0h1.98v-2.9a.9.9,0,0,0-.895-.895Zm-1.98,9.652v.438a.894.894,0,0,0,.895.894h2.278a.894.894,0,0,0,.894-.894v-.438H23.256Z" transform="translate(-13.816 -20.566)" fill="#989898"/></g></g><g transform="translate(290.105 39)"><text transform="translate(19.901 11)" fill="#ed5b5a" font-size="10" font-family="Poppins-Medium, Poppins" font-weight="500"><tspan x="0" y="0">resQ Score</tspan></text><g transform="translate(0 0.471)"><text transform="translate(0 10)" fill="#ed5b5a" font-size="12" font-family="HonestJohns, Honest Johns"><tspan x="0" y="0">Q</tspan></text></g></g><g transform="translate(381.684 39)"><text transform="translate(19.543 11)" fill="#989898" font-size="10" font-family="Poppins-Medium, Poppins" font-weight="500"><tspan x="0" y="0">Restrict Duplicate IP</tspan></text><g transform="translate(0 1.238)"><path d="M23.169,58.37h-.513c-.28.3-.538.562-.741.761a.746.746,0,0,1-.52.211.732.732,0,0,1-.52-.213c-.2-.2-.459-.455-.741-.759h-.516c-.716.128-1.179.333-1.179.564,0,.392,1.323.71,2.955.71s2.955-.317,2.955-.71C24.35,58.7,23.887,58.5,23.169,58.37Z" transform="translate(-15.089 -46.799)" fill="#989898"/><path d="M19.789,29.468a.336.336,0,0,0,.473,0c.757-.739,3.069-3.115,3.069-4.644a3.305,3.305,0,0,0-6.61,0C16.718,26.352,19.032,28.731,19.789,29.468ZM18.25,24.68a1.775,1.775,0,1,1,1.776,1.776A1.777,1.777,0,0,1,18.25,24.68Z" transform="translate(-13.718 -17.428)" fill="#989898"/><path d="M9.162,6.51a.242.242,0,1,0,.242.242A.242.242,0,0,0,9.162,6.51Z" transform="translate(-7.501 -5.465)" fill="#989898"/><path d="M17.442,6.51a.242.242,0,1,0,.242.242A.242.242,0,0,0,17.442,6.51Z" transform="translate(-14.101 -5.465)" fill="#989898"/><path d="M36.762,6.9H32.412a.162.162,0,1,0,0,.325h4.349a.162.162,0,0,0,0-.325Z" transform="translate(-26.096 -5.776)" fill="#989898"/><path d="M12.713,1.36H3.759A1.829,1.829,0,0,0,1.93,3.189v.544H14.54V3.189A1.825,1.825,0,0,0,12.713,1.36ZM3.59,3.292a.646.646,0,1,1,.645-.647A.647.647,0,0,1,3.59,3.292Zm1.68,0a.646.646,0,1,1,.645-.647A.647.647,0,0,1,5.271,3.292ZM12.6,3.213H8.246a.567.567,0,0,1,0-1.135H12.6a.567.567,0,0,1,0,1.135Z" transform="translate(-1.93 -1.36)" fill="#989898"/><path d="M1.93,20.055a1.83,1.83,0,0,0,1.827,1.831H5.4a4.422,4.422,0,0,1-.877-2.224,3.709,3.709,0,0,1,7.418,0,4.416,4.416,0,0,1-.877,2.224h1.648a1.83,1.83,0,0,0,1.827-1.831V15.04H1.93Zm10.515-4.309a.2.2,0,0,1,.2-.2h.524a.615.615,0,0,1,0,1.23h-.323v.475a.2.2,0,1,1-.406,0v-1.5Zm-.82,0a.2.2,0,1,1,.406,0v1.5a.2.2,0,1,1-.406,0Zm-8.778-.27h1.9a.2.2,0,1,1,0,.406h-1.9a.2.2,0,1,1,0-.406Zm0,.678H4.037a.2.2,0,0,1,0,.406H2.847a.2.2,0,0,1,0-.406Z" transform="translate(-1.93 -12.264)" fill="#989898"/><path d="M56.264,19.721a.212.212,0,0,0-.211-.211H55.73v.422h.323A.212.212,0,0,0,56.264,19.721Z" transform="translate(-44.811 -15.826)" fill="#989898"/></g></g></g><g transform="translate(-10 -22)"><g transform="translate(44.485 46)"><text transform="translate(-14.485 -3)" font-size="15" font-family="Poppins-Bold, Poppins" font-weight="700"><tspan x="0" y="0">McDonalds Survey</tspan></text><text transform="translate(-14.485 20)" fill="#6c6c6c" font-size="15" font-family="Poppins-Regular, Poppins"><tspan x="0" y="0">ASDF1234</tspan></text><g transform="translate(60.973 8)"><g transform="translate(0.176)"><g transform="translate(-0.176)"><path d="M6.016,0a6.016,6.016,0,1,0,6.016,6.016A6.017,6.017,0,0,0,6.016,0Zm-.7,8.613V5.859a.7.7,0,0,1,1.39,0V8.613a.7.7,0,1,1-1.39,0Zm.7-4.208a.836.836,0,1,1,.836-.836.836.836,0,0,1-.836.836Z" fill="#989898"/></g></g></g></g><g transform="translate(-47 -5)"><g transform="translate(226 38)" fill="#e4f4e4" stroke="#4baf4b" stroke-width="1"><rect width="28" height="14" rx="2" stroke="none"/><rect x="0.5" y="0.5" width="27" height="13" rx="1.5" fill="none"/></g><text transform="translate(231 49)" fill="#4baf4b" font-size="10" font-family="Poppins-Medium, Poppins" font-weight="500"><tspan x="0" y="0">Live</tspan></text></g></g><g transform="translate(-380.831 -10.5)"><g transform="translate(-619.62 -81.5)"><text transform="translate(1746 121)" font-size="13" font-family="Poppins-Light, Poppins" font-weight="300"><tspan x="0" y="0">Refresh Dashboard</tspan></text><g transform="translate(1716.478 102.883)"><path d="M13.609,6.238a7.379,7.379,0,1,0,7.379,7.379,7.387,7.387,0,0,0-7.379-7.379Zm0,3.162a4.219,4.219,0,0,1,3.568,1.969.527.527,0,0,1-.891.563,3.163,3.163,0,0,0-5.509.28l.6-.2h0a.527.527,0,1,1,.333,1l-1.581.527a.528.528,0,0,1-.666-.333l-.527-1.581a.527.527,0,0,1,1-.333l.055.163A4.219,4.219,0,0,1,13.609,9.4Zm3.6,4.219a.526.526,0,0,1,.551.358l.527,1.581a.527.527,0,1,1-1,.333l-.046-.139a4.217,4.217,0,0,1-7.454-.347.527.527,0,1,1,.954-.448,3.164,3.164,0,0,0,5.727.005l-.624.208h0a.527.527,0,0,1-.333-1l1.581-.527a.528.528,0,0,1,.115-.024Z" fill="#f05a5c" fill-rule="evenodd"/></g></g><g transform="translate(-469.493 -71.5)"><g transform="translate(1450.359 87.639)"><g transform="translate(6.965 13.65)"><circle cx="2.616" cy="2.616" r="2.616" transform="translate(4.368 3.769)" fill="#f05a5c"/><path d="M21.366,24.741a.108.108,0,0,0,.092-.051l.638-1.032a1.291,1.291,0,0,1,1.1-.612H25.93a1.291,1.291,0,0,1,1.1.612l.638,1.032a.108.108,0,0,0,.092.051h2.107a1.682,1.682,0,0,1,1.682,1.681v5.934a1.682,1.682,0,0,1-1.682,1.682H19.259a1.682,1.682,0,0,1-1.682-1.682V26.422a1.682,1.682,0,0,1,1.682-1.681Zm3.2,1.158a3.532,3.532,0,1,1-3.532,3.532A3.533,3.533,0,0,1,24.562,25.9Zm4.893,0a.819.819,0,1,1-.819.819A.819.819,0,0,1,29.455,25.9Z" transform="translate(-17.577 -23.046)" fill="#f05a5c" fill-rule="evenodd"/></g></g><text transform="translate(1480 111)" font-size="13" font-family="Poppins-Light, Poppins" font-weight="300"><tspan x="0" y="0">Screenshot</tspan></text></g></g><g transform="translate(888.621 16.675)"><g transform="translate(-12)"><g transform="translate(12 0)"><path d="M15.123,8.091a1.561,1.561,0,1,1-1.561-1.561A1.561,1.561,0,0,1,15.123,8.091ZM13.561,0a1.561,1.561,0,1,0,1.561,1.561A1.561,1.561,0,0,0,13.561,0Zm0,13.058a1.561,1.561,0,1,0,1.561,1.561A1.561,1.561,0,0,0,13.561,13.058Z" transform="translate(-12 0)" fill="#989898"/></g></g></g></g><g transform="translate(446 174)"><g fill="#fff" stroke="#e5e5e5" stroke-width="1"><rect width="273" height="145" rx="5" stroke="none"/><rect x="0.5" y="0.5" width="272" height="144" rx="4.5" fill="none"/></g><text transform="translate(12 20)" font-size="12" font-family="Poppins-SemiBold, Poppins" font-weight="600"><tspan x="0" y="0">Filter by Country</tspan></text><g transform="translate(256.711 7)"><path d="M21.13,16.863H17.575a.715.715,0,0,0-.711.711v7.111a.715.715,0,0,0,.711.711h7.111a.715.715,0,0,0,.711-.711V21.13h.94v3.556a1.655,1.655,0,0,1-1.652,1.652H17.575a1.655,1.655,0,0,1-1.652-1.652V17.575a1.655,1.655,0,0,1,1.652-1.652H21.13v.94ZM25.4,18.932h.94V16.393a.47.47,0,0,0-.47-.47H23.328v.94h1.4L20.8,20.8l.665.665L25.4,17.528Z" transform="translate(-15.923 -15.923)" fill="#939393" fill-rule="evenodd"/></g><path d="M0,0H0A5,5,0,0,1,5,5V15a5,5,0,0,1-5,5H0a0,0,0,0,1,0,0V0A0,0,0,0,1,0,0Z" transform="translate(0 5)" fill="#655991"/><g transform="translate(-23.1 -53.396)"><g transform="translate(54 94)"><g transform="translate(1.17 -2.604)"><text transform="translate(17.93 15)" fill="#343434" font-size="10" font-family="Poppins-Regular, Poppins"><tspan x="-35.24" y="0">Nigeria</tspan></text><g transform="translate(233.263 0) rotate(90)"><rect width="65" height="22" transform="translate(0 65.334) rotate(-90)" fill="#877ea7"/><path d="M0,0H142.809V21.733H0Z" transform="translate(0 208.334) rotate(-90)" fill="#655991"/><text transform="translate(14 136.334) rotate(-90)" fill="#fff" font-size="10" font-family="Poppins-Regular, Poppins"><tspan x="-7.64" y="0">158</tspan></text><text transform="translate(15 32.334) rotate(-90)" fill="#fff" font-size="10" font-family="Poppins-Regular, Poppins"><tspan x="-7.575" y="0">100</tspan></text></g></g><g transform="translate(-3.9 27.412)"><text transform="translate(24 14.984)" fill="#343434" font-size="10" font-family="Poppins-Regular, Poppins"><tspan x="-43.92" y="0">Australia</tspan></text><g transform="translate(238.334) rotate(90)"><rect width="72" height="22" transform="translate(-0.016 72.334) rotate(-90)" fill="#877ea7"/><path d="M0,0H136.09V21.595H0Z" transform="translate(-0.015 208.334) rotate(-90)" fill="#655991"/><text transform="translate(13.985 140.334) rotate(-90)" fill="#fff" font-size="10" font-family="Poppins-Regular, Poppins"><tspan x="-9.14" y="0">308</tspan></text><text transform="translate(14.484 36.334) rotate(-90)" fill="#fff" font-size="10" font-family="Poppins-Regular, Poppins"><tspan x="-5.95" y="0">115</tspan></text></g></g><g transform="translate(6.242 57.429)"><text transform="translate(13.857 14.967)" fill="#343434" font-size="10" font-family="Poppins-Regular, Poppins"><tspan x="-24.65" y="0">India</tspan></text><g transform="translate(228.192 0) rotate(90)"><rect width="97" height="22" transform="translate(-0.032 97.334) rotate(-90)" fill="#877ea7"/><path d="M0,0H111.14V21.67H0Z" transform="translate(0.081 208.104) rotate(-90)" fill="#655991"/><text transform="translate(14.468 48.834) rotate(-90)" fill="#fff" font-size="10" font-family="Poppins-Regular, Poppins"><tspan x="-7.585" y="0">150</tspan></text><text transform="translate(14.416 152.533) rotate(-90)" fill="#fff" font-size="10" font-family="Poppins-Regular, Poppins"><tspan x="-7.58" y="0">169</tspan></text></g></g></g><g transform="translate(73.977 179.621)"><g transform="translate(0)"><g transform="translate(20)"><g transform="translate(0)"><rect width="8" height="5" transform="translate(0.122 2.775)" fill="#655991"/><text transform="translate(11.123 7.774)" fill="#343434" font-size="8" font-family="Poppins-Regular, Poppins"><tspan x="0" y="0">Qualified </tspan></text></g></g><g transform="translate(94.198)"><g transform="translate(0)"><rect width="8" height="5" transform="translate(-0.075 2.775)" fill="#877ea7"/><text transform="translate(10.925 7.774)" fill="#343434" font-size="8" font-family="Poppins-Regular, Poppins"><tspan x="0" y="0">Disqualified</tspan></text></g></g></g></g></g></g><g transform="translate(0 327)"><g fill="#fff" stroke="#e5e5e5" stroke-width="1"><rect width="241" height="153" rx="5" stroke="none"/><rect x="0.5" y="0.5" width="240" height="152" rx="4.5" fill="none"/></g><text transform="translate(12 20)" font-size="12" font-family="Poppins-SemiBold, Poppins" font-weight="600"><tspan x="0" y="0">Restrict Duplicate IP</tspan></text><g transform="translate(222.711 7)"><path d="M21.13,16.863H17.575a.715.715,0,0,0-.711.711v7.111a.715.715,0,0,0,.711.711h7.111a.715.715,0,0,0,.711-.711V21.13h.94v3.556a1.655,1.655,0,0,1-1.652,1.652H17.575a1.655,1.655,0,0,1-1.652-1.652V17.575a1.655,1.655,0,0,1,1.652-1.652H21.13v.94ZM25.4,18.932h.94V16.393a.47.47,0,0,0-.47-.47H23.328v.94h1.4L20.8,20.8l.665.665L25.4,17.528Z" transform="translate(-15.923 -15.923)" fill="#939393" fill-rule="evenodd"/></g><path d="M0,0H0A5,5,0,0,1,5,5V15a5,5,0,0,1-5,5H0a0,0,0,0,1,0,0V0A0,0,0,0,1,0,0Z" transform="translate(0 5)" fill="#3b5879"/><g transform="translate(7.001 48.6)"><g transform="translate(14 -8)"><path d="M289.467,10.029c.63.008.84-.005,1.109,0a50.367,50.367,0,0,1,21.8,95.26,1,1,0,0,1-1.354-.457L289.566,60.385S288.838,10.02,289.467,10.029Z" transform="translate(-237.196 -10.02)" fill="#f16f4e"/><path d="M210.778,183.57a1,1,0,0,1-.486,1.344,50.367,50.367,0,0,1-70.26-55.973,1,1,0,0,1,1.2-.774L189.363,139.1Z" transform="translate(-138.995 -86.069)" fill="#3c5879" stroke="#fff" stroke-linejoin="round" stroke-width="1"/><path d="M144.186,49.395a1,1,0,0,1-.748-1.218,50.367,50.367,0,0,1,47.776-38.154c.269-.006.893-.019,1.6,0s-.405.7-.5,50.354Z" transform="translate(-139.935 -10.013)" fill="#f16f4e"/><text transform="translate(57.311 38.545)" fill="#fff" font-size="15" font-family="Poppins-Regular, Poppins"><tspan x="0" y="0">59%</tspan></text><text transform="translate(21.942 76.212)" fill="#fff" font-size="15" font-family="Poppins-Regular, Poppins"><tspan x="0" y="0">41%</tspan></text></g><g transform="translate(126.875 20)"><g transform="translate(0)"><g transform="translate(0)"><rect width="8" height="8" rx="4" transform="translate(0 5)" fill="#f16f4e"/><text transform="translate(14 13)" fill="#343434" font-size="12" font-family="Poppins-Regular, Poppins"><tspan x="0" y="0">Unique IP’s</tspan></text></g><g transform="translate(0 27)"><text transform="translate(14 13)" fill="#343434" font-size="12" font-family="Poppins-Regular, Poppins"><tspan x="0" y="0">Duplicate IP’s</tspan></text><rect width="8" height="8" rx="4" transform="translate(0 5)" fill="#3b5879"/></g></g></g></g></g><g transform="translate(249 327)"><g fill="#fff" stroke="#e5e5e5" stroke-width="1"><rect width="398" height="153" rx="5" stroke="none"/><rect x="0.5" y="0.5" width="397" height="152" rx="4.5" fill="none"/></g><text transform="translate(12 20)" font-size="12" font-family="Poppins-SemiBold, Poppins" font-weight="600"><tspan x="0" y="0">Filter by Device</tspan></text><g transform="translate(382.211 7)"><path d="M21.13,16.863H17.575a.715.715,0,0,0-.711.711v7.111a.715.715,0,0,0,.711.711h7.111a.715.715,0,0,0,.711-.711V21.13h.94v3.556a1.655,1.655,0,0,1-1.652,1.652H17.575a1.655,1.655,0,0,1-1.652-1.652V17.575a1.655,1.655,0,0,1,1.652-1.652H21.13v.94ZM25.4,18.932h.94V16.393a.47.47,0,0,0-.47-.47H23.328v.94h1.4L20.8,20.8l.665.665L25.4,17.528Z" transform="translate(-15.923 -15.923)" fill="#939393" fill-rule="evenodd"/></g><path d="M0,0H0A5,5,0,0,1,5,5V15a5,5,0,0,1-5,5H0a0,0,0,0,1,0,0V0A0,0,0,0,1,0,0Z" transform="translate(0 5)" fill="#655991"/><g transform="translate(11 37.213)"><g transform="translate(0 0)"><g transform="translate(51.001 0)"><text transform="translate(14 15.787)" fill="#343434" font-size="10" font-family="Poppins-Regular, Poppins"><tspan x="-13.34" y="0">PC</tspan></text><g transform="translate(330.999 0) rotate(90)"><rect width="45" height="27" transform="translate(-0.213 45) rotate(-90)" fill="#40979d"/><path d="M0,0H262.741V26.958H0Z" transform="translate(0 307.544) rotate(-90)" fill="#2c8389"/><text transform="translate(14.787 206) rotate(-90)" fill="#fff" font-size="10" font-family="Poppins-Regular, Poppins"><tspan x="-9.065" y="0">268</tspan></text><text transform="translate(15.787 23) rotate(-90)" fill="#fff" font-size="10" font-family="Poppins-Regular, Poppins"><tspan x="-4.54" y="0">16</tspan></text></g></g><g transform="translate(0 32.251)"><text transform="translate(58 16.536)" fill="#343434" font-size="10" font-family="Poppins-Regular, Poppins"><tspan x="-56.64" y="0">iPAD/Tablet</tspan></text><g transform="translate(382 0) rotate(90)"><rect width="107" height="26" transform="translate(0.536 107) rotate(-90)" fill="#40979e"/><path d="M0,0H200.644V26.787H0Z" transform="translate(0 307.544) rotate(-90)" fill="#2c8389"/><text transform="translate(14.536 211) rotate(-90)" fill="#fff" font-size="10" font-family="Poppins-Regular, Poppins"><tspan x="-8.975" y="0">200</tspan></text><text transform="translate(15.341 56.801) rotate(-90)" fill="#fff" font-size="10" font-family="Poppins-Regular, Poppins"><tspan x="-5.815" y="0">113</tspan></text></g></g><g transform="translate(30 64.43)"><text transform="translate(33 16.357)" fill="#343434" font-size="10" font-family="Poppins-Regular, Poppins"><tspan x="-32.67" y="0">Mobile</tspan></text><g transform="translate(352 0) rotate(90)"><rect width="90" height="27" transform="translate(0.357 90) rotate(-90)" fill="#40979e"/><path d="M0,0H216.834V26.88H0Z" transform="translate(0.211 306.815) rotate(-90)" fill="#2c8389"/><text transform="translate(15.413 45.636) rotate(-90)" fill="#fff" font-size="10" font-family="Poppins-Regular, Poppins"><tspan x="-5.57" y="0">97</tspan></text><text transform="translate(15.349 199.704) rotate(-90)" fill="#fff" font-size="10" font-family="Poppins-Regular, Poppins"><tspan x="-7.58" y="0">169</tspan></text></g></g></g><g transform="translate(95.001 95.458)"><g transform="translate(0 0)"><g transform="translate(0)"><g transform="translate(0)"><rect width="12" height="5" transform="translate(-0.001 4.329)" fill="#2c8389"/><text transform="translate(17 8.329)" fill="#343434" font-size="8" font-family="Poppins-Regular, Poppins"><tspan x="0" y="0">Qualified </tspan></text></g></g><g transform="translate(108.999)"><g transform="translate(0)"><rect width="12" height="5" transform="translate(0.001 4.329)" fill="#40979e"/><text transform="translate(16.001 8.329)" fill="#343434" font-size="8" font-family="Poppins-Regular, Poppins"><tspan x="0" y="0">Disqualified</tspan></text></g></g></g></g></g></g><g transform="translate(655 327)"><g fill="#fff" stroke="#e5e5e5" stroke-width="1"><rect width="265" height="153" rx="5" stroke="none"/><rect x="0.5" y="0.5" width="264" height="152" rx="4.5" fill="none"/></g><text transform="translate(12 20)" font-size="12" font-family="Poppins-SemiBold, Poppins" font-weight="600"><tspan x="0" y="0">resQ Score</tspan></text><g transform="translate(245.499 7)"><path d="M21.13,16.863H17.575a.715.715,0,0,0-.711.711v7.111a.715.715,0,0,0,.711.711h7.111a.715.715,0,0,0,.711-.711V21.13h.94v3.556a1.655,1.655,0,0,1-1.652,1.652H17.575a1.655,1.655,0,0,1-1.652-1.652V17.575a1.655,1.655,0,0,1,1.652-1.652H21.13v.94ZM25.4,18.932h.94V16.393a.47.47,0,0,0-.47-.47H23.328v.94h1.4L20.8,20.8l.665.665L25.4,17.528Z" transform="translate(-15.923 -15.923)" fill="#939393" fill-rule="evenodd"/></g><path d="M0,0H0A5,5,0,0,1,5,5V15a5,5,0,0,1-5,5H0a0,0,0,0,1,0,0V0A0,0,0,0,1,0,0Z" transform="translate(0 5)" fill="#b2558e"/><g transform="translate(31.002 52.599)"><path d="M99.007,279.662a45.431,45.431,0,1,0,45.431,45.431A45.43,45.43,0,0,0,99.007,279.662Zm0,68.992a23.561,23.561,0,1,1,23.561-23.561A23.561,23.561,0,0,1,99.007,348.654Z" transform="translate(-53.577 -277.12)" fill="#f16f4f"/><path d="M158.892,285.308l-7.98,20.361A23.617,23.617,0,0,1,164.7,320.25l20.776-6.827A45.537,45.537,0,0,0,158.892,285.308Z" transform="translate(-96.885 -279.633)" fill="#56619c"/><path d="M184.616,350.142a45.365,45.365,0,0,0-2.27-14.182h0l-20.776,6.827a23.565,23.565,0,0,1-17.691,30.447l4.356,21.434A45.444,45.444,0,0,0,184.616,350.142Z" transform="translate(-93.756 -302.17)" fill="#be568a"/><text transform="translate(17.698 70.875)" fill="#fff" font-size="10" font-family="Poppins-Medium, Poppins" font-weight="500"><tspan x="-9.31" y="0">32%</tspan></text><text transform="translate(71.31 26.646)" fill="#fff" font-size="10" font-family="Poppins-Medium, Poppins" font-weight="500"><tspan x="-8.01" y="0">13%</tspan></text><text transform="translate(75.919 66.644)" fill="#fff" font-size="10" font-family="Poppins-Medium, Poppins" font-weight="500"><tspan x="-9.59" y="0">30%</tspan></text><path d="M37.026,42.847a45.365,45.365,0,0,1-2.27,14.182h0L13.979,50.2a23.524,23.524,0,0,0,1.177-7.355A23.368,23.368,0,0,0,0,20.929L6.547,0C21.722,4.787,37.026,20.856,37.026,42.847Z" transform="matrix(0.061, -0.998, 0.998, 0.061, 3.126, 36.957)" fill="#288c8d"/><text transform="translate(32.717 19.147)" fill="#fff" font-size="10" font-family="Poppins-Medium, Poppins" font-weight="500"><tspan x="-9.46" y="0">25%</tspan></text><g transform="translate(102.529 10.001)"><g transform="translate(0)"><g transform="translate(0)"><rect width="7" height="7" rx="3.5" transform="translate(0 2)" fill="#f58840"/><text transform="translate(12.25 9)" fill="#343434" font-size="9" font-family="Poppins-Regular, Poppins"><tspan x="0" y="0">Inorganic</tspan></text></g><g transform="translate(0 19)"><text transform="translate(12.251 9)" fill="#343434" font-size="9" font-family="Poppins-Regular, Poppins"><tspan x="0" y="0">Least Organic</tspan></text><rect width="7" height="7" rx="3.5" transform="translate(0 2)" fill="#26928f"/></g><g transform="translate(0 39)"><text transform="translate(12.251 9)" fill="#343434" font-size="9" font-family="Poppins-Regular, Poppins"><tspan x="0" y="0">Moderately Organic</tspan></text><rect width="7" height="7" rx="3.5" transform="translate(0 2)" fill="#4c66a1"/></g><g transform="translate(0 58)"><text transform="translate(12.251 9)" fill="#343434" font-size="9" font-family="Poppins-Regular, Poppins"><tspan x="0" y="0">Organic</tspan></text><rect width="7" height="7" rx="3.5" transform="translate(0 3)" fill="#b2558e"/></g></g></g></g></g><g transform="translate(3)"><rect width="919" height="74" fill="#fcfcfc"/><rect width="919" height="1" transform="translate(0 75)" fill="#f0f0f0"/><g transform="translate(662.238 13)"><g fill="#fff" stroke="#eaeaea" stroke-width="1"><rect width="50" height="50" rx="10" stroke="none"/><rect x="0.5" y="0.5" width="49" height="49" rx="9.5" fill="none"/></g><g transform="translate(14.881 14.215)"><g transform="translate(0 0)"><path d="M18.307,7.913l-.361-.874c1.237-2.853,1.156-2.938.914-3.182L17.28,2.281l-.157-.136h-.182c-.1,0-.384,0-2.788,1.112l-.885-.365C12.125,0,12.008,0,11.669,0H9.443C9.108,0,8.978,0,7.92,2.9l-.88.365A14.854,14.854,0,0,0,4.207,2.206H3.995L2.3,3.9c-.261.265-.352.352.957,3.161l-.361.872C0,9.078,0,9.188,0,9.547V11.77c0,.35,0,.473,2.9,1.536l.361.87c-1.237,2.853-1.154,2.938-.914,3.182l1.581,1.578.157.138h.185c.1,0,.38,0,2.786-1.114l.883.367c1.144,2.887,1.26,2.887,1.606,2.887h2.221c.342,0,.462,0,1.525-2.9l.885-.365a14.872,14.872,0,0,0,2.828,1.061h.212L18.933,17.3c.244-.25.329-.337-.972-3.136l.359-.872c2.9-1.154,2.9-1.275,2.9-1.623V9.445C21.216,9.1,21.216,8.972,18.307,7.913Zm-7.7,6.4a3.713,3.713,0,1,1,3.7-3.711,3.713,3.713,0,0,1-3.7,3.711Z" fill="#f05a5c"/></g></g></g><g transform="translate(281.581 13)"><g fill="#fff" stroke="#dedede" stroke-width="1"><rect width="247" height="50" rx="10" stroke="none"/><rect x="0.5" y="0.5" width="246" height="49" rx="9.5" fill="none"/></g><g transform="translate(20.499 15)"><path d="M19.438,20.425a8.03,8.03,0,1,1,.988-.988L25.591,24.6a.7.7,0,0,1-.988.988Zm0-1.979a6.634,6.634,0,1,0-.987.987,6.679,6.679,0,0,0,.987-.987Z" transform="translate(-6.249 -6.249)" fill="#f05a5c" fill-rule="evenodd"/></g><text transform="translate(104 30)" fill="#b1b1b1" font-size="12" font-family="Poppins-Light, Poppins" font-weight="300"><tspan x="-50.61" y="0">Search with data</tspan></text></g><g transform="translate(782 13)"><rect width="137" height="50" rx="10" fill="#ebebeb"/><text transform="translate(53 22)" font-size="14" font-family="Poppins-Light, Poppins" font-weight="300"><tspan x="0" y="0">Richard </tspan></text><text transform="translate(53 38)" fill="#7e7e7e" font-size="12" font-family="Poppins-Light, Poppins" font-weight="300"><tspan x="0" y="0">Director</tspan></text><g transform="translate(117.15 21)"><path d="M30.807,43.462a.656.656,0,0,1-.45-.18l-6.085-5.776a.649.649,0,1,1,.893-.943l5.641,5.353,5.638-5.353a.65.65,0,1,1,.894.943l-6.082,5.776a.652.652,0,0,1-.45.18Z" transform="translate(-24.069 -36.386)"/></g><g transform="translate(0 -33.902)"><path d="M40.368,3.9a6.139,6.139,0,0,1,6.138,6.138V40.368a6.139,6.139,0,0,1-6.138,6.138H10.04A6.139,6.139,0,0,1,3.9,40.368V10.041A6.139,6.139,0,0,1,10.04,3.9ZM29.773,24.84a14.971,14.971,0,0,1,9.744,10.124l0,.005a3.971,3.971,0,0,1-3.826,5.037c-5.281,0-15.7,0-20.983-.043a3.929,3.929,0,0,1-3.776-4.981,14.849,14.849,0,0,1,9.7-10.142,7.943,7.943,0,1,1,9.137,0ZM25.2,26.286A12.651,12.651,0,0,0,13.019,35.56v0a1.762,1.762,0,0,0,1.7,2.234h.009c5.278.043,15.689.043,20.967.043a1.806,1.806,0,0,0,1.741-2.288,12.744,12.744,0,0,0-12.228-9.265Zm0-2.167a5.777,5.777,0,1,0-5.777-5.777A5.779,5.779,0,0,0,25.2,24.119Z" transform="translate(0 34)" fill="#a2a2a2" fill-rule="evenodd"/></g></g><g transform="translate(722.169 13)"><g fill="#fff" stroke="#eaeaea" stroke-width="1"><rect width="50" height="50" rx="10" stroke="none"/><rect x="0.5" y="0.5" width="49" height="49" rx="9.5" fill="none"/></g><g transform="translate(15.191 15.202)"><g transform="translate(0 0)"><path d="M33,33.785A1.418,1.418,0,0,1,31.588,35.2H14.8a1.4,1.4,0,0,1-1.415-1.339,3.5,3.5,0,0,1,3.2-3.561V25.888a6.6,6.6,0,0,1,6.52-6.627h.139a6.6,6.6,0,0,1,6.563,6.627V30.3A3.5,3.5,0,0,1,33,33.785Z" transform="translate(-13.388 -17.383)" fill="#f05a5c"/><path d="M45.328,84.089H42.049a.67.67,0,1,1,0-1.339h3.279a.67.67,0,1,1,0,1.339Z" transform="translate(-33.881 -63.864)" fill="#f05a5c"/><path d="M48.17,15.256a.67.67,0,0,1-.67-.661V12.92a.67.67,0,0,1,1.339,0v1.674A.67.67,0,0,1,48.17,15.256Z" transform="translate(-38.362 -12.25)" fill="#f05a5c"/></g></g></g><g transform="translate(0.472 55.524)" style="isolation:isolate"><g clip-path="url(#f)"><g transform="translate(0.999 1)" style="isolation:isolate"><g clip-path="url(#g)"><text transform="translate(0 6.573)" fill="#8b8c8f" font-size="7" font-family="Poppins-Bold, Poppins" font-weight="700" letter-spacing="0.092em"><tspan x="0" y="0">Target Right, Gain Insight</tspan></text></g></g></g></g><path d="M11.668-26.412A13.777,13.777,0,0,1,15.129-32a7.079,7.079,0,0,1,4.835-1.788,3.367,3.367,0,0,1,.467.028,2.915,2.915,0,0,0,.412.028,16.3,16.3,0,0,0-.247,1.76q-.082.935-.082,2.2v2.7a7.556,7.556,0,0,0,.055.935l-.495.44a5.87,5.87,0,0,0-1.236-.55,5.129,5.129,0,0,0-1.566-.22,4.931,4.931,0,0,0-3.9,1.623,5.6,5.6,0,0,0-1.429,3.823v2.2q0,3.355.082,6.326t.357,5.721a12.048,12.048,0,0,0-1.786-.11H5.953a12.994,12.994,0,0,0-1.813.11q.275-2.75.357-5.721t.082-6.326v-2.2q0-3.355-.082-6.3T4.14-33.233q.934.11,1.9.193t1.9.083q.934,0,1.9-.083t1.9-.193l-.165,6.711Zm20.5,6.491A18.5,18.5,0,0,0,32.6-15.8a10.305,10.305,0,0,0,1.346,3.328,6.621,6.621,0,0,0,2.308,2.2,6.5,6.5,0,0,0,3.269.8,10.258,10.258,0,0,0,6.758-2.475l.659.5L45.735-8.37a11.15,11.15,0,0,1-3.3,1.678,16.582,16.582,0,0,1-5.055.633,17.309,17.309,0,0,1-5.11-.743A10.89,10.89,0,0,1,28.014-9.25,11.975,11.975,0,0,1,25.1-13.568a16.422,16.422,0,0,1-1.071-6.243,18.162,18.162,0,0,1,.962-6.216,12.257,12.257,0,0,1,2.665-4.4,10.889,10.889,0,0,1,4.039-2.64,14.3,14.3,0,0,1,5.083-.88q5.44,0,8.324,3.19t2.885,9.021v1.155a2.522,2.522,0,0,1-.055.66ZM40.625-22.4A21.331,21.331,0,0,0,39.608-29q-.907-2.475-3.05-2.475a2.761,2.761,0,0,0-2.033.825,5.959,5.959,0,0,0-1.319,2.118,14.11,14.11,0,0,0-.742,2.915,27.672,27.672,0,0,0-.3,3.218Zm12.857,8.856a8.5,8.5,0,0,0,.852,1.678,6.347,6.347,0,0,0,1.291,1.43,6.134,6.134,0,0,0,1.841,1.018,7.386,7.386,0,0,0,2.5.385,4.145,4.145,0,0,0,2.967-.99,2.931,2.931,0,0,0,1.044-2.145,2.507,2.507,0,0,0-.934-2.035,10.361,10.361,0,0,0-2.335-1.4q-1.4-.633-3.05-1.293a14.06,14.06,0,0,1-3.05-1.678,8.688,8.688,0,0,1-2.335-2.558,7.545,7.545,0,0,1-.934-3.96,8.712,8.712,0,0,1,.852-3.988,8.053,8.053,0,0,1,2.225-2.75,9.416,9.416,0,0,1,3.1-1.6,11.834,11.834,0,0,1,3.434-.523,11.763,11.763,0,0,1,4.094.66A17.2,17.2,0,0,1,68.7-31.363,14.961,14.961,0,0,0,67.878-29a21.127,21.127,0,0,0-.495,2.475H65.845A7.708,7.708,0,0,0,65.3-27.98a6.218,6.218,0,0,0-1.044-1.513,5.475,5.475,0,0,0-1.593-1.183,4.988,4.988,0,0,0-2.253-.468,4.369,4.369,0,0,0-2.775.88,2.792,2.792,0,0,0-1.126,2.31,2.614,2.614,0,0,0,.962,2.118,9.564,9.564,0,0,0,2.39,1.4q1.429.605,3.132,1.21a13.908,13.908,0,0,1,3.132,1.568,8.22,8.22,0,0,1,2.39,2.5,7.373,7.373,0,0,1,.962,3.96,9.084,9.084,0,0,1-.879,4.153,8.189,8.189,0,0,1-2.363,2.86A9.477,9.477,0,0,1,62.85-6.555a15.705,15.705,0,0,1-3.984.5,13.027,13.027,0,0,1-4.451-.715A14.8,14.8,0,0,1,51.284-8.26a29.29,29.29,0,0,0,.824-5.281Z" transform="translate(-2.436 53.63)" fill="#393939"/><path d="M108.812,20.656c-.551-3.812,3.176-7.239,7.9-4.152,4.584,7.835,2.717,13.468,0,21.278,3.756,3.784,3.529,3.125,6.2,6.346.6,3.67-.843,7.224-6.731,5.646-3.9-4.138-.906-.906-4.99-5.183-11.876,7.527-31.6,7.639-36.82-12.747C73.549,22,75.269,7.75,95.754,4.679c9.155-.9,7.839,9.2,1.959,8.965C95.423,13.43,83.174,16.08,83.189,25.6s7.683,16.088,14.523,15.088S112.983,34.368,108.812,20.656Z" transform="translate(0 1)" fill="url(#h)"/><g transform="translate(602.307 13)"><g fill="#fff" stroke="#ebebeb" stroke-width="1"><rect width="50" height="50" rx="10" stroke="none"/><rect x="0.5" y="0.5" width="49" height="49" rx="9.5" fill="none"/></g><g transform="translate(15 14)"><g transform="translate(0)"><path d="M15.586,18.182A6.657,6.657,0,0,0,14,19.348c-.464.414-2.5,2.644-3.2,3.482-1.007,1.214-.959,1.14-1.068-.339-.028-.383-.1-.761-.145-1.142-.064-.5-.243-.933-.763-1-.848-.109-1.548.082-1.548.8,0,1.869.209,3.619.37,5.514.028.332.013.75.281.986.335.287,1.211.188,1.742.163a29.18,29.18,0,0,0,4.708-.494c.745-.205.74-.812.7-1.42-.018-.271-.191-.806-.636-.827-.679-.032-1.4-.008-1.953,0-.445.006-.591-.042.181-.819,1.1-1.105,2.277-2.173,3.27-3.374a3.16,3.16,0,0,0,.817-1.271C16.871,18.953,16.379,17.882,15.586,18.182ZM27.8,7.074c-.216-.265-.657-.36-2.81-.076a25.453,25.453,0,0,1-3.837.249c-.642-.013-.9.776-.938,1.289a.771.771,0,0,0,.241.677,2.718,2.718,0,0,0,1.262.274c.453.046.908.063,1.361.1-.558.626-1.306,1.527-1.566,1.818-.8.888-1.36,1.565-2.133,2.473-.387.454-1.011,1.057-.752,1.712a1.143,1.143,0,0,0,1.476.558,12.932,12.932,0,0,0,2.056-1.7c.64-.619,1.092-1.191,1.7-1.844.317-.342.678-.806,1.05-1.159,0,0,.114,1.4.125,1.532.1,1.174.842,1.2,1.579,1.177.546-.014.787-.385.914-1,.107-.516.168-2.744.307-4.219C27.876,8.439,28.036,7.367,27.8,7.074Z" transform="translate(-7.276 -6.825)" fill="#f05a5c"/></g><g transform="translate(0 0)"><path d="M19.615,18.182a6.657,6.657,0,0,1,1.59,1.166c.464.414,2.5,2.644,3.2,3.482,1.007,1.214.959,1.14,1.068-.339.028-.383.1-.761.145-1.142.064-.5.243-.933.763-1,.848-.109,1.548.082,1.548.8,0,1.869-.209,3.619-.37,5.514-.028.332-.013.75-.281.986-.335.287-1.211.188-1.742.163a29.18,29.18,0,0,1-4.708-.494c-.745-.205-.74-.812-.7-1.42.018-.271.191-.806.636-.827.679-.032,1.4-.008,1.953,0,.445.006.591-.042-.181-.819-1.1-1.105-2.277-2.173-3.27-3.374a3.16,3.16,0,0,1-.817-1.271C18.33,18.953,18.822,17.882,19.615,18.182ZM7.4,7.074c.216-.265.657-.36,2.81-.076a25.453,25.453,0,0,0,3.837.249c.642-.013.9.776.938,1.289a.771.771,0,0,1-.241.677,2.718,2.718,0,0,1-1.262.274c-.453.046-.908.063-1.361.1.558.626,1.306,1.527,1.566,1.818.8.888,1.36,1.565,2.133,2.473.387.454,1.011,1.057.752,1.712a1.143,1.143,0,0,1-1.476.558,12.933,12.933,0,0,1-2.056-1.7c-.64-.619-1.092-1.191-1.7-1.844-.317-.342-.678-.806-1.05-1.159,0,0-.114,1.4-.125,1.532-.1,1.174-.842,1.2-1.579,1.177-.546-.014-.787-.385-.914-1-.107-.516-.168-2.744-.307-4.219C7.325,8.439,7.165,7.367,7.4,7.074Z" transform="translate(-7.276 -6.825)" fill="#f05a5c"/></g></g></g></g></svg>