<svg xmlns="http://www.w3.org/2000/svg" xmlns:xlink="http://www.w3.org/1999/xlink" width="100%" height="100%" viewBox="0 0 922 480"><defs><filter id="a" x="110.935" y="19.959" width="11.787" height="23.089" filterUnits="userSpaceOnUse"><feOffset dy="3" input="SourceAlpha"/><feGaussianBlur stdDeviation="3" result="b"/><feFlood flood-opacity="0.694" result="c"/><feComposite operator="out" in="SourceGraphic" in2="b"/><feComposite operator="in" in="c"/><feComposite operator="in" in2="SourceGraphic"/></filter><linearGradient id="d" x1="0.954" y1="0.5" x2="0.043" y2="0.5" gradientUnits="objectBoundingBox"><stop offset="0" stop-color="#fff"/><stop offset="1" stop-color="#eaeaea"/></linearGradient><linearGradient id="g" y1="1" x2="1" y2="1" gradientUnits="objectBoundingBox"><stop offset="0" stop-color="#f05b5b"/><stop offset="0.448" stop-color="#efb50a"/><stop offset="1" stop-color="#ffea57"/></linearGradient><filter id="h" x="435.5" y="439.843" width="24" height="24.096" filterUnits="userSpaceOnUse"><feOffset input="SourceAlpha"/><feGaussianBlur stdDeviation="1.5" result="i"/><feFlood flood-opacity="0.059"/><feComposite operator="in" in2="i"/><feComposite in="SourceGraphic"/></filter><linearGradient id="j" x1="1.033" y1="0.5" x2="0.032" y2="0.5" gradientUnits="objectBoundingBox"><stop offset="0" stop-color="#f58b3e"/><stop offset="1" stop-color="#ed595b"/></linearGradient><linearGradient id="k" x1="1.033" y1="0.5" x2="0.032" y2="0.5" gradientUnits="objectBoundingBox"><stop offset="0" stop-color="#fff"/><stop offset="1" stop-color="#ededed"/></linearGradient><clipPath id="l"><rect width="125.271" height="14.476" fill="none"/></clipPath><clipPath id="m"><path d="M0,0H122.274V13.476H0Z" fill="none"/></clipPath><linearGradient id="n" x1="0.527" x2="0.53" y2="1.078" gradientUnits="objectBoundingBox"><stop offset="0" stop-color="#feda00"/><stop offset="0.355" stop-color="#fdada8"/><stop offset="1" stop-color="#f05a5c"/></linearGradient></defs><rect width="918" height="400" transform="translate(0 80)" fill="#fdfdfd"/><g transform="translate(0 174)"><g fill="#fff" stroke="#e5e5e5" stroke-width="1"><rect width="352" height="306" rx="5" stroke="none"/><rect x="0.5" y="0.5" width="351" height="305" rx="4.5" fill="none"/></g><text transform="translate(16 30)" font-size="18" font-family="Poppins-Medium, Poppins" font-weight="500"><tspan x="0" y="0">resQ Templates</tspan></text><path d="M0,0H0A5,5,0,0,1,5,5V15a5,5,0,0,1-5,5H0a0,0,0,0,1,0,0V0A0,0,0,0,1,0,0Z" transform="translate(1 16)" fill="#ed5b58"/><g transform="translate(16 48)"><g fill="#f05b5b" stroke="#f05b5b" stroke-width="1"><rect width="323" height="50" rx="10" stroke="none"/><rect x="0.5" y="0.5" width="322" height="49" rx="9.5" fill="none"/></g><text transform="translate(18 30.87)" fill="#fff" font-size="15" font-family="Poppins-Bold, Poppins" font-weight="700"><tspan x="0" y="0">DFP_PM_2607</tspan></text><path d="M0,0H3A5,5,0,0,1,8,5V22a5,5,0,0,1-5,5H0a0,0,0,0,1,0,0V0A0,0,0,0,1,0,0Z" transform="translate(0 12)" fill="#83e083"/></g><g transform="translate(16 111)"><g stroke="#e3e3e3" stroke-width="1" fill="url(#d)"><rect width="323" height="50" rx="10" stroke="none"/><rect x="0.5" y="0.5" width="322" height="49" rx="9.5" fill="none"/></g><text transform="translate(15 30.87)" font-size="15" font-family="Poppins-Light, Poppins" font-weight="300"><tspan x="0" y="0">DFP_faiz_99</tspan></text></g><g transform="translate(16 174)"><g stroke="#e3e3e3" stroke-width="1" fill="url(#d)"><rect width="323" height="50" rx="10" stroke="none"/><rect x="0.5" y="0.5" width="322" height="49" rx="9.5" fill="none"/></g><text transform="translate(15 30.87)" font-size="15" font-family="Poppins-Light, Poppins" font-weight="300"><tspan x="0" y="0">July-19-2016</tspan></text></g><g transform="translate(16 237)"><g stroke="#e3e3e3" stroke-width="1" fill="url(#d)"><rect width="323" height="50" rx="10" stroke="none"/><rect x="0.5" y="0.5" width="322" height="49" rx="9.5" fill="none"/></g><text transform="translate(15 30.87)" font-size="15" font-family="Poppins-Light, Poppins" font-weight="300"><tspan x="0" y="0">DFP_PM_2607</tspan></text></g></g><g transform="translate(360 174)"><g fill="#fff" stroke="#e5e5e5" stroke-width="1"><rect width="560" height="306" rx="5" stroke="none"/><rect x="0.5" y="0.5" width="559" height="305" rx="4.5" fill="none"/></g><text transform="translate(16 32)" font-size="18" font-family="Poppins-Medium, Poppins" font-weight="500"><tspan x="0" y="0">DFP_PM_2607</tspan></text><path d="M0,0H0A5,5,0,0,1,5,5V15a5,5,0,0,1-5,5H0a0,0,0,0,1,0,0V0A0,0,0,0,1,0,0Z" transform="translate(1 15)" fill="#ed5b58"/><g transform="translate(415.695 15)"><text transform="translate(14.305 14)" font-size="13" font-family="Poppins-Light, Poppins" font-weight="300"><tspan x="0" y="0">Download Reports</tspan></text><g transform="translate(0 3.847)"><path d="M34.739,65.711H42.1a.224.224,0,0,1,.208.208v1.289a.208.208,0,0,1-.208.208H34.739a.224.224,0,0,1-.208-.208V65.919A.208.208,0,0,1,34.739,65.711Z" transform="translate(-34.531 -56.11)" fill="#f05a5c"/><path d="M39.7,35.809a.2.2,0,0,0,.291,0l3.2-3.2a.208.208,0,0,0-.145-.353H40.7V27.708a.208.208,0,0,0-.208-.208H39.2a.208.208,0,0,0-.208.208v4.546h-2.35a.208.208,0,0,0-.145.353Z" transform="translate(-35.956 -27.5)" fill="#f05a5c"/></g></g><g transform="translate(14 50)"><text transform="translate(0 12)" font-size="11" font-family="Poppins-Regular, Poppins"><tspan x="0" y="0">Created by </tspan><tspan font-family="Poppins-Bold, Poppins" font-weight="700"><tspan x="0" y="17">Ashish Kumar Gupta</tspan></tspan></text><text transform="translate(140 12)" font-size="11" font-family="Poppins-Regular, Poppins"><tspan x="0" y="0">Date</tspan><tspan font-family="Poppins-Bold, Poppins" font-weight="700"><tspan x="0" y="17">01/09/2024</tspan></tspan></text><text transform="translate(224 12)" font-size="11" font-family="Poppins-Regular, Poppins"><tspan x="0" y="0">Total Responses</tspan><tspan font-family="Poppins-Bold, Poppins" font-weight="700"><tspan x="0" y="17">1,00,000</tspan></tspan></text><text transform="translate(336 12)" font-size="11" font-family="Poppins-Regular, Poppins"><tspan x="0" y="0">Total Filtered Out </tspan><tspan font-family="Poppins-Bold, Poppins" font-weight="700"><tspan x="0" y="17">71,234</tspan></tspan></text><text transform="translate(454 12)" font-size="11" font-family="Poppins-Regular, Poppins"><tspan x="0" y="0">Total Qualified</tspan><tspan font-family="Poppins-Bold, Poppins" font-weight="700"><tspan x="0" y="17">28,766</tspan></tspan></text></g><g transform="translate(13 248.42)"><path d="M4.856-6.683a4.035,4.035,0,0,0-.667-.052A1.785,1.785,0,0,0,2.38-5.592V.069H1.025V-7.906H2.344l.022.921a2.107,2.107,0,0,1,1.89-1.069,1.376,1.376,0,0,1,.6.1ZM9.39.217A3.451,3.451,0,0,1,6.768-.848,3.968,3.968,0,0,1,5.757-3.7v-.251a4.812,4.812,0,0,1,.45-2.119,3.53,3.53,0,0,1,1.26-1.46,3.153,3.153,0,0,1,1.754-.527,2.959,2.959,0,0,1,2.4,1.025A4.456,4.456,0,0,1,12.48-4.1v.568H7.112A2.846,2.846,0,0,0,7.8-1.622,2.146,2.146,0,0,0,9.463-.9a2.348,2.348,0,0,0,1.216-.295,3.061,3.061,0,0,0,.872-.781l.828.649A3.322,3.322,0,0,1,9.39.217Zm-.168-7.15a1.8,1.8,0,0,0-1.377.6,2.93,2.93,0,0,0-.688,1.684h3.97v-.1a2.608,2.608,0,0,0-.557-1.611A1.7,1.7,0,0,0,9.221-6.933Zm9.441,4.887a1.006,1.006,0,0,0-.414-.859,3.968,3.968,0,0,0-1.443-.527,6.791,6.791,0,0,1-1.633-.531,2.327,2.327,0,0,1-.894-.737,1.771,1.771,0,0,1-.289-1.017,2.074,2.074,0,0,1,.824-1.659,3.2,3.2,0,0,1,2.106-.678,3.3,3.3,0,0,1,2.186.7,2.23,2.23,0,0,1,.839,1.791H18.582a1.234,1.234,0,0,0-.472-.966,1.763,1.763,0,0,0-1.19-.405,1.844,1.844,0,0,0-1.157.324,1.023,1.023,0,0,0-.417.848.829.829,0,0,0,.388.744,4.756,4.756,0,0,0,1.4.479,7.276,7.276,0,0,1,1.644.545,2.4,2.4,0,0,1,.934.763,1.885,1.885,0,0,1,.3,1.087,2.046,2.046,0,0,1-.85,1.714,3.548,3.548,0,0,1-2.2.645,3.969,3.969,0,0,1-1.685-.339,2.744,2.744,0,0,1-1.146-.947,2.293,2.293,0,0,1-.414-1.316h1.355A1.415,1.415,0,0,0,15.619-1.3a2.107,2.107,0,0,0,1.344.4A2.174,2.174,0,0,0,18.2-1.209.964.964,0,0,0,18.662-2.046Zm11.477-2.9a6.666,6.666,0,0,1-.491,2.679A4.136,4.136,0,0,1,28.271-.513l1.9,1.5-.959.892L26.968.084a4.548,4.548,0,0,1-1.113.133,4.056,4.056,0,0,1-2.234-.623,4.109,4.109,0,0,1-1.512-1.776,6.405,6.405,0,0,1-.553-2.672v-.774a6.6,6.6,0,0,1,.535-2.735A4.1,4.1,0,0,1,23.6-10.18a4.039,4.039,0,0,1,2.238-.63,4.109,4.109,0,0,1,2.267.627,4.035,4.035,0,0,1,1.505,1.8,6.657,6.657,0,0,1,.527,2.746Zm-1.406-.693a4.894,4.894,0,0,0-.751-2.923A2.493,2.493,0,0,0,25.84-9.594a2.473,2.473,0,0,0-2.091,1.021,4.735,4.735,0,0,0-.787,2.834v.789a4.88,4.88,0,0,0,.765,2.9A2.476,2.476,0,0,0,25.854-.985a2.48,2.48,0,0,0,2.109-1,4.815,4.815,0,0,0,.769-2.864Zm10.43.929A6.6,6.6,0,0,1,36.53-6a2.465,2.465,0,0,1-.824-1.883,2.6,2.6,0,0,1,1.007-2.1,3.985,3.985,0,0,1,2.618-.829,4.346,4.346,0,0,1,1.959.428A3.228,3.228,0,0,1,42.623-9.2,3.03,3.03,0,0,1,43.1-7.56H41.682a1.958,1.958,0,0,0-.615-1.53,2.5,2.5,0,0,0-1.736-.557,2.553,2.553,0,0,0-1.622.461,1.54,1.54,0,0,0-.582,1.279A1.385,1.385,0,0,0,37.679-6.8a5.412,5.412,0,0,0,1.882.829,8.685,8.685,0,0,1,2.08.829,3.165,3.165,0,0,1,1.113,1.058,2.713,2.713,0,0,1,.363,1.423,2.513,2.513,0,0,1-1.011,2.09,4.29,4.29,0,0,1-2.7.785,4.985,4.985,0,0,1-2.051-.424,3.455,3.455,0,0,1-1.469-1.161,2.846,2.846,0,0,1-.516-1.673h1.414A1.853,1.853,0,0,0,37.5-1.5,2.993,2.993,0,0,0,39.4-.94,2.751,2.751,0,0,0,41.111-1.4,1.488,1.488,0,0,0,41.7-2.643a1.461,1.461,0,0,0-.549-1.22A6.313,6.313,0,0,0,39.163-4.715ZM47.886-.9a1.944,1.944,0,0,0,1.267-.442,1.559,1.559,0,0,0,.6-1.106h1.282a2.483,2.483,0,0,1-.469,1.3,3.093,3.093,0,0,1-1.154.988,3.311,3.311,0,0,1-1.527.369A3.255,3.255,0,0,1,45.311-.87a4.348,4.348,0,0,1-.956-2.974v-.229a4.828,4.828,0,0,1,.425-2.071A3.25,3.25,0,0,1,46-7.552a3.447,3.447,0,0,1,1.879-.5,3.166,3.166,0,0,1,2.216.8,2.879,2.879,0,0,1,.941,2.086H49.753a1.884,1.884,0,0,0-.582-1.272,1.8,1.8,0,0,0-1.293-.5,1.892,1.892,0,0,0-1.6.748,3.53,3.53,0,0,0-.568,2.163v.258a3.46,3.46,0,0,0,.564,2.123A1.9,1.9,0,0,0,47.886-.9Zm4.314-3.1A4.736,4.736,0,0,1,52.657-6.1a3.43,3.43,0,0,1,1.274-1.445A3.452,3.452,0,0,1,55.8-8.054a3.332,3.332,0,0,1,2.618,1.128,4.357,4.357,0,0,1,1,3v.1a4.778,4.778,0,0,1-.443,2.09A3.379,3.379,0,0,1,57.7-.3a3.492,3.492,0,0,1-1.893.516A3.324,3.324,0,0,1,53.2-.911a4.334,4.334,0,0,1-1-2.985Zm1.362.162a3.428,3.428,0,0,0,.612,2.13,1.953,1.953,0,0,0,1.637.8,1.941,1.941,0,0,0,1.641-.815,3.749,3.749,0,0,0,.608-2.281,3.422,3.422,0,0,0-.619-2.127A1.963,1.963,0,0,0,55.8-6.933a1.941,1.941,0,0,0-1.619.8A3.721,3.721,0,0,0,53.562-3.83ZM64.944-6.683a4.035,4.035,0,0,0-.667-.052,1.785,1.785,0,0,0-1.809,1.143V.069H61.113V-7.906h1.318l.022.921a2.107,2.107,0,0,1,1.89-1.069,1.376,1.376,0,0,1,.6.1Zm4.534,6.9A3.451,3.451,0,0,1,66.855-.848,3.968,3.968,0,0,1,65.845-3.7v-.251a4.812,4.812,0,0,1,.45-2.119,3.53,3.53,0,0,1,1.26-1.46,3.153,3.153,0,0,1,1.754-.527,2.959,2.959,0,0,1,2.4,1.025A4.456,4.456,0,0,1,72.568-4.1v.568H67.2a2.846,2.846,0,0,0,.685,1.905A2.146,2.146,0,0,0,69.551-.9a2.348,2.348,0,0,0,1.216-.295,3.061,3.061,0,0,0,.872-.781l.828.649A3.322,3.322,0,0,1,69.478.217Zm-.168-7.15a1.8,1.8,0,0,0-1.377.6,2.93,2.93,0,0,0-.688,1.684h3.97v-.1a2.608,2.608,0,0,0-.557-1.611A1.7,1.7,0,0,0,69.309-6.933Z" transform="translate(1 12.789)"/><g transform="translate(0 21.923)"><g transform="translate(2)"><g transform="translate(0 5.032)"><g fill="#fff" stroke="#cfcfcf" stroke-width="0.5"><rect width="195" height="5.032" rx="1" stroke="none"/><rect x="0.25" y="0.25" width="194.5" height="4.532" rx="0.75" fill="none"/></g><path d="M1,0H226a0,0,0,0,1,0,0V5.032a0,0,0,0,1,0,0H1a1,1,0,0,1-1-1V1A1,1,0,0,1,1,0Z" fill="#d9d9d9"/><path d="M1,0H72a0,0,0,0,1,0,0V5.032a0,0,0,0,1,0,0H1a1,1,0,0,1-1-1V1A1,1,0,0,1,1,0Z" fill="url(#g)"/></g><g transform="matrix(1, 0, 0, 1, -375, -444.34)" filter="url(#h)"><g transform="translate(440 444.34)" fill="#fff" stroke="#d5d5d5" stroke-width="1"><ellipse cx="7.5" cy="7.548" rx="7.5" ry="7.548" stroke="none"/><ellipse cx="7.5" cy="7.548" rx="7" ry="7.048" fill="none"/></g></g></g><g transform="translate(0 17.657)"><text transform="translate(0 7)" fill="#e9483e" font-size="7" font-family="Poppins-Regular, Poppins"><tspan x="0" y="0">Inorganic</tspan></text><text transform="translate(50.001 7)" fill="#e0aa21" font-size="7" font-family="Poppins-Regular, Poppins"><tspan x="0" y="0">Least Organic</tspan></text><text transform="translate(200 7)" fill="#46ac1e" font-size="7" font-family="Poppins-Regular, Poppins"><tspan x="0" y="0">Organic</tspan></text><text transform="translate(113.999 7)" fill="#ed8633" font-size="7" font-family="Poppins-Regular, Poppins"><tspan x="0" y="0">Moderately Organic</tspan></text></g></g><g transform="translate(80.226)"><path d="M148.027,305.64a6.506,6.506,0,1,1,6.836-6.5,6.681,6.681,0,0,1-6.836,6.5m8.186-8.1a8.264,8.264,0,0,0-8.183-6.341H134.352a7.952,7.952,0,1,0,0,15.884h13.679a8.154,8.154,0,0,0,8.352-7.942,7.581,7.581,0,0,0-.17-1.6" transform="translate(-125.999 -291.201)" fill="#f05b5b" fill-rule="evenodd"/></g></g><g transform="translate(14 197.021)"><path d="M7.119-4.667H2.644V.072H1.238V-10.66H7.844V-9.5h-5.2v3.671H7.119ZM10.789.072H9.434V-7.9h1.355ZM9.324-10.019a.817.817,0,0,1,.2-.56.754.754,0,0,1,.6-.229.765.765,0,0,1,.6.229.808.808,0,0,1,.205.56.782.782,0,0,1-.205.553.779.779,0,0,1-.6.221.767.767,0,0,1-.6-.221A.79.79,0,0,1,9.324-10.019ZM14.429.072H13.074V-11.25h1.355Zm4.006-9.907V-7.9h1.479v1.054H18.435V-1.9a1.11,1.11,0,0,0,.2.719.83.83,0,0,0,.674.24,3.261,3.261,0,0,0,.645-.088V.072a3.9,3.9,0,0,1-1.04.147,1.682,1.682,0,0,1-1.37-.553A2.386,2.386,0,0,1,17.08-1.9V-6.849H15.637V-7.9H17.08V-9.835ZM24.785.22A3.451,3.451,0,0,1,22.163-.845a3.968,3.968,0,0,1-1.011-2.849v-.251a4.812,4.812,0,0,1,.45-2.119,3.53,3.53,0,0,1,1.26-1.46,3.153,3.153,0,0,1,1.754-.527,2.959,2.959,0,0,1,2.4,1.025,4.456,4.456,0,0,1,.857,2.934v.568H22.507a2.846,2.846,0,0,0,.685,1.905,2.146,2.146,0,0,0,1.666.726,2.348,2.348,0,0,0,1.216-.295,3.061,3.061,0,0,0,.872-.781l.828.649A3.322,3.322,0,0,1,24.785.22Zm-.168-7.15a1.8,1.8,0,0,0-1.377.6,2.93,2.93,0,0,0-.688,1.684h3.97v-.1a2.608,2.608,0,0,0-.557-1.611A1.7,1.7,0,0,0,24.617-6.93Zm8.657.251a4.035,4.035,0,0,0-.667-.052A1.785,1.785,0,0,0,30.8-5.589V.072H29.443V-7.9h1.318l.022.921a2.107,2.107,0,0,1,1.89-1.069,1.376,1.376,0,0,1,.6.1ZM44.941-3.827A4.764,4.764,0,0,1,44.106-.89,2.662,2.662,0,0,1,41.865.22,2.756,2.756,0,0,1,39.543-.849l-.066.921H38.232V-11.25h1.355v4.224a2.74,2.74,0,0,1,2.263-1.025,2.678,2.678,0,0,1,2.267,1.1,4.908,4.908,0,0,1,.824,3.007Zm-1.355-.155a3.7,3.7,0,0,0-.535-2.152,1.766,1.766,0,0,0-1.538-.759A1.989,1.989,0,0,0,39.587-5.64v3.45A2.044,2.044,0,0,0,41.528-.938,1.757,1.757,0,0,0,43.044-1.7,3.938,3.938,0,0,0,43.586-3.982Zm5.654,2.057L51.086-7.9h1.45L49.351,1.3q-.74,1.99-2.351,1.99l-.256-.022-.505-.1V2.07L46.6,2.1a1.794,1.794,0,0,0,1.073-.28A2.029,2.029,0,0,0,48.311.795l.3-.811L45.784-7.9h1.479Zm7.888-2.057a4.693,4.693,0,0,1,.864-2.952,2.727,2.727,0,0,1,2.263-1.117,2.741,2.741,0,0,1,2.2.958V-11.25h1.355V.072H62.571L62.5-.783a2.752,2.752,0,0,1-2.263,1A2.7,2.7,0,0,1,58-.915a4.747,4.747,0,0,1-.868-2.963Zm1.355.155A3.555,3.555,0,0,0,59.041-1.7a1.8,1.8,0,0,0,1.538.767A1.975,1.975,0,0,0,62.461-2.1V-5.766a1.99,1.99,0,0,0-1.868-1.128,1.8,1.8,0,0,0-1.553.774A3.914,3.914,0,0,0,58.484-3.827ZM69.207.22A3.451,3.451,0,0,1,66.584-.845a3.968,3.968,0,0,1-1.011-2.849v-.251a4.812,4.812,0,0,1,.45-2.119,3.53,3.53,0,0,1,1.26-1.46,3.153,3.153,0,0,1,1.754-.527,2.959,2.959,0,0,1,2.4,1.025A4.456,4.456,0,0,1,72.3-4.092v.568H66.929a2.846,2.846,0,0,0,.685,1.905,2.146,2.146,0,0,0,1.666.726A2.348,2.348,0,0,0,70.5-1.188a3.061,3.061,0,0,0,.872-.781l.828.649A3.322,3.322,0,0,1,69.207.22Zm-.168-7.15a1.8,1.8,0,0,0-1.377.6,2.93,2.93,0,0,0-.688,1.684h3.97v-.1a2.608,2.608,0,0,0-.557-1.611A1.7,1.7,0,0,0,69.038-6.93Zm7.346,5.153L78.347-7.9h1.384L76.89.072H75.857L72.986-7.9H74.37ZM82.507.072H81.152V-7.9h1.355ZM81.042-10.019a.817.817,0,0,1,.2-.56.754.754,0,0,1,.6-.229.765.765,0,0,1,.6.229.808.808,0,0,1,.205.56.782.782,0,0,1-.205.553.779.779,0,0,1-.6.221.767.767,0,0,1-.6-.221A.79.79,0,0,1,81.042-10.019ZM87.854-.893a1.944,1.944,0,0,0,1.267-.442,1.559,1.559,0,0,0,.6-1.106H91a2.483,2.483,0,0,1-.469,1.3,3.093,3.093,0,0,1-1.154.988A3.311,3.311,0,0,1,87.854.22,3.255,3.255,0,0,1,85.28-.868a4.348,4.348,0,0,1-.956-2.974V-4.07a4.828,4.828,0,0,1,.425-2.071A3.25,3.25,0,0,1,85.968-7.55a3.447,3.447,0,0,1,1.879-.5,3.166,3.166,0,0,1,2.216.8A2.879,2.879,0,0,1,91-5.161H89.722a1.884,1.884,0,0,0-.582-1.272,1.8,1.8,0,0,0-1.293-.5,1.892,1.892,0,0,0-1.6.748,3.53,3.53,0,0,0-.568,2.163v.258a3.46,3.46,0,0,0,.564,2.123A1.9,1.9,0,0,0,87.854-.893ZM95.815.22A3.451,3.451,0,0,1,93.193-.845a3.968,3.968,0,0,1-1.011-2.849v-.251a4.812,4.812,0,0,1,.45-2.119,3.53,3.53,0,0,1,1.26-1.46,3.153,3.153,0,0,1,1.754-.527,2.959,2.959,0,0,1,2.4,1.025,4.456,4.456,0,0,1,.857,2.934v.568H93.538a2.846,2.846,0,0,0,.685,1.905,2.146,2.146,0,0,0,1.666.726A2.348,2.348,0,0,0,97.1-1.188a3.061,3.061,0,0,0,.872-.781l.828.649A3.322,3.322,0,0,1,95.815.22Zm-.168-7.15a1.8,1.8,0,0,0-1.377.6,2.93,2.93,0,0,0-.688,1.684h3.97v-.1a2.608,2.608,0,0,0-.557-1.611A1.7,1.7,0,0,0,95.647-6.93Z" transform="translate(-0.376 12.59)"/><g transform="translate(0 23.826)"><path d="M2.443-8.531,5.232-1.57,8.021-8.531H9.48V0H8.355V-3.322l.105-3.586L5.66,0H4.8L2-6.891l.111,3.568V0H.99V-8.531Zm8.566,5.3A3.745,3.745,0,0,1,11.376-4.9,2.732,2.732,0,0,1,12.4-6.053a2.775,2.775,0,0,1,1.491-.4,2.674,2.674,0,0,1,2.095.9,3.449,3.449,0,0,1,.8,2.385V-3.1a3.777,3.777,0,0,1-.354,1.661A2.692,2.692,0,0,1,15.413-.293,2.807,2.807,0,0,1,13.9.117a2.667,2.667,0,0,1-2.089-.9,3.432,3.432,0,0,1-.8-2.373ZM12.1-3.1a2.712,2.712,0,0,0,.489,1.693,1.566,1.566,0,0,0,1.31.639,1.556,1.556,0,0,0,1.313-.647A2.966,2.966,0,0,0,15.7-3.229a2.708,2.708,0,0,0-.5-1.69,1.574,1.574,0,0,0-1.315-.647,1.557,1.557,0,0,0-1.295.639A2.944,2.944,0,0,0,12.1-3.1Zm11.408,0A3.77,3.77,0,0,1,22.84-.765a2.134,2.134,0,0,1-1.793.882,2.21,2.21,0,0,1-1.857-.85L19.137,0h-1V-9h1.084v3.357a2.2,2.2,0,0,1,1.811-.814,2.147,2.147,0,0,1,1.813.873,3.883,3.883,0,0,1,.659,2.391Zm-1.084-.123A2.929,2.929,0,0,0,22-4.934a1.416,1.416,0,0,0-1.23-.6,1.591,1.591,0,0,0-1.541,1V-1.8a1.636,1.636,0,0,0,1.553,1,1.408,1.408,0,0,0,1.213-.6A3.115,3.115,0,0,0,22.424-3.223ZM26.051,0H24.967V-6.34h1.084ZM24.879-8.021a.647.647,0,0,1,.161-.445.6.6,0,0,1,.478-.182.614.614,0,0,1,.48.182.64.64,0,0,1,.164.445A.619.619,0,0,1,26-7.582a.626.626,0,0,1-.48.176.616.616,0,0,1-.478-.176A.626.626,0,0,1,24.879-8.021ZM28.963,0H27.879V-9h1.084Zm4.365.117a2.77,2.77,0,0,1-2.1-.847,3.142,3.142,0,0,1-.809-2.265v-.2a3.8,3.8,0,0,1,.36-1.685,2.811,2.811,0,0,1,1.008-1.16,2.534,2.534,0,0,1,1.4-.419,2.374,2.374,0,0,1,1.922.814A3.526,3.526,0,0,1,35.8-3.311v.451H31.506a2.254,2.254,0,0,0,.548,1.515,1.722,1.722,0,0,0,1.333.577A1.888,1.888,0,0,0,34.359-1a2.444,2.444,0,0,0,.7-.621l.662.516A2.662,2.662,0,0,1,33.328.117Zm-.135-5.684a1.446,1.446,0,0,0-1.1.478,2.321,2.321,0,0,0-.551,1.339h3.176v-.082a2.065,2.065,0,0,0-.445-1.28A1.361,1.361,0,0,0,33.193-5.566Z" transform="translate(18.624 12)" fill="#424242"/><path d="M179.7,98h-8.917A2.789,2.789,0,0,0,168,100.787V109.7a2.789,2.789,0,0,0,2.787,2.787H179.7a2.789,2.789,0,0,0,2.787-2.787v-8.917A2.789,2.789,0,0,0,179.7,98Zm1.672,11.7a1.674,1.674,0,0,1-1.672,1.672h-8.917a1.674,1.674,0,0,1-1.672-1.672v-8.917a1.674,1.674,0,0,1,1.672-1.672H179.7a1.674,1.674,0,0,1,1.672,1.672Z" transform="translate(-168 -98)" fill="#ccc"/></g><g transform="translate(83.999 23.826)"><path d="M2.2,0H1.072V-8.531H2.2ZM9.439-3.1A3.8,3.8,0,0,1,8.777-.768,2.122,2.122,0,0,1,6.984.117,2.325,2.325,0,0,1,5.168-.615V2.438H4.084V-6.34h.99l.053.7a2.233,2.233,0,0,1,1.84-.82A2.162,2.162,0,0,1,8.774-5.6a3.838,3.838,0,0,1,.665,2.4ZM8.355-3.223A2.8,2.8,0,0,0,7.9-4.916a1.472,1.472,0,0,0-1.254-.621,1.593,1.593,0,0,0-1.477.873v3.029a1.6,1.6,0,0,0,1.488.867A1.465,1.465,0,0,0,7.9-1.386,3.058,3.058,0,0,0,8.355-3.223ZM14.73,0a2.277,2.277,0,0,1-.152-.668,2.419,2.419,0,0,1-1.8.785,2.238,2.238,0,0,1-1.538-.53,1.716,1.716,0,0,1-.6-1.345A1.792,1.792,0,0,1,11.388-3.3a3.55,3.55,0,0,1,2.118-.548h1.055v-.5a1.217,1.217,0,0,0-.34-.905,1.366,1.366,0,0,0-1-.337,1.581,1.581,0,0,0-.973.293.863.863,0,0,0-.393.709h-1.09A1.5,1.5,0,0,1,11.1-5.5a2.3,2.3,0,0,1,.914-.7,3.075,3.075,0,0,1,1.269-.258A2.506,2.506,0,0,1,15-5.909,1.976,1.976,0,0,1,15.645-4.4v2.918a3.567,3.567,0,0,0,.223,1.389V0Zm-1.8-.826A1.905,1.905,0,0,0,13.9-1.09a1.6,1.6,0,0,0,.662-.686v-1.3h-.85q-1.992,0-1.992,1.166a.987.987,0,0,0,.34.8A1.306,1.306,0,0,0,12.932-.826Zm4.148-2.4a3.714,3.714,0,0,1,.691-2.347,2.186,2.186,0,0,1,1.811-.888,2.2,2.2,0,0,1,1.764.762V-9H22.43V0h-1l-.053-.68a2.208,2.208,0,0,1-1.811.8,2.165,2.165,0,0,1-1.8-.9,3.756,3.756,0,0,1-.694-2.355Zm1.084.123a2.812,2.812,0,0,0,.445,1.688A1.44,1.44,0,0,0,19.84-.8a1.581,1.581,0,0,0,1.506-.926V-4.641a1.593,1.593,0,0,0-1.494-.9,1.446,1.446,0,0,0-1.242.615A3.1,3.1,0,0,0,18.164-3.1ZM24.328.732H23.4l3.563-9.264h.926ZM35.121-7.605H32.379V0H31.26V-7.605H28.523v-.926h6.6ZM39.469,0a2.277,2.277,0,0,1-.152-.668,2.419,2.419,0,0,1-1.8.785,2.238,2.238,0,0,1-1.538-.53,1.716,1.716,0,0,1-.6-1.345A1.792,1.792,0,0,1,36.126-3.3a3.55,3.55,0,0,1,2.118-.548H39.3v-.5a1.217,1.217,0,0,0-.34-.905,1.366,1.366,0,0,0-1-.337,1.581,1.581,0,0,0-.973.293.863.863,0,0,0-.393.709H35.5a1.5,1.5,0,0,1,.337-.917,2.3,2.3,0,0,1,.914-.7,3.075,3.075,0,0,1,1.269-.258,2.506,2.506,0,0,1,1.717.548A1.976,1.976,0,0,1,40.383-4.4v2.918a3.567,3.567,0,0,0,.223,1.389V0Zm-1.8-.826a1.905,1.905,0,0,0,.967-.264,1.6,1.6,0,0,0,.662-.686v-1.3h-.85q-1.992,0-1.992,1.166a.987.987,0,0,0,.34.8A1.306,1.306,0,0,0,37.67-.826ZM47.449-3.1a3.77,3.77,0,0,1-.668,2.335,2.134,2.134,0,0,1-1.793.882,2.21,2.21,0,0,1-1.857-.85L43.078,0h-1V-9h1.084v3.357a2.2,2.2,0,0,1,1.811-.814,2.147,2.147,0,0,1,1.813.873,3.883,3.883,0,0,1,.659,2.391Zm-1.084-.123a2.929,2.929,0,0,0-.428-1.711,1.416,1.416,0,0,0-1.23-.6,1.591,1.591,0,0,0-1.541,1V-1.8a1.636,1.636,0,0,0,1.553,1,1.408,1.408,0,0,0,1.213-.6A3.115,3.115,0,0,0,46.365-3.223ZM49.992,0H48.908V-9h1.084Zm4.365.117a2.77,2.77,0,0,1-2.1-.847,3.142,3.142,0,0,1-.809-2.265v-.2a3.8,3.8,0,0,1,.36-1.685,2.811,2.811,0,0,1,1.008-1.16,2.534,2.534,0,0,1,1.4-.419,2.374,2.374,0,0,1,1.922.814,3.526,3.526,0,0,1,.686,2.332v.451H52.535a2.254,2.254,0,0,0,.548,1.515,1.722,1.722,0,0,0,1.333.577A1.888,1.888,0,0,0,55.389-1a2.444,2.444,0,0,0,.7-.621l.662.516A2.662,2.662,0,0,1,54.357.117Zm-.135-5.684a1.446,1.446,0,0,0-1.1.478A2.321,2.321,0,0,0,52.57-3.75h3.176v-.082a2.065,2.065,0,0,0-.445-1.28A1.361,1.361,0,0,0,54.223-5.566Zm5.332-2.309V-6.34h1.184V-5.5H59.555V-1.57A.878.878,0,0,0,59.713-1a.666.666,0,0,0,.539.19,2.624,2.624,0,0,0,.516-.07V0a3.143,3.143,0,0,1-.832.117,1.35,1.35,0,0,1-1.1-.439,1.888,1.888,0,0,1-.369-1.248V-5.5H57.316V-6.34h1.154V-7.875Z" transform="translate(18.624 12)" fill="#424242"/><path d="M179.7,98h-8.917A2.789,2.789,0,0,0,168,100.787V109.7a2.789,2.789,0,0,0,2.787,2.787H179.7a2.789,2.789,0,0,0,2.787-2.787v-8.917A2.789,2.789,0,0,0,179.7,98Zm1.672,11.7a1.674,1.674,0,0,1-1.672,1.672h-8.917a1.674,1.674,0,0,1-1.672-1.672v-8.917a1.674,1.674,0,0,1,1.672-1.672H179.7a1.674,1.674,0,0,1,1.672,1.672Z" transform="translate(-168 -98)" fill="#ccc"/></g><g transform="translate(193 23.826)"><path d="M2.115-3.34V0H.99V-8.531H4.137a3.161,3.161,0,0,1,2.194.715,2.423,2.423,0,0,1,.794,1.893,2.391,2.391,0,0,1-.776,1.913,3.3,3.3,0,0,1-2.224.671Zm0-.92H4.137A2.023,2.023,0,0,0,5.52-4.685,1.552,1.552,0,0,0,6-5.912a1.6,1.6,0,0,0-.48-1.219A1.9,1.9,0,0,0,4.2-7.605H2.115ZM14.836-2.707a3.139,3.139,0,0,1-1,2.089A3.274,3.274,0,0,1,11.6.117,3.006,3.006,0,0,1,9.179-.967a4.361,4.361,0,0,1-.911-2.9v-.82a4.861,4.861,0,0,1,.425-2.092A3.173,3.173,0,0,1,9.9-8.165a3.353,3.353,0,0,1,1.8-.483,3.083,3.083,0,0,1,2.18.759,3.176,3.176,0,0,1,.955,2.1H13.705a2.44,2.44,0,0,0-.636-1.477A1.927,1.927,0,0,0,11.7-7.723a2.013,2.013,0,0,0-1.69.8A3.656,3.656,0,0,0,9.4-4.658v.826a3.758,3.758,0,0,0,.58,2.209A1.875,1.875,0,0,0,11.6-.8a2.165,2.165,0,0,0,1.438-.425,2.357,2.357,0,0,0,.665-1.479Z" transform="translate(18.624 12)" fill="#424242"/><path d="M179.7,98h-8.917A2.789,2.789,0,0,0,168,100.787V109.7a2.789,2.789,0,0,0,2.787,2.787H179.7a2.789,2.789,0,0,0,2.787-2.787v-8.917A2.789,2.789,0,0,0,179.7,98Zm1.672,11.7a1.674,1.674,0,0,1-1.672,1.672h-8.917a1.674,1.674,0,0,1-1.672-1.672v-8.917a1.674,1.674,0,0,1,1.672-1.672H179.7a1.674,1.674,0,0,1,1.672,1.672Z" transform="translate(-168 -98)" fill="#ccc"/></g><g transform="translate(104.227)"><path d="M148.027,305.64a6.506,6.506,0,1,1,6.836-6.5,6.681,6.681,0,0,1-6.836,6.5m8.186-8.1a8.264,8.264,0,0,0-8.183-6.341H134.352a7.952,7.952,0,1,0,0,15.884h13.679a8.154,8.154,0,0,0,8.352-7.942,7.581,7.581,0,0,0-.17-1.6" transform="translate(-125.999 -291.201)" fill="#f05b5b" fill-rule="evenodd"/></g></g><g transform="translate(257.002 105.947)"><g transform="translate(0 23)"><g transform="translate(0 19)"><g fill="#fff" stroke="#e5e5e5" stroke-width="1"><rect width="293" height="49.953" rx="3" stroke="none"/><rect x="0.5" y="0.5" width="292" height="48.953" rx="2.5" fill="none"/></g><text transform="translate(7.359 5.172)" fill="#8d8d8d" font-size="8" font-family="Poppins-Medium, Poppins" font-weight="500"><tspan x="0" y="8">Note : </tspan><tspan y="8" font-family="Poppins-Regular, Poppins" font-weight="400">Duplicate IP addresses will be prohibited in a typical network </tspan><tspan x="0" y="18" font-family="Poppins-Regular, Poppins" font-weight="400">configuration. IP addresses are unique identifiers assigned to devices </tspan><tspan x="0" y="28" font-family="Poppins-Regular, Poppins" font-weight="400">on a network, and duplicate IP addresses can cause conflicts &amp; </tspan><tspan x="0" y="38" font-family="Poppins-Regular, Poppins" font-weight="400">connectivity issues.</tspan></text></g><g transform="translate(0.454)"><text transform="translate(14.546 9)" fill="#424242" font-size="9" font-family="Roboto-Regular, Roboto"><tspan x="0" y="0">Restrict duplicate IP for entire survey</tspan></text><g transform="translate(0 1.366)"><path d="M130.69,57.264a3.99,3.99,0,1,1-3.985,3.99,4,4,0,0,1,3.985-3.99m0-.706a4.7,4.7,0,1,0,4.7,4.7A4.691,4.691,0,0,0,130.69,56.558Z" transform="translate(-126 -56.558)" fill="#a5a5a5"/></g></g></g><g transform="translate(1.23)"><path d="M5.149-4.314h-2.5V0H1.23V-10.664h3.53a4.178,4.178,0,0,1,2.772.82A2.951,2.951,0,0,1,8.5-7.456,2.871,2.871,0,0,1,7.965-5.72a3.214,3.214,0,0,1-1.5,1.106l2.5,4.526V0H7.463Zm-2.5-1.15H4.8a2.44,2.44,0,0,0,1.666-.542,1.831,1.831,0,0,0,.619-1.45A1.928,1.928,0,0,0,6.5-8.972a2.5,2.5,0,0,0-1.7-.535H2.644ZM13.55.146A3.463,3.463,0,0,1,10.928-.912,3.928,3.928,0,0,1,9.917-3.743v-.249a4.756,4.756,0,0,1,.45-2.106,3.514,3.514,0,0,1,1.26-1.45,3.167,3.167,0,0,1,1.754-.524,2.968,2.968,0,0,1,2.4,1.018,4.408,4.408,0,0,1,.857,2.915v.564H11.272a2.817,2.817,0,0,0,.685,1.893,2.153,2.153,0,0,0,1.666.721,2.36,2.36,0,0,0,1.216-.293,3.055,3.055,0,0,0,.872-.776l.828.645A3.328,3.328,0,0,1,13.55.146Zm-.168-7.1a1.807,1.807,0,0,0-1.377.6,2.9,2.9,0,0,0-.688,1.674h3.97v-.1a2.581,2.581,0,0,0-.557-1.6A1.7,1.7,0,0,0,13.381-6.958ZM22.822-2.1a1,1,0,0,0-.414-.853,3.983,3.983,0,0,0-1.443-.524,6.822,6.822,0,0,1-1.633-.527,2.324,2.324,0,0,1-.894-.732,1.752,1.752,0,0,1-.289-1.011A2.056,2.056,0,0,1,18.973-7.4a3.218,3.218,0,0,1,2.106-.674,3.311,3.311,0,0,1,2.186.7A2.21,2.21,0,0,1,24.1-5.6H22.742a1.223,1.223,0,0,0-.472-.959,1.77,1.77,0,0,0-1.19-.4,1.852,1.852,0,0,0-1.157.322,1.014,1.014,0,0,0-.417.842.822.822,0,0,0,.388.74,4.776,4.776,0,0,0,1.4.476,7.308,7.308,0,0,1,1.644.542,2.4,2.4,0,0,1,.934.758,1.864,1.864,0,0,1,.3,1.08,2.028,2.028,0,0,1-.85,1.7,3.564,3.564,0,0,1-2.2.641A3.991,3.991,0,0,1,19.438-.19a2.74,2.74,0,0,1-1.146-.941,2.268,2.268,0,0,1-.414-1.307h1.355a1.4,1.4,0,0,0,.546,1.08,2.117,2.117,0,0,0,1.344.4,2.185,2.185,0,0,0,1.234-.311A.956.956,0,0,0,22.822-2.1Zm4.958-7.742v1.919H29.26v1.047H27.781v4.915a1.1,1.1,0,0,0,.2.714.833.833,0,0,0,.674.238A3.281,3.281,0,0,0,29.3-1.1V0a3.928,3.928,0,0,1-1.04.146A1.687,1.687,0,0,1,26.887-.4a2.36,2.36,0,0,1-.461-1.56V-6.877H24.983V-7.925h1.443V-9.844Zm6.892,3.135a4.06,4.06,0,0,0-.667-.051A1.786,1.786,0,0,0,32.2-5.625V0H30.842V-7.925h1.318l.022.916a2.11,2.11,0,0,1,1.89-1.062,1.384,1.384,0,0,1,.6.1ZM37.39,0H36.035V-7.925H37.39ZM35.925-10.027a.809.809,0,0,1,.2-.557.756.756,0,0,1,.6-.227.768.768,0,0,1,.6.227.8.8,0,0,1,.205.557.774.774,0,0,1-.205.549.782.782,0,0,1-.6.22.77.77,0,0,1-.6-.22A.782.782,0,0,1,35.925-10.027ZM42.737-.959A1.952,1.952,0,0,0,44-1.4a1.546,1.546,0,0,0,.6-1.1h1.282a2.457,2.457,0,0,1-.469,1.3,3.087,3.087,0,0,1-1.154.981,3.329,3.329,0,0,1-1.527.366,3.265,3.265,0,0,1-2.574-1.08,4.3,4.3,0,0,1-.956-2.955v-.227a4.771,4.771,0,0,1,.425-2.058,3.236,3.236,0,0,1,1.219-1.4,3.464,3.464,0,0,1,1.879-.5,3.178,3.178,0,0,1,2.216.8A2.853,2.853,0,0,1,45.886-5.2H44.6a1.867,1.867,0,0,0-.582-1.263,1.811,1.811,0,0,0-1.293-.494,1.9,1.9,0,0,0-1.6.743,3.491,3.491,0,0,0-.568,2.15v.256A3.422,3.422,0,0,0,41.125-1.7,1.906,1.906,0,0,0,42.737-.959Zm6.511-8.884v1.919h1.479v1.047H49.248v4.915a1.1,1.1,0,0,0,.2.714.833.833,0,0,0,.674.238,3.281,3.281,0,0,0,.645-.088V0a3.928,3.928,0,0,1-1.04.146A1.687,1.687,0,0,1,48.354-.4a2.36,2.36,0,0,1-.461-1.56V-6.877H46.45V-7.925h1.443V-9.844Zm6.445,5.815a4.642,4.642,0,0,1,.864-2.933,2.733,2.733,0,0,1,2.263-1.11,2.748,2.748,0,0,1,2.2.952V-11.25H62.38V0H61.135l-.066-.85a2.759,2.759,0,0,1-2.263,1A2.707,2.707,0,0,1,56.561-.981a4.7,4.7,0,0,1-.868-2.944Zm1.355.154A3.515,3.515,0,0,0,57.6-1.765,1.8,1.8,0,0,0,59.143-1a1.977,1.977,0,0,0,1.882-1.157V-5.8a1.992,1.992,0,0,0-1.868-1.121,1.808,1.808,0,0,0-1.553.769A3.87,3.87,0,0,0,57.048-3.875ZM69.375-.784a2.878,2.878,0,0,1-2.322.93,2.464,2.464,0,0,1-1.93-.736,3.186,3.186,0,0,1-.67-2.179V-7.925h1.355v5.12q0,1.8,1.465,1.8a2.028,2.028,0,0,0,2.065-1.157V-7.925h1.355V0H69.4ZM79.446-3.875a4.745,4.745,0,0,1-.828,2.915A2.653,2.653,0,0,1,76.377.146a2.906,2.906,0,0,1-2.271-.916V3.047H72.751V-7.925h1.238l.066.879a2.791,2.791,0,0,1,2.3-1.025,2.7,2.7,0,0,1,2.26,1.077,4.8,4.8,0,0,1,.831,3Zm-1.355-.154a3.5,3.5,0,0,0-.571-2.117,1.84,1.84,0,0,0-1.567-.776A1.992,1.992,0,0,0,74.106-5.83v3.787a2,2,0,0,0,1.86,1.084,1.832,1.832,0,0,0,1.549-.773A3.822,3.822,0,0,0,78.091-4.028ZM82.639,0H81.284V-11.25h1.355Zm3.64,0H84.924V-7.925h1.355ZM84.814-10.027a.809.809,0,0,1,.2-.557.756.756,0,0,1,.6-.227.768.768,0,0,1,.6.227.8.8,0,0,1,.205.557.774.774,0,0,1-.205.549.782.782,0,0,1-.6.22.77.77,0,0,1-.6-.22A.782.782,0,0,1,84.814-10.027ZM91.626-.959A1.952,1.952,0,0,0,92.893-1.4a1.546,1.546,0,0,0,.6-1.1h1.282a2.457,2.457,0,0,1-.469,1.3,3.087,3.087,0,0,1-1.154.981,3.329,3.329,0,0,1-1.527.366,3.265,3.265,0,0,1-2.574-1.08A4.3,4.3,0,0,1,88.1-3.889v-.227a4.771,4.771,0,0,1,.425-2.058,3.236,3.236,0,0,1,1.219-1.4,3.464,3.464,0,0,1,1.879-.5,3.178,3.178,0,0,1,2.216.8A2.853,2.853,0,0,1,94.775-5.2H93.494a1.867,1.867,0,0,0-.582-1.263,1.811,1.811,0,0,0-1.293-.494,1.9,1.9,0,0,0-1.6.743,3.491,3.491,0,0,0-.568,2.15v.256A3.422,3.422,0,0,0,90.015-1.7,1.906,1.906,0,0,0,91.626-.959ZM101.191,0A2.846,2.846,0,0,1,101-.835a3.023,3.023,0,0,1-2.256.981,2.8,2.8,0,0,1-1.923-.663A2.145,2.145,0,0,1,96.072-2.2a2.24,2.24,0,0,1,.941-1.923A4.437,4.437,0,0,1,99.661-4.8h1.318v-.623a1.522,1.522,0,0,0-.425-1.132A1.707,1.707,0,0,0,99.3-6.98a1.976,1.976,0,0,0-1.216.366,1.079,1.079,0,0,0-.491.886H96.233a1.87,1.87,0,0,1,.421-1.146A2.874,2.874,0,0,1,97.8-7.749a3.844,3.844,0,0,1,1.586-.322,3.133,3.133,0,0,1,2.146.685,2.47,2.47,0,0,1,.806,1.886v3.647a4.459,4.459,0,0,0,.278,1.736V0ZM98.943-1.033a2.381,2.381,0,0,0,1.208-.33,1.994,1.994,0,0,0,.828-.857V-3.845H99.917q-2.49,0-2.49,1.458a1.234,1.234,0,0,0,.425,1A1.633,1.633,0,0,0,98.943-1.033ZM106.3-9.844v1.919h1.479v1.047H106.3v4.915a1.1,1.1,0,0,0,.2.714.833.833,0,0,0,.674.238,3.281,3.281,0,0,0,.645-.088V0a3.928,3.928,0,0,1-1.04.146A1.687,1.687,0,0,1,105.4-.4a2.36,2.36,0,0,1-.461-1.56V-6.877H103.5V-7.925h1.443V-9.844Zm6.35,9.99a3.463,3.463,0,0,1-2.622-1.058,3.928,3.928,0,0,1-1.011-2.831v-.249a4.756,4.756,0,0,1,.45-2.106,3.514,3.514,0,0,1,1.26-1.45,3.167,3.167,0,0,1,1.754-.524,2.968,2.968,0,0,1,2.4,1.018,4.408,4.408,0,0,1,.857,2.915v.564h-5.369a2.817,2.817,0,0,0,.685,1.893,2.153,2.153,0,0,0,1.666.721,2.36,2.36,0,0,0,1.216-.293,3.055,3.055,0,0,0,.872-.776l.828.645A3.328,3.328,0,0,1,112.646.146Zm-.168-7.1a1.807,1.807,0,0,0-1.377.6,2.9,2.9,0,0,0-.688,1.674h3.97v-.1a2.581,2.581,0,0,0-.557-1.6A1.7,1.7,0,0,0,112.478-6.958ZM122.739,0h-1.406V-10.664h1.406Zm3.977-4.175V0H125.31V-10.664h3.933a3.952,3.952,0,0,1,2.743.894,3.029,3.029,0,0,1,.992,2.366,2.989,2.989,0,0,1-.97,2.391,4.128,4.128,0,0,1-2.78.839Zm0-1.15h2.527a2.529,2.529,0,0,0,1.729-.531,1.94,1.94,0,0,0,.6-1.534,2,2,0,0,0-.6-1.523,2.37,2.37,0,0,0-1.648-.593h-2.607ZM139.863-3a4.385,4.385,0,0,1,.2-1.377,3.531,3.531,0,0,1,.747-1.121l.959-.989a2.22,2.22,0,0,0,.615-1.494,1.707,1.707,0,0,0-.4-1.2,1.517,1.517,0,0,0-1.172-.436,1.764,1.764,0,0,0-1.2.4,1.337,1.337,0,0,0-.454,1.062H137.8a2.467,2.467,0,0,1,.846-1.915,3.163,3.163,0,0,1,2.164-.729,2.983,2.983,0,0,1,2.157.743,2.7,2.7,0,0,1,.773,2.04A3.689,3.689,0,0,1,142.551-5.5l-.8.791A2.466,2.466,0,0,0,141.218-3ZM139.8-.681a.8.8,0,0,1,.2-.553.763.763,0,0,1,.6-.223.775.775,0,0,1,.6.223.787.787,0,0,1,.205.553.761.761,0,0,1-.205.546.789.789,0,0,1-.6.216.777.777,0,0,1-.6-.216A.769.769,0,0,1,139.8-.681Z" transform="translate(-1.23 14)"/><g transform="translate(153.528)"><path d="M146.8,305.548a6.456,6.456,0,1,1,6.456-6.456,6.464,6.464,0,0,1-6.456,6.456m7.731-8.047a7.892,7.892,0,0,0-7.728-6.3H133.888a7.891,7.891,0,0,0,0,15.783h12.919a7.9,7.9,0,0,0,7.728-9.482" transform="translate(-125.999 -291.201)" fill="#f05b5b" fill-rule="evenodd"/></g></g><g transform="translate(0 112)"><g transform="translate(0 24)"><g fill="#fff" stroke="#e5e5e5" stroke-width="1"><rect width="293" height="25.519" rx="3" stroke="none"/><rect x="0.5" y="0.5" width="292" height="24.519" rx="2.5" fill="none"/></g><text transform="translate(5.998 3.053)" fill="#8d8d8d" font-size="7" font-family="Poppins-Medium, Poppins" font-weight="500"><tspan x="0" y="7">Note : </tspan><tspan y="7" font-family="Poppins-Regular, Poppins" font-weight="400">Network Activity Tracking: By restricting IP address reuse for a day, </tspan><tspan x="0" y="17" font-family="Poppins-Regular, Poppins" font-weight="400">network administrators can accurately monitor &amp; analyze network traffic.</tspan></text></g><g transform="translate(0.454)"><path d="M3.433-2.876H1.763V0H.82V-7.109H3.174a2.786,2.786,0,0,1,1.848.547,1.968,1.968,0,0,1,.647,1.592A1.914,1.914,0,0,1,5.31-3.813a2.142,2.142,0,0,1-1,.737L5.981-.059V0H4.976Zm-1.67-.767H3.2A1.627,1.627,0,0,0,4.314-4a1.221,1.221,0,0,0,.413-.967,1.285,1.285,0,0,0-.393-1.011A1.666,1.666,0,0,0,3.2-6.338H1.763ZM9.033.1A2.308,2.308,0,0,1,7.285-.608,2.619,2.619,0,0,1,6.611-2.5v-.166a3.17,3.17,0,0,1,.3-1.4,2.343,2.343,0,0,1,.84-.967,2.112,2.112,0,0,1,1.169-.349,1.979,1.979,0,0,1,1.6.679,2.939,2.939,0,0,1,.571,1.943v.376H7.515a1.878,1.878,0,0,0,.457,1.262A1.435,1.435,0,0,0,9.082-.64a1.573,1.573,0,0,0,.811-.2,2.037,2.037,0,0,0,.581-.518l.552.43A2.219,2.219,0,0,1,9.033.1ZM8.921-4.639a1.2,1.2,0,0,0-.918.4,1.934,1.934,0,0,0-.459,1.116H10.19v-.068A1.721,1.721,0,0,0,9.819-4.26,1.134,1.134,0,0,0,8.921-4.639ZM15.215-1.4a.665.665,0,0,0-.276-.569,2.655,2.655,0,0,0-.962-.349,4.548,4.548,0,0,1-1.089-.352,1.549,1.549,0,0,1-.6-.488,1.168,1.168,0,0,1-.193-.674,1.37,1.37,0,0,1,.549-1.1,2.145,2.145,0,0,1,1.4-.449,2.208,2.208,0,0,1,1.458.464,1.473,1.473,0,0,1,.559,1.187h-.908a.815.815,0,0,0-.315-.64,1.18,1.18,0,0,0-.793-.269,1.235,1.235,0,0,0-.771.215A.676.676,0,0,0,13-3.862a.548.548,0,0,0,.259.493,3.184,3.184,0,0,0,.935.317,4.872,4.872,0,0,1,1.1.361,1.6,1.6,0,0,1,.623.505,1.243,1.243,0,0,1,.2.72A1.352,1.352,0,0,1,15.552-.33,2.376,2.376,0,0,1,14.082.1a2.66,2.66,0,0,1-1.123-.225,1.827,1.827,0,0,1-.764-.627,1.512,1.512,0,0,1-.276-.872h.9a.935.935,0,0,0,.364.72,1.411,1.411,0,0,0,.9.266A1.457,1.457,0,0,0,14.9-.847.638.638,0,0,0,15.215-1.4Zm3.306-5.161v1.279h.986v.7h-.986v3.276a.732.732,0,0,0,.132.476.555.555,0,0,0,.449.159,2.187,2.187,0,0,0,.43-.059V0a2.619,2.619,0,0,1-.693.1,1.125,1.125,0,0,1-.913-.366,1.573,1.573,0,0,1-.308-1.04V-4.585h-.962v-.7h.962V-6.562Zm4.595,2.09a2.707,2.707,0,0,0-.444-.034,1.19,1.19,0,0,0-1.206.757V0h-.9V-5.283h.879l.015.61a1.407,1.407,0,0,1,1.26-.708.923.923,0,0,1,.4.068ZM24.927,0h-.9V-5.283h.9ZM23.95-6.685a.539.539,0,0,1,.134-.371.5.5,0,0,1,.4-.151.512.512,0,0,1,.4.151.534.534,0,0,1,.137.371.516.516,0,0,1-.137.366.521.521,0,0,1-.4.146.513.513,0,0,1-.4-.146A.521.521,0,0,1,23.95-6.685ZM28.491-.64a1.3,1.3,0,0,0,.845-.293,1.031,1.031,0,0,0,.4-.732h.854a1.638,1.638,0,0,1-.312.864,2.058,2.058,0,0,1-.769.654A2.219,2.219,0,0,1,28.491.1a2.176,2.176,0,0,1-1.716-.72,2.869,2.869,0,0,1-.637-1.97v-.151a3.181,3.181,0,0,1,.283-1.372,2.157,2.157,0,0,1,.813-.933,2.309,2.309,0,0,1,1.252-.332,2.119,2.119,0,0,1,1.477.532,1.9,1.9,0,0,1,.627,1.382h-.854a1.245,1.245,0,0,0-.388-.842,1.208,1.208,0,0,0-.862-.33,1.264,1.264,0,0,0-1.067.5,2.328,2.328,0,0,0-.378,1.433v.171a2.281,2.281,0,0,0,.376,1.406A1.27,1.27,0,0,0,28.491-.64Zm4.341-5.923v1.279h.986v.7h-.986v3.276a.732.732,0,0,0,.132.476.555.555,0,0,0,.449.159,2.187,2.187,0,0,0,.43-.059V0a2.619,2.619,0,0,1-.693.1,1.125,1.125,0,0,1-.913-.366,1.573,1.573,0,0,1-.308-1.04V-4.585h-.962v-.7h.962V-6.562Zm4.3,3.877a3.1,3.1,0,0,1,.576-1.956,1.822,1.822,0,0,1,1.509-.74,1.832,1.832,0,0,1,1.47.635V-7.5h.9V0h-.83l-.044-.566A1.84,1.84,0,0,1,39.2.1a1.8,1.8,0,0,1-1.5-.752,3.13,3.13,0,0,1-.579-1.963Zm.9.1A2.343,2.343,0,0,0,38.4-1.177a1.2,1.2,0,0,0,1.025.508,1.318,1.318,0,0,0,1.255-.771V-3.867a1.328,1.328,0,0,0-1.245-.747A1.205,1.205,0,0,0,38.4-4.1,2.58,2.58,0,0,0,38.032-2.583ZM46.25-.522A1.919,1.919,0,0,1,44.7.1a1.642,1.642,0,0,1-1.287-.491,2.124,2.124,0,0,1-.447-1.453V-5.283h.9V-1.87q0,1.2.977,1.2a1.352,1.352,0,0,0,1.377-.771V-5.283h.9V0H46.27Zm6.714-2.061A3.163,3.163,0,0,1,52.412-.64,1.768,1.768,0,0,1,50.918.1,1.938,1.938,0,0,1,49.4-.513V2.031h-.9V-5.283h.825l.044.586A1.861,1.861,0,0,1,50.9-5.381a1.8,1.8,0,0,1,1.506.718,3.2,3.2,0,0,1,.554,2Zm-.9-.1A2.334,2.334,0,0,0,51.68-4.1a1.227,1.227,0,0,0-1.045-.518,1.328,1.328,0,0,0-1.23.728v2.524a1.33,1.33,0,0,0,1.24.723,1.221,1.221,0,0,0,1.033-.515A2.548,2.548,0,0,0,52.061-2.686ZM55.093,0h-.9V-7.5h.9ZM57.52,0h-.9V-5.283h.9Zm-.977-6.685a.539.539,0,0,1,.134-.371.5.5,0,0,1,.4-.151.512.512,0,0,1,.4.151.534.534,0,0,1,.137.371.516.516,0,0,1-.137.366.521.521,0,0,1-.4.146.513.513,0,0,1-.4-.146A.521.521,0,0,1,56.543-6.685ZM61.084-.64a1.3,1.3,0,0,0,.845-.293,1.031,1.031,0,0,0,.4-.732h.854a1.638,1.638,0,0,1-.312.864,2.058,2.058,0,0,1-.769.654A2.219,2.219,0,0,1,61.084.1a2.176,2.176,0,0,1-1.716-.72,2.869,2.869,0,0,1-.637-1.97v-.151a3.181,3.181,0,0,1,.283-1.372,2.157,2.157,0,0,1,.813-.933,2.309,2.309,0,0,1,1.252-.332,2.119,2.119,0,0,1,1.477.532,1.9,1.9,0,0,1,.627,1.382h-.854a1.245,1.245,0,0,0-.388-.842,1.208,1.208,0,0,0-.862-.33,1.264,1.264,0,0,0-1.067.5,2.328,2.328,0,0,0-.378,1.433v.171a2.281,2.281,0,0,0,.376,1.406A1.27,1.27,0,0,0,61.084-.64ZM67.461,0a1.9,1.9,0,0,1-.127-.557A2.016,2.016,0,0,1,65.83.1a1.865,1.865,0,0,1-1.282-.442,1.43,1.43,0,0,1-.5-1.121,1.494,1.494,0,0,1,.627-1.282A2.958,2.958,0,0,1,66.44-3.2h.879v-.415a1.015,1.015,0,0,0-.283-.754,1.138,1.138,0,0,0-.835-.281,1.317,1.317,0,0,0-.811.244.719.719,0,0,0-.327.591h-.908a1.247,1.247,0,0,1,.281-.764,1.916,1.916,0,0,1,.762-.583,2.563,2.563,0,0,1,1.057-.215,2.089,2.089,0,0,1,1.431.457,1.647,1.647,0,0,1,.537,1.257v2.432a2.973,2.973,0,0,0,.186,1.157V0Zm-1.5-.688a1.588,1.588,0,0,0,.806-.22,1.329,1.329,0,0,0,.552-.571V-2.563h-.708q-1.66,0-1.66.972a.822.822,0,0,0,.283.664A1.089,1.089,0,0,0,65.962-.688Zm4.9-5.874v1.279h.986v.7h-.986v3.276A.732.732,0,0,0,71-.833a.555.555,0,0,0,.449.159,2.187,2.187,0,0,0,.43-.059V0a2.619,2.619,0,0,1-.693.1,1.125,1.125,0,0,1-.913-.366,1.573,1.573,0,0,1-.308-1.04V-4.585H69v-.7h.962V-6.562ZM75.1.1A2.308,2.308,0,0,1,73.35-.608,2.619,2.619,0,0,1,72.676-2.5v-.166a3.17,3.17,0,0,1,.3-1.4,2.342,2.342,0,0,1,.84-.967,2.112,2.112,0,0,1,1.169-.349,1.979,1.979,0,0,1,1.6.679,2.939,2.939,0,0,1,.571,1.943v.376H73.579a1.878,1.878,0,0,0,.457,1.262,1.435,1.435,0,0,0,1.111.481,1.573,1.573,0,0,0,.811-.2,2.037,2.037,0,0,0,.581-.518l.552.43A2.219,2.219,0,0,1,75.1.1Zm-.112-4.736a1.2,1.2,0,0,0-.918.4,1.934,1.934,0,0,0-.459,1.116h2.646v-.068a1.721,1.721,0,0,0-.371-1.067A1.134,1.134,0,0,0,74.985-4.639ZM81.826,0h-.937V-7.109h.938Zm2.651-2.783V0H83.54V-7.109h2.622a2.634,2.634,0,0,1,1.829.6,2.02,2.02,0,0,1,.662,1.577,1.993,1.993,0,0,1-.647,1.594,2.752,2.752,0,0,1-1.853.559Zm0-.767h1.685A1.686,1.686,0,0,0,87.314-3.9a1.293,1.293,0,0,0,.4-1.023,1.336,1.336,0,0,0-.4-1.016,1.58,1.58,0,0,0-1.1-.4H84.478Zm7.466.859a3.121,3.121,0,0,1,.305-1.4,2.277,2.277,0,0,1,.85-.957,2.313,2.313,0,0,1,1.243-.337,2.228,2.228,0,0,1,1.746.747,2.874,2.874,0,0,1,.667,1.987v.063a3.148,3.148,0,0,1-.3,1.384,2.243,2.243,0,0,1-.845.955A2.339,2.339,0,0,1,94.351.1,2.222,2.222,0,0,1,92.61-.649a2.86,2.86,0,0,1-.667-1.978Zm.908.107a2.26,2.26,0,0,0,.408,1.411,1.3,1.3,0,0,0,1.091.532,1.3,1.3,0,0,0,1.094-.54A2.472,2.472,0,0,0,95.85-2.69,2.256,2.256,0,0,0,95.437-4.1a1.312,1.312,0,0,0-1.1-.54,1.3,1.3,0,0,0-1.079.532A2.453,2.453,0,0,0,92.852-2.583ZM100-.64a1.3,1.3,0,0,0,.845-.293,1.031,1.031,0,0,0,.4-.732h.854a1.638,1.638,0,0,1-.312.864,2.058,2.058,0,0,1-.769.654A2.219,2.219,0,0,1,100,.1a2.176,2.176,0,0,1-1.716-.72,2.869,2.869,0,0,1-.637-1.97v-.151a3.181,3.181,0,0,1,.283-1.372,2.157,2.157,0,0,1,.813-.933A2.309,2.309,0,0,1,100-5.381a2.119,2.119,0,0,1,1.477.532,1.9,1.9,0,0,1,.627,1.382h-.854a1.245,1.245,0,0,0-.388-.842,1.208,1.208,0,0,0-.862-.33,1.264,1.264,0,0,0-1.067.5,2.328,2.328,0,0,0-.378,1.433v.171a2.281,2.281,0,0,0,.376,1.406A1.27,1.27,0,0,0,100-.64Zm5.234,0a1.3,1.3,0,0,0,.845-.293,1.031,1.031,0,0,0,.4-.732h.854a1.638,1.638,0,0,1-.312.864,2.058,2.058,0,0,1-.769.654A2.219,2.219,0,0,1,105.239.1a2.176,2.176,0,0,1-1.716-.72,2.869,2.869,0,0,1-.637-1.97v-.151a3.181,3.181,0,0,1,.283-1.372,2.157,2.157,0,0,1,.813-.933,2.309,2.309,0,0,1,1.252-.332,2.119,2.119,0,0,1,1.477.532,1.9,1.9,0,0,1,.627,1.382h-.854a1.245,1.245,0,0,0-.388-.842,1.208,1.208,0,0,0-.862-.33,1.264,1.264,0,0,0-1.067.5,2.328,2.328,0,0,0-.378,1.433v.171a2.281,2.281,0,0,0,.376,1.406A1.27,1.27,0,0,0,105.239-.64Zm6.377.117a1.919,1.919,0,0,1-1.548.62,1.642,1.642,0,0,1-1.287-.491,2.124,2.124,0,0,1-.447-1.453V-5.283h.9V-1.87q0,1.2.977,1.2a1.352,1.352,0,0,0,1.377-.771V-5.283h.9V0h-.859Zm4.8-3.95a2.707,2.707,0,0,0-.444-.034,1.19,1.19,0,0,0-1.206.757V0h-.9V-5.283h.879l.015.61a1.407,1.407,0,0,1,1.26-.708.923.923,0,0,1,.4.068Zm3.384,0a2.707,2.707,0,0,0-.444-.034,1.19,1.19,0,0,0-1.206.757V0h-.9V-5.283h.879l.015.61a1.407,1.407,0,0,1,1.26-.708.923.923,0,0,1,.4.068ZM122.827.1a2.308,2.308,0,0,1-1.748-.706,2.619,2.619,0,0,1-.674-1.887v-.166a3.17,3.17,0,0,1,.3-1.4,2.342,2.342,0,0,1,.84-.967,2.112,2.112,0,0,1,1.169-.349,1.979,1.979,0,0,1,1.6.679,2.939,2.939,0,0,1,.571,1.943v.376h-3.579a1.878,1.878,0,0,0,.457,1.262,1.435,1.435,0,0,0,1.111.481,1.573,1.573,0,0,0,.811-.2,2.037,2.037,0,0,0,.581-.518l.552.43A2.219,2.219,0,0,1,122.827.1Zm-.112-4.736a1.2,1.2,0,0,0-.918.4,1.934,1.934,0,0,0-.459,1.116h2.646v-.068a1.721,1.721,0,0,0-.371-1.067A1.134,1.134,0,0,0,122.715-4.639Zm4.072-.645.029.664a1.925,1.925,0,0,1,1.582-.762q1.675,0,1.689,1.89V0h-.9V-3.5a1.216,1.216,0,0,0-.261-.845,1.047,1.047,0,0,0-.8-.273,1.3,1.3,0,0,0-.771.234,1.592,1.592,0,0,0-.518.615V0h-.9V-5.283ZM133.569-.64a1.3,1.3,0,0,0,.845-.293,1.031,1.031,0,0,0,.4-.732h.854a1.638,1.638,0,0,1-.312.864,2.058,2.058,0,0,1-.769.654A2.219,2.219,0,0,1,133.569.1a2.176,2.176,0,0,1-1.716-.72,2.869,2.869,0,0,1-.637-1.97v-.151a3.181,3.181,0,0,1,.283-1.372,2.157,2.157,0,0,1,.813-.933,2.309,2.309,0,0,1,1.252-.332,2.119,2.119,0,0,1,1.477.532,1.9,1.9,0,0,1,.627,1.382h-.854a1.245,1.245,0,0,0-.388-.842,1.208,1.208,0,0,0-.862-.33,1.264,1.264,0,0,0-1.067.5,2.328,2.328,0,0,0-.378,1.433v.171a2.281,2.281,0,0,0,.376,1.406A1.27,1.27,0,0,0,133.569-.64ZM138.877.1a2.308,2.308,0,0,1-1.748-.706,2.619,2.619,0,0,1-.674-1.887v-.166a3.17,3.17,0,0,1,.3-1.4,2.343,2.343,0,0,1,.84-.967,2.112,2.112,0,0,1,1.169-.349,1.979,1.979,0,0,1,1.6.679,2.939,2.939,0,0,1,.571,1.943v.376h-3.579a1.878,1.878,0,0,0,.457,1.262,1.435,1.435,0,0,0,1.111.481,1.573,1.573,0,0,0,.811-.2,2.037,2.037,0,0,0,.581-.518l.552.43A2.219,2.219,0,0,1,138.877.1Zm-.112-4.736a1.2,1.2,0,0,0-.918.4,1.934,1.934,0,0,0-.459,1.116h2.646v-.068a1.721,1.721,0,0,0-.371-1.067A1.134,1.134,0,0,0,138.765-4.639Zm10.371,3.394,1.016-4.038h.9L149.517,0h-.732L147.5-4l-1.25,4h-.732l-1.533-5.283h.9l1.04,3.955,1.23-3.955h.728ZM152.954,0h-.9V-5.283h.9Zm-.977-6.685a.539.539,0,0,1,.134-.371.5.5,0,0,1,.4-.151.512.512,0,0,1,.4.151.534.534,0,0,1,.137.371.516.516,0,0,1-.137.366.521.521,0,0,1-.4.146.513.513,0,0,1-.4-.146A.521.521,0,0,1,151.978-6.685Zm3.647.122v1.279h.986v.7h-.986v3.276a.732.732,0,0,0,.132.476.555.555,0,0,0,.449.159,2.187,2.187,0,0,0,.43-.059V0a2.619,2.619,0,0,1-.693.1,1.125,1.125,0,0,1-.913-.366,1.573,1.573,0,0,1-.308-1.04V-4.585h-.962v-.7h.962V-6.562Zm2.944,1.919a1.921,1.921,0,0,1,1.563-.737q1.675,0,1.689,1.89V0h-.9V-3.5a1.216,1.216,0,0,0-.261-.845,1.047,1.047,0,0,0-.8-.273,1.3,1.3,0,0,0-.771.234,1.592,1.592,0,0,0-.518.615V0h-.9V-7.5h.9ZM164.155,0h-.9V-5.283h.9Zm-.977-6.685a.539.539,0,0,1,.134-.371.5.5,0,0,1,.4-.151.512.512,0,0,1,.4.151.534.534,0,0,1,.137.371.516.516,0,0,1-.137.366.521.521,0,0,1-.4.146.513.513,0,0,1-.4-.146A.521.521,0,0,1,163.179-6.685Zm3.276,1.4.029.664a1.925,1.925,0,0,1,1.582-.762q1.675,0,1.689,1.89V0h-.9V-3.5a1.216,1.216,0,0,0-.261-.845,1.047,1.047,0,0,0-.8-.273,1.3,1.3,0,0,0-.771.234,1.592,1.592,0,0,0-.518.615V0h-.9V-5.283Zm46.528,2.6a3.1,3.1,0,0,1,.576-1.956,1.822,1.822,0,0,1,1.509-.74,1.832,1.832,0,0,1,1.47.635V-7.5h.9V0h-.83l-.044-.566A1.84,1.84,0,0,1,215.059.1a1.8,1.8,0,0,1-1.5-.752,3.13,3.13,0,0,1-.579-1.963Zm.9.1a2.343,2.343,0,0,0,.371,1.406,1.2,1.2,0,0,0,1.025.508,1.318,1.318,0,0,0,1.255-.771V-3.867a1.328,1.328,0,0,0-1.245-.747,1.205,1.205,0,0,0-1.035.513A2.58,2.58,0,0,0,213.887-2.583ZM222.1,0a1.9,1.9,0,0,1-.127-.557,2.015,2.015,0,0,1-1.5.654,1.865,1.865,0,0,1-1.282-.442,1.43,1.43,0,0,1-.5-1.121,1.494,1.494,0,0,1,.627-1.282,2.958,2.958,0,0,1,1.765-.457h.879v-.415a1.015,1.015,0,0,0-.283-.754,1.138,1.138,0,0,0-.835-.281,1.317,1.317,0,0,0-.811.244.719.719,0,0,0-.327.591H218.8a1.247,1.247,0,0,1,.281-.764,1.916,1.916,0,0,1,.762-.583,2.563,2.563,0,0,1,1.057-.215,2.089,2.089,0,0,1,1.431.457,1.647,1.647,0,0,1,.537,1.257v2.432a2.973,2.973,0,0,0,.186,1.157V0Zm-1.5-.688a1.588,1.588,0,0,0,.806-.22,1.329,1.329,0,0,0,.552-.571V-2.563h-.708q-1.66,0-1.66.972a.822.822,0,0,0,.283.664A1.089,1.089,0,0,0,220.605-.688Zm5.405-.635,1.23-3.96h.967l-2.124,6.1q-.493,1.318-1.567,1.318l-.171-.015-.337-.063V1.323l.244.02a1.2,1.2,0,0,0,.715-.186,1.343,1.343,0,0,0,.422-.679l.2-.537-1.885-5.225h.986Z" transform="translate(14.546 12)" fill="#424242"/><g transform="translate(0 3.531)"><path d="M130.706,57.267a4,4,0,1,1-4,4,4.014,4.014,0,0,1,4-4m0-.709a4.712,4.712,0,1,0,4.718,4.712,4.707,4.707,0,0,0-4.718-4.712Z" transform="translate(-126 -56.558)" fill="#a5a5a5"/></g><g transform="translate(187.546)" fill="#fff" stroke="#cfcfcf" stroke-width="1"><rect width="38" height="20" rx="3" stroke="none"/><rect x="0.5" y="0.5" width="37" height="19" rx="2.5" fill="none"/></g></g></g><g transform="translate(51 99.073)"><path d="M7.122-3.733a4.721,4.721,0,0,1-.408,2.025A3.074,3.074,0,0,1,5.546-.365,3.232,3.232,0,0,1,3.8.107,3.253,3.253,0,0,1,2.068-.36,3.1,3.1,0,0,1,.886-1.695a4.586,4.586,0,0,1-.424-2v-.387A4.7,4.7,0,0,1,.878-6.11,3.1,3.1,0,0,1,2.054-7.458a3.236,3.236,0,0,1,1.738-.47,3.236,3.236,0,0,1,1.738.47A3.1,3.1,0,0,1,6.706-6.11a4.683,4.683,0,0,1,.416,2.028ZM5.489-4.087a3.291,3.291,0,0,0-.44-1.869A1.435,1.435,0,0,0,3.792-6.6a1.436,1.436,0,0,0-1.251.631,3.253,3.253,0,0,0-.446,1.85v.381a3.332,3.332,0,0,0,.44,1.858A1.432,1.432,0,0,0,3.8-1.214,1.419,1.419,0,0,0,5.049-1.85a3.313,3.313,0,0,0,.44-1.856Zm5.7,1.225H9.9V0H8.293V-7.82H11.2a3.285,3.285,0,0,1,2.138.618,2.132,2.132,0,0,1,.752,1.746,2.406,2.406,0,0,1-.346,1.335,2.363,2.363,0,0,1-1.05.851l1.692,3.2V0H12.654ZM9.9-4.168h1.3a1.331,1.331,0,0,0,.94-.309,1.1,1.1,0,0,0,.333-.851,1.182,1.182,0,0,0-.314-.87,1.306,1.306,0,0,0-.964-.317H9.9Z" transform="translate(75 7.928)" fill="#424242"/><rect width="69" height="1" transform="translate(94 3.928)" fill="#e5e5e5"/><rect width="68" height="1" transform="translate(0 3.928)" fill="#e5e5e5"/></g></g><g transform="translate(14.002 105.42)"><path d="M7.119-4.667H2.644V.072H1.238V-10.66H7.844V-9.5h-5.2v3.671H7.119ZM10.789.072H9.434V-7.9h1.355ZM9.324-10.019a.817.817,0,0,1,.2-.56.754.754,0,0,1,.6-.229.765.765,0,0,1,.6.229.808.808,0,0,1,.205.56.782.782,0,0,1-.205.553.779.779,0,0,1-.6.221.767.767,0,0,1-.6-.221A.79.79,0,0,1,9.324-10.019ZM14.429.072H13.074V-11.25h1.355Zm4.006-9.907V-7.9h1.479v1.054H18.435V-1.9a1.11,1.11,0,0,0,.2.719.83.83,0,0,0,.674.24,3.261,3.261,0,0,0,.645-.088V.072a3.9,3.9,0,0,1-1.04.147,1.682,1.682,0,0,1-1.37-.553A2.386,2.386,0,0,1,17.08-1.9V-6.849H15.637V-7.9H17.08V-9.835ZM24.785.22A3.451,3.451,0,0,1,22.163-.845a3.968,3.968,0,0,1-1.011-2.849v-.251a4.812,4.812,0,0,1,.45-2.119,3.53,3.53,0,0,1,1.26-1.46,3.153,3.153,0,0,1,1.754-.527,2.959,2.959,0,0,1,2.4,1.025,4.456,4.456,0,0,1,.857,2.934v.568H22.507a2.846,2.846,0,0,0,.685,1.905,2.146,2.146,0,0,0,1.666.726,2.348,2.348,0,0,0,1.216-.295,3.061,3.061,0,0,0,.872-.781l.828.649A3.322,3.322,0,0,1,24.785.22Zm-.168-7.15a1.8,1.8,0,0,0-1.377.6,2.93,2.93,0,0,0-.688,1.684h3.97v-.1a2.608,2.608,0,0,0-.557-1.611A1.7,1.7,0,0,0,24.617-6.93Zm8.657.251a4.035,4.035,0,0,0-.667-.052A1.785,1.785,0,0,0,30.8-5.589V.072H29.443V-7.9h1.318l.022.921a2.107,2.107,0,0,1,1.89-1.069,1.376,1.376,0,0,1,.6.1ZM44.941-3.827A4.764,4.764,0,0,1,44.106-.89,2.662,2.662,0,0,1,41.865.22,2.756,2.756,0,0,1,39.543-.849l-.066.921H38.232V-11.25h1.355v4.224a2.74,2.74,0,0,1,2.263-1.025,2.678,2.678,0,0,1,2.267,1.1,4.908,4.908,0,0,1,.824,3.007Zm-1.355-.155a3.7,3.7,0,0,0-.535-2.152,1.766,1.766,0,0,0-1.538-.759A1.989,1.989,0,0,0,39.587-5.64v3.45A2.044,2.044,0,0,0,41.528-.938,1.757,1.757,0,0,0,43.044-1.7,3.938,3.938,0,0,0,43.586-3.982Zm5.654,2.057L51.086-7.9h1.45L49.351,1.3q-.74,1.99-2.351,1.99l-.256-.022-.505-.1V2.07L46.6,2.1a1.794,1.794,0,0,0,1.073-.28A2.029,2.029,0,0,0,48.311.795l.3-.811L45.784-7.9h1.479Zm11.4,1.032A1.944,1.944,0,0,0,61.9-1.336a1.559,1.559,0,0,0,.6-1.106h1.282a2.483,2.483,0,0,1-.469,1.3,3.093,3.093,0,0,1-1.154.988A3.311,3.311,0,0,1,60.637.22,3.255,3.255,0,0,1,58.063-.868a4.348,4.348,0,0,1-.956-2.974V-4.07a4.828,4.828,0,0,1,.425-2.071A3.25,3.25,0,0,1,58.751-7.55a3.447,3.447,0,0,1,1.879-.5,3.166,3.166,0,0,1,2.216.8,2.879,2.879,0,0,1,.941,2.086H62.5a1.884,1.884,0,0,0-.582-1.272,1.8,1.8,0,0,0-1.293-.5,1.892,1.892,0,0,0-1.6.748,3.53,3.53,0,0,0-.568,2.163v.258a3.46,3.46,0,0,0,.564,2.123A1.9,1.9,0,0,0,60.637-.893Zm4.314-3.1A4.736,4.736,0,0,1,65.409-6.1a3.43,3.43,0,0,1,1.274-1.445,3.452,3.452,0,0,1,1.864-.509,3.332,3.332,0,0,1,2.618,1.128,4.357,4.357,0,0,1,1,3v.1a4.778,4.778,0,0,1-.443,2.09A3.379,3.379,0,0,1,70.455-.3,3.492,3.492,0,0,1,68.562.22,3.324,3.324,0,0,1,65.951-.908a4.334,4.334,0,0,1-1-2.985Zm1.362.162a3.428,3.428,0,0,0,.612,2.13,1.953,1.953,0,0,0,1.637.8A1.941,1.941,0,0,0,70.2-1.708a3.749,3.749,0,0,0,.608-2.281,3.422,3.422,0,0,0-.619-2.127,1.963,1.963,0,0,0-1.644-.815,1.941,1.941,0,0,0-1.619.8A3.721,3.721,0,0,0,66.313-3.827ZM78.757-.716A2.869,2.869,0,0,1,76.436.22a2.455,2.455,0,0,1-1.93-.741,3.22,3.22,0,0,1-.67-2.193V-7.9H75.19v5.153q0,1.813,1.465,1.813A2.026,2.026,0,0,0,78.721-2.1V-7.9h1.355V.072H78.787ZM83.416-7.9l.044,1a2.881,2.881,0,0,1,2.373-1.15q2.512,0,2.534,2.853V.072H87.012V-5.206a1.844,1.844,0,0,0-.392-1.275,1.564,1.564,0,0,0-1.2-.413,1.947,1.947,0,0,0-1.157.354,2.4,2.4,0,0,0-.776.929V.072H82.134V-7.9Zm8.833-1.931V-7.9h1.479v1.054H92.249V-1.9a1.11,1.11,0,0,0,.2.719.83.83,0,0,0,.674.24,3.261,3.261,0,0,0,.645-.088V.072a3.9,3.9,0,0,1-1.04.147,1.682,1.682,0,0,1-1.37-.553,2.386,2.386,0,0,1-.461-1.57V-6.849H89.451V-7.9h1.443V-9.835ZM99.141-6.68a4.035,4.035,0,0,0-.667-.052,1.785,1.785,0,0,0-1.809,1.143V.072H95.31V-7.9h1.318l.022.921a2.107,2.107,0,0,1,1.89-1.069,1.376,1.376,0,0,1,.6.1Zm3.838,4.754L104.824-7.9h1.45L103.088,1.3q-.74,1.99-2.351,1.99l-.256-.022-.505-.1V2.07l.366.029a1.794,1.794,0,0,0,1.073-.28,2.029,2.029,0,0,0,.634-1.025l.3-.811L99.521-7.9H101Z" transform="translate(-0.001 11.976)"/><g transform="translate(0 55.492)"><g fill="#fff" stroke="#e5e5e5" stroke-width="1"><rect width="226" height="24.186" rx="3" stroke="none"/><rect x="0.5" y="0.5" width="225" height="23.186" rx="2.5" fill="none"/></g><text transform="translate(5.354 3)" fill="#8d8d8d" font-size="7" font-family="Poppins-Medium, Poppins" font-weight="500"><tspan x="0" y="7">Note : </tspan><tspan y="7" font-family="Poppins-Regular, Poppins" font-weight="400">It&apos;s important to note that achieving perfect accuracy </tspan><tspan x="0" y="15" font-family="Poppins-Regular, Poppins" font-weight="400">may not always be feasible or realistic in certain scenarios.</tspan></text></g><g transform="translate(0 22.246)"><g fill="#fff" stroke="#e5e5e5" stroke-width="1"><rect width="226" height="30" rx="3" stroke="none"/><rect x="0.5" y="0.5" width="225" height="29" rx="2.5" fill="none"/></g><g transform="translate(6 7)"><g transform="translate(201.602 6.5)"><path d="M155.114,169.533a.427.427,0,0,0-.549,0l-4.827,4.252-4.836-4.252a.427.427,0,0,0-.549,0,.313.313,0,0,0,0,.483l5.1,4.485a.407.407,0,0,0,.274.1.425.425,0,0,0,.274-.1l5.1-4.485a.307.307,0,0,0,.009-.483Z" transform="translate(-144.239 -169.433)" fill="#617482"/></g><text transform="translate(0 12)" fill="#424242" font-size="11" font-family="Roboto-Regular, Roboto"><tspan x="0" y="0">Search with country name </tspan></text></g></g><g transform="translate(113.225)"><path d="M148.027,305.64a6.506,6.506,0,1,1,6.836-6.5,6.681,6.681,0,0,1-6.836,6.5m8.186-8.1a8.264,8.264,0,0,0-8.183-6.341H134.352a7.952,7.952,0,1,0,0,15.884h13.679a8.154,8.154,0,0,0,8.352-7.942,7.581,7.581,0,0,0-.17-1.6" transform="translate(-125.999 -291.201)" fill="#cecece" fill-rule="evenodd"/></g></g><g transform="translate(483.001 274)"><rect width="67.425" height="25" rx="12.5" fill="url(#j)"/><text transform="translate(18 15)" fill="#fff" font-size="8" font-family="Poppins-SemiBold, Poppins" font-weight="600"><tspan x="0" y="0">Update</tspan></text></g><g transform="translate(417 274)"><g stroke="#ddd" stroke-width="1" fill="url(#k)"><rect width="61.425" height="25" rx="12.5" stroke="none"/><rect x="0.5" y="0.5" width="60.425" height="24" rx="12" fill="none"/></g><text transform="translate(19 15)" font-size="8" font-family="Poppins-SemiBold, Poppins" font-weight="600"><tspan x="0" y="0">Reset</tspan></text></g></g><g transform="translate(0 80)"><rect width="918" height="52" fill="#fcfcfc"/><g transform="translate(0 9)"><rect width="38" height="35" rx="5" fill="#ea595b"/><g transform="translate(8 7)"><path d="M16.8,5.8a11,11,0,1,0,11,11A11,11,0,0,0,16.8,5.8Zm-.755,14.62a.418.418,0,0,1-.418.419H13.786a.418.418,0,0,1-.418-.419V13.176a.418.418,0,0,1,.418-.418h1.837a.418.418,0,0,1,.418.418Zm4.183,0a.418.418,0,0,1-.418.419H17.969a.418.418,0,0,1-.418-.419V13.176a.418.418,0,0,1,.418-.418h1.837a.418.418,0,0,1,.418.418Z" transform="translate(-5.796 -5.796)" fill="#fff"/></g></g><g transform="translate(155.477 27.471)"><g transform="translate(0 2.529)"><text transform="translate(19.901 11)" fill="#989898" font-size="10" font-family="Poppins-Medium, Poppins" font-weight="500"><tspan x="0" y="0">Filter by Device</tspan></text><g transform="translate(0 2.368)"><path d="M24.15,24.773h0a.893.893,0,0,0-.893.894v3.954h4.067V25.668a.894.894,0,0,0-.894-.894H24.15Zm1.187,5.83a.3.3,0,1,1-.3.3.3.3,0,0,1,.3-.3Zm-.1-10.037H14.711a.9.9,0,0,0-.895.895v6.007h8.438a.3.3,0,1,1,0,.6H13.816V29.11a.9.9,0,0,0,.895.9H18.9v.949H17.711a.3.3,0,1,0,0,.6h4.524a.3.3,0,1,0,0-.6H21.044v-.949h1.8V25.668a1.306,1.306,0,0,1,1.266-1.306h0a.251.251,0,0,1,.041,0h1.98v-2.9a.9.9,0,0,0-.895-.895Zm-1.98,9.652v.438a.894.894,0,0,0,.895.894h2.278a.894.894,0,0,0,.894-.894v-.438H23.256Z" transform="translate(-13.816 -20.566)" fill="#989898"/></g></g><g transform="translate(112.105)"><text transform="translate(19.901 13.529)" fill="#ed5b5a" font-size="10" font-family="Poppins-Medium, Poppins" font-weight="500"><tspan x="0" y="0">resQ Score</tspan></text><g transform="translate(0)"><text transform="translate(0 13)" fill="#ed5b5a" font-size="12" font-family="HonestJohns, Honest Johns"><tspan x="0" y="0">Q</tspan></text></g></g><g transform="translate(203.684 2.529)"><text transform="translate(19.543 11)" fill="#989898" font-size="10" font-family="Poppins-Medium, Poppins" font-weight="500"><tspan x="0" y="0">Restrict Duplicate IP</tspan></text><g transform="translate(0 1.238)"><path d="M23.169,58.37h-.513c-.28.3-.538.562-.741.761a.746.746,0,0,1-.52.211.732.732,0,0,1-.52-.213c-.2-.2-.459-.455-.741-.759h-.516c-.716.128-1.179.333-1.179.564,0,.392,1.323.71,2.955.71s2.955-.317,2.955-.71C24.35,58.7,23.887,58.5,23.169,58.37Z" transform="translate(-15.089 -46.799)" fill="#989898"/><path d="M19.789,29.468a.336.336,0,0,0,.473,0c.757-.739,3.069-3.115,3.069-4.644a3.305,3.305,0,0,0-6.61,0C16.718,26.352,19.032,28.731,19.789,29.468ZM18.25,24.68a1.775,1.775,0,1,1,1.776,1.776A1.777,1.777,0,0,1,18.25,24.68Z" transform="translate(-13.718 -17.428)" fill="#989898"/><path d="M9.162,6.51a.242.242,0,1,0,.242.242A.242.242,0,0,0,9.162,6.51Z" transform="translate(-7.501 -5.465)" fill="#989898"/><path d="M17.442,6.51a.242.242,0,1,0,.242.242A.242.242,0,0,0,17.442,6.51Z" transform="translate(-14.101 -5.465)" fill="#989898"/><path d="M36.762,6.9H32.412a.162.162,0,1,0,0,.325h4.349a.162.162,0,0,0,0-.325Z" transform="translate(-26.096 -5.776)" fill="#989898"/><path d="M12.713,1.36H3.759A1.829,1.829,0,0,0,1.93,3.189v.544H14.54V3.189A1.825,1.825,0,0,0,12.713,1.36ZM3.59,3.292a.646.646,0,1,1,.645-.647A.647.647,0,0,1,3.59,3.292Zm1.68,0a.646.646,0,1,1,.645-.647A.647.647,0,0,1,5.271,3.292ZM12.6,3.213H8.246a.567.567,0,0,1,0-1.135H12.6a.567.567,0,0,1,0,1.135Z" transform="translate(-1.93 -1.36)" fill="#989898"/><path d="M1.93,20.055a1.83,1.83,0,0,0,1.827,1.831H5.4a4.422,4.422,0,0,1-.877-2.224,3.709,3.709,0,0,1,7.418,0,4.416,4.416,0,0,1-.877,2.224h1.648a1.83,1.83,0,0,0,1.827-1.831V15.04H1.93Zm10.515-4.309a.2.2,0,0,1,.2-.2h.524a.615.615,0,0,1,0,1.23h-.323v.475a.2.2,0,1,1-.406,0v-1.5Zm-.82,0a.2.2,0,1,1,.406,0v1.5a.2.2,0,1,1-.406,0Zm-8.778-.27h1.9a.2.2,0,1,1,0,.406h-1.9a.2.2,0,1,1,0-.406Zm0,.678H4.037a.2.2,0,0,1,0,.406H2.847a.2.2,0,0,1,0-.406Z" transform="translate(-1.93 -12.264)" fill="#989898"/><path d="M56.264,19.721a.212.212,0,0,0-.211-.211H55.73v.422h.323A.212.212,0,0,0,56.264,19.721Z" transform="translate(-44.811 -15.826)" fill="#989898"/></g></g></g><g transform="translate(48 5)"><text transform="translate(0 16)" font-size="15" font-family="Poppins-Bold, Poppins" font-weight="700"><tspan x="0" y="0">McDonalds Survey</tspan></text><text transform="translate(0 39)" fill="#6c6c6c" font-size="15" font-family="Poppins-Regular, Poppins"><tspan x="0" y="0">ASDF1234</tspan></text><g transform="translate(75.458 27)"><path d="M6.016,0a6.016,6.016,0,1,0,6.016,6.016A6.017,6.017,0,0,0,6.016,0Zm-.7,8.613V5.859a.7.7,0,0,1,1.39,0V8.613a.7.7,0,1,1-1.39,0Zm.7-4.208a.836.836,0,1,1,.836-.836.836.836,0,0,1-.836.836Z" fill="#989898"/></g><g transform="translate(149 6)"><g fill="#e4f4e4" stroke="#4baf4b" stroke-width="1"><rect width="28" height="14" rx="2" stroke="none"/><rect x="0.5" y="0.5" width="27" height="13" rx="1.5" fill="none"/></g><text transform="translate(5 11)" fill="#4baf4b" font-size="10" font-family="Poppins-Medium, Poppins" font-weight="500"><tspan x="0" y="0">Live</tspan></text></g></g><g transform="translate(633 15)"><g transform="translate(115.258)"><text transform="translate(23.292 14)" font-size="13" font-family="Poppins-Light, Poppins" font-weight="300"><tspan x="0" y="0">Refresh Dashboard</tspan></text><g transform="translate(0 2.121)"><path d="M13.609,6.238a7.379,7.379,0,1,0,7.379,7.379,7.387,7.387,0,0,0-7.379-7.379Zm0,3.162a4.219,4.219,0,0,1,3.568,1.969.527.527,0,0,1-.891.563,3.163,3.163,0,0,0-5.509.28l.6-.2h0a.527.527,0,1,1,.333,1l-1.581.527a.528.528,0,0,1-.666-.333l-.527-1.581a.527.527,0,0,1,1-.333l.055.163A4.219,4.219,0,0,1,13.609,9.4Zm3.6,4.219a.526.526,0,0,1,.551.358l.527,1.581a.527.527,0,1,1-1,.333l-.046-.139a4.217,4.217,0,0,1-7.454-.347.527.527,0,1,1,.954-.448,3.164,3.164,0,0,0,5.727.005l-.624.208h0a.527.527,0,0,1-.333-1l1.581-.527a.528.528,0,0,1,.115-.024Z" transform="translate(-6.23 -6.238)" fill="#f05a5c" fill-rule="evenodd"/></g></g><g transform="translate(0 4.289)"><circle cx="2.616" cy="2.616" r="2.616" transform="translate(4.368 3.769)" fill="#f05a5c"/><path d="M21.366,24.741a.108.108,0,0,0,.092-.051l.638-1.032a1.291,1.291,0,0,1,1.1-.612H25.93a1.291,1.291,0,0,1,1.1.612l.638,1.032a.108.108,0,0,0,.092.051h2.107a1.682,1.682,0,0,1,1.682,1.681v5.934a1.682,1.682,0,0,1-1.682,1.682H19.259a1.682,1.682,0,0,1-1.682-1.682V26.422a1.682,1.682,0,0,1,1.682-1.681Zm3.2,1.158a3.532,3.532,0,1,1-3.532,3.532A3.533,3.533,0,0,1,24.562,25.9Zm4.893,0a.819.819,0,1,1-.819.819A.819.819,0,0,1,29.455,25.9Z" transform="translate(-17.577 -23.046)" fill="#f05a5c" fill-rule="evenodd"/></g><text transform="translate(22.676 14)" font-size="13" font-family="Poppins-Light, Poppins" font-weight="300"><tspan x="0" y="0">Screenshot</tspan></text></g><g transform="translate(914.621 16.675)"><g transform="translate(0 0)"><path d="M15.123,8.091a1.561,1.561,0,1,1-1.561-1.561A1.561,1.561,0,0,1,15.123,8.091ZM13.561,0a1.561,1.561,0,1,0,1.561,1.561A1.561,1.561,0,0,0,13.561,0Zm0,13.058a1.561,1.561,0,1,0,1.561,1.561A1.561,1.561,0,0,0,13.561,13.058Z" transform="translate(-12 0)" fill="#989898"/></g></g></g><g transform="translate(0 140)"><g transform="translate(746 2)"><text transform="translate(172 16)" font-size="12" font-family="Poppins-Light, Poppins" font-weight="300"><tspan x="-78" y="0">resQ Settings</tspan></text><text transform="translate(0 16)" fill="#848484" font-size="12" font-family="Poppins-Light, Poppins" font-weight="300"><tspan x="0" y="0">Dashboard</tspan></text><text transform="translate(77 16)" fill="#989898" font-size="15" font-family="TeluguMN-Bold, Telugu MN" font-weight="700"><tspan x="0" y="0">/</tspan></text></g><text transform="translate(0 15)" font-size="14" font-family="Poppins-Light, Poppins" font-weight="300"><tspan x="0" y="0">Dashboard </tspan></text><rect width="91" height="1" transform="translate(120 23)" fill="#ed595b"/><text transform="translate(120 15)" fill="#ed595b" font-size="14" font-family="Poppins-Light, Poppins" font-weight="300"><tspan x="0" y="0">resQ Settings</tspan></text><text transform="translate(249 15)" font-size="14" font-family="Poppins-Light, Poppins" font-weight="300"><tspan x="0" y="0">Share Project</tspan></text><text transform="translate(378 15)" font-size="14" font-family="Poppins-Light, Poppins" font-weight="300"><tspan x="0" y="0">Reports &amp; Downloads</tspan></text></g><g transform="translate(3)"><rect width="919" height="74" fill="#fcfcfc"/><rect width="919" height="1" transform="translate(0 75)" fill="#f0f0f0"/><g transform="translate(662.238 13)"><g fill="#fff" stroke="#eaeaea" stroke-width="1"><rect width="50" height="50" rx="10" stroke="none"/><rect x="0.5" y="0.5" width="49" height="49" rx="9.5" fill="none"/></g><g transform="translate(14.881 14.215)"><g transform="translate(0 0)"><path d="M18.307,7.913l-.361-.874c1.237-2.853,1.156-2.938.914-3.182L17.28,2.281l-.157-.136h-.182c-.1,0-.384,0-2.788,1.112l-.885-.365C12.125,0,12.008,0,11.669,0H9.443C9.108,0,8.978,0,7.92,2.9l-.88.365A14.854,14.854,0,0,0,4.207,2.206H3.995L2.3,3.9c-.261.265-.352.352.957,3.161l-.361.872C0,9.078,0,9.188,0,9.547V11.77c0,.35,0,.473,2.9,1.536l.361.87c-1.237,2.853-1.154,2.938-.914,3.182l1.581,1.578.157.138h.185c.1,0,.38,0,2.786-1.114l.883.367c1.144,2.887,1.26,2.887,1.606,2.887h2.221c.342,0,.462,0,1.525-2.9l.885-.365a14.872,14.872,0,0,0,2.828,1.061h.212L18.933,17.3c.244-.25.329-.337-.972-3.136l.359-.872c2.9-1.154,2.9-1.275,2.9-1.623V9.445C21.216,9.1,21.216,8.972,18.307,7.913Zm-7.7,6.4a3.713,3.713,0,1,1,3.7-3.711,3.713,3.713,0,0,1-3.7,3.711Z" fill="#f05a5c"/></g></g></g><g transform="translate(281.581 13)"><g fill="#fff" stroke="#dedede" stroke-width="1"><rect width="247" height="50" rx="10" stroke="none"/><rect x="0.5" y="0.5" width="246" height="49" rx="9.5" fill="none"/></g><g transform="translate(20.499 15)"><path d="M19.438,20.425a8.03,8.03,0,1,1,.988-.988L25.591,24.6a.7.7,0,0,1-.988.988Zm0-1.979a6.634,6.634,0,1,0-.987.987,6.679,6.679,0,0,0,.987-.987Z" transform="translate(-6.249 -6.249)" fill="#f05a5c" fill-rule="evenodd"/></g><text transform="translate(104 30)" fill="#b1b1b1" font-size="12" font-family="Poppins-Light, Poppins" font-weight="300"><tspan x="-50.61" y="0">Search with data</tspan></text></g><g transform="translate(782 13)"><rect width="137" height="50" rx="10" fill="#ebebeb"/><text transform="translate(53 22)" font-size="14" font-family="Poppins-Light, Poppins" font-weight="300"><tspan x="0" y="0">Richard </tspan></text><text transform="translate(53 38)" fill="#7e7e7e" font-size="12" font-family="Poppins-Light, Poppins" font-weight="300"><tspan x="0" y="0">Director</tspan></text><g transform="translate(117.15 21)"><path d="M30.807,43.462a.656.656,0,0,1-.45-.18l-6.085-5.776a.649.649,0,1,1,.893-.943l5.641,5.353,5.638-5.353a.65.65,0,1,1,.894.943l-6.082,5.776a.652.652,0,0,1-.45.18Z" transform="translate(-24.069 -36.386)"/></g><g transform="translate(0 -33.902)"><path d="M40.368,3.9a6.139,6.139,0,0,1,6.138,6.138V40.368a6.139,6.139,0,0,1-6.138,6.138H10.04A6.139,6.139,0,0,1,3.9,40.368V10.041A6.139,6.139,0,0,1,10.04,3.9ZM29.773,24.84a14.971,14.971,0,0,1,9.744,10.124l0,.005a3.971,3.971,0,0,1-3.826,5.037c-5.281,0-15.7,0-20.983-.043a3.929,3.929,0,0,1-3.776-4.981,14.849,14.849,0,0,1,9.7-10.142,7.943,7.943,0,1,1,9.137,0ZM25.2,26.286A12.651,12.651,0,0,0,13.019,35.56v0a1.762,1.762,0,0,0,1.7,2.234h.009c5.278.043,15.689.043,20.967.043a1.806,1.806,0,0,0,1.741-2.288,12.744,12.744,0,0,0-12.228-9.265Zm0-2.167a5.777,5.777,0,1,0-5.777-5.777A5.779,5.779,0,0,0,25.2,24.119Z" transform="translate(0 34)" fill="#a2a2a2" fill-rule="evenodd"/></g></g><g transform="translate(722.169 13)"><g fill="#fff" stroke="#eaeaea" stroke-width="1"><rect width="50" height="50" rx="10" stroke="none"/><rect x="0.5" y="0.5" width="49" height="49" rx="9.5" fill="none"/></g><g transform="translate(15.191 15.202)"><g transform="translate(0 0)"><path d="M33,33.785A1.418,1.418,0,0,1,31.588,35.2H14.8a1.4,1.4,0,0,1-1.415-1.339,3.5,3.5,0,0,1,3.2-3.561V25.888a6.6,6.6,0,0,1,6.52-6.627h.139a6.6,6.6,0,0,1,6.563,6.627V30.3A3.5,3.5,0,0,1,33,33.785Z" transform="translate(-13.388 -17.383)" fill="#f05a5c"/><path d="M45.328,84.089H42.049a.67.67,0,1,1,0-1.339h3.279a.67.67,0,1,1,0,1.339Z" transform="translate(-33.881 -63.864)" fill="#f05a5c"/><path d="M48.17,15.256a.67.67,0,0,1-.67-.661V12.92a.67.67,0,0,1,1.339,0v1.674A.67.67,0,0,1,48.17,15.256Z" transform="translate(-38.362 -12.25)" fill="#f05a5c"/></g></g></g><g transform="translate(0.472 55.524)" style="isolation:isolate"><g clip-path="url(#l)"><g transform="translate(0.999 1)" style="isolation:isolate"><g clip-path="url(#m)"><text transform="translate(0 6.573)" fill="#8b8c8f" font-size="7" font-family="Poppins-Bold, Poppins" font-weight="700" letter-spacing="0.092em"><tspan x="0" y="0">Target Right, Gain Insight</tspan></text></g></g></g></g><path d="M11.668-26.412A13.777,13.777,0,0,1,15.129-32a7.079,7.079,0,0,1,4.835-1.788,3.367,3.367,0,0,1,.467.028,2.915,2.915,0,0,0,.412.028,16.3,16.3,0,0,0-.247,1.76q-.082.935-.082,2.2v2.7a7.556,7.556,0,0,0,.055.935l-.495.44a5.87,5.87,0,0,0-1.236-.55,5.129,5.129,0,0,0-1.566-.22,4.931,4.931,0,0,0-3.9,1.623,5.6,5.6,0,0,0-1.429,3.823v2.2q0,3.355.082,6.326t.357,5.721a12.048,12.048,0,0,0-1.786-.11H5.953a12.994,12.994,0,0,0-1.813.11q.275-2.75.357-5.721t.082-6.326v-2.2q0-3.355-.082-6.3T4.14-33.233q.934.11,1.9.193t1.9.083q.934,0,1.9-.083t1.9-.193l-.165,6.711Zm20.5,6.491A18.5,18.5,0,0,0,32.6-15.8a10.305,10.305,0,0,0,1.346,3.328,6.621,6.621,0,0,0,2.308,2.2,6.5,6.5,0,0,0,3.269.8,10.258,10.258,0,0,0,6.758-2.475l.659.5L45.735-8.37a11.15,11.15,0,0,1-3.3,1.678,16.582,16.582,0,0,1-5.055.633,17.309,17.309,0,0,1-5.11-.743A10.89,10.89,0,0,1,28.014-9.25,11.975,11.975,0,0,1,25.1-13.568a16.422,16.422,0,0,1-1.071-6.243,18.162,18.162,0,0,1,.962-6.216,12.257,12.257,0,0,1,2.665-4.4,10.889,10.889,0,0,1,4.039-2.64,14.3,14.3,0,0,1,5.083-.88q5.44,0,8.324,3.19t2.885,9.021v1.155a2.522,2.522,0,0,1-.055.66ZM40.625-22.4A21.331,21.331,0,0,0,39.608-29q-.907-2.475-3.05-2.475a2.761,2.761,0,0,0-2.033.825,5.959,5.959,0,0,0-1.319,2.118,14.11,14.11,0,0,0-.742,2.915,27.672,27.672,0,0,0-.3,3.218Zm12.857,8.856a8.5,8.5,0,0,0,.852,1.678,6.347,6.347,0,0,0,1.291,1.43,6.134,6.134,0,0,0,1.841,1.018,7.386,7.386,0,0,0,2.5.385,4.145,4.145,0,0,0,2.967-.99,2.931,2.931,0,0,0,1.044-2.145,2.507,2.507,0,0,0-.934-2.035,10.361,10.361,0,0,0-2.335-1.4q-1.4-.633-3.05-1.293a14.06,14.06,0,0,1-3.05-1.678,8.688,8.688,0,0,1-2.335-2.558,7.545,7.545,0,0,1-.934-3.96,8.712,8.712,0,0,1,.852-3.988,8.053,8.053,0,0,1,2.225-2.75,9.416,9.416,0,0,1,3.1-1.6,11.834,11.834,0,0,1,3.434-.523,11.763,11.763,0,0,1,4.094.66A17.2,17.2,0,0,1,68.7-31.363,14.961,14.961,0,0,0,67.878-29a21.127,21.127,0,0,0-.495,2.475H65.845A7.708,7.708,0,0,0,65.3-27.98a6.218,6.218,0,0,0-1.044-1.513,5.475,5.475,0,0,0-1.593-1.183,4.988,4.988,0,0,0-2.253-.468,4.369,4.369,0,0,0-2.775.88,2.792,2.792,0,0,0-1.126,2.31,2.614,2.614,0,0,0,.962,2.118,9.564,9.564,0,0,0,2.39,1.4q1.429.605,3.132,1.21a13.908,13.908,0,0,1,3.132,1.568,8.22,8.22,0,0,1,2.39,2.5,7.373,7.373,0,0,1,.962,3.96,9.084,9.084,0,0,1-.879,4.153,8.189,8.189,0,0,1-2.363,2.86A9.477,9.477,0,0,1,62.85-6.555a15.705,15.705,0,0,1-3.984.5,13.027,13.027,0,0,1-4.451-.715A14.8,14.8,0,0,1,51.284-8.26a29.29,29.29,0,0,0,.824-5.281Z" transform="translate(-2.436 53.63)" fill="#393939"/><path d="M108.812,20.656c-.551-3.812,3.176-7.239,7.9-4.152,4.584,7.835,2.717,13.468,0,21.278,3.756,3.784,3.529,3.125,6.2,6.346.6,3.67-.843,7.224-6.731,5.646-3.9-4.138-.906-.906-4.99-5.183C99.316,52.118,78.471,51.509,73.4,31.413,72.106,21.1,75.269,7.75,95.754,4.679c9.155-.9,7.839,9.2,1.959,8.965C95.423,13.43,83.174,16.08,83.189,25.6s7.683,16.088,14.523,15.088S112.983,34.368,108.812,20.656Z" transform="translate(0 1)" fill="url(#n)"/><g transform="translate(602.307 13)"><g fill="#fff" stroke="#ebebeb" stroke-width="1"><rect width="50" height="50" rx="10" stroke="none"/><rect x="0.5" y="0.5" width="49" height="49" rx="9.5" fill="none"/></g><g transform="translate(15 14)"><g transform="translate(0)"><path d="M15.586,18.182A6.657,6.657,0,0,0,14,19.348c-.464.414-2.5,2.644-3.2,3.482-1.007,1.214-.959,1.14-1.068-.339-.028-.383-.1-.761-.145-1.142-.064-.5-.243-.933-.763-1-.848-.109-1.548.082-1.548.8,0,1.869.209,3.619.37,5.514.028.332.013.75.281.986.335.287,1.211.188,1.742.163a29.18,29.18,0,0,0,4.708-.494c.745-.205.74-.812.7-1.42-.018-.271-.191-.806-.636-.827-.679-.032-1.4-.008-1.953,0-.445.006-.591-.042.181-.819,1.1-1.105,2.277-2.173,3.27-3.374a3.16,3.16,0,0,0,.817-1.271C16.871,18.953,16.379,17.882,15.586,18.182ZM27.8,7.074c-.216-.265-.657-.36-2.81-.076a25.453,25.453,0,0,1-3.837.249c-.642-.013-.9.776-.938,1.289a.771.771,0,0,0,.241.677,2.718,2.718,0,0,0,1.262.274c.453.046.908.063,1.361.1-.558.626-1.306,1.527-1.566,1.818-.8.888-1.36,1.565-2.133,2.473-.387.454-1.011,1.057-.752,1.712a1.143,1.143,0,0,0,1.476.558,12.932,12.932,0,0,0,2.056-1.7c.64-.619,1.092-1.191,1.7-1.844.317-.342.678-.806,1.05-1.159,0,0,.114,1.4.125,1.532.1,1.174.842,1.2,1.579,1.177.546-.014.787-.385.914-1,.107-.516.168-2.744.307-4.219C27.876,8.439,28.036,7.367,27.8,7.074Z" transform="translate(-7.276 -6.825)" fill="#f05a5c"/></g><g transform="translate(0 0)"><path d="M19.615,18.182a6.657,6.657,0,0,1,1.59,1.166c.464.414,2.5,2.644,3.2,3.482,1.007,1.214.959,1.14,1.068-.339.028-.383.1-.761.145-1.142.064-.5.243-.933.763-1,.848-.109,1.548.082,1.548.8,0,1.869-.209,3.619-.37,5.514-.028.332-.013.75-.281.986-.335.287-1.211.188-1.742.163a29.18,29.18,0,0,1-4.708-.494c-.745-.205-.74-.812-.7-1.42.018-.271.191-.806.636-.827.679-.032,1.4-.008,1.953,0,.445.006.591-.042-.181-.819-1.1-1.105-2.277-2.173-3.27-3.374a3.16,3.16,0,0,1-.817-1.271C18.33,18.953,18.822,17.882,19.615,18.182ZM7.4,7.074c.216-.265.657-.36,2.81-.076a25.453,25.453,0,0,0,3.837.249c.642-.013.9.776.938,1.289a.771.771,0,0,1-.241.677,2.718,2.718,0,0,1-1.262.274c-.453.046-.908.063-1.361.1.558.626,1.306,1.527,1.566,1.818.8.888,1.36,1.565,2.133,2.473.387.454,1.011,1.057.752,1.712a1.143,1.143,0,0,1-1.476.558,12.933,12.933,0,0,1-2.056-1.7c-.64-.619-1.092-1.191-1.7-1.844-.317-.342-.678-.806-1.05-1.159,0,0-.114,1.4-.125,1.532-.1,1.174-.842,1.2-1.579,1.177-.546-.014-.787-.385-.914-1-.107-.516-.168-2.744-.307-4.219C7.325,8.439,7.165,7.367,7.4,7.074Z" transform="translate(-7.276 -6.825)" fill="#f05a5c"/></g></g></g></g></svg>