<svg xmlns="http://www.w3.org/2000/svg" xmlns:xlink="http://www.w3.org/1999/xlink" width="100%" height="100%" viewBox="0 0 920 480"><defs><filter id="a" x="108.935" y="19.959" width="11.787" height="23.089" filterUnits="userSpaceOnUse"><feOffset dy="3" input="SourceAlpha"/><feGaussianBlur stdDeviation="3" result="b"/><feFlood flood-opacity="0.694" result="c"/><feComposite operator="out" in="SourceGraphic" in2="b"/><feComposite operator="in" in="c"/><feComposite operator="in" in2="SourceGraphic"/></filter><linearGradient id="d" x1="1.033" y1="0.5" x2="0.032" y2="0.5" gradientUnits="objectBoundingBox"><stop offset="0" stop-color="#f58b3e"/><stop offset="1" stop-color="#ed595b"/></linearGradient><linearGradient id="e" x1="0.978" y1="0.036" x2="0.012" y2="0.969" gradientUnits="objectBoundingBox"><stop offset="0" stop-color="#d55a86"/><stop offset="1" stop-color="#a9548f"/></linearGradient><linearGradient id="f" x1="1" x2="0" y2="1" gradientUnits="objectBoundingBox"><stop offset="0" stop-color="#69578e"/><stop offset="1" stop-color="#4669a6"/></linearGradient><clipPath id="g"><rect width="125.271" height="14.476" fill="none"/></clipPath><clipPath id="h"><path d="M0,0H122.274V13.476H0Z" fill="none"/></clipPath><linearGradient id="i" x1="0.527" x2="0.53" y2="1.078" gradientUnits="objectBoundingBox"><stop offset="0" stop-color="#feda00"/><stop offset="0.355" stop-color="#fdada8"/><stop offset="1" stop-color="#f05a5c"/></linearGradient><linearGradient id="j" x1="0.979" y1="0.049" x2="0.012" y2="0.947" gradientUnits="objectBoundingBox"><stop offset="0" stop-color="#13c2a2"/><stop offset="1" stop-color="#3c5879"/></linearGradient></defs><g transform="translate(1)"><rect width="919" height="399" transform="translate(0 80)" fill="#fdfdfd"/><rect width="919" height="160" transform="translate(0 76)" fill="#fcfcfc"/><text transform="translate(0 109)" font-size="18" font-family="Poppins-Medium, Poppins" font-weight="500"><tspan x="0" y="0">Dashboard</tspan></text><text transform="translate(-1 311)" font-size="18" font-family="Poppins-Medium, Poppins" font-weight="500"><tspan x="0" y="0">Projects</tspan></text><g transform="translate(801 283)"><rect width="118" height="43" rx="10" fill="url(#d)"/><text transform="translate(14 27)" fill="#fff" font-size="15" font-family="Poppins-Medium, Poppins" font-weight="500"><tspan x="0" y="0">New Project</tspan></text></g><g transform="translate(677 283)"><g fill="#fff" stroke="#ddd" stroke-width="1"><rect width="47" height="43" rx="10" stroke="none"/><rect x="0.5" y="0.5" width="46" height="42" rx="9.5" fill="none"/></g><g transform="translate(16 14)"><rect width="16" height="3" rx="1" fill="#b1b1b1"/><rect width="16" height="3" rx="1" transform="translate(0 7)" fill="#b1b1b1"/><rect width="16" height="3" rx="1" transform="translate(0 13)" fill="#b1b1b1"/></g></g><g transform="translate(615 283)"><g fill="#fff" stroke="#ddd" stroke-width="1"><rect width="47" height="43" rx="10" stroke="none"/><rect x="0.5" y="0.5" width="46" height="42" rx="9.5" fill="none"/></g><g transform="translate(16 14)"><path d="M10.915,5H6A1,1,0,0,0,5,6v4.915a1,1,0,0,0,1,1h4.915a1,1,0,0,0,1-1V6A1,1,0,0,0,10.915,5Z" transform="translate(-5 -5)" fill="#f05a5c"/><path d="M61.181,5H56.266a1,1,0,0,0-1,1v4.915a1,1,0,0,0,1,1h4.915a1,1,0,0,0,1-1V6A1,1,0,0,0,61.181,5Z" transform="translate(-46.518 -5)" fill="#f05a5c"/><path d="M10.915,55.266H6a1,1,0,0,0-1,1v4.915a1,1,0,0,0,1,1h4.915a1,1,0,0,0,1-1V56.266A1,1,0,0,0,10.915,55.266Z" transform="translate(-5 -46.518)" fill="#f05a5c"/><path d="M61.181,55.266H56.266a1,1,0,0,0-1,1v4.915a1,1,0,0,0,1,1h4.915a1,1,0,0,0,1-1V56.266A1,1,0,0,0,61.181,55.266Z" transform="translate(-46.518 -46.518)" fill="#f05a5c"/></g></g><g transform="translate(739 283)"><g fill="#fff" stroke="#ddd" stroke-width="1"><rect width="47" height="43" rx="10" stroke="none"/><rect x="0.5" y="0.5" width="46" height="42" rx="9.5" fill="none"/></g><g transform="translate(15 13)"><path d="M9.112,9.921h8.556a2.768,2.768,0,0,0,5.343,0h1.628a.742.742,0,0,0,0-1.483H23a2.768,2.768,0,0,0-5.343,0H9.112a.742.742,0,1,0,0,1.483ZM20.348,7.88a1.3,1.3,0,1,1-1.308,1.3A1.3,1.3,0,0,1,20.348,7.88Z" transform="translate(-8.37 -6.396)" fill="#b1b1b1" stroke="#b1b1b1" stroke-width="0.5"/><path d="M24.639,38.41H16.081a2.766,2.766,0,0,0-5.341,0H9.112a.742.742,0,0,0,0,1.483h1.634a2.766,2.766,0,0,0,5.341,0h8.552a.742.742,0,0,0,0-1.483ZM13.4,40.451a1.3,1.3,0,1,1,.923-.378A1.3,1.3,0,0,1,13.4,40.451Z" transform="translate(-8.37 -30.243)" fill="#b1b1b1" stroke="#b1b1b1" stroke-width="0.5"/><path d="M24.639,68.4H23a2.768,2.768,0,0,0-5.343,0H9.112a.742.742,0,0,0,0,1.483h8.556a2.768,2.768,0,0,0,5.343,0h1.628a.742.742,0,1,0,0-1.483Zm-4.29,2.043a1.3,1.3,0,1,1,1.291-1.3,1.3,1.3,0,0,1-1.291,1.3Z" transform="translate(-8.37 -54.106)" fill="#b1b1b1" stroke="#b1b1b1" stroke-width="0.5"/></g></g><rect width="2" height="17" rx="1" transform="translate(81 296)" fill="#d5d5d5"/><g transform="translate(309.499 130)"><g stroke="#ebebeb" stroke-width="1" fill="url(#e)"><rect width="300" height="134" rx="20" stroke="none"/><rect x="0.5" y="0.5" width="299" height="133" rx="19.5" fill="none"/></g><g transform="translate(82 14)"><text transform="translate(0 16)" fill="#fff" font-size="15" font-family="Poppins-Regular, Poppins"><tspan x="0" y="0">ResQ Analysis</tspan></text><text transform="translate(0 47)" fill="#fff" font-size="25" font-family="Poppins-ExtraBold, Poppins" font-weight="800"><tspan x="0" y="0">1,00,000</tspan></text></g><text transform="translate(13 91)" fill="#fff" font-size="11" font-family="Poppins-Regular, Poppins"><tspan x="0" y="0">Inorganic</tspan><tspan font-size="13" font-family="Poppins-Bold, Poppins" font-weight="700"><tspan x="0" y="19">20,000</tspan></tspan></text><text transform="translate(90 91)" fill="#fff" font-size="11" font-family="Poppins-Regular, Poppins"><tspan x="0" y="0">Least Organic</tspan><tspan font-size="13" font-family="Poppins-Bold, Poppins" font-weight="700"><tspan x="0" y="19">30,000</tspan></tspan></text><text transform="translate(191 91)" fill="#fff" font-size="11" font-family="Poppins-Regular, Poppins"><tspan x="0" y="0">Moderately </tspan><tspan font-size="13" font-family="Poppins-Bold, Poppins" font-weight="700"><tspan x="0" y="19">10,000</tspan></tspan></text><g transform="translate(13.407 14)"><path d="M43.34,37.5l-5.845,5.845-2.211-2.211L36.5,39.914,32.846,36.26v0a21.23,21.23,0,0,0,3.416-3.41L39.914,36.5l1.217-1.217Zm6.352,6.346-5.338-5.336L38.5,44.354l5.338,5.34h0a4.136,4.136,0,0,0,5.847-5.851ZM11.336,25.674h2.789V18.4H11.336Zm13.953,0h2.787l0-10.949H25.289Zm-6.977,0H21.1V11.122H18.313Zm1.394,13.742a19.71,19.71,0,1,1,13.933-5.774,19.706,19.706,0,0,1-13.933,5.774ZM31.85,31.851a17.166,17.166,0,1,0-12.144,5.032A17.166,17.166,0,0,0,31.85,31.851Zm3.6-12.142A15.748,15.748,0,0,1,19.706,35.454v0A15.741,15.741,0,1,1,35.449,19.709Zm-3.791,6.68a.713.713,0,0,0-.712-.716H29.506V14.009a.716.716,0,0,0-.716-.716H24.573a.718.718,0,0,0-.716.716V25.674H22.529V10.4a.716.716,0,0,0-.716-.716H17.6a.718.718,0,0,0-.716.716V25.674H15.557v-7.99a.716.716,0,0,0-.712-.716H10.62a.715.715,0,0,0-.716.716v7.99H8.467a.716.716,0,1,0,0,1.431c.718,0,1.439.01,2.159,0H30.945a.714.714,0,0,0,.5-.211.706.706,0,0,0,.207-.505Z" transform="translate(0.001 -0.004)" fill="#fff" fill-rule="evenodd"/></g></g><g transform="translate(619 130)"><g stroke="#ebebeb" stroke-width="1" fill="url(#f)"><rect width="300" height="134" rx="20" stroke="none"/><rect x="0.5" y="0.5" width="299" height="133" rx="19.5" fill="none"/></g><text transform="translate(13 95)" fill="#fff" font-size="11" font-family="Poppins-Regular, Poppins"><tspan x="0" y="0">Total Responses</tspan><tspan font-size="13" font-family="Poppins-Bold, Poppins" font-weight="700"><tspan x="0" y="19">1,00,000</tspan></tspan></text><text transform="translate(107 95)" fill="#fff" font-size="11" font-family="Poppins-Regular, Poppins"><tspan x="0" y="0">Total Filtered Out</tspan><tspan font-size="13" font-family="Poppins-Bold, Poppins" font-weight="700"><tspan x="0" y="19">71,234</tspan></tspan></text><text transform="translate(204 95)" fill="#fff" font-size="11" font-family="Poppins-Regular, Poppins"><tspan x="0" y="0">Total Qualified</tspan><tspan font-size="13" font-family="Poppins-Bold, Poppins" font-weight="700"><tspan x="0" y="19">28,766</tspan></tspan></text><g transform="translate(13.107 14)"><g transform="translate(61.893 0)"><text transform="translate(0 16)" fill="#fff" font-size="15" font-family="Poppins-Regular, Poppins"><tspan x="0" y="0">ResQ Efficiency</tspan></text><text transform="translate(0 47)" fill="#fff" font-size="25" font-family="Poppins-ExtraBold, Poppins" font-weight="800"><tspan x="0" y="0">1,00,000</tspan></text></g><path d="M53.481,52.522a.959.959,0,0,1-1.918,0,.959.959,0,0,1,1.918,0" transform="translate(-28.549 -23.754)" fill="#fff"/><path d="M44.071,29.688A14.4,14.4,0,0,0,29.687,44.072a14,14,0,0,0,.134,1.918h2.1A9.993,9.993,0,0,1,37.3,47.553L40.369,49.5a.747.747,0,0,0,.393.115h6.511A5.533,5.533,0,0,1,52.6,53.479l3.049-.892a14.375,14.375,0,0,0-11.584-22.9Zm8.132,7.6L46.66,42.835a3,3,0,0,1,.288,1.237A2.877,2.877,0,1,1,44.071,41.2a2.785,2.785,0,0,1,1.227.288l5.552-5.552a.955.955,0,0,1,1.352,0,.967.967,0,0,1,0,1.362Z" transform="translate(-20.098 -15.304)" fill="#fff"/><path d="M20.408,36.935h3.855a15.728,15.728,0,0,1-.115-1.918,16.3,16.3,0,0,1,32.6,0,16.035,16.035,0,0,1-1.956,7.709l.805-.23a5.367,5.367,0,0,1,1.5-.211,5.439,5.439,0,0,1,1.975.374,20.023,20.023,0,0,0-2.225-19.293l1.563-1.573a1.9,1.9,0,0,0,.566-1.352,1.939,1.939,0,0,0-.556-1.362l-2.042-2.033a1.964,1.964,0,0,0-2.7,0L52.1,18.62A19.953,19.953,0,0,0,43.8,15.187V12.962h.479A1.923,1.923,0,0,0,46.2,11.044V8.168A1.923,1.923,0,0,0,44.284,6.25H36.613a1.917,1.917,0,0,0-1.918,1.918v2.877a1.917,1.917,0,0,0,1.918,1.918h.479v2.225A19.9,19.9,0,0,0,28.8,18.62l-1.573-1.573a1.921,1.921,0,0,0-2.714,0L22.478,19.08a1.91,1.91,0,0,0,0,2.714l1.573,1.573a20,20,0,0,0-3.74,11.651,18.087,18.087,0,0,0,.1,1.918Z" transform="translate(-16.476 -6.25)" fill="#fff"/><path d="M53.723,64.859l-6.962,2.023a5.548,5.548,0,0,1-.182,1.045c-.019.048-.029.1-.048.144a5.386,5.386,0,0,1-3.366,3.452,4.937,4.937,0,0,1-1.764.307H34.909a.959.959,0,0,1,0-1.918H41.4a3.211,3.211,0,0,0,1.141-.2,3.476,3.476,0,0,0,2.167-2.225v-.01a3.479,3.479,0,0,0,.082-1.726A3.58,3.58,0,0,0,41.241,63H34.727a2.653,2.653,0,0,1-1.419-.412L30.24,60.64a8.134,8.134,0,0,0-4.358-1.266H14.063V74.65h6.175a1.729,1.729,0,0,1,.873.24l6.635,3.864a12.589,12.589,0,0,0,11.727.508l16.7-7.92a3.477,3.477,0,0,0-2.455-6.482Z" transform="translate(-14.063 -26.772)" fill="#fff"/></g></g><rect width="919" height="74" fill="#fcfcfc"/><rect width="919" height="1" transform="translate(0 75)" fill="#f0f0f0"/><g transform="translate(662.238 13)"><g fill="#fff" stroke="#eaeaea" stroke-width="1"><rect width="50" height="50" rx="10" stroke="none"/><rect x="0.5" y="0.5" width="49" height="49" rx="9.5" fill="none"/></g><g transform="translate(14.881 14.215)"><g transform="translate(0 0)"><path d="M18.307,7.913l-.361-.874c1.237-2.853,1.156-2.938.914-3.182L17.28,2.281l-.157-.136h-.182c-.1,0-.384,0-2.788,1.112l-.885-.365C12.125,0,12.008,0,11.669,0H9.443C9.108,0,8.978,0,7.92,2.9l-.88.365A14.854,14.854,0,0,0,4.207,2.206H3.995L2.3,3.9c-.261.265-.352.352.957,3.161l-.361.872C0,9.078,0,9.188,0,9.547V11.77c0,.35,0,.473,2.9,1.536l.361.87c-1.237,2.853-1.154,2.938-.914,3.182l1.581,1.578.157.138h.185c.1,0,.38,0,2.786-1.114l.883.367c1.144,2.887,1.26,2.887,1.606,2.887h2.221c.342,0,.462,0,1.525-2.9l.885-.365a14.872,14.872,0,0,0,2.828,1.061h.212L18.933,17.3c.244-.25.329-.337-.972-3.136l.359-.872c2.9-1.154,2.9-1.275,2.9-1.623V9.445C21.216,9.1,21.216,8.972,18.307,7.913Zm-7.7,6.4a3.713,3.713,0,1,1,3.7-3.711,3.713,3.713,0,0,1-3.7,3.711Z" fill="#f05a5c"/></g></g></g><g transform="translate(281.581 13)"><g fill="#fff" stroke="#dedede" stroke-width="1"><rect width="247" height="50" rx="10" stroke="none"/><rect x="0.5" y="0.5" width="246" height="49" rx="9.5" fill="none"/></g><g transform="translate(20.499 15)"><path d="M19.438,20.425a8.03,8.03,0,1,1,.988-.988L25.591,24.6a.7.7,0,0,1-.988.988Zm0-1.979a6.634,6.634,0,1,0-.987.987,6.679,6.679,0,0,0,.987-.987Z" transform="translate(-6.249 -6.249)" fill="#f05a5c" fill-rule="evenodd"/></g><text transform="translate(104 30)" fill="#b1b1b1" font-size="12" font-family="Poppins-Light, Poppins" font-weight="300"><tspan x="-50.61" y="0">Search with data</tspan></text></g><g transform="translate(782 13)"><rect width="137" height="50" rx="10" fill="#ebebeb"/><text transform="translate(53 22)" font-size="14" font-family="Poppins-Light, Poppins" font-weight="300"><tspan x="0" y="0">Richard </tspan></text><text transform="translate(53 38)" fill="#7e7e7e" font-size="12" font-family="Poppins-Light, Poppins" font-weight="300"><tspan x="0" y="0">Director</tspan></text><g transform="translate(117.15 21)"><path d="M30.807,43.462a.656.656,0,0,1-.45-.18l-6.085-5.776a.649.649,0,1,1,.893-.943l5.641,5.353,5.638-5.353a.65.65,0,1,1,.894.943l-6.082,5.776a.652.652,0,0,1-.45.18Z" transform="translate(-24.069 -36.386)"/></g><g transform="translate(0 -33.902)"><path d="M40.368,3.9a6.139,6.139,0,0,1,6.138,6.138V40.368a6.139,6.139,0,0,1-6.138,6.138H10.04A6.139,6.139,0,0,1,3.9,40.368V10.041A6.139,6.139,0,0,1,10.04,3.9ZM29.773,24.84a14.971,14.971,0,0,1,9.744,10.124l0,.005a3.971,3.971,0,0,1-3.826,5.037c-5.281,0-15.7,0-20.983-.043a3.929,3.929,0,0,1-3.776-4.981,14.849,14.849,0,0,1,9.7-10.142,7.943,7.943,0,1,1,9.137,0ZM25.2,26.286A12.651,12.651,0,0,0,13.019,35.56v0a1.762,1.762,0,0,0,1.7,2.234h.009c5.278.043,15.689.043,20.967.043a1.806,1.806,0,0,0,1.741-2.288,12.744,12.744,0,0,0-12.228-9.265Zm0-2.167a5.777,5.777,0,1,0-5.777-5.777A5.779,5.779,0,0,0,25.2,24.119Z" transform="translate(0 34)" fill="#a2a2a2" fill-rule="evenodd"/></g></g><g transform="translate(722.169 13)"><g fill="#fff" stroke="#eaeaea" stroke-width="1"><rect width="50" height="50" rx="10" stroke="none"/><rect x="0.5" y="0.5" width="49" height="49" rx="9.5" fill="none"/></g><g transform="translate(15.191 15.202)"><g transform="translate(0 0)"><path d="M33,33.785A1.418,1.418,0,0,1,31.588,35.2H14.8a1.4,1.4,0,0,1-1.415-1.339,3.5,3.5,0,0,1,3.2-3.561V25.888a6.6,6.6,0,0,1,6.52-6.627h.139a6.6,6.6,0,0,1,6.563,6.627V30.3A3.5,3.5,0,0,1,33,33.785Z" transform="translate(-13.388 -17.383)" fill="#f05a5c"/><path d="M45.328,84.089H42.049a.67.67,0,1,1,0-1.339h3.279a.67.67,0,1,1,0,1.339Z" transform="translate(-33.881 -63.864)" fill="#f05a5c"/><path d="M48.17,15.256a.67.67,0,0,1-.67-.661V12.92a.67.67,0,0,1,1.339,0v1.674A.67.67,0,0,1,48.17,15.256Z" transform="translate(-38.362 -12.25)" fill="#f05a5c"/></g></g></g><g transform="translate(0.472 55.524)" style="isolation:isolate"><g clip-path="url(#g)"><g transform="translate(0.999 1)" style="isolation:isolate"><g clip-path="url(#h)"><text transform="translate(0 6.573)" fill="#8b8c8f" font-size="7" font-family="Poppins-Bold, Poppins" font-weight="700" letter-spacing="0.092em"><tspan x="0" y="0">Target Right, Gain Insight</tspan></text></g></g></g></g><path d="M11.668-26.412A13.777,13.777,0,0,1,15.129-32a7.079,7.079,0,0,1,4.835-1.788,3.367,3.367,0,0,1,.467.028,2.915,2.915,0,0,0,.412.028,16.3,16.3,0,0,0-.247,1.76q-.082.935-.082,2.2v2.7a7.556,7.556,0,0,0,.055.935l-.495.44a5.87,5.87,0,0,0-1.236-.55,5.129,5.129,0,0,0-1.566-.22,4.931,4.931,0,0,0-3.9,1.623,5.6,5.6,0,0,0-1.429,3.823v2.2q0,3.355.082,6.326t.357,5.721a12.048,12.048,0,0,0-1.786-.11H5.953a12.994,12.994,0,0,0-1.813.11q.275-2.75.357-5.721t.082-6.326v-2.2q0-3.355-.082-6.3T4.14-33.233q.934.11,1.9.193t1.9.083q.934,0,1.9-.083t1.9-.193l-.165,6.711Zm20.5,6.491A18.5,18.5,0,0,0,32.6-15.8a10.305,10.305,0,0,0,1.346,3.328,6.621,6.621,0,0,0,2.308,2.2,6.5,6.5,0,0,0,3.269.8,10.258,10.258,0,0,0,6.758-2.475l.659.5L45.735-8.37a11.15,11.15,0,0,1-3.3,1.678,16.582,16.582,0,0,1-5.055.633,17.309,17.309,0,0,1-5.11-.743A10.89,10.89,0,0,1,28.014-9.25,11.975,11.975,0,0,1,25.1-13.568a16.422,16.422,0,0,1-1.071-6.243,18.162,18.162,0,0,1,.962-6.216,12.257,12.257,0,0,1,2.665-4.4,10.889,10.889,0,0,1,4.039-2.64,14.3,14.3,0,0,1,5.083-.88q5.44,0,8.324,3.19t2.885,9.021v1.155a2.522,2.522,0,0,1-.055.66ZM40.625-22.4A21.331,21.331,0,0,0,39.608-29q-.907-2.475-3.05-2.475a2.761,2.761,0,0,0-2.033.825,5.959,5.959,0,0,0-1.319,2.118,14.11,14.11,0,0,0-.742,2.915,27.672,27.672,0,0,0-.3,3.218Zm12.857,8.856a8.5,8.5,0,0,0,.852,1.678,6.347,6.347,0,0,0,1.291,1.43,6.134,6.134,0,0,0,1.841,1.018,7.386,7.386,0,0,0,2.5.385,4.145,4.145,0,0,0,2.967-.99,2.931,2.931,0,0,0,1.044-2.145,2.507,2.507,0,0,0-.934-2.035,10.361,10.361,0,0,0-2.335-1.4q-1.4-.633-3.05-1.293a14.06,14.06,0,0,1-3.05-1.678,8.688,8.688,0,0,1-2.335-2.558,7.545,7.545,0,0,1-.934-3.96,8.712,8.712,0,0,1,.852-3.988,8.053,8.053,0,0,1,2.225-2.75,9.416,9.416,0,0,1,3.1-1.6,11.834,11.834,0,0,1,3.434-.523,11.763,11.763,0,0,1,4.094.66A17.2,17.2,0,0,1,68.7-31.363,14.961,14.961,0,0,0,67.878-29a21.127,21.127,0,0,0-.495,2.475H65.845A7.708,7.708,0,0,0,65.3-27.98a6.218,6.218,0,0,0-1.044-1.513,5.475,5.475,0,0,0-1.593-1.183,4.988,4.988,0,0,0-2.253-.468,4.369,4.369,0,0,0-2.775.88,2.792,2.792,0,0,0-1.126,2.31,2.614,2.614,0,0,0,.962,2.118,9.564,9.564,0,0,0,2.39,1.4q1.429.605,3.132,1.21a13.908,13.908,0,0,1,3.132,1.568,8.22,8.22,0,0,1,2.39,2.5,7.373,7.373,0,0,1,.962,3.96,9.084,9.084,0,0,1-.879,4.153,8.189,8.189,0,0,1-2.363,2.86A9.477,9.477,0,0,1,62.85-6.555a15.705,15.705,0,0,1-3.984.5,13.027,13.027,0,0,1-4.451-.715A14.8,14.8,0,0,1,51.284-8.26a29.29,29.29,0,0,0,.824-5.281Z" transform="translate(-2.436 53.63)" fill="#393939"/><path d="M108.812,20.656c-.551-3.812,3.176-7.239,7.9-4.152,4.584,7.835,2.717,13.468,0,21.278,3.756,3.784,3.529,3.125,6.2,6.346.6,3.67-.843,7.224-6.731,5.646-3.9-4.138-.906-.906-4.99-5.183-11.876,7.527-31.6,7.639-36.82-12.747C73.549,22,75.269,7.75,95.754,4.679c9.155-.9,7.839,9.2,1.959,8.965C95.423,13.43,83.174,16.08,83.189,25.6s7.683,16.088,14.523,15.088S112.983,34.368,108.812,20.656Z" transform="translate(0 1)" fill="url(#i)"/><g transform="translate(602.307 13)"><g fill="#fff" stroke="#ebebeb" stroke-width="1"><rect width="50" height="50" rx="10" stroke="none"/><rect x="0.5" y="0.5" width="49" height="49" rx="9.5" fill="none"/></g><g transform="translate(15 14)"><g transform="translate(0)"><path d="M15.586,18.182A6.657,6.657,0,0,0,14,19.348c-.464.414-2.5,2.644-3.2,3.482-1.007,1.214-.959,1.14-1.068-.339-.028-.383-.1-.761-.145-1.142-.064-.5-.243-.933-.763-1-.848-.109-1.548.082-1.548.8,0,1.869.209,3.619.37,5.514.028.332.013.75.281.986.335.287,1.211.188,1.742.163a29.18,29.18,0,0,0,4.708-.494c.745-.205.74-.812.7-1.42-.018-.271-.191-.806-.636-.827-.679-.032-1.4-.008-1.953,0-.445.006-.591-.042.181-.819,1.1-1.105,2.277-2.173,3.27-3.374a3.16,3.16,0,0,0,.817-1.271C16.871,18.953,16.379,17.882,15.586,18.182ZM27.8,7.074c-.216-.265-.657-.36-2.81-.076a25.453,25.453,0,0,1-3.837.249c-.642-.013-.9.776-.938,1.289a.771.771,0,0,0,.241.677,2.718,2.718,0,0,0,1.262.274c.453.046.908.063,1.361.1-.558.626-1.306,1.527-1.566,1.818-.8.888-1.36,1.565-2.133,2.473-.387.454-1.011,1.057-.752,1.712a1.143,1.143,0,0,0,1.476.558,12.932,12.932,0,0,0,2.056-1.7c.64-.619,1.092-1.191,1.7-1.844.317-.342.678-.806,1.05-1.159,0,0,.114,1.4.125,1.532.1,1.174.842,1.2,1.579,1.177.546-.014.787-.385.914-1,.107-.516.168-2.744.307-4.219C27.876,8.439,28.036,7.367,27.8,7.074Z" transform="translate(-7.276 -6.825)" fill="#f05a5c"/></g><g transform="translate(0 0)"><path d="M19.615,18.182a6.657,6.657,0,0,1,1.59,1.166c.464.414,2.5,2.644,3.2,3.482,1.007,1.214.959,1.14,1.068-.339.028-.383.1-.761.145-1.142.064-.5.243-.933.763-1,.848-.109,1.548.082,1.548.8,0,1.869-.209,3.619-.37,5.514-.028.332-.013.75-.281.986-.335.287-1.211.188-1.742.163a29.18,29.18,0,0,1-4.708-.494c-.745-.205-.74-.812-.7-1.42.018-.271.191-.806.636-.827.679-.032,1.4-.008,1.953,0,.445.006.591-.042-.181-.819-1.1-1.105-2.277-2.173-3.27-3.374a3.16,3.16,0,0,1-.817-1.271C18.33,18.953,18.822,17.882,19.615,18.182ZM7.4,7.074c.216-.265.657-.36,2.81-.076a25.453,25.453,0,0,0,3.837.249c.642-.013.9.776.938,1.289a.771.771,0,0,1-.241.677,2.718,2.718,0,0,1-1.262.274c-.453.046-.908.063-1.361.1.558.626,1.306,1.527,1.566,1.818.8.888,1.36,1.565,2.133,2.473.387.454,1.011,1.057.752,1.712a1.143,1.143,0,0,1-1.476.558,12.933,12.933,0,0,1-2.056-1.7c-.64-.619-1.092-1.191-1.7-1.844-.317-.342-.678-.806-1.05-1.159,0,0-.114,1.4-.125,1.532-.1,1.174-.842,1.2-1.579,1.177-.546-.014-.787-.385-.914-1-.107-.516-.168-2.744-.307-4.219C7.325,8.439,7.165,7.367,7.4,7.074Z" transform="translate(-7.276 -6.825)" fill="#f05a5c"/></g></g></g><g transform="translate(93 294)"><text transform="translate(0 16)" fill="#ee5b5a" font-size="15" font-family="Poppins-Bold, Poppins" font-weight="700"><tspan x="0" y="0">In Progress</tspan><tspan y="0" font-family="Poppins-Medium, Poppins" font-weight="500">(09)</tspan></text><text transform="translate(135 16)" fill="#9d9999" font-size="15" font-family="Poppins-Medium, Poppins" font-weight="500"><tspan x="0" y="0" fill="#000">Live</tspan><tspan y="0" fill="#9d9999">(04)</tspan></text><text transform="translate(213 16)" fill="#9d9999" font-size="15" font-family="Poppins-Medium, Poppins" font-weight="500"><tspan x="0" y="0" fill="#000">Paused</tspan><tspan y="0" fill="#9d9999">(02)</tspan></text><text transform="translate(317 16)" fill="#9d9999" font-size="15" font-family="Poppins-Medium, Poppins" font-weight="500"><tspan x="0" y="0" fill="#000">Drafts</tspan><tspan y="0" fill="#9d9999">(03)</tspan></text><text transform="translate(410 16)" fill="#9d9999" font-size="15" font-family="Poppins-Medium, Poppins" font-weight="500"><tspan x="0" y="0" fill="#000">Closed</tspan><tspan y="0" fill="#9d9999">(01)</tspan></text></g><g transform="translate(-1 347)"><g fill="#fff" stroke="#e5e5e5" stroke-width="1"><rect width="450" height="133" rx="5" stroke="none"/><rect x="0.5" y="0.5" width="449" height="132" rx="4.5" fill="none"/></g><g transform="translate(298 84)"><path d="M20.445,9.839a10.176,10.176,0,0,1,.248,2.236,10.06,10.06,0,0,1-3.076,7.254c-.238-.709-.45-1.424-.629-2.154a21.088,21.088,0,0,1-.446-2.407c-.162-1.311-.5-1.71-.924-1.658-.37.046-.663.475-.955.913a2.386,2.386,0,0,1-.53.656c-.326.122-1.332-.436-2.112-1.142a3.821,3.821,0,0,1-.642-.728,1.219,1.219,0,0,1-.236-.619.621.621,0,0,1,.4-.545,1.728,1.728,0,0,1,.206-.076A1.451,1.451,0,0,0,12.966,10c0-.478.353-.814.863-1.069a8.774,8.774,0,0,1,1.809-.585l.008.015a26.4,26.4,0,0,0,1.8,2.476c.122.154.24.305.4.507a.931.931,0,0,0,.316.259.212.212,0,0,1,.032.015l0,0,0,0,0,0,0,0,0,0,0,0,0,0,0,0,0,0,0,0,0,0,.006,0,.006,0,0,0h0l0,0h0l0,0,0,0,0,0,0,0,0,0,0,0h0l0,0,0,0v-.017h0l0,0,.006,0,.006,0,.006,0h0l0,0h0l0,0h0l.006,0,0,0h0l0,0,0,0h0l0,0h0l0,0,0,0,0,0h0l.006,0,0,0h0l0,0h0l.013,0,0,0h0l0,0h0l0,0h0l0,0h.006l.011,0,.006,0h.006l0,0h0l0,0h.006l.006,0h0a.058.058,0,0,0,.019,0H18.5l.006,0h.017l0,0h.034l.006,0h.006a.905.905,0,0,0,.713-.349l.008-.011.006-.008.006-.008.006-.008.008-.008v0l.006-.008.006-.008.006-.008.006-.008v0l.006-.008.006-.008.006-.008h0l.006-.008.006-.008.006-.008v0l.006-.008h0l.006-.008.006-.008v0l.006-.006,0,0,.006-.008.006-.008.006-.008.006-.008.006-.008.006-.008.006-.008.006-.006,0,0,.006-.006v0l.006-.006.006-.008.006-.008.006-.006v0l.006-.006.006-.008.006-.006,0,0,.006-.006.006-.006v0l.006-.006.006-.008.006-.006.006-.006v0l.006-.006L19.541,11l.008-.013.006-.006.006-.008.006-.006.006-.006.006-.008.006-.006.006-.006.006-.008.006-.006.006-.006.006-.006.006-.008.006-.006.006-.006.006-.006.011-.015,0-.006.006-.006.006-.008.013-.015.011-.017.006-.006.006-.008.013-.015.011-.017.013-.015.008-.021.006-.006.006-.008.013-.017.011-.015.013-.017.013-.017.006-.006.006-.008.013-.017.011-.015.013-.017.013-.015.006-.008.006-.008.013-.017.011-.015h0C20.09,10.3,20.271,10.068,20.445,9.839Zm-4.117,7.5a21.755,21.755,0,0,1-.461-2.485,6.652,6.652,0,0,0-.162-1.062,2.668,2.668,0,0,0-.473.616,2.308,2.308,0,0,1-.856.913c-.532.2-1.868-.425-2.807-1.275a4.583,4.583,0,0,1-.757-.861,1.889,1.889,0,0,1-.345-.978,1.249,1.249,0,0,1,.751-1.155,1.786,1.786,0,0,1,.318-.126.876.876,0,0,0,.753-.913,1.868,1.868,0,0,1,1.239-1.681,8.934,8.934,0,0,1,1.816-.606A4.02,4.02,0,0,1,15.12,6a3.782,3.782,0,0,1,.932-2.2c.044-.048.088-.095.135-.141a10.108,10.108,0,0,0-2.979-1.347.335.335,0,0,1-.061.126A18.118,18.118,0,0,1,10.82,5.052,11.445,11.445,0,0,1,7.674,6.988a6.417,6.417,0,0,0-1.418.827c-.088.069-.173.141-.25.212a3.378,3.378,0,0,1,2.218.844,3.1,3.1,0,0,1,.25.248,3.82,3.82,0,0,1,.932,2.207,3.933,3.933,0,0,1-.528,2.359c-.149.25-.326.513-.515.783a3.349,3.349,0,0,1,1.22.57,1.523,1.523,0,0,1,.614,1.178,2.358,2.358,0,0,1-.417,1.3,7.843,7.843,0,0,1-2.377,2.2.157.157,0,0,0-.025.015h0a2.111,2.111,0,0,0-.663.568,4.47,4.47,0,0,0-.518.858l0,.008a10.1,10.1,0,0,0,10.9-1.355.335.335,0,0,1-.065-.114C16.761,18.928,16.526,18.145,16.328,17.335ZM2.722,12.98a4.007,4.007,0,0,1-.2-1.652c.008-.1.021-.2.038-.3a5.991,5.991,0,0,1-.8-.025,6.49,6.49,0,0,1-1.172-.231,10.265,10.265,0,0,0-.084,1.3,10.083,10.083,0,0,0,.646,3.56c.217-.448.446-.884.692-1.307A14.7,14.7,0,0,1,2.722,12.98Zm-.9-2.655a5.108,5.108,0,0,0,.915.008c.036-.1.076-.2.12-.295s.08-.168.126-.25A3.622,3.622,0,0,1,3.4,9.182h0l.05-.059,0,0,0,0,0,0,0,0,0,0,0,0,0,0,0,0,0,0v0l0,0,0,0,.008-.008,0,0a3.24,3.24,0,0,1,1.414-.884,5.5,5.5,0,0,1,.915-.907,7.07,7.07,0,0,1,1.57-.915,10.779,10.779,0,0,0,2.964-1.824,16.738,16.738,0,0,0,2.138-2.386A10.1,10.1,0,0,0,.7,10.089.178.178,0,0,1,.74,10.1,5.223,5.223,0,0,0,1.823,10.325Zm5.226,8.8A7.094,7.094,0,0,0,9.2,17.15a1.716,1.716,0,0,0,.313-.913.864.864,0,0,0-.36-.665,2.978,2.978,0,0,0-1.231-.509c-.221.295-.452.591-.68.882l-.015.017,0,.006-.008.011-.015.017-.008.011,0,.006-.013.017-.015.017-.013.017-.015.017,0,.006-.008.011-.013.017-.008.011,0,.006-.013.017-.013.017-.006.006-.006.006-.006.006v0l-.006.006-.006.006-.006.006-.006.008-.006.006,0,.006-.006.006L7,16.239,7,16.245l-.006.006,0,0-.011.013-.006.006-.006.006v0l-.006.006-.006.006-.011.015-.006.006-.006.008-.006.006-.006.008-.006.006h0l-.006.008-.006.006v0l-.006.006-.006.008-.006.006-.006.008h0l-.006.008-.006.006-.006.008-.006.008-.006.008-.006.006,0,0-.006.006v0l-.006.006v0l-.006.006v0L6.8,16.47v0l-.006.006v0l.013.013v0L6.8,16.5l-.006.008h0l-.006.008-.006.008v0l-.006.008h0l-.006.008-.006.008v0l-.006.008-.006.008v0l-.006.008-.006.008L6.73,16.6v0l-.006.008-.006.008-.006.008-.006.008-.006.008-.006.008-.008.008-.006.008a.895.895,0,0,1-.711.347.895.895,0,0,1-.713-.347c-.158-.2-.276-.353-.4-.507a26.127,26.127,0,0,1-1.8-2.476c-.221.318-.427.644-.623.98-.292.5-.558,1.014-.8,1.538a.34.34,0,0,1-.168.166,10.146,10.146,0,0,0,4.13,4.471,5.173,5.173,0,0,1,.589-.972A2.745,2.745,0,0,1,7.05,19.13ZM5.962,12.567a1.121,1.121,0,1,0-.8-.328A1.121,1.121,0,0,0,5.962,12.567Zm-1.8-3.185a2.76,2.76,0,0,1,3.608,0,2.452,2.452,0,0,1,.2.2,3.128,3.128,0,0,1,.76,1.811,3.253,3.253,0,0,1-.433,1.95,25.753,25.753,0,0,1-1.755,2.4c-.149.191-.3.379-.4.509a.262.262,0,0,1-.076.065.214.214,0,0,1-.1.019.23.23,0,0,1-.1-.019.213.213,0,0,1-.076-.065c-.1-.13-.248-.318-.4-.509a26.046,26.046,0,0,1-1.755-2.4A3.245,3.245,0,0,1,3.2,11.383a3.1,3.1,0,0,1,.76-1.807C4.024,9.508,4.089,9.443,4.159,9.382Zm.524.785a1.8,1.8,0,1,0,1.277-.53A1.8,1.8,0,0,0,4.683,10.167Zm16.2-2.148a25.928,25.928,0,0,1-1.755,2.4c-.149.191-.3.379-.4.509a.2.2,0,0,1-.076.065.23.23,0,0,1-.1.019.22.22,0,0,1-.1-.019l0,0h0a.242.242,0,0,1-.076-.065c-.1-.128-.248-.318-.4-.509a26.322,26.322,0,0,1-1.755-2.4,3.264,3.264,0,0,1-.433-1.955,3.118,3.118,0,0,1,.76-1.807q.095-.1.2-.2a2.76,2.76,0,0,1,3.608,0,2.453,2.453,0,0,1,.2.2,3.136,3.136,0,0,1,.76,1.811A3.226,3.226,0,0,1,20.883,8.019Zm-.52-1.9a1.81,1.81,0,1,0-.53,1.277A1.795,1.795,0,0,0,20.363,6.123ZM18.556,5a1.121,1.121,0,1,0,.8.328A1.13,1.13,0,0,0,18.556,5Z" transform="translate(-0.5 -1.97)" fill="#989898"/></g><g transform="translate(336 84)"><path d="M31.6,27.807h0a1.537,1.537,0,0,0-1.537,1.538v6.8h7v-6.8a1.538,1.538,0,0,0-1.538-1.538H31.6Zm2.043,10.032a.513.513,0,1,1-.513.513.513.513,0,0,1,.513-.513Zm-.174-17.273H15.356a1.541,1.541,0,0,0-1.539,1.539V32.443H28.338a.513.513,0,0,1,0,1.026H13.816v1.8a1.541,1.541,0,0,0,1.539,1.541H22.57v1.634H20.519a.513.513,0,0,0,0,1.026H28.3a.513.513,0,0,0,0-1.026h-2.05V36.81h3.1V29.346A2.247,2.247,0,0,1,31.527,27.1h0a.431.431,0,0,1,.07-.005h3.407V22.106a1.542,1.542,0,0,0-1.539-1.539ZM30.06,37.176v.754A1.539,1.539,0,0,0,31.6,39.468h3.921a1.538,1.538,0,0,0,1.538-1.538v-.754h-7Z" transform="translate(-13.816 -20.566)" fill="#989898"/></g><g transform="translate(377 81.5)"><g transform="translate(0 -6)"><text transform="translate(0 23)" fill="#ed5b5a" font-size="21" font-family="HonestJohns, Honest Johns"><tspan x="0" y="0">Q</tspan></text></g></g><g transform="translate(417 83)"><path d="M26.5,58.37h-.876c-.478.516-.917.959-1.263,1.3a1.272,1.272,0,0,1-.886.36,1.249,1.249,0,0,1-.886-.363c-.346-.336-.782-.775-1.263-1.294h-.879c-1.222.218-2.011.568-2.011.962,0,.668,2.256,1.211,5.039,1.211s5.039-.54,5.039-1.211C28.518,58.938,27.729,58.588,26.5,58.37Z" transform="translate(-12.726 -38.64)" fill="#989898"/><path d="M21.953,35.073a.572.572,0,0,0,.806,0c1.291-1.26,5.233-5.312,5.233-7.918a5.636,5.636,0,0,0-11.272,0C16.717,29.76,20.662,33.816,21.953,35.073Zm-2.623-8.164a3.027,3.027,0,1,1,3.028,3.028A3.029,3.029,0,0,1,19.329,26.909Z" transform="translate(-11.601 -14.543)" fill="#989898"/><path d="M9.332,6.51a.412.412,0,1,0,.412.412A.413.413,0,0,0,9.332,6.51Z" transform="translate(-6.501 -4.728)" fill="#989898"/><path d="M17.612,6.51a.412.412,0,1,0,.412.412A.413.413,0,0,0,17.612,6.51Z" transform="translate(-11.915 -4.728)" fill="#989898"/><path d="M39.943,6.9H32.527a.277.277,0,1,0,0,.554h7.417a.277.277,0,1,0,0-.554Z" transform="translate(-21.757 -4.983)" fill="#989898"/><path d="M20.318,1.36H5.048A3.119,3.119,0,0,0,1.93,4.478v.928h21.5V4.478A3.111,3.111,0,0,0,20.318,1.36ZM4.761,4.655a1.1,1.1,0,1,1,1.1-1.1A1.1,1.1,0,0,1,4.761,4.655Zm2.866,0a1.1,1.1,0,1,1,1.1-1.1A1.1,1.1,0,0,1,7.627,4.655Zm12.49-.135H12.7a.967.967,0,0,1,0-1.935h7.417a.967.967,0,0,1,0,1.935Z" transform="translate(-1.93 -1.36)" fill="#989898"/><path d="M1.93,23.592a3.121,3.121,0,0,0,3.115,3.122H7.852a7.541,7.541,0,0,1-1.5-3.793,6.325,6.325,0,0,1,12.649,0,7.53,7.53,0,0,1-1.5,3.793h2.81a3.121,3.121,0,0,0,3.115-3.122V15.04H1.93Zm17.931-7.347a.347.347,0,0,1,.346-.346H21.1a1.049,1.049,0,0,1,0,2.1h-.55v.81a.346.346,0,0,1-.692,0V16.244Zm-1.4,0a.346.346,0,1,1,.692,0v2.561a.346.346,0,1,1-.692,0Zm-14.968-.46H6.73a.346.346,0,1,1,0,.692H3.494a.346.346,0,1,1,0-.692Zm0,1.156H5.522a.346.346,0,0,1,0,.692H3.494a.346.346,0,0,1,0-.692Z" transform="translate(-1.93 -10.306)" fill="#989898"/><path d="M56.64,19.87a.362.362,0,0,0-.36-.36h-.55v.72h.55A.362.362,0,0,0,56.64,19.87Z" transform="translate(-37.111 -13.229)" fill="#989898"/></g><path d="M0,0H89a19,19,0,0,1,19,19v0A19,19,0,0,1,89,38H0a0,0,0,0,1,0,0V0A0,0,0,0,1,0,0Z" transform="translate(1 81)" fill="#f0f0f0"/><g transform="translate(11.999 83)"><g transform="translate(0 21)"><rect width="10" height="10" rx="5" transform="translate(0 2)" fill="#4baf4b"/><text transform="translate(22 11)" font-size="10" font-family="ChickenSans-Regular, Chicken Sans"><tspan x="-9.33" y="0">600</tspan></text></g><text transform="translate(72 14)" fill="#333" font-size="13" font-family="ChickenSans-Bold, Chicken Sans" font-weight="700"><tspan x="-14.742" y="0">1000</tspan></text><text transform="translate(26 13)" fill="#333" font-size="11" font-family="ChickenSans-Regular, Chicken Sans"><tspan x="-26.185" y="0">Responses</tspan></text><g transform="translate(51 20)"><text transform="translate(22 11)" font-size="10" font-family="ChickenSans-Regular, Chicken Sans"><tspan x="-9.26" y="0">400</tspan></text><rect width="10" height="10" rx="5" transform="translate(0 3)" fill="#e66564"/></g></g><g transform="translate(394 7)"><g transform="translate(0 2)"><g fill="#fff" stroke="#ddd" stroke-width="1"><rect width="22" height="22" rx="11" stroke="none"/><rect x="0.5" y="0.5" width="21" height="21" rx="10.5" fill="none"/></g><g transform="translate(5 4)"><g transform="translate(0 0)"><path d="M22.892,22.979a2.337,2.337,0,1,0,2.251,2.335A2.235,2.235,0,0,0,22.892,22.979Z" transform="translate(-18.948 -20.232)" fill="#989898"/><path d="M9.565,60.858a2.917,2.917,0,0,0,.6,1.7c.341.4,6.551.369,6.68,0a2.921,2.921,0,0,0,.6-1.7,3.886,3.886,0,0,0-3.926-3.809v0h-.036v0A3.886,3.886,0,0,0,9.565,60.858Z" transform="translate(-9.565 -49.093)" fill="#989898"/><path d="M52.14,5a2.235,2.235,0,0,0-2.252,2.335,2.253,2.253,0,1,0,4.5,0A2.234,2.234,0,0,0,52.14,5Z" transform="translate(-43.727 -5)" fill="#989898"/><path d="M48.286,39.07v0H48.25v0a4.078,4.078,0,0,0-1.624.351,2.856,2.856,0,0,1-1.308,2.047,4.49,4.49,0,0,1,2.965,3.4,10.264,10.264,0,0,0,3.325-.288,2.917,2.917,0,0,0,.6-1.7A3.886,3.886,0,0,0,48.286,39.07Z" transform="translate(-39.855 -33.862)" fill="#989898"/></g></g></g><g transform="translate(32)"><g fill="#fff" stroke="#707070" stroke-width="1" opacity="0"><rect width="23" height="25" stroke="none"/><rect x="0.5" y="0.5" width="22" height="24" fill="none"/></g><g transform="translate(9.621 4.675)"><path d="M15.123,8.091a1.561,1.561,0,1,1-1.561-1.561A1.561,1.561,0,0,1,15.123,8.091ZM13.561,0a1.561,1.561,0,1,0,1.561,1.561A1.561,1.561,0,0,0,13.561,0Zm0,13.058a1.561,1.561,0,1,0,1.561,1.561A1.561,1.561,0,0,0,13.561,13.058Z" transform="translate(-12 0)" fill="#989898"/></g></g></g><g transform="translate(10 9)"><text transform="translate(0 16)" font-size="15" font-family="Poppins-Medium, Poppins" font-weight="500"><tspan x="0" y="0">McDonalds Survey</tspan></text><text transform="translate(0 39)" fill="#6c6c6c" font-size="15" font-family="Poppins-Regular, Poppins"><tspan x="0" y="0">ASDF1234</tspan></text><g transform="translate(75.458 28)"><path d="M6.016,0a6.016,6.016,0,1,0,6.016,6.016A6.017,6.017,0,0,0,6.016,0Zm-.7,8.613V5.859a.7.7,0,0,1,1.39,0V8.613a.7.7,0,1,1-1.39,0Zm.7-4.208a.836.836,0,1,1,.836-.836.836.836,0,0,1-.836.836Z" fill="#989898"/></g><g transform="translate(146 5)"><g fill="#e4f4e4" stroke="#4baf4b" stroke-width="1"><rect width="28" height="14" rx="2" stroke="none"/><rect x="0.5" y="0.5" width="27" height="13" rx="1.5" fill="none"/></g><text transform="translate(5 11)" fill="#4baf4b" font-size="10" font-family="Poppins-Medium, Poppins" font-weight="500"><tspan x="0" y="0">Live</tspan></text></g></g></g><g transform="translate(0 130)"><g stroke="#ebebeb" stroke-width="1" fill="url(#j)"><rect width="300" height="134" rx="20" stroke="none"/><rect x="0.5" y="0.5" width="299" height="133" rx="19.5" fill="none"/></g><g transform="translate(19 13)"><g transform="translate(73.922)"><text transform="translate(0 16)" fill="#fff" font-size="15" font-family="Poppins-Regular, Poppins"><tspan x="0" y="0">All Projects</tspan></text><text transform="translate(0 47)" fill="#fff" font-size="25" font-family="Poppins-ExtraBold, Poppins" font-weight="800"><tspan x="0" y="0">300</tspan></text></g><g transform="translate(0 5.573)"><path d="M17.636,52.043H1.821A1.213,1.213,0,0,1,.613,50.835V17.588H9.007a.856.856,0,0,0,.856-.856v-6.62H33.121a1.213,1.213,0,0,1,1.208,1.208V30.837A13.761,13.761,0,0,0,17.636,52.043ZM45.744,39.737a3.386,3.386,0,0,0-3.275,2.572H28.1a.8.8,0,0,1-.25-1.558,2.371,2.371,0,1,0,2.483,3.157h1.772a4.084,4.084,0,1,1-1.118-3.684,3.948,3.948,0,0,1,.419.49h2.937a6.691,6.691,0,1,0,.4,3.2h1.722a8.384,8.384,0,1,1-.31-3.2h3.874a12.17,12.17,0,1,0,.21,3.2H42.47a3.385,3.385,0,0,0,3.275,2.573h11.5l-2.8-3.54,2.8-3.2ZM28.318,21.444H6.624a.857.857,0,0,0,0,1.713H28.318a.857.857,0,0,0,0-1.713Zm0,5.569H6.624a.857.857,0,0,0,0,1.713H28.318a.857.857,0,0,0,0-1.713Zm-13.51,5.571H6.624a.856.856,0,1,0,0,1.712h8.183a.856.856,0,0,0,0-1.712Zm-2.7,5.57H6.624a.857.857,0,0,0,0,1.713H12.11a.857.857,0,0,0,0-1.713Zm0,5.569H6.624a.857.857,0,0,0,0,1.713H12.11a.857.857,0,0,0,0-1.713ZM1.675,15.876H8.149v-5.09Z" transform="translate(-0.613 -10.112)" fill="#fff" fill-rule="evenodd"/></g></g><text transform="translate(19 94)" fill="#fff" font-size="11" font-family="Poppins-Regular, Poppins"><tspan x="0" y="0">In Progress</tspan><tspan font-size="13" font-family="Poppins-Bold, Poppins" font-weight="700"><tspan x="0" y="19">130</tspan></tspan></text><text transform="translate(117 94)" fill="#fff" font-size="11" font-family="Poppins-Regular, Poppins"><tspan x="0" y="0">Drafts</tspan><tspan font-size="13" font-family="Poppins-Bold, Poppins" font-weight="700"><tspan x="0" y="19">70</tspan></tspan></text><text transform="translate(187 94)" fill="#fff" font-size="11" font-family="Poppins-Regular, Poppins"><tspan x="0" y="0">Closed</tspan><tspan font-size="13" font-family="Poppins-Bold, Poppins" font-weight="700"><tspan x="0" y="19">100</tspan></tspan></text></g><g transform="translate(469 347)"><g fill="#fff" stroke="#e5e5e5" stroke-width="1"><rect width="450" height="133" rx="5" stroke="none"/><rect x="0.5" y="0.5" width="449" height="132" rx="4.5" fill="none"/></g><g transform="translate(298 84)"><path d="M20.445,9.839a10.176,10.176,0,0,1,.248,2.236,10.06,10.06,0,0,1-3.076,7.254c-.238-.709-.45-1.424-.629-2.154a21.088,21.088,0,0,1-.446-2.407c-.162-1.311-.5-1.71-.924-1.658-.37.046-.663.475-.955.913a2.386,2.386,0,0,1-.53.656c-.326.122-1.332-.436-2.112-1.142a3.821,3.821,0,0,1-.642-.728,1.219,1.219,0,0,1-.236-.619.621.621,0,0,1,.4-.545,1.728,1.728,0,0,1,.206-.076A1.451,1.451,0,0,0,12.966,10c0-.478.353-.814.863-1.069a8.774,8.774,0,0,1,1.809-.585l.008.015a26.4,26.4,0,0,0,1.8,2.476c.122.154.24.305.4.507a.931.931,0,0,0,.316.259.212.212,0,0,1,.032.015l0,0,0,0,0,0,0,0,0,0,0,0,0,0,0,0,0,0,0,0,0,0,.006,0,.006,0,0,0h0l0,0h0l0,0,0,0,0,0,0,0,0,0,0,0h0l0,0,0,0v-.017h0l0,0,.006,0,.006,0,.006,0h0l0,0h0l0,0h0l.006,0,0,0h0l0,0,0,0h0l0,0h0l0,0,0,0,0,0h0l.006,0,0,0h0l0,0h0l.013,0,0,0h0l0,0h0l0,0h0l0,0h.006l.011,0,.006,0h.006l0,0h0l0,0h.006l.006,0h0a.058.058,0,0,0,.019,0H18.5l.006,0h.017l0,0h.034l.006,0h.006a.905.905,0,0,0,.713-.349l.008-.011.006-.008.006-.008.006-.008.008-.008v0l.006-.008.006-.008.006-.008.006-.008v0l.006-.008.006-.008.006-.008h0l.006-.008.006-.008.006-.008v0l.006-.008h0l.006-.008.006-.008v0l.006-.006,0,0,.006-.008.006-.008.006-.008.006-.008.006-.008.006-.008.006-.008.006-.006,0,0,.006-.006v0l.006-.006.006-.008.006-.008.006-.006v0l.006-.006.006-.008.006-.006,0,0,.006-.006.006-.006v0l.006-.006.006-.008.006-.006.006-.006v0l.006-.006L19.541,11l.008-.013.006-.006.006-.008.006-.006.006-.006.006-.008.006-.006.006-.006.006-.008.006-.006.006-.006.006-.006.006-.008.006-.006.006-.006.006-.006.011-.015,0-.006.006-.006.006-.008.013-.015.011-.017.006-.006.006-.008.013-.015.011-.017.013-.015.008-.021.006-.006.006-.008.013-.017.011-.015.013-.017.013-.017.006-.006.006-.008.013-.017.011-.015.013-.017.013-.015.006-.008.006-.008.013-.017.011-.015h0C20.09,10.3,20.271,10.068,20.445,9.839Zm-4.117,7.5a21.755,21.755,0,0,1-.461-2.485,6.652,6.652,0,0,0-.162-1.062,2.668,2.668,0,0,0-.473.616,2.308,2.308,0,0,1-.856.913c-.532.2-1.868-.425-2.807-1.275a4.583,4.583,0,0,1-.757-.861,1.889,1.889,0,0,1-.345-.978,1.249,1.249,0,0,1,.751-1.155,1.786,1.786,0,0,1,.318-.126.876.876,0,0,0,.753-.913,1.868,1.868,0,0,1,1.239-1.681,8.934,8.934,0,0,1,1.816-.606A4.02,4.02,0,0,1,15.12,6a3.782,3.782,0,0,1,.932-2.2c.044-.048.088-.095.135-.141a10.108,10.108,0,0,0-2.979-1.347.335.335,0,0,1-.061.126A18.118,18.118,0,0,1,10.82,5.052,11.445,11.445,0,0,1,7.674,6.988a6.417,6.417,0,0,0-1.418.827c-.088.069-.173.141-.25.212a3.378,3.378,0,0,1,2.218.844,3.1,3.1,0,0,1,.25.248,3.82,3.82,0,0,1,.932,2.207,3.933,3.933,0,0,1-.528,2.359c-.149.25-.326.513-.515.783a3.349,3.349,0,0,1,1.22.57,1.523,1.523,0,0,1,.614,1.178,2.358,2.358,0,0,1-.417,1.3,7.843,7.843,0,0,1-2.377,2.2.157.157,0,0,0-.025.015h0a2.111,2.111,0,0,0-.663.568,4.47,4.47,0,0,0-.518.858l0,.008a10.1,10.1,0,0,0,10.9-1.355.335.335,0,0,1-.065-.114C16.761,18.928,16.526,18.145,16.328,17.335ZM2.722,12.98a4.007,4.007,0,0,1-.2-1.652c.008-.1.021-.2.038-.3a5.991,5.991,0,0,1-.8-.025,6.49,6.49,0,0,1-1.172-.231,10.265,10.265,0,0,0-.084,1.3,10.083,10.083,0,0,0,.646,3.56c.217-.448.446-.884.692-1.307A14.7,14.7,0,0,1,2.722,12.98Zm-.9-2.655a5.108,5.108,0,0,0,.915.008c.036-.1.076-.2.12-.295s.08-.168.126-.25A3.622,3.622,0,0,1,3.4,9.182h0l.05-.059,0,0,0,0,0,0,0,0,0,0,0,0,0,0,0,0,0,0v0l0,0,0,0,.008-.008,0,0a3.24,3.24,0,0,1,1.414-.884,5.5,5.5,0,0,1,.915-.907,7.07,7.07,0,0,1,1.57-.915,10.779,10.779,0,0,0,2.964-1.824,16.738,16.738,0,0,0,2.138-2.386A10.1,10.1,0,0,0,.7,10.089.178.178,0,0,1,.74,10.1,5.223,5.223,0,0,0,1.823,10.325Zm5.226,8.8A7.094,7.094,0,0,0,9.2,17.15a1.716,1.716,0,0,0,.313-.913.864.864,0,0,0-.36-.665,2.978,2.978,0,0,0-1.231-.509c-.221.295-.452.591-.68.882l-.015.017,0,.006-.008.011-.015.017-.008.011,0,.006-.013.017-.015.017-.013.017-.015.017,0,.006-.008.011-.013.017-.008.011,0,.006-.013.017-.013.017-.006.006-.006.006-.006.006v0l-.006.006-.006.006-.006.006-.006.008-.006.006,0,.006-.006.006L7,16.239,7,16.245l-.006.006,0,0-.011.013-.006.006-.006.006v0l-.006.006-.006.006-.011.015-.006.006-.006.008-.006.006-.006.008-.006.006h0l-.006.008-.006.006v0l-.006.006-.006.008-.006.006-.006.008h0l-.006.008-.006.006-.006.008-.006.008-.006.008-.006.006,0,0-.006.006v0l-.006.006v0l-.006.006v0L6.8,16.47v0l-.006.006v0l.013.013v0L6.8,16.5l-.006.008h0l-.006.008-.006.008v0l-.006.008h0l-.006.008-.006.008v0l-.006.008-.006.008v0l-.006.008-.006.008L6.73,16.6v0l-.006.008-.006.008-.006.008-.006.008-.006.008-.006.008-.008.008-.006.008a.895.895,0,0,1-.711.347.895.895,0,0,1-.713-.347c-.158-.2-.276-.353-.4-.507a26.127,26.127,0,0,1-1.8-2.476c-.221.318-.427.644-.623.98-.292.5-.558,1.014-.8,1.538a.34.34,0,0,1-.168.166,10.146,10.146,0,0,0,4.13,4.471,5.173,5.173,0,0,1,.589-.972A2.745,2.745,0,0,1,7.05,19.13ZM5.962,12.567a1.121,1.121,0,1,0-.8-.328A1.121,1.121,0,0,0,5.962,12.567Zm-1.8-3.185a2.76,2.76,0,0,1,3.608,0,2.452,2.452,0,0,1,.2.2,3.128,3.128,0,0,1,.76,1.811,3.253,3.253,0,0,1-.433,1.95,25.753,25.753,0,0,1-1.755,2.4c-.149.191-.3.379-.4.509a.262.262,0,0,1-.076.065.214.214,0,0,1-.1.019.23.23,0,0,1-.1-.019.213.213,0,0,1-.076-.065c-.1-.13-.248-.318-.4-.509a26.046,26.046,0,0,1-1.755-2.4A3.245,3.245,0,0,1,3.2,11.383a3.1,3.1,0,0,1,.76-1.807C4.024,9.508,4.089,9.443,4.159,9.382Zm.524.785a1.8,1.8,0,1,0,1.277-.53A1.8,1.8,0,0,0,4.683,10.167Zm16.2-2.148a25.928,25.928,0,0,1-1.755,2.4c-.149.191-.3.379-.4.509a.2.2,0,0,1-.076.065.23.23,0,0,1-.1.019.22.22,0,0,1-.1-.019l0,0h0a.242.242,0,0,1-.076-.065c-.1-.128-.248-.318-.4-.509a26.322,26.322,0,0,1-1.755-2.4,3.264,3.264,0,0,1-.433-1.955,3.118,3.118,0,0,1,.76-1.807q.095-.1.2-.2a2.76,2.76,0,0,1,3.608,0,2.453,2.453,0,0,1,.2.2,3.136,3.136,0,0,1,.76,1.811A3.226,3.226,0,0,1,20.883,8.019Zm-.52-1.9a1.81,1.81,0,1,0-.53,1.277A1.795,1.795,0,0,0,20.363,6.123ZM18.556,5a1.121,1.121,0,1,0,.8.328A1.13,1.13,0,0,0,18.556,5Z" transform="translate(-0.5 -1.97)" fill="#989898"/></g><g transform="translate(336 84)"><path d="M31.6,27.807h0a1.537,1.537,0,0,0-1.537,1.538v6.8h7v-6.8a1.538,1.538,0,0,0-1.538-1.538H31.6Zm2.043,10.032a.513.513,0,1,1-.513.513.513.513,0,0,1,.513-.513Zm-.174-17.273H15.356a1.541,1.541,0,0,0-1.539,1.539V32.443H28.338a.513.513,0,0,1,0,1.026H13.816v1.8a1.541,1.541,0,0,0,1.539,1.541H22.57v1.634H20.519a.513.513,0,0,0,0,1.026H28.3a.513.513,0,0,0,0-1.026h-2.05V36.81h3.1V29.346A2.247,2.247,0,0,1,31.527,27.1h0a.431.431,0,0,1,.07-.005h3.407V22.106a1.542,1.542,0,0,0-1.539-1.539ZM30.06,37.176v.754A1.539,1.539,0,0,0,31.6,39.468h3.921a1.538,1.538,0,0,0,1.538-1.538v-.754h-7Z" transform="translate(-13.816 -20.566)" fill="#ed5b5a"/></g><g transform="translate(377 81.5)"><g transform="translate(0 -6)"><text transform="translate(0 23)" fill="#989898" font-size="21" font-family="HonestJohns, Honest Johns"><tspan x="0" y="0">Q</tspan></text></g></g><g transform="translate(417 83)"><path d="M26.5,58.37h-.876c-.478.516-.917.959-1.263,1.3a1.272,1.272,0,0,1-.886.36,1.249,1.249,0,0,1-.886-.363c-.346-.336-.782-.775-1.263-1.294h-.879c-1.222.218-2.011.568-2.011.962,0,.668,2.256,1.211,5.039,1.211s5.039-.54,5.039-1.211C28.518,58.938,27.729,58.588,26.5,58.37Z" transform="translate(-12.726 -38.64)" fill="#989898"/><path d="M21.953,35.073a.572.572,0,0,0,.806,0c1.291-1.26,5.233-5.312,5.233-7.918a5.636,5.636,0,0,0-11.272,0C16.717,29.76,20.662,33.816,21.953,35.073Zm-2.623-8.164a3.027,3.027,0,1,1,3.028,3.028A3.029,3.029,0,0,1,19.329,26.909Z" transform="translate(-11.601 -14.543)" fill="#989898"/><path d="M9.332,6.51a.412.412,0,1,0,.412.412A.413.413,0,0,0,9.332,6.51Z" transform="translate(-6.501 -4.728)" fill="#989898"/><path d="M17.612,6.51a.412.412,0,1,0,.412.412A.413.413,0,0,0,17.612,6.51Z" transform="translate(-11.915 -4.728)" fill="#989898"/><path d="M39.943,6.9H32.527a.277.277,0,1,0,0,.554h7.417a.277.277,0,1,0,0-.554Z" transform="translate(-21.757 -4.983)" fill="#989898"/><path d="M20.318,1.36H5.048A3.119,3.119,0,0,0,1.93,4.478v.928h21.5V4.478A3.111,3.111,0,0,0,20.318,1.36ZM4.761,4.655a1.1,1.1,0,1,1,1.1-1.1A1.1,1.1,0,0,1,4.761,4.655Zm2.866,0a1.1,1.1,0,1,1,1.1-1.1A1.1,1.1,0,0,1,7.627,4.655Zm12.49-.135H12.7a.967.967,0,0,1,0-1.935h7.417a.967.967,0,0,1,0,1.935Z" transform="translate(-1.93 -1.36)" fill="#989898"/><path d="M1.93,23.592a3.121,3.121,0,0,0,3.115,3.122H7.852a7.541,7.541,0,0,1-1.5-3.793,6.325,6.325,0,0,1,12.649,0,7.53,7.53,0,0,1-1.5,3.793h2.81a3.121,3.121,0,0,0,3.115-3.122V15.04H1.93Zm17.931-7.347a.347.347,0,0,1,.346-.346H21.1a1.049,1.049,0,0,1,0,2.1h-.55v.81a.346.346,0,0,1-.692,0V16.244Zm-1.4,0a.346.346,0,1,1,.692,0v2.561a.346.346,0,1,1-.692,0Zm-14.968-.46H6.73a.346.346,0,1,1,0,.692H3.494a.346.346,0,1,1,0-.692Zm0,1.156H5.522a.346.346,0,0,1,0,.692H3.494a.346.346,0,0,1,0-.692Z" transform="translate(-1.93 -10.306)" fill="#989898"/><path d="M56.64,19.87a.362.362,0,0,0-.36-.36h-.55v.72h.55A.362.362,0,0,0,56.64,19.87Z" transform="translate(-37.111 -13.229)" fill="#989898"/></g><path d="M0,0H89a19,19,0,0,1,19,19v0A19,19,0,0,1,89,38H0a0,0,0,0,1,0,0V0A0,0,0,0,1,0,0Z" transform="translate(1 81)" fill="#f0f0f0"/><g transform="translate(11.999 83)"><g transform="translate(0 21)"><rect width="10" height="10" rx="5" transform="translate(0 2)" fill="#4baf4b"/><text transform="translate(14 11)" font-size="10" font-family="ChickenSans-Regular, Chicken Sans"><tspan x="0" y="0">1500</tspan></text></g><text transform="translate(72 14)" fill="#333" font-size="13" font-family="ChickenSans-Bold, Chicken Sans" font-weight="700"><tspan x="-15.97" y="0">2000</tspan></text><text transform="translate(26 13)" fill="#333" font-size="11" font-family="ChickenSans-Regular, Chicken Sans"><tspan x="-26.185" y="0">Responses</tspan></text><g transform="translate(51 20)"><text transform="translate(22 11)" font-size="10" font-family="ChickenSans-Regular, Chicken Sans"><tspan x="-9.12" y="0">500</tspan></text><rect width="10" height="10" rx="5" transform="translate(0 3)" fill="#e66564"/></g></g><g transform="translate(394 10)"><g transform="translate(0 2)"><g fill="#fff" stroke="#ddd" stroke-width="1"><rect width="22" height="22" rx="11" stroke="none"/><rect x="0.5" y="0.5" width="21" height="21" rx="10.5" fill="none"/></g><g transform="translate(5 4)"><g transform="translate(0 0)"><path d="M22.892,22.979a2.337,2.337,0,1,0,2.251,2.335A2.235,2.235,0,0,0,22.892,22.979Z" transform="translate(-18.948 -20.232)" fill="#989898"/><path d="M9.565,60.858a2.917,2.917,0,0,0,.6,1.7c.341.4,6.551.369,6.68,0a2.921,2.921,0,0,0,.6-1.7,3.886,3.886,0,0,0-3.926-3.809v0h-.036v0A3.886,3.886,0,0,0,9.565,60.858Z" transform="translate(-9.565 -49.093)" fill="#989898"/><path d="M52.14,5a2.235,2.235,0,0,0-2.252,2.335,2.253,2.253,0,1,0,4.5,0A2.234,2.234,0,0,0,52.14,5Z" transform="translate(-43.727 -5)" fill="#989898"/><path d="M48.286,39.07v0H48.25v0a4.078,4.078,0,0,0-1.624.351,2.856,2.856,0,0,1-1.308,2.047,4.49,4.49,0,0,1,2.965,3.4,10.264,10.264,0,0,0,3.325-.288,2.917,2.917,0,0,0,.6-1.7A3.886,3.886,0,0,0,48.286,39.07Z" transform="translate(-39.855 -33.862)" fill="#989898"/></g></g></g><g transform="translate(32)"><g fill="#fff" stroke="#707070" stroke-width="1" opacity="0"><rect width="23" height="25" stroke="none"/><rect x="0.5" y="0.5" width="22" height="24" fill="none"/></g><g transform="translate(9.621 4.675)"><path d="M15.123,8.091a1.561,1.561,0,1,1-1.561-1.561A1.561,1.561,0,0,1,15.123,8.091ZM13.561,0a1.561,1.561,0,1,0,1.561,1.561A1.561,1.561,0,0,0,13.561,0Zm0,13.058a1.561,1.561,0,1,0,1.561,1.561A1.561,1.561,0,0,0,13.561,13.058Z" transform="translate(-12 0)" fill="#989898"/></g></g></g><g transform="translate(10 8)"><text transform="translate(0 16)" font-size="15" font-family="Poppins-Medium, Poppins" font-weight="500"><tspan x="0" y="0">Burger King 12_07</tspan></text><text transform="translate(0 39)" fill="#6c6c6c" font-size="15" font-family="Poppins-Regular, Poppins"><tspan x="0" y="0">0987POIUY</tspan></text><g transform="translate(86.458 28)"><path d="M6.016,0a6.016,6.016,0,1,0,6.016,6.016A6.017,6.017,0,0,0,6.016,0Zm-.7,8.613V5.859a.7.7,0,0,1,1.39,0V8.613a.7.7,0,1,1-1.39,0Zm.7-4.208a.836.836,0,1,1,.836-.836.836.836,0,0,1-.836.836Z" fill="#989898"/></g><g transform="translate(137 5)"><g fill="#fcf3dd" stroke="#c99a30" stroke-width="1"><rect width="45" height="14" rx="2" stroke="none"/><rect x="0.5" y="0.5" width="44" height="13" rx="1.5" fill="none"/></g><text transform="translate(4 11)" fill="#c99a30" font-size="10" font-family="Poppins-Medium, Poppins" font-weight="500"><tspan x="0" y="0">Paused</tspan></text></g></g></g></g></svg>