<svg id="sales_marketing" xmlns="http://www.w3.org/2000/svg" width="67.906" height="66.767" viewBox="0 0 67.906 66.767">
  <path id="Path_50557" data-name="Path 50557" d="M54.985,44.965V70.313a1.065,1.065,0,0,1-1.065,1.065H46.048a1.065,1.065,0,0,1-1.065-1.065V44.965A1.065,1.065,0,0,1,46.048,43.9H53.92A1.064,1.064,0,0,1,54.985,44.965ZM37.19,15.342a1.065,1.065,0,0,0,1.065,1.065h2.882a1.065,1.065,0,1,0,0-2.13H38.254A1.065,1.065,0,0,0,37.19,15.342Zm2.983,35.765H32.3a1.065,1.065,0,0,0-1.065,1.065V70.313A1.065,1.065,0,0,0,32.3,71.378h7.872a1.065,1.065,0,0,0,1.065-1.065V52.171A1.064,1.064,0,0,0,40.173,51.106ZM36.3,12.028a1.065,1.065,0,0,0,1.455.39l2.5-1.441a1.065,1.065,0,0,0-1.066-1.845l-2.5,1.441A1.064,1.064,0,0,0,36.3,12.028ZM26.427,58.312H18.555a1.065,1.065,0,0,0-1.065,1.065V70.313a1.065,1.065,0,0,0,1.065,1.065h7.872a1.065,1.065,0,0,0,1.065-1.065V59.377A1.065,1.065,0,0,0,26.427,58.312ZM18.152,39.323l-3.684-6.382a2.989,2.989,0,0,1-1.158.233,3.062,3.062,0,0,1-.791-.1,3.029,3.029,0,0,1-1.227-.661,5.1,5.1,0,0,1-2.267.532,5.224,5.224,0,0,1-1.35-.179A5.155,5.155,0,0,1,6.147,23.5,3.03,3.03,0,0,1,7.6,20.265l4.738-2.735,8.113-8.871a3.317,3.317,0,0,1,6.106-2.39l2.3,3.985a5.421,5.421,0,0,1,5.258,9.108l2.3,3.989a3.315,3.315,0,0,1-2.862,4.973,3.365,3.365,0,0,1-.868-.115,3.309,3.309,0,0,1-1.394-.766L19.69,30l3.651,6.324a2.015,2.015,0,0,1-.736,2.749l-1.7.984a2.011,2.011,0,0,1-2.748-.738Zm4.5-30.8L32.517,25.6a1.186,1.186,0,1,0,2.053-1.186L24.709,7.334a1.177,1.177,0,0,0-.72-.55,1.2,1.2,0,0,0-.313-.041,1.188,1.188,0,0,0-1.021,1.776ZM17.682,28.654h0l.026-.015-5.089-8.814L8.663,22.109a.9.9,0,0,0-.329,1.227l4.19,7.257a.9.9,0,0,0,1.227.329ZM33.876,9.6a1.065,1.065,0,0,0,1.455-.39l1.441-2.5a1.065,1.065,0,0,0-1.845-1.066l-1.441,2.5A1.065,1.065,0,0,0,33.876,9.6ZM58.354,25.775a1.76,1.76,0,0,0-1.3-.869l-8.493-1.148A1.768,1.768,0,0,0,46.8,26.4l.763,1.321L18.228,44.652a1.99,1.99,0,0,0-.727,2.715l1.728,2.992a1.974,1.974,0,0,0,1.207.926,2.008,2.008,0,0,0,.519.068,1.975,1.975,0,0,0,.989-.266L51.275,34.152l.762,1.32a1.768,1.768,0,0,0,3.169-.212l3.253-7.93A1.755,1.755,0,0,0,58.354,25.775ZM71.335,38.008l-6.217-6.66a1.9,1.9,0,0,0-2.777,0l-6.216,6.66a1.578,1.578,0,0,0,1.154,2.655h1.45V70.313a1.065,1.065,0,0,0,1.065,1.065h7.872a1.065,1.065,0,0,0,1.065-1.065V40.662h1.449a1.578,1.578,0,0,0,1.154-2.655Z" transform="translate(-3.854 -4.611)"/>
</svg>
