<svg xmlns="http://www.w3.org/2000/svg" width="100%" height="100%" viewBox="0 0 124 124">
  <g id="data_collection" transform="translate(103 -89.659)">
    <g id="Rectangle_33690" data-name="Rectangle 33690" transform="translate(-103 89.659)" stroke="#000" stroke-width="1">
      <rect width="124" height="124" rx="20" stroke="none"/>
      <rect x="0.5" y="0.5" width="123" height="123" rx="19.5" fill="none"/>
    </g>
    <path id="Path_52712" data-name="Path 52712" d="M26.388,24.568a7.825,7.825,0,0,1,7.087-7.8,7.475,7.475,0,0,1,10.018-5.683A10.985,10.985,0,0,1,64.468,15.31a8.558,8.558,0,0,1,.324,17.047v-1.7a2.622,2.622,0,0,0-2.159-2.587l-.987-.17v0A11.829,11.829,0,0,0,61,26.357l.551-.8,0,0a2.619,2.619,0,0,0-.3-3.343l-1.974-1.974a2.625,2.625,0,0,0-3.347-.308l-.79.551v0a12.976,12.976,0,0,0-1.577-.682l-.17-.987a2.625,2.625,0,0,0-2.583-2.163H48.011a2.631,2.631,0,0,0-2.545,2.233l-.17.987a12.71,12.71,0,0,0-1.558.64l-.79-.551a2.63,2.63,0,0,0-3.347.3l-1.974,1.974a2.63,2.63,0,0,0-.3,3.347l.551.79a12.716,12.716,0,0,0-.64,1.558l-.987.17a2.622,2.622,0,0,0-2.171,2.556v1.747a7.834,7.834,0,0,1-7.689-7.839ZM26.3,67.31V91.987h0a2.157,2.157,0,0,1-2.152,2.152H6.823a2.157,2.157,0,0,1-2.152-2.152V73.776H10.2a3.131,3.131,0,0,0,2.182-.906,3.079,3.079,0,0,0,.906-2.194V65.147H24.144v0A2.159,2.159,0,0,1,26.3,67.31ZM22.5,88.721a.986.986,0,0,0-.937-.937H9.407a.938.938,0,1,0,0,1.866H21.561a.994.994,0,0,0,.937-.929Zm0-5.417v0a.99.99,0,0,0-.937-.987H9.407a.95.95,0,0,0-.725.239.936.936,0,0,0,.725,1.627H21.561A.985.985,0,0,0,22.5,83.3Zm0-5.417v0a.99.99,0,0,0-.937-.987H9.407a.938.938,0,1,0,0,1.866H21.561a.988.988,0,0,0,.937-.879Zm0-5.417v0a.993.993,0,0,0-.937-.941H16.93a.945.945,0,0,0-.725.239.939.939,0,0,0,0,1.392.942.942,0,0,0,.725.235h4.631a.988.988,0,0,0,.937-.925Zm-11.44-.918v0a1.213,1.213,0,0,0,.366-.871V66.087L5.6,71.909h4.6a1.2,1.2,0,0,0,.86-.362Zm83.1-4.234V91.994l0-.008a2.157,2.157,0,0,1-2.152,2.152H74.685a2.157,2.157,0,0,1-2.152-2.152V73.776H78.04a3.131,3.131,0,0,0,2.182-.906,3.079,3.079,0,0,0,.906-2.194V65.146H91.987v0a2.159,2.159,0,0,1,2.171,2.159Zm-3.8,21.4a.99.99,0,0,0-.987-.937h-12.1a.938.938,0,1,0,0,1.866H89.422a.994.994,0,0,0,.937-.929Zm0-5.417v0a.987.987,0,0,0-.987-.987h-12.1a.95.95,0,0,0-.725.239.936.936,0,0,0,.725,1.627H89.422a.985.985,0,0,0,.937-.879Zm0-5.417v0a.987.987,0,0,0-.987-.987h-12.1a.938.938,0,1,0,0,1.866H89.422a.988.988,0,0,0,.937-.879Zm0-5.417v0a.99.99,0,0,0-.987-.941H84.792a.945.945,0,0,0-.725.239.939.939,0,0,0,0,1.392.942.942,0,0,0,.725.235h4.631a.988.988,0,0,0,.937-.925Zm-11.44-.918v0a1.213,1.213,0,0,0,.366-.871V66.087L73.463,71.91H78.04a1.182,1.182,0,0,0,.879-.362ZM60.272,67.31V91.987a2.16,2.16,0,0,1-2.163,2.152H40.758a2.159,2.159,0,0,1-2.2-2.132V73.776h5.529a3.1,3.1,0,0,0,3.089-3.1V65.146H58.032v0a2.167,2.167,0,0,1,2.24,2.159ZM56.424,88.721a.985.985,0,0,0-.929-.937H43.334a.938.938,0,0,0,0,1.866H55.495a.935.935,0,0,0,.929-.929Zm0-5.417v0a.994.994,0,0,0-.929-.987H43.334a.938.938,0,0,0,0,1.866H55.495a.928.928,0,0,0,.929-.879Zm0-5.417v0a.989.989,0,0,0-.929-.987H43.334a.938.938,0,0,0,0,1.866H55.495a.93.93,0,0,0,.929-.879Zm0-5.417v0a.992.992,0,0,0-.929-.941H50.856a.938.938,0,0,0,0,1.866h4.639a.925.925,0,0,0,.655-.27.935.935,0,0,0,.274-.656ZM45,71.551l0,0a1.208,1.208,0,0,0,.355-.871V66.087l-5.8,5.822h4.588a1.237,1.237,0,0,0,.86-.362ZM59.057,37.48a.731.731,0,0,0,0,.8l.929,1.342a.749.749,0,0,1-.089.987l-1.974,1.974a.758.758,0,0,1-.987.081l-1.342-.929a.75.75,0,0,0-.81,0,11.407,11.407,0,0,1-2.421.987.745.745,0,0,0-.551.594l-.285,1.6a.758.758,0,0,1-.752.629H48.01a.754.754,0,0,1-.748-.629l-.285-1.6a.75.75,0,0,0-.555-.594A11.436,11.436,0,0,1,44,41.733a.737.737,0,0,0-.8,0l-1.342.929a.758.758,0,0,1-.987-.081l-1.974-1.974a.757.757,0,0,1-.077-.987l.929-1.342h0a.731.731,0,0,0,0-.8,11.762,11.762,0,0,1-.987-2.429.736.736,0,0,0-.59-.551l-1.581-.285a.755.755,0,0,1-.632-.752v-2.8a.755.755,0,0,1,.632-.752l1.589-.235a.74.74,0,0,0,.594-.551,11.55,11.55,0,0,1,.987-2.429.731.731,0,0,0,0-.8l-.929-1.342v0a.758.758,0,0,1,.081-.987l1.974-1.974a.753.753,0,0,1,.987-.089l1.342.929a.762.762,0,0,0,.8,0,10.64,10.64,0,0,1,2.429-.987.766.766,0,0,0,.551-.6l.285-1.6a.765.765,0,0,1,.752-.632h2.8a.765.765,0,0,1,.752.632l.274,1.55a.771.771,0,0,0,.555.6,11.045,11.045,0,0,1,2.425.987.737.737,0,0,0,.8,0l1.342-.929v0a.749.749,0,0,1,.987.089l1.974,1.974a.749.749,0,0,1,.089.987L59.1,25.843a.783.783,0,0,0,0,.81,10.153,10.153,0,0,1,.987,2.418.771.771,0,0,0,.605.551l1.6.285h0a.765.765,0,0,1,.632.752v2.8a.765.765,0,0,1-.632.752l-1.6.285h0a.735.735,0,0,0-.594.551,11.752,11.752,0,0,1-1.037,2.429ZM56.1,32.063a2.786,2.786,0,1,1-.008,0Zm-6.682-4.808a4.786,4.786,0,1,0,3.4,1.43,4.783,4.783,0,0,0-3.4-1.43Zm-33,30.885a1.865,1.865,0,0,1,1.866-1.816H48.489v7.018h1.855V56.324h30.2a1.868,1.868,0,0,1,1.866,1.866v5.151h1.866v-5.2a3.686,3.686,0,0,0-1.1-2.634,3.737,3.737,0,0,0-2.637-1.1h-30.2V47.44H48.485v7.01h-30.2a3.739,3.739,0,0,0-3.732,3.729V63.33h1.866Z" transform="translate(-90.417 102.26)" fill="#fff" fill-rule="evenodd"/>
  </g>
</svg>
