<svg xmlns="http://www.w3.org/2000/svg" width="100%" height="100%" viewBox="0 0 124 124">
  <g id="Integration_" data-name="Integration " transform="translate(-121.959 -257.169)">
    <g id="Rectangle_33689" data-name="Rectangle 33689" transform="translate(121.959 257.169)" stroke="#000" stroke-width="1">
      <rect width="124" height="124" rx="20" stroke="none"/>
      <rect x="0.5" y="0.5" width="123" height="123" rx="19.5" fill="none"/>
    </g>
    <g id="noun-integration-7398583" transform="translate(132.572 267.784)">
      <path id="Path_52736" data-name="Path 52736" d="M52.149,23.31a1.432,1.432,0,0,0-1.887-.728,54.313,54.313,0,0,0-27.922,28.26,1.433,1.433,0,0,0,.749,1.879,1.387,1.387,0,0,0,.563.117,1.435,1.435,0,0,0,1.316-.865A51.445,51.445,0,0,1,51.421,25.2a1.432,1.432,0,0,0,.728-1.887Z" transform="translate(0.547 0.554)" fill="#fff"/>
      <path id="Path_52737" data-name="Path 52737" d="M95.4,24.07a53.771,53.771,0,0,0-8.85-3.646,1.431,1.431,0,0,0-.849,2.733,51.081,51.081,0,0,1,8.379,3.453,1.43,1.43,0,1,0,1.316-2.539Z" transform="translate(2.438 0.49)" fill="#fff"/>
      <path id="Path_52738" data-name="Path 52738" d="M22.392,82.911a1.431,1.431,0,0,0-2.781.68,52.71,52.71,0,0,0,4.487,11.9,1.429,1.429,0,0,0,1.272.769,1.451,1.451,0,0,0,.66-.161,1.436,1.436,0,0,0,.608-1.932A49.842,49.842,0,0,1,22.4,82.915Z" transform="translate(0.466 2.351)" fill="#fff"/>
      <path id="Path_52739" data-name="Path 52739" d="M20.374,45.269a1.449,1.449,0,0,0,.7.181,1.429,1.429,0,0,0,1.252-.736,57.527,57.527,0,0,1,29.122-25.52A1.431,1.431,0,1,0,50.4,16.53,60.426,60.426,0,0,0,19.818,43.321a1.433,1.433,0,0,0,.555,1.948Z" transform="translate(0.468 0.372)" fill="#fff"/>
      <path id="Path_52740" data-name="Path 52740" d="M72.232,15.389A56.629,56.629,0,0,1,94.564,20.5a1.415,1.415,0,0,0,.592.129,1.431,1.431,0,0,0,.6-2.733A59.437,59.437,0,0,0,72.3,12.528h-.032a1.431,1.431,0,0,0-.032,2.861Z" transform="translate(2.018 0.253)" fill="#fff"/>
      <path id="Path_52741" data-name="Path 52741" d="M16.716,83.064a1.43,1.43,0,1,0-2.793.62,59.043,59.043,0,0,0,3.932,11.732,1.433,1.433,0,0,0,1.3.837,1.4,1.4,0,0,0,.592-.129,1.433,1.433,0,0,0,.708-1.9A56.525,56.525,0,0,1,16.72,83.064Z" transform="translate(0.294 2.355)" fill="#fff"/>
      <path id="Path_52742" data-name="Path 52742" d="M93.055,65.866H91.8a1.468,1.468,0,0,1-1.344-.986c-.229-.644-.487-1.272-.773-1.875a1.4,1.4,0,0,1,.258-1.658l.873-.885a4.285,4.285,0,0,0,0-6.069l-2.016-2.032a4.324,4.324,0,0,0-6.069,0l-.885.885a1.423,1.423,0,0,1-1.658.258c-.616-.286-1.244-.543-1.875-.773a1.434,1.434,0,0,1-.986-1.344v-1.26a4.306,4.306,0,0,0-4.294-4.294H70.164a4.306,4.306,0,0,0-4.294,4.294v1.26a1.434,1.434,0,0,1-.986,1.344c-.628.229-1.26.487-1.875.773a1.422,1.422,0,0,1-1.658-.258l-.885-.885a4.324,4.324,0,0,0-6.069,0L52.38,54.392a4.285,4.285,0,0,0,0,6.069l.873.885A1.4,1.4,0,0,1,53.511,63a19.9,19.9,0,0,0-.773,1.875,1.462,1.462,0,0,1-1.344.986h-1.26A4.306,4.306,0,0,0,45.84,70.16v2.861a4.306,4.306,0,0,0,4.294,4.294h1.26a1.468,1.468,0,0,1,1.344.986c.229.644.487,1.272.773,1.875a1.4,1.4,0,0,1-.258,1.658l-.873.885a4.285,4.285,0,0,0,0,6.069L54.4,90.822a4.324,4.324,0,0,0,6.069,0l.885-.885a1.423,1.423,0,0,1,1.658-.258c.616.286,1.244.543,1.875.773A1.434,1.434,0,0,1,65.87,91.8v1.26a4.306,4.306,0,0,0,4.294,4.294h2.861a4.306,4.306,0,0,0,4.294-4.294V91.8a1.434,1.434,0,0,1,.986-1.344c.628-.229,1.26-.487,1.875-.773a1.422,1.422,0,0,1,1.658.258l.885.885a4.324,4.324,0,0,0,6.069,0l2.016-2.032a4.285,4.285,0,0,0,0-6.069l-.873-.885a1.4,1.4,0,0,1-.258-1.658,19.9,19.9,0,0,0,.773-1.875,1.462,1.462,0,0,1,1.344-.986h1.26a4.306,4.306,0,0,0,4.294-4.294V70.16A4.306,4.306,0,0,0,93.055,65.866ZM80.177,71.589A8.584,8.584,0,1,1,71.593,63,8.589,8.589,0,0,1,80.177,71.589Z" transform="translate(1.262 1.262)" fill="#fff"/>
      <path id="Path_52743" data-name="Path 52743" d="M76.727,71A5.725,5.725,0,1,1,71,65.277,5.726,5.726,0,0,1,76.727,71" transform="translate(1.85 1.85)" fill="#fff"/>
      <path id="Path_52744" data-name="Path 52744" d="M31.354,58.753H22.77a3.966,3.966,0,0,0-1.433.258V48.735a4.306,4.306,0,0,0-4.294-4.294H8.459a4.306,4.306,0,0,0-4.294,4.294V77.353a4.306,4.306,0,0,0,4.294,4.294h8.584a4.262,4.262,0,0,0,2.861-1.1,4.262,4.262,0,0,0,2.861,1.1H31.35a4.306,4.306,0,0,0,4.294-4.294V63.042a4.306,4.306,0,0,0-4.294-4.294ZM11.32,64.479H9.888a1.433,1.433,0,1,1,0-2.865H11.32a1.433,1.433,0,0,1,0,2.865Zm1.433,4.29A1.436,1.436,0,0,1,11.32,70.2H9.888a1.433,1.433,0,1,1,0-2.865H11.32A1.436,1.436,0,0,1,12.753,68.77ZM11.32,58.753H9.888a1.433,1.433,0,1,1,0-2.865H11.32a1.433,1.433,0,1,1,0,2.865ZM9.892,73.064h1.433a1.433,1.433,0,0,1,0,2.865H9.892a1.433,1.433,0,0,1,0-2.865ZM11.32,53.03H9.888a1.433,1.433,0,1,1,0-2.865H11.32a1.433,1.433,0,1,1,0,2.865Z" transform="translate(0 1.219)" fill="#fff"/>
      <path id="Path_52745" data-name="Path 52745" d="M57.071,41.37h8.584a4.261,4.261,0,0,0,2.861-1.1,4.262,4.262,0,0,0,2.861,1.1h8.584a4.306,4.306,0,0,0,4.294-4.294V22.765a4.306,4.306,0,0,0-4.294-4.294H71.378a3.966,3.966,0,0,0-1.433.258V8.453a4.306,4.306,0,0,0-4.294-4.294H57.067a4.306,4.306,0,0,0-4.294,4.294V37.071a4.306,4.306,0,0,0,4.294,4.294ZM58.5,9.89h1.433a1.433,1.433,0,0,1,0,2.865H58.5a1.433,1.433,0,0,1,0-2.865Zm0,11.445h1.433a1.433,1.433,0,0,1,0,2.865H58.5a1.433,1.433,0,0,1,0-2.865Zm-1.429-4.29A1.436,1.436,0,0,1,58.5,15.613h1.433a1.433,1.433,0,0,1,0,2.865H58.5A1.436,1.436,0,0,1,57.071,17.046ZM58.5,27.063h1.433a1.433,1.433,0,0,1,0,2.865H58.5a1.433,1.433,0,0,1,0-2.865Zm0,5.723h1.433a1.433,1.433,0,0,1,0,2.865H58.5a1.433,1.433,0,0,1,0-2.865Z" transform="translate(1.471)" fill="#fff"/>
    </g>
  </g>
</svg>
