<svg xmlns="http://www.w3.org/2000/svg" width="100%" height="100%" viewBox="0 0 124 124">
  <g id="quality-score" transform="translate(-9 -9.181)">
    <g id="Rectangle_33691" data-name="Rectangle 33691" transform="translate(9 9.181)" stroke="#000" stroke-width="1">
      <rect width="124" height="124" rx="20" stroke="none"/>
      <rect x="0.5" y="0.5" width="123" height="123" rx="19.5" fill="none"/>
    </g>
    <g id="Group_57685" data-name="Group 57685" transform="translate(24 24.18)">
      <path id="Path_50547" data-name="Path 50547" d="M23.424,17.4,2.837,40.925a3.39,3.39,0,0,0,2.551,5.62H16.294l2.75,10.987a3.387,3.387,0,0,0,2.915,2.546,3.524,3.524,0,0,0,.371.02,3.389,3.389,0,0,0,3.031-1.873l14.952-29.9A33.939,33.939,0,0,1,23.424,17.4Z" transform="translate(-2 34.772)" fill="#fff"/>
      <path id="Path_50548" data-name="Path 50548" d="M56.167,40.925,35.581,17.4A33.939,33.939,0,0,1,18.693,28.32l14.952,29.9A3.389,3.389,0,0,0,36.675,60.1a3.523,3.523,0,0,0,.371-.02,3.387,3.387,0,0,0,2.915-2.546l2.75-10.987H53.616a3.39,3.39,0,0,0,2.551-5.62Z" transform="translate(37.865 34.772)" fill="#fff"/>
      <path id="Path_50549" data-name="Path 50549" d="M67.987,32.494A30.494,30.494,0,1,0,37.494,62.987,30.528,30.528,0,0,0,67.987,32.494ZM18.859,44.31l-3.141,1.736.6-3.678-2.541-2.6,3.512-.536,1.57-3.346,1.57,3.346,3.512.536-2.541,2.6.6,3.678Zm13.306,11.9-3.141-1.736-3.141,1.736.6-3.678-2.541-2.6,3.512-.536,1.57-3.346,1.57,3.346,3.512.536-2.541,2.6ZM30.717,32.494a6.784,6.784,0,0,1,6.776-6.776,6.7,6.7,0,0,1,3.42.96L51.543,16.049a1.694,1.694,0,0,1,2.4,2.4L43.31,29.073a6.7,6.7,0,0,1,.96,3.421,6.776,6.776,0,1,1-13.553,0ZM49.105,56.211l-3.141-1.736-3.141,1.736.6-3.678-2.541-2.6,3.512-.536,1.57-3.346,1.57,3.346,3.512.536-2.541,2.6Zm3.882-10.165.6-3.678-2.541-2.6,3.512-.536,1.57-3.346,1.57,3.346,3.512.536-2.541,2.6.6,3.678L56.129,44.31Z" transform="translate(9.941 -2)" fill="#fff"/>
    </g>
  </g>
</svg>
