<svg xmlns="http://www.w3.org/2000/svg" xmlns:xlink="http://www.w3.org/1999/xlink" width="100%" height="100%" viewBox="0 0 229.652 223.891">
  <defs>
    <filter id="Path_16564" x="0" y="0" width="229.652" height="223.891" filterUnits="userSpaceOnUse">
      <feOffset input="SourceAlpha"/>
      <feGaussianBlur stdDeviation="7.5" result="blur"/>
      <feFlood flood-opacity="0.173"/>
      <feComposite operator="in" in2="blur"/>
      <feComposite in="SourceGraphic"/>
    </filter>
    <clipPath id="clip-path">
      <rect id="Rectangle_2698" data-name="Rectangle 2698" width="19.713" height="19.713" fill="none"/>
    </clipPath>
    <clipPath id="clip-path-2">
      <rect id="Rectangle_2699" data-name="Rectangle 2699" width="6.942" height="4.373" fill="none"/>
    </clipPath>
    <clipPath id="clip-path-3">
      <rect id="Rectangle_2708" data-name="Rectangle 2708" width="6.949" height="1.719" fill="none"/>
    </clipPath>
    <clipPath id="clip-path-4">
      <rect id="Rectangle_2710" data-name="Rectangle 2710" width="6.887" height="0.843" fill="none"/>
    </clipPath>
  </defs>
  <g id="Group_10032" data-name="Group 10032" transform="translate(-204.593 -570.13)">
    <g id="Group_10033" data-name="Group 10033" transform="translate(1)">
      <g id="bg" transform="translate(76.983 493.314)">
        <g id="Path_16565" class="svg-stoke" data-name="Path 16565" transform="translate(147 106)" fill="rgba(255,255,255,0)">
          <path d="M 81.46550750732422 160.3434448242188 C 75.97178649902344 160.3434448242188 70.48164367675781 159.7900085449219 65.14761352539062 158.6985015869141 C 59.94939422607422 157.6348114013672 54.83625411987305 156.0475921630859 49.95022583007812 153.9809722900391 C 45.15280914306641 151.9518432617188 40.5256462097168 149.4402770996094 36.19728469848633 146.51611328125 C 31.9098949432373 143.6196136474609 27.87822723388672 140.2931671142578 24.21425628662109 136.6291961669922 C 20.55028343200684 132.9652252197266 17.22383880615234 128.9335632324219 14.32733917236328 124.6461715698242 C 11.40317249298096 120.3178100585938 8.891616821289062 115.6906433105469 6.862477779388428 110.8932266235352 C 4.7958664894104 106.007194519043 3.208644390106201 100.8940582275391 2.144949913024902 95.69583892822266 C 1.053449869155884 90.36180877685547 0.5000054836273193 84.87167358398438 0.5000054836273193 79.37794494628906 C 0.5000054836273193 70.77181243896484 2.896144390106201 60.26764297485352 7.429421901702881 49.0010871887207 C 11.99281120300293 37.65964126586914 18.41247749328613 26.32641983032227 25.99442291259766 16.22664260864258 C 29.96061706542969 10.94333648681641 34.19197845458984 6.075253009796143 38.5709228515625 1.757642030715942 C 43.17817306518555 -2.785080194473267 47.95328140258789 -6.720691204071045 52.76358795166016 -9.939886093139648 C 57.85336685180664 -13.34610748291016 63.02364349365234 -15.97585773468018 68.13083648681641 -17.75613594055176 C 73.54556274414062 -19.64360809326172 78.96444702148438 -20.60063552856445 84.23694610595703 -20.60063552856445 C 97.17305755615234 -20.60063552856445 109.4142837524414 -14.91855239868164 120.6205596923828 -3.712274551391602 C 133.2728118896484 8.939948081970215 142.8871765136719 19.59694671630859 150.0130920410156 28.86764144897461 C 153.5545654296875 33.47503280639648 156.4944458007812 37.74016952514648 159.000732421875 41.90678024291992 C 161.4244995117188 45.93622589111328 163.3816680908203 49.77311325073242 164.9840545654297 53.63672637939453 C 171.2305908203125 68.69794464111328 171.1002044677734 82.10341644287109 170.9197235107422 100.6573104858398 C 170.887451171875 103.9749221801758 170.8540954589844 107.4054718017578 170.8540954589844 111.0617828369141 C 170.8540954589844 131.2891693115234 161.7737579345703 144.79833984375 143.0942230224609 152.3612213134766 C 135.3517761230469 155.4959411621094 125.9780349731445 157.6331634521484 114.4373092651367 158.8950653076172 C 105.3998641967773 159.8831939697266 94.92283630371094 160.3434448242188 81.46550750732422 160.3434448242188 Z" stroke="none"/>
          <path d="M 84.23694610595703 -20.10063934326172 C 79.02061462402344 -20.10063934326172 73.65711975097656 -19.15299987792969 68.29542541503906 -17.28399658203125 C 63.22828674316406 -15.51771545410156 58.09619903564453 -12.90699768066406 53.04167175292969 -9.524360656738281 C 48.2574462890625 -6.322608947753906 43.50689697265625 -2.407028198242188 38.92198181152344 2.113670349121094 C 34.56059265136719 6.413948059082031 30.34567260742188 11.26325225830078 26.394287109375 16.52684020996094 C 18.83816528320312 26.59222412109375 12.44061279296875 37.88616943359375 7.893280029296875 49.18772506713867 C 5.674026489257812 54.70328140258789 3.955978393554688 60.08008575439453 2.786865234375 65.16883850097656 C 1.6011962890625 70.32966613769531 1 75.11030578613281 1 79.37794494628906 C 1 84.83808898925781 1.550033569335938 90.29450225830078 2.634780883789062 95.59561157226562 C 3.69189453125 100.7615051269531 5.26922607421875 105.8428115844727 7.322982788085938 110.6984481811523 C 9.33953857421875 115.4661407470703 11.83554077148438 120.0646667480469 14.74166870117188 124.3662796020508 C 17.62034606933594 128.6272888183594 20.92634582519531 132.6341705322266 24.56781005859375 136.275634765625 C 28.20928955078125 139.9171142578125 32.21617126464844 143.2231140136719 36.4771728515625 146.1017761230469 C 40.77877807617188 149.0079193115234 45.37730407714844 151.5039215087891 50.14500427246094 153.5204772949219 C 55.00064086914062 155.57421875 60.08194732666016 157.1515502929688 65.24784088134766 158.2086791992188 C 70.5489501953125 159.2934265136719 76.00536346435547 159.8434448242188 81.46550750732422 159.8434448242188 C 94.90422821044922 159.8434448242188 105.3640060424805 159.3841400146484 114.3829803466797 158.3980102539062 C 125.8772583007812 157.1412200927734 135.2074279785156 155.0149841308594 142.9065856933594 151.8977508544922 C 147.161865234375 150.1748962402344 150.9579772949219 148.1148986816406 154.189453125 145.7749938964844 C 157.6052551269531 143.3016357421875 160.5111389160156 140.4281463623047 162.8263702392578 137.2343139648438 C 165.264892578125 133.8704223632812 167.1328430175781 130.0348968505859 168.3783111572266 125.8342514038086 C 169.6893310546875 121.4125289916992 170.3540954589844 116.4423675537109 170.3540954589844 111.0617828369141 C 170.3540954589844 107.4030303955078 170.3874816894531 103.9712524414062 170.4197540283203 100.6524505615234 C 170.5996398925781 82.1578369140625 170.7296142578125 68.79519653320312 164.5222320556641 53.82828140258789 C 162.9294281005859 49.9877815246582 160.9831695556641 46.17253112792969 158.5722503662109 42.16450500488281 C 156.0758666992188 38.01433563232422 153.1464538574219 33.76455688476562 149.6166381835938 29.17233276367188 C 142.5041198730469 19.91902923583984 132.9037475585938 9.278030395507812 120.2670059204102 -3.358718872070312 C 109.1578979492188 -14.46782684326172 97.03561401367188 -20.10063934326172 84.23694610595703 -20.10063934326172 M 84.2369384765625 -21.10062408447266 C 96.44292449951172 -21.10062408447266 108.9408493041992 -16.09909820556641 120.97412109375 -4.065826416015625 C 176.4476776123047 51.4077262878418 171.3540954589844 66.06961059570312 171.3540954589844 111.0617828369141 C 171.3540954589844 156.053955078125 126.4576721191406 160.8434448242188 81.46550750732422 160.8434448242188 C 36.47337341308594 160.8434448242188 0 124.3700866699219 0 79.37794494628906 C 0 44.14543533325195 40.17314147949219 -21.10062408447266 84.2369384765625 -21.10062408447266 Z" stroke="none" fill="#ff424d"/>
        </g>
        <g transform="matrix(1, 0, 0, 1, 126.61, 76.82)" filter="url(#Path_16564)">
          <path id="Path_16564-2" data-name="Path 16564" d="M92.623,5.291c31.657,0,52.156,17.307,68.756,48.136,10.476,19.454,31.305,46.53,30.489,72.753-2.081,66.893-99.225,61.031-130.147,53.774S-6.174,130.291,12.1,85.649,40.555,5.291,92.623,5.291Z" transform="translate(15.26 17.21)" fill="#fff"/>
        </g>
      </g>
      <g id="Group_9332" data-name="Group 9332" transform="translate(212.414 605.283)">
        <g id="Group_9735" data-name="Group 9735" transform="translate(24.569 39.696)">
          <g id="Group_9330" data-name="Group 9330" transform="translate(0 0)">
            <g id="Group_9734" data-name="Group 9734" transform="translate(0 0)">
              <rect id="Rectangle_2697" data-name="Rectangle 2697" width="150.281" height="0.824" transform="translate(12.203 88.173)" fill="#ddd"/>
              <path id="Path_14889" data-name="Path 14889" d="M529.382,869.342l-11.5,9.319-11.852-13.519-31.075,25.6,6.36,7.846,23.733-19.24L516.859,892.5l18.884-15.308Z" transform="translate(-434.725 -820.445)" fill="#a4b2ba"/>
              <path id="Path_14890" data-name="Path 14890" d="M1416.169,836.728l-15.191-18.816,21.639-1.929Z" transform="translate(-1311.507 -773.898)" fill="#a4b2ba"/>
              <path id="Path_14891" data-name="Path 14891" d="M659.345,488.952h-4.557c-.238,0-.431-.1-.431-.232s.193-.232.431-.232h4.557c.238,0,.431.1.431.232s-.193.232-.431.232m-8.24,0h-4.557c-.238,0-.431-.1-.431-.232s.193-.232.431-.232H651.1c.238,0,.431.1.431.232s-.193.232-.431.232m-8.24,0h-4.557c-.238,0-.431-.1-.431-.232s.193-.232.431-.232h4.557c.238,0,.431.1.431.232s-.193.232-.431.232m-8.24,0h-4.557c-.238,0-.431-.1-.431-.232s.193-.232.431-.232h4.557c.238,0,.431.1.431.232s-.193.232-.431.232m-8.24,0H621.83c-.238,0-.431-.1-.431-.232s.193-.232.431-.232h4.557c.238,0,.431.1.431.232s-.193.232-.431.232m-8.24,0H613.59c-.238,0-.431-.1-.431-.232s.193-.232.431-.232h4.557c.238,0,.431.1.431.232s-.193.232-.431.232m-8.24,0H605.35c-.238,0-.431-.1-.431-.232s.193-.232.431-.232h4.557c.238,0,.431.1.431.232s-.193.232-.431.232m-8.24,0h-4.557c-.238,0-.431-.1-.431-.232s.193-.232.431-.232h4.557c.238,0,.431.1.431.232s-.193.232-.431.232m-8.24,0h-4.557c-.238,0-.431-.1-.431-.232s.193-.232.431-.232h4.557c.238,0,.431.1.431.232s-.193.232-.431.232m-8.24,0h-4.557c-.238,0-.431-.1-.431-.232s.193-.232.431-.232h4.557c.238,0,.431.1.431.232s-.193.232-.431.232m-8.24,0h-4.557c-.238,0-.431-.1-.431-.232s.193-.232.431-.232h4.557c.238,0,.431.1.431.232s-.193.232-.431.232" transform="translate(-550.851 -476.885)" fill="#fff"/>
              <path id="Path_14892" data-name="Path 14892" d="M659.345,562.64h-4.557c-.238,0-.431-.1-.431-.232s.193-.232.431-.232h4.557c.238,0,.431.1.431.232s-.193.232-.431.232m-8.24,0h-4.557c-.238,0-.431-.1-.431-.232s.193-.232.431-.232H651.1c.238,0,.431.1.431.232s-.193.232-.431.232m-8.24,0h-4.557c-.238,0-.431-.1-.431-.232s.193-.232.431-.232h4.557c.238,0,.431.1.431.232s-.193.232-.431.232m-8.24,0h-4.557c-.238,0-.431-.1-.431-.232s.193-.232.431-.232h4.557c.238,0,.431.1.431.232s-.193.232-.431.232m-8.24,0H621.83c-.238,0-.431-.1-.431-.232s.193-.232.431-.232h4.557c.238,0,.431.1.431.232s-.193.232-.431.232m-8.24,0H613.59c-.238,0-.431-.1-.431-.232s.193-.232.431-.232h4.557c.238,0,.431.1.431.232s-.193.232-.431.232m-8.24,0H605.35c-.238,0-.431-.1-.431-.232s.193-.232.431-.232h4.557c.238,0,.431.1.431.232s-.193.232-.431.232m-8.24,0h-4.557c-.238,0-.431-.1-.431-.232s.193-.232.431-.232h4.557c.238,0,.431.1.431.232s-.193.232-.431.232m-8.24,0h-4.557c-.238,0-.431-.1-.431-.232s.193-.232.431-.232h4.557c.238,0,.431.1.431.232s-.193.232-.431.232m-8.24,0h-4.557c-.238,0-.431-.1-.431-.232s.193-.232.431-.232h4.557c.238,0,.431.1.431.232s-.193.232-.431.232m-8.24,0h-4.557c-.238,0-.431-.1-.431-.232s.193-.232.431-.232h4.557c.238,0,.431.1.431.232s-.193.232-.431.232" transform="translate(-550.851 -545.207)" fill="#fff"/>
              <path id="Path_14893" data-name="Path 14893" d="M659.345,640.118h-4.557c-.238,0-.431-.1-.431-.232s.193-.232.431-.232h4.557c.238,0,.431.1.431.232s-.193.232-.431.232m-8.24,0h-4.557c-.238,0-.431-.1-.431-.232s.193-.232.431-.232H651.1c.238,0,.431.1.431.232s-.193.232-.431.232m-8.24,0h-4.557c-.238,0-.431-.1-.431-.232s.193-.232.431-.232h4.557c.238,0,.431.1.431.232s-.193.232-.431.232m-8.24,0h-4.557c-.238,0-.431-.1-.431-.232s.193-.232.431-.232h4.557c.238,0,.431.1.431.232s-.193.232-.431.232m-8.24,0H621.83c-.238,0-.431-.1-.431-.232s.193-.232.431-.232h4.557c.238,0,.431.1.431.232s-.193.232-.431.232m-8.24,0H613.59c-.238,0-.431-.1-.431-.232s.193-.232.431-.232h4.557c.238,0,.431.1.431.232s-.193.232-.431.232m-8.24,0H605.35c-.238,0-.431-.1-.431-.232s.193-.232.431-.232h4.557c.238,0,.431.1.431.232s-.193.232-.431.232m-8.24,0h-4.557c-.238,0-.431-.1-.431-.232s.193-.232.431-.232h4.557c.238,0,.431.1.431.232s-.193.232-.431.232m-8.24,0h-4.557c-.238,0-.431-.1-.431-.232s.193-.232.431-.232h4.557c.238,0,.431.1.431.232s-.193.232-.431.232m-8.24,0h-4.557c-.238,0-.431-.1-.431-.232s.193-.232.431-.232h4.557c.238,0,.431.1.431.232s-.193.232-.431.232m-8.24,0h-4.557c-.238,0-.431-.1-.431-.232s.193-.232.431-.232h4.557c.238,0,.431.1.431.232s-.193.232-.431.232" transform="translate(-550.851 -617.044)" fill="#fff"/>
              <path id="Path_14894" data-name="Path 14894" d="M659.345,713.806h-4.557c-.238,0-.431-.1-.431-.232s.193-.232.431-.232h4.557c.238,0,.431.1.431.232s-.193.232-.431.232m-8.24,0h-4.557c-.238,0-.431-.1-.431-.232s.193-.232.431-.232H651.1c.238,0,.431.1.431.232s-.193.232-.431.232m-8.24,0h-4.557c-.238,0-.431-.1-.431-.232s.193-.232.431-.232h4.557c.238,0,.431.1.431.232s-.193.232-.431.232m-8.24,0h-4.557c-.238,0-.431-.1-.431-.232s.193-.232.431-.232h4.557c.238,0,.431.1.431.232s-.193.232-.431.232m-8.24,0H621.83c-.238,0-.431-.1-.431-.232s.193-.232.431-.232h4.557c.238,0,.431.1.431.232s-.193.232-.431.232m-8.24,0H613.59c-.238,0-.431-.1-.431-.232s.193-.232.431-.232h4.557c.238,0,.431.1.431.232s-.193.232-.431.232m-8.24,0H605.35c-.238,0-.431-.1-.431-.232s.193-.232.431-.232h4.557c.238,0,.431.1.431.232s-.193.232-.431.232m-8.24,0h-4.557c-.238,0-.431-.1-.431-.232s.193-.232.431-.232h4.557c.238,0,.431.1.431.232s-.193.232-.431.232m-8.24,0h-4.557c-.238,0-.431-.1-.431-.232s.193-.232.431-.232h4.557c.238,0,.431.1.431.232s-.193.232-.431.232m-8.24,0h-4.557c-.238,0-.431-.1-.431-.232s.193-.232.431-.232h4.557c.238,0,.431.1.431.232s-.193.232-.431.232m-8.24,0h-4.557c-.238,0-.431-.1-.431-.232s.193-.232.431-.232h4.557c.238,0,.431.1.431.232s-.193.232-.431.232" transform="translate(-550.851 -685.366)" fill="#fff"/>
              <path id="Path_14895" data-name="Path 14895" d="M659.345,790.272h-4.557c-.238,0-.431-.1-.431-.232s.193-.232.431-.232h4.557c.238,0,.431.1.431.232s-.193.232-.431.232m-8.24,0h-4.557c-.238,0-.431-.1-.431-.232s.193-.232.431-.232H651.1c.238,0,.431.1.431.232s-.193.232-.431.232m-8.24,0h-4.557c-.238,0-.431-.1-.431-.232s.193-.232.431-.232h4.557c.238,0,.431.1.431.232s-.193.232-.431.232m-8.24,0h-4.557c-.238,0-.431-.1-.431-.232s.193-.232.431-.232h4.557c.238,0,.431.1.431.232s-.193.232-.431.232m-8.24,0H621.83c-.238,0-.431-.1-.431-.232s.193-.232.431-.232h4.557c.238,0,.431.1.431.232s-.193.232-.431.232m-8.24,0H613.59c-.238,0-.431-.1-.431-.232s.193-.232.431-.232h4.557c.238,0,.431.1.431.232s-.193.232-.431.232m-8.24,0H605.35c-.238,0-.431-.1-.431-.232s.193-.232.431-.232h4.557c.238,0,.431.1.431.232s-.193.232-.431.232m-8.24,0h-4.557c-.238,0-.431-.1-.431-.232s.193-.232.431-.232h4.557c.238,0,.431.1.431.232s-.193.232-.431.232m-8.24,0h-4.557c-.238,0-.431-.1-.431-.232s.193-.232.431-.232h4.557c.238,0,.431.1.431.232s-.193.232-.431.232m-8.24,0h-4.557c-.238,0-.431-.1-.431-.232s.193-.232.431-.232h4.557c.238,0,.431.1.431.232s-.193.232-.431.232m-8.24,0h-4.557c-.238,0-.431-.1-.431-.232s.193-.232.431-.232h4.557c.238,0,.431.1.431.232s-.193.232-.431.232" transform="translate(-550.851 -756.264)" fill="#fff"/>
              <path id="Path_14896" data-name="Path 14896" d="M659.345,863.96h-4.557c-.238,0-.431-.1-.431-.232s.193-.232.431-.232h4.557c.238,0,.431.1.431.232s-.193.232-.431.232m-8.24,0h-4.557c-.238,0-.431-.1-.431-.232s.193-.232.431-.232H651.1c.238,0,.431.1.431.232s-.193.232-.431.232m-8.24,0h-4.557c-.238,0-.431-.1-.431-.232s.193-.232.431-.232h4.557c.238,0,.431.1.431.232s-.193.232-.431.232m-8.24,0h-4.557c-.238,0-.431-.1-.431-.232s.193-.232.431-.232h4.557c.238,0,.431.1.431.232s-.193.232-.431.232m-8.24,0H621.83c-.238,0-.431-.1-.431-.232s.193-.232.431-.232h4.557c.238,0,.431.1.431.232s-.193.232-.431.232m-8.24,0H613.59c-.238,0-.431-.1-.431-.232s.193-.232.431-.232h4.557c.238,0,.431.1.431.232s-.193.232-.431.232m-8.24,0H605.35c-.238,0-.431-.1-.431-.232s.193-.232.431-.232h4.557c.238,0,.431.1.431.232s-.193.232-.431.232m-8.24,0h-4.557c-.238,0-.431-.1-.431-.232s.193-.232.431-.232h4.557c.238,0,.431.1.431.232s-.193.232-.431.232m-8.24,0h-4.557c-.238,0-.431-.1-.431-.232s.193-.232.431-.232h4.557c.238,0,.431.1.431.232s-.193.232-.431.232m-8.24,0h-4.557c-.238,0-.431-.1-.431-.232s.193-.232.431-.232h4.557c.238,0,.431.1.431.232s-.193.232-.431.232m-8.24,0h-4.557c-.238,0-.431-.1-.431-.232s.193-.232.431-.232h4.557c.238,0,.431.1.431.232s-.193.232-.431.232" transform="translate(-550.851 -824.587)" fill="#fff"/>
              <path id="Path_14897" data-name="Path 14897" d="M659.345,940.425h-4.557c-.238,0-.431-.1-.431-.232s.193-.232.431-.232h4.557c.238,0,.431.1.431.232s-.193.232-.431.232m-8.24,0h-4.557c-.238,0-.431-.1-.431-.232s.193-.232.431-.232H651.1c.238,0,.431.1.431.232s-.193.232-.431.232m-8.24,0h-4.557c-.238,0-.431-.1-.431-.232s.193-.232.431-.232h4.557c.238,0,.431.1.431.232s-.193.232-.431.232m-8.24,0h-4.557c-.238,0-.431-.1-.431-.232s.193-.232.431-.232h4.557c.238,0,.431.1.431.232s-.193.232-.431.232m-8.24,0H621.83c-.238,0-.431-.1-.431-.232s.193-.232.431-.232h4.557c.238,0,.431.1.431.232s-.193.232-.431.232m-8.24,0H613.59c-.238,0-.431-.1-.431-.232s.193-.232.431-.232h4.557c.238,0,.431.1.431.232s-.193.232-.431.232m-8.24,0H605.35c-.238,0-.431-.1-.431-.232s.193-.232.431-.232h4.557c.238,0,.431.1.431.232s-.193.232-.431.232m-8.24,0h-4.557c-.238,0-.431-.1-.431-.232s.193-.232.431-.232h4.557c.238,0,.431.1.431.232s-.193.232-.431.232m-8.24,0h-4.557c-.238,0-.431-.1-.431-.232s.193-.232.431-.232h4.557c.238,0,.431.1.431.232s-.193.232-.431.232m-8.24,0h-4.557c-.238,0-.431-.1-.431-.232s.193-.232.431-.232h4.557c.238,0,.431.1.431.232s-.193.232-.431.232m-8.24,0h-4.557c-.238,0-.431-.1-.431-.232s.193-.232.431-.232h4.557c.238,0,.431.1.431.232s-.193.232-.431.232" transform="translate(-550.851 -895.484)" fill="#fff"/>
              <path id="Path_14898" data-name="Path 14898" d="M715.18,454.13,699.95,437.6l-9.032,7.742.065-1.014,9.026-7.737,15.062,16.344,13.442-21.315,7.266,10.361,11.167-18.814.626.372L735.83,443.323l-7.285-10.388Z" transform="translate(-650.958 -416.322)" fill="#ff424d"/>
              <path id="Path_14899" data-name="Path 14899" d="M1574.678,393.707l-1.249-1.7-2.091-.282,4.019-2.967Z" transform="translate(-1477.459 -384.419)" fill="#ff424d"/>
              <path id="Path_14900" data-name="Path 14900" d="M720.282,594.43l-12.745-8.084-8.444,5.075-.728.438-.13-.771,4.587-2.757,4.725-2.84,12.74,8.081,14.293-8.8,5.131,7.087,11.458-24.312.659.31-11.983,25.427-5.458-7.538Z" transform="translate(-654.206 -550.191)" fill="#ff424d"/>
              <path id="Path_14901" data-name="Path 14901" d="M1588.976,535.793l-1.4-1.574-2.108-.082,3.718-3.335Z" transform="translate(-1490.555 -516.119)" fill="#ff424d"/>
              <path id="Path_14903" data-name="Path 14903" d="M944.559,600.678a1.083,1.083,0,1,1-1.083-1.083,1.083,1.083,0,0,1,1.083,1.083" transform="translate(-894.31 -579.903)" fill="#61a3c5"/>
              <path id="Path_14904" data-name="Path 14904" d="M1150.567,826.391a1.083,1.083,0,1,1-1.083-1.083,1.083,1.083,0,0,1,1.083,1.083" transform="translate(-1085.316 -789.18)" fill="#61a3c5"/>
              <path id="Path_14905" data-name="Path 14905" d="M1001.233,808.391a1.083,1.083,0,1,1-1.083-1.083,1.083,1.083,0,0,1,1.083,1.083" transform="translate(-946.857 -772.491)" fill="#49263e"/>
              <path id="Path_14907" data-name="Path 14907" d="M1136.337,910.258a1.083,1.083,0,1,1-1.083-1.083,1.083,1.083,0,0,1,1.083,1.083" transform="translate(-1072.122 -866.94)" fill="#49263e"/>
              <path id="Path_14908" data-name="Path 14908" d="M1330.336,800.341a1.083,1.083,0,1,1-1.083-1.083,1.083,1.083,0,0,1,1.083,1.083" transform="translate(-1251.996 -765.027)" fill="#49263e"/>
              <path id="Path_14909" data-name="Path 14909" d="M1404.047,897.008a1.083,1.083,0,1,1-1.083-1.083,1.083,1.083,0,0,1,1.083,1.083" transform="translate(-1320.34 -854.655)" fill="#49263e"/>
              <path id="Path_14910" data-name="Path 14910" d="M1294.086,536.7a1.083,1.083,0,1,1-1.083-1.083,1.083,1.083,0,0,1,1.083,1.083" transform="translate(-1218.386 -520.58)" fill="#61a3c5"/>
              <path id="Path_14911" data-name="Path 14911" d="M1395.087,675.7a1.083,1.083,0,1,1-1.083-1.083,1.083,1.083,0,0,1,1.083,1.083" transform="translate(-1312.031 -649.459)" fill="#61a3c5"/>
              <path id="Path_14912" data-name="Path 14912" d="M1833.148,614.958s-.893,6.292-1.709,7.72-13.9,6.284-13.9,6.284l-1.586-4.006,10-5.676,1.954-5.437Z" transform="translate(-1704.261 -593.114)" fill="#ffad8d"/>
              <path id="Path_14913" data-name="Path 14913" d="M1762.561,761.491l-.134-.04c-.263.132-.807.364-1.427.669.225.538.385.96.324,1l.064.111a.119.119,0,0,1,.012.09c.292.518.679,1.167.967,1.731.2.4.247.809.676.872a5.706,5.706,0,0,0,1.619-.6l2.447-1.044c-.383-.689-1.112-4.2-1.283-4.247Z" transform="translate(-1653.31 -728.652)" fill="#ffad8d"/>
              <path id="Path_14914" data-name="Path 14914" d="M1772.166,769.806l-1.311.9-.627.442-.249.026-.341-.28-.084-.44.244-.337,1.159-1.157,1.255.236Z" transform="translate(-1661.24 -736.934)" fill="#ffad8d"/>
              <path id="Path_14915" data-name="Path 14915" d="M1770.4,771.39a.107.107,0,0,0-.026-.116.089.089,0,0,0-.124-.023l-1.555,1.092a.377.377,0,0,1-.522-.072.563.563,0,0,1-.163-.309.3.3,0,0,1,.075-.271l1.245-1.215a.1.1,0,0,0-.016-.129.089.089,0,0,0-.123-.024l-1.245,1.215a.451.451,0,0,0-.11.4.822.822,0,0,0,.237.452.551.551,0,0,0,.76.11l1.555-1.092a.053.053,0,0,0,.01-.013" transform="translate(-1659.646 -738.182)" fill="#f07162"/>
              <path id="Path_14916" data-name="Path 14916" d="M1752.759,729.268l-1.691.673-.111.044-1.691.673,6.306,19.741a1.006,1.006,0,0,0,1.33.628l4.3-1.712a1.006,1.006,0,0,0,.535-1.37Z" transform="translate(-1642.431 -700.133)" fill="#676767"/>
              <path id="Path_14917" data-name="Path 14917" d="M1735.058,702.251l-3.575,1.423a.772.772,0,0,1-1-.432l-.464-1.166a.6.6,0,0,1,.337-.783l3.89-1.548a.6.6,0,0,1,.783.337l.464,1.166a.772.772,0,0,1-.432,1" transform="translate(-1624.542 -672.721)" fill="#3a99af"/>
              <path id="Path_14918" data-name="Path 14918" d="M1730.962,725.312l-2.727,1.085a.94.94,0,0,1-1.22-.526l-.658-1.653.167-.066.658,1.653a.761.761,0,0,0,.988.425l2.727-1.085Z" transform="translate(-1621.189 -695.39)" fill="#21111d"/>
              <g id="Group_9319" data-name="Group 9319" transform="translate(94.17 8.677)" style="mix-blend-mode: multiply;isolation: isolate">
                <g id="Group_9318" data-name="Group 9318">
                  <g id="Group_9317" data-name="Group 9317" clip-path="url(#clip-path)">
                    <path id="Path_14919" data-name="Path 14919" d="M1594.335,454.534a9.854,9.854,0,1,1-12.8-5.513,9.854,9.854,0,0,1,12.8,5.513" transform="translate(-1575.323 -448.32)" fill="#d4eef4"/>
                  </g>
                </g>
              </g>
              <g id="Group_9322" data-name="Group 9322" transform="translate(102.872 10.603)" opacity="0.6">
                <g id="Group_9321" data-name="Group 9321">
                  <g id="Group_9320" data-name="Group 9320" clip-path="url(#clip-path-2)">
                    <path id="Path_14920" data-name="Path 14920" d="M1701.7,478.411c-.386.9-2.221.968-4.1.159s-3.086-2.191-2.7-3.088,2.221-.968,4.1-.159,3.086,2.191,2.7,3.088" transform="translate(-1694.827 -474.761)" fill="#f3fffe"/>
                  </g>
                </g>
              </g>
              <rect id="Rectangle_2700" data-name="Rectangle 2700" width="0.179" height="20.566" transform="translate(106.922 30.953) rotate(-17.619)" fill="#21111d"/>
              <path id="Path_14921" data-name="Path 14921" d="M1600.638,494.3l-.172-.049a6.793,6.793,0,0,1,2.43-3.375l.1.149a6.6,6.6,0,0,0-2.357,3.275" transform="translate(-1504.465 -479.103)" fill="#21111d"/>
              <path id="Path_14922" data-name="Path 14922" d="M1613.4,505.518l-.172-.049a6.794,6.794,0,0,1,2.43-3.375l.1.149a6.6,6.6,0,0,0-2.357,3.275" transform="translate(-1516.293 -489.501)" fill="#21111d"/>
              <path id="Path_14923" data-name="Path 14923" d="M1556.064,441.86a9.854,9.854,0,1,1,12.8,5.513,9.854,9.854,0,0,1-12.8-5.513m13.378,6.969a11.421,11.421,0,1,0-14.834-6.389,11.421,11.421,0,0,0,14.834,6.389" transform="translate(-1461.193 -419.683)" fill="#525252"/>
              <path id="Path_14924" data-name="Path 14924" d="M1568.369,447.759a11.511,11.511,0,1,1,.053-21.369l-.067.166a11.331,11.331,0,1,0,6.027,15.3l.162.076a11.466,11.466,0,0,1-6.175,5.827" transform="translate(-1460.086 -418.53)" fill="#21111d"/>
              <path id="Path_14925" data-name="Path 14925" d="M2015.537,333.2a2.622,2.622,0,0,1,.394-3.323c1.539-1.856,2.436.414,3.222.449s2.041-.56,2.871.684.8,2.316,1.628,2.338,3.836,1.352,3.817,4.079a3.225,3.225,0,0,1-2.552,3.2s-9.706,2.83-11,.441-.613-3.725.42-4.893c.635-.718,2.064-1.535,1.2-2.978" transform="translate(-1887.158 -329.152)" fill="#33192c"/>
              <path id="Path_14926" data-name="Path 14926" d="M1750.43,788.75a.51.51,0,0,0,.466.322l1.531-.723a.451.451,0,0,0,.136-.609c-.126-.28-.4-.432-.6-.338l-1.525.72a.793.793,0,0,0-.006.628" transform="translate(-1643.449 -754.009)" fill="#ffad8d"/>
              <path id="Path_14927" data-name="Path 14927" d="M1756.019,801.626c.146.3.406.457.456.435l1.672-.737a.444.444,0,0,0,.147-.6c-.122-.282-.4-.439-.6-.35l-1.715.755a.575.575,0,0,0,.039.5" transform="translate(-1648.62 -766.036)" fill="#ffad8d"/>
              <path id="Path_14928" data-name="Path 14928" d="M1764.637,814.939c.133.276.375.43.422.41l1.569-.662a.41.41,0,0,0,.144-.557c-.112-.263-.367-.413-.558-.333l-1.61.679a.53.53,0,0,0,.032.464" transform="translate(-1656.618 -778.487)" fill="#ffad8d"/>
              <path id="Path_14929" data-name="Path 14929" d="M1750.9,788.024a.1.1,0,0,1-.1-.062.086.086,0,0,1,.021-.119l1.653-.771a.366.366,0,0,0,.113-.5.538.538,0,0,0-.222-.251.288.288,0,0,0-.268-.023l-1.509.713a.093.093,0,0,1-.111-.058.086.086,0,0,1,.021-.119l1.509-.713a.429.429,0,0,1,.392.034.789.789,0,0,1,.324.367.534.534,0,0,1-.16.722l-1.654.771-.015,0" transform="translate(-1643.54 -752.819)" fill="#f07162"/>
              <path id="Path_14930" data-name="Path 14930" d="M1745,775.067c.141.3.408.454.458.432l1.662-.751a.442.442,0,0,0,.152-.591c-.12-.291-.4-.453-.607-.36l-1.551.7c-.172.078-.2.4-.114.57" transform="translate(-1638.431 -741.396)" fill="#ffad8d"/>
              <path id="Path_14931" data-name="Path 14931" d="M1746.87,774.395a.1.1,0,0,1-.1-.064.085.085,0,0,1,.022-.119l1.667-.744a.362.362,0,0,0,.118-.492.543.543,0,0,0-.22-.253.292.292,0,0,0-.268-.027l-1.522.688a.094.094,0,0,1-.11-.059.085.085,0,0,1,.022-.119l1.522-.688a.433.433,0,0,1,.393.04.79.79,0,0,1,.321.37.529.529,0,0,1-.168.718l-1.667.744-.015,0" transform="translate(-1639.819 -740.206)" fill="#f07162"/>
              <path id="Path_14932" data-name="Path 14932" d="M1756,800.889a.1.1,0,0,1-.1-.065c-.024-.049-.013-.1.024-.117l1.644-.688a.331.331,0,0,0,.119-.465.543.543,0,0,0-.218-.255.294.294,0,0,0-.269-.03l-1.715.755a.093.093,0,0,1-.11-.06.085.085,0,0,1,.023-.118l1.715-.755a.435.435,0,0,1,.393.043.792.792,0,0,1,.319.372.5.5,0,0,1-.171.691l-1.646.688-.013,0" transform="translate(-1648.087 -764.845)" fill="#f07162"/>
              <path id="Path_14933" data-name="Path 14933" d="M1764.316,813.326a.1.1,0,0,1-.1-.065c-.024-.049-.013-.1.024-.118l1.57-.662a.327.327,0,0,0,.117-.446.5.5,0,0,0-.2-.235.271.271,0,0,0-.246-.031l-1.61.679a.094.094,0,0,1-.11-.061c-.024-.049-.013-.1.024-.118l1.61-.679a.414.414,0,0,1,.371.046.751.751,0,0,1,.3.354.491.491,0,0,1-.17.669l-1.57.662-.013,0" transform="translate(-1655.862 -776.439)" fill="#f07162"/>
              <path id="Path_14934" data-name="Path 14934" d="M2061.782,367.154a2.2,2.2,0,0,1,1.9-1.887c1.843-.448,2.315.912,2.315.912l-2.063.768-2.015.175Z" transform="translate(-1932.19 -362.554)" fill="#fe9f73"/>
              <path id="Path_14935" data-name="Path 14935" d="M1961.083,962.861l-1.88,16.89.622,4.029a38.777,38.777,0,0,1,.433,7.225l-.32,9.492-5.59.264L1950,961.4Z" transform="translate(-1828.548 -915.361)" fill="#fe9f73"/>
              <path id="Path_14936" data-name="Path 14936" d="M2119.239,962.861l4.439,16.88,5.458,20.756,5.864.566-5.018-39.666Z" transform="translate(-1985.463 -915.361)" fill="#fe9f73"/>
              <path id="Path_14937" data-name="Path 14937" d="M2251.447,1497.69h4.979l2.019-2.2,3.693,2.2h.8a.58.58,0,0,1,.577.454.567.567,0,0,1-.556.679h-11.578a.154.154,0,0,1-.154-.154v-.754a.225.225,0,0,1,.225-.225" transform="translate(-2107.835 -1410.564)" fill="#33182c"/>
              <path id="Path_14938" data-name="Path 14938" d="M2254.918,1489.05v-2.044a1.77,1.77,0,0,1,2.115-.553,2.872,2.872,0,0,0,3.634-.288l4.228,1.875s1.159.387,1.473,1.009Z" transform="translate(-2111.263 -1401.918)" fill="#ff424d"/>
              <rect id="Rectangle_2701" data-name="Rectangle 2701" width="0.085" height="2.034" transform="translate(143.613 85.089)"/>
              <path id="Path_14939" data-name="Path 14939" d="M2285.395,1490.25a1.993,1.993,0,0,0,.262-.014l-.012-.084a3,3,0,0,1-1.957-.512l-.048.07a3.131,3.131,0,0,0,1.755.54" transform="translate(-2137.893 -1405.139)"/>
              <rect id="Rectangle_2702" data-name="Rectangle 2702" width="0.085" height="0.651" transform="translate(144.144 86.387) rotate(-56.068)"/>
              <rect id="Rectangle_2703" data-name="Rectangle 2703" width="0.085" height="0.651" transform="translate(144.531 86.284) rotate(-56.013)"/>
              <path id="Path_14940" data-name="Path 14940" d="M2262.81,1526.237a.609.609,0,0,0-.394-1.073h-11.448a.327.327,0,0,0-.326.327v.565h.085v-.565a.242.242,0,0,1,.241-.242h11.448a.524.524,0,0,1,.339.924Z" transform="translate(-2107.297 -1438.075)"/>
              <path id="Path_14941" data-name="Path 14941" d="M2339.328,1488.573l.077-.036a2.1,2.1,0,0,0-1.107-.864c-.85-.363-4.591-2.022-4.628-2.038l-.035.078c.038.017,3.779,1.676,4.63,2.039a2.058,2.058,0,0,1,1.063.823" transform="translate(-2184.249 -1401.424)"/>
              <path id="Path_14942" data-name="Path 14942" d="M1934,1497.69h-4.98l-2.018-2.2-3.693,2.2h-.8a.581.581,0,0,0-.577.454.567.567,0,0,0,.556.679h11.578a.154.154,0,0,0,.154-.154v-.754a.225.225,0,0,0-.225-.225" transform="translate(-1802.514 -1410.564)" fill="#33182c"/>
              <path id="Path_14943" data-name="Path 14943" d="M1941.336,1489.05v-2.044a1.77,1.77,0,0,0-2.115-.553,2.872,2.872,0,0,1-3.634-.288l-4.228,1.875s-1.159.387-1.473,1.009Z" transform="translate(-1809.898 -1401.918)" fill="#ff424d"/>
              <rect id="Rectangle_2704" data-name="Rectangle 2704" width="0.085" height="2.034" transform="translate(131.395 85.089)"/>
              <path id="Path_14944" data-name="Path 14944" d="M2030.965,1490.25a2,2,0,0,1-.262-.014l.013-.084a3,3,0,0,0,1.957-.512l.048.07a3.129,3.129,0,0,1-1.755.54" transform="translate(-1903.374 -1405.139)"/>
              <rect id="Rectangle_2705" data-name="Rectangle 2705" width="0.651" height="0.085" transform="matrix(0.83, -0.558, 0.558, 0.83, 130.361, 86.681)"/>
              <rect id="Rectangle_2706" data-name="Rectangle 2706" width="0.651" height="0.085" transform="translate(129.974 86.578) rotate(-33.997)"/>
              <path id="Path_14945" data-name="Path 14945" d="M1921.555,1526.237a.609.609,0,0,1,.394-1.073H1933.4a.327.327,0,0,1,.327.327v.565h-.085v-.565a.242.242,0,0,0-.242-.242h-11.448a.525.525,0,0,0-.339.924Z" transform="translate(-1801.974 -1438.075)"/>
              <path id="Path_14946" data-name="Path 14946" d="M1929.255,1488.573l-.077-.036a2.1,2.1,0,0,1,1.107-.864c.851-.363,4.591-2.022,4.628-2.038l.035.078c-.038.017-3.778,1.676-4.63,2.039a2.062,2.062,0,0,0-1.063.823" transform="translate(-1809.242 -1401.424)"/>
              <path id="Path_14947" data-name="Path 14947" d="M1835.909,477.094a4.01,4.01,0,0,0-2.875,1.866c-1.185,1.567-3.787,13.528-3.787,13.528l-9.74,5.27a18.355,18.355,0,0,0,2.223,4.382s12.83-5.129,12.875-5.28,1.432-5.723,1.351-6.176-.047-13.591-.047-13.591" transform="translate(-1707.556 -466.321)" fill="#f23346"/>
              <path id="Path_14948" data-name="Path 14948" d="M2260.475,615.511c.015-1.046-2.65-5.639-3.721-7.646a19.29,19.29,0,0,1-5.161,3.031c1.061,1.692,2.276,3.9,2.779,4.689.522.817-1.533,7.29-2.26,8.531l2.615,3.032c1.812-1.664,5.7-8.02,5.748-11.638" transform="translate(-2108.18 -587.57)" fill="#fe9f73"/>
              <path id="Path_14949" data-name="Path 14949" d="M2061.782,379.923s.031,3.693.764,4.4a1.273,1.273,0,0,0,1.075.28l.356,2.258,3.186-.5L2066,378.948Z" transform="translate(-1932.19 -375.322)" fill="#fe9f73"/>
              <path id="Path_14950" data-name="Path 14950" d="M2076.173,407.816a.029.029,0,0,0,0-.058c-.193-.011-.347-.222-.393-.292a.882.882,0,0,0,.4-.624.957.957,0,0,0-.262-.679.029.029,0,0,0-.042.041.914.914,0,0,1,.246.634.843.843,0,0,1-.393.6l-.021.016.013.023c.008.013.193.329.455.343h.006" transform="translate(-1945.094 -400.546)" fill="#f07162"/>
              <path id="Path_14951" data-name="Path 14951" d="M2087.237,442.3l-.141-.918a6.336,6.336,0,0,0,2.313-1.191,8.267,8.267,0,0,1-2.172,2.109" transform="translate(-1955.661 -432.102)" fill="#f07162"/>
              <path id="Path_14952" data-name="Path 14952" d="M2084.793,399.1a.057.057,0,0,0,.037-.023.058.058,0,0,0-.011-.082c-.008-.007-.873-.65-1.466.005a.059.059,0,1,0,.087.079c.521-.575,1.276-.015,1.308.01a.059.059,0,0,0,.045.011" transform="translate(-1952.177 -393.646)" fill="#33192c"/>
              <path id="Path_14953" data-name="Path 14953" d="M2064.031,402.763a.057.057,0,0,0,.03-.038.059.059,0,0,0-.043-.071c-.028-.007-.7-.163-.863.242a.059.059,0,1,0,.109.044c.126-.311.72-.173.726-.172a.058.058,0,0,0,.041,0" transform="translate(-1933.459 -397.269)" fill="#33192c"/>
              <path id="Path_14954" data-name="Path 14954" d="M2067.166,411.96a.164.164,0,1,0,.136-.187.164.164,0,0,0-.136.187" transform="translate(-1937.18 -405.754)"/>
              <path id="Path_14955" data-name="Path 14955" d="M2089.912,408.372a.164.164,0,1,0,.136-.187.163.163,0,0,0-.136.187" transform="translate(-1958.269 -402.428)"/>
              <path id="Path_14956" data-name="Path 14956" d="M2116.46,402.807a.918.918,0,1,0,.764-1.05.918.918,0,0,0-.764,1.05" transform="translate(-1982.876 -396.46)" fill="#fe9f73"/>
              <path id="Path_14957" data-name="Path 14957" d="M2125.5,408.585a.386.386,0,0,0,.314-.342.363.363,0,0,0-.211-.4.433.433,0,0,0-.469.084.408.408,0,0,1,.144-.238.57.57,0,0,1,.4-.088.03.03,0,0,0,.034-.024.03.03,0,0,0-.024-.034.621.621,0,0,0-.441.1.5.5,0,0,0-.18.37l-.01.1.062-.085a.4.4,0,0,1,.465-.135.308.308,0,0,1,.175.334.325.325,0,0,1-.27.293.029.029,0,0,0,.008.058h.005" transform="translate(-1990.85 -401.832)" fill="#f07162"/>
              <path id="Path_14958" data-name="Path 14958" d="M2057.2,357.717a4.374,4.374,0,0,0,2.788-.245s.974,1.668,2.018,1.3-.205-2.707-.205-2.707-2.1-.789-2.229-.755-2.383.987-2.383.987Z" transform="translate(-1927.931 -353.403)" fill="#33192c"/>
              <path id="Path_14959" data-name="Path 14959" d="M2086.672,417.551a.036.036,0,0,0-.011-.072.036.036,0,0,0,.011.072" transform="translate(-1955.229 -411.047)" fill="#ea5942"/>
              <path id="Path_14960" data-name="Path 14960" d="M2089.954,418.856a.036.036,0,0,0-.011-.072.036.036,0,0,0,.011.072" transform="translate(-1958.272 -412.257)" fill="#ea5942"/>
              <path id="Path_14961" data-name="Path 14961" d="M2094.839,414.44a.036.036,0,0,0-.011-.072.036.036,0,0,0,.011.072" transform="translate(-1962.802 -408.163)" fill="#ea5942"/>
              <path id="Path_14962" data-name="Path 14962" d="M2100.069,417.261a.036.036,0,0,0-.011-.072.036.036,0,0,0,.011.072" transform="translate(-1967.651 -410.778)" fill="#ea5942"/>
              <path id="Path_14963" data-name="Path 14963" d="M2104.207,411.71a.036.036,0,0,0-.011-.072.036.036,0,0,0,.011.072" transform="translate(-1971.488 -405.632)" fill="#ea5942"/>
              <path id="Path_14964" data-name="Path 14964" d="M2107.106,418.543a.036.036,0,0,0-.011-.072.036.036,0,0,0,.011.072" transform="translate(-1974.176 -411.967)" fill="#ea5942"/>
              <path id="Path_14965" data-name="Path 14965" d="M2076.323,416.221a.036.036,0,0,0-.011-.072.036.036,0,0,0,.011.072" transform="translate(-1945.634 -409.814)" fill="#ea5942"/>
              <path id="Path_14966" data-name="Path 14966" d="M2073.286,420.8a.036.036,0,0,0-.011-.072.036.036,0,0,0,.011.072" transform="translate(-1942.818 -414.061)" fill="#ea5942"/>
              <path id="Path_14967" data-name="Path 14967" d="M2068.559,419.723a.036.036,0,0,0-.011-.072.036.036,0,0,0,.011.072" transform="translate(-1938.436 -413.061)" fill="#ea5942"/>
              <path id="Path_14968" data-name="Path 14968" d="M2069.33,426.779a.036.036,0,0,0-.011-.072.036.036,0,0,0,.011.072" transform="translate(-1939.151 -419.603)" fill="#ea5942"/>
              <path id="Path_14969" data-name="Path 14969" d="M2065.347,423.192a.036.036,0,0,0-.012-.072.036.036,0,0,0,.012.072" transform="translate(-1935.458 -416.278)" fill="#ea5942"/>
              <path id="Path_14970" data-name="Path 14970" d="M2065.16,416.956a.036.036,0,0,0-.011-.072.036.036,0,0,0,.011.072" transform="translate(-1935.284 -410.496)" fill="#ea5942"/>
              <path id="Path_14971" data-name="Path 14971" d="M2094,421.408a.036.036,0,0,0-.011-.072.036.036,0,0,0,.011.072" transform="translate(-1962.025 -414.623)" fill="#ea5942"/>
              <path id="Path_14972" data-name="Path 14972" d="M1931.149,516.34a14.608,14.608,0,0,0,.317,4.046c13.757,7.1,29.351-1.193,29.351-1.193a82.4,82.4,0,0,0-5.39-20.07c-.247-.572-1.139-2.886-2.1-4.923-.847-1.787-1.786-3.339-1.9-3.608-.146-.338-.518-.617-.479-.874.052-.338,1.272-3.212,2.208-5.891l4.135,7.039a52.414,52.414,0,0,0,5.861-2.116c-3.129-5.712-7.292-12.075-9.487-14.216-1.932-1.329-5.871-1.687-7.827-1.5a32.5,32.5,0,0,0-6.468.253h0c-.389.468-3.261,4.9-3.653,5.781a4.642,4.642,0,0,0,.333,4.116c.488.3.55,6.293.638,6.726-4.138,7.7-5.628,17.755-5.533,26.431" transform="translate(-1811.012 -462.514)" fill="#ff424d"/>
              <path id="Path_14973" data-name="Path 14973" d="M2202.813,491.782a.061.061,0,0,1-.05-.025,3.638,3.638,0,0,0-1.587-1.126.062.062,0,0,1,.038-.118,3.7,3.7,0,0,1,1.648,1.17.062.062,0,0,1-.012.087.061.061,0,0,1-.037.012" transform="translate(-2061.394 -478.761)" fill="#21111d"/>
              <path id="Path_14974" data-name="Path 14974" d="M2201.208,499.666a.061.061,0,0,1-.049-.025,3.641,3.641,0,0,0-1.588-1.126.062.062,0,1,1,.038-.118,3.7,3.7,0,0,1,1.648,1.17.062.062,0,0,1-.012.087.061.061,0,0,1-.037.012" transform="translate(-2059.906 -486.071)" fill="#21111d"/>
              <path id="Path_14975" data-name="Path 14975" d="M2180.481,702.348h.008l1.6-.17a.074.074,0,0,0,.066-.082.073.073,0,0,0-.082-.066l-1.6.17a.074.074,0,0,0,.008.148" transform="translate(-2042.178 -674.879)"/>
              <path id="Path_14976" data-name="Path 14976" d="M1931.083,578.041h0a.074.074,0,0,0,.069-.079,66.077,66.077,0,0,1,2.222-22.645,33.367,33.367,0,0,1,3.151-7.7l.013-.021,0-.025-.479-6.489-.01-.016a4.624,4.624,0,0,1,.431-5.756.074.074,0,1,0-.105-.1,4.771,4.771,0,0,0-.46,5.926l.475,6.427a34,34,0,0,0-3.152,7.708,66.213,66.213,0,0,0-2.23,22.7.074.074,0,0,0,.074.069" transform="translate(-1810.798 -520.183)"/>
              <path id="Path_14977" data-name="Path 14977" d="M2204.018,644.566l-1.548,4.14c.381.61,6.029,9.826,9.013,24.908a.074.074,0,0,1-.058.087h-.014a.074.074,0,0,1-.073-.06c-3.068-15.507-8.954-24.8-9.013-24.888l-.02-.031,1.6-4.276Z" transform="translate(-2062.48 -621.489)"/>
              <path id="Path_14978" data-name="Path 14978" d="M2228.042,821.173a7.989,7.989,0,0,1-1.347-.568c-.635-.352-.662.207-.55.426a8.958,8.958,0,0,0,.812.948Z" transform="translate(-2084.537 -784.714)" fill="#f07162"/>
              <path id="Path_14979" data-name="Path 14979" d="M2184.489,820.492c-.01.019-.342.6-.352.62-1.031.146-2.231.315-2.526.354a7.433,7.433,0,0,0-2.766,1.469c-.885.993-.253.957-.253.957-.823,1.117.194.935.194.935-.824.936.166.95.166.95-.391.548-.256.763-.076.848a.46.46,0,0,0,.414-.019c.236-.128.754-.411,1.293-.717h0a48.522,48.522,0,0,1,4.926-1.217l1.235-.379Z" transform="translate(-2040.196 -784.715)" fill="#fe9f73"/>
              <path id="Path_14980" data-name="Path 14980" d="M2187.841,881.234a.066.066,0,0,1,.046.121,8.1,8.1,0,0,0-1.048.789.066.066,0,0,1-.088-.1,8.05,8.05,0,0,1,1.071-.805.065.065,0,0,1,.019-.007" transform="translate(-2048.039 -841.032)" fill="#f07162"/>
              <path id="Path_14981" data-name="Path 14981" d="M2185.558,870.044a.066.066,0,0,1,.038.125,4.085,4.085,0,0,0-1.037.65.066.066,0,0,1-.088-.1,4.143,4.143,0,0,1,1.075-.674l.012,0" transform="translate(-2045.925 -830.658)" fill="#f07162"/>
              <path id="Path_14982" data-name="Path 14982" d="M2182.745,857.692a.066.066,0,0,1,.04.124,3.514,3.514,0,0,0-.9.613.066.066,0,0,1-.092-.094,3.583,3.583,0,0,1,.934-.639l.014,0" transform="translate(-2043.448 -819.205)" fill="#f07162"/>
              <path id="Path_14983" data-name="Path 14983" d="M2270.622,680.377a5.714,5.714,0,0,1,.162,3.382c-.462,1.992-2.379,7.261-5.16,9.625a23.526,23.526,0,0,1-2.912-3.894s2.161-6.966,2.1-7.88,2.677-1.947,2.677-1.947Z" transform="translate(-2118.489 -654.14)" fill="#ff424d"/>
              <path id="Path_14984" data-name="Path 14984" d="M2069.621,471.072s-6.808,7.928-7.269,8.9c0,0-.15-6.473-.405-8.838a28.39,28.39,0,0,1,7.675-.067" transform="translate(-1932.343 -460.542)" fill="#f1eeec"/>
              <path id="Path_14985" data-name="Path 14985" d="M2089.05,457.021l-.95-1.161-2.131,1.435-.971-.4-.328,1.046,1.2.613.27-.578.488.582Z" transform="translate(-1953.411 -446.633)" fill="#e8d9d1"/>
              <path id="Path_14986" data-name="Path 14986" d="M2074.779,473.763a29.107,29.107,0,0,1-1.342,3.919l-1.927.952.035,1.5-4.035,2.53s4.878-6.736,7.269-8.9" transform="translate(-1937.501 -463.233)" fill="#f23346"/>
              <path id="Path_14987" data-name="Path 14987" d="M1989.889,784.723l-12.175,4.263-2.28-3.082-2.155,2.911-3.377-3.176,3.3,4.4,2.23-2.479,2.242,2.857Z" transform="translate(-1847.001 -751.55)" fill="#f23346"/>
              <path id="Path_14988" data-name="Path 14988" d="M1972.765,800.01l2.195-2.965-.1-.071-2.115,2.856-3.327-3.13-.082.087Z" transform="translate(-1846.478 -762.656)"/>
              <path id="Path_14989" data-name="Path 14989" d="M2002.2,615.97l9.752.629-9.687.121Z" transform="translate(-1876.945 -595.086)" fill="#f23346"/>
              <path id="Path_14990" data-name="Path 14990" d="M2047.332,500.164l.042-.015,12.175-4.263-.04-.113-12.133,4.248-2.24-3.027,1.572-14.88c.242-.336,4.99-6.908,7.251-8.882l-.079-.09c-2.319,2.025-7.229,8.846-7.279,8.915l-.009.013,0,.016-1.578,14.942Z" transform="translate(-1916.641 -462.657)"/>
              <path id="Path_14991" data-name="Path 14991" d="M2091.307,461.673l-.042.238-1.149.773-.971-.4c.056.023,2.162-.611,2.162-.611" transform="translate(-1957.558 -452.023)" fill="#fe9f73"/>
              <path id="Path_14992" data-name="Path 14992" d="M2078.652,433.157h.007a2.74,2.74,0,0,1,.708-.014c.012,0,.026-.012.029-.031s0-.036-.017-.036a2.77,2.77,0,0,0-.718.015.04.04,0,0,0-.025.038c0,.015.006.026.015.029" transform="translate(-1947.817 -425.492)" fill="#f07162"/>
              <path id="Path_14993" data-name="Path 14993" d="M2047.036,474.682s-1.121,2.623-1.171,3l.655,1.387-.517.82,1.438,3.633s-.073-6.8-.405-8.838" transform="translate(-1917.432 -464.085)" fill="#f23346"/>
              <path id="Path_14994" data-name="Path 14994" d="M2061.533,483.432h.12c0-.058-.053-5.789-.406-8.844l-.119.014c.353,3.049.4,8.774.4,8.831" transform="translate(-1931.584 -463.997)"/>
              <path id="Path_14996" data-name="Path 14996" d="M392.151,1465.13l-4.295.059-.062-4.051,4.278-.535Z" transform="translate(-366.72 -1378.217)" fill="#fe9f73"/>
              <path id="Path_15001" data-name="Path 15001" d="M290.6,1465.13l-4.295.059-.062-4.051,4.278-.535Z" transform="translate(-272.562 -1378.217)" fill="#fe9f73"/>
              <path id="Path_15004" data-name="Path 15004" d="M282.046,1489.542h0Z" transform="translate(-282.046 -1405.048)" fill="#21111d"/>
              <path id="Path_15006" data-name="Path 15006" d="M449.641,864.55c.173,0,7.019,3.228,7.019,3.228l-1.492,2.631-3.87-.989Z" transform="translate(-437.438 -825.565)" fill="#fd7583"/>
              <path id="Path_15014" data-name="Path 15014" d="M521.217,902.554l-.108.836.889-.3-.012-.6Z" transform="translate(-503.702 -860.74)" fill="#fec786"/>
              <path id="Path_15015" data-name="Path 15015" d="M527.627,814.6l-7.616-.5a.517.517,0,0,0-.58.424l-.917,6.979.189-.066.886-6.882a.366.366,0,0,1,.421-.292l7.616.5a.075.075,0,0,0,.08-.076.087.087,0,0,0-.079-.087" transform="translate(-501.295 -778.789)" fill="#21111d"/>
              <path id="Path_15016" data-name="Path 15016" d="M478.605,905.936s.781,2.034.023,6.033l-.759-2.873-1.265-1.872Z" transform="translate(-462.437 -863.937)" fill="#fd7583"/>
              <path id="Path_15033" data-name="Path 15033" d="M332.719,634.639a.017.017,0,0,0-.011-.032.017.017,0,0,0,.011.032" transform="translate(-329.009 -612.364)" fill="#f75553"/>
              <path id="Path_15034" data-name="Path 15034" d="M335.955,634.52a.017.017,0,0,0-.011-.032.017.017,0,0,0,.011.032" transform="translate(-332.01 -612.254)" fill="#f75553"/>
              <path id="Path_15035" data-name="Path 15035" d="M331.951,640.932a.017.017,0,0,0-.011-.032.017.017,0,0,0,.011.032" transform="translate(-328.297 -618.199)" fill="#f75553"/>
              <path id="Path_15036" data-name="Path 15036" d="M326.741,637.042a.017.017,0,0,0-.011-.032.017.017,0,0,0,.011.032" transform="translate(-323.467 -614.592)" fill="#f75553"/>
              <path id="Path_15037" data-name="Path 15037" d="M331.837,636.6a.017.017,0,0,0-.011-.032.017.017,0,0,0,.011.032" transform="translate(-328.191 -614.185)" fill="#f75553"/>
              <path id="Path_15038" data-name="Path 15038" d="M337.907,638.682a.017.017,0,0,0-.011-.032.017.017,0,0,0,.011.032" transform="translate(-333.82 -616.113)" fill="#f75553"/>
              <path id="Path_15039" data-name="Path 15039" d="M341.158,633.515l0,0,.006,0,0-.005a.013.013,0,0,0,0-.006.013.013,0,0,0,0-.007l0,0a.017.017,0,0,0-.006-.006h-.016l-.007,0,0,.005a.012.012,0,0,0,0,.006.011.011,0,0,0,0,.007v0a.018.018,0,0,0,.007.007h.013" transform="translate(-336.833 -611.321)" fill="#f75553"/>
              <path id="Path_15040" data-name="Path 15040" d="M346.184,635.521a.017.017,0,0,0-.011-.032.017.017,0,0,0,.011.032" transform="translate(-341.494 -613.182)" fill="#f75553"/>
              <path id="Path_15041" data-name="Path 15041" d="M345.41,632.064a.017.017,0,0,0-.011-.032.017.017,0,0,0,.011.032" transform="translate(-340.776 -609.977)" fill="#f75553"/>
              <path id="Path_15042" data-name="Path 15042" d="M350.605,628.826a.017.017,0,0,0-.011-.032.017.017,0,0,0,.011.032" transform="translate(-345.593 -606.974)" fill="#f75553"/>
              <path id="Path_15043" data-name="Path 15043" d="M354.138,631.157a.017.017,0,0,0-.011-.032.017.017,0,0,0,.011.032" transform="translate(-348.869 -609.136)" fill="#f75553"/>
              <path id="Path_15044" data-name="Path 15044" d="M358.558,630.212a.017.017,0,0,0-.011-.032.017.017,0,0,0,.011.032" transform="translate(-352.967 -608.26)" fill="#f75553"/>
              <path id="Path_15045" data-name="Path 15045" d="M359.985,634.328a.017.017,0,0,0-.011-.032.017.017,0,0,0,.011.032" transform="translate(-354.29 -612.076)" fill="#f75553"/>
              <path id="Path_15046" data-name="Path 15046" d="M363.816,633.14a.017.017,0,0,0-.011-.032.017.017,0,0,0,.011.032" transform="translate(-357.842 -610.974)" fill="#f75553"/>
              <path id="Path_15047" data-name="Path 15047" d="M362.165,630.554a.017.017,0,0,0-.011-.032.017.017,0,0,0,.011.032" transform="translate(-356.311 -608.577)" fill="#f75553"/>
              <path id="Path_15048" data-name="Path 15048" d="M357.6,634.385a.017.017,0,0,0-.011-.032.017.017,0,0,0,.011.032" transform="translate(-352.08 -612.129)" fill="#f75553"/>
              <path id="Path_15049" data-name="Path 15049" d="M359.205,638.151a.017.017,0,0,0-.011-.032.017.017,0,0,0,.011.032" transform="translate(-353.567 -615.62)" fill="#f75553"/>
              <path id="Path_15050" data-name="Path 15050" d="M331.6,630.349a.017.017,0,0,0-.011-.032.017.017,0,0,0,.011.032" transform="translate(-327.971 -608.387)" fill="#f75553"/>
              <path id="Path_15051" data-name="Path 15051" d="M343.11,639.008a.017.017,0,0,0-.011-.032.017.017,0,0,0,.011.032" transform="translate(-338.644 -616.415)" fill="#f75553"/>
              <g id="Group_10031" data-name="Group 10031" transform="translate(7.604 17.398)">
                <path id="Path_14995" data-name="Path 14995" d="M218.4,577.312a1.437,1.437,0,0,0-.448.026,1.527,1.527,0,0,0-.716.571,2.805,2.805,0,0,0-.736,1.318c-.07.49.1,1.063-.22,1.438a1.468,1.468,0,0,1-.465.312q-.349.179-.68.389a1.3,1.3,0,0,0-.342.28,1.412,1.412,0,0,0-.222.576l-.232,1.035a1.42,1.42,0,0,0-.047.594,1.261,1.261,0,0,0,.881.8,2.538,2.538,0,0,1,1.088.568,4.426,4.426,0,0,1,.46.908,2.26,2.26,0,0,0,1.163,1,4.092,4.092,0,0,0,1.533.261,1.128,1.128,0,0,0,.44-.062,1.222,1.222,0,0,0,.3-.207,4.231,4.231,0,0,0,2.127-3.36l.49-3.514a2,2,0,0,0-.135-1.229c-.124-.357-.248-.715-.4-1.061a1.694,1.694,0,0,0-.374-.587.68.68,0,0,0-.645-.179c-.241.077-.415.328-.668.345a2.279,2.279,0,0,0-.556,0,.593.593,0,0,1-.413.041,4.582,4.582,0,0,0-1.186-.258" transform="translate(-214.277 -576.499)" fill="#3b1c25"/>
                <path id="Path_14997" data-name="Path 14997" d="M396.564,1502.441h-8.769v-1.765a1.356,1.356,0,0,1,1.609-.415,2.151,2.151,0,0,0,2.733-.2l3.247,1.394s1.181.388,1.181.988" transform="translate(-375.16 -1432.197)" fill="#eb6573"/>
                <path id="Path_14998" data-name="Path 14998" d="M387.794,1533.392h9.032a.118.118,0,0,0,.118-.118v-.381a.119.119,0,0,0-.118-.119h-9.032Z" transform="translate(-375.159 -1462.531)" fill="#472a31"/>
                <path id="Path_14999" data-name="Path 14999" d="M436.956,1503.162l-1.261,1.97h-.6l1.39-2.171Z" transform="translate(-419.018 -1434.888)" fill="#d7e4f7"/>
                <path id="Path_15000" data-name="Path 15000" d="M448.861,1509.243h-.6l1.183-1.848.469.2-1.054,1.647" transform="translate(-431.225 -1438.999)" fill="#d7e4f7"/>
                <path id="Path_15002" data-name="Path 15002" d="M352.343,997.065c.142,4.183.761,20.545,2.061,31.251a1.4,1.4,0,0,0,1.395,1.236,10.78,10.78,0,0,0,3.094-.466,1.412,1.412,0,0,0,1-1.325l.529-32.574a1.41,1.41,0,0,0-.016-.236l-.025-.161a1.406,1.406,0,0,0-1.894-1.1l-5.246,2.015a1.405,1.405,0,0,0-.9,1.36" transform="translate(-342.288 -962.612)" fill="#2b0e18"/>
                <path id="Path_15003" data-name="Path 15003" d="M272.276,970.959s-.357,20.12.574,32.531a1.189,1.189,0,0,0,1.1,1.1,10.715,10.715,0,0,0,3.525-.325,1.188,1.188,0,0,0,.88-1.046l2.49-28.855,1.533-8.012Z" transform="translate(-267.99 -937.35)" fill="#4c222e"/>
                <path id="Path_15005" data-name="Path 15005" d="M251.134,928.518c.088.8.569,12.728,1.907,13.712s14.139.038,14.437-1.124-1.439-13.624-1.439-13.624Z" transform="translate(-248.45 -901.312)" fill="#fd7583"/>
                <path id="Path_15007" data-name="Path 15007" d="M237.354,692.928c1.578-.622,6.308-.65,6.308-.65s.582.174.4.081c4.863,1.031,5.28,4.677,5.28,4.677l2.031,10.565,2.653.235c.8,1.659.023,6.033.023,6.033l-12.922,1.012s-2.8.364-5.049-2.734c-1.489-2.05-1.809-8.2-1.656-12.677,0,0-.493-5.19,2.934-6.542" transform="translate(-232.921 -683.235)" fill="#fd7583"/>
                <path id="Path_15008" data-name="Path 15008" d="M309.009,778.241a.08.08,0,0,0,.047,0,.081.081,0,0,0,.064-.1c-.012-.058-1.162-5.823-1.612-9.441a.081.081,0,1,0-.161.02c.451,3.624,1.6,9.395,1.614,9.453a.081.081,0,0,0,.048.059" transform="translate(-300.569 -754.034)" fill="#21111d"/>
                <path id="Path_15009" data-name="Path 15009" d="M428.089,787.182a.081.081,0,0,1-.135-.056c0-.067-.388-6.7-.776-8.9a.081.081,0,1,1,.16-.028c.39,2.206.774,8.848.778,8.915a.081.081,0,0,1-.027.066" transform="translate(-411.674 -762.84)" fill="#21111d"/>
                <path id="Path_15010" data-name="Path 15010" d="M299.8,890.07l.011,0,2.157.571a.081.081,0,0,0,.042-.157l-2.157-.571a.081.081,0,0,0-.052.154" transform="translate(-293.529 -866.48)" fill="#21111d"/>
                <path id="Path_15011" data-name="Path 15011" d="M462.5,869.463a.081.081,0,0,0,.064-.149L460.25,868.3a.082.082,0,0,0-.107.042.081.081,0,0,0,.042.107l2.317,1.017h0" transform="translate(-442.234 -846.431)" fill="#21111d"/>
                <path id="Path_15012" data-name="Path 15012" d="M519.551,827.958l-7.616-.5a.647.647,0,0,1-.624-.657l1.517-11.216a.44.44,0,0,1,.5-.358l7.616.5a.648.648,0,0,1,.624.657L520.052,827.6a.44.44,0,0,1-.5.358" transform="translate(-489.679 -797.229)" fill="#fec786"/>
                <path id="Path_15013" data-name="Path 15013" d="M498.666,903.721a.41.41,0,0,0-.382-.407l-1.295-.087a.1.1,0,0,1,0-.19l1.917-.127a.316.316,0,0,0,.3-.413h0a.509.509,0,0,0-.5-.36l-1.954.129a.1.1,0,0,1-.1-.07l-.008-.031a.1.1,0,0,1,.067-.117l2.1-.563a.411.411,0,0,0,.3-.473.392.392,0,0,0-.484-.289l-2.111.567a.1.1,0,0,1-.117-.067l-.027-.1a.1.1,0,0,1,.056-.113l1.874-.776a.41.41,0,0,0,.232-.508A.392.392,0,0,0,498,899.5s-2.882,1.02-3.352,1.144l.867-.405c.638.6-.082-.218-.607-.324-.582-.117-2.118,1.305-2.118,1.305a.783.783,0,0,0,.113.6,31.944,31.944,0,0,0,.685,3.226l2.368-.722a5.886,5.886,0,0,1,2.111-.243l.179.012a.393.393,0,0,0,.418-.378" transform="translate(-472.486 -875.344)" fill="#fe9f73"/>
                <path id="Path_15017" data-name="Path 15017" d="M290.952,898.21a.081.081,0,0,0,.031.006c.116,0,11.63.047,15.382.486a10.062,10.062,0,0,1,.267,3.872.081.081,0,0,0,.162.014,9.563,9.563,0,0,0-.293-3.991l-.018-.045-.048-.006c-3.708-.445-15.334-.493-15.451-.493a.081.081,0,0,0-.032.156" transform="translate(-285.323 -874.027)" fill="#21111d"/>
                <path id="Path_15018" data-name="Path 15018" d="M243.439,883.09c4.7,0,10.456-.607,10.811-.645a.1.1,0,0,0,.084-.1.094.094,0,0,0-.1-.084c-.128.014-12.864,1.356-16.063.1-3.162-1.24-3.382-8.2-3.384-8.275a.095.095,0,0,0-.19.005c.008.292.226,7.161,3.5,8.447a17.56,17.56,0,0,0,5.341.554" transform="translate(-233.114 -851.717)" fill="#21111d"/>
                <path id="Path_15019" data-name="Path 15019" d="M287.825,697.733l1.574-2.64,2.766.835,1.122-1.193s.239,1.1.232,1.193a7.209,7.209,0,0,1-1.425,1.383c-.161-.014-4.268.421-4.268.421" transform="translate(-282.47 -685.513)" fill="#fd7583"/>
                <path id="Path_15021" data-name="Path 15021" d="M295.011,1502.441h-8.769v-1.765a1.356,1.356,0,0,1,1.609-.415,2.151,2.151,0,0,0,2.733-.2l3.247,1.394s1.181.388,1.181.988" transform="translate(-281.002 -1432.197)" fill="#fd7583"/>
                <path id="Path_15022" data-name="Path 15022" d="M286.242,1533.392h9.032a.118.118,0,0,0,.119-.118v-.381a.119.119,0,0,0-.119-.119h-9.032Z" transform="translate(-281.002 -1462.531)" fill="#683d46"/>
                <path id="Path_15023" data-name="Path 15023" d="M335.4,1503.162l-1.261,1.97h-.6l1.39-2.171Z" transform="translate(-324.859 -1434.888)" fill="#d7e4f7"/>
                <path id="Path_15024" data-name="Path 15024" d="M347.308,1509.243h-.6l1.183-1.848.469.2-1.054,1.647" transform="translate(-337.067 -1438.999)" fill="#d7e4f7"/>
                <path id="Path_15025" data-name="Path 15025" d="M326.8,573.62c.966-.272,1.819-5.688-2.918-5.533,0,0-.222,2.634-.219,2.764s3.137,2.77,3.137,2.77" transform="translate(-315.702 -568.084)" fill="#572634"/>
                <path id="Path_15026" data-name="Path 15026" d="M305.037,581.055s1.927,4.353-.18,5.777l.366,2.595-3.17.017-.99-7.386s.673-1.936.683-1.86,3.292.858,3.292.858" transform="translate(-294.743 -579.314)" fill="#fe9f73"/>
                <path id="Path_15027" data-name="Path 15027" d="M346.631,620.163a.029.029,0,0,1-.013-.055c.177-.063.261-.3.284-.38a.856.856,0,0,1-.54-.47.928.928,0,0,1,.055-.7.028.028,0,0,1,.05.027.886.886,0,0,0-.052.657.816.816,0,0,0,.531.446l.024.008-.006.025c0,.015-.088.359-.327.445h-.006" transform="translate(-336.699 -614.865)" fill="#f07162"/>
                <path id="Path_15028" data-name="Path 15028" d="M321.477,667.864l-.118-.883a6.141,6.141,0,0,1-2.5-.342,7.569,7.569,0,0,0,2.617,1.226" transform="translate(-311.245 -659.462)" fill="#f07162"/>
                <path id="Path_15029" data-name="Path 15029" d="M335.079,623.88a.181.181,0,1,1-.2-.155.181.181,0,0,1,.2.155" transform="translate(-325.949 -619.671)"/>
                <path id="Path_15030" data-name="Path 15030" d="M354.407,621.911a.181.181,0,1,1-.2-.155.181.181,0,0,1,.2.155" transform="translate(-343.869 -617.846)"/>
                <path id="Path_15031" data-name="Path 15031" d="M350.89,616.823a.051.051,0,0,1-.047-.008.98.98,0,0,0-.723-.172.051.051,0,0,1-.022-.1,1.067,1.067,0,0,1,.807.191.051.051,0,0,1-.015.089" transform="translate(-340.171 -612.996)" fill="#49263e"/>
                <path id="Path_15032" data-name="Path 15032" d="M329.468,618.857a.051.051,0,0,1-.057-.079,1.067,1.067,0,0,1,.727-.4.051.051,0,1,1,0,.1.978.978,0,0,0-.651.359.05.05,0,0,1-.025.018" transform="translate(-321.018 -614.717)" fill="#49263e"/>
                <path id="Path_15052" data-name="Path 15052" d="M341.381,643.55c-.017-.006-1.123-.191-1.123-.191s.073.479.484.549a.667.667,0,0,0,.639-.358" transform="translate(-331.084 -637.878)" fill="#fbfdfc"/>
                <path id="Path_15053" data-name="Path 15053" d="M286.54,569.709s-1.555,2.607-3.8,3.036l.371,2.767a3.07,3.07,0,0,1-1.935-2.177c-.337-1.656-.331-4.908,2.475-5.211,2.713-.292,2.887,1.585,2.887,1.585" transform="translate(-276.167 -568.093)" fill="#572634"/>
                <path id="Path_15054" data-name="Path 15054" d="M292.009,632.3a.89.89,0,1,1-1-.764.89.89,0,0,1,1,.764" transform="translate(-284.706 -626.909)" fill="#fe9f73"/>
                <path id="Path_15055" data-name="Path 15055" d="M296.526,638.946a.374.374,0,0,1-.387-.231.352.352,0,0,1,.086-.426.419.419,0,0,1,.459-.051.392.392,0,0,0-.2-.182.553.553,0,0,0-.391.027.028.028,0,0,1-.025-.051.6.6,0,0,1,.437-.029.484.484,0,0,1,.27.293l.038.095-.081-.062a.383.383,0,0,0-.47,0,.3.3,0,0,0-.07.359.315.315,0,0,0,.331.2.029.029,0,1,1,.008.056h-.005" transform="translate(-290.097 -632.884)" fill="#f07162"/>
                <path id="Path_15058" data-name="Path 15058" d="M366.568,705.012a.082.082,0,0,0,.1-.032l.578-.916-.006-.032-1.564-8.136a4.9,4.9,0,0,0-.9-2.084,7.2,7.2,0,0,0-4.912-2.749.081.081,0,1,0-.027.16,7.044,7.044,0,0,1,4.8,2.676,4.816,4.816,0,0,1,.875,2.018v.006l1.559,8.107-.543.862a.081.081,0,0,0,.025.112l.012.006" transform="translate(-349.176 -682.107)" fill="#21111d"/>
                <g id="Group_9325" data-name="Group 9325" transform="translate(23.906 19.599)" opacity="0.5">
                  <g id="Group_9324" data-name="Group 9324">
                    <g id="Group_9323" data-name="Group 9323" clip-path="url(#clip-path-3)">
                      <rect id="Rectangle_2707" data-name="Rectangle 2707" width="1.239" height="6.879" transform="matrix(0.07, -0.998, 0.998, 0.07, 0, 1.236)" fill="#fff"/>
                    </g>
                  </g>
                </g>
                <g id="Group_9328" data-name="Group 9328" transform="translate(23.754 21.587)" opacity="0.5">
                  <g id="Group_9327" data-name="Group 9327">
                    <g id="Group_9326" data-name="Group 9326" clip-path="url(#clip-path-4)">
                      <rect id="Rectangle_2709" data-name="Rectangle 2709" width="0.36" height="6.879" transform="matrix(0.07, -0.998, 0.998, 0.07, 0, 0.359)" fill="#fff"/>
                    </g>
                  </g>
                </g>
              </g>
            </g>
          </g>
        </g>
      </g>
    </g>
  </g>
</svg>
