<svg xmlns="http://www.w3.org/2000/svg" xmlns:xlink="http://www.w3.org/1999/xlink" width="100%" height="100%" viewBox="0 0 229.652 223.891">
  <defs>
    <filter id="Path_16564" x="0" y="0" width="229.652" height="223.891" filterUnits="userSpaceOnUse">
      <feOffset input="SourceAlpha"/>
      <feGaussianBlur stdDeviation="7.5" result="blur"/>
      <feFlood flood-opacity="0.173"/>
      <feComposite operator="in" in2="blur"/>
      <feComposite in="SourceGraphic"/>
    </filter>
    <clipPath id="clip-path">
      <rect id="Rectangle_2858" data-name="Rectangle 2858" width="17.689" height="18.229" fill="none"/>
    </clipPath>
    <clipPath id="clip-path-2">
      <rect id="Rectangle_2859" data-name="Rectangle 2859" width="13.775" height="14.169" fill="none"/>
    </clipPath>
    <clipPath id="clip-path-3">
      <rect id="Rectangle_2860" data-name="Rectangle 2860" width="17.008" height="17.495" fill="none"/>
    </clipPath>
    <clipPath id="clip-path-4">
      <rect id="Rectangle_2861" data-name="Rectangle 2861" width="27.89" height="28.735" fill="none"/>
    </clipPath>
    <clipPath id="clip-path-5">
      <rect id="Rectangle_2863" data-name="Rectangle 2863" width="72.644" height="37.394" fill="none"/>
    </clipPath>
  </defs>
  <g id="Group_10035" data-name="Group 10035" transform="translate(-161.609 -667.13)">
    <g id="bg" transform="translate(35 590.313)">
      <g class="svg-stoke" id="Path_16565" data-name="Path 16565" transform="translate(147 106)" fill="rgba(255,255,255,0)">
        <path d="M 81.46550750732422 160.3434448242188 C 75.97178649902344 160.3434448242188 70.48164367675781 159.7900085449219 65.14761352539062 158.6985015869141 C 59.94939422607422 157.6348114013672 54.83625411987305 156.0475921630859 49.95022583007812 153.9809722900391 C 45.15280914306641 151.9518432617188 40.5256462097168 149.4402770996094 36.19728469848633 146.51611328125 C 31.9098949432373 143.6196136474609 27.87822723388672 140.2931671142578 24.21425628662109 136.6291961669922 C 20.55028343200684 132.9652252197266 17.22383880615234 128.9335632324219 14.32733917236328 124.6461715698242 C 11.40317249298096 120.3178100585938 8.891616821289062 115.6906433105469 6.862477779388428 110.8932266235352 C 4.7958664894104 106.007194519043 3.208644390106201 100.8940582275391 2.144949913024902 95.69583892822266 C 1.053449869155884 90.36180877685547 0.5000054836273193 84.87167358398438 0.5000054836273193 79.37794494628906 C 0.5000054836273193 70.77181243896484 2.896144390106201 60.26764297485352 7.429421901702881 49.0010871887207 C 11.99281120300293 37.65964126586914 18.41247749328613 26.32641983032227 25.99442291259766 16.22664260864258 C 29.96061706542969 10.94333648681641 34.19197845458984 6.075253009796143 38.5709228515625 1.757642030715942 C 43.17817306518555 -2.785080194473267 47.95328140258789 -6.720691204071045 52.76358795166016 -9.939886093139648 C 57.85336685180664 -13.34610748291016 63.02364349365234 -15.97585773468018 68.13083648681641 -17.75613594055176 C 73.54556274414062 -19.64360809326172 78.96444702148438 -20.60063552856445 84.23694610595703 -20.60063552856445 C 97.17305755615234 -20.60063552856445 109.4142837524414 -14.91855239868164 120.6205596923828 -3.712274551391602 C 133.2728118896484 8.939948081970215 142.8871765136719 19.59694671630859 150.0130920410156 28.86764144897461 C 153.5545654296875 33.47503280639648 156.4944458007812 37.74016952514648 159.000732421875 41.90678024291992 C 161.4244995117188 45.93622589111328 163.3816680908203 49.77311325073242 164.9840545654297 53.63672637939453 C 171.2305908203125 68.69794464111328 171.1002044677734 82.10341644287109 170.9197235107422 100.6573104858398 C 170.887451171875 103.9749221801758 170.8540954589844 107.4054718017578 170.8540954589844 111.0617828369141 C 170.8540954589844 131.2891693115234 161.7737579345703 144.79833984375 143.0942230224609 152.3612213134766 C 135.3517761230469 155.4959411621094 125.9780349731445 157.6331634521484 114.4373092651367 158.8950653076172 C 105.3998641967773 159.8831939697266 94.92283630371094 160.3434448242188 81.46550750732422 160.3434448242188 Z" stroke="none"/>
        <path d="M 84.23694610595703 -20.10063934326172 C 79.02061462402344 -20.10063934326172 73.65711975097656 -19.15299987792969 68.29542541503906 -17.28399658203125 C 63.22828674316406 -15.51771545410156 58.09619903564453 -12.90699768066406 53.04167175292969 -9.524360656738281 C 48.2574462890625 -6.322608947753906 43.50689697265625 -2.407028198242188 38.92198181152344 2.113670349121094 C 34.56059265136719 6.413948059082031 30.34567260742188 11.26325225830078 26.394287109375 16.52684020996094 C 18.83816528320312 26.59222412109375 12.44061279296875 37.88616943359375 7.893280029296875 49.18772506713867 C 5.674026489257812 54.70328140258789 3.955978393554688 60.08008575439453 2.786865234375 65.16883850097656 C 1.6011962890625 70.32966613769531 1 75.11030578613281 1 79.37794494628906 C 1 84.83808898925781 1.550033569335938 90.29450225830078 2.634780883789062 95.59561157226562 C 3.69189453125 100.7615051269531 5.26922607421875 105.8428115844727 7.322982788085938 110.6984481811523 C 9.33953857421875 115.4661407470703 11.83554077148438 120.0646667480469 14.74166870117188 124.3662796020508 C 17.62034606933594 128.6272888183594 20.92634582519531 132.6341705322266 24.56781005859375 136.275634765625 C 28.20928955078125 139.9171142578125 32.21617126464844 143.2231140136719 36.4771728515625 146.1017761230469 C 40.77877807617188 149.0079193115234 45.37730407714844 151.5039215087891 50.14500427246094 153.5204772949219 C 55.00064086914062 155.57421875 60.08194732666016 157.1515502929688 65.24784088134766 158.2086791992188 C 70.5489501953125 159.2934265136719 76.00536346435547 159.8434448242188 81.46550750732422 159.8434448242188 C 94.90422821044922 159.8434448242188 105.3640060424805 159.3841400146484 114.3829803466797 158.3980102539062 C 125.8772583007812 157.1412200927734 135.2074279785156 155.0149841308594 142.9065856933594 151.8977508544922 C 147.161865234375 150.1748962402344 150.9579772949219 148.1148986816406 154.189453125 145.7749938964844 C 157.6052551269531 143.3016357421875 160.5111389160156 140.4281463623047 162.8263702392578 137.2343139648438 C 165.264892578125 133.8704223632812 167.1328430175781 130.0348968505859 168.3783111572266 125.8342514038086 C 169.6893310546875 121.4125289916992 170.3540954589844 116.4423675537109 170.3540954589844 111.0617828369141 C 170.3540954589844 107.4030303955078 170.3874816894531 103.9712524414062 170.4197540283203 100.6524505615234 C 170.5996398925781 82.1578369140625 170.7296142578125 68.79519653320312 164.5222320556641 53.82828140258789 C 162.9294281005859 49.9877815246582 160.9831695556641 46.17253112792969 158.5722503662109 42.16450500488281 C 156.0758666992188 38.01433563232422 153.1464538574219 33.76455688476562 149.6166381835938 29.17233276367188 C 142.5041198730469 19.91902923583984 132.9037475585938 9.278030395507812 120.2670059204102 -3.358718872070312 C 109.1578979492188 -14.46782684326172 97.03561401367188 -20.10063934326172 84.23694610595703 -20.10063934326172 M 84.2369384765625 -21.10062408447266 C 96.44292449951172 -21.10062408447266 108.9408493041992 -16.09909820556641 120.97412109375 -4.065826416015625 C 176.4476776123047 51.4077262878418 171.3540954589844 66.06961059570312 171.3540954589844 111.0617828369141 C 171.3540954589844 156.053955078125 126.4576721191406 160.8434448242188 81.46550750732422 160.8434448242188 C 36.47337341308594 160.8434448242188 0 124.3700866699219 0 79.37794494628906 C 0 44.14543533325195 40.17314147949219 -21.10062408447266 84.2369384765625 -21.10062408447266 Z" stroke="none" fill="#f05a5c"/>
      </g>
      <g transform="matrix(1, 0, 0, 1, 126.61, 76.82)" filter="url(#Path_16564)">
        <path id="Path_16564-2" data-name="Path 16564" d="M92.623,5.291c31.657,0,52.156,17.307,68.756,48.136,10.476,19.454,31.305,46.53,30.489,72.753-2.081,66.893-99.225,61.031-130.147,53.774S-6.174,130.291,12.1,85.649,40.555,5.291,92.623,5.291Z" transform="translate(15.26 17.21)" fill="#fff"/>
      </g>
    </g>
    <g id="Group_9666" data-name="Group 9666" transform="translate(190.567 724.159)">
      <g id="Group_9736" data-name="Group 9736" transform="translate(0 16.911)">
        <g id="Group_9664" data-name="Group 9664" transform="translate(0 0)">
          <g id="Group_9737" data-name="Group 9737">
            <g id="Group_9650" data-name="Group 9650" transform="translate(76.511 14.151)" opacity="0.5">
              <g id="Group_9649" data-name="Group 9649">
                <g id="Group_9648" data-name="Group 9648" clip-path="url(#clip-path)">
                  <path id="Path_15288" data-name="Path 15288" d="M1262.976,402.282l1.447-1.072a.4.4,0,0,1,.415-.033q.255.131.525.242a6.692,6.692,0,0,0,1.01.329.394.394,0,0,1,.3.326l.286,1.86a.387.387,0,0,0,.411.329l1.717-.113a.382.382,0,0,0,.356-.363l.073-1.731a.384.384,0,0,1,.288-.359,6.952,6.952,0,0,0,2-.907.4.4,0,0,1,.481.039l.778.711a.4.4,0,0,0,.529.005l1.278-1.133a.35.35,0,0,0,.068-.076.384.384,0,0,0-.011-.447l-.8-1.081-.2-.263a6.91,6.91,0,0,0,.433-.871,6.984,6.984,0,0,0,.381-1.241.384.384,0,0,1,.319-.3l1.5-.228a.4.4,0,0,0,.337-.42l-.086-1.312-.026-.376a.4.4,0,0,0-.384-.377l-1.447-.062a.383.383,0,0,1-.358-.275,6.916,6.916,0,0,0-.574-1.361c-.018-.039-.038-.073-.059-.109a.213.213,0,0,1-.019-.037.393.393,0,0,1,.071-.43l1.152-1.266a.3.3,0,0,0,.036-.045.4.4,0,0,0-.031-.482l-1.128-1.276a.4.4,0,0,0-.533-.056L1272,389.131a.384.384,0,0,1-.435.019,7.023,7.023,0,0,0-.954-.48q-.267-.11-.538-.2a.4.4,0,0,1-.276-.324l-.275-1.788a.386.386,0,0,0-.407-.327l-1.7.114a.4.4,0,0,0-.378.386l-.058,1.37a.4.4,0,0,1-.317.373,6.939,6.939,0,0,0-2.011.729.394.394,0,0,1-.46-.054l-1.14-1.039a.408.408,0,0,0-.542,0l-1.272,1.123a.39.39,0,0,0-.055.526l.046.064.93,1.256a.4.4,0,0,1,.015.454v0a6.884,6.884,0,0,0-.564,1.085c-.085.205-.157.411-.222.621a.391.391,0,0,1-.316.276l-1.521.232a.4.4,0,0,0-.343.426l.113,1.691a.433.433,0,0,0,.034.135.4.4,0,0,0,.345.236l1.156.047a.4.4,0,0,1,.333.212.426.426,0,0,1,.038.1,6.916,6.916,0,0,0,1.057,2.522.389.389,0,0,1,.007.428.4.4,0,0,1-.041.053l-.934,1.024a.4.4,0,0,0,0,.527l.026.03,1.1,1.245a.4.4,0,0,0,.54.055m7.352-10.139a4.62,4.62,0,0,1,.625.593,3.634,3.634,0,0,1,.762,1.829c0,.061.007.122.01.183a3.757,3.757,0,0,1-7.415,1.092,2.455,2.455,0,0,1-.051-.361,4.275,4.275,0,0,1,.149-1.445,3.73,3.73,0,0,1,5.92-1.89" transform="translate(-1259.209 -386.033)" fill="#dce2e5"/>
                </g>
              </g>
            </g>
            <g id="Group_9653" data-name="Group 9653" transform="translate(89.704 0.537)" opacity="0.5">
              <g id="Group_9652" data-name="Group 9652">
                <g id="Group_9651" data-name="Group 9651" clip-path="url(#clip-path-2)">
                  <path id="Path_15289" data-name="Path 15289" d="M1478.448,174.029l1.242-.673a.313.313,0,0,1,.326.02q.184.13.381.246a5.255,5.255,0,0,0,.748.367.309.309,0,0,1,.2.286l.017,1.476a.3.3,0,0,0,.283.3l1.346.1a.3.3,0,0,0,.317-.243l.248-1.337a.3.3,0,0,1,.264-.247,5.456,5.456,0,0,0,1.651-.484.311.311,0,0,1,.37.083l.526.638a.314.314,0,0,0,.41.063l1.118-.739a.276.276,0,0,0,.061-.052.3.3,0,0,0,.04-.348l-.5-.928-.123-.226a5.411,5.411,0,0,0,.432-.629,5.486,5.486,0,0,0,.433-.922.3.3,0,0,1,.281-.2l1.189-.012a.312.312,0,0,0,.308-.289l.078-1.029.021-.3a.316.316,0,0,0-.257-.335l-1.117-.208a.3.3,0,0,1-.248-.253,5.422,5.422,0,0,0-.3-1.12.936.936,0,0,0-.034-.091.16.16,0,0,1-.01-.031.308.308,0,0,1,.1-.326l1.035-.856a.218.218,0,0,0,.032-.031.313.313,0,0,0,.029-.378l-.735-1.116a.312.312,0,0,0-.408-.1l-1.3.7a.3.3,0,0,1-.34-.034,5.527,5.527,0,0,0-.688-.478q-.2-.115-.4-.212a.318.318,0,0,1-.179-.282l-.016-1.419a.3.3,0,0,0-.28-.3l-1.332-.1a.317.317,0,0,0-.336.258l-.2,1.058a.311.311,0,0,1-.287.255,5.443,5.443,0,0,0-1.643.345.309.309,0,0,1-.352-.092l-.771-.933a.32.32,0,0,0-.421-.063l-1.112.732a.306.306,0,0,0-.1.4l.029.054.583,1.078a.313.313,0,0,1-.039.355h0a5.427,5.427,0,0,0-.558.781c-.088.15-.167.3-.241.458a.307.307,0,0,1-.275.18l-1.208.012a.317.317,0,0,0-.314.293l-.1,1.326a.338.338,0,0,0,.011.109.316.316,0,0,0,.242.221l.893.164a.315.315,0,0,1,.236.2.333.333,0,0,1,.018.085,5.424,5.424,0,0,0,.542,2.076.3.3,0,0,1-.042.333.31.31,0,0,1-.038.037l-.838.693a.31.31,0,0,0-.062.409l.017.026.716,1.088a.316.316,0,0,0,.414.1m6.831-7.065a3.653,3.653,0,0,1,.42.53,2.85,2.85,0,0,1,.39,1.5c0,.048-.008.1-.012.143a2.948,2.948,0,0,1-5.88.03,1.942,1.942,0,0,1,0-.286,3.35,3.35,0,0,1,.275-1.106,2.927,2.927,0,0,1,4.808-.815" transform="translate(-1476.34 -161.985)" fill="#dce2e5"/>
                </g>
              </g>
            </g>
            <g id="Group_9656" data-name="Group 9656" transform="translate(144.88 52.933)" opacity="0.5">
              <g id="Group_9655" data-name="Group 9655">
                <g id="Group_9654" data-name="Group 9654" clip-path="url(#clip-path-3)">
                  <path id="Path_15290" data-name="Path 15290" d="M2387.029,1039.177l1.534-.831a.386.386,0,0,1,.4.025q.227.16.47.3a6.477,6.477,0,0,0,.924.453.382.382,0,0,1,.245.354l.021,1.823a.374.374,0,0,0,.349.371l1.662.125a.37.37,0,0,0,.391-.3l.306-1.651a.372.372,0,0,1,.325-.305,6.738,6.738,0,0,0,2.039-.6.384.384,0,0,1,.456.1l.649.788a.388.388,0,0,0,.507.077l1.381-.913a.334.334,0,0,0,.075-.064.371.371,0,0,0,.05-.43l-.62-1.146-.151-.279a6.747,6.747,0,0,0,1.069-1.915.372.372,0,0,1,.347-.249l1.469-.015a.385.385,0,0,0,.38-.357l.1-1.271.026-.364a.39.39,0,0,0-.317-.414l-1.379-.257a.372.372,0,0,1-.306-.313,6.69,6.69,0,0,0-.365-1.383c-.012-.04-.026-.075-.042-.113a.18.18,0,0,1-.013-.038.381.381,0,0,1,.127-.4l1.278-1.057a.291.291,0,0,0,.04-.038.388.388,0,0,0,.036-.467l-.908-1.378a.385.385,0,0,0-.5-.127l-1.6.868a.372.372,0,0,1-.419-.041,6.808,6.808,0,0,0-.85-.59q-.241-.142-.489-.261a.392.392,0,0,1-.221-.349l-.02-1.752a.375.375,0,0,0-.346-.369l-1.645-.122a.391.391,0,0,0-.415.319l-.243,1.306a.384.384,0,0,1-.355.315,6.722,6.722,0,0,0-2.028.425.381.381,0,0,1-.434-.114l-.952-1.152a.4.4,0,0,0-.52-.078l-1.373.9a.378.378,0,0,0-.124.5l.035.067.721,1.331a.387.387,0,0,1-.048.438h0a6.7,6.7,0,0,0-.688.964c-.109.185-.207.373-.3.565a.379.379,0,0,1-.34.222l-1.491.015a.392.392,0,0,0-.387.362l-.122,1.637a.418.418,0,0,0,.014.134.39.39,0,0,0,.3.273l1.1.2a.39.39,0,0,1,.291.249.425.425,0,0,1,.022.106,6.7,6.7,0,0,0,.67,2.563.377.377,0,0,1-.052.411.358.358,0,0,1-.047.045l-1.035.855a.384.384,0,0,0-.076.505l.021.032.883,1.344a.39.39,0,0,0,.511.126m8.435-8.724a4.507,4.507,0,0,1,.518.654,3.522,3.522,0,0,1,.482,1.858c0,.059-.01.118-.016.176a3.639,3.639,0,0,1-7.261.037,2.366,2.366,0,0,1,0-.353,4.145,4.145,0,0,1,.34-1.366,3.614,3.614,0,0,1,5.937-1.006" transform="translate(-2384.426 -1024.307)" fill="#dce2e5"/>
                </g>
              </g>
            </g>
            <path id="Path_15291" data-name="Path 15291" d="M2555.072,884.442l.821-.445a.206.206,0,0,1,.215.013c.081.057.165.111.252.162a3.469,3.469,0,0,0,.494.242.2.2,0,0,1,.131.189l.011.975a.2.2,0,0,0,.187.2l.889.067a.2.2,0,0,0,.208-.161l.164-.883a.2.2,0,0,1,.174-.163,3.6,3.6,0,0,0,1.091-.32.205.205,0,0,1,.244.055l.347.422a.207.207,0,0,0,.271.041l.739-.488a.174.174,0,0,0,.04-.034.2.2,0,0,0,.027-.23l-.332-.613-.081-.149a3.532,3.532,0,0,0,.286-.416,3.628,3.628,0,0,0,.286-.609.2.2,0,0,1,.186-.133l.786-.008a.206.206,0,0,0,.2-.191l.052-.68.014-.195a.209.209,0,0,0-.17-.222l-.738-.138a.2.2,0,0,1-.164-.167,3.556,3.556,0,0,0-.2-.74c-.006-.021-.014-.04-.022-.06a.091.091,0,0,1-.007-.021.2.2,0,0,1,.068-.215l.684-.566a.137.137,0,0,0,.021-.02.207.207,0,0,0,.02-.25l-.486-.737a.206.206,0,0,0-.27-.068l-.856.464a.2.2,0,0,1-.224-.022,3.667,3.667,0,0,0-.455-.316q-.129-.076-.262-.14a.21.21,0,0,1-.118-.187l-.011-.937a.2.2,0,0,0-.185-.2l-.88-.065a.209.209,0,0,0-.222.171l-.13.7a.205.205,0,0,1-.19.168,3.593,3.593,0,0,0-1.085.228.2.2,0,0,1-.232-.061l-.509-.616a.211.211,0,0,0-.278-.042l-.734.483a.2.2,0,0,0-.067.266l.019.036.386.712a.207.207,0,0,1-.026.234h0a3.588,3.588,0,0,0-.368.516c-.058.1-.11.2-.159.3a.2.2,0,0,1-.182.119l-.8.008a.21.21,0,0,0-.207.194l-.065.876a.224.224,0,0,0,.007.072.209.209,0,0,0,.16.146l.59.108a.208.208,0,0,1,.156.133.215.215,0,0,1,.012.057,3.584,3.584,0,0,0,.358,1.371.2.2,0,0,1-.028.22.192.192,0,0,1-.025.024l-.554.458a.205.205,0,0,0-.041.27l.011.017.473.719a.209.209,0,0,0,.273.067m4.512-4.667a2.4,2.4,0,0,1,.277.35,1.881,1.881,0,0,1,.258.994c0,.032-.005.063-.008.094a1.947,1.947,0,0,1-3.884.02,1.283,1.283,0,0,1,0-.189,2.209,2.209,0,0,1,.182-.731,1.933,1.933,0,0,1,3.176-.538" transform="translate(-2398.515 -832.535)" fill="#a4b2ba"/>
            <path id="Path_15292" data-name="Path 15292" d="M305.168,875.323l.9-.488a.227.227,0,0,1,.236.015q.133.094.276.178a3.81,3.81,0,0,0,.542.266.224.224,0,0,1,.144.207l.012,1.069a.22.22,0,0,0,.2.218l.975.074a.217.217,0,0,0,.229-.176l.18-.968a.218.218,0,0,1,.191-.179,3.956,3.956,0,0,0,1.2-.351.225.225,0,0,1,.268.06l.381.462a.228.228,0,0,0,.3.045l.81-.535a.2.2,0,0,0,.044-.038.218.218,0,0,0,.029-.252l-.363-.672-.089-.164a3.888,3.888,0,0,0,.313-.456,3.972,3.972,0,0,0,.314-.668.218.218,0,0,1,.2-.146l.861-.009a.226.226,0,0,0,.223-.209l.056-.745.016-.214a.229.229,0,0,0-.186-.243l-.809-.151a.218.218,0,0,1-.18-.183,3.923,3.923,0,0,0-.214-.811.692.692,0,0,0-.025-.066.118.118,0,0,1-.008-.023.223.223,0,0,1,.074-.236l.75-.62a.163.163,0,0,0,.024-.022.227.227,0,0,0,.021-.274l-.532-.808a.226.226,0,0,0-.3-.074l-.938.509a.218.218,0,0,1-.246-.024,4.006,4.006,0,0,0-.5-.346q-.141-.083-.287-.153a.23.23,0,0,1-.13-.2l-.012-1.028a.22.22,0,0,0-.2-.216l-.965-.071a.229.229,0,0,0-.243.187l-.142.766a.225.225,0,0,1-.208.184,3.946,3.946,0,0,0-1.19.25.224.224,0,0,1-.255-.067l-.559-.676a.232.232,0,0,0-.3-.046l-.805.53a.221.221,0,0,0-.073.291l.021.04.423.781a.226.226,0,0,1-.028.257h0a3.924,3.924,0,0,0-.4.565c-.064.109-.121.219-.174.331a.222.222,0,0,1-.2.13l-.874.009a.23.23,0,0,0-.227.212l-.072.961a.248.248,0,0,0,.008.079.229.229,0,0,0,.175.16l.646.119a.228.228,0,0,1,.171.146.243.243,0,0,1,.013.062,3.93,3.93,0,0,0,.393,1.5.221.221,0,0,1-.03.241.218.218,0,0,1-.027.027l-.607.5a.225.225,0,0,0-.045.3l.012.019.518.788a.229.229,0,0,0,.3.074m4.947-5.117a2.627,2.627,0,0,1,.3.384,2.066,2.066,0,0,1,.283,1.09c0,.035-.006.069-.009.1a2.135,2.135,0,0,1-4.259.022,1.4,1.4,0,0,1,0-.207,2.43,2.43,0,0,1,.2-.8,2.12,2.12,0,0,1,3.482-.59" transform="translate(-285.191 -823.25)" fill="#c3cdd1"/>
            <g id="Group_9659" data-name="Group 9659" transform="translate(96.311 11.517)" opacity="0.5">
              <g id="Group_9658" data-name="Group 9658">
                <g id="Group_9657" data-name="Group 9657" clip-path="url(#clip-path-4)">
                  <path id="Path_15293" data-name="Path 15293" d="M1590.8,368.182l2.312-1.655a.63.63,0,0,1,.656-.041q.4.213.823.4a10.57,10.57,0,0,0,1.586.546.621.621,0,0,1,.467.523l.4,2.944a.61.61,0,0,0,.64.53l2.714-.134a.6.6,0,0,0,.571-.565l.161-2.731a.606.606,0,0,1,.465-.56,10.988,10.988,0,0,0,3.177-1.38.626.626,0,0,1,.759.074l1.21,1.144a.632.632,0,0,0,.835.022l2.048-1.755a.55.55,0,0,0,.109-.119.607.607,0,0,0-.006-.706l-1.234-1.729-.3-.421a10.908,10.908,0,0,0,.707-1.364,11.043,11.043,0,0,0,.635-1.949.606.606,0,0,1,.511-.472l2.372-.321a.628.628,0,0,0,.543-.655l-.1-2.075-.031-.594a.636.636,0,0,0-.6-.606l-2.283-.137a.605.605,0,0,1-.558-.444,10.913,10.913,0,0,0-.871-2.163,1.962,1.962,0,0,0-.091-.174.325.325,0,0,1-.028-.06.621.621,0,0,1,.123-.677l1.853-1.968a.453.453,0,0,0,.057-.07.631.631,0,0,0-.036-.762l-1.747-2.044a.628.628,0,0,0-.841-.1l-2.411,1.727a.607.607,0,0,1-.687.018,11.1,11.1,0,0,0-1.494-.783q-.419-.181-.844-.323a.639.639,0,0,1-.428-.519l-.388-2.83a.61.61,0,0,0-.634-.527l-2.684.136a.637.637,0,0,0-.607.6l-.128,2.161a.626.626,0,0,1-.511.581,10.959,10.959,0,0,0-3.194,1.1.623.623,0,0,1-.725-.1l-1.773-1.67a.644.644,0,0,0-.856-.021l-2.038,1.739a.615.615,0,0,0-.1.828l.071.1,1.435,2.008a.629.629,0,0,1,.011.718v0a10.92,10.92,0,0,0-.919,1.7c-.139.322-.258.645-.366.974a.617.617,0,0,1-.505.427l-2.408.326a.638.638,0,0,0-.553.664l.134,2.673a.692.692,0,0,0,.05.214.636.636,0,0,0,.538.381l1.824.1a.635.635,0,0,1,.521.343.68.68,0,0,1,.057.166,10.916,10.916,0,0,0,1.6,4.009.615.615,0,0,1,0,.675.633.633,0,0,1-.066.083l-1.5,1.592a.625.625,0,0,0-.021.832l.04.048,1.7,1.994a.636.636,0,0,0,.852.1m11.875-15.816a7.307,7.307,0,0,1,.971.953,5.741,5.741,0,0,1,1.155,2.907c.006.1.008.193.011.288a5.932,5.932,0,0,1-11.736,1.529,3.894,3.894,0,0,1-.071-.571,6.752,6.752,0,0,1,.273-2.278,5.89,5.89,0,0,1,9.4-2.828" transform="translate(-1585.072 -342.689)" fill="#dce2e5"/>
                </g>
              </g>
            </g>
            <path id="Path_15294" data-name="Path 15294" d="M495.642,634.747c.724-3.671,6.882-2.971,6.882-2.971s4.569,6.016,5.781,6.082-2.9-5.906-2.9-5.906c2.311-.388,8.44,2.049,8.44,2.049s.139,7.382,1.33,7.147-.457-6.53-.457-6.53c2.3.518,4.584,3,4.584,3,2.926,4.094-2.482,7.64-2.482,7.64a12,12,0,0,0,1.885,5.374h0a8.711,8.711,0,0,1,.819,1.409l-.614.043q-.093-.242-.2-.465a0,0,0,0,0,0,0l0-.006c-.049-.092-.119-.223-.205-.382h0c-.213-.354-.359-.616-.453-.807v0a9.444,9.444,0,0,0-2.119-2.835,1.193,1.193,0,0,0,.112-.291l-.112.291c-.893,2.325-6.121,3.068-9.09,2.673s-1.751-1.31-.269-2.761,4.809-1.328,5.748-1.922-.524-1.019-2.465-.733-2.78,2.306-5.911,2.827-5.948-5.24-5.948-5.24c2.224.523,6.043-.951,6.14-1.712s-5.676-.281-6.593-.444-2.619-1.853-1.895-5.524" transform="translate(-465.363 -602.643)" fill="#dce2e5"/>
            <path id="Path_15295" data-name="Path 15295" d="M1263.894,905.655l-3.257,38.729s-.341,2.348,1.405,2.352c2.871.007,14.291,0,14.291,0s-2.161-.489-2.135-1.588c.031-1.3,3.807-39.859,3.807-39.859Z" transform="translate(-1184.013 -859.587)" fill="#66767c"/>
            <path id="Path_15296" data-name="Path 15296" d="M1291.767,935.17c-.565,0-11.472.036-14.268,0-1.219-.015-1.432-1.083-1.442-1.775a3.461,3.461,0,0,1,.037-.576l.085-1.007.216-2.566.191-2.267.245-2.913.206-2.458,2.314-27.519,14.111-.366s-1.59,16.138-2.715,27.886c-.125,1.309-.245,2.564-.355,3.735q-.054.561-.1,1.1c-.1,1.111-.2,2.132-.283,3.033-.044.475-.084.916-.121,1.321-.144,1.584-.228,2.6-.229,2.788a1.628,1.628,0,0,0,.028.313c.232,1.234,1.872,1.275,2.084,1.275" transform="translate(-1198.522 -848.724)" fill="#c3cdd1"/>
            <path id="Path_15297" data-name="Path 15297" d="M750.659,564.475l7.934,31.869,1.086,4.365,3.7,14.844h68.651l-13.62-51.077Z" transform="translate(-705.048 -539.482)" fill="#a4b2ba"/>
            <path id="Path_15298" data-name="Path 15298" d="M733.66,564.474l-1.1.367,12.353,51.819,1.462-1.109Z" transform="translate(-688.049 -539.481)" fill="#778991"/>
            <path id="Path_15299" data-name="Path 15299" d="M935.87,1406.209H1004.1l1.884-1.108H937.332Z" transform="translate(-879.006 -1329.03)" fill="#778991"/>
            <rect id="Rectangle_2862" data-name="Rectangle 2862" width="14.773" height="0.702" transform="translate(80.824 86.461)" fill="#c3cdd1"/>
            <path id="Path_15300" data-name="Path 15300" d="M1295.589,1423.339l-.076.537-13.893,2.807.191-2.267.091-1.077Z" transform="translate(-1203.747 -1346.161)" fill="#a4b2ba"/>
            <path id="Path_15301" data-name="Path 15301" d="M1291.774,1508.205c-.565,0-11.472.036-14.268,0-1.219-.015-1.432-1.083-1.442-1.775l13.827-2.6c-.144,1.584-.228,2.6-.229,2.788a1.619,1.619,0,0,0,.028.313c.232,1.234,1.872,1.275,2.084,1.275" transform="translate(-1198.528 -1421.76)" fill="#a4b2ba"/>
            <path id="Path_15302" data-name="Path 15302" d="M932.965,1165.306l-30.158,10.34-3.7-14.844Z" transform="translate(-844.481 -1099.575)" fill="#66767c"/>
            <path id="Path_15303" data-name="Path 15303" d="M750.657,564.474H818.4l10.909,41.05H760.88Z" transform="translate(-705.046 -539.481)" fill="#c3cdd1"/>
            <g id="Group_9662" data-name="Group 9662" transform="translate(48.341 26.452)" opacity="0.5">
              <g id="Group_9661" data-name="Group 9661">
                <g id="Group_9660" data-name="Group 9660" clip-path="url(#clip-path-5)">
                  <path id="Path_15304" data-name="Path 15304" d="M795.594,588.476l9.732,37.394h62.912L858.4,588.906Z" transform="translate(-795.594 -588.476)" fill="#dce2e5"/>
                </g>
              </g>
            </g>
            <rect id="Rectangle_2864" data-name="Rectangle 2864" width="23.797" height="15.015" transform="translate(71.115 48.83)" fill="#d3444b"/>
            <rect id="Rectangle_2865" data-name="Rectangle 2865" width="23.796" height="15.014" transform="translate(83.013 48.83)" fill="#f05a5c"/>
            <path id="Path_15305" data-name="Path 15305" d="M1182.514,958.987,1177.5,964h-6.868v-7.234h11.884Z" transform="translate(-1099.501 -907.939)" fill="#ba454b"/>
            <path id="Path_15306" data-name="Path 15306" d="M1087.7,956.769l-5.35,5.163h11.906l5.343-5.163Z" transform="translate(-1016.585 -907.939)" fill="#f05a5c"/>
            <path id="Path_15307" data-name="Path 15307" d="M1390.014,957.308l-23.8-.532v1.9h0v.311l4.425,4.851h19.371v-4.829l-.123-.144h.123Z" transform="translate(-1283.205 -907.946)" fill="#ba454b"/>
            <path id="Path_15308" data-name="Path 15308" d="M1366.219,956.769l4.708,5.163h23.481l-4.394-5.163Z" transform="translate(-1283.206 -907.939)" fill="#f05a5c"/>
            <path id="Path_15309" data-name="Path 15309" d="M583.963,897.629a1.658,1.658,0,0,0-1.849-1.8,2.366,2.366,0,0,1,.926.5,2.383,2.383,0,0,0-2.683.4c-1.4,1.159-.529,4.066-.955,4.618s-2.081.662-1.879,2.447,5.255,4.02,4.931,5.5c0,0,1.98-2.911.564-4.24a2.625,2.625,0,0,1,.76,1.423s.187-1.509-.773-1.991a3.544,3.544,0,0,1-1.472-2.268c.074-.279,2.429-4.585,2.429-4.585" transform="translate(-542.416 -850.699)" fill="#2c3a64"/>
            <path id="Path_15310" data-name="Path 15310" d="M618.136,1067.986s1.505,6.227,2.983,7.472c.888.748,3.529,2.465,3.529,2.465l-1.1.4s-3.663-1.237-4.482-2.2a51.28,51.28,0,0,1-3.065-5.795Z" transform="translate(-578.572 -1012.399)" fill="#ffb27d"/>
            <path id="Path_15311" data-name="Path 15311" d="M651.773,1231.415l-.354-.876a2.485,2.485,0,0,0-2.3-1.554h-6.525V1250.8h26.991v-17.676H654.308a2.734,2.734,0,0,1-2.535-1.71" transform="translate(-603.547 -1163.615)" fill="#f05a5c"/>
            <path id="Path_15312" data-name="Path 15312" d="M709.6,1385.667v-1.573l5.516-2.416v1.607l-3.852,1.584,3.852,1.584v1.63Z" transform="translate(-666.481 -1307.031)" fill="#fff"/>
            <path id="Path_15313" data-name="Path 15313" d="M816.672,1350.732h1.47l-5.048,10.553h-1.47Z" transform="translate(-762.308 -1277.965)" fill="#fff"/>
            <path id="Path_15314" data-name="Path 15314" d="M934.547,1384.095v1.573l-5.516,2.416v-1.607l3.852-1.584-3.852-1.584v-1.63Z" transform="translate(-872.582 -1307.031)" fill="#fff"/>
            <path id="Path_15315" data-name="Path 15315" d="M403.816,1157.037l.041.073c.329.573,1.085,1.975,1.917,3.51.394.728.806,1.487,1.2,2.2.674,1.231,1.287,2.328,1.644,2.907s.631,1,.74,1.169h0a.273.273,0,0,1,.035.171,8.938,8.938,0,0,0,.024,1.544,11.843,11.843,0,0,0,3.869,7.67l1,.148s-1.417-5.249-1.834-8.217a5.708,5.708,0,0,1-.077-1.177,12.289,12.289,0,0,0-.323-3.212A71.962,71.962,0,0,0,410,1156.39c-.047-.145-1.455-5.239-1.455-5.239-1.182,1.033-5.492,1.459-5.492,1.459s-.731,1.777.759,4.427" transform="translate(-378.399 -1090.511)" fill="#2f4858"/>
            <path id="Path_15316" data-name="Path 15316" d="M560.266,1552.086h-4.179a2.294,2.294,0,0,1,.118-1.12c.209-.464.507-.478.038-1.205a2.546,2.546,0,0,0,1.723.305,5.123,5.123,0,0,0,.724,1.1c.273.2,1.491.126,1.575.917" transform="translate(-522.277 -1464.901)" fill="#1b2f3a"/>
            <path id="Path_15317" data-name="Path 15317" d="M418.321,1209.934l.041.073c.329.573,2.111,3.863,2.943,5.4a22.256,22.256,0,0,1-.294-7.935Z" transform="translate(-392.903 -1143.408)" fill="#1b2f3a"/>
            <path id="Path_15318" data-name="Path 15318" d="M624.019,920.877a16.761,16.761,0,0,0-2.509,1.227c-1.132,1.256-.809,2.895-.161,2.91.415.01.335.7.335.7l4.629-1.958s-.557-3.25-2.293-2.88" transform="translate(-583.042 -874.201)" fill="#2c3a64"/>
            <path id="Path_15319" data-name="Path 15319" d="M611.144,1052.6a5.93,5.93,0,0,1,.616,2.549,4.429,4.429,0,0,1-3.052,1.68s1.894-4.23,2.436-4.229" transform="translate(-571.722 -997.944)" fill="#a4b2ba"/>
            <path id="Path_15320" data-name="Path 15320" d="M309.8,1139.44l.014-.781c-1.557.2-5.369-1.861-5.369-1.861s-1.629,1.084-1.852,4.178c-.109,1.51-.8,7.9-.874,9.805-.028.691-.037,1.185-.04,1.382a0,0,0,0,1,0,0,.27.27,0,0,1-.066.161,8.946,8.946,0,0,0-.844,1.293c-2.376,4.421-1.134,10.428-1.134,10.428l.552-.14s2.009-6.228,3.322-8.921a5.636,5.636,0,0,1,.595-1.018,12.289,12.289,0,0,0,1.528-2.844c.97-2.317,4.168-11.684,4.168-11.684" transform="translate(-281.12 -1077.03)" fill="#2f4858"/>
            <path id="Path_15321" data-name="Path 15321" d="M294.391,1551.621h-4.179a2.3,2.3,0,0,1,.118-1.12c.209-.464.537-.674.458-1.235a1.505,1.505,0,0,0,1.3.5,4.586,4.586,0,0,0,.725.94c.273.2,1.491.126,1.575.917" transform="translate(-272.557 -1464.435)" fill="#1b2f3a"/>
            <path id="Path_15322" data-name="Path 15322" d="M394.619,1021.112c-.561.1.092.542-.68.626a13.959,13.959,0,0,0-2.828.439.639.639,0,0,0-.407.33,7.936,7.936,0,0,1-1.889,2.106c-7.277-.331-7.745-3.574-7.745-3.574,4.723-4.587,8.74-7.087,12.061-7.4a5.906,5.906,0,0,1,2.409.253,4.331,4.331,0,0,1,1.8,2.09s-.585,4.763-2.718,5.126" transform="translate(-357.915 -961.333)" fill="#c3cdd1"/>
            <path id="Path_15323" data-name="Path 15323" d="M548.793,1055.759a13.948,13.948,0,0,0-2.828.439,11.589,11.589,0,0,1,1.47-6.359s1.117,4.547,1.358,5.92" transform="translate(-512.77 -995.354)" fill="#778991"/>
            <path id="Path_15324" data-name="Path 15324" d="M556.576,1039.678s-2.763-.151-3.254,1.584.921,8.66,1.226,9.375a47.537,47.537,0,0,0,3.251,5.015l.992-.3s-1.8-5.673-2.2-6.235c-.63-.881.813-8.682-.014-9.436" transform="translate(-519.605 -985.808)" fill="#ffb27d"/>
            <path id="Path_15325" data-name="Path 15325" d="M628.358,1295.779a1.562,1.562,0,0,0,.237.667c.186.227.727.777.736,1.1,0,0-.027.143-.143.117s-.519-.425-.725-.4a4.006,4.006,0,0,0,.22.826,2.365,2.365,0,0,1-.043,1.108c-.066.157-.872-.841-1.2-1.287s-.005-2.254-.005-2.254Z" transform="translate(-589.173 -1226.237)" fill="#ffb27d"/>
            <path id="Path_15326" data-name="Path 15326" d="M545.942,1035.661a7.688,7.688,0,0,0,4.246-.348s1.363-4.269-.585-4.064-3.1.818-3.149,1.75a17.945,17.945,0,0,1-.512,2.663" transform="translate(-512.77 -977.887)" fill="#a4b2ba"/>
            <path id="Path_15327" data-name="Path 15327" d="M617.956,997.362c.208.651.9,2.5,1.86,1.791a2.368,2.368,0,0,1,.407-.949c.3-.522.666-1.056.666-1.056l-1.564-1.37-.093-.082a3.984,3.984,0,0,1-1.163,1.321.312.312,0,0,0-.112.345" transform="translate(-580.394 -944.501)" fill="#ffb27d"/>
            <path id="Path_15328" data-name="Path 15328" d="M641.826,998.414s-.361.532-.665,1.055a2.42,2.42,0,0,1-.9-2.426Z" transform="translate(-601.332 -945.766)" fill="#ed985f"/>
            <path id="Path_15329" data-name="Path 15329" d="M640.867,955.9s-2.36-1.313-1.52-2.771,1.1-2.608,2.645-1.831,1.512,1.5,1.35,2.055-1.839,2.851-2.475,2.547" transform="translate(-600.33 -902.565)" fill="#ffb27d"/>
            <path id="Path_15330" data-name="Path 15330" d="M639.905,949.451c-.108-.647-.437-.709-.666-.666a1.888,1.888,0,0,0-2.3-.879,3.214,3.214,0,0,1-1.86,1.117s.274.51,1.4.825a1.929,1.929,0,0,0,1.113-.089,6.3,6.3,0,0,1-1.6.6,4.5,4.5,0,0,0,3.049-1.369,2.115,2.115,0,0,1,.117.974c-.1.438-.487,1.232-.249,1.335,0,0,1.154-.882.992-1.853" transform="translate(-596.495 -899.514)" fill="#2c3a64"/>
            <path id="Path_15331" data-name="Path 15331" d="M760.028,1230.88s-.659.494-.162.817,1.383.41,1.386.2c.012-.711-.342-1.217-1.224-1.015" transform="translate(-713.522 -1165.353)" fill="#ffb27d"/>
            <path id="Path_15332" data-name="Path 15332" d="M169.445,1588.065H.182a.182.182,0,0,1-.182-.182v-.038a.182.182,0,0,1,.182-.182H169.445a.182.182,0,0,1,.182.182v.038a.182.182,0,0,1-.182.182" transform="translate(0 -1500.5)" fill="#a4b2ba"/>
            <path id="Path_15333" data-name="Path 15333" d="M921.981,776.566c-.077-.316.062-.564.355-.565a.69.69,0,0,1,.625.563c.077.316-.06.564-.355.565a.687.687,0,0,1-.625-.563m.731,0c-.048-.2-.182-.347-.327-.347s-.2.145-.155.348.18.347.327.347.2-.147.155-.348" transform="translate(-865.941 -738.155)" fill="#f99746"/>
            <path id="Path_15334" data-name="Path 15334" d="M848.279,646.612l-.181.047-.1-.2.294-.094h.165l.266,1.1h-.24Z" transform="translate(-796.475 -616.399)" fill="#94b0ed"/>
            <path id="Path_15335" data-name="Path 15335" d="M866.417,646.725c-.077-.316.062-.564.355-.565a.69.69,0,0,1,.625.563c.077.316-.06.564-.355.565a.687.687,0,0,1-.625-.563m.731,0c-.048-.2-.182-.347-.327-.347s-.2.145-.155.348.18.347.327.347.2-.147.155-.348" transform="translate(-813.753 -616.203)" fill="#94b0ed"/>
            <path id="Path_15336" data-name="Path 15336" d="M1180.164,646.009l-.181.047-.1-.2.294-.094h.165l.266,1.1h-.24Z" transform="translate(-1108.194 -615.832)" fill="#94b0ed"/>
            <path id="Path_15337" data-name="Path 15337" d="M1198.3,646.122c-.077-.316.062-.565.355-.565a.69.69,0,0,1,.625.563c.077.316-.06.564-.355.565a.687.687,0,0,1-.625-.563m.731,0c-.048-.2-.182-.347-.327-.347s-.2.145-.155.348.18.347.327.347.2-.147.155-.348" transform="translate(-1125.473 -615.637)" fill="#94b0ed"/>
            <path id="Path_15338" data-name="Path 15338" d="M1222.417,646.081c-.077-.316.062-.565.355-.565a.69.69,0,0,1,.625.563c.077.316-.06.564-.355.565a.686.686,0,0,1-.625-.563m.731,0c-.048-.2-.182-.347-.327-.347s-.2.145-.155.348.18.347.327.347.2-.147.155-.348" transform="translate(-1148.122 -615.598)" fill="#94b0ed"/>
            <path id="Path_15339" data-name="Path 15339" d="M1345.75,646.122c-.077-.316.062-.565.355-.565a.689.689,0,0,1,.625.563c.076.316-.06.564-.355.565a.687.687,0,0,1-.625-.563m.731,0c-.048-.2-.182-.347-.327-.347s-.2.145-.155.348.18.347.327.347.2-.147.155-.348" transform="translate(-1263.961 -615.637)" fill="#94b0ed"/>
            <path id="Path_15340" data-name="Path 15340" d="M1369.864,646.081c-.077-.316.062-.565.355-.565a.689.689,0,0,1,.625.563c.077.316-.06.564-.355.565a.687.687,0,0,1-.625-.563m.731,0c-.048-.2-.182-.347-.327-.347s-.2.145-.155.348.18.347.327.347.2-.147.155-.348" transform="translate(-1286.61 -615.598)" fill="#94b0ed"/>
            <path id="Path_15341" data-name="Path 15341" d="M1393.979,646.04c-.076-.316.062-.564.355-.565a.69.69,0,0,1,.625.563c.077.316-.06.565-.355.565a.687.687,0,0,1-.625-.563m.731,0c-.048-.2-.182-.347-.327-.347s-.2.145-.155.348.18.347.327.347.2-.147.155-.348" transform="translate(-1309.26 -615.56)" fill="#94b0ed"/>
            <path id="Path_15342" data-name="Path 15342" d="M1561.632,645.631c-.077-.316.062-.565.355-.565a.69.69,0,0,1,.625.563c.077.316-.06.564-.355.565a.687.687,0,0,1-.625-.563m.731,0c-.048-.2-.182-.347-.327-.347s-.2.145-.155.348.18.347.327.347.2-.147.155-.348" transform="translate(-1466.726 -615.176)" fill="#94b0ed"/>
            <path id="Path_15343" data-name="Path 15343" d="M1584.711,645.592c-.077-.316.062-.564.355-.565a.69.69,0,0,1,.625.563c.077.316-.06.565-.355.565a.687.687,0,0,1-.625-.563m.731,0c-.048-.2-.182-.347-.327-.347s-.2.145-.155.348.18.347.327.347.2-.147.156-.348" transform="translate(-1488.403 -615.139)" fill="#94b0ed"/>
            <path id="Path_15344" data-name="Path 15344" d="M1609.812,645.55c-.077-.316.062-.564.355-.565a.689.689,0,0,1,.625.563c.077.316-.06.565-.355.565a.686.686,0,0,1-.625-.563m.731,0c-.048-.2-.182-.347-.327-.347s-.2.145-.155.348.18.347.327.347.2-.147.155-.348" transform="translate(-1511.978 -615.1)" fill="#94b0ed"/>
            <path id="Path_15345" data-name="Path 15345" d="M1650.808,645.481c-.077-.316.062-.564.355-.565a.69.69,0,0,1,.625.563c.076.316-.06.565-.355.565a.686.686,0,0,1-.625-.563m.731,0c-.048-.2-.182-.347-.327-.347s-.2.145-.155.348.18.347.327.347.2-.147.155-.348" transform="translate(-1550.483 -615.035)" fill="#94b0ed"/>
            <path id="Path_15346" data-name="Path 15346" d="M1672.784,645.3l-.181.047-.1-.2.294-.094h.166l.266,1.1h-.239Z" transform="translate(-1570.882 -615.166)" fill="#94b0ed"/>
            <path id="Path_15347" data-name="Path 15347" d="M1690.922,645.413c-.077-.316.062-.565.355-.565a.689.689,0,0,1,.625.563c.077.316-.06.564-.355.565a.687.687,0,0,1-.625-.563m.731,0c-.048-.2-.182-.347-.327-.347s-.2.145-.155.348.18.347.327.347.2-.147.155-.348" transform="translate(-1588.16 -614.971)" fill="#94b0ed"/>
            <path id="Path_15348" data-name="Path 15348" d="M1731.107,645.3c-.077-.316.062-.564.355-.565a.69.69,0,0,1,.625.563c.076.316-.06.564-.355.565a.687.687,0,0,1-.625-.563m.731,0c-.048-.2-.182-.347-.327-.347s-.2.145-.156.348.18.347.327.347.2-.147.155-.348" transform="translate(-1625.904 -614.87)" fill="#94b0ed"/>
            <path id="Path_15349" data-name="Path 15349" d="M1035.665,685.538c-.077-.316.062-.564.355-.565a.69.69,0,0,1,.625.563c.077.316-.06.565-.355.565a.687.687,0,0,1-.625-.563m.731,0c-.048-.2-.182-.347-.327-.347s-.2.145-.155.348.18.347.327.347.2-.147.155-.348" transform="translate(-972.717 -652.658)" fill="#94b0ed"/>
            <path id="Path_15350" data-name="Path 15350" d="M1059.781,685.5c-.077-.316.062-.564.355-.565a.689.689,0,0,1,.625.563c.077.316-.06.564-.355.565a.687.687,0,0,1-.625-.563m.731,0c-.048-.2-.182-.347-.327-.347s-.2.145-.155.348.18.347.327.347.2-.147.155-.348" transform="translate(-995.368 -652.621)" fill="#94b0ed"/>
            <path id="Path_15351" data-name="Path 15351" d="M1660.271,684.563c-.077-.316.062-.564.355-.565a.689.689,0,0,1,.625.563c.077.316-.06.564-.355.565a.686.686,0,0,1-.625-.563m.731,0c-.048-.2-.182-.347-.327-.347s-.2.145-.155.348.18.347.327.347.2-.147.155-.348" transform="translate(-1559.371 -651.742)" fill="#94b0ed"/>
            <path id="Path_15352" data-name="Path 15352" d="M1682.247,684.381l-.181.047-.1-.2.294-.094h.166l.266,1.1h-.24Z" transform="translate(-1579.77 -651.874)" fill="#94b0ed"/>
            <path id="Path_15353" data-name="Path 15353" d="M1700.385,684.5c-.077-.316.062-.565.355-.565a.689.689,0,0,1,.625.563c.077.316-.06.564-.355.565a.686.686,0,0,1-.625-.563m.731,0c-.048-.2-.182-.347-.327-.347s-.2.145-.155.348.18.347.327.347.2-.147.155-.348" transform="translate(-1597.048 -651.678)" fill="#94b0ed"/>
            <path id="Path_15354" data-name="Path 15354" d="M1788.8,684.306c-.077-.316.062-.565.355-.565a.69.69,0,0,1,.625.563c.076.316-.06.565-.355.565a.687.687,0,0,1-.625-.563m.731,0c-.048-.2-.182-.347-.327-.347s-.2.145-.156.348.18.347.327.347.2-.147.155-.348" transform="translate(-1680.093 -651.501)" fill="#94b0ed"/>
            <path id="Path_15355" data-name="Path 15355" d="M1810.778,684.125l-.181.047-.1-.2.294-.094h.165l.266,1.1h-.24Z" transform="translate(-1700.491 -651.633)" fill="#94b0ed"/>
            <path id="Path_15356" data-name="Path 15356" d="M1015.377,896.54c-.077-.316.062-.565.355-.565a.689.689,0,0,1,.625.563c.077.316-.06.564-.355.565a.687.687,0,0,1-.625-.563m.731,0c-.048-.2-.182-.347-.327-.347s-.2.145-.155.348.18.347.327.347.2-.147.155-.348" transform="translate(-953.662 -850.839)" fill="#94b0ed"/>
            <path id="Path_15357" data-name="Path 15357" d="M1039.492,896.5c-.077-.316.062-.565.355-.565a.689.689,0,0,1,.625.563c.077.316-.06.565-.355.565a.686.686,0,0,1-.625-.563m.731,0c-.048-.2-.182-.347-.327-.347s-.2.145-.155.348.18.347.327.347.2-.147.156-.348" transform="translate(-976.312 -850.802)" fill="#94b0ed"/>
            <path id="Path_15358" data-name="Path 15358" d="M1061.469,896.319l-.181.047-.1-.2.294-.094h.166l.266,1.1h-.24Z" transform="translate(-996.711 -850.934)" fill="#94b0ed"/>
            <path id="Path_15359" data-name="Path 15359" d="M1103.723,896.392c-.077-.316.062-.565.355-.565a.69.69,0,0,1,.625.563c.076.316-.06.564-.355.565a.687.687,0,0,1-.625-.563m.731,0c-.048-.2-.182-.347-.327-.347s-.2.145-.155.348.18.347.327.347.2-.147.155-.348" transform="translate(-1036.64 -850.7)" fill="#94b0ed"/>
            <path id="Path_15360" data-name="Path 15360" d="M1127.837,896.351c-.076-.316.062-.565.355-.565a.689.689,0,0,1,.625.563c.077.316-.06.564-.355.565a.687.687,0,0,1-.625-.563m.731,0c-.048-.2-.182-.347-.327-.347s-.2.145-.155.348.18.347.327.347.2-.147.156-.348" transform="translate(-1059.289 -850.662)" fill="#94b0ed"/>
            <path id="Path_15361" data-name="Path 15361" d="M1151.954,896.311c-.077-.316.062-.565.355-.565a.689.689,0,0,1,.625.563c.076.316-.06.564-.355.565a.686.686,0,0,1-.625-.563m.731,0c-.048-.2-.182-.347-.327-.347s-.2.145-.156.348.18.347.327.347.2-.147.155-.348" transform="translate(-1081.94 -850.624)" fill="#94b0ed"/>
            <path id="Path_15362" data-name="Path 15362" d="M1453.012,896.54c-.077-.316.062-.565.355-.565a.69.69,0,0,1,.625.563c.077.316-.06.564-.355.565a.686.686,0,0,1-.625-.563m.731,0c-.048-.2-.182-.347-.327-.347s-.2.145-.156.348.18.347.327.347.2-.147.155-.348" transform="translate(-1364.706 -850.839)" fill="#94b0ed"/>
            <path id="Path_15363" data-name="Path 15363" d="M1477.126,896.5c-.077-.316.062-.565.355-.565a.689.689,0,0,1,.625.563c.077.316-.06.565-.355.565a.687.687,0,0,1-.625-.563m.731,0c-.048-.2-.182-.347-.327-.347s-.2.145-.155.348.18.347.327.347.2-.147.155-.348" transform="translate(-1387.355 -850.802)" fill="#94b0ed"/>
            <path id="Path_15364" data-name="Path 15364" d="M1499.1,896.319l-.181.047-.1-.2.294-.094h.166l.266,1.1h-.24Z" transform="translate(-1407.754 -850.934)" fill="#94b0ed"/>
            <path id="Path_15365" data-name="Path 15365" d="M1614.687,896.54c-.077-.316.062-.565.355-.565a.69.69,0,0,1,.625.563c.076.316-.061.564-.355.565a.687.687,0,0,1-.625-.563m.731,0c-.048-.2-.182-.347-.327-.347s-.2.145-.155.348.18.347.327.347.2-.147.155-.348" transform="translate(-1516.557 -850.839)" fill="#94b0ed"/>
            <path id="Path_15366" data-name="Path 15366" d="M1638.8,896.5c-.077-.316.062-.565.355-.565a.69.69,0,0,1,.625.563c.077.316-.06.565-.355.565a.686.686,0,0,1-.625-.563m.731,0c-.048-.2-.182-.347-.327-.347s-.2.145-.155.348.18.347.327.347.2-.147.155-.348" transform="translate(-1539.207 -850.802)" fill="#94b0ed"/>
            <path id="Path_15367" data-name="Path 15367" d="M1660.777,896.319l-.181.047-.1-.2.294-.094h.165l.266,1.1h-.239Z" transform="translate(-1559.605 -850.934)" fill="#94b0ed"/>
            <path id="Path_15368" data-name="Path 15368" d="M1541.356,896.392c-.077-.316.062-.565.355-.565a.689.689,0,0,1,.625.563c.077.316-.06.564-.355.565a.687.687,0,0,1-.625-.563m.731,0c-.048-.2-.182-.347-.327-.347s-.2.145-.155.348.18.347.327.347.2-.147.156-.348" transform="translate(-1447.682 -850.7)" fill="#94b0ed"/>
            <path id="Path_15369" data-name="Path 15369" d="M1565.472,896.351c-.077-.316.062-.565.355-.565a.69.69,0,0,1,.625.563c.077.316-.06.564-.355.565a.687.687,0,0,1-.625-.563m.731,0c-.048-.2-.182-.347-.327-.347s-.2.145-.155.348.18.347.327.347.2-.147.155-.348" transform="translate(-1470.333 -850.662)" fill="#94b0ed"/>
            <path id="Path_15370" data-name="Path 15370" d="M1589.587,896.311c-.077-.316.062-.565.355-.565a.69.69,0,0,1,.625.563c.077.316-.06.564-.355.565a.686.686,0,0,1-.625-.563m.731,0c-.048-.2-.182-.347-.327-.347s-.2.145-.155.348.18.347.327.347.2-.147.155-.348" transform="translate(-1492.983 -850.624)" fill="#94b0ed"/>
            <path id="Path_15371" data-name="Path 15371" d="M1234.427,895.9c-.077-.316.062-.565.355-.565a.69.69,0,0,1,.625.563c.077.316-.06.564-.355.565a.687.687,0,0,1-.625-.563m.731,0c-.048-.2-.182-.348-.327-.347s-.2.145-.155.348.18.347.327.347.2-.147.156-.348" transform="translate(-1159.402 -850.243)" fill="#94b0ed"/>
            <path id="Path_15372" data-name="Path 15372" d="M1256.4,895.723l-.181.047-.1-.2.294-.094h.165l.266,1.1h-.24Z" transform="translate(-1179.801 -850.374)" fill="#94b0ed"/>
            <path id="Path_15373" data-name="Path 15373" d="M1274.542,895.837c-.077-.316.062-.564.355-.565a.69.69,0,0,1,.625.563c.076.316-.061.565-.355.565a.687.687,0,0,1-.625-.563m.731,0c-.048-.2-.182-.347-.327-.347s-.2.145-.155.348.18.347.327.347.2-.147.155-.348" transform="translate(-1197.08 -850.179)" fill="#94b0ed"/>
            <path id="Path_15374" data-name="Path 15374" d="M1751.518,895.336c-.077-.316.062-.565.355-.565a.69.69,0,0,1,.625.563c.077.316-.06.564-.355.565a.686.686,0,0,1-.625-.563m.731,0c-.048-.2-.182-.347-.327-.347s-.2.145-.155.348.18.347.327.347.2-.147.155-.348" transform="translate(-1645.074 -849.708)" fill="#94b0ed"/>
            <path id="Path_15375" data-name="Path 15375" d="M1773.494,895.155l-.181.047-.1-.2.294-.094h.166l.266,1.1h-.24Z" transform="translate(-1665.473 -849.84)" fill="#94b0ed"/>
            <path id="Path_15376" data-name="Path 15376" d="M1791.632,895.269c-.077-.316.062-.564.355-.565a.69.69,0,0,1,.625.563c.077.316-.06.565-.355.565a.687.687,0,0,1-.625-.563m.731,0c-.048-.2-.182-.347-.327-.347s-.2.145-.155.348.18.347.326.347.2-.147.155-.348" transform="translate(-1682.751 -849.646)" fill="#94b0ed"/>
            <path id="Path_15377" data-name="Path 15377" d="M868.736,731.094l-.181.047-.1-.2.294-.094h.166l.266,1.1h-.239Z" transform="translate(-815.689 -695.747)" fill="#94b0ed"/>
            <path id="Path_15378" data-name="Path 15378" d="M886.873,731.207c-.077-.316.062-.564.355-.565a.69.69,0,0,1,.625.563c.077.316-.06.565-.355.565a.686.686,0,0,1-.625-.563m.731,0c-.048-.2-.182-.347-.327-.347s-.2.145-.155.348.18.347.327.347.2-.147.155-.348" transform="translate(-832.966 -695.552)" fill="#94b0ed"/>
            <path id="Path_15379" data-name="Path 15379" d="M1023.449,730.977c-.077-.317.062-.565.355-.565a.69.69,0,0,1,.625.563c.077.316-.06.564-.355.565a.687.687,0,0,1-.625-.563m.731,0c-.048-.2-.182-.347-.327-.347s-.2.145-.156.348.18.347.327.347.2-.147.155-.348" transform="translate(-961.244 -695.336)" fill="#94b0ed"/>
            <path id="Path_15380" data-name="Path 15380" d="M1047.564,730.936c-.077-.316.062-.565.355-.565a.689.689,0,0,1,.625.563c.077.316-.06.564-.355.565a.687.687,0,0,1-.625-.563m.731,0c-.048-.2-.182-.347-.327-.347s-.2.145-.155.348.18.347.327.347.2-.147.155-.348" transform="translate(-983.894 -695.298)" fill="#94b0ed"/>
            <path id="Path_15381" data-name="Path 15381" d="M1071.68,730.9c-.076-.316.062-.564.355-.565a.689.689,0,0,1,.625.563c.077.316-.06.564-.355.565a.687.687,0,0,1-.625-.563m.731,0c-.048-.2-.182-.347-.327-.347s-.2.145-.155.348.18.347.327.347.2-.147.156-.348" transform="translate(-1006.544 -695.26)" fill="#94b0ed"/>
            <path id="Path_15382" data-name="Path 15382" d="M1093.657,730.715l-.181.047-.1-.2.294-.094h.166l.266,1.1h-.24Z" transform="translate(-1026.943 -695.392)" fill="#94b0ed"/>
            <path id="Path_15383" data-name="Path 15383" d="M1109.785,730.688l-.181.047-.1-.2.294-.094h.166l.266,1.1h-.24Z" transform="translate(-1042.091 -695.367)" fill="#94b0ed"/>
            <path id="Path_15384" data-name="Path 15384" d="M1127.923,730.8c-.076-.316.062-.565.355-.565a.69.69,0,0,1,.625.563c.076.316-.06.564-.355.565a.687.687,0,0,1-.625-.563m.731,0c-.048-.2-.182-.347-.327-.347s-.2.145-.155.348.18.347.327.347.2-.147.155-.348" transform="translate(-1059.37 -695.171)" fill="#94b0ed"/>
            <path id="Path_15385" data-name="Path 15385" d="M1751.562,729.787c-.077-.316.062-.564.355-.565a.69.69,0,0,1,.625.563c.077.316-.06.564-.355.565a.687.687,0,0,1-.625-.563m.731,0c-.048-.2-.182-.347-.327-.347s-.2.145-.155.348.18.347.327.347.2-.147.156-.348" transform="translate(-1645.116 -694.219)" fill="#f99746"/>
            <path id="Path_15386" data-name="Path 15386" d="M1775.679,729.746c-.077-.316.062-.564.355-.565a.69.69,0,0,1,.625.563c.076.316-.061.564-.355.565a.687.687,0,0,1-.625-.563m.731,0c-.048-.2-.182-.347-.327-.347s-.2.145-.156.348.18.347.327.347.2-.147.155-.348" transform="translate(-1667.767 -694.18)" fill="#f99746"/>
            <path id="Path_15387" data-name="Path 15387" d="M1799.794,729.705c-.077-.316.062-.565.355-.565a.689.689,0,0,1,.625.563c.077.316-.06.564-.355.565a.687.687,0,0,1-.625-.563m.731,0c-.048-.2-.182-.347-.327-.347s-.2.145-.155.348.18.347.327.347.2-.147.156-.348" transform="translate(-1690.417 -694.141)" fill="#94b0ed"/>
            <path id="Path_15388" data-name="Path 15388" d="M1821.771,729.524l-.181.047-.1-.2.294-.094h.166l.266,1.1h-.24Z" transform="translate(-1710.816 -694.273)" fill="#94b0ed"/>
            <path id="Path_15389" data-name="Path 15389" d="M879.728,776.493l-.181.047-.1-.2.294-.094h.165l.266,1.1h-.24Z" transform="translate(-826.013 -738.388)" fill="#94b0ed"/>
            <path id="Path_15390" data-name="Path 15390" d="M897.866,776.607c-.077-.316.062-.564.355-.565a.69.69,0,0,1,.625.563c.077.316-.06.564-.355.565a.686.686,0,0,1-.625-.563m.731,0c-.048-.2-.182-.347-.327-.347s-.2.145-.155.348.18.347.327.347.2-.147.155-.348" transform="translate(-843.291 -738.194)" fill="#94b0ed"/>
            <path id="Path_15391" data-name="Path 15391" d="M1010.327,776.417c-.077-.316.062-.565.355-.565a.69.69,0,0,1,.625.563c.077.316-.06.564-.355.565a.687.687,0,0,1-.625-.563m.731,0c-.048-.2-.182-.347-.327-.347s-.2.145-.155.348.18.347.327.347.2-.147.155-.348" transform="translate(-948.919 -738.015)" fill="#94b0ed"/>
            <path id="Path_15392" data-name="Path 15392" d="M1034.443,776.376c-.077-.316.062-.564.355-.565a.69.69,0,0,1,.625.563c.076.316-.06.565-.355.565a.687.687,0,0,1-.625-.563m.731,0c-.048-.2-.182-.347-.327-.347s-.2.145-.155.348.18.347.327.347.2-.147.156-.348" transform="translate(-971.569 -737.977)" fill="#94b0ed"/>
            <path id="Path_15393" data-name="Path 15393" d="M942.983,864.263c-.077-.316.062-.565.355-.565a.69.69,0,0,1,.625.563c.077.316-.06.564-.355.565a.687.687,0,0,1-.625-.563m.731,0c-.048-.2-.182-.347-.327-.347s-.2.145-.155.348.18.347.327.347.2-.147.155-.348" transform="translate(-885.667 -820.524)" fill="#f99746"/>
            <path id="Path_15394" data-name="Path 15394" d="M964.96,864.082l-.181.047-.1-.2.294-.094h.165l.266,1.1h-.24Z" transform="translate(-906.066 -820.655)" fill="#f99746"/>
            <path id="Path_15395" data-name="Path 15395" d="M889.737,818.791l-.181.047-.1-.2.294-.094h.165l.266,1.1h-.24Z" transform="translate(-835.414 -778.116)" fill="#94b0ed"/>
            <path id="Path_15396" data-name="Path 15396" d="M907.875,818.905c-.077-.316.062-.565.355-.565a.69.69,0,0,1,.625.563c.077.316-.06.564-.355.565a.687.687,0,0,1-.625-.563m.731,0c-.048-.2-.182-.347-.327-.347s-.2.145-.155.348.18.347.327.347.2-.147.155-.348" transform="translate(-852.692 -777.922)" fill="#94b0ed"/>
            <path id="Path_15397" data-name="Path 15397" d="M931.991,818.864c-.077-.316.062-.565.355-.565a.689.689,0,0,1,.625.563c.077.316-.06.564-.355.565a.687.687,0,0,1-.625-.563m.731,0c-.048-.2-.182-.347-.327-.347s-.2.145-.155.348.18.347.327.347.2-.147.155-.348" transform="translate(-875.342 -777.883)" fill="#94b0ed"/>
            <path id="Path_15398" data-name="Path 15398" d="M953.968,818.682l-.181.047-.1-.2.294-.094h.166l.266,1.1h-.239Z" transform="translate(-895.742 -778.014)" fill="#94b0ed"/>
            <path id="Path_15399" data-name="Path 15399" d="M972.106,818.8c-.077-.316.062-.565.355-.565a.69.69,0,0,1,.625.563c.077.316-.06.565-.355.565a.687.687,0,0,1-.625-.563m.731,0c-.048-.2-.182-.347-.327-.347s-.2.145-.155.348.18.347.327.347.2-.147.155-.348" transform="translate(-913.02 -777.819)" fill="#94b0ed"/>
            <path id="Path_15400" data-name="Path 15400" d="M996.221,818.755c-.077-.316.062-.564.355-.565a.69.69,0,0,1,.625.563c.077.316-.06.564-.355.565a.687.687,0,0,1-.625-.563m.731,0c-.048-.2-.182-.347-.327-.347s-.2.145-.155.348.18.347.327.347.2-.147.155-.348" transform="translate(-935.67 -777.781)" fill="#94b0ed"/>
            <path id="Path_15401" data-name="Path 15401" d="M1020.336,818.715c-.077-.316.062-.564.355-.565a.69.69,0,0,1,.625.563c.077.316-.06.564-.355.565a.687.687,0,0,1-.625-.563m.731,0c-.048-.2-.182-.347-.327-.347s-.2.145-.155.348.18.347.327.347.2-.147.155-.348" transform="translate(-958.32 -777.743)" fill="#94b0ed"/>
            <path id="Path_15402" data-name="Path 15402" d="M1044.451,818.674c-.077-.316.062-.565.355-.565a.69.69,0,0,1,.625.563c.077.316-.06.564-.355.565a.687.687,0,0,1-.625-.563m.731,0c-.048-.2-.182-.347-.327-.347s-.2.145-.155.348.18.347.327.347.2-.147.156-.348" transform="translate(-980.97 -777.705)" fill="#94b0ed"/>
            <path id="Path_15403" data-name="Path 15403" d="M1068.566,818.634c-.076-.316.062-.564.355-.565a.689.689,0,0,1,.625.563c.077.316-.06.564-.355.565a.687.687,0,0,1-.625-.563m.731,0c-.048-.2-.182-.347-.327-.347s-.2.145-.155.348.18.347.327.347.2-.147.155-.348" transform="translate(-1003.62 -777.667)" fill="#94b0ed"/>
            <path id="Path_15404" data-name="Path 15404" d="M1092.683,818.593c-.077-.316.062-.564.355-.565a.69.69,0,0,1,.625.563c.077.316-.06.564-.355.565a.687.687,0,0,1-.625-.563m.731,0c-.048-.2-.182-.347-.327-.347s-.2.145-.155.348.18.347.327.347.2-.147.155-.348" transform="translate(-1026.271 -777.628)" fill="#94b0ed"/>
            <path id="Path_15405" data-name="Path 15405" d="M1114.66,818.412l-.181.047-.1-.2.294-.094h.165l.266,1.1h-.24Z" transform="translate(-1046.67 -777.76)" fill="#94b0ed"/>
            <path id="Path_15406" data-name="Path 15406" d="M1130.788,818.385l-.181.047-.1-.2.294-.094h.165l.266,1.1H1131Z" transform="translate(-1061.818 -777.735)" fill="#94b0ed"/>
            <path id="Path_15407" data-name="Path 15407" d="M1148.927,818.5c-.077-.316.062-.564.355-.565a.69.69,0,0,1,.625.563c.077.316-.06.564-.355.565a.687.687,0,0,1-.625-.563m.731,0c-.048-.2-.182-.347-.327-.347s-.2.145-.155.348.18.347.327.347.2-.147.155-.348" transform="translate(-1079.097 -777.539)" fill="#94b0ed"/>
            <path id="Path_15408" data-name="Path 15408" d="M900.73,864.19l-.181.047-.1-.2.294-.094h.165l.266,1.1h-.24Z" transform="translate(-845.739 -820.757)" fill="#94b0ed"/>
            <path id="Path_15409" data-name="Path 15409" d="M918.869,864.3c-.077-.316.062-.565.355-.565a.689.689,0,0,1,.625.563c.077.316-.06.564-.355.565a.687.687,0,0,1-.625-.563m.731,0c-.048-.2-.182-.347-.327-.347s-.2.145-.155.348.18.347.327.347.2-.147.155-.348" transform="translate(-863.018 -820.562)" fill="#94b0ed"/>
            <path id="Path_15410" data-name="Path 15410" d="M983.1,864.2c-.077-.316.062-.564.355-.565a.689.689,0,0,1,.625.563c.077.316-.06.564-.355.565a.687.687,0,0,1-.625-.563m.731,0c-.048-.2-.182-.347-.327-.347s-.2.145-.155.348.18.347.327.347.2-.147.155-.348" transform="translate(-923.345 -820.461)" fill="#94b0ed"/>
            <path id="Path_15411" data-name="Path 15411" d="M1007.214,864.155c-.077-.316.062-.564.355-.565a.69.69,0,0,1,.625.563c.077.316-.06.564-.355.565a.687.687,0,0,1-.625-.563m.731,0c-.048-.2-.182-.347-.327-.347s-.2.145-.155.348.18.347.327.347.2-.147.155-.348" transform="translate(-945.995 -820.422)" fill="#94b0ed"/>
            <path id="Path_15412" data-name="Path 15412" d="M964.308,964.927c-.077-.316.062-.564.355-.565a.689.689,0,0,1,.625.563c.077.316-.06.564-.355.565a.687.687,0,0,1-.625-.563m.731,0c-.048-.2-.182-.347-.327-.347s-.2.145-.155.348.18.347.327.347.2-.147.155-.348" transform="translate(-905.696 -915.071)" fill="#94b0ed"/>
            <path id="Path_15413" data-name="Path 15413" d="M986.286,964.746l-.181.047-.1-.2.294-.094h.166l.266,1.1h-.24Z" transform="translate(-926.096 -915.203)" fill="#94b0ed"/>
            <path id="Path_15414" data-name="Path 15414" d="M922.055,964.854l-.181.047-.1-.2.294-.094h.165l.266,1.1h-.24Z" transform="translate(-865.768 -915.305)" fill="#94b0ed"/>
            <path id="Path_15415" data-name="Path 15415" d="M940.193,964.967c-.077-.316.062-.564.355-.565a.69.69,0,0,1,.625.563c.076.316-.06.564-.355.565a.687.687,0,0,1-.625-.563m.731,0c-.048-.2-.182-.347-.327-.347s-.2.145-.155.348.18.347.327.347.2-.147.155-.348" transform="translate(-883.046 -915.109)" fill="#94b0ed"/>
            <path id="Path_15416" data-name="Path 15416" d="M1004.423,964.86c-.077-.316.062-.565.355-.565a.689.689,0,0,1,.625.563c.077.316-.06.564-.355.565a.687.687,0,0,1-.625-.563m.731,0c-.048-.2-.182-.347-.327-.347s-.2.145-.155.348.18.347.327.347.2-.147.155-.348" transform="translate(-943.374 -915.008)" fill="#f99746"/>
            <path id="Path_15417" data-name="Path 15417" d="M1028.538,964.819c-.077-.316.062-.564.355-.565a.69.69,0,0,1,.625.563c.077.316-.06.564-.355.565a.687.687,0,0,1-.625-.563m.731,0c-.048-.2-.182-.347-.327-.347s-.2.145-.155.348.18.347.327.347.2-.147.155-.348" transform="translate(-966.023 -914.97)" fill="#f99746"/>
            <path id="Path_15418" data-name="Path 15418" d="M934.512,997.307c-.077-.316.062-.564.355-.565a.69.69,0,0,1,.625.563c.076.316-.06.565-.355.565a.687.687,0,0,1-.625-.563m.731,0c-.048-.2-.182-.347-.327-.347s-.2.145-.155.348.18.347.327.347.2-.147.155-.348" transform="translate(-877.71 -945.484)" fill="#94b0ed"/>
            <path id="Path_15419" data-name="Path 15419" d="M956.488,997.126l-.181.047-.1-.2.294-.094h.166l.266,1.1H956.7Z" transform="translate(-898.109 -945.615)" fill="#94b0ed"/>
            <path id="Path_15420" data-name="Path 15420" d="M974.627,997.24c-.077-.317.062-.565.355-.565a.689.689,0,0,1,.625.563c.077.316-.06.564-.355.565a.687.687,0,0,1-.625-.563m.731,0c-.048-.2-.182-.347-.327-.347s-.2.145-.155.348.18.347.327.347.2-.147.155-.348" transform="translate(-915.388 -945.421)" fill="#94b0ed"/>
            <path id="Path_15421" data-name="Path 15421" d="M998.741,997.2c-.077-.316.062-.565.355-.565a.69.69,0,0,1,.625.563c.077.316-.06.564-.355.565a.687.687,0,0,1-.625-.563m.731,0c-.048-.2-.182-.347-.327-.347s-.2.145-.155.348.18.347.327.347.2-.147.155-.348" transform="translate(-938.037 -945.383)" fill="#94b0ed"/>
            <path id="Path_15422" data-name="Path 15422" d="M1031.329,864.115c-.076-.316.062-.564.355-.565a.689.689,0,0,1,.625.563c.077.316-.06.565-.355.565a.687.687,0,0,1-.625-.563m.731,0c-.048-.2-.182-.347-.327-.347s-.2.145-.155.348.18.347.327.347.2-.147.155-.348" transform="translate(-968.645 -820.385)" fill="#94b0ed"/>
            <path id="Path_15423" data-name="Path 15423" d="M1055.445,864.074c-.077-.316.062-.565.355-.565a.689.689,0,0,1,.625.563c.077.316-.06.564-.355.565a.687.687,0,0,1-.625-.563m.731,0c-.048-.2-.182-.347-.327-.347s-.2.145-.155.348.18.347.327.347.2-.147.156-.348" transform="translate(-991.295 -820.346)" fill="#94b0ed"/>
            <path id="Path_15424" data-name="Path 15424" d="M994.935,1082.057c-.077-.316.062-.564.355-.565a.69.69,0,0,1,.625.563c.077.316-.06.565-.355.565a.686.686,0,0,1-.625-.563m.731,0c-.048-.2-.182-.347-.327-.347s-.2.146-.155.348.18.347.327.347.2-.147.155-.348" transform="translate(-934.463 -1025.084)" fill="#f99746"/>
            <path id="Path_15425" data-name="Path 15425" d="M1016.912,1081.876l-.181.047-.1-.2.294-.094h.166l.266,1.1h-.24Z" transform="translate(-954.861 -1025.216)" fill="#f99746"/>
            <path id="Path_15426" data-name="Path 15426" d="M941.689,1036.584l-.181.047-.1-.2.294-.094h.165l.266,1.1H941.9Z" transform="translate(-884.209 -982.676)" fill="#94b0ed"/>
            <path id="Path_15427" data-name="Path 15427" d="M959.827,1036.7c-.077-.316.062-.565.355-.565a.689.689,0,0,1,.625.563c.077.316-.06.564-.355.565a.687.687,0,0,1-.625-.563m.731,0c-.048-.2-.182-.347-.327-.347s-.2.145-.155.348.18.347.327.347.2-.147.155-.348" transform="translate(-901.488 -982.481)" fill="#94b0ed"/>
            <path id="Path_15428" data-name="Path 15428" d="M983.943,1036.658c-.077-.316.062-.565.355-.565a.689.689,0,0,1,.625.563c.077.316-.06.564-.355.565a.687.687,0,0,1-.625-.563m.731,0c-.048-.2-.182-.347-.327-.347s-.2.146-.155.348.18.347.327.347.2-.147.155-.348" transform="translate(-924.138 -982.444)" fill="#94b0ed"/>
            <path id="Path_15429" data-name="Path 15429" d="M1005.92,1036.476l-.181.047-.1-.2.294-.094h.166l.266,1.1h-.239Z" transform="translate(-944.538 -982.575)" fill="#94b0ed"/>
            <path id="Path_15430" data-name="Path 15430" d="M952.682,1081.983l-.181.047-.1-.2.294-.094h.165l.266,1.1h-.24Z" transform="translate(-894.534 -1025.317)" fill="#94b0ed"/>
            <path id="Path_15431" data-name="Path 15431" d="M970.82,1082.1c-.077-.316.062-.565.355-.565a.69.69,0,0,1,.625.563c.077.316-.06.564-.355.565a.687.687,0,0,1-.625-.563m.731,0c-.048-.2-.182-.347-.327-.347s-.2.145-.155.348.18.347.327.347.2-.147.155-.348" transform="translate(-911.813 -1025.122)" fill="#94b0ed"/>
            <path id="Path_15432" data-name="Path 15432" d="M1035.05,1081.989c-.077-.316.062-.564.355-.565a.69.69,0,0,1,.625.563c.077.316-.06.564-.355.565a.687.687,0,0,1-.625-.563m.731,0c-.048-.2-.182-.347-.327-.347s-.2.145-.155.348.18.347.327.347.2-.147.155-.348" transform="translate(-972.14 -1025.02)" fill="#94b0ed"/>
            <path id="Path_15433" data-name="Path 15433" d="M1059.165,1081.949c-.077-.316.062-.565.355-.565a.69.69,0,0,1,.625.563c.077.316-.06.564-.355.565a.687.687,0,0,1-.625-.563m.731,0c-.048-.2-.182-.347-.327-.347s-.2.145-.155.348.18.347.327.347.2-.147.156-.348" transform="translate(-994.79 -1024.983)" fill="#94b0ed"/>
            <path id="Path_15434" data-name="Path 15434" d="M1004.235,1114.111c-.077-.316.062-.564.355-.565a.689.689,0,0,1,.625.563c.077.316-.06.564-.355.565a.687.687,0,0,1-.625-.563m.731,0c-.048-.2-.182-.347-.327-.347s-.2.145-.155.348.18.347.327.347.2-.147.155-.348" transform="translate(-943.197 -1055.191)" fill="#f99746"/>
            <path id="Path_15435" data-name="Path 15435" d="M1026.211,1113.929l-.181.047-.1-.2.294-.094h.166l.266,1.1h-.24Z" transform="translate(-963.595 -1055.322)" fill="#f99746"/>
            <path id="Path_15436" data-name="Path 15436" d="M980.119,1114.151c-.077-.316.062-.564.355-.565a.69.69,0,0,1,.625.563c.077.316-.06.564-.355.565a.687.687,0,0,1-.625-.563m.731,0c-.048-.2-.182-.347-.327-.347s-.2.145-.155.348.18.347.327.347.2-.147.155-.348" transform="translate(-920.546 -1055.228)" fill="#94b0ed"/>
            <path id="Path_15437" data-name="Path 15437" d="M1044.35,1114.043c-.077-.316.062-.565.355-.565a.69.69,0,0,1,.625.563c.077.316-.06.564-.355.565a.687.687,0,0,1-.625-.563m.731,0c-.048-.2-.182-.347-.327-.347s-.2.145-.155.348.18.347.327.347.2-.147.155-.348" transform="translate(-980.874 -1055.127)" fill="#94b0ed"/>
            <path id="Path_15438" data-name="Path 15438" d="M1068.465,1114c-.077-.316.062-.565.355-.565a.69.69,0,0,1,.625.563c.077.316-.06.564-.355.565a.686.686,0,0,1-.625-.563m.731,0c-.048-.2-.182-.347-.327-.347s-.2.146-.155.348.18.347.327.347.2-.147.156-.348" transform="translate(-1003.524 -1055.088)" fill="#94b0ed"/>
            <path id="Path_15439" data-name="Path 15439" d="M1083.281,1081.908c-.076-.316.062-.565.355-.565a.689.689,0,0,1,.625.563c.077.316-.06.564-.355.565a.687.687,0,0,1-.625-.563m.731,0c-.048-.2-.182-.347-.327-.347s-.2.145-.155.348.18.347.327.347.2-.147.156-.348" transform="translate(-1017.441 -1024.944)" fill="#94b0ed"/>
            <path id="Path_15440" data-name="Path 15440" d="M1107.4,1081.868c-.077-.316.062-.564.355-.565a.69.69,0,0,1,.625.563c.077.316-.06.565-.355.565a.687.687,0,0,1-.625-.563m.731,0c-.048-.2-.182-.347-.327-.347s-.2.145-.155.348.18.348.327.347.2-.147.156-.348" transform="translate(-1040.09 -1024.907)" fill="#94b0ed"/>
            <path id="Path_15441" data-name="Path 15441" d="M1744.418,775.073l-.181.047-.1-.2.294-.094h.166l.266,1.1h-.24Z" transform="translate(-1638.163 -737.054)" fill="#94b0ed"/>
            <path id="Path_15442" data-name="Path 15442" d="M1762.556,775.186c-.077-.316.062-.564.355-.565a.69.69,0,0,1,.625.563c.077.316-.06.565-.355.565a.687.687,0,0,1-.625-.563m.731,0c-.048-.2-.182-.347-.327-.347s-.2.145-.156.348.18.347.327.347.2-.147.155-.348" transform="translate(-1655.442 -736.859)" fill="#94b0ed"/>
            <path id="Path_15443" data-name="Path 15443" d="M1786.671,775.145c-.077-.316.062-.564.355-.565a.69.69,0,0,1,.625.563c.077.316-.06.565-.355.565a.687.687,0,0,1-.625-.563m.731,0c-.048-.2-.182-.347-.327-.347s-.2.145-.155.348.18.347.327.347.2-.147.155-.348" transform="translate(-1678.092 -736.82)" fill="#94b0ed"/>
            <path id="Path_15444" data-name="Path 15444" d="M1810.787,775.1c-.077-.316.062-.564.355-.565a.69.69,0,0,1,.625.563c.077.316-.06.564-.355.565a.687.687,0,0,1-.625-.563m.731,0c-.048-.2-.182-.347-.327-.347s-.2.145-.155.348.18.347.327.347.2-.147.156-.348" transform="translate(-1700.742 -736.783)" fill="#94b0ed"/>
            <path id="Path_15445" data-name="Path 15445" d="M1832.764,774.924l-.181.047-.1-.2.294-.094h.166l.266,1.1h-.24Z" transform="translate(-1721.141 -736.914)" fill="#94b0ed"/>
            <path id="Path_15446" data-name="Path 15446" d="M1722.441,818.552c-.077-.316.062-.565.355-.565a.69.69,0,0,1,.625.563c.076.316-.06.564-.355.565a.687.687,0,0,1-.625-.563m.731,0c-.048-.2-.182-.347-.327-.347s-.2.145-.155.348.18.347.327.347.2-.147.155-.348" transform="translate(-1617.764 -777.59)" fill="#94b0ed"/>
            <path id="Path_15447" data-name="Path 15447" d="M1744.418,818.371l-.181.047-.1-.2.294-.094h.166l.266,1.1h-.24Z" transform="translate(-1638.163 -777.722)" fill="#94b0ed"/>
            <path id="Path_15448" data-name="Path 15448" d="M1762.556,818.485c-.077-.316.062-.565.355-.565a.69.69,0,0,1,.625.563c.077.316-.06.565-.355.565a.687.687,0,0,1-.625-.563m.731,0c-.048-.2-.182-.347-.327-.347s-.2.145-.156.348.18.347.327.347.2-.147.155-.348" transform="translate(-1655.442 -777.527)" fill="#f99746"/>
            <path id="Path_15449" data-name="Path 15449" d="M1786.671,818.444c-.077-.316.062-.564.355-.565a.689.689,0,0,1,.625.563c.077.316-.06.565-.355.565a.687.687,0,0,1-.625-.563m.731,0c-.048-.2-.182-.347-.327-.347s-.2.145-.155.348.18.347.327.347.2-.147.155-.348" transform="translate(-1678.092 -777.489)" fill="#f99746"/>
            <path id="Path_15450" data-name="Path 15450" d="M1810.787,818.4c-.077-.316.062-.564.355-.565a.69.69,0,0,1,.625.563c.077.316-.06.564-.355.565a.687.687,0,0,1-.625-.563m.731,0c-.048-.2-.182-.347-.327-.347s-.2.145-.155.348.18.347.327.347.2-.147.156-.348" transform="translate(-1700.742 -777.451)" fill="#f99746"/>
            <path id="Path_15451" data-name="Path 15451" d="M1832.764,818.223l-.181.047-.1-.2.294-.094h.166l.266,1.1h-.24Z" transform="translate(-1721.141 -777.583)" fill="#f99746"/>
            <path id="Path_15452" data-name="Path 15452" d="M1827.86,1068.4l-.181.047-.1-.2.294-.094h.165l.266,1.1h-.24Z" transform="translate(-1716.536 -1012.562)" fill="#94b0ed"/>
            <path id="Path_15453" data-name="Path 15453" d="M1846,1068.517c-.077-.316.062-.564.355-.565a.69.69,0,0,1,.625.563c.077.316-.061.564-.355.565a.687.687,0,0,1-.625-.563m.731,0c-.048-.2-.182-.347-.327-.347s-.2.145-.155.348.18.347.327.347.2-.147.155-.348" transform="translate(-1733.814 -1012.367)" fill="#94b0ed"/>
            <path id="Path_15454" data-name="Path 15454" d="M1870.114,1068.476c-.077-.316.062-.564.355-.565a.69.69,0,0,1,.625.563c.076.316-.06.564-.355.565a.686.686,0,0,1-.625-.563m.731,0c-.048-.2-.182-.347-.327-.347s-.2.145-.156.348.18.347.327.347.2-.147.155-.348" transform="translate(-1756.465 -1012.328)" fill="#94b0ed"/>
            <path id="Path_15455" data-name="Path 15455" d="M1804.167,1097.835l-.181.047-.1-.2.294-.094h.166l.266,1.1h-.24Z" transform="translate(-1694.282 -1040.205)" fill="#94b0ed"/>
            <path id="Path_15456" data-name="Path 15456" d="M1822.306,1097.949c-.077-.317.062-.565.355-.565a.69.69,0,0,1,.625.563c.077.316-.06.564-.355.565a.687.687,0,0,1-.625-.563m.731,0c-.048-.2-.182-.347-.327-.347s-.2.145-.155.348.18.347.327.347.2-.147.155-.348" transform="translate(-1711.561 -1040.011)" fill="#94b0ed"/>
            <path id="Path_15457" data-name="Path 15457" d="M1846.421,1097.909c-.077-.316.062-.565.355-.565a.69.69,0,0,1,.625.563c.076.316-.06.564-.355.565a.686.686,0,0,1-.625-.563m.731,0c-.048-.2-.182-.347-.327-.347s-.2.146-.155.348.18.347.327.347.2-.147.155-.348" transform="translate(-1734.211 -1039.973)" fill="#94b0ed"/>
            <path id="Path_15458" data-name="Path 15458" d="M1894.23,1068.436c-.077-.316.062-.564.355-.565a.689.689,0,0,1,.625.563c.077.316-.06.564-.355.565a.686.686,0,0,1-.625-.563m.731,0c-.048-.2-.182-.347-.327-.347s-.2.146-.155.348.18.347.327.347.2-.147.156-.348" transform="translate(-1779.115 -1012.291)" fill="#94b0ed"/>
            <path id="Path_15459" data-name="Path 15459" d="M1916.206,1068.254l-.181.047-.1-.2.294-.094h.166l.266,1.1h-.24Z" transform="translate(-1799.513 -1012.422)" fill="#94b0ed"/>
            <path id="Path_15460" data-name="Path 15460" d="M2194.2,868.249a3.01,3.01,0,0,1,2.613,1.211c.817,1.116.251,2.431,2.295,3.445s1.75,2.292,1.341,3.9-2.122,3.542-4.166,3.447-5.538-4.3-5.412-5.712.733-1.579.251-2.512c-.754-1.461.644-3.543,3.077-3.774" transform="translate(-2057.752 -824.79)" fill="#163560"/>
            <path id="Path_15461" data-name="Path 15461" d="M2220.423,950.518a.12.12,0,0,0,.015-.024c-.226-.081-.246-.411-.036-1.787l-.108.005-1.824.087s-.043.564-.12,1.089c-.015.1-.032.208-.05.3-1.373,1.367,1.582,1.985,2.123.325" transform="translate(-2083.175 -900.367)" fill="#ffb27d"/>
            <path id="Path_15462" data-name="Path 15462" d="M2197.459,1555.226h3.941a2.166,2.166,0,0,0-.112-1.056c-.2-.437-.5-.707-.532-1.042a1.183,1.183,0,0,1-1.128.347,4.335,4.335,0,0,1-.684.886c-.257.185-1.406.119-1.485.865" transform="translate(-2063.939 -1468.062)" fill="#1b2f3a"/>
            <path id="Path_15463" data-name="Path 15463" d="M2183.385,1152.018a5.269,5.269,0,0,0-.561,2.456.027.027,0,0,0,0,0,1.926,1.926,0,0,0,.044.237c1.293,5.171-.54,11.9-.54,11.9a7.632,7.632,0,0,1-.835.143c-.621.055-.712-.13-.712-.13s-.617-5.491-2.614-15.988a29.153,29.153,0,0,1-.505-3.7c-.031-.4-.062-.853-.095-1.379-.091-1.415.124-3.8,1.186-4.421.483-.286,1.14-.207,2.024.489.07.055.136.121.214.177,5.43,3.909,3.515,7.445,2.393,10.21" transform="translate(-2045.239 -1080.964)" fill="#2f4858"/>
            <path id="Path_15464" data-name="Path 15464" d="M2232.695,1242.553c-.061-.213-2.014-7.037-2.047-7.555-.071-1.115,2.51,1.964,2.608,5.1a5.276,5.276,0,0,0-.561,2.456" transform="translate(-2095.11 -1169.043)" fill="#233862"/>
            <path id="Path_15465" data-name="Path 15465" d="M2432.794,1395.765l-1.64-3.583a2.162,2.162,0,0,0-.914.541c-.316.361-.544.3-1.263-.2a3.948,3.948,0,0,1,.475,1.214,7.249,7.249,0,0,0,1.653.944c.307.08.978,1.325,1.689,1.086" transform="translate(-2281.39 -1316.896)" fill="#1b2f3a"/>
            <path id="Path_15466" data-name="Path 15466" d="M2206.662,1155.371s3.531,12.277,4.826,13.067,7.691,2.362,9.581,2.739a3.656,3.656,0,0,0-.031-1.027,4.529,4.529,0,0,0-.217-.527s-3.359-3.361-6.642-3.832c-.688-.1.276-10.834-4.387-11.255-4.26-.385-3.128.834-3.128.834" transform="translate(-2072.455 -1093.621)" fill="#2f4858"/>
            <path id="Path_15467" data-name="Path 15467" d="M2109.858,823.323s.079-.394.168-.694a2.161,2.161,0,0,0-.425-1.113c-.19-.107-.684.48-.544.932.072.232.19.986.19.986Z" transform="translate(-1980.886 -780.893)" fill="#ffb27d"/>
            <path id="Path_15468" data-name="Path 15468" d="M2387.905,848.327c.024.05.058.139.088.223,0-.023,0-.045,0-.068a2.6,2.6,0,0,1,.881-1.132c.256-.057.618.794.3,1.264-.164.241-.661,1.1-.661,1.1l-.549-.332a.768.768,0,0,0-.152-.419,2.961,2.961,0,0,1-.1-.734s.11-.088.2.1" transform="translate(-2242.627 -805.166)" fill="#ffb27d"/>
            <path id="Path_15469" data-name="Path 15469" d="M2224.811,948.878s-.042.564-.119,1.089a2.126,2.126,0,0,0,1.944-1.177Z" transform="translate(-2089.517 -900.446)" fill="#ed975d"/>
            <path id="Path_15470" data-name="Path 15470" d="M2215.336,880.816a5.725,5.725,0,0,0,.946-1.551,1.965,1.965,0,0,0-1.871-2.6,2.787,2.787,0,0,0-1.207.262c-.484.232-1.216.779-.767,2.647l.1.622Z" transform="translate(-2077.875 -832.701)" fill="#163560"/>
            <path id="Path_15471" data-name="Path 15471" d="M2210.985,892.516s2.542.421,2.781-1.166.726-2.6-.887-2.938-2.02.222-2.228.733-.32,3.221.335,3.372" transform="translate(-2076.177 -843.64)" fill="#ffb27d"/>
            <path id="Path_15472" data-name="Path 15472" d="M2226.624,882.636s.676,1.977,1.706,2.411a2.131,2.131,0,0,0,1.537.217,3.067,3.067,0,0,1-.725-1.939s-1.859-1.5-2.517-.689" transform="translate(-2091.332 -838.086)" fill="#163560"/>
            <path id="Path_15473" data-name="Path 15473" d="M2210.752,883.617a1.914,1.914,0,0,0-.885.626,3.246,3.246,0,0,0-.492,1.242s-.337-1.344.36-1.972c.74-.666,1.017.1,1.017.1" transform="translate(-2075.054 -838.88)" fill="#163560"/>
            <path id="Path_15474" data-name="Path 15474" d="M2126.991,851.023s-.558,4.56-1.736,5.65c-.817.756-3.71,1.977-4.4,3.1a3.657,3.657,0,0,0-.262,1.08,19.036,19.036,0,0,0,.785,8.123c.05.15.1.3.157.45a.762.762,0,0,1-.453.987,12.978,12.978,0,0,1-2.13.557c-.167.029-.34.055-.516.077a8.431,8.431,0,0,1-4.9-.682,1.111,1.111,0,0,1-.608-1.053c.05-.9.5-1.79.7-3.954.154-1.642-.967-3.957-.906-4.83a7.627,7.627,0,0,0,.021-2.116c-1.154-1.584-3.094-3.1-3.392-4.549a25.772,25.772,0,0,1-.122-5,1.909,1.909,0,0,1,.538-.136.794.794,0,0,1,.558.3s.866,3.242.909,3.461c.23,1.163,2.442,2.848,3.113,3.187a5.262,5.262,0,0,0,1.781.613s-.545.942.262,1.073c.972.157,1.722-.959,1.722-.959a4.35,4.35,0,0,0,1.653.009c.882-.129,4.02-1.19,4.473-2,.331-.586,2.073-3.833,2.073-3.833a.454.454,0,0,1,.422.041.475.475,0,0,1,.258.4" transform="translate(-1981.004 -806.466)" fill="#c3cdd1"/>
            <path id="Path_15475" data-name="Path 15475" d="M2217.136,941.582s-.109.219-.255.223a1.729,1.729,0,0,1-.543-.069,2.092,2.092,0,0,1-.087-.267,2.469,2.469,0,0,1,.885.113" transform="translate(-2081.59 -893.567)" fill="#fff"/>
            <path id="Path_15476" data-name="Path 15476" d="M2274.117,1056.333s-2.183-.374-2.327-1.927c-.154-1.655,1.541-6.2,1.541-6.2v0a19.024,19.024,0,0,0,.785,8.123" transform="translate(-2133.744 -993.822)" fill="#a4b2ba"/>
            <path id="Path_15477" data-name="Path 15477" d="M2061.512,503.537l-.227-.834a2.274,2.274,0,0,0-1.927-1.66l-5.931-.7-.445,3.764-1.9,16.067,24.535,2.9,1.9-16.067-13.884-1.64a2.5,2.5,0,0,1-2.121-1.827" transform="translate(-1926.458 -479.245)" fill="#f05a5c"/>
            <path id="Path_15478" data-name="Path 15478" d="M2127.1,659.116l.169-1.43,5.273-1.6-.173,1.461-3.671,1.026,3.332,1.853-.175,1.481Z" transform="translate(-1997.855 -625.523)" fill="#fff"/>
            <path id="Path_15479" data-name="Path 15479" d="M2217.289,638.081l1.336.158-5.722,9.05-1.336-.158Z" transform="translate(-2077.19 -608.615)" fill="#fff"/>
            <path id="Path_15480" data-name="Path 15480" d="M2327.74,672.685l-.169,1.43-5.273,1.6.173-1.461,3.671-1.026-3.331-1.853.175-1.481Z" transform="translate(-2181.192 -638.498)" fill="#fff"/>
            <path id="Path_15481" data-name="Path 15481" d="M2386.4,859.019a4.64,4.64,0,0,0-.135-.75c-.063-.118.094-.152.228.118s.4.189.534.456.016.338-.149.322a2.368,2.368,0,0,1-.478-.146" transform="translate(-2241.263 -815.342)" fill="#ffb27d"/>
            <path id="Path_15482" data-name="Path 15482" d="M2121.144,828.425s.36-.389.358-.563.251-.605.181-.684-.2.047-.263.165-.342.111-.4.432a1.064,1.064,0,0,0,.129.649" transform="translate(-1992.128 -786.2)" fill="#ffb27d"/>
            <path id="Path_15483" data-name="Path 15483" d="M1185.855,704.835l9.317,4.081v-3.631l-4.854-2,4.854-2v-3.6l-9.317,4.081Z" transform="translate(-1113.801 -664.608)" fill="#2c3a64"/>
            <path id="Path_15484" data-name="Path 15484" d="M1355.715,656.309l-8.051,16.828h3.4l8.05-16.828Z" transform="translate(-1265.779 -625.736)" fill="#2c3a64"/>
            <path id="Path_15485" data-name="Path 15485" d="M1546.415,697.7v3.631l4.854,2-4.854,2v3.6l9.317-4.081v-3.059Z" transform="translate(-1452.453 -664.608)" fill="#2c3a64"/>
            <rect id="Rectangle_2866" data-name="Rectangle 2866" width="3.403" height="0.961" transform="translate(81.886 46.44)" fill="#2c3a64"/>
            <rect id="Rectangle_2867" data-name="Rectangle 2867" width="1.59" height="0.961" transform="translate(91.749 29.613)" fill="#2c3a64"/>
            <path id="Path_15486" data-name="Path 15486" d="M1185.855,689.022l9.317,4.081v-3.631l-4.854-2,4.854-2v-3.6l-9.317,4.081Z" transform="translate(-1113.801 -649.755)" fill="#2f4858"/>
            <path id="Path_15487" data-name="Path 15487" d="M1355.715,640.495l-8.051,16.828h3.4l8.05-16.828Z" transform="translate(-1265.779 -610.882)" fill="#2f4858"/>
            <path id="Path_15488" data-name="Path 15488" d="M1546.415,681.882v3.631l4.854,2-4.854,2v3.6l9.317-4.081v-3.059Z" transform="translate(-1452.453 -649.755)" fill="#2f4858"/>
            <path id="Path_15489" data-name="Path 15489" d="M829.355,604.618h-.568l-4.644-17.72-5.97-22.779H751.5l10.1,40.5-.721.007-10.221-41.057,67.981-.059.059.227,5.968,22.9Z" transform="translate(-705.051 -538.575)" fill="#a4b2ba"/>
            <path id="Path_15490" data-name="Path 15490" d="M1965.331,962.531l-.548.073-4.767-18.189.527-.26Z" transform="translate(-1840.923 -896.093)" fill="#a4b2ba"/>
            <path id="Path_15491" data-name="Path 15491" d="M919.565,669.3a.442.442,0,0,0-.079.472v0a2.936,2.936,0,0,0,.928,1.018c.056.045.106.086.149.124l.033.03.026.023c.408.376.254.462.987,1.225.835.869,1.41.885,1.574.806.138-.068-.143-.528-.454-1.047l-.045-.076-.124-.208c-.365-.623-.271-.916-.185-1.844.07-.754,1.173-4.213,1.173-4.213l-1.6-.276s-.482,2.754-1.013,3.178c-.284.226-.6.229-.875.4l-.057.036a2.1,2.1,0,0,0-.438.352" transform="translate(-863.584 -634.219)" fill="#ffb27d"/>
            <path id="Path_15492" data-name="Path 15492" d="M919.565,724.559a.441.441,0,0,0-.079.472v0a3.4,3.4,0,0,0,.929,1.014c.055.046.1.088.147.127l.033.03.026.023c.408.376.254.462.987,1.225.835.869,1.41.885,1.574.806.138-.068-.143-.528-.454-1.047a3.559,3.559,0,0,1-1.489-1.1c-.5-.642-.838-1.466-1.181-1.944l-.057.036a2.093,2.093,0,0,0-.438.352" transform="translate(-863.584 -689.474)" fill="#1b2f3a"/>
            <path id="Path_15493" data-name="Path 15493" d="M1113.952,660.774c.1.494.8.412,1.59.219s.6.036,1.72-.088,1.459-.542,1.493-.708c.031-.148-.523-.2-1.116-.268l-.225-.027a4.843,4.843,0,0,1-1.77-.872,7.108,7.108,0,0,1-1.437-1.707l-1.536.122s.806,1.224,1.118,1.756a1.856,1.856,0,0,1,.151,1.047,1.974,1.974,0,0,0,.012.525" transform="translate(-1045.065 -626.689)" fill="#ffb27d"/>
            <path id="Path_15494" data-name="Path 15494" d="M1134.968,701.266c.787-.192.6.036,1.72-.088s1.459-.542,1.493-.708c.031-.148-.523-.2-1.116-.268l-.005.011a3.157,3.157,0,0,1-1.6.5c-.76.018-1.564-.2-2.089-.191a1.973,1.973,0,0,0,.012.525c.1.494.8.412,1.59.219" transform="translate(-1064.491 -666.962)" fill="#1b2f3a"/>
            <path id="Path_15495" data-name="Path 15495" d="M955.434,514.427,954,518.29l-1.874,5.044a3.037,3.037,0,0,1-1-.091,4.313,4.313,0,0,1-.963-.469,54.8,54.8,0,0,1,1.491-8.525,5.542,5.542,0,0,1,.835-1.807c1.505-1.779,2.942,1.984,2.942,1.984" transform="translate(-892.432 -490.162)" fill="#1b2f3a"/>
            <path id="Path_15496" data-name="Path 15496" d="M798.2,439.582c-.941-.3-3.623.086-6.318.614l-.564-.931-5.821-.455s-1.921,4.259-.869,6.973a.984.984,0,0,0,.985.663h.085l4.589,0c2.895,0,6.126-1.99,6.544-2.073.684-.137.958,1.232,1.642,2.668S804.9,453.4,804.9,453.4a5.06,5.06,0,0,0,1.248-.128,1.23,1.23,0,0,0,.536-.338s-6.369-12.671-8.49-13.355" transform="translate(-736.653 -421.452)" fill="#2f4858"/>
            <path id="Path_15497" data-name="Path 15497" d="M753.035,153.229a6.136,6.136,0,0,0-2.117.017c-2.215.218-2.959,2.689-2.624,4.605.309,1.769-.588,2.258-1.628,3.656-2.085,2.8-.722,5.164.923,5.773.987.365,2.357-.556,2.357-.556a63.641,63.641,0,0,0,6.061-4.392c2.923-1.144-.895-8.568-2.973-9.1" transform="translate(-700.303 -153.136)" fill="#1b2f3a"/>
            <path id="Path_15498" data-name="Path 15498" d="M827.073,245.978c.058.205-.91.582-1.65.443-.7-.13-1.475-.944-1.315-1.021.266-.126.445-.441.3-2.142l.132.015,2.226.254s.007.693.058,1.343a4.4,4.4,0,0,0,.248,1.108" transform="translate(-774.015 -237.782)" fill="#ffb27d"/>
            <path id="Path_15499" data-name="Path 15499" d="M833.776,243.758s.007.693.058,1.343a2.607,2.607,0,0,1-2.284-1.6Z" transform="translate(-781.024 -238.013)" fill="#ed975d"/>
            <path id="Path_15500" data-name="Path 15500" d="M826.08,182.7s-2.9.286-3.046-1.521-.625-2.986,1.218-3.245,2.26.4,2.456.991.121,3.653-.628,3.774" transform="translate(-772.868 -176.374)" fill="#ffb27d"/>
            <path id="Path_15501" data-name="Path 15501" d="M812.487,169.715s-.365,2.207-2.014,2.73a2.638,2.638,0,0,1-1.748.13,4.9,4.9,0,0,0,.785-1.836.883.883,0,0,1,.589-.674c.855-.281,1.891-1.05,2.388-.351" transform="translate(-759.586 -168.439)" fill="#1b2f3a"/>
            <path id="Path_15502" data-name="Path 15502" d="M861.662,174.063a1.916,1.916,0,0,1,1.029.826,3.7,3.7,0,0,1,.518,1.785s.507-2.042-.232-2.8a.769.769,0,0,0-1.315.192" transform="translate(-809.307 -172.317)" fill="#1b2f3a"/>
            <path id="Path_15503" data-name="Path 15503" d="M783.294,282.547c.052.219.1.421.132.607.059.3.1.559.128.788.088.712.062,1.134.122,1.6a3.985,3.985,0,0,0,.217.869c.12.331,3.267.626,5.057.507a2.455,2.455,0,0,0,1.156-.25c.639-.555.575.665.663-5.173.042-2.848-2.416-5.384-2.416-5.384s-.2,1.216-2.635-.231A15.123,15.123,0,0,0,783.746,279c-1.018,1.934-.739,2.343-.452,3.548" transform="translate(-735.45 -268.418)" fill="#c3cdd1"/>
            <path id="Path_15504" data-name="Path 15504" d="M954,553.6l-1.874,5.044a3.034,3.034,0,0,1-1-.091,4.317,4.317,0,0,1-.963-.469,54.8,54.8,0,0,1,1.491-8.525Z" transform="translate(-892.431 -525.475)" fill="#2f4858"/>
            <path id="Path_15505" data-name="Path 15505" d="M870.643,279.7s2.509.425,2.8,1.506,2.33,7.122,2.33,7.122-1.577.538-2.166-.051-2.05-5.466-2.05-5.466Z" transform="translate(-817.742 -272.007)" fill="#778991"/>
            <path id="Path_15506" data-name="Path 15506" d="M1038.969,394.548l.594-.236a1.419,1.419,0,0,1,.55-.019c.193.061.676.054.679.134s-.551.326-.551.326l-.017-.007c.21.476,1.261.747,1.312.922.062.212-.427.321-.694.387a1.47,1.47,0,0,1-1.24-.28c-.235-.248-.633-.589-.633-.589Z" transform="translate(-975.84 -379.619)" fill="#ffb27d"/>
            <path id="Path_15507" data-name="Path 15507" d="M864.75,238.806a.5.5,0,0,0,.442.3c.321,0,.407-.048.468-.116a1,1,0,0,0,.121-.2,2.722,2.722,0,0,0-1.031.018" transform="translate(-812.207 -233.545)" fill="#fff"/>
            <path id="Path_15508" data-name="Path 15508" d="M906.914,373.679l6.074.464a1.893,1.893,0,0,1-.265,1.257s-5.48,1.071-6.91.524-1.269-3.127-1.269-3.127Z" transform="translate(-849.579 -359.449)" fill="#f99746"/>
            <path id="Path_15509" data-name="Path 15509" d="M791.684,406.113c.088.712.062,1.134.122,1.6,2.278.007,5.324-1.759,5.324-1.759Z" transform="translate(-743.581 -390.589)" fill="#778991"/>
            <path id="Path_15510" data-name="Path 15510" d="M795.661,336.276s-3.549-.106-4.147-2.123c-.657-2.216-1.393.911-1.393.911l.392,2h3.893Z" transform="translate(-742.112 -322.409)" fill="#778991"/>
            <path id="Path_15511" data-name="Path 15511" d="M906.164,270.913l-.192-.475a1.347,1.347,0,0,0-1.249-.843h-3.538v11.829H915.82V271.84h-8.281a1.482,1.482,0,0,1-1.375-.927" transform="translate(-846.428 -262.519)" fill="#f05a5c"/>
            <path id="Path_15512" data-name="Path 15512" d="M937.515,354.548V353.7l2.99-1.31v.871l-2.088.859,2.088.859v.884Z" transform="translate(-880.551 -340.279)" fill="#fff"/>
            <path id="Path_15513" data-name="Path 15513" d="M995.571,335.606h.8l-2.737,5.722h-.8Z" transform="translate(-932.508 -324.519)" fill="#fff"/>
            <path id="Path_15514" data-name="Path 15514" d="M1059.481,353.7v.853l-2.991,1.31v-.871l2.089-.859-2.089-.859v-.884Z" transform="translate(-992.297 -340.279)" fill="#fff"/>
            <path id="Path_15515" data-name="Path 15515" d="M881.3,370.06l.257-.4a2.066,2.066,0,0,0,.488-.266c.339-.238.294-.595.464-.557l0,.784-.018,0c.727.194,1.578-.017,1.595.164.047.5-.338.722-.661.878a1.171,1.171,0,0,1-.974.16c-.326-.1-.84-.2-.84-.2Z" transform="translate(-827.747 -355.726)" fill="#ffb27d"/>
            <path id="Path_15516" data-name="Path 15516" d="M766.358,275.9s-2.3.151-2.88,1.049a17.6,17.6,0,0,0-.991,7.027c.3,1.567,7.677-.3,7.677-.3l-.235-1.359s-4.258.025-4.5-.53c-.323-.737.929-5.887.929-5.887" transform="translate(-716.092 -268.444)" fill="#a4b2ba"/>
            <path id="Path_15517" data-name="Path 15517" d="M1010.279,299.641a.857.857,0,0,0,.869.558c.326-.065.75-.768.378-.922a1.059,1.059,0,0,0-1.247.364" transform="translate(-948.893 -290.325)" fill="#ffb27d"/>
          </g>
        </g>
      </g>
    </g>
  </g>
</svg>
