<svg xmlns="http://www.w3.org/2000/svg" xmlns:xlink="http://www.w3.org/1999/xlink" width="100%" height="100%" viewBox="0 0 229.652 223.891">
  <defs>
    <filter id="Path_16564" x="0" y="0" width="229.652" height="223.891" filterUnits="userSpaceOnUse">
      <feOffset input="SourceAlpha"/>
      <feGaussianBlur stdDeviation="7.5" result="blur"/>
      <feFlood flood-opacity="0.173"/>
      <feComposite operator="in" in2="blur"/>
      <feComposite in="SourceGraphic"/>
    </filter>
    <clipPath id="clip-path">
      <rect id="Rectangle_2871" data-name="Rectangle 2871" width="23.586" height="23.586" fill="none"/>
    </clipPath>
    <clipPath id="clip-path-2">
      <rect id="Rectangle_2878" data-name="Rectangle 2878" width="24.434" height="33.964" fill="none"/>
    </clipPath>
    <clipPath id="clip-path-3">
      <rect id="Rectangle_2885" data-name="Rectangle 2885" width="3.968" height="4.756" fill="none"/>
    </clipPath>
    <clipPath id="clip-path-4">
      <rect id="Rectangle_2886" data-name="Rectangle 2886" width="2.664" height="2.319" fill="none"/>
    </clipPath>
    <clipPath id="clip-path-5">
      <rect id="Rectangle_2887" data-name="Rectangle 2887" width="1.679" height="2.152" fill="none"/>
    </clipPath>
    <clipPath id="clip-path-6">
      <rect id="Rectangle_2888" data-name="Rectangle 2888" width="1.883" height="1.847" fill="none"/>
    </clipPath>
    <clipPath id="clip-path-7">
      <rect id="Rectangle_2889" data-name="Rectangle 2889" width="1.601" height="2.469" fill="none"/>
    </clipPath>
    <clipPath id="clip-path-8">
      <rect id="Rectangle_2890" data-name="Rectangle 2890" width="2.395" height="1.612" fill="none"/>
    </clipPath>
    <clipPath id="clip-path-10">
      <rect id="Rectangle_2892" data-name="Rectangle 2892" width="2" height="3.083" fill="none"/>
    </clipPath>
    <clipPath id="clip-path-11">
      <rect id="Rectangle_2893" data-name="Rectangle 2893" width="1.867" height="2.879" fill="none"/>
    </clipPath>
    <clipPath id="clip-path-15">
      <rect id="Rectangle_2897" data-name="Rectangle 2897" width="2.36" height="1.222" fill="none"/>
    </clipPath>
    <clipPath id="clip-path-21">
      <rect id="Rectangle_2904" data-name="Rectangle 2904" width="0.392" height="16.005" fill="none"/>
    </clipPath>
  </defs>
  <g id="Group_10038" data-name="Group 10038" transform="translate(-224.256 -683.192)">
    <g id="bg" transform="translate(97.646 606.376)">
      <g class="svg-stoke" id="Path_16565" data-name="Path 16565" transform="translate(147 106)" fill="rgba(255,255,255,0)">
        <path d="M 81.46550750732422 160.3434448242188 C 75.97178649902344 160.3434448242188 70.48164367675781 159.7900085449219 65.14761352539062 158.6985015869141 C 59.94939422607422 157.6348114013672 54.83625411987305 156.0475921630859 49.95022583007812 153.9809722900391 C 45.15280914306641 151.9518432617188 40.5256462097168 149.4402770996094 36.19728469848633 146.51611328125 C 31.9098949432373 143.6196136474609 27.87822723388672 140.2931671142578 24.21425628662109 136.6291961669922 C 20.55028343200684 132.9652252197266 17.22383880615234 128.9335632324219 14.32733917236328 124.6461715698242 C 11.40317249298096 120.3178100585938 8.891616821289062 115.6906433105469 6.862477779388428 110.8932266235352 C 4.7958664894104 106.007194519043 3.208644390106201 100.8940582275391 2.144949913024902 95.69583892822266 C 1.053449869155884 90.36180877685547 0.5000054836273193 84.87167358398438 0.5000054836273193 79.37794494628906 C 0.5000054836273193 70.77181243896484 2.896144390106201 60.26764297485352 7.429421901702881 49.0010871887207 C 11.99281120300293 37.65964126586914 18.41247749328613 26.32641983032227 25.99442291259766 16.22664260864258 C 29.96061706542969 10.94333648681641 34.19197845458984 6.075253009796143 38.5709228515625 1.757642030715942 C 43.17817306518555 -2.785080194473267 47.95328140258789 -6.720691204071045 52.76358795166016 -9.939886093139648 C 57.85336685180664 -13.34610748291016 63.02364349365234 -15.97585773468018 68.13083648681641 -17.75613594055176 C 73.54556274414062 -19.64360809326172 78.96444702148438 -20.60063552856445 84.23694610595703 -20.60063552856445 C 97.17305755615234 -20.60063552856445 109.4142837524414 -14.91855239868164 120.6205596923828 -3.712274551391602 C 133.2728118896484 8.939948081970215 142.8871765136719 19.59694671630859 150.0130920410156 28.86764144897461 C 153.5545654296875 33.47503280639648 156.4944458007812 37.74016952514648 159.000732421875 41.90678024291992 C 161.4244995117188 45.93622589111328 163.3816680908203 49.77311325073242 164.9840545654297 53.63672637939453 C 171.2305908203125 68.69794464111328 171.1002044677734 82.10341644287109 170.9197235107422 100.6573104858398 C 170.887451171875 103.9749221801758 170.8540954589844 107.4054718017578 170.8540954589844 111.0617828369141 C 170.8540954589844 131.2891693115234 161.7737579345703 144.79833984375 143.0942230224609 152.3612213134766 C 135.3517761230469 155.4959411621094 125.9780349731445 157.6331634521484 114.4373092651367 158.8950653076172 C 105.3998641967773 159.8831939697266 94.92283630371094 160.3434448242188 81.46550750732422 160.3434448242188 Z" stroke="none"/>
        <path d="M 84.23694610595703 -20.10063934326172 C 79.02061462402344 -20.10063934326172 73.65711975097656 -19.15299987792969 68.29542541503906 -17.28399658203125 C 63.22828674316406 -15.51771545410156 58.09619903564453 -12.90699768066406 53.04167175292969 -9.524360656738281 C 48.2574462890625 -6.322608947753906 43.50689697265625 -2.407028198242188 38.92198181152344 2.113670349121094 C 34.56059265136719 6.413948059082031 30.34567260742188 11.26325225830078 26.394287109375 16.52684020996094 C 18.83816528320312 26.59222412109375 12.44061279296875 37.88616943359375 7.893280029296875 49.18772506713867 C 5.674026489257812 54.70328140258789 3.955978393554688 60.08008575439453 2.786865234375 65.16883850097656 C 1.6011962890625 70.32966613769531 1 75.11030578613281 1 79.37794494628906 C 1 84.83808898925781 1.550033569335938 90.29450225830078 2.634780883789062 95.59561157226562 C 3.69189453125 100.7615051269531 5.26922607421875 105.8428115844727 7.322982788085938 110.6984481811523 C 9.33953857421875 115.4661407470703 11.83554077148438 120.0646667480469 14.74166870117188 124.3662796020508 C 17.62034606933594 128.6272888183594 20.92634582519531 132.6341705322266 24.56781005859375 136.275634765625 C 28.20928955078125 139.9171142578125 32.21617126464844 143.2231140136719 36.4771728515625 146.1017761230469 C 40.77877807617188 149.0079193115234 45.37730407714844 151.5039215087891 50.14500427246094 153.5204772949219 C 55.00064086914062 155.57421875 60.08194732666016 157.1515502929688 65.24784088134766 158.2086791992188 C 70.5489501953125 159.2934265136719 76.00536346435547 159.8434448242188 81.46550750732422 159.8434448242188 C 94.90422821044922 159.8434448242188 105.3640060424805 159.3841400146484 114.3829803466797 158.3980102539062 C 125.8772583007812 157.1412200927734 135.2074279785156 155.0149841308594 142.9065856933594 151.8977508544922 C 147.161865234375 150.1748962402344 150.9579772949219 148.1148986816406 154.189453125 145.7749938964844 C 157.6052551269531 143.3016357421875 160.5111389160156 140.4281463623047 162.8263702392578 137.2343139648438 C 165.264892578125 133.8704223632812 167.1328430175781 130.0348968505859 168.3783111572266 125.8342514038086 C 169.6893310546875 121.4125289916992 170.3540954589844 116.4423675537109 170.3540954589844 111.0617828369141 C 170.3540954589844 107.4030303955078 170.3874816894531 103.9712524414062 170.4197540283203 100.6524505615234 C 170.5996398925781 82.1578369140625 170.7296142578125 68.79519653320312 164.5222320556641 53.82828140258789 C 162.9294281005859 49.9877815246582 160.9831695556641 46.17253112792969 158.5722503662109 42.16450500488281 C 156.0758666992188 38.01433563232422 153.1464538574219 33.76455688476562 149.6166381835938 29.17233276367188 C 142.5041198730469 19.91902923583984 132.9037475585938 9.278030395507812 120.2670059204102 -3.358718872070312 C 109.1578979492188 -14.46782684326172 97.03561401367188 -20.10063934326172 84.23694610595703 -20.10063934326172 M 84.2369384765625 -21.10062408447266 C 96.44292449951172 -21.10062408447266 108.9408493041992 -16.09909820556641 120.97412109375 -4.065826416015625 C 176.4476776123047 51.4077262878418 171.3540954589844 66.06961059570312 171.3540954589844 111.0617828369141 C 171.3540954589844 156.053955078125 126.4576721191406 160.8434448242188 81.46550750732422 160.8434448242188 C 36.47337341308594 160.8434448242188 0 124.3700866699219 0 79.37794494628906 C 0 44.14543533325195 40.17314147949219 -21.10062408447266 84.2369384765625 -21.10062408447266 Z" stroke="none" fill="#f05a5c"/>
      </g>
      <g transform="matrix(1, 0, 0, 1, 126.61, 76.82)" filter="url(#Path_16564)">
        <path id="Path_16564-2" data-name="Path 16564" d="M92.623,5.291c31.657,0,52.156,17.307,68.756,48.136,10.476,19.454,31.305,46.53,30.489,72.753-2.081,66.893-99.225,61.031-130.147,53.774S-6.174,130.291,12.1,85.649,40.555,5.291,92.623,5.291Z" transform="translate(15.26 17.21)" fill="#fff"/>
      </g>
    </g>
    <g id="Group_9733" data-name="Group 9733" transform="translate(234.214 725.953)">
      <g id="Group_10036" data-name="Group 10036" transform="translate(30.024 0)">
        <g id="Group_9731" data-name="Group 9731">
          <g id="Group_10037" data-name="Group 10037" transform="translate(0 0)">
            <path id="Path_15518" data-name="Path 15518" d="M1263.753,277.327s7.239-5.341,20.315,1.938c0,0,6.766,2.572,8.317,9.159a11.917,11.917,0,0,0,2.313,4.777,14.917,14.917,0,0,1,3.3,8.175,13.958,13.958,0,0,0,1.718,5.643,17.181,17.181,0,0,1,1.878,10.086s4.184,4.513,1.831,14.571a14.293,14.293,0,0,1-2.408,11.992s1.077,7.255-5.177,9.688c0,0-3.3,7.546-13.128,8a12.721,12.721,0,0,0-4.142.92c-1.871.751-5.231,1.484-10.059.214-7.846-2.063-7.058-6.824-7.058-6.824V278.484Z" transform="translate(-1183.828 -253.786)" fill="#f05a5c"/>
            <path id="Path_15519" data-name="Path 15519" d="M763.956,277.327s-7.239-5.341-20.315,1.938c0,0-7.088,2.695-8.417,9.63a8.593,8.593,0,0,1-1.929,3.965,14.932,14.932,0,0,0-3.622,9.223,8.893,8.893,0,0,1-1.349,4.378,16.149,16.149,0,0,0-2.294,8.405,8.861,8.861,0,0,1-.947,3.857c-1.058,2.109-2.344,6.328-.794,12.95a14.41,14.41,0,0,0,1.119,9.953,11.681,11.681,0,0,1,1.265,4.325,8.553,8.553,0,0,0,3.475,6.5,12.327,12.327,0,0,1,2.9,2.819,15.22,15.22,0,0,0,11.392,6.054,18.756,18.756,0,0,1,5.023,1.077,16.128,16.128,0,0,0,9.738.091c7.846-2.063,7.058-6.824,7.058-6.824V278.484Z" transform="translate(-688.251 -253.786)" fill="#f05a5c"/>
            <path id="Path_15520" data-name="Path 15520" d="M966.107,765.453c-3.494-.425-6.3-2.42-8.337-5.928l-.024-.042a3.582,3.582,0,0,1,1.219-4.812,3.083,3.083,0,0,0,.8-.687,16.285,16.285,0,0,1-7.78-1.24,11.687,11.687,0,0,1-4.188-3.164,7.391,7.391,0,0,0,2.313,4.233,8.076,8.076,0,0,0,3.035,1.482c1.053.231,1.5,1.275,1.887,2.268a20.148,20.148,0,0,0,1.3,2.718,15.1,15.1,0,0,0,3.232,3.967,9.356,9.356,0,0,0-4.4,3.953,8.675,8.675,0,0,0-1.068,3.02,13.048,13.048,0,0,1,2.729-3.341,8.467,8.467,0,0,1,6-2.093,14.375,14.375,0,0,0,3.281-.334" transform="translate(-894.849 -690.656)" fill="#d3424a"/>
            <path id="Path_15521" data-name="Path 15521" d="M894.185,949.391q-.271,0-.543-.016a7.987,7.987,0,0,1-6.064-3.3,7.247,7.247,0,0,1-.956-7.837l.03-.064c.36-.748.56.651.517,1.478-.092,1.772,1.3,4.508,3.042,5.991,2.012,1.716,5.27,1.677,7.754,1.76.93.031,1.715.093.885.648a8.952,8.952,0,0,1-4.665,1.341" transform="translate(-837.807 -864.226)" fill="#d3424a"/>
            <path id="Path_15522" data-name="Path 15522" d="M817.112,1098.51a1.834,1.834,0,0,1-2.409-.641,39.72,39.72,0,0,0-7-8.25,22.353,22.353,0,0,1,9.411,8.891" transform="translate(-765.769 -1003.964)" fill="#d3424a"/>
            <path id="Path_15523" data-name="Path 15523" d="M779,822.156c.706-1.345,2.561-1.845,4-2.028a20.217,20.217,0,0,1,4.108.084c-.225-.026-3.767-3.3-7.784-.75-.252-2.415-3.224-3.471-3.224-3.471A9,9,0,0,1,777,817.6a5.815,5.815,0,0,1,.505,3.393,4.414,4.414,0,0,1-2.375,2.881s2.817.551,3.865-1.723" transform="translate(-735.76 -751.846)" fill="#d3424a"/>
            <path id="Path_15524" data-name="Path 15524" d="M1041.733,649.43c1.456-.431,3.108.549,4.241,1.453a20.215,20.215,0,0,1,2.8,3c-.138-.18-.262-5-4.888-6.1,1.556-1.865.24-4.731.24-4.731a8.993,8.993,0,0,1-.526,1.774,5.815,5.815,0,0,1-2.081,2.728,4.414,4.414,0,0,1-3.721.306s1.569,2.4,3.93,1.57" transform="translate(-977.783 -592.502)" fill="#d3424a"/>
            <path id="Path_15525" data-name="Path 15525" d="M1361.769,708.562c3.785-.461,6.823-2.621,9.031-6.422l.026-.046a3.881,3.881,0,0,0-1.32-5.213,3.34,3.34,0,0,1-.863-.745,17.639,17.639,0,0,0,8.428-1.343,12.659,12.659,0,0,0,4.536-3.428,8.007,8.007,0,0,1-2.505,4.586,8.749,8.749,0,0,1-3.288,1.606c-1.14.251-1.624,1.382-2.045,2.456a21.844,21.844,0,0,1-1.41,2.945,16.36,16.36,0,0,1-3.5,4.3,10.137,10.137,0,0,1,4.77,4.282,9.4,9.4,0,0,1,1.156,3.272,14.13,14.13,0,0,0-2.957-3.62,9.171,9.171,0,0,0-6.5-2.267,15.57,15.57,0,0,1-3.554-.362" transform="translate(-1276.282 -637.018)" fill="#d3424a"/>
            <path id="Path_15526" data-name="Path 15526" d="M1477.248,949.391q.271,0,.543-.016a7.987,7.987,0,0,0,6.064-3.3,7.248,7.248,0,0,0,.956-7.837l-.03-.064c-.359-.748-.561.651-.517,1.478.092,1.772-1.3,4.508-3.042,5.991-2.012,1.716-5.27,1.677-7.754,1.76-.93.031-1.715.093-.885.648a8.952,8.952,0,0,0,4.665,1.341" transform="translate(-1378.061 -864.226)" fill="#d3424a"/>
            <path id="Path_15527" data-name="Path 15527" d="M1346.964,587.238q.2-.069.393-.151a6.111,6.111,0,0,0,3.559-3.962,5.627,5.627,0,0,0-1.364-5.968l-.039-.039c-.459-.454-.238.619.011,1.212a6.794,6.794,0,0,1-.645,5.153c-1.018,1.767-3.407,2.573-5.2,3.269-.671.261-1.228.506-.475.7a6.96,6.96,0,0,0,3.759-.214" transform="translate(-1258.844 -531.651)" fill="#d3424a"/>
            <path id="Path_15528" data-name="Path 15528" d="M1552.507,1133.7a1.838,1.838,0,0,0,2.491.153,40.246,40.246,0,0,1,9.309-5.61,22.618,22.618,0,0,0-11.8,5.457" transform="translate(-1452.026 -1039.551)" fill="#d3424a"/>
            <path id="Path_15529" data-name="Path 15529" d="M1480.339,502.861c-.706-1.345-2.561-1.845-4-2.028a20.219,20.219,0,0,0-4.108.084c.225-.026,3.767-3.3,7.784-.75.252-2.415,3.224-3.471,3.224-3.471a9,9,0,0,0-.905,1.614,5.815,5.815,0,0,0-.5,3.393,4.413,4.413,0,0,0,2.374,2.881s-2.817.551-3.865-1.723" transform="translate(-1378.061 -457.651)" fill="#d3424a"/>
            <path id="Path_15530" data-name="Path 15530" d="M1608.2,822.156c-.706-1.345-2.561-1.845-4-2.028a20.216,20.216,0,0,0-4.108.084c.225-.026,3.767-3.3,7.783-.75.252-2.415,3.224-3.471,3.224-3.471a9,9,0,0,0-.905,1.614,5.815,5.815,0,0,0-.505,3.393,4.415,4.415,0,0,0,2.375,2.881s-2.817.551-3.865-1.723" transform="translate(-1495.868 -751.846)" fill="#d3424a"/>
            <rect id="Rectangle_2870" data-name="Rectangle 2870" width="78.894" height="1.765" transform="translate(76.936 103.589) rotate(-89.865)" fill="#d3424a"/>
            <path id="Path_15531" data-name="Path 15531" d="M1847.044,922.088s-.222-.5-.366-.736-.759-.93-.863-.773-.523,1.213-.3,1.509-.014.811,1.092,1.122Z" transform="translate(-1721.94 -848.191)" fill="#ffb27d"/>
            <path id="Path_15532" data-name="Path 15532" d="M1872.351,899.908s-5.661,4.725-7.868,4.288a43.546,43.546,0,0,1-4.375-1.25l-.53,1.355s2.375,3.223,4.852,3.244a14.11,14.11,0,0,0,6.732-1.676Z" transform="translate(-1734.958 -829.167)" fill="#a9b3b7"/>
            <path id="Path_15533" data-name="Path 15533" d="M2072.032,1523.972s-.165,2.651-.677,2.689c-.068,0-2.6,0-2.6,0l-3.234-.019a1.049,1.049,0,0,1,.966-.944,4.384,4.384,0,0,0,3.1-2.078c.6-1.314,2.446.347,2.446.347" transform="translate(-1924.71 -1403.387)" fill="#20497a"/>
            <path id="Path_15534" data-name="Path 15534" d="M2022.149,1152.7a6.74,6.74,0,0,1-1.75.329,6.426,6.426,0,0,1-1.634-.233,44.737,44.737,0,0,0-1.2-5.733c-.534-2.067-1.3-4.724-2.381-8.027a108.677,108.677,0,0,1-3.995-14.971l-.006-.04.01,0,9.221-4.049s-1.14,12.579.314,17.407a20.294,20.294,0,0,1,.528,2.313,92.684,92.684,0,0,1,.9,13.009" transform="translate(-1874.641 -1031.93)" fill="#2f4858"/>
            <path id="Path_15535" data-name="Path 15535" d="M2017.635,1147.062c-.534-2.067-1.3-4.724-2.381-8.027a108.66,108.66,0,0,1-3.995-14.971c0-.015,0-.029,0-.044l9.221-4.049s-1.14,12.579.314,17.407c.2.675-3.163,9.684-3.163,9.684" transform="translate(-1874.715 -1031.93)" fill="#20343f"/>
            <path id="Path_15536" data-name="Path 15536" d="M1980.412,1523.972s-.164,2.651-.677,2.689c-.068,0-2.6,0-2.6,0l-3.234-.019a1.049,1.049,0,0,1,.966-.944,4.384,4.384,0,0,0,3.1-2.078c.6-1.314,2.446.347,2.446.347" transform="translate(-1840.293 -1403.387)" fill="#20497a"/>
            <path id="Path_15537" data-name="Path 15537" d="M1990.2,1123.742a131.279,131.279,0,0,0,1.29,18.159c1.41,10.008.932,14.256.932,14.256a9.6,9.6,0,0,0,1.36.346,6.165,6.165,0,0,0,2.018-.234s2.019-10.011,1.44-15.021,2.764-17.189,2.764-17.189Z" transform="translate(-1855.313 -1035.405)" fill="#2f4858"/>
            <path id="Path_15538" data-name="Path 15538" d="M2026.938,829.2l-1.258,1.623-2.642.144c-.015-.213-.053-1.1-.088-1.9,0-.047,0-.095-.006-.141-.028-.683-.04-1.433-.04-1.433l2.095-1.453.785-.6c0,.014.123.739.124.846a3.8,3.8,0,0,0,1.03,2.919" transform="translate(-1885.445 -760.549)" fill="#ffb27d"/>
            <path id="Path_15539" data-name="Path 15539" d="M1983.354,892.506c.037,4.3.324,14.367.535,14.571,2.241,2.163,12.1-.593,12.62-2.976s-1.986-30.555-5.813-31.68c-.794-.233-5.04,1.14-5.04,1.14a26.926,26.926,0,0,0-1.1,3.962c-.162.822-.69,6.69-1,10.611-.081,1.045-.148,1.952-.187,2.588-.016.263-.02.9-.012,1.784" transform="translate(-1849 -803.816)" fill="#c3cdd1"/>
            <path id="Path_15540" data-name="Path 15540" d="M2025.594,832.61c-.3,1-2.052,2.233-2.789,2.708,0-.047,0-.095-.006-.141-.028-.683-.052-2.064-.052-2.064l2.107-.822c.52-.134.866-.094.74.319" transform="translate(-1885.3 -766.802)" fill="#fca56b"/>
            <path id="Path_15541" data-name="Path 15541" d="M2008.212,771.19s3.913,1.221,4.635-1.228,1.714-3.94-.753-4.823-3.231-.092-3.671.666-1.21,5-.211,5.384" transform="translate(-1871.457 -704.633)" fill="#ffb27d"/>
            <path id="Path_15542" data-name="Path 15542" d="M2014.273,749.9s.25,2.849.839,2.726,1.367-.144,1.28.715.726,2.316,1.267,2.313c1.822-.011,3.829-4.913,3.33-5.8-1.439-2.558-8.8-3.075-6.716.046" transform="translate(-1877.153 -688.963)" fill="#163560"/>
            <path id="Path_15543" data-name="Path 15543" d="M2013.711,859.442a17.983,17.983,0,0,1,3.248-1.195c.335.111.752,1.133.752,1.133l-5.04,1.14a2.5,2.5,0,0,1,1.041-1.078" transform="translate(-1876.015 -790.774)" fill="#8b98a0"/>
            <path id="Path_15544" data-name="Path 15544" d="M1788.527,1031.233l14.717,15.629a.773.773,0,0,0,1.089.011l1-.942a.773.773,0,0,0,.055-1.088l-14.745-15.658c-.284-.3-.531-.064-.846.231l-1,.942c-.315.3-.553.571-.269.874" transform="translate(-1669.375 -948.153)" fill="#2f4858"/>
            <path id="Path_15545" data-name="Path 15545" d="M1892.652,1142.137l6.627,7.044a.788.788,0,0,0,1.11.034l1-.942a.788.788,0,0,0,.034-1.11l-6.627-7.044Z" transform="translate(-1765.432 -1050.495)" fill="#f05a5c"/>
            <path id="Path_15546" data-name="Path 15546" d="M1536.514,791.893a12.576,12.576,0,1,0,.542-17.777c-.066.063-.133.126-.2.19a12.574,12.574,0,0,0-.346,17.586m1.079-17.207a11.8,11.8,0,1,1-.508,16.67,11.741,11.741,0,0,1,.508-16.67" transform="translate(-1434.142 -710.115)" fill="#163560"/>
            <g id="Group_9669" data-name="Group 9669" transform="translate(99.739 61.368)" opacity="0.3">
              <g id="Group_9668" data-name="Group 9668">
                <g id="Group_9667" data-name="Group 9667" clip-path="url(#clip-path)">
                  <path id="Path_15547" data-name="Path 15547" d="M1546.268,800.536a11.8,11.8,0,1,0,.508-16.67,11.736,11.736,0,0,0-.508,16.67" transform="translate(-1543.063 -780.662)" fill="#acadaf"/>
                </g>
              </g>
            </g>
            <path id="Path_15548" data-name="Path 15548" d="M1983.354,951.905c9.352-6.333,8.59-15.043,8.59-15.043a20.878,20.878,0,0,0-8.39,10.672c-.081,1.045-.148,1.952-.187,2.588-.016.263-.02.9-.012,1.784" transform="translate(-1849 -863.216)" fill="#8b98a0"/>
            <path id="Path_15549" data-name="Path 15549" d="M1848.776,1079.278a2.411,2.411,0,0,1-1.129-.7s-.266.018.044.585c.026.048.083.169.127.256a.055.055,0,0,1-.046.079,5.879,5.879,0,0,0-1.415.03c-.1.02-.124.249-.12.347a.884.884,0,0,0,.186.6,3.089,3.089,0,0,0,1.117.585,3.377,3.377,0,0,0,1.729-.217l.566-.262-.175-1.052-.142.03c-.226.047-.505-.229-.741-.286" transform="translate(-1722.665 -993.793)" fill="#a9b3b7"/>
            <path id="Path_15550" data-name="Path 15550" d="M1900.231,887.234s7.944,1.513-2.337,13.017c-1.644,1.84-10.528,4.236-10.528,4.236s-.9-.767-.447-1.388c0,0,6.117-4.442,7.463-5.148.605-.318,2.35-7.089,3.337-8.72a4.45,4.45,0,0,1,2.513-2" transform="translate(-1760.031 -817.489)" fill="#a9b3b7"/>
            <path id="Path_15551" data-name="Path 15551" d="M1850.365,919.126a4.052,4.052,0,0,1-.311-.758,4.188,4.188,0,0,0-.513-1.16c-.054-.054-.232.016-.253.247a1.345,1.345,0,0,0,.127.5,5.676,5.676,0,0,1,.168,1c.123.4.78.171.78.171" transform="translate(-1725.477 -845.09)" fill="#ffb27d"/>
            <path id="Path_15552" data-name="Path 15552" d="M1213.168,1069.2a2.106,2.106,0,0,0-3.8-.5,1.909,1.909,0,0,0-.284.957c-.051,2.014,3.921,9.81,4.448,10.5.96,1.255,6.753,4.274,6.753,4.274l1.231-.179a9.126,9.126,0,0,1-1.417-1.157c-1.489-1.486-3.659-3.9-4.056-4.237-.682-.574-1.862-6.393-2.878-9.655" transform="translate(-1135.601 -983.779)" fill="#ed985f"/>
            <path id="Path_15553" data-name="Path 15553" d="M1237.427,960.934a19.726,19.726,0,0,0-2.955,1.445c-1.333,1.479-.953,3.409-.19,3.427.489.012.394.825.394.825l5.45-2.306s-.656-3.827-2.7-3.391" transform="translate(-1158.178 -885.363)" fill="#233862"/>
            <path id="Path_15554" data-name="Path 15554" d="M1191.416,953.768a2.938,2.938,0,0,0-3.8-.407c-1.717,1.275-.227,3.285-2.379,3.987-1.073.35-2.823,1.118-2.168,4.191.441,2.069,6.954,4.221,6.572,5.96,0,0,2.217-3.468.585-5.165a7.779,7.779,0,0,1-1.669-3.167c.087-.329,2.86-5.4,2.86-5.4" transform="translate(-1111.496 -877.899)" fill="#233862"/>
            <path id="Path_15555" data-name="Path 15555" d="M1048.724,1200.269l-1.179-.173a13.943,13.943,0,0,1-4.556-9.032,10.51,10.51,0,0,1-.028-1.818.317.317,0,0,0-.041-.2v0c-.127-.195-.443-.682-.87-1.375s-1.143-1.974-1.937-3.423c-1.43-2.609-3.095-5.73-3.666-6.724-1.819-3.168-.942-5.3-.942-5.3s5.076-.5,6.467-1.719l.5.772s1.1,4.868,1.048,4.891l.165.506a84.666,84.666,0,0,1,2.411,8.754,14.48,14.48,0,0,1,.381,3.782,6.633,6.633,0,0,0,.09,1.385c.491,3.494,2.16,9.675,2.16,9.675" transform="translate(-975.468 -1078.491)" fill="#2f4858"/>
            <path id="Path_15556" data-name="Path 15556" d="M1179.656,1536.033h-4.921a2.7,2.7,0,0,1,.139-1.319c.246-.546.6-.563.045-1.419a3,3,0,0,0,2.029.359,6.017,6.017,0,0,0,.853,1.3c.321.231,1.755.149,1.854,1.08" transform="translate(-1103.926 -1412.763)" fill="#142128"/>
            <path id="Path_15557" data-name="Path 15557" d="M1043.683,1176.673c-.43,2.371-1.445,6.316-3.572,7.572-1.43-2.609-3.095-5.73-3.666-6.724-1.82-3.168-.943-5.3-.943-5.3s5.076-.5,6.467-1.719l.5.772s1.1,4.868,1.048,4.891l.165.506" transform="translate(-975.468 -1078.491)" fill="#263c49"/>
            <path id="Path_15558" data-name="Path 15558" d="M953.376,1160.553l.017-.92c-1.834.231-6.322-2.191-6.322-2.191s-1.918,1.276-2.181,4.92c-.128,1.778-.939,9.3-1.029,11.546-.033.814-.044,1.395-.047,1.627a0,0,0,0,1,0,0,.32.32,0,0,1-.078.189,10.516,10.516,0,0,0-.994,1.523c-2.8,5.206-1.335,12.279-1.335,12.279l.65-.165s2.366-7.333,3.912-10.5a6.631,6.631,0,0,1,.7-1.2,14.467,14.467,0,0,0,1.8-3.348,87.524,87.524,0,0,0,3.042-9.117c.056.01,1.866-4.641,1.866-4.641" transform="translate(-888.612 -1066.456)" fill="#2f4858"/>
            <path id="Path_15559" data-name="Path 15559" d="M1225.164,1032.851h0l0,0,0,0-.006.009,0,0c-.025.041-.092.145-.19.288l-.027.04c-.156.224-.38.532-.64.838a4.3,4.3,0,0,1-1.181,1.039h0c-.123-.1-2.37-2-2.207-1.931a5.557,5.557,0,0,0,2.51-1.748c.38-.479,1.747,1.452,1.747,1.452" transform="translate(-1146.484 -950.25)" fill="#ffb27d"/>
            <path id="Path_15560" data-name="Path 15560" d="M1229.871,1079.085a15.087,15.087,0,0,1,.808,1.941c.281.9.985,3.766.985,3.766a2.3,2.3,0,1,1-4.172-1.674,15.379,15.379,0,0,1,2.379-4.033" transform="translate(-1152.485 -994.258)" fill="#a9b3b7"/>
            <path id="Path_15561" data-name="Path 15561" d="M1253.189,1031.86l0,0,0,0-.006.009,0,0c-.027.04-.1.144-.19.288l-.027.04c-.156.224-.38.532-.64.838a2.894,2.894,0,0,1-.971-2.8l1.84,1.614Z" transform="translate(-1174.51 -949.258)" fill="#ed985f"/>
            <path id="Path_15562" data-name="Path 15562" d="M1252.344,994.1s-2.779-1.547-1.79-3.263,1.3-3.071,3.114-2.156,1.78,1.767,1.589,2.42-2.165,3.357-2.914,3" transform="translate(-1173.613 -910.687)" fill="#ffb27d"/>
            <path id="Path_15563" data-name="Path 15563" d="M1252.3,987.373c-.127-.762-.514-.835-.784-.784a2.223,2.223,0,0,0-2.7-1.035,3.784,3.784,0,0,1-2.191,1.316s.323.6,1.651.972a2.272,2.272,0,0,0,1.311-.1,7.418,7.418,0,0,1-1.886.711c1.751.16,3.417-1.441,3.59-1.612a2.493,2.493,0,0,1,.138,1.147c-.115.516-.573,1.451-.294,1.572,0,0,1.359-1.039,1.168-2.182" transform="translate(-1170.19 -907.962)" fill="#233862"/>
            <path id="Path_15564" data-name="Path 15564" d="M937.675,1535.617h-4.921a2.7,2.7,0,0,1,.139-1.319c.246-.546.632-.794.54-1.455a1.772,1.772,0,0,0,1.534.587,5.4,5.4,0,0,0,.854,1.107c.322.231,1.755.149,1.854,1.08" transform="translate(-880.967 -1412.346)" fill="#142128"/>
            <path id="Path_15565" data-name="Path 15565" d="M988.092,1058.488a11.959,11.959,0,0,1-2.431.441,16.386,16.386,0,0,0-3.33.517,4.434,4.434,0,0,0-.933.509h0a.254.254,0,0,0-.028.021,3.007,3.007,0,0,0-.386.333,2.109,2.109,0,0,0-.451.67,8.549,8.549,0,0,0,.3,3.353.873.873,0,0,1-.447.969q-.738.382-1.451.7l-.075.034c0-.1.006-.195.006-.29a8.941,8.941,0,0,0-.083-1.214,5.085,5.085,0,0,1-.968,1.948c-6.6,2.65-11.217,1.5-11.142.178a17.1,17.1,0,0,1,3.351-8.481c5.764-6.7,17.423-8.467,17.423-8.467s.558-.067,1.232.742c.969,1.166,1.017,1.47,1.017,1.47s.256,5.913-1.607,6.563" transform="translate(-912.245 -967.193)" fill="#c3cdd1"/>
            <path id="Path_15566" data-name="Path 15566" d="M1168.853,1085.269a16.435,16.435,0,0,0-3.33.517,13.645,13.645,0,0,1,1.731-7.488s1.316,5.354,1.6,6.971" transform="translate(-1095.437 -993.533)" fill="#8b98a0"/>
            <path id="Path_15567" data-name="Path 15567" d="M1122.686,1188.564a.873.873,0,0,1-.447.969q-.738.382-1.45.7c-.025-.081-.048-.166-.069-.256a4.464,4.464,0,0,1-.083-1.215,6.591,6.591,0,0,1,2.2-4.225,2.109,2.109,0,0,0-.451.67,8.539,8.539,0,0,0,.3,3.353" transform="translate(-1054.097 -1091.425)" fill="#8b98a0"/>
            <path id="Path_15568" data-name="Path 15568" d="M1230.957,1042.443s.508-.642.851-.621c0,0,1.388,1.943,1.4,2.834,0,0-1.731-2.3-2.25-2.213" transform="translate(-1155.753 -959.924)" fill="#6980e0"/>
            <path id="Path_15569" data-name="Path 15569" d="M1353.462,1278.188s-.738.013-.9-.01a4.712,4.712,0,0,0-.575-.1,2.458,2.458,0,0,0-.59.1.442.442,0,0,1-.088.008h-1.224a.734.734,0,0,1-.257-.275c-.058-.094-.066-.316-.2-.39-.741-.413,1.231-.179,1.231-.179a7.625,7.625,0,0,1,1.352.063,13.514,13.514,0,0,1,1.246.781" transform="translate(-1264.946 -1176.872)" fill="#ed985f"/>
            <path id="Path_15570" data-name="Path 15570" d="M1357.147,1282.852a5.68,5.68,0,0,1,.955.356l.216.136s.125-.139-.072-.294a.945.945,0,0,1-.4-.594c-.009-.274-.857-.035-.7.4" transform="translate(-1272.005 -1181.535)" fill="#ed985f"/>
            <path id="Path_15571" data-name="Path 15571" d="M1468.359,1279.348h0a3.2,3.2,0,0,1-3.2-3.2v-20.229h6.406v20.229a3.2,3.2,0,0,1-3.2,3.2" transform="translate(-1371.541 -1157.189)" fill="#c3cdd1"/>
            <path id="Path_15572" data-name="Path 15572" d="M1478.009,1429.948h0a2.38,2.38,0,0,1-2.38-2.38v-7.2h4.76v7.2a2.38,2.38,0,0,1-2.38,2.38" transform="translate(-1381.191 -1308.718)" fill="#d14842"/>
            <path id="Path_15573" data-name="Path 15573" d="M1590.017,1279.348h0a3.2,3.2,0,0,1-3.2-3.2v-20.229h6.406v20.229a3.2,3.2,0,0,1-3.2,3.2" transform="translate(-1483.636 -1157.189)" fill="#c3cdd1"/>
            <path id="Path_15574" data-name="Path 15574" d="M1599.666,1406.546h0a2.38,2.38,0,0,1-2.38-2.38v-9.192h4.76v9.192a2.38,2.38,0,0,1-2.38,2.38" transform="translate(-1493.284 -1285.315)" fill="#d14842"/>
            <path id="Path_15575" data-name="Path 15575" d="M1300.418,1096.759h0a3.2,3.2,0,0,1-1.706-4.2l7.866-18.637,5.9,2.491-7.865,18.637a3.2,3.2,0,0,1-4.2,1.706" transform="translate(-1217.949 -989.504)" fill="#c3cdd1"/>
            <path id="Path_15576" data-name="Path 15576" d="M1310.249,1162.1l-.452-.19a2.135,2.135,0,0,1-1.137-2.8l5.675-13.446,5.114.123-6.4,15.173a2.135,2.135,0,0,1-2.8,1.137" transform="translate(-1227.193 -1055.607)" fill="#f05a5c"/>
            <path id="Path_15577" data-name="Path 15577" d="M1302.821,1316.452a3.013,3.013,0,0,0,.945.578c.408.1.872,1.27.947,1.437s-.39-.074-.575-.359-.312-.4-.367-.334a2.179,2.179,0,0,0,.342,1.275c.309.433.495.817.272.792s-1.547-.346-1.819-1.151-.073-.832-.7-1.66.953-.578.953-.578" transform="translate(-1220.954 -1212.933)" fill="#ffb27d"/>
            <path id="Path_15578" data-name="Path 15578" d="M1184.266,1067.781s-3.243.32-3.5,2.427,3.109,10.689,3.591,11.467c.878,1.415,6.051,6.264,6.051,6.264l.953-.578s-3.669-6.211-4.237-6.792c-.892-.912-1.758-12.059-2.856-12.789" transform="translate(-1109.492 -983.843)" fill="#ffb27d"/>
            <path id="Path_15579" data-name="Path 15579" d="M1181.93,1068.306s.333-5.433-3.825-4.119.645,10.658.645,10.658a3.951,3.951,0,0,0,3.306-2.25Z" transform="translate(-1105.493 -980.343)" fill="#a9b3b7"/>
            <rect id="Rectangle_2872" data-name="Rectangle 2872" width="29.071" height="1.047" transform="translate(83.172 119.396)" fill="#8b98a0"/>
            <rect id="Rectangle_2873" data-name="Rectangle 2873" width="1.361" height="3.364" transform="translate(83.172 120.185)" fill="#8b98a0"/>
            <rect id="Rectangle_2874" data-name="Rectangle 2874" width="1.551" height="4.153" transform="translate(110.692 119.396)" fill="#8b98a0"/>
            <path id="Path_15580" data-name="Path 15580" d="M1467.078,1251.83h-6.424a.284.284,0,1,1,0-.568h6.424a.284.284,0,0,1,0,.568" transform="translate(-1367.131 -1152.901)" fill="#a9b3b7"/>
            <path id="Path_15581" data-name="Path 15581" d="M1589.793,1251.83h-6.424a.284.284,0,0,1,0-.568h6.424a.284.284,0,1,1,0,.568" transform="translate(-1480.2 -1152.901)" fill="#a9b3b7"/>
            <path id="Path_15582" data-name="Path 15582" d="M1402.293,1074.953l-6.036-2.2a.284.284,0,0,1,.194-.534l6.037,2.2a.284.284,0,0,1-.195.534" transform="translate(-1307.886 -987.917)" fill="#a9b3b7"/>
            <path id="Path_15583" data-name="Path 15583" d="M591.479,1505.744c-.071.191-5.775.406-5.8-.2,0-.01,0-.02,0-.031s0-.032,0-.051a1.613,1.613,0,0,1,.013-.187.007.007,0,0,1,0,0c.016-.119.042-.236.068-.353a3.957,3.957,0,0,1,.179-.512,2.1,2.1,0,0,0,.194-.81c-.041-.83-.34-2.577-.34-2.577l1.641-.183a14.543,14.543,0,0,0,.571,2.951,3.115,3.115,0,0,0,1.939,1.358l.262.074c.691.19,1.338.353,1.274.523" transform="translate(-561.198 -1382.858)" fill="#f4a36c"/>
            <path id="Path_15584" data-name="Path 15584" d="M591.535,1547.591c-.071.191-.606.617-1.956.559s-1.087-.3-2.056-.212-1.818.052-1.845-.552c0-.01,0-.02,0-.031,0-.058.005-.142.014-.238a.008.008,0,0,1,0,0c.016-.118.042-.236.068-.353a3.941,3.941,0,0,1,.179-.512c.612.162,1.424.888,2.271,1a4.635,4.635,0,0,0,1.986-.174l.009-.012c.823.149,1.394.36,1.33.53" transform="translate(-561.198 -1424.698)" fill="#1f323d"/>
            <path id="Path_15585" data-name="Path 15585" d="M659.146,1166.69h0a.931.931,0,0,1-.931-.931v-5.879h1.862v5.879a.931.931,0,0,1-.931.931" transform="translate(-628.034 -1068.702)" fill="#c3cdd1"/>
            <path id="Path_15586" data-name="Path 15586" d="M661.95,1210.462h0a.692.692,0,0,1-.692-.692v-2.091h1.383v2.091a.692.692,0,0,1-.692.692" transform="translate(-630.838 -1112.744)" fill="#2f4858"/>
            <path id="Path_15587" data-name="Path 15587" d="M694.5,1166.69h0a.931.931,0,0,1-.931-.931v-5.879h1.862v5.879a.931.931,0,0,1-.931.931" transform="translate(-660.613 -1068.702)" fill="#c3cdd1"/>
            <path id="Path_15588" data-name="Path 15588" d="M697.309,1203.66h0a.692.692,0,0,1-.692-.692V1200.3H698v2.672a.692.692,0,0,1-.692.692" transform="translate(-663.417 -1105.942)" fill="#2f4858"/>
            <path id="Path_15589" data-name="Path 15589" d="M627.153,1166.69h0a.931.931,0,0,1-.931-.931v-5.879h1.862v5.879a.931.931,0,0,1-.931.931" transform="translate(-598.556 -1068.702)" fill="#c3cdd1"/>
            <path id="Path_15590" data-name="Path 15590" d="M629.957,1203.66h0a.692.692,0,0,1-.692-.692V1200.3h1.383v2.672a.692.692,0,0,1-.692.692" transform="translate(-601.36 -1105.942)" fill="#2f4858"/>
            <rect id="Rectangle_2875" data-name="Rectangle 2875" width="0.524" height="1.555" transform="translate(26.506 97.008)" fill="#2f4858"/>
            <rect id="Rectangle_2876" data-name="Rectangle 2876" width="0.523" height="1.555" transform="translate(35.459 97.008)" fill="#2f4858"/>
            <rect id="Rectangle_2877" data-name="Rectangle 2877" width="9.477" height="0.454" transform="translate(26.506 97.008)" fill="#2f4858"/>
            <path id="Path_15591" data-name="Path 15591" d="M381.287,980.031a3.069,3.069,0,0,0-2.179-.207c-2.33.716-1.207,2.63-2.388,3.4s-2.26,3.113-1.515,4.313,1.835,2.224,2.5,1.4a5.492,5.492,0,0,0,1.331-3.505c.005-1.4.568-4.247,1.531-4.029s.723-1.375.723-1.375" transform="translate(-367.046 -902.693)" fill="#233862"/>
            <path id="Path_15592" data-name="Path 15592" d="M434.812,985.282s-1.124-2.51-3.452-2.067-2.648,4.807-1.114,5.37c1.067.391,4.566-3.3,4.566-3.3" transform="translate(-417.119 -905.876)" fill="#233862"/>
            <g id="Group_9672" data-name="Group 9672" transform="translate(0 89.536)" opacity="0.5">
              <g id="Group_9671" data-name="Group 9671">
                <g id="Group_9670" data-name="Group 9670" clip-path="url(#clip-path-2)">
                  <path id="Path_15593" data-name="Path 15593" d="M298.164,1155.448h-6.395l-3.883-13.424a4.043,4.043,0,0,0-3.792-2.919l-6.724-.117a2.9,2.9,0,0,0-3.039,3.354l1.805,30.211a.372.372,0,0,0,.376.4h.027a.243.243,0,0,0,.249-.2l.266-14.911h11.5l2.132,14.911a.243.243,0,0,0,.249.2h.027a.372.372,0,0,0,.376-.4l-1.473-14.714h8.3a.553.553,0,0,0,.552-.551V1156a.553.553,0,0,0-.552-.552" transform="translate(-274.281 -1138.987)" fill="#94b0ed"/>
                </g>
              </g>
            </g>
            <path id="Path_15594" data-name="Path 15594" d="M404,1140.311l2.151,5.443s2.073,2.443,3.739,1.655l-5.271-10.236Z" transform="translate(-393.803 -1047.78)" fill="#abddda"/>
            <path id="Path_15595" data-name="Path 15595" d="M373.517,1230.479c-1.562-1.553-11.266-5.657-14.542-6.008l-3.745-1.369a22,22,0,0,0-1.551,7.148c-.011,1.629,2,2.7.478,2.7,0,0,13.254-.052,13.763,0,.833.086.364,2.049.639,3.939s3.742,9.827,3.742,9.827a6.073,6.073,0,0,0,1.476.3,1.473,1.473,0,0,0,.734-.2s.9-14.451-1-16.336" transform="translate(-347.438 -1126.954)" fill="#1f323d"/>
            <path id="Path_15596" data-name="Path 15596" d="M550.526,1507.911c.027.6,5.73.389,5.8.2.063-.17-.583-.333-1.275-.523l-.261-.073a3.116,3.116,0,0,1-1.938-1.358,14.55,14.55,0,0,1-.571-2.951l-1.641.182s.3,1.747.341,2.577a5.285,5.285,0,0,1-.373,1.323,2.361,2.361,0,0,0-.082.625" transform="translate(-528.809 -1385.037)" fill="#ffb27d"/>
            <path id="Path_15597" data-name="Path 15597" d="M552.371,1556.306c.969-.083.7.153,2.055.212s1.885-.367,1.956-.559c.063-.17-.507-.381-1.33-.53l-.009.012a3.789,3.789,0,0,1-1.993.3c-.9-.117-1.819-.523-2.443-.609a2.36,2.36,0,0,0-.082.625c.027.6.877.636,1.845.552" transform="translate(-528.809 -1432.88)" fill="#1f323d"/>
            <path id="Path_15598" data-name="Path 15598" d="M360.226,1226.369c-.918-.959-7-2.926-10.083-3.93-.743-.242-7.963-3.82-7.963-3.82s-1.141,10.2.236,10.214c2.58.026,12.568.48,12.959.508,1.183.085.561,2.822,1.029,4.992.479,2.22,1.863,8.253,1.863,8.253a6.073,6.073,0,0,0,1.476.3,1.475,1.475,0,0,0,.734-.2s1.6-14.382-.253-16.315" transform="translate(-336.434 -1122.823)" fill="#2f4858"/>
            <path id="Path_15599" data-name="Path 15599" d="M424.9,1052.376s-.059.412-.152.923c-.056.306-.124.648-.2.957a5.119,5.119,0,0,1-.2.659c-.246.609-.439,1.2-.326,1.323a3.294,3.294,0,0,1-2.01-.406,3.638,3.638,0,0,1-.948-1.888c.367-.067.8-.148,1.549-2.053l.134.086Z" transform="translate(-409.529 -969.202)" fill="#ffb27d"/>
            <path id="Path_15600" data-name="Path 15600" d="M443.084,1055.341c-.056.306-.124.648-.2.957a4.35,4.35,0,0,1-1.918-2.191Z" transform="translate(-427.864 -971.244)" fill="#ed975d"/>
            <path id="Path_15601" data-name="Path 15601" d="M441.788,1007.012s-3.2-.538-2.834-2.526.2-3.4,2.258-3.136,2.315,1.091,2.354,1.784-.936,3.967-1.777,3.878" transform="translate(-425.982 -922.606)" fill="#ffb27d"/>
            <path id="Path_15602" data-name="Path 15602" d="M437.616,1000.051s-2.117,1.7-3.521,1.8-1.54-.552-1.54-.552a6.4,6.4,0,0,0,1-1.564.985.985,0,0,1,.831-.553c1-.053,2.9-.03,3.229.868" transform="translate(-420.113 -920.622)" fill="#233862"/>
            <path id="Path_15603" data-name="Path 15603" d="M480.638,1003.643a5.07,5.07,0,0,1,.867,1.189,3.893,3.893,0,0,1,.037,2.072s1.142-2.05.568-3.083a.857.857,0,0,0-1.471-.178" transform="translate(-464.416 -924.415)" fill="#233862"/>
            <path id="Path_15604" data-name="Path 15604" d="M350.522,1079.269c0-1.344-2-2.61-2-2.61s-.486,1.334-2.846-1.117c-.084-.087-5.57,3.538-5.57,3.538s-.92,4.7-1.122,6.848a53.066,53.066,0,0,0,.159,11.582s7.92,1.41,13.15-6.792c0,0-1.849-4.232-1.849-5.411,0-.761.076-5.437.078-6.039" transform="translate(-333.682 -990.992)" fill="#c3cdd1"/>
            <path id="Path_15605" data-name="Path 15605" d="M353.68,1222.008s2.237,2.988,8.681,2.465l-3-2.842Z" transform="translate(-347.439 -1125.599)" fill="#a4b2ba"/>
            <path id="Path_15606" data-name="Path 15606" d="M392.666,1169.125l-.729.941a37.178,37.178,0,0,1-3.778-1.448c-1.574-.621-.833-4.547-.334-3.218.664,1.77,2.874,2.726,4.841,3.724" transform="translate(-378.33 -1073.537)" fill="#a4b2ba"/>
            <rect id="Rectangle_2879" data-name="Rectangle 2879" width="2.232" height="8.108" transform="matrix(0.908, -0.418, 0.418, 0.908, 17.596, 85.502)" fill="#2f4858"/>
            <rect id="Rectangle_2880" data-name="Rectangle 2880" width="1.067" height="3.874" transform="translate(17.697 84.13) rotate(-24.735)" fill="#2f4858"/>
            <path id="Path_15607" data-name="Path 15607" d="M448.7,1109.358l1.771-.273a15.017,15.017,0,0,1,.363-5.929,5.077,5.077,0,0,1,3.828-3.078l-.271-1.772c-.165.025-4.054.66-5.258,4.284a16.609,16.609,0,0,0-.434,6.768" transform="translate(-434.831 -1011.968)" fill="#2f4858"/>
            <path id="Path_15608" data-name="Path 15608" d="M415.372,1231.5h7.663v-.434a1.6,1.6,0,0,0-1.6-1.6H417.3a1.93,1.93,0,0,0-1.93,1.93Z" transform="translate(-404.281 -1132.816)" fill="#2f4858"/>
            <rect id="Rectangle_2881" data-name="Rectangle 2881" width="8.292" height="0.597" transform="translate(14.922 94.315)" fill="#2f4858"/>
            <rect id="Rectangle_2882" data-name="Rectangle 2882" width="5.75" height="1.019" transform="translate(17.464 97.667)" fill="#2f4858"/>
            <rect id="Rectangle_2883" data-name="Rectangle 2883" width="1.817" height="0.415" transform="translate(19.704 97.253)" fill="#2f4858"/>
            <path id="Path_15609" data-name="Path 15609" d="M497.253,1232.527a4.1,4.1,0,0,0,.59.641.435.435,0,0,0,.24.051l-.3-.539Z" transform="translate(-479.725 -1135.638)" fill="#ffb27d"/>
            <path id="Path_15610" data-name="Path 15610" d="M495.948,1225.023l1.291.627a.23.23,0,0,1-.214.083,3.061,3.061,0,0,1-.56-.154Z" transform="translate(-478.523 -1128.724)" fill="#ffb27d"/>
            <path id="Path_15611" data-name="Path 15611" d="M464.636,1224.789a9.017,9.017,0,0,1,2.461-.284,4.978,4.978,0,0,1,1.282,1.111c.1.238-.761-.181-1.043-.256a2.51,2.51,0,0,0-.9.2,2.992,2.992,0,0,1-1.613.162Z" transform="translate(-449.672 -1128.206)" fill="#ffb27d"/>
            <rect id="Rectangle_2884" data-name="Rectangle 2884" width="30.015" height="0.847" transform="translate(7.957 98.551)" fill="#2f4858"/>
            <path id="Path_15612" data-name="Path 15612" d="M734.845,1286.1c-.062-.088-.191-.272-1-12.571-.4-6.058-.771-12.148-.775-12.209l.317-.019c.4,6.639,1.5,24.006,1.731,24.639a.1.1,0,0,0-.012-.022Z" transform="translate(-697.004 -1162.153)" fill="#2f4858"/>
            <path id="Path_15613" data-name="Path 15613" d="M369.03,1285.965l-.26-.183a.106.106,0,0,0-.012.021c.227-.63,1.367-17.9,1.787-24.505l.317.02c0,.06-.389,6.117-.8,12.142-.839,12.233-.968,12.416-1.03,12.5" transform="translate(-361.331 -1162.149)" fill="#2f4858"/>
            <path id="Path_15614" data-name="Path 15614" d="M350.295,1075.559s-3.235,0-4.307,1.074c-1.682,1.683-2.966,9.046-1.738,10.525,1.383,1.665,9.247,1.752,9.247,1.752s.189-.343-.232-1.317c-.088-.2-5.135-2.234-5.289-2.5a21.864,21.864,0,0,1-.116-4.695c.174-.634,2.436-4.836,2.436-4.836" transform="translate(-338.3 -991.009)" fill="#c3cdd1"/>
            <path id="Path_15615" data-name="Path 15615" d="M1396.979,412.97a.462.462,0,0,1,.082.494,0,0,0,0,1,0,0,3.067,3.067,0,0,1-.969,1.064c-.059.047-.11.09-.156.13l-.035.031-.027.024c-.426.393-.266.483-1.031,1.28-.873.908-1.474.925-1.645.842-.145-.071.149-.552.475-1.094l.047-.079.13-.217c.382-.652.284-.957.193-1.927-.074-.788-1.226-4.4-1.226-4.4l1.673-.288s.5,2.878,1.059,3.322c.3.236.629.239.914.414l.059.037a2.193,2.193,0,0,1,.458.368" transform="translate(-1304.887 -376.69)" fill="#ffb27d"/>
            <path id="Path_15616" data-name="Path 15616" d="M1401,457.2a.462.462,0,0,1,.082.494v0a3.553,3.553,0,0,1-.971,1.06c-.058.048-.109.092-.154.133l-.035.031-.027.024c-.426.393-.266.483-1.031,1.28-.873.908-1.474.925-1.645.842-.145-.071.149-.552.475-1.094a3.72,3.72,0,0,0,1.556-1.147c.506-.646.851-1.47,1.2-1.976l.1-.018a2.2,2.2,0,0,1,.458.368" transform="translate(-1308.909 -420.922)" fill="#233862"/>
            <path id="Path_15617" data-name="Path 15617" d="M1215.31,405.956c-.1.516-.84.43-1.662.229s-.627.038-1.8-.092-1.525-.566-1.561-.74c-.032-.154.546-.209,1.167-.28l.235-.028a5.068,5.068,0,0,0,1.85-.911,7.432,7.432,0,0,0,1.5-1.784l1.605.127s-.842,1.279-1.168,1.836a1.939,1.939,0,0,0-.158,1.094,2.064,2.064,0,0,1-.012.549" transform="translate(-1136.709 -370.722)" fill="#ffb27d"/>
            <path id="Path_15618" data-name="Path 15618" d="M1213.647,438.1c-.822-.2-.627.038-1.8-.092s-1.525-.566-1.561-.74c-.032-.154.547-.209,1.167-.28l.006.012a3.3,3.3,0,0,0,1.676.521c.794.019,1.635-.208,2.184-.2a2.064,2.064,0,0,1-.012.549c-.1.516-.839.43-1.662.229" transform="translate(-1136.708 -402.64)" fill="#233862"/>
            <path id="Path_15619" data-name="Path 15619" d="M1352.423,287.487l1.5,4.038,1.959,5.272a3.177,3.177,0,0,0,1.041-.1,4.507,4.507,0,0,0,1.006-.49,57.289,57.289,0,0,0-1.559-8.911,5.788,5.788,0,0,0-.873-1.889c-1.573-1.859-3.075,2.074-3.075,2.074" transform="translate(-1267.67 -262.517)" fill="#2e3552"/>
            <path id="Path_15620" data-name="Path 15620" d="M1267.822,226.618c.854-.276,3.083,0,5.5.433a1.64,1.64,0,0,0,1.693-.765l6.084-.475s2.424,4.818.616,7.265c-1.056,1.43-4.615,1.225-5.693,1a43.227,43.227,0,0,1-6.77-2.456c-.715-.143-1,1.287-1.716,2.789s-6.723,6.651-6.723,6.651a5.287,5.287,0,0,1-1.3-.134,1.285,1.285,0,0,1-.56-.354s6.657-13.244,8.874-13.959" transform="translate(-1181.543 -208.061)" fill="#2f4858"/>
            <path id="Path_15621" data-name="Path 15621" d="M1437.186,174.623a11.416,11.416,0,0,1-.928,5.1,11.5,11.5,0,0,1-9.566-8.254,2.823,2.823,0,0,0,2.292-1.036l6.593-4.206.4-.256.413-.263s.123.666.274,1.74a54.961,54.961,0,0,1,.508,5.842c.013.441.018.886.015,1.331" transform="translate(-1336.101 -152.684)" fill="#c3cdd1"/>
            <path id="Path_15622" data-name="Path 15622" d="M1445.263,9.852c2.167,1.193,6.562,3.666,6.584,3.65,0,0,1.615.609,2.532,0,1.527-1.014,2.347-3.745-.447-6.094-1.393-1.172-2.383-1.457-2.533-3.328-.082-1.019-1.48-4.392-3.8-4.051a3.237,3.237,0,0,1-.561.034,2.158,2.158,0,0,0-1.162.3c-1.3.777-3.859,9.025-.611,9.487" transform="translate(-1351.755 -0.004)" fill="#152949"/>
            <path id="Path_15623" data-name="Path 15623" d="M1483.656,72.43a2.864,2.864,0,0,0,1.785.055,3.182,3.182,0,0,0,1.179-1.413c-.308-.014-.659-.506-.906-2.049l-.131.047-2.2.793s.16.707.263,1.38c.087.565.134,1.107.013,1.187" transform="translate(-1388.333 -63.597)" fill="#ffb27d"/>
            <path id="Path_15624" data-name="Path 15624" d="M1483.381,70.415s.088.381.216,1.094a2.488,2.488,0,0,0,1.987-1.887Z" transform="translate(-1388.334 -64.149)" fill="#ed975d"/>
            <path id="Path_15625" data-name="Path 15625" d="M1461.065,26.479s3.014-.4,2.734-2.278-.081-3.187-2.018-3.008-2.2.95-2.261,1.6.753,3.745,1.545,3.688" transform="translate(-1366.346 -19.512)" fill="#ffb27d"/>
            <path id="Path_15626" data-name="Path 15626" d="M1460.952,19.823s1.93,1.663,3.242,1.8a2.517,2.517,0,0,0,1.81-.287,5.125,5.125,0,0,1-1.239-1.679.924.924,0,0,0-.761-.544c-.937-.081-2.714-.118-3.052.713" transform="translate(-1367.668 -17.571)" fill="#152949"/>
            <path id="Path_15627" data-name="Path 15627" d="M1458.029,22.529a4.747,4.747,0,0,0-.849,1.087,3.65,3.65,0,0,0-.1,1.94s-1.006-1.956-.436-2.906a.8.8,0,0,1,1.384-.121" transform="translate(-1363.538 -20.426)" fill="#152949"/>
            <path id="Path_15628" data-name="Path 15628" d="M1454.6,99.9c.091,6.1.025,4.827.692,5.406a2.562,2.562,0,0,0,1.208.262c1.871.124,5.16-.184,5.286-.53.432-1.2.127-1.568.487-3.4.038-.195.084-.406.139-.635.3-1.258.592-1.686-.473-3.707a16.519,16.519,0,0,0-2.041-3.276c-2.548,1.513-2.773.254-2.773.254s-2.57,2.65-2.525,5.627" transform="translate(-1361.81 -86.631)" fill="#c3cdd1"/>
            <path id="Path_15629" data-name="Path 15629" d="M1371.512,319.512l1.959,5.272a3.174,3.174,0,0,0,1.041-.1,4.513,4.513,0,0,0,1.006-.49,57.289,57.289,0,0,0-1.559-8.911Z" transform="translate(-1285.259 -290.504)" fill="#2f4858"/>
            <path id="Path_15630" data-name="Path 15630" d="M1440.016,97.263s-2.312.339-2.642,1.614c-.293,1.133-1.343,7.554-1.343,7.554s.473,1.111,1.089.495,1.938-6.412,1.938-6.412Z" transform="translate(-1344.706 -89.617)" fill="#c3cdd1"/>
            <path id="Path_15631" data-name="Path 15631" d="M1469.177,229.2a3.568,3.568,0,0,1-.514.558.379.379,0,0,1-.209.045l.261-.469Z" transform="translate(-1374.581 -211.186)" fill="#ffb27d"/>
            <path id="Path_15632" data-name="Path 15632" d="M1465.6,222.667l-1.125.546a.2.2,0,0,0,.186.072,2.684,2.684,0,0,0,.488-.134Z" transform="translate(-1370.913 -205.163)" fill="#ffb27d"/>
            <path id="Path_15633" data-name="Path 15633" d="M1495.971,173.193c-1.74-.138-6.128-1.617-5.378-2.66.347-.483,2.671-.7,3.871-2.228.323-.413-.041-1.538-.088-2.175-.02-.275-.006-.474.088-.519s.2.074.312.263a9.516,9.516,0,0,1,.628,1.491l.058-.014a54.921,54.921,0,0,1,.508,5.842" transform="translate(-1394.9 -152.584)" fill="#a4b2ba"/>
            <path id="Path_15634" data-name="Path 15634" d="M1467.743,222.462a7.85,7.85,0,0,0-2.144-.247,4.334,4.334,0,0,0-1.117.968c-.091.208.663-.158.908-.223a2.186,2.186,0,0,1,.784.172,2.605,2.605,0,0,0,1.405.141Z" transform="translate(-1370.913 -204.711)" fill="#ffb27d"/>
            <path id="Path_15635" data-name="Path 15635" d="M1502.641,94.04s2.461.164,3.32,1.361c1.208,1.685,2.5,8.889,1.131,9.847-1.547,1.078-5.939.258-5.939.258s-.411-1.221.072-1.268c1.308-.125,3.866-.669,3.842-1.24-.036-.868-1.648-3.75-1.648-4.322s-.777-4.635-.777-4.635" transform="translate(-1404.558 -86.648)" fill="#c3cdd1"/>
            <path id="Path_15636" data-name="Path 15636" d="M1356.619,239h11.747v.259h-11.643Z" transform="translate(-1271.536 -220.211)" fill="#f05a5c"/>
            <path id="Path_15637" data-name="Path 15637" d="M1335.475,164.3h-8.9l-2.676-6.655h8.882Z" transform="translate(-1241.392 -145.252)" fill="#f05a5c"/>
            <path id="Path_15638" data-name="Path 15638" d="M1386.31,195.006a.308.308,0,0,1,.3-.423.607.607,0,0,1,.545.423.308.308,0,0,1-.3.424.607.607,0,0,1-.545-.424" transform="translate(-1298.878 -179.287)" fill="#fff"/>
            <path id="Path_15639" data-name="Path 15639" d="M553.485,244.966H511.557a3.96,3.96,0,0,1-3.96-3.96V215.547a3.96,3.96,0,0,1,3.96-3.96h41.929a3.96,3.96,0,0,1,3.96,3.96v25.459a3.96,3.96,0,0,1-3.96,3.96" transform="translate(-489.256 -194.954)" fill="#c3cdd1"/>
            <path id="Path_15640" data-name="Path 15640" d="M670.393,253.2s1.448-1.083,4.064.393a2.889,2.889,0,0,1,1.664,1.858,2.431,2.431,0,0,0,.463.969,3.048,3.048,0,0,1,.66,1.658,2.859,2.859,0,0,0,.344,1.145,3.527,3.527,0,0,1,.375,2.046,3.325,3.325,0,0,1,.366,2.956,2.934,2.934,0,0,1-.482,2.433,1.858,1.858,0,0,1-1.036,1.965,3,3,0,0,1-2.626,1.624,2.514,2.514,0,0,0-.828.187,3.131,3.131,0,0,1-2.012.043c-1.57-.419-1.412-1.384-1.412-1.384V253.431Z" transform="translate(-638.826 -232.939)" fill="#f05a5c"/>
            <path id="Path_15641" data-name="Path 15641" d="M570.412,253.2s-1.448-1.083-4.064.393a2.863,2.863,0,0,0-1.684,1.954,1.752,1.752,0,0,1-.386.8,3.051,3.051,0,0,0-.724,1.871,1.824,1.824,0,0,1-.27.888,3.312,3.312,0,0,0-.459,1.705,1.816,1.816,0,0,1-.189.782,3.876,3.876,0,0,0-.159,2.627,2.961,2.961,0,0,0,.224,2.019,2.394,2.394,0,0,1,.253.877,1.743,1.743,0,0,0,.7,1.318,2.482,2.482,0,0,1,.581.572,3.035,3.035,0,0,0,2.279,1.228,3.709,3.709,0,0,1,1,.219,3.183,3.183,0,0,0,1.948.018c1.569-.419,1.412-1.384,1.412-1.384V253.431Z" transform="translate(-539.69 -232.939)" fill="#f05a5c"/>
            <g id="Group_9675" data-name="Group 9675" transform="translate(25.629 26.506)" opacity="0.8">
              <g id="Group_9674" data-name="Group 9674">
                <g id="Group_9673" data-name="Group 9673" clip-path="url(#clip-path-3)">
                  <path id="Path_15642" data-name="Path 15642" d="M604.273,340.677a2.386,2.386,0,0,1-1.807-1.3l-.005-.009a.794.794,0,0,1,.264-1.057.676.676,0,0,0,.173-.151,3.484,3.484,0,0,1-1.686-.273,2.538,2.538,0,0,1-.907-.7,1.632,1.632,0,0,0,.5.93,1.739,1.739,0,0,0,.658.326c.228.051.325.28.409.5a4.478,4.478,0,0,0,.282.6,3.312,3.312,0,0,0,.7.872,2.04,2.04,0,0,0-.954.869,1.922,1.922,0,0,0-.231.664,2.859,2.859,0,0,1,.591-.734,1.819,1.819,0,0,1,1.3-.46,3.075,3.075,0,0,0,.711-.073" transform="translate(-600.305 -337.189)" fill="#d3424a"/>
                </g>
              </g>
            </g>
            <g id="Group_9678" data-name="Group 9678" transform="translate(25.196 30.438)" opacity="0.8">
              <g id="Group_9677" data-name="Group 9677">
                <g id="Group_9676" data-name="Group 9676" clip-path="url(#clip-path-4)">
                  <path id="Path_15643" data-name="Path 15643" d="M596.465,389.532c-.036,0-.072,0-.109,0a1.592,1.592,0,0,1-1.213-.67,1.487,1.487,0,0,1-.191-1.59l.006-.013c.072-.152.112.132.1.3a1.8,1.8,0,0,0,.609,1.215,2.519,2.519,0,0,0,1.551.357c.186.006.343.019.177.132a1.772,1.772,0,0,1-.933.272" transform="translate(-594.804 -387.213)" fill="#d3424a"/>
                </g>
              </g>
            </g>
            <g id="Group_9681" data-name="Group 9681" transform="translate(28.215 24.682)" opacity="0.8">
              <g id="Group_9680" data-name="Group 9680">
                <g id="Group_9679" data-name="Group 9679" clip-path="url(#clip-path-5)">
                  <path id="Path_15644" data-name="Path 15644" d="M634.066,316.065l-.078-.031a1.234,1.234,0,0,1-.712-.8,1.152,1.152,0,0,1,.273-1.211l.008-.008c.092-.092.048.126,0,.246a1.4,1.4,0,0,0,.129,1.045,1.952,1.952,0,0,0,1.04.663c.134.053.246.1.1.142a1.373,1.373,0,0,1-.752-.043" transform="translate(-633.211 -313.99)" fill="#d3424a"/>
                </g>
              </g>
            </g>
            <g id="Group_9684" data-name="Group 9684" transform="translate(23.967 32.857)" opacity="0.8">
              <g id="Group_9683" data-name="Group 9683">
                <g id="Group_9682" data-name="Group 9682" clip-path="url(#clip-path-6)">
                  <path id="Path_15645" data-name="Path 15645" d="M581.047,419.784a.364.364,0,0,1-.482-.13,8.019,8.019,0,0,0-1.4-1.674,4.491,4.491,0,0,1,1.883,1.8" transform="translate(-579.164 -417.98)" fill="#d3424a"/>
                </g>
              </g>
            </g>
            <g id="Group_9687" data-name="Group 9687" transform="translate(28.551 32.235)" opacity="0.8">
              <g id="Group_9686" data-name="Group 9686">
                <g id="Group_9685" data-name="Group 9685" clip-path="url(#clip-path-7)">
                  <path id="Path_15646" data-name="Path 15646" d="M638.788,411.723a1.026,1.026,0,0,1-.308-.845,3.989,3.989,0,0,1,.12-.813,1.355,1.355,0,0,0-.346,1.526c-.493-.011-.779.552-.779.552a1.829,1.829,0,0,1,.347-.139,1.2,1.2,0,0,1,.7-.014.893.893,0,0,1,.52.544.714.714,0,0,0-.25-.811" transform="translate(-637.475 -410.065)" fill="#d3424a"/>
                </g>
              </g>
            </g>
            <g id="Group_9690" data-name="Group 9690" transform="translate(25.465 23.402)" opacity="0.8">
              <g id="Group_9689" data-name="Group 9689">
                <g id="Group_9688" data-name="Group 9688" clip-path="url(#clip-path-8)">
                  <path id="Path_15647" data-name="Path 15647" d="M599,298.949a1.026,1.026,0,0,1,.8-.411,3.986,3.986,0,0,1,.822.017,1.355,1.355,0,0,0-1.557-.152c-.05-.49-.645-.7-.645-.7a1.824,1.824,0,0,1,.181.327,1.194,1.194,0,0,1,.1.688.893.893,0,0,1-.475.584.714.714,0,0,0,.773-.35" transform="translate(-598.225 -297.698)" fill="#d3424a"/>
                </g>
              </g>
            </g>
            <g id="Group_9693" data-name="Group 9693" transform="translate(23.455 28.493)" opacity="0.8">
              <g id="Group_9692" data-name="Group 9692">
                <g id="Group_9691" data-name="Group 9691" clip-path="url(#clip-path-8)">
                  <path id="Path_15648" data-name="Path 15648" d="M573.421,363.722a1.027,1.027,0,0,1,.8-.411,3.993,3.993,0,0,1,.822.017,1.356,1.356,0,0,0-1.557-.152c-.05-.49-.645-.7-.645-.7a1.828,1.828,0,0,1,.181.327,1.194,1.194,0,0,1,.1.688.893.893,0,0,1-.475.584.714.714,0,0,0,.773-.35" transform="translate(-572.648 -362.471)" fill="#d3424a"/>
                </g>
              </g>
            </g>
            <g id="Group_9696" data-name="Group 9696" transform="translate(28.352 20.491)" opacity="0.8">
              <g id="Group_9695" data-name="Group 9695">
                <g id="Group_9694" data-name="Group 9694" clip-path="url(#clip-path-10)">
                  <path id="Path_15649" data-name="Path 15649" d="M635.3,262.745a1.281,1.281,0,0,0,.385-1.055,4.982,4.982,0,0,0-.149-1.015,1.693,1.693,0,0,1,.432,1.905c.615-.014.973.689.973.689a2.272,2.272,0,0,0-.434-.173,1.49,1.49,0,0,0-.869-.018,1.115,1.115,0,0,0-.65.68.892.892,0,0,1,.312-1.013" transform="translate(-634.941 -260.674)" fill="#d3424a"/>
                </g>
              </g>
            </g>
            <g id="Group_9699" data-name="Group 9699" transform="translate(26.394 33.658)" opacity="0.8">
              <g id="Group_9698" data-name="Group 9698">
                <g id="Group_9697" data-name="Group 9697" clip-path="url(#clip-path-11)">
                  <path id="Path_15650" data-name="Path 15650" d="M610.377,430.1a1.2,1.2,0,0,0,.359-.985,4.644,4.644,0,0,0-.139-.948,1.58,1.58,0,0,1,.4,1.779c.574-.013.908.643.908.643a2.136,2.136,0,0,0-.405-.162,1.392,1.392,0,0,0-.811-.017,1.041,1.041,0,0,0-.607.635.832.832,0,0,1,.292-.945" transform="translate(-610.042 -428.172)" fill="#d3424a"/>
                </g>
              </g>
            </g>
            <g id="Group_9702" data-name="Group 9702" transform="translate(32.68 26.506)" opacity="0.8">
              <g id="Group_9701" data-name="Group 9701">
                <g id="Group_9700" data-name="Group 9700" clip-path="url(#clip-path-3)">
                  <path id="Path_15651" data-name="Path 15651" d="M690,340.677a2.386,2.386,0,0,0,1.807-1.3l.005-.009a.793.793,0,0,0-.264-1.057.675.675,0,0,1-.173-.151,3.484,3.484,0,0,0,1.686-.273,2.539,2.539,0,0,0,.907-.7,1.632,1.632,0,0,1-.5.93,1.739,1.739,0,0,1-.658.326c-.228.051-.325.28-.409.5a4.476,4.476,0,0,1-.282.6,3.314,3.314,0,0,1-.7.872,2.038,2.038,0,0,1,.954.869,1.924,1.924,0,0,1,.231.664,2.861,2.861,0,0,0-.591-.734,1.819,1.819,0,0,0-1.3-.46,3.076,3.076,0,0,1-.711-.073" transform="translate(-690 -337.189)" fill="#d3424a"/>
                </g>
              </g>
            </g>
            <g id="Group_9705" data-name="Group 9705" transform="translate(34.417 30.438)" opacity="0.8">
              <g id="Group_9704" data-name="Group 9704">
                <g id="Group_9703" data-name="Group 9703" clip-path="url(#clip-path-4)">
                  <path id="Path_15652" data-name="Path 15652" d="M713.1,389.532c.036,0,.072,0,.109,0a1.591,1.591,0,0,0,1.213-.67,1.487,1.487,0,0,0,.191-1.59l-.006-.013c-.072-.152-.112.132-.1.3a1.8,1.8,0,0,1-.609,1.215,2.519,2.519,0,0,1-1.551.357c-.186.006-.343.019-.177.132a1.772,1.772,0,0,0,.933.272" transform="translate(-712.097 -387.213)" fill="#d3424a"/>
                </g>
              </g>
            </g>
            <g id="Group_9708" data-name="Group 9708" transform="translate(32.382 24.682)" opacity="0.8">
              <g id="Group_9707" data-name="Group 9707">
                <g id="Group_9706" data-name="Group 9706" clip-path="url(#clip-path-5)">
                  <path id="Path_15653" data-name="Path 15653" d="M687.039,316.065l.079-.031a1.234,1.234,0,0,0,.712-.8,1.153,1.153,0,0,0-.273-1.211l-.008-.008c-.092-.092-.048.126,0,.246a1.4,1.4,0,0,1-.129,1.045,1.953,1.953,0,0,1-1.04.663c-.134.053-.246.1-.1.142a1.373,1.373,0,0,0,.752-.043" transform="translate(-686.214 -313.99)" fill="#d3424a"/>
                </g>
              </g>
            </g>
            <g id="Group_9711" data-name="Group 9711" transform="translate(36.215 32.966)" opacity="0.8">
              <g id="Group_9710" data-name="Group 9710">
                <g id="Group_9709" data-name="Group 9709" clip-path="url(#clip-path-15)">
                  <path id="Path_15654" data-name="Path 15654" d="M734.973,420.47a.364.364,0,0,0,.5.031,8.03,8.03,0,0,1,1.862-1.138,4.492,4.492,0,0,0-2.36,1.107" transform="translate(-734.973 -419.363)" fill="#d3424a"/>
                </g>
              </g>
            </g>
            <g id="Group_9714" data-name="Group 9714" transform="translate(32.125 32.235)" opacity="0.8">
              <g id="Group_9713" data-name="Group 9713">
                <g id="Group_9712" data-name="Group 9712" clip-path="url(#clip-path-7)">
                  <path id="Path_15655" data-name="Path 15655" d="M683.229,411.723a1.026,1.026,0,0,0,.308-.845,3.987,3.987,0,0,0-.12-.813,1.355,1.355,0,0,1,.346,1.526c.492-.011.779.552.779.552a1.831,1.831,0,0,0-.347-.139,1.194,1.194,0,0,0-.7-.014.893.893,0,0,0-.521.544.714.714,0,0,1,.25-.811" transform="translate(-682.941 -410.065)" fill="#d3424a"/>
                </g>
              </g>
            </g>
            <g id="Group_9717" data-name="Group 9717" transform="translate(34.417 23.402)" opacity="0.8">
              <g id="Group_9716" data-name="Group 9716">
                <g id="Group_9715" data-name="Group 9715" clip-path="url(#clip-path-8)">
                  <path id="Path_15656" data-name="Path 15656" d="M713.72,298.949a1.026,1.026,0,0,0-.8-.411,3.986,3.986,0,0,0-.822.017,1.355,1.355,0,0,1,1.557-.152c.05-.49.645-.7.645-.7a1.829,1.829,0,0,0-.181.327,1.193,1.193,0,0,0-.1.688.893.893,0,0,0,.475.584.714.714,0,0,1-.773-.35" transform="translate(-712.098 -297.698)" fill="#d3424a"/>
                </g>
              </g>
            </g>
            <g id="Group_9720" data-name="Group 9720" transform="translate(36.427 28.493)" opacity="0.8">
              <g id="Group_9719" data-name="Group 9719">
                <g id="Group_9718" data-name="Group 9718" clip-path="url(#clip-path-8)">
                  <path id="Path_15657" data-name="Path 15657" d="M739.3,363.722a1.026,1.026,0,0,0-.8-.411,3.992,3.992,0,0,0-.822.017,1.355,1.355,0,0,1,1.557-.152c.051-.49.645-.7.645-.7a1.841,1.841,0,0,0-.181.327,1.2,1.2,0,0,0-.1.688.893.893,0,0,0,.475.584.714.714,0,0,1-.773-.35" transform="translate(-737.674 -362.471)" fill="#d3424a"/>
                </g>
              </g>
            </g>
            <g id="Group_9723" data-name="Group 9723" transform="translate(31.926 20.491)" opacity="0.8">
              <g id="Group_9722" data-name="Group 9722">
                <g id="Group_9721" data-name="Group 9721" clip-path="url(#clip-path-10)">
                  <path id="Path_15658" data-name="Path 15658" d="M682.048,262.745a1.281,1.281,0,0,1-.385-1.055,4.987,4.987,0,0,1,.149-1.015,1.693,1.693,0,0,0-.432,1.905c-.615-.014-.973.689-.973.689a2.279,2.279,0,0,1,.434-.173,1.49,1.49,0,0,1,.869-.018,1.115,1.115,0,0,1,.65.68.892.892,0,0,0-.312-1.013" transform="translate(-680.408 -260.674)" fill="#d3424a"/>
                </g>
              </g>
            </g>
            <g id="Group_9726" data-name="Group 9726" transform="translate(34.016 33.658)" opacity="0.8">
              <g id="Group_9725" data-name="Group 9725">
                <g id="Group_9724" data-name="Group 9724" clip-path="url(#clip-path-11)">
                  <path id="Path_15659" data-name="Path 15659" d="M708.527,430.1a1.2,1.2,0,0,1-.359-.985,4.658,4.658,0,0,1,.139-.948,1.58,1.58,0,0,0-.4,1.779c-.574-.013-.908.643-.908.643a2.135,2.135,0,0,1,.405-.162,1.392,1.392,0,0,1,.811-.017,1.041,1.041,0,0,1,.607.635.832.832,0,0,0-.292-.945" transform="translate(-706.996 -428.172)" fill="#d3424a"/>
                </g>
              </g>
            </g>
            <g id="Group_9729" data-name="Group 9729" transform="translate(30.968 20.491)" opacity="0.8">
              <g id="Group_9728" data-name="Group 9728">
                <g id="Group_9727" data-name="Group 9727" clip-path="url(#clip-path-21)">
                  <rect id="Rectangle_2903" data-name="Rectangle 2903" width="16.005" height="0.353" transform="matrix(0.002, -1, 1, 0.002, 0, 16.004)" fill="#d3424a"/>
                </g>
              </g>
            </g>
            <rect id="Rectangle_2905" data-name="Rectangle 2905" width="13.221" height="1.346" transform="translate(41.143 19.145)" fill="#2f4858"/>
            <rect id="Rectangle_2906" data-name="Rectangle 2906" width="10.582" height="0.673" transform="translate(41.143 22.395)" fill="#a4b2ba"/>
            <rect id="Rectangle_2907" data-name="Rectangle 2907" width="6.909" height="0.673" transform="translate(41.143 24.208)" fill="#2f4858"/>
            <rect id="Rectangle_2908" data-name="Rectangle 2908" width="6.909" height="0.673" transform="translate(49.087 24.208)" fill="#a4b2ba"/>
            <rect id="Rectangle_2909" data-name="Rectangle 2909" width="6.382" height="0.673" transform="translate(52.804 22.395)" fill="#2f4858"/>
            <rect id="Rectangle_2910" data-name="Rectangle 2910" width="6.136" height="1.346" transform="translate(55.155 19.145)" fill="#f05a5c"/>
            <rect id="Rectangle_2911" data-name="Rectangle 2911" width="10.559" height="1.075" transform="translate(22.355 40.961)" fill="#2f4858"/>
            <rect id="Rectangle_2912" data-name="Rectangle 2912" width="8.452" height="0.538" transform="translate(22.355 43.557)" fill="#a4b2ba"/>
            <rect id="Rectangle_2913" data-name="Rectangle 2913" width="5.518" height="0.538" transform="translate(22.355 45.005)" fill="#a4b2ba"/>
            <rect id="Rectangle_2914" data-name="Rectangle 2914" width="5.518" height="0.538" transform="translate(28.7 45.005)" fill="#2f4858"/>
            <rect id="Rectangle_2915" data-name="Rectangle 2915" width="5.098" height="0.538" transform="translate(31.669 43.557)" fill="#a4b2ba"/>
            <rect id="Rectangle_2916" data-name="Rectangle 2916" width="4.9" height="1.075" transform="translate(33.547 40.961)" fill="#f05a5c"/>
            <path id="Path_15660" data-name="Path 15660" d="M950.82,361.956a.8.8,0,1,1-1.128.007.8.8,0,0,1,1.128-.007" transform="translate(-896.386 -333.291)" fill="#fff"/>
            <path id="Path_15661" data-name="Path 15661" d="M908.427,404.369a.887.887,0,1,1-1.255.008.887.887,0,0,1,1.255-.008" transform="translate(-857.185 -372.346)" fill="#fff"/>
            <path id="Path_15662" data-name="Path 15662" d="M860.886,382.356a.757.757,0,1,1-1.071.006.757.757,0,0,1,1.071-.006" transform="translate(-813.585 -352.098)" fill="#fff"/>
            <path id="Path_15663" data-name="Path 15663" d="M815.314,408.477a.757.757,0,1,1-1.071.006.757.757,0,0,1,1.071-.006" transform="translate(-771.595 -376.166)" fill="#fff"/>
            <path id="Path_15664" data-name="Path 15664" d="M823.232,374.884l3.613-2.071,3.837,1.852,3.221-3.386.1.093-3.289,3.457-3.862-1.863L823.3,375Z" transform="translate(-780.078 -342.092)" fill="#fff"/>
            <path id="Path_15665" data-name="Path 15665" d="M987.606,417.819a.661.661,0,1,1,.921-.16.661.661,0,0,1-.921.16" transform="translate(-931.273 -383.867)" fill="#fff"/>
            <path id="Path_15666" data-name="Path 15666" d="M1014.589,375.76a.735.735,0,1,1,1.025-.178.735.735,0,0,1-1.025.178" transform="translate(-956.105 -344.99)" fill="#fff"/>
            <path id="Path_15667" data-name="Path 15667" d="M1059.181,389.554a.628.628,0,1,1,.875-.152.628.628,0,0,1-.875.152" transform="translate(-997.235 -357.88)" fill="#fff"/>
            <path id="Path_15668" data-name="Path 15668" d="M1092.866,361.967a.628.628,0,1,1,.875-.152.628.628,0,0,1-.875.152" transform="translate(-1028.272 -332.462)" fill="#fff"/>
            <path id="Path_15669" data-name="Path 15669" d="M1003.47,368.349l-2.671,2.187-3.391-.989-2.17,3.209-.093-.063,2.216-3.276,3.412,1,2.625-2.15Z" transform="translate(-938.478 -339.314)" fill="#fff"/>
            <path id="Path_15670" data-name="Path 15670" d="M836.045,505.044l-.77-4.045-.336,1.728H830.4v-.273h4.315l.564-2.9.805,4.23.362-1.428h.784l.535-2.49.685,3.8.36-1.454h1.619l.6-1.954.521,3.421.419-1.467h1.34l.393-2.146.846,3.375.306-1.23h1.733l.091,1.025.954-3.731.627,2.716h2.818v.273h-3.035l-.423-1.833-1.072,4.191-.21-2.368h-1.269l-.519,2.084-.8-3.213-.207,1.129H842.17l-.706,2.474-.529-3.472-.3,1h-1.608l-.616,2.488-.666-3.694-.291,1.353h-.792Z" transform="translate(-786.682 -460.237)" fill="#fff"/>
            <path id="Path_15671" data-name="Path 15671" d="M836.37,488.155h-23.3v-9.87h23.3ZM813.216,488h23v-9.569h-23Z" transform="translate(-770.711 -440.687)" fill="#fff"/>
            <path id="Path_15672" data-name="Path 15672" d="M145.125,1568.346H.181c-.1,0-.181-.109-.181-.241v-.138c0-.133.081-.241.181-.241H145.125c.1,0,.181.109.181.241v.138c0,.133-.081.241-.181.241" transform="translate(2.272 -1444.487)" fill="#d8d8d8"/>
          </g>
        </g>
      </g>
    </g>
  </g>
</svg>
