<svg xmlns="http://www.w3.org/2000/svg" width="427.958" height="381.376" viewBox="0 0 427.958 381.376">
  <g id="Group_65" data-name="Group 65" transform="translate(-188.966 -40.155)">
    <path id="Path_1" data-name="Path 1" d="M602.293,1823.623c6.083,0,47.7-12.215,53.759-10.6,14.736,3.936,31.945-.624,46.563-7.586,13.267-6.318,25.361-29.092,38.717-33.217,4.4-1.359,8.9-.675,13.173-4.137,4.236-3.431,9.773-17.257,12.951-24.33.281-.625-3.391-4.292-3.391-4.292l-395.737,1.125s3.67,32.468,12.092,38.763c39.636,29.629,48.926,22.354,89.539,33.674,10.9,3.036,45.019,9.875,55.907,13.171,6.691,2.027,30.415,7.218,49.643,6.585C589.279,1832.328,599.771,1823.622,602.293,1823.623Z" transform="translate(-163.13 -1411.304)" fill="#e8e8e8" style="mix-blend-mode: multiply;isolation: isolate"/>
    <path id="Path_2" data-name="Path 2" d="M214.054,332.6H600.524c32.033-23.887,15.548-95.763-11.208-110.334-28.8-15.684,16.933-69.927-27.433-87.533-28.968-11.5-39.992-18.945-59.169-43.693-22.531-29.077-84.291-65.5-154-38-53.764,21.211-20.021,69.381-108,81.693-45.239,6.331-44.942,74.544-40.724,85.737,3.674,9.749,27.98,25.212-5.8,46.507C178.714,298.375,212.887,332.027,214.054,332.6Z" transform="translate(-1.209 -3.133)" fill="#009779" opacity="0.48"/>
    <g id="Group_11" data-name="Group 11" transform="translate(205.685 140.909)">
      <rect id="Rectangle_5" data-name="Rectangle 5" width="1.032" height="7.054" transform="translate(257.342 4.722)" fill="#e25a44"/>
      <rect id="Rectangle_6" data-name="Rectangle 6" width="1.032" height="7.054" transform="translate(249.152 4.722)" fill="#e25a44"/>
      <rect id="Rectangle_7" data-name="Rectangle 7" width="1.032" height="7.054" transform="translate(240.962 4.722)" fill="#e25a44"/>
      <rect id="Rectangle_8" data-name="Rectangle 8" width="1.032" height="7.054" transform="translate(232.772 4.722)" fill="#e25a44"/>
      <rect id="Rectangle_9" data-name="Rectangle 9" width="9.532" height="118.033" transform="translate(258.403 66.819)" fill="#fcf5eb"/>
      <rect id="Rectangle_10" data-name="Rectangle 10" width="1.032" height="7.054" transform="translate(224.583 4.722)" fill="#e25a44"/>
      <rect id="Rectangle_11" data-name="Rectangle 11" width="1.032" height="7.054" transform="translate(216.393 4.722)" fill="#e25a44"/>
      <rect id="Rectangle_12" data-name="Rectangle 12" width="1.032" height="7.054" transform="translate(208.203 4.722)" fill="#e25a44"/>
      <rect id="Rectangle_13" data-name="Rectangle 13" width="1.032" height="7.054" transform="translate(200.013 4.722)" fill="#e25a44"/>
      <rect id="Rectangle_14" data-name="Rectangle 14" width="41.191" height="7.067" transform="translate(151.527 3.731)" fill="#fcf5eb"/>
      <rect id="Rectangle_15" data-name="Rectangle 15" width="66.978" height="38.714" transform="translate(325.058 58.277) rotate(180)" fill="#fcf5eb"/>
      <rect id="Rectangle_16" data-name="Rectangle 16" width="7.894" height="38.714" transform="translate(265.974 58.277) rotate(180)" fill="#fcf5eb" style="mix-blend-mode: multiply;isolation: isolate"/>
      <rect id="Rectangle_17" data-name="Rectangle 17" width="102.393" height="3.731" transform="translate(328.121 21.429) rotate(180)" fill="#184655"/>
      <rect id="Rectangle_18" data-name="Rectangle 18" width="20.437" height="15.287" transform="translate(322.563 26.765) rotate(90)" fill="#009779"/>
      <rect id="Rectangle_19" data-name="Rectangle 19" width="20.437" height="15.287" transform="translate(303.445 26.765) rotate(90)" fill="#009779"/>
      <rect id="Rectangle_20" data-name="Rectangle 20" width="20.437" height="15.287" transform="translate(284.719 26.765) rotate(90)" fill="#009779"/>
      <rect id="Rectangle_21" data-name="Rectangle 21" width="66.978" height="38.714" transform="translate(76.236 19.563)" fill="#fcf5eb"/>
      <rect id="Rectangle_22" data-name="Rectangle 22" width="7.894" height="38.714" transform="translate(135.319 19.563)" fill="#fcf5eb" style="mix-blend-mode: multiply;isolation: isolate"/>
      <rect id="Rectangle_23" data-name="Rectangle 23" width="84.653" height="129.094" transform="translate(342.581 187.945) rotate(180)" fill="#fcf5eb"/>
      <rect id="Rectangle_24" data-name="Rectangle 24" width="120.254" height="3.731" transform="translate(345.83 60.716) rotate(180)" fill="#184655"/>
      <rect id="Rectangle_25" data-name="Rectangle 25" width="20.437" height="32.54" transform="translate(336.574 66.798) rotate(90)" fill="#009779"/>
      <rect id="Rectangle_26" data-name="Rectangle 26" width="20.437" height="32.54" transform="translate(336.574 90.509) rotate(90)" fill="#009779"/>
      <rect id="Rectangle_27" data-name="Rectangle 27" width="20.437" height="32.54" transform="translate(336.574 114.22) rotate(90)" fill="#009779"/>
      <rect id="Rectangle_28" data-name="Rectangle 28" width="20.437" height="32.54" transform="translate(336.574 137.93) rotate(90)" fill="#009779"/>
      <rect id="Rectangle_29" data-name="Rectangle 29" width="20.437" height="32.54" transform="translate(336.574 161.641) rotate(90)" fill="#009779"/>
      <rect id="Rectangle_30" data-name="Rectangle 30" width="20.437" height="32.54" transform="translate(300.494 66.798) rotate(90)" fill="#009779"/>
      <rect id="Rectangle_31" data-name="Rectangle 31" width="20.437" height="32.54" transform="translate(300.494 90.509) rotate(90)" fill="#009779"/>
      <rect id="Rectangle_32" data-name="Rectangle 32" width="20.437" height="32.54" transform="translate(300.494 114.22) rotate(90)" fill="#009779"/>
      <rect id="Rectangle_33" data-name="Rectangle 33" width="20.437" height="32.54" transform="translate(300.494 137.93) rotate(90)" fill="#009779"/>
      <rect id="Rectangle_34" data-name="Rectangle 34" width="20.437" height="32.54" transform="translate(300.494 161.641) rotate(90)" fill="#009779"/>
      <rect id="Rectangle_35" data-name="Rectangle 35" width="84.653" height="129.094" transform="translate(58.561 58.851)" fill="#fcf5eb"/>
      <rect id="Rectangle_36" data-name="Rectangle 36" width="85.656" height="3.079" transform="translate(57.558 184.866)" fill="#f47458"/>
      <rect id="Rectangle_37" data-name="Rectangle 37" width="85.656" height="3.079" transform="translate(257.666 184.866)" fill="#f47458"/>
      <rect id="Rectangle_38" data-name="Rectangle 38" width="7.894" height="129.094" transform="translate(135.319 58.851)" fill="#fcf5eb" style="mix-blend-mode: multiply;isolation: isolate"/>
      <rect id="Rectangle_39" data-name="Rectangle 39" width="120.254" height="3.731" transform="translate(55.311 56.985)" fill="#184655"/>
      <rect id="Rectangle_40" data-name="Rectangle 40" width="102.393" height="3.731" transform="translate(73.172 17.698)" fill="#184655"/>
      <rect id="Rectangle_41" data-name="Rectangle 41" width="115.161" height="26.809" transform="translate(143.213 12.497)" fill="#fcf5eb"/>
      <rect id="Rectangle_42" data-name="Rectangle 42" width="115.161" height="126.832" transform="translate(143.213 61.112)" fill="#fcf5eb"/>
      <rect id="Rectangle_43" data-name="Rectangle 43" width="63.696" height="101.42" transform="translate(251.468 71.823) rotate(90)" fill="#009779"/>
      <rect id="Rectangle_44" data-name="Rectangle 44" width="20.437" height="32.54" transform="translate(97.108 66.798) rotate(90)" fill="#009779"/>
      <rect id="Rectangle_45" data-name="Rectangle 45" width="20.437" height="32.54" transform="translate(97.108 90.509) rotate(90)" fill="#009779"/>
      <rect id="Rectangle_46" data-name="Rectangle 46" width="20.437" height="32.54" transform="translate(97.108 114.22) rotate(90)" fill="#009779"/>
      <rect id="Rectangle_47" data-name="Rectangle 47" width="20.437" height="32.54" transform="translate(97.108 137.93) rotate(90)" fill="#009779"/>
      <rect id="Rectangle_48" data-name="Rectangle 48" width="20.437" height="32.54" transform="translate(97.108 161.641) rotate(90)" fill="#009779"/>
      <rect id="Rectangle_49" data-name="Rectangle 49" width="20.437" height="32.54" transform="translate(133.188 66.798) rotate(90)" fill="#009779"/>
      <rect id="Rectangle_50" data-name="Rectangle 50" width="20.437" height="15.287" transform="translate(94.017 26.765) rotate(90)" fill="#009779"/>
      <rect id="Rectangle_51" data-name="Rectangle 51" width="20.437" height="15.287" transform="translate(113.135 26.765) rotate(90)" fill="#009779"/>
      <path id="Path_341" data-name="Path 341" d="M0,0H20.437V15.287H0Z" transform="translate(131.861 26.765) rotate(90)" fill="#009779"/>
      <rect id="Rectangle_53" data-name="Rectangle 53" width="20.437" height="32.54" transform="translate(133.188 90.509) rotate(90)" fill="#009779"/>
      <rect id="Rectangle_54" data-name="Rectangle 54" width="20.437" height="32.54" transform="translate(133.188 114.22) rotate(90)" fill="#009779"/>
      <rect id="Rectangle_55" data-name="Rectangle 55" width="20.437" height="32.54" transform="translate(133.188 137.93) rotate(90)" fill="#009779"/>
      <rect id="Rectangle_56" data-name="Rectangle 56" width="20.437" height="32.54" transform="translate(133.188 161.641) rotate(90)" fill="#009779"/>
      <rect id="Rectangle_57" data-name="Rectangle 57" width="33.042" height="32.108" transform="translate(185.071 156.135)" fill="#e25a44"/>
      <rect id="Rectangle_58" data-name="Rectangle 58" width="16.129" height="1.061" transform="translate(78.309 46.465)" fill="#184655"/>
      <rect id="Rectangle_59" data-name="Rectangle 59" width="16.129" height="1.061" transform="translate(97.427 46.465)" fill="#184655"/>
      <rect id="Rectangle_60" data-name="Rectangle 60" width="16.129" height="1.061" transform="translate(116.153 46.465)" fill="#184655"/>
      <rect id="Rectangle_61" data-name="Rectangle 61" width="16.129" height="1.061" transform="translate(268.816 46.465)" fill="#184655"/>
      <rect id="Rectangle_62" data-name="Rectangle 62" width="16.129" height="1.061" transform="translate(287.933 46.465)" fill="#184655"/>
      <rect id="Rectangle_63" data-name="Rectangle 63" width="16.129" height="1.061" transform="translate(306.659 46.465)" fill="#184655"/>
      <path id="Path_29" data-name="Path 29" d="M773.517,1097.585H754.825l21.629-114.219h18.691Z" transform="translate(-693.355 -916.568)" fill="#fff" opacity="0.5" style="mix-blend-mode: overlay;isolation: isolate"/>
      <rect id="Rectangle_64" data-name="Rectangle 64" width="6.006" height="116.21" transform="translate(58.561 66.798)" fill="#fcf5eb"/>
      <path id="Path_30" data-name="Path 30" d="M968.087,1097.585H957.68l21.629-114.219h10.407Z" transform="translate(-863.894 -916.568)" fill="#fff" opacity="0.5" style="mix-blend-mode: overlay;isolation: isolate"/>
      <rect id="Rectangle_65" data-name="Rectangle 65" width="33.344" height="1.061" transform="translate(100.246 86.174)" fill="#184655"/>
      <rect id="Rectangle_66" data-name="Rectangle 66" width="33.344" height="1.061" transform="translate(64.165 109.885)" fill="#184655"/>
      <rect id="Rectangle_67" data-name="Rectangle 67" width="33.344" height="1.061" transform="translate(100.246 109.885)" fill="#184655"/>
      <rect id="Rectangle_68" data-name="Rectangle 68" width="33.344" height="1.061" transform="translate(64.165 133.595)" fill="#184655"/>
      <rect id="Rectangle_69" data-name="Rectangle 69" width="33.344" height="1.061" transform="translate(100.246 133.595)" fill="#184655"/>
      <rect id="Rectangle_70" data-name="Rectangle 70" width="33.344" height="1.061" transform="translate(64.165 157.306)" fill="#184655"/>
      <rect id="Rectangle_71" data-name="Rectangle 71" width="33.344" height="1.061" transform="translate(100.246 157.306)" fill="#184655"/>
      <rect id="Rectangle_72" data-name="Rectangle 72" width="103.243" height="1.061" transform="translate(150.048 135.52)" fill="#184655"/>
      <rect id="Rectangle_73" data-name="Rectangle 73" width="33.344" height="1.061" transform="translate(64.165 181.017)" fill="#184655"/>
      <rect id="Rectangle_74" data-name="Rectangle 74" width="33.344" height="1.061" transform="translate(100.246 181.017)" fill="#184655"/>
      <rect id="Rectangle_75" data-name="Rectangle 75" width="33.344" height="1.061" transform="translate(64.165 86.174)" fill="#184655"/>
      <rect id="Rectangle_76" data-name="Rectangle 76" width="3.54" height="116.341" transform="translate(97.108 66.666)" fill="#fcf5eb"/>
      <rect id="Rectangle_77" data-name="Rectangle 77" width="70.225" height="3.274" transform="translate(63.365 158.367)" fill="#fcf5eb"/>
      <rect id="Rectangle_78" data-name="Rectangle 78" width="70.225" height="3.274" transform="translate(63.365 134.656)" fill="#fcf5eb"/>
      <rect id="Rectangle_79" data-name="Rectangle 79" width="70.225" height="3.274" transform="translate(63.365 110.946)" fill="#fcf5eb"/>
      <rect id="Rectangle_80" data-name="Rectangle 80" width="70.225" height="3.274" transform="translate(63.365 87.235)" fill="#fcf5eb"/>
      <path id="Path_31" data-name="Path 31" d="M2015.529,1097.585h-18.691l21.629-114.219h18.691Z" transform="translate(-1737.505 -916.568)" fill="#fff" opacity="0.5" style="mix-blend-mode: overlay;isolation: isolate"/>
      <path id="Path_32" data-name="Path 32" d="M2244.819,1097.585h-10.406l21.629-114.219h10.406Z" transform="translate(-1937.232 -916.568)" fill="#fff" opacity="0.5" style="mix-blend-mode: overlay;isolation: isolate"/>
      <rect id="Rectangle_81" data-name="Rectangle 81" width="3.54" height="116.341" transform="translate(300.501 66.666)" fill="#fcf5eb"/>
      <rect id="Rectangle_82" data-name="Rectangle 82" width="70.225" height="3.274" transform="translate(266.758 158.367)" fill="#fcf5eb"/>
      <rect id="Rectangle_83" data-name="Rectangle 83" width="70.225" height="3.274" transform="translate(266.758 134.656)" fill="#fcf5eb"/>
      <rect id="Rectangle_84" data-name="Rectangle 84" width="70.225" height="3.274" transform="translate(266.758 110.946)" fill="#fcf5eb"/>
      <rect id="Rectangle_85" data-name="Rectangle 85" width="70.225" height="3.274" transform="translate(266.758 87.235)" fill="#fcf5eb"/>
      <path id="Path_33" data-name="Path 33" d="M883.119,751.773H878.3l5.609-19.7h4.818Z" transform="translate(-797.16 -705.308)" fill="#fff" opacity="0.5" style="mix-blend-mode: overlay;isolation: isolate"/>
      <path id="Path_34" data-name="Path 34" d="M1015.6,751.773h-3.372l5.609-19.7h3.372Z" transform="translate(-909.749 -705.308)" fill="#fff" opacity="0.5" style="mix-blend-mode: overlay;isolation: isolate"/>
      <path id="Path_35" data-name="Path 35" d="M1109.087,751.773H1106.4l5.609-19.7h2.684Z" transform="translate(-988.924 -705.308)" fill="#fff" opacity="0.5" style="mix-blend-mode: overlay;isolation: isolate"/>
      <path id="Path_36" data-name="Path 36" d="M2076.567,751.773h-4.818l5.609-19.7h4.818Z" transform="translate(-1800.482 -705.308)" fill="#fff" opacity="0.5" style="mix-blend-mode: overlay;isolation: isolate"/>
      <path id="Path_37" data-name="Path 37" d="M2209.045,751.773h-3.372l5.609-19.7h3.373Z" transform="translate(-1913.071 -705.308)" fill="#fff" opacity="0.5" style="mix-blend-mode: overlay;isolation: isolate"/>
      <path id="Path_38" data-name="Path 38" d="M2302.536,751.773h-2.684l5.609-19.7h2.684Z" transform="translate(-1992.247 -705.308)" fill="#fff" opacity="0.5" style="mix-blend-mode: overlay;isolation: isolate"/>
      <rect id="Rectangle_86" data-name="Rectangle 86" width="33.344" height="1.061" transform="translate(303.572 86.174)" fill="#184655"/>
      <rect id="Rectangle_87" data-name="Rectangle 87" width="33.344" height="1.061" transform="translate(267.492 109.885)" fill="#184655"/>
      <rect id="Rectangle_88" data-name="Rectangle 88" width="33.344" height="1.061" transform="translate(303.572 109.885)" fill="#184655"/>
      <rect id="Rectangle_89" data-name="Rectangle 89" width="33.344" height="1.061" transform="translate(267.492 133.595)" fill="#184655"/>
      <rect id="Rectangle_90" data-name="Rectangle 90" width="33.344" height="1.061" transform="translate(303.572 133.595)" fill="#184655"/>
      <rect id="Rectangle_91" data-name="Rectangle 91" width="33.344" height="1.061" transform="translate(267.492 157.306)" fill="#184655"/>
      <rect id="Rectangle_92" data-name="Rectangle 92" width="33.344" height="1.061" transform="translate(303.572 157.306)" fill="#184655"/>
      <rect id="Rectangle_93" data-name="Rectangle 93" width="33.344" height="1.061" transform="translate(267.492 181.017)" fill="#184655"/>
      <rect id="Rectangle_94" data-name="Rectangle 94" width="33.344" height="1.061" transform="translate(303.572 181.017)" fill="#184655"/>
      <rect id="Rectangle_95" data-name="Rectangle 95" width="33.344" height="1.061" transform="translate(267.492 86.174)" fill="#184655"/>
      <rect id="Rectangle_96" data-name="Rectangle 96" width="115.161" height="8.932" transform="translate(143.213 12.497)" fill="#fcf5eb" style="mix-blend-mode: multiply;isolation: isolate"/>
      <rect id="Rectangle_97" data-name="Rectangle 97" width="120.254" height="3.731" transform="translate(140.667 10.798)" fill="#184655"/>
      <rect id="Rectangle_98" data-name="Rectangle 98" width="43.255" height="3.731" transform="translate(150.495 0)" fill="#184655"/>
      <rect id="Rectangle_99" data-name="Rectangle 99" width="106.076" height="9.233" transform="translate(147.756 146.903)" fill="#184655"/>
      <rect id="Rectangle_100" data-name="Rectangle 100" width="0.265" height="32.108" transform="translate(201.46 156.135)" fill="#f47458"/>
      <rect id="Rectangle_101" data-name="Rectangle 101" width="5.97" height="31.809" transform="translate(245.498 156.135)" fill="#f47458"/>
      <rect id="Rectangle_102" data-name="Rectangle 102" width="5.97" height="31.809" transform="translate(150.048 156.135)" fill="#f47458"/>
      <rect id="Rectangle_103" data-name="Rectangle 103" width="23.18" height="11.829" transform="translate(199.324 157.837) rotate(90)" fill="#009779"/>
      <rect id="Rectangle_104" data-name="Rectangle 104" width="23.18" height="11.829" transform="translate(215.687 157.837) rotate(90)" fill="#009779"/>
      <path id="Path_39" data-name="Path 39" d="M1557.71,1578.007h-5.162l4.078-23.18h5.162Z" transform="translate(-1363.994 -1396.991)" fill="#fff" opacity="0.2" style="mix-blend-mode: overlay;isolation: isolate"/>
      <path id="Path_40" data-name="Path 40" d="M1661.905,1578.007h-5.162l4.078-23.18h5.162Z" transform="translate(-1451.59 -1396.991)" fill="#fff" opacity="0.2" style="mix-blend-mode: overlay;isolation: isolate"/>
      <path id="Path_41" data-name="Path 41" d="M1366.33,1078.6H1352.2l15.95-63.7h14.128Z" transform="translate(-1195.565 -943.083)" fill="#fff" opacity="0.5" style="mix-blend-mode: overlay;isolation: isolate"/>
      <path id="Path_42" data-name="Path 42" d="M1691.3,1078.6H1664.45l15.95-63.7h26.853Z" transform="translate(-1458.07 -943.083)" fill="#fff" opacity="0.5" style="mix-blend-mode: overlay;isolation: isolate"/>
      <rect id="Rectangle_105" data-name="Rectangle 105" width="0.868" height="67.67" transform="translate(174.697 71.102)" fill="#fcf5eb"/>
      <rect id="Rectangle_106" data-name="Rectangle 106" width="0.868" height="67.67" transform="translate(226.215 71.102)" fill="#fcf5eb"/>
      <rect id="Rectangle_107" data-name="Rectangle 107" width="0.868" height="67.67" transform="translate(200.107 71.102)" fill="#fcf5eb"/>
      <rect id="Rectangle_108" data-name="Rectangle 108" width="0.929" height="105.377" transform="translate(254.194 104.472) rotate(90)" fill="#fcf5eb"/>
      <rect id="Rectangle_109" data-name="Rectangle 109" width="8.591" height="55.957" transform="translate(259.345 127.954)" fill="#fcf5eb"/>
      <path id="Path_43" data-name="Path 43" d="M1553.572,1126.815a17.973,17.973,0,1,1-17.973-17.973A17.973,17.973,0,0,1,1553.572,1126.815Z" transform="translate(-1334.636 -1022.055)" fill="#fff"/>
      <circle id="Ellipse_1" data-name="Ellipse 1" cx="16.294" cy="16.294" r="16.294" transform="translate(178.537 110.055) rotate(-58.283)" fill="#f15b5b"/>
      <path id="Path_44" data-name="Path 44" d="M1574.707,1153.233l-3.279-.034-.1,9.271-9.271.021.008,3.279,9.23-.022-.095,9.229,3.279.034.1-9.271,9.271-.022-.008-3.279-9.23.021Z" transform="translate(-1371.992 -1059.345)" fill="#fff"/>
      <rect id="Rectangle_110" data-name="Rectangle 110" width="65.657" height="1.032" transform="translate(192.718 4.722)" fill="#e25a44"/>
      <rect id="Rectangle_111" data-name="Rectangle 111" width="398.641" height="1.388" transform="translate(0 187.251)" fill="#184655"/>
      <rect id="Rectangle_112" data-name="Rectangle 112" width="7.894" height="126.564" transform="translate(266.293 187.265) rotate(180)" fill="#fcf5eb" style="mix-blend-mode: multiply;isolation: isolate"/>
      <rect id="Rectangle_113" data-name="Rectangle 113" width="124.452" height="26.808" transform="translate(138.568 39.311)" fill="#f15b5b"/>
      <rect id="Rectangle_114" data-name="Rectangle 114" width="124.452" height="11.329" transform="translate(138.568 54.791)" fill="#bc2020" opacity="0.3" style="mix-blend-mode: multiply;isolation: isolate"/>
      <g id="Group_10" data-name="Group 10" transform="translate(155.13 45.785)">
        <path id="Path_57" data-name="Path 57" d="M1342.744,866.946V852.552h2.82v5.7h5.72v-5.7h2.82v14.393h-2.82v-6.254h-5.72v6.254Z" transform="translate(-1342.744 -852.378)" fill="#fcf5eb"/>
        <path id="Path_58" data-name="Path 58" d="M1429.344,858.865a8.2,8.2,0,0,1,1.652-5.447,6.323,6.323,0,0,1,9.149,0,9.757,9.757,0,0,1-.005,10.884,6.285,6.285,0,0,1-9.134,0A8.17,8.17,0,0,1,1429.344,858.865Zm2.86,0a6.612,6.612,0,0,0,.856,3.707,3.123,3.123,0,0,0,5.015,0,6.612,6.612,0,0,0,.856-3.707,6.73,6.73,0,0,0-.856-3.741,3.1,3.1,0,0,0-5.015,0A6.73,6.73,0,0,0,1432.2,858.865Z" transform="translate(-1415.548 -851.46)" fill="#fcf5eb"/>
        <path id="Path_59" data-name="Path 59" d="M1515.818,862.882l2.558-1.092a4.651,4.651,0,0,0,1.324,1.677,3.273,3.273,0,0,0,3.51.034,1.582,1.582,0,0,0,.655-1.334,1.463,1.463,0,0,0-.483-1.116,5.238,5.238,0,0,0-1.742-.894q-.171-.067-.494-.174a17.127,17.127,0,0,1-3.071-1.314,3.622,3.622,0,0,1-1.309-1.334,3.7,3.7,0,0,1-.453-1.837,3.456,3.456,0,0,1,1.354-2.827,5.481,5.481,0,0,1,3.54-1.087,5.933,5.933,0,0,1,3.187.793,4.593,4.593,0,0,1,1.868,2.349l-2.558.9a3.533,3.533,0,0,0-1.118-1.407,2.758,2.758,0,0,0-1.591-.44,2.3,2.3,0,0,0-1.445.411,1.339,1.339,0,0,0-.529,1.117q0,1.092,2.588,2.069.8.3,1.249.483a7.771,7.771,0,0,1,2.945,1.8,3.576,3.576,0,0,1,.781,2.4,3.869,3.869,0,0,1-1.36,3.132,5.636,5.636,0,0,1-3.736,1.141,6.633,6.633,0,0,1-3.5-.87A5.415,5.415,0,0,1,1515.818,862.882Z" transform="translate(-1488.246 -851.563)" fill="#fcf5eb"/>
        <path id="Path_60" data-name="Path 60" d="M1598.688,866.946V852.552h5.357a6.169,6.169,0,0,1,3.948,1.058,3.9,3.9,0,0,1,1.3,3.214,4,4,0,0,1-1.269,3.2,5.515,5.515,0,0,1-3.706,1.1h-2.779v5.819Zm2.85-8.1h2.095a3.862,3.862,0,0,0,2.19-.464,2.226,2.226,0,0,0,0-3.122,3.864,3.864,0,0,0-2.19-.464h-2.095Z" transform="translate(-1557.914 -852.378)" fill="#fcf5eb"/>
        <path id="Path_61" data-name="Path 61" d="M1682.57,866.946V852.552h2.84v14.393Z" transform="translate(-1628.433 -852.378)" fill="#fcf5eb"/>
        <path id="Path_62" data-name="Path 62" d="M1719.252,866.946V854.93h-3.937v-2.378h10.725v2.378H1722.1v12.016Z" transform="translate(-1655.961 -852.378)" fill="#fcf5eb"/>
        <path id="Path_63" data-name="Path 63" d="M1777.451,866.946l4.521-14.393h3.524l4.511,14.393h-2.82l-.926-3.151h-5.176l-.957,3.151Zm4.31-5.442h3.817l-1.914-6.438Z" transform="translate(-1708.199 -852.378)" fill="#fcf5eb"/>
        <path id="Path_64" data-name="Path 64" d="M1867.211,866.946V852.552h2.87V864.49h6.324v2.455Z" transform="translate(-1783.659 -852.378)" fill="#fcf5eb"/>
      </g>
      <rect id="Rectangle_115" data-name="Rectangle 115" width="7.477" height="2.865" transform="translate(150.509 24.473)" fill="#f7cc7f" opacity="0.3" style="mix-blend-mode: multiply;isolation: isolate"/>
      <rect id="Rectangle_116" data-name="Rectangle 116" width="7.477" height="2.865" transform="translate(144.612 28.84)" fill="#f7cc7f" opacity="0.3" style="mix-blend-mode: multiply;isolation: isolate"/>
      <rect id="Rectangle_117" data-name="Rectangle 117" width="7.652" height="2.424" transform="translate(149.274 33.581)" fill="#f7cc7f" opacity="0.3" style="mix-blend-mode: multiply;isolation: isolate"/>
      <rect id="Rectangle_118" data-name="Rectangle 118" width="7.433" height="2.424" transform="translate(154.251 29.083)" fill="#f7cc7f" opacity="0.3" style="mix-blend-mode: multiply;isolation: isolate"/>
      <rect id="Rectangle_119" data-name="Rectangle 119" width="6.045" height="2.166" transform="translate(201.202 33.823)" fill="#f7cc7f" opacity="0.3" style="mix-blend-mode: multiply;isolation: isolate"/>
      <rect id="Rectangle_120" data-name="Rectangle 120" width="6.045" height="2.166" transform="translate(205.203 30.293)" fill="#f7cc7f" opacity="0.3" style="mix-blend-mode: multiply;isolation: isolate"/>
      <rect id="Rectangle_121" data-name="Rectangle 121" width="6.045" height="2.165" transform="translate(170.135 163.741)" fill="#f7cc7f" opacity="0.3" style="mix-blend-mode: multiply;isolation: isolate"/>
      <rect id="Rectangle_122" data-name="Rectangle 122" width="6.045" height="2.166" transform="translate(174.136 160.211)" fill="#f7cc7f" opacity="0.3" style="mix-blend-mode: multiply;isolation: isolate"/>
      <rect id="Rectangle_123" data-name="Rectangle 123" width="6.045" height="2.165" transform="translate(234.565 162.682)" fill="#f7cc7f" opacity="0.3" style="mix-blend-mode: multiply;isolation: isolate"/>
      <rect id="Rectangle_124" data-name="Rectangle 124" width="6.045" height="2.166" transform="translate(237.565 166.624)" fill="#f7cc7f" opacity="0.3" style="mix-blend-mode: multiply;isolation: isolate"/>
      <rect id="Rectangle_125" data-name="Rectangle 125" width="7.477" height="2.865" transform="translate(241.303 28.339) rotate(180)" fill="#f7cc7f" opacity="0.3" style="mix-blend-mode: multiply;isolation: isolate"/>
      <rect id="Rectangle_126" data-name="Rectangle 126" width="2.434" height="2.865" transform="translate(258.367 35.988) rotate(180)" fill="#f7cc7f" opacity="0.3" style="mix-blend-mode: multiply;isolation: isolate"/>
      <rect id="Rectangle_127" data-name="Rectangle 127" width="5.2" height="2.865" transform="translate(258.426 31.398) rotate(180)" fill="#f7cc7f" opacity="0.3" style="mix-blend-mode: multiply;isolation: isolate"/>
      <rect id="Rectangle_128" data-name="Rectangle 128" width="7.477" height="2.865" transform="translate(245.01 32.104) rotate(180)" fill="#f7cc7f" opacity="0.3" style="mix-blend-mode: multiply;isolation: isolate"/>
      <rect id="Rectangle_129" data-name="Rectangle 129" width="7.477" height="2.865" transform="translate(189.595 33.058) rotate(180)" fill="#f7cc7f" opacity="0.3" style="mix-blend-mode: multiply;isolation: isolate"/>
      <rect id="Rectangle_130" data-name="Rectangle 130" width="7.477" height="2.865" transform="translate(185.123 28.763) rotate(180)" fill="#f7cc7f" opacity="0.3" style="mix-blend-mode: multiply;isolation: isolate"/>
      <rect id="Rectangle_131" data-name="Rectangle 131" width="7.652" height="2.424" transform="translate(242.537 36.005) rotate(180)" fill="#f7cc7f" opacity="0.3" style="mix-blend-mode: multiply;isolation: isolate"/>
      <rect id="Rectangle_132" data-name="Rectangle 132" width="7.477" height="2.865" transform="translate(229.771 175.673) rotate(180)" fill="#f7cc7f" opacity="0.3" style="mix-blend-mode: multiply;isolation: isolate"/>
      <rect id="Rectangle_133" data-name="Rectangle 133" width="7.477" height="2.865" transform="translate(233.478 179.439) rotate(180)" fill="#f7cc7f" opacity="0.3" style="mix-blend-mode: multiply;isolation: isolate"/>
      <rect id="Rectangle_134" data-name="Rectangle 134" width="7.652" height="2.424" transform="translate(231.005 183.34) rotate(180)" fill="#f7cc7f" opacity="0.3" style="mix-blend-mode: multiply;isolation: isolate"/>
      <rect id="Rectangle_135" data-name="Rectangle 135" width="7.477" height="2.865" transform="translate(165.631 173.397)" fill="#f7cc7f" opacity="0.3" style="mix-blend-mode: multiply;isolation: isolate"/>
      <rect id="Rectangle_136" data-name="Rectangle 136" width="7.477" height="2.865" transform="translate(161.924 177.163)" fill="#f7cc7f" opacity="0.3" style="mix-blend-mode: multiply;isolation: isolate"/>
      <rect id="Rectangle_137" data-name="Rectangle 137" width="7.652" height="2.424" transform="translate(164.397 181.504)" fill="#f7cc7f" opacity="0.3" style="mix-blend-mode: multiply;isolation: isolate"/>
      <rect id="Rectangle_138" data-name="Rectangle 138" width="7.432" height="2.424" transform="translate(236.148 32.155) rotate(180)" fill="#f7cc7f" opacity="0.3" style="mix-blend-mode: multiply;isolation: isolate"/>
    </g>
    <g id="Group_67" data-name="Group 67" transform="translate(303.462 308.493)">
      <g id="Group_22" data-name="Group 22" transform="translate(0 17.05)">
        <rect id="Rectangle_157" data-name="Rectangle 157" width="1.311" height="19.541" transform="translate(5.69 2.698)" fill="#31535b"/>
        <rect id="Rectangle_158" data-name="Rectangle 158" width="1.311" height="19.541" transform="translate(70.4 2.698)" fill="#31535b"/>
        <g id="Group_21" data-name="Group 21" transform="translate(1.183)">
          <path id="Rectangle_159" data-name="Rectangle 159" d="M1.942,0h71.15a1.942,1.942,0,0,1,1.942,1.942v0a1.942,1.942,0,0,1-1.942,1.942H1.943A1.943,1.943,0,0,1,0,1.942v0A1.942,1.942,0,0,1,1.942,0Z" fill="#f7cc7f"/>
          <path id="Rectangle_160" data-name="Rectangle 160" d="M1.942,0h71.15a1.942,1.942,0,0,1,1.942,1.942v0a1.942,1.942,0,0,1-1.942,1.942H1.943A1.943,1.943,0,0,1,0,1.942v0A1.942,1.942,0,0,1,1.942,0Z" transform="translate(0 5.517)" fill="#f7cc7f"/>
          <path id="Rectangle_161" data-name="Rectangle 161" d="M1.942,0h71.15a1.942,1.942,0,0,1,1.942,1.942v0a1.942,1.942,0,0,1-1.942,1.942H1.943A1.943,1.943,0,0,1,0,1.942v0A1.942,1.942,0,0,1,1.942,0Z" transform="translate(0 11.035)" fill="#f7cc7f"/>
        </g>
        <path id="Rectangle_162" data-name="Rectangle 162" d="M3,0H72.766a3,3,0,0,1,3,3V3a0,0,0,0,1,0,0H0A0,0,0,0,1,0,3V3A3,3,0,0,1,3,0Z" transform="translate(0.818 20.74)" fill="#f7cc7f"/>
        <rect id="Rectangle_163" data-name="Rectangle 163" width="77.247" height="1.36" rx="0.68" transform="translate(0 23.346)" fill="#31535b"/>
        <rect id="Rectangle_164" data-name="Rectangle 164" width="1.462" height="19.277" transform="translate(3.112 24.706)" fill="#31535b"/>
        <rect id="Rectangle_165" data-name="Rectangle 165" width="1.462" height="19.277" transform="translate(73.451 24.706)" fill="#31535b"/>
      </g>
      <g id="Group_30" data-name="Group 30" transform="translate(9.18 0)">
        <path id="Path_103" data-name="Path 103" d="M1074.756,1761.435s-.133,2.2-.134,2.21a12.126,12.126,0,0,0-.242,1.226c0,.956,4.539-.811,3.522-1.235-.093-.038-.575-.328-.605-.654-.046-.5-.165-1.515-.165-1.515Z" transform="translate(-1060.243 -1706.612)" fill="#f7a491"/>
        <path id="Path_104" data-name="Path 104" d="M1077.676,1766.5s-1.066.292-1.612.365-1.265-.542-1.651-.376c-.425.183-.408,1.83-.408,1.83s5.715.47,7.322-.016C1081.963,1768.107,1079.854,1767.177,1077.676,1766.5Z" transform="translate(-1060.029 -1709.482)" fill="#b75742"/>
        <path id="Path_105" data-name="Path 105" d="M1092.736,1760.986s-.133,2.2-.134,2.21a12.063,12.063,0,0,0-.242,1.226c0,.956,4.539-.811,3.522-1.235-.092-.039-.779-.16-.809-.486-.047-.5-.135-2.051-.135-2.051Z" transform="translate(-1070.518 -1706.163)" fill="#f7a491"/>
        <path id="Path_106" data-name="Path 106" d="M1095.656,1766.5s-1.066.292-1.611.365-1.266-.542-1.652-.376c-.425.183-.408,1.83-.408,1.83s5.715.47,7.322-.016C1099.943,1768.107,1097.835,1767.177,1095.656,1766.5Z" transform="translate(-1070.304 -1709.482)" fill="#b75742"/>
        <path id="Path_107" data-name="Path 107" d="M1058.28,1706.251l10.849.047s4.9-.129,5.676,1.567.591,23.219.591,23.219a16.5,16.5,0,0,1-2.749.246l-2.946-12.887a9.081,9.081,0,0,1-.316-3.365l.281-3-4.476.229s-5.076-.081-6.749-1.764S1058.28,1706.251,1058.28,1706.251Z" transform="translate(-1050.684 -1675.077)" fill="#009779"/>
        <path id="Path_108" data-name="Path 108" d="M1041.917,1703.459l11.666.716s5.021.408,5.8,2.1-.494,23.4-.494,23.4a22.21,22.21,0,0,1-2.906.052c.007-.153-1.2-9.944-1.862-13.045a10.87,10.87,0,0,1-.22-3l.421-2.435s-10.524.555-11.062.015C1041.582,1709.588,1041.917,1703.459,1041.917,1703.459Z" transform="translate(-1041.676 -1673.481)" fill="#009779"/>
        <path id="Path_109" data-name="Path 109" d="M1068.221,1675.113l-3.124.155v3l3.2-.214Z" transform="translate(-1054.939 -1657.282)" fill="#89a6e5"/>
        <path id="Path_110" data-name="Path 110" d="M1060.876,1669.588a16.75,16.75,0,0,1-3.535-3.4c-.821-1.42.559-.5,1.968-.869.534-.142.4-3.268,1.407-2.252a18.688,18.688,0,0,1,3.006,4.979Z" transform="translate(-1050.366 -1650.28)" fill="#3c8f7c"/>
        <path id="Path_111" data-name="Path 111" d="M1047.882,1659.755s-3.014-.739-4.491.852c-1.158,1.247-2,20.2-2,20.2s10.062-.425,11.449-2.833c0,0,.663-9.215.61-10.372a32.11,32.11,0,0,0-1.675-6.4C1051.422,1660.7,1047.882,1659.755,1047.882,1659.755Z" transform="translate(-1041.391 -1648.407)" fill="#96d9c9"/>
        <path id="Path_112" data-name="Path 112" d="M1054.981,1650.273s-.015.086-.042.231a22.079,22.079,0,0,1-.968,3.653c-.408.77,1.4,3.225,3.134,2.925.517-.089-.437-2.256-.391-2.485.088-.439.207-1.039.329-1.653.068-.347.138-.7.2-1.029l.338-1.706Z" transform="translate(-1048.547 -1643.05)" fill="#f7a491"/>
        <path id="Path_113" data-name="Path 113" d="M1056.154,1650.774c.027-.146.042-.231.042-.231l2.6-.065-.337,1.707c-.065.329-.134.678-.2,1.023a2.443,2.443,0,0,1-1.243-.622,3.27,3.27,0,0,1-.941-1.4C1056.107,1651.024,1056.134,1650.882,1056.154,1650.774Z" transform="translate(-1049.783 -1643.204)" fill="#f47458"/>
        <g id="Group_26" data-name="Group 26" transform="translate(7.535 10.983)">
          <path id="Path_114" data-name="Path 114" d="M1089.741,1673.907a1.608,1.608,0,0,1,.144-.944c.154-.378.133-1.112.351-.977s-.016.8.167.745.762-1.425.959-1.3-.43,1.375-.267,1.322.617-1.259.9-1.086-.659,1.369-.509,1.461.722-.677.947-.538-.829,1.013-.733.982.78-.288.827-.152c.054.154-1.366.776-1.5,1.119s-2.307,3.873-3.029,3.953-4.2-1.765-4.51-2.454-.1-1.476.362-1.625,3.717,1.7,3.862,1.655S1089.741,1673.907,1089.741,1673.907Z" transform="translate(-1072.899 -1666.155)" fill="#f7a491"/>
          <path id="Path_115" data-name="Path 115" d="M1099.75,1674.242a.873.873,0,0,1,.175.31.856.856,0,0,1-.085.742A1.464,1.464,0,0,0,1099.75,1674.242Z" transform="translate(-1082.276 -1667.768)" fill="#f48c7f"/>
          <path id="Path_116" data-name="Path 116" d="M1068.886,1714.3a4.466,4.466,0,0,0,1.225.51,29.554,29.554,0,0,1-1.082,3.681s-.367-.178-.4-.491-.168-1.752-.656-2.179c-.127-.112-1.539-1.366-2.678-2.542.4-.451,1.651-.547,1.984-1.041A17.11,17.11,0,0,1,1068.886,1714.3Z" transform="translate(-1062.589 -1689.482)" fill="#f7a491"/>
          <path id="Path_117" data-name="Path 117" d="M1073.61,1717.626s-.613,2.137-.783,2.409c-.139.222.129,2.289.434,2.227a13.671,13.671,0,0,0,1.781-4.089C1074.955,1717.788,1073.61,1717.626,1073.61,1717.626Z" transform="translate(-1066.869 -1692.56)" fill="#96d9c9"/>
          <path id="Path_118" data-name="Path 118" d="M1065.714,1722.538a4.361,4.361,0,0,0,.831,1.021,29.908,29.908,0,0,1-2.891,2.539.663.663,0,0,1-.1-.6c.138-.275.838-1.985.624-2.579a13.971,13.971,0,0,0-.848-1.957,15.544,15.544,0,0,0,1.728-.711C1065.337,1721.067,1065.671,1722.417,1065.714,1722.538Z" transform="translate(-1061.464 -1694.059)" fill="#f7a491"/>
          <path id="Path_119" data-name="Path 119" d="M1063.467,1696.835a62.386,62.386,0,0,0-4.459,4.767c-.308.576,1.559,6.5,1.559,6.5a5.01,5.01,0,0,0,2.49-.842s-.928-4.132-.736-4.318,4.817-2.868,4.817-2.868l-.574-2.449Z" transform="translate(-1058.974 -1680.679)" fill="#b75742"/>
          <path id="Path_120" data-name="Path 120" d="M1068.919,1690.8a14.474,14.474,0,0,1-2.441,2.6c-.637.363-5.9,2.984-5.626,4.608.155.921,2.61,4.28,2.61,4.28l2.125-1.639s-1.228-1.566-1.168-1.8,4.771-.9,5.911-1.969.445-4.164.445-4.164Z" transform="translate(-1060.042 -1677.229)" fill="#f47458"/>
          <path id="Path_121" data-name="Path 121" d="M1070.618,1675.433a12.529,12.529,0,0,1-1.831-.328c-.484-.176-3.666,10.323-2.553,10.562,2.324.5,7.555,1.609,7.555,1.609a7.621,7.621,0,0,0,.389-4.174,18.11,18.11,0,0,1-.549-3.757l2.065.939.922-3.335a38.636,38.636,0,0,0-3.8-1.332C1072.544,1675.561,1070.618,1675.433,1070.618,1675.433Z" transform="translate(-1062.989 -1668.26)" fill="#00cbb6"/>
          <path id="Path_122" data-name="Path 122" d="M1065.858,1726.489s-1.754,1.6-2.072,1.755c-.258.126-.857,2.02-.528,2.124a13.466,13.466,0,0,0,3.719-2.634C1067.111,1727.342,1065.858,1726.489,1065.858,1726.489Z" transform="translate(-1061.368 -1697.625)" fill="#96d9c9"/>
          <g id="Group_25" data-name="Group 25" transform="translate(3.979)">
            <path id="Path_123" data-name="Path 123" d="M1071.872,1659.288a1.5,1.5,0,0,0-1.753.693c-.688,1.079-.317.977-.651,1.516s-1.209.427-1.209,1.265.391.967.391.967a1.427,1.427,0,0,0,.037,1.321,2.487,2.487,0,0,0,2.18,1.153,3.776,3.776,0,0,0,2.452.354c1.227-.317.8-.317,1.3-.317s1.859-.688,1.637-1.692a1.348,1.348,0,0,0,.025-1.786,7.312,7.312,0,0,1-1.42-2.7C1074.4,1658.986,1072.429,1659.028,1071.872,1659.288Z" transform="translate(-1068.258 -1659.134)" fill="#f7cc7f"/>
          </g>
          <path id="Path_124" data-name="Path 124" d="M1074.613,1672.053a6.689,6.689,0,0,1-.094,1.62.539.539,0,0,0-.128.723c.2.354,1.093.128,1.506-.074a1.962,1.962,0,0,0,.654-.555l-.207-2.347Z" transform="translate(-1067.733 -1666.155)" fill="#f7a491"/>
          <path id="Path_125" data-name="Path 125" d="M1075.62,1672.667a2.076,2.076,0,0,0,1.168-.918l-.029-.328-1.73.633s.011.361.006.743A2,2,0,0,0,1075.62,1672.667Z" transform="translate(-1068.149 -1666.155)" fill="#f47458"/>
          <path id="Path_126" data-name="Path 126" d="M1079.728,1666.547s.042-.871.577-.7.127,1.484-.316,1.44S1079.728,1666.547,1079.728,1666.547Z" transform="translate(-1070.813 -1662.957)" fill="#f7a491"/>
          <path id="Path_127" data-name="Path 127" d="M1073.433,1660.851a1.582,1.582,0,0,0-1.265.632,4.3,4.3,0,0,0-.185,3.794,1.453,1.453,0,0,0,1.981.837,2.213,2.213,0,0,0,1.479-1.619C1075.814,1663.3,1075.545,1660.6,1073.433,1660.851Z" transform="translate(-1066.199 -1660.106)" fill="#f7a491"/>
        </g>
        <g id="Group_27" data-name="Group 27" transform="translate(3.692 19.139)">
          <path id="Path_128" data-name="Path 128" d="M1076.337,1680.705a6.843,6.843,0,0,1,.551-1.3,1.591,1.591,0,0,1,.5-.481s.447-.265.539-.177a.267.267,0,0,1,.019.33c-.062.08-.252.164-.314.244a.779.779,0,0,0,.024.508c.053.105,1.343-.721,1.343-.721s.359-.255.471-.349c.1-.081.364-.344.364-.344s.4-.353.505-.219c.06.079-.21.494-.534.85a9.082,9.082,0,0,0-.73.75c.065.106.784-.33.784-.33a2.635,2.635,0,0,1,.453-.363c.15-.206.484-.462.6-.29a3.594,3.594,0,0,1-.334.513s-.284.262-.412.4a10.014,10.014,0,0,1-.809.613c-.137.122-.055.129-.054.15a4.2,4.2,0,0,0,.49-.294,3.286,3.286,0,0,0,.474-.289,3.869,3.869,0,0,1,.485-.337c.372-.226.448.054.136.321-.119.1-.249.211-.382.323-.515.431-1.074.708-1.048.777.032.089,1.02-.479,1.02-.479s.62-.151.158.243a4.909,4.909,0,0,1-1.058.7,4.678,4.678,0,0,1-1.2.565c-.418.092-1.022.207-1.311.262Z" transform="translate(-1065.054 -1678.166)" fill="#f8a492"/>
          <path id="Path_129" data-name="Path 129" d="M1050.007,1678.958l2.9-.551s.665,2.4.8,2.662c0,0,5.437.007,7.589-.226l.765,1.567c-.416.056-.765.07-.968.107-.4.071-6.7,1.289-6.7,1.289s-2.54.375-2.826,0S1050.007,1678.958,1050.007,1678.958Z" transform="translate(-1050.007 -1678.304)" fill="#f7a491"/>
        </g>
        <path id="Path_130" data-name="Path 130" d="M1046.7,1670.873s-2.7-6.2-2.751-7.939,1.707-3.627,3.2-3.237,3.279,9.606,3.279,9.606Z" transform="translate(-1042.851 -1648.443)" fill="#3c8f7c"/>
        <path id="Path_131" data-name="Path 131" d="M1074.933,1669.782l-1.3-.067a.568.568,0,0,0,.573.54C1074.9,1670.311,1074.933,1669.782,1074.933,1669.782Z" transform="translate(-1059.819 -1654.197)" fill="#fff"/>
        <g id="Group_29" data-name="Group 29" transform="translate(4.548)">
          <g id="Group_28" data-name="Group 28">
            <path id="Path_132" data-name="Path 132" d="M1056.99,1637.877c-.07-.049-1.67,3.891-.915,5.283s2.694,2.282,3.65,1.585c1.059-.771,2.146-5.168.821-6.741S1056.99,1637.877,1056.99,1637.877Z" transform="translate(-1054.215 -1635.657)" fill="#f7a491"/>
            <path id="Path_133" data-name="Path 133" d="M1058.279,1633.51a4.657,4.657,0,0,0-2.712.74,3.049,3.049,0,0,0-2.581,1.155,3.416,3.416,0,0,0-.222,4.542,3.411,3.411,0,0,1,.859,2.092,10.9,10.9,0,0,0,.559-1.586,2.511,2.511,0,0,0,.007-.8c-.123-.661.844-.831,1.213-1.26.285-.33.516-1.193.972-1.743l.475-.387a2.311,2.311,0,0,1,1.722-.041C1059.319,1636.609,1059.972,1633.6,1058.279,1633.51Z" transform="translate(-1052.005 -1633.504)" fill="#0e2e35"/>
            <path id="Path_134" data-name="Path 134" d="M1057.919,1645.2c-.12.5-.451.849-.74.781s-.426-.53-.306-1.03.45-.849.74-.78S1058.039,1644.7,1057.919,1645.2Z" transform="translate(-1054.762 -1639.594)" fill="#f7a491"/>
          </g>
          <path id="Path_135" data-name="Path 135" d="M1062.626,1650.287l1.594.324a.711.711,0,0,1-.865.476C1062.5,1650.938,1062.626,1650.287,1062.626,1650.287Z" transform="translate(-1058.07 -1643.095)" fill="#fff"/>
        </g>
      </g>
      <g id="Group_31" data-name="Group 31" transform="translate(33.752 4.749)">
        <path id="Path_136" data-name="Path 136" d="M1135.055,1682.034c-.128-.192.86-.65.86-.881s-1.36.128-1.456-.048c-.178-.324,1.468-.484,1.4-.639s-1.775-.074-1.672-.4,1.771.1,1.768-.1-1.589-.259-1.668-.683c-.042-.226,2.691.444,2.938.246s-.593-1.085-.411-1.3,1.392,1.891,1.564,1.924a34.657,34.657,0,0,0,5.1.974c.042-.427.529-2.763.56-3.164.763.284,1.538.177,2.312.415a21.958,21.958,0,0,1-1.38,5.057c-.908.75-5.707-1.462-6.641-1.809s-1.342-.039-1.923-.069S1135.182,1682.227,1135.055,1682.034Z" transform="translate(-1118.988 -1663.658)" fill="#f48c7f"/>
        <path id="Path_137" data-name="Path 137" d="M1125.574,1757.987a21.187,21.187,0,0,0-.079,3.372,3.177,3.177,0,0,0,.118.407,5.3,5.3,0,0,1-.274,1.884l-5.795.021c-.315,0-.1-.2.152-.383a11.716,11.716,0,0,1,2.1-1.124c.088-.041.406-.237.521-.306a4,4,0,0,0,.838-.72c.422-.457.486-2.7.486-2.7Z" transform="translate(-1110.534 -1709.391)" fill="#f7a491"/>
        <path id="Path_138" data-name="Path 138" d="M1107.9,1747.627a21.24,21.24,0,0,0-1.472,3.035,3.026,3.026,0,0,0-.061.419,5.3,5.3,0,0,1-1.032,1.6l-5.28-2.386c-.288-.13-.013-.224.3-.285a11.7,11.7,0,0,1,2.375-.152c.1,0,.468-.048.6-.062a3.992,3.992,0,0,0,1.061-.308c.574-.241,1.562-2.253,1.562-2.253Z" transform="translate(-1099.417 -1703.247)" fill="#f7a491"/>
        <path id="Path_139" data-name="Path 139" d="M1161.742,1648.21a4.5,4.5,0,0,1,3.086-3.356c4.728-1.578,7.352,4.308,11.143,5.655,1.138.4,2.336.646,3.446,1.112a4.335,4.335,0,0,1,.259,1.539,6.473,6.473,0,0,1-.275,1.615l-1.52-.315,1.089,1.426a17.953,17.953,0,0,1-3.173,4.236,15.723,15.723,0,0,1-5.925,3.833,56.265,56.265,0,0,1-3.809-4.592,22.671,22.671,0,0,1-3.65-5.965A10.408,10.408,0,0,1,1161.742,1648.21Z" transform="translate(-1134.688 -1644.587)" fill="#13375b"/>
        <path id="Path_140" data-name="Path 140" d="M1102.639,1753.131a5.258,5.258,0,0,0,3.038,1.29c-.049.487-.43,2.038-.591,1.966-1.322-.6-2.555-.864-6.316-2.652-.134-.063.095-.523.23-.585A28.214,28.214,0,0,1,1102.639,1753.131Z" transform="translate(-1098.73 -1706.582)" fill="#b75742"/>
        <path id="Path_141" data-name="Path 141" d="M1158.518,1668.8c-2.264.767-3.326,6.188-3.326,6.188s3.552.992,4.462.472c0,0,1.034-4.579,1.4-4.419Z" transform="translate(-1130.996 -1658.422)" fill="#e25a44"/>
        <path id="Path_142" data-name="Path 142" d="M1163.431,1667.043h0a26.547,26.547,0,0,0-2.53.815c-.87.368-1.333,3.227-1.253,6.747.032.538.438,8.827.479,8.854,1.037.668,7.22.993,7.651.425s.762-10.4.971-10.74l.284-4.154s-.222-1.146-.458-1.2A39.087,39.087,0,0,0,1163.431,1667.043Z" transform="translate(-1133.537 -1657.42)" fill="#f47458"/>
        <path id="Path_143" data-name="Path 143" d="M1170.1,1660.428a16.048,16.048,0,0,0-.322,2.908c.081.822-.307,3.473-2.048,3.481s-.331-3.37-.166-4.176a30.948,30.948,0,0,0,.2-3.3Z" transform="translate(-1137.669 -1653.019)" fill="#f7a491"/>
        <path id="Path_144" data-name="Path 144" d="M1168.878,1660.593c.027-.683.036-1.252.036-1.252l2.335,1.087s-.082.427-.165.97A2.039,2.039,0,0,1,1168.878,1660.593Z" transform="translate(-1138.817 -1653.019)" fill="#f47458"/>
        <path id="Path_145" data-name="Path 145" d="M1168.467,1647.676a2.9,2.9,0,0,1,1.664,1.113c.653.923,1.178,3.689-.815,5.062s-3.645-.408-3.736-2.2S1165.788,1647.457,1168.467,1647.676Z" transform="translate(-1136.925 -1646.344)" fill="#f7a491"/>
        <path id="Path_146" data-name="Path 146" d="M1164.309,1654.374c.189.426.544.682.792.572s.3-.545.106-.971-.544-.682-.793-.572S1164.119,1653.948,1164.309,1654.374Z" transform="translate(-1136.139 -1649.61)" fill="#f7a491"/>
        <path id="Path_147" data-name="Path 147" d="M1171.627,1647.58s1.382,2.822,2.514,3.037,1.168,1.659,1.168,1.659-.145-3.331-1.225-4.058A4.429,4.429,0,0,0,1171.627,1647.58Z" transform="translate(-1140.388 -1646.296)" fill="#13375b"/>
        <path id="Path_148" data-name="Path 148" d="M1176.44,1655.157c-.131.471.021.925.339,1.013s.683-.221.814-.692-.021-.925-.339-1.014S1176.571,1654.686,1176.44,1655.157Z" transform="translate(-1143.111 -1650.223)" fill="#f7a491"/>
        <path id="Path_149" data-name="Path 149" d="M1140.133,1702.482v1.306l-12.285,2.584-3.049,9.159,1.7-1.16-.392,14.1,2.584.018s4.477-11.833,3.009-17.784l13.6.208s6.162-2.38,2.983-9.554Z" transform="translate(-1113.627 -1677.032)" fill="#009779"/>
        <path id="Path_150" data-name="Path 150" d="M1132.117,1707.023s-12.743.086-13.649.783-7.7,18.016-7.7,18.016l2.962,1.106s5.893-9.826,6.2-10.527,2.594-5.825,3.465-6.347S1132.117,1707.023,1132.117,1707.023Z" transform="translate(-1105.612 -1680.267)" fill="#009779"/>
        <path id="Path_151" data-name="Path 151" d="M1175.468,1675.579l-2.137,1.788,2.105,3.428c-.968.6-6.521,1.606-6.551,1.608l.193,1.3s7.521.325,8.663-1.456C1178.716,1680.727,1175.476,1675.543,1175.468,1675.579Z" transform="translate(-1138.821 -1662.298)" fill="#f8a492"/>
        <path id="Path_152" data-name="Path 152" d="M1162.981,1691.583l-.594-1.412c-.165.016-1.283.044-1.307.031a14.827,14.827,0,0,0-1.485-.812c-.127-.047-.5-.1-.536.011a.191.191,0,0,0,.1.244c.088.034.187.083.275.117s.331.181.338.289a6.176,6.176,0,0,1-1.42.075s-.409-.03-.544-.05c-.115-.018-.456-.1-.456-.1s-.569-.086-.588.069c-.024.191,1.852.567,1.851.662,0,.115-.786.114-.786.114a2.5,2.5,0,0,0-.536-.07c-.218-.09-.654-.1-.664.089a3.517,3.517,0,0,0,.557.216s.353.071.519.116a9.179,9.179,0,0,0,.94.1c.167.032.105.075.114.093a4.1,4.1,0,0,1-.533,0,3,3,0,0,1-.516,0,3.711,3.711,0,0,0-.55-.034c-.405,0-.334.259.043.32.144.024.3.048.459.072.618.094,1.2.045,1.211.112.016.086-1.047.111-1.047.111s-.569.179-.012.27a3.422,3.422,0,0,0,1.189-.017,4.544,4.544,0,0,0,1.211-.147A25.651,25.651,0,0,1,1162.981,1691.583Z" transform="translate(-1131.82 -1670.158)" fill="#f7a491"/>
        <path id="Path_153" data-name="Path 153" d="M1177.394,1668.8c2.11.865,3.542,6.188,3.542,6.188s-3.552.992-4.462.472c0,0-1.033-4.579-1.4-4.419Z" transform="translate(-1142.356 -1658.422)" fill="#f47458"/>
        <path id="Path_154" data-name="Path 154" d="M1121.722,1766.456a5.249,5.249,0,0,0,3.3-.088c.158.464.454,2.033.277,2.033-1.453,0-2.682.276-6.846.21-.149,0-.131-.515-.034-.627A28.139,28.139,0,0,1,1121.722,1766.456Z" transform="translate(-1109.939 -1714.181)" fill="#b75742"/>
        <path id="Path_155" data-name="Path 155" d="M1168.289,1659.341l1.577.174a.7.7,0,0,1-.8.55C1168.218,1660,1168.289,1659.341,1168.289,1659.341Z" transform="translate(-1138.48 -1653.019)" fill="#fff"/>
      </g>
    </g>
    <g id="Group_35" data-name="Group 35" transform="translate(283.446 315.515)">
      <path id="Path_173" data-name="Path 173" d="M830.545,1650.943c-.08-.013-.1-.117-.1-.281a2.424,2.424,0,0,0-.379-.758c-.336-.547-.717-1.167-.587-1.594a.546.546,0,0,1,.318-.34.423.423,0,0,1,.432.018c.6.4.541,2.525.538,2.615l-.015.069,0,.006c-.083.236-.151.266-.188.266Zm.1-.35c.018-.6-.035-2.2-.483-2.5a.3.3,0,0,0-.311-.008.42.42,0,0,0-.25.262c-.114.373.267.993.574,1.492a2.267,2.267,0,0,1,.4.822c0,.049,0,.084.006.11a1.113,1.113,0,0,0,.056-.129Z" transform="translate(-829.452 -1647.92)" fill="#c8c6af"/>
    </g>
    <g id="Group_44" data-name="Group 44" transform="translate(410.13 336.883)">
      <g id="Group_42" data-name="Group 42" transform="translate(19.618)">
        <path id="Path_201" data-name="Path 201" d="M1446.141,1701.167c.131-.365,2.331-7.2,2.331-7.2l-3.384.754-1.542,5.308c-.132.265-2.513,6.686-3.34,8.755a1.336,1.336,0,0,1-.97.807h-.007a4.8,4.8,0,0,0-.982.345c-.14.1-.421.3-.589.427s-.37.266-.451.344a1.079,1.079,0,0,1-.293.139.179.179,0,0,0-.011.334.783.783,0,0,0,.481-.051c.367-.12.846-.507.862-.451s-.531.945-.587,1.051a12.567,12.567,0,0,0-.741,1.383c-.056.241.085.316.207.24.1-.066,1.08-1.432,1.08-1.432s.125-.174.151-.063-.857,1.354-.955,1.564-.063.4.149.344c.258-.062,1.119-1.447,1.119-1.447s.111-.172.164-.1-.717,1.116-.74,1.244a.17.17,0,0,0,.262.183,7.932,7.932,0,0,0,.975-1.345s.084-.078.1-.014-.577,1-.56,1.151a.119.119,0,0,0,.128.115c.246.029.7-.962,1.039-1.35S1446,1701.571,1446.141,1701.167Z" transform="translate(-1436.794 -1678.485)" fill="#f8a492"/>
        <path id="Path_202" data-name="Path 202" d="M1508.6,1826.85s.724.706.74.966.064,3.036-.231,3.3-1.163.443-.885.735a8.659,8.659,0,0,0,2.909.114c.314-.017.707-2.522.832-2.89.181-.535.62-1.739.455-2.112a3.131,3.131,0,0,0-1-.9,4.922,4.922,0,0,1-1.11-1.182Z" transform="translate(-1485.476 -1767.76)" fill="#f48c7f"/>
        <path id="Path_203" data-name="Path 203" d="M1480.105,1836.178s.648,1.83.648,1.835c.048.29.238,1.006.238,1.269,0,.99-4.466-.84-3.464-1.279a1.056,1.056,0,0,0,.4-.694,2.314,2.314,0,0,0-.376-1.17Z" transform="translate(-1464.474 -1775.443)" fill="#f7a491"/>
        <path id="Path_204" data-name="Path 204" d="M1461.341,1729.106s-.326,3.281-.326,3.33c0,5.306-1.052,15.672-.851,16.67.488,2.433,5.741,14.847,5.741,14.847l2.839-.339-3.7-14.862,1.362-5.983,1.926-11.825Z" transform="translate(-1452.715 -1702.447)" fill="#009779"/>
        <path id="Path_205" data-name="Path 205" d="M1475.207,1733.012l.539,3.109,1.458,12.8,5.55,12.506s-.781,1.82-1.933,2.075l-8.834-12.84-5.488-16.43.193-3.651Z" transform="translate(-1457.054 -1703.451)" fill="#009779"/>
        <path id="Path_206" data-name="Path 206" d="M1460.359,1686.129l3.937.4s.18-3.227.18-4.767c0-1.867-.159-4.273-.385-4.221a3.429,3.429,0,0,0-1.992,1.192C1460.342,1681.148,1460.359,1686.129,1460.359,1686.129Z" transform="translate(-1452.865 -1667.28)" fill="#50bfa5"/>
        <path id="Path_207" data-name="Path 207" d="M1463.019,1681.168c-.083.569-1.6,16.05-1.6,16.05,7.168,3.462,11.123.617,11.123.617s-.234-10.871.047-12.351c.186-.979.417-7.484-.217-7.666a15.882,15.882,0,0,0-2.765-.588,26.463,26.463,0,0,0-4.845.061A7.687,7.687,0,0,0,1463.019,1681.168Z" transform="translate(-1453.591 -1667.014)" fill="#96d9c9"/>
        <path id="Path_208" data-name="Path 208" d="M1510.765,1828.534s-1.668,4.7-2.321,4.925c-.173.06-1.005.213-1.162.581a1.587,1.587,0,0,0,0,.481h3.477s.44-2.069.614-2.979a13.551,13.551,0,0,0,.818-2.424C1512.088,1828.916,1510.765,1828.534,1510.765,1828.534Z" transform="translate(-1484.852 -1770.257)" fill="#13375b"/>
        <path id="Path_209" data-name="Path 209" d="M1473.825,1843.588l-.511-1.615a4.449,4.449,0,0,1-1.611.378,16.281,16.281,0,0,1-1.585-.378c-2.143.7-3.9,1.048-3.58,1.615h7.287Z" transform="translate(-1457.054 -1779.422)" fill="#13375b"/>
        <path id="Path_210" data-name="Path 210" d="M1477.505,1666.98l.527,3.224s-1.93,4.1-3.083,3.757c-.968-.29-.372-3.813-.372-3.813a9.291,9.291,0,0,0,.369-2.839C1474.788,1666.363,1477.505,1666.98,1477.505,1666.98Z" transform="translate(-1462.438 -1659.943)" fill="#f7a491"/>
        <path id="Path_211" data-name="Path 211" d="M1475.982,1667.31c-.158-.947,2.56-.329,2.56-.329l.044.277a1.536,1.536,0,0,1-.294.466,3.646,3.646,0,0,1-2.377,1.031A4.96,4.96,0,0,0,1475.982,1667.31Z" transform="translate(-1463.474 -1659.943)" fill="#f47458"/>
        <path id="Path_212" data-name="Path 212" d="M1475.625,1650.287c.077-.027.615,3.809-.407,4.864s-3.015,1.4-3.73.57c-.79-.919-.751-5.042.839-6.128S1475.625,1650.287,1475.625,1650.287Z" transform="translate(-1460.111 -1647.98)" fill="#f7a491"/>
        <path id="Path_213" data-name="Path 213" d="M1476.922,1646.1a2.884,2.884,0,0,1,2.1,1.6,3.031,3.031,0,0,1-.869,4.055,2.369,2.369,0,0,0-1.1,1.783l-.182-.489a2.667,2.667,0,0,1-.14-1.169,2.221,2.221,0,0,1,.181-.7c.27-.555-.579-.924-.817-1.385-.183-.356-.192-1.169-.481-1.757l-.344-.449a2.256,2.256,0,0,0-1.574-.426C1472.916,1647.331,1473.872,1643.69,1476.922,1646.1Z" transform="translate(-1461.784 -1645.274)" fill="#717171"/>
        <path id="Path_214" data-name="Path 214" d="M1481.958,1659.84c-.008.468.214.851.5.855s.517-.371.525-.839-.214-.851-.5-.856S1481.966,1659.372,1481.958,1659.84Z" transform="translate(-1467.595 -1654.635)" fill="#f7a491"/>
        <g id="Group_41" data-name="Group 41" transform="translate(8.132 9.626)">
          <g id="Group_39" data-name="Group 39">
            <path id="Path_215" data-name="Path 215" d="M1463.731,1680.924c-.062.02-.191.009-.463-.335l-.007-.01-.064-.107c-.056-.148-1.358-3.647-.589-4.649a.742.742,0,0,1,.708-.275.96.96,0,0,1,.722.384c.458.635.177,1.881-.071,2.981a4.247,4.247,0,0,0-.2,1.474c.089.274.118.457-.007.524A.185.185,0,0,1,1463.731,1680.924Zm-.286-.467a1.973,1.973,0,0,0,.166.183c-.009-.044-.026-.1-.052-.185a3.99,3.99,0,0,1,.194-1.59c.226-1,.507-2.249.107-2.8a.739.739,0,0,0-.565-.294.529.529,0,0,0-.511.19c-.575.749.246,3.44.616,4.428Z" transform="translate(-1462.366 -1675.543)" fill="#c8c6af"/>
          </g>
          <g id="Group_40" data-name="Group 40" transform="translate(0.803 4.861)">
            <path id="Path_216" data-name="Path 216" d="M1479.342,1732.615a.484.484,0,0,1-.564-.371l-13.85-40.76a.428.428,0,1,1,.786-.267l13.85,40.76A.484.484,0,0,1,1479.342,1732.615Z" transform="translate(-1464.892 -1690.829)" fill="#c8c6af"/>
          </g>
          <path id="Path_217" data-name="Path 217" d="M1509.638,1821.7l-.9.292a.259.259,0,0,1-.331-.183l-.447-1.764a.259.259,0,0,1,.172-.31l.677-.219a.259.259,0,0,1,.32.151l.674,1.69A.259.259,0,0,1,1509.638,1821.7Z" transform="translate(-1493.452 -1773.722)" fill="#f47458"/>
          <path id="Rectangle_177" data-name="Rectangle 177" d="M.674,0h0a.674.674,0,0,1,.674.674V5.717a.674.674,0,0,1-.674.674h0A.674.674,0,0,1,0,5.716V.674A.674.674,0,0,1,.674,0Z" transform="matrix(0.952, -0.307, 0.307, 0.952, 0.39, 4.831)" fill="#f47458"/>
        </g>
        <path id="Path_218" data-name="Path 218" d="M1487.174,1699.629l-2.83,2.052,1.969,3.118a48.276,48.276,0,0,1-5.344,4.082s-.351.241-.825.516l-.364.21a2.588,2.588,0,0,0-.766.062c-.275.094-.8.136-.912.22s-.588.714-.671.773a.729.729,0,0,0-.169.256c-.035.067-.609.469-.68.615s.116.509.247.56c0,0,.026.028-.005.105a.483.483,0,0,0,.064.359.309.309,0,0,0,.366.1s.068-.025.087-.008a1.035,1.035,0,0,0,.157.261c.1.093.241.108.437-.01,0,0,.123.5.536.251l.564-.344a2.359,2.359,0,0,0,.48-.2c.13-.094.951-.643.993-.715a1.741,1.741,0,0,1,.171-.268,4.6,4.6,0,0,0,.446-.435,6.131,6.131,0,0,1,.51-.456q.394-.182.825-.385h0c3.974-1.869,7.862-3.587,7.658-5.027A27.847,27.847,0,0,0,1487.174,1699.629Z" transform="translate(-1463.918 -1682.344)" fill="#f7a491"/>
        <path id="Path_219" data-name="Path 219" d="M1497.323,1685.835l-3.41,2.289a37.023,37.023,0,0,0-2.954-3.878c-1.293-1.276.471-5.184,1.3-4.962C1494.125,1679.778,1497.323,1685.835,1497.323,1685.835Z" transform="translate(-1473.421 -1668.462)" fill="#96d9c9"/>
        <path id="Path_220" data-name="Path 220" d="M1472.5,1664.414l1.69.172a.743.743,0,0,1-.85.584C1472.434,1665.1,1472.5,1664.414,1472.5,1664.414Z" transform="translate(-1461.146 -1658.327)" fill="#fff"/>
      </g>
      <g id="Group_43" data-name="Group 43" transform="translate(0 0.901)">
        <path id="Path_221" data-name="Path 221" d="M1383.983,1828.619a20.48,20.48,0,0,0-.077,3.244,3.1,3.1,0,0,0,.114.391,5.1,5.1,0,0,1-.264,1.813l-5.574.021c-.3,0-.1-.191.146-.368a11.213,11.213,0,0,1,2.018-1.082c.084-.039.39-.228.5-.294a3.852,3.852,0,0,0,.806-.693c.406-.44.468-2.6.468-2.6Z" transform="translate(-1377.099 -1771.216)" fill="#f7a491"/>
        <path id="Path_222" data-name="Path 222" d="M1379.921,1840.15a5.058,5.058,0,0,0,3.175-.085c.152.447.437,1.957.267,1.957-1.4,0-2.581.265-6.587.2-.143,0-.126-.495-.032-.6A26.967,26.967,0,0,1,1379.921,1840.15Z" transform="translate(-1376.172 -1779.022)" fill="#b75742"/>
        <path id="Path_223" data-name="Path 223" d="M1392.266,1727.22a18.153,18.153,0,0,1-1.08,5.728c-.974,2.178-5.639,7.55-6.879,10.684.383,1.769,1.437,4.254,1.36,6.214-.086,2.222.043,8.1.043,8.1l-2.5.079-3.284-15.167,4.949-16.364,2.246-3.974Z" transform="translate(-1378.39 -1698.857)" fill="#50bfa5"/>
        <path id="Path_224" data-name="Path 224" d="M1449.837,1817.682a21.765,21.765,0,0,0,2.215,2.644c.363.286,1.349.67,1.453,1.142s-4.463,4.652-4.463,4.652c-.242.214-.215-.082-.142-.4a12.027,12.027,0,0,1,.852-2.28c.039-.09.151-.456.194-.586a4.083,4.083,0,0,0,.158-1.119c.015-.636-1.449-2.4-1.449-2.4Z" transform="translate(-1425.265 -1763.758)" fill="#f7a491"/>
        <path id="Path_225" data-name="Path 225" d="M1449.486,1829.032a5.372,5.372,0,0,0,2.475-2.3c.435.25,1.6.784,1.5.933a22.113,22.113,0,0,1-4.889,5.39c-.116.1-.592-.471-.594-.623A28.81,28.81,0,0,1,1449.486,1829.032Z" transform="translate(-1424.805 -1769.932)" fill="#b75742"/>
        <path id="Path_226" data-name="Path 226" d="M1403.116,1730.267a18.159,18.159,0,0,1,2.4,5.314c.449,2.344-.3,9.419.483,12.7,1.327,1.23,3.615,2.664,4.675,4.314,1.2,1.87,4.675,6.613,4.675,6.613l-2.006,1.5-11.38-10.549-4.607-14.074-1.261-4.711Z" transform="translate(-1389.416 -1704.141)" fill="#96d9c9"/>
        <path id="Path_227" data-name="Path 227" d="M1383.035,1699.47c.076-.392,1.229-7.671,1.229-7.671l-3.316,1.3-.726,5.63c-.092.29-1.5,7.181-2.008,9.412a1.368,1.368,0,0,1-.857.971l-.007,0a4.921,4.921,0,0,0-.943.505c-.127.119-.379.371-.53.525s-.333.329-.4.42a1.106,1.106,0,0,1-.276.187.184.184,0,0,0,.041.34.8.8,0,0,0,.481-.127c.354-.18.778-.648.8-.593s-.39,1.043-.43,1.159a12.958,12.958,0,0,0-.534,1.52c-.018.254.137.307.247.211.1-.083.87-1.623.87-1.623s.1-.2.144-.087-.656,1.51-.722,1.738,0,.412.206.326a6.906,6.906,0,0,0,.907-1.646s.086-.191.15-.127-.551,1.245-.554,1.38a.175.175,0,0,0,.295.144,8.179,8.179,0,0,0,.777-1.519s.073-.092.1-.03-.427,1.107-.386,1.256a.121.121,0,0,0,.147.1c.254-.009.555-1.086.842-1.534S1382.952,1699.9,1383.035,1699.47Z" transform="translate(-1375.103 -1677.906)" fill="#f8a492"/>
        <path id="Path_228" data-name="Path 228" d="M1395.656,1654.868a9.841,9.841,0,0,1,.892-4.724,3.985,3.985,0,0,1,3.556-2.035c4.446-.005,5.011,5.894,7.841,8.169.865.7,1.832,1.262,2.649,2.011,3.022,2.769,1.661,7.894-1.114,10.321-1.925,1.684-4.951,2.642-7.324,1.324a7.48,7.48,0,0,1-2.849-3.081,42.211,42.211,0,0,1-2.24-5.721A21.428,21.428,0,0,1,1395.656,1654.868Z" transform="translate(-1389.112 -1648.108)" fill="#0e2e35"/>
        <path id="Path_229" data-name="Path 229" d="M1429.222,1711.518c.008-.037-1.469-6.31-2.066-7.7s-2.918-7.83-2.918-7.83l3-.656s1.937,5.042,2.82,7.321.506,6.481.545,7.667c0,.017.13,1,.13,1.02h0a1.863,1.863,0,0,0,.071.262,3.729,3.729,0,0,1,.144.49,1.484,1.484,0,0,0,.128.227c.036.058.118.864.135.994a1.937,1.937,0,0,1-.04.424l.032.54c.023.4-.388.292-.388.292.009.187-.056.285-.161.32a.846.846,0,0,1-.25.013c-.02.008-.028.067-.028.067.011.119-.123.211-.21.228a.4.4,0,0,1-.285-.092c-.044-.052-.074-.044-.074-.044a.493.493,0,0,1-.5-.036,6.745,6.745,0,0,1-.182-.729.59.59,0,0,1-.121-.221c-.011-.082-.286-.666-.3-.782s.154-.51.192-.746a2.846,2.846,0,0,1,.323-.707.9.9,0,0,0,0-.324Z" transform="translate(-1408.613 -1680.317)" fill="#f48c7f"/>
        <path id="Path_230" data-name="Path 230" d="M1391.057,1685.362c1.389-4.212,2.941-4.033,2.941-4.033l-1.2,8.856c-.858-.235-1.974-.756-2.831-1A38.511,38.511,0,0,1,1391.057,1685.362Z" transform="translate(-1385.24 -1670.764)" fill="#009779"/>
        <path id="Path_231" data-name="Path 231" d="M1401.531,1678.935s2.558-.163,3.571.942-2.245,9.853-2.43,11.26.938,5.149.938,5.149-6.01,1.212-7.728.073c0,0-.184-10.12,0-11.125a29.806,29.806,0,0,1,2.086-5.5C1398.337,1679.337,1401.531,1678.935,1401.531,1678.935Z" transform="translate(-1389.219 -1669.126)" fill="#009779"/>
        <path id="Path_232" data-name="Path 232" d="M1406.235,1668.055l.037.2a19.47,19.47,0,0,0,.85,3.224c.359.679-1.228,2.846-2.754,2.582-.455-.078.384-1.991.344-2.193-.077-.388-.182-.917-.289-1.459-.06-.306-.121-.616-.179-.908l-.3-1.507Z" transform="translate(-1394.775 -1661.673)" fill="#f7a491"/>
        <path id="Path_233" data-name="Path 233" d="M1406.272,1668.259l-.037-.2-2.288-.057.3,1.507.179.9a2.142,2.142,0,0,0,1.092-.549,2.892,2.892,0,0,0,.827-1.234C1406.313,1668.48,1406.29,1668.355,1406.272,1668.259Z" transform="translate(-1394.775 -1661.673)" fill="#f47458"/>
        <path id="Path_234" data-name="Path 234" d="M1401.529,1651.773a2.061,2.061,0,0,1,1.755.751c.676.876,1.4,3.586-.275,5.06s-3.338-.195-3.584-1.963S1399.083,1651.709,1401.529,1651.773Z" transform="translate(-1391.609 -1650.603)" fill="#f7a491"/>
        <path id="Path_235" data-name="Path 235" d="M1397.812,1661.734c.2.39.537.607.752.483s.226-.541.026-.931-.537-.607-.752-.483S1397.611,1661.343,1397.812,1661.734Z" transform="translate(-1390.492 -1656.742)" fill="#f7a491"/>
        <path id="Path_236" data-name="Path 236" d="M1405.92,1650.817s1.441,2.576,2.471,2.7,1.166,1.489,1.166,1.489-.369-3.156-1.389-3.764A3.784,3.784,0,0,0,1405.92,1650.817Z" transform="translate(-1396.12 -1649.937)" fill="#0e2e35"/>
        <path id="Path_237" data-name="Path 237" d="M1405.045,1665.306l-2.155.085a.942.942,0,0,0,1.031.807C1405.077,1666.185,1405.045,1665.306,1405.045,1665.306Z" transform="translate(-1394.053 -1659.837)" fill="#fff"/>
        <path id="Path_238" data-name="Path 238" d="M1419.12,1689.338s-3.317-3.969-3.916-5.437.3-3.668,1.7-3.84,4.9,6.341,4.9,6.341Z" transform="translate(-1402.323 -1669.897)" fill="#009779"/>
      </g>
    </g>
    <g id="Group_55" data-name="Group 55" transform="translate(207.405 276.111)">
      <path id="Path_239" data-name="Path 239" d="M620.533,1666.661l2.43,1.466.624,2.5a66.949,66.949,0,0,0,7.153,2.539s.443.115,1.021.219c.533.1,1.284.231,1.578.281a4.5,4.5,0,0,0,1.253.024,3.66,3.66,0,0,1,1.213.006c.16.062.6.214.831.295s.512.167.63.224a1.27,1.27,0,0,0,.38.051.211.211,0,0,1,.132.371.916.916,0,0,1-.559.117c-.456,0-1.133-.265-1.131-.2s.938.87,1.038.969a14.8,14.8,0,0,1,1.331,1.287c.15.252.018.386-.145.344-.141-.036-1.73-1.221-1.73-1.221s-.2-.151-.192-.016,1.452,1.213,1.636,1.415.214.422-.043.441c-.313.022-1.78-1.224-1.78-1.224s-.186-.153-.22-.054,1.208,1,1.28,1.132a.2.2,0,0,1-.228.3,9.377,9.377,0,0,1-1.58-1.161s-.123-.057-.117.02,1.009.918,1.043,1.093a.139.139,0,0,1-.1.175c-.266.122-1.129-.83-1.654-1.142a15.1,15.1,0,0,0-1.635-1.214,7.11,7.11,0,0,0-1.774-.388c-.445-.038-.932-.08-1.448-.129h0c-4.693-.438-10.9-1.166-10.631-2.7C619.274,1671.7,620.073,1668.293,620.533,1666.661Z" transform="translate(-605.914 -1645.783)" fill="#f7a491"/>
      <path id="Path_240" data-name="Path 240" d="M632.438,1808.834s-.141,2.541-.142,2.547c-.052.323-.256,1.119-.256,1.413,0,1.1,4.812-.935,3.734-1.424-.1-.044-.609-.378-.641-.753-.05-.578-.175-1.747-.175-1.747Z" transform="translate(-614.197 -1736.989)" fill="#f7a491"/>
      <path id="Path_241" data-name="Path 241" d="M635.5,1815.8a17.218,17.218,0,0,1-1.709.421c-.579.084-1.341-.625-1.751-.434-.451.211-.405,2.288-.405,2.288s6.032.362,7.735-.2C640.05,1817.656,637.814,1816.583,635.5,1815.8Z" transform="translate(-613.94 -1741.427)" fill="#184655"/>
      <path id="Path_242" data-name="Path 242" d="M602.86,1809.515s-.141,2.541-.142,2.546c-.052.323-.256,1.12-.256,1.414,0,1.1,4.813-.936,3.734-1.424-.1-.044-.761-.628-.793-1-.049-.578-.023-1.5-.023-1.5Z" transform="translate(-595.223 -1737.426)" fill="#f7a491"/>
      <path id="Path_243" data-name="Path 243" d="M605.815,1816.478a17.14,17.14,0,0,1-1.709.421c-.579.084-1.342-.625-1.751-.434-.451.211-.469,2.11-.469,2.11s6.448.476,7.964.029C610.533,1818.4,608.125,1817.263,605.815,1816.478Z" transform="translate(-594.854 -1741.863)" fill="#184655"/>
      <path id="Path_244" data-name="Path 244" d="M613.615,1707.191l2.034.894,4.28,20.82-.174,15.608-3.431.081s-1.6-13.654-1.6-14.712-7.392-18.516-7.392-18.516Z" transform="translate(-598.35 -1671.784)" fill="#009779"/>
      <path id="Path_245" data-name="Path 245" d="M606.166,1709.14s-1.5,16.041-1.5,18.745-1.215,17.838-1.215,17.838l-3.439-.021s-.248-4.613-.617-11.4c-.058-1.063.074-3.207,0-4.307-.535-7.914-1.593-15.364-1.088-18.317a5.92,5.92,0,0,1,.532-2.032C601.092,1707.273,606.166,1709.14,606.166,1709.14Z" transform="translate(-592.473 -1672.586)" fill="#009779"/>
      <path id="Path_246" data-name="Path 246" d="M623.533,1654.947l-4.162-.284s-.205-3.789-.205-5.6c0-2.193-.656-5.426-.4-5.366a5.06,5.06,0,0,1,2.54,1.665C623.3,1648.2,623.533,1654.947,623.533,1654.947Z" transform="translate(-605.644 -1631.054)" fill="#50bfa5"/>
      <path id="Path_247" data-name="Path 247" d="M596.645,1643.261a10.8,10.8,0,0,0-3,.8,8.5,8.5,0,0,0-1.484,1.7s2.914,14.029,2.919,16.39c0,1.826-.631,6.311-.631,6.311s8.805.566,12.14-.775c0,0-1.053-5.333-1.053-6.734s-1.26-14.136-1.546-15.025a3.356,3.356,0,0,0-2.344-2.615A23.254,23.254,0,0,0,596.645,1643.261Z" transform="translate(-588.616 -1630.697)" fill="#96d9c9"/>
      <path id="Path_248" data-name="Path 248" d="M605.422,1632.517l-.588,3.918s2.145,4.665,3.426,4.26c1.075-.339.413-4.467.413-4.467a11.429,11.429,0,0,1-.41-3.325C608.439,1631.794,605.422,1632.517,605.422,1632.517Z" transform="translate(-596.745 -1623.731)" fill="#f7a491"/>
      <path id="Path_249" data-name="Path 249" d="M609.228,1632.9c.176-1.11-2.842-.386-2.842-.386l-.049.325a1.8,1.8,0,0,0,.327.546,3.948,3.948,0,0,0,2.638,1.208A6.132,6.132,0,0,1,609.228,1632.9Z" transform="translate(-597.709 -1623.731)" fill="#f47458"/>
      <g id="Group_45" data-name="Group 45" transform="translate(5.765)">
        <path id="Path_250" data-name="Path 250" d="M604.674,1615.283c-.085-.031-.684,4.462.452,5.7s3.348,1.641,4.141.667c.878-1.076.834-5.906-.932-7.177S604.674,1615.283,604.674,1615.283Z" transform="translate(-602.258 -1612.039)" fill="#f7a491"/>
        <path id="Path_251" data-name="Path 251" d="M603.757,1608.451a4.893,4.893,0,0,0-2.573,1.485c-.62.074-1.462.421-2.331,1.877a3.671,3.671,0,0,0,.965,4.75,2.868,2.868,0,0,1,1.231,2.1l.193-.587a3.294,3.294,0,0,0,.156-1.371,2.709,2.709,0,0,0-.2-.824c-.3-.65.643-1.082.907-1.623.2-.416.213-1.369.534-2.058l.383-.526a2.419,2.419,0,0,1,1.747-.5C605.632,1611.375,605.507,1608.09,603.757,1608.451Z" transform="translate(-598.351 -1608.423)" fill="#13375b"/>
        <path id="Path_252" data-name="Path 252" d="M606.629,1625.183c.009.549-.237,1-.55,1s-.574-.434-.583-.982.237-1,.55-1S606.62,1624.635,606.629,1625.183Z" transform="translate(-602.935 -1618.544)" fill="#f7a491"/>
      </g>
      <path id="Path_253" data-name="Path 253" d="M679.32,1675.67v3.055h-3.055l.378-3.055Z" transform="translate(-642.568 -1651.563)" fill="#f7a491"/>
      <rect id="Rectangle_178" data-name="Rectangle 178" width="0.951" height="19.433" transform="translate(35.495 57.972) rotate(180)" fill="#184655"/>
      <g id="Group_46" data-name="Group 46" transform="translate(17.611 33.217)">
        <path id="Path_254" data-name="Path 254" d="M635.46,1722.424h-.989V1704a1.933,1.933,0,0,0-1.931-1.931h-1.145v-.99h1.145a2.923,2.923,0,0,1,2.92,2.92Z" transform="translate(-631.394 -1701.082)" fill="#fff"/>
      </g>
      <path id="Path_255" data-name="Path 255" d="M665.758,1766.321c0,6.427,4.3,11.656,9.59,11.656s9.59-5.229,9.59-11.656-4.3-11.656-9.59-11.656S665.758,1759.894,665.758,1766.321Z" transform="translate(-635.828 -1702.239)" fill="#e5ecf2" opacity="0.6"/>
      <path id="Path_256" data-name="Path 256" d="M620.52,1701.006h0a.729.729,0,0,0,.729.729h3.558a.729.729,0,0,0,.729-.729h0a.729.729,0,0,0-.729-.729h-3.558A.729.729,0,0,0,620.52,1701.006Z" transform="translate(-606.807 -1667.349)" fill="#0e2e35"/>
      <g id="Group_47" data-name="Group 47" transform="translate(26.101 28.388)">
        <path id="Path_257" data-name="Path 257" d="M659.142,1714.181h-.99v-23.65a1.933,1.933,0,0,0-1.931-1.931h-1.145v-.99h1.145a2.924,2.924,0,0,1,2.921,2.921Z" transform="translate(-655.076 -1687.61)" fill="#aaa896"/>
      </g>
      <g id="Group_48" data-name="Group 48" transform="translate(28.808 50.718)">
        <path id="Path_258" data-name="Path 258" d="M665.312,1771.17a15.716,15.716,0,0,1,0-17.565,7.761,7.761,0,0,1,13.233,0,15.716,15.716,0,0,1,0,17.565,7.761,7.761,0,0,1-13.233,0Zm-1.851-8.783c0,6.427,3.8,11.656,8.468,11.656s8.467-5.229,8.467-11.656-3.8-11.655-8.467-11.655S663.461,1755.961,663.461,1762.388Z" transform="translate(-662.629 -1749.9)" fill="#c8c6af"/>
      </g>
      <g id="Group_49" data-name="Group 49" transform="translate(29.221 49.433)">
        <path id="Path_259" data-name="Path 259" d="M666.733,1769.74a17.251,17.251,0,0,1,0-19.3,8.673,8.673,0,0,1,14.765,0,17.252,17.252,0,0,1,0,19.3,8.674,8.674,0,0,1-14.765,0Zm-1.44-9.652c0,6.76,3.958,12.26,8.822,12.26s8.822-5.5,8.822-12.26-3.958-12.26-8.822-12.26S665.293,1753.328,665.293,1760.088Z" transform="translate(-663.78 -1746.315)" fill="#071b1e"/>
      </g>
      <g id="Group_50" data-name="Group 50" transform="translate(42.117 62.075)">
        <rect id="Rectangle_179" data-name="Rectangle 179" width="0.791" height="17.668" transform="translate(0 0.571) rotate(-46.138)" fill="#7f7f79"/>
      </g>
      <rect id="Rectangle_180" data-name="Rectangle 180" width="11.387" height="0.438" transform="translate(39.168 59.825) rotate(180)" fill="#7f7f79"/>
      <rect id="Rectangle_181" data-name="Rectangle 181" width="0.943" height="20.348" transform="translate(39.909 73.94) rotate(180)" fill="#7f7f79"/>
      <path id="Rectangle_182" data-name="Rectangle 182" d="M.64,0H13.9a.64.64,0,0,1,.64.64v0a.64.64,0,0,1-.64.64H.64A.64.64,0,0,1,0,.64v0A.64.64,0,0,1,.64,0Z" transform="translate(47.029 47.966) rotate(180)" fill="#fff"/>
      <path id="Rectangle_183" data-name="Rectangle 183" d="M.64,0H15.228a.64.64,0,0,1,.64.64v0a.64.64,0,0,1-.64.64H.64A.64.64,0,0,1,0,.641v0A.64.64,0,0,1,.64,0Z" transform="translate(47.871 47.157) rotate(180)" fill="#1e634f"/>
      <path id="Path_260" data-name="Path 260" d="M657.356,1764.431v-11.307h1.049v11.307h11.659v-11.307h1.049v12.236H657.24v-.929Z" transform="translate(-630.363 -1701.25)" fill="#7f7f79"/>
      <path id="Path_261" data-name="Path 261" d="M652.544,1701.811v-8.878h.73v8.878h8.108v-8.878h.73v9.608h-9.648v-.73Z" transform="translate(-627.299 -1662.637)" fill="#adac9e"/>
      <rect id="Rectangle_184" data-name="Rectangle 184" width="16.238" height="18.748" rx="8.119" transform="translate(37.551 52.935) rotate(180)" fill="#327f6b"/>
      <path id="Rectangle_185" data-name="Rectangle 185" d="M8.119,0h0a8.119,8.119,0,0,1,8.119,8.119V10.63A8.118,8.118,0,0,1,8.12,18.748h0A8.118,8.118,0,0,1,0,10.63V8.119A8.119,8.119,0,0,1,8.119,0Z" transform="translate(38.898 52.935) rotate(180)" fill="#3c8f7c"/>
      <rect id="Rectangle_186" data-name="Rectangle 186" width="13.128" height="6.418" rx="3.209" transform="translate(36.125 32.974) rotate(180)" fill="#327f6b"/>
      <rect id="Rectangle_187" data-name="Rectangle 187" width="13.127" height="6.418" rx="3.209" transform="translate(37.214 32.974) rotate(180)" fill="#3c8f7c"/>
      <path id="Rectangle_188" data-name="Rectangle 188" d="M.636,0h23.3a.636.636,0,0,1,.636.636v0A1.924,1.924,0,0,1,22.653,2.56H.636A.636.636,0,0,1,0,1.924V.636A.636.636,0,0,1,.636,0Z" transform="translate(45.889 55.95) rotate(180)" fill="#327f6b"/>
      <path id="Path_262" data-name="Path 262" d="M679.294,1697.065c1.213-.453,1.52,12.707,1.52,12.707,1.125.76,4.623,3.159,5.38,3.536.307.153,1.133.31,1.448.445a3.428,3.428,0,0,1,.739.394,15.835,15.835,0,0,1,1.235,1.759c.06.261.241.938.06,1.076s-.527-1-.527-1l-.246-.426c.193.722.719,1.833.465,1.973s-.683-.933-1-1.677c.224.724.362,1.861.151,1.9-.19.035-.336-1.274-.912-1.968-.214-.258-.642-.152-.874-.246a1.781,1.781,0,0,1-.57-.3l-.658-.694a8.473,8.473,0,0,0-.91-.38c-.356-.121-.858-.362-1.319-.5a32.967,32.967,0,0,0-4.129-1.138c-.814-.139-1.2-2.3-1.318-5.663C677.7,1703.114,677.055,1697.9,679.294,1697.065Z" transform="translate(-643.451 -1665.28)" fill="#f48c7f"/>
      <path id="Path_263" data-name="Path 263" d="M720.872,1798.1a2.043,2.043,0,0,0,1.147,1.344c.869.278,3.309-.442,3.781-.293a1.054,1.054,0,0,1,.622.434l-5.933,3.485-1.034-1.8-.52-1.429Z" transform="translate(-669.943 -1730.104)" fill="#f7a491"/>
      <path id="Path_264" data-name="Path 264" d="M723.346,1800.409s-1.121,1.541-2.069,1.636-.987-.018-1.114.246.828,1.957.828,1.957l6.679-3.906c.45-.3.471-.775-.079-.83a6.311,6.311,0,0,0-.98.023A24.26,24.26,0,0,0,723.346,1800.409Z" transform="translate(-670.722 -1730.999)" fill="#b75742"/>
      <path id="Path_265" data-name="Path 265" d="M661.5,1736c.629-.492,7.368,1.44,7.368,1.44s8.494,1.25,10.138,2.766c.453.417,4.775,16.929,5.545,18.437l-2.842,1.8s-4.657-8.608-5.781-10.689a24.028,24.028,0,0,1-1.963-5.156c-3.366.508-4.814-.844-11.053-3.223C660.1,1740.308,660.869,1736.495,661.5,1736Z" transform="translate(-632.713 -1690.215)" fill="#f47458"/>
      <path id="Path_266" data-name="Path 266" d="M700.1,1800.6a2.042,2.042,0,0,0,.689,1.628c.745.526,3.288.575,3.694.859a1.055,1.055,0,0,1,.462.6l-6.706,1.537-.445-2.023-.066-1.519Z" transform="translate(-656.339 -1731.707)" fill="#f7a491"/>
      <path id="Path_267" data-name="Path 267" d="M701.121,1805.775s-1.533,1.131-2.465.937-.936-.315-1.136-.1.2,2.115.2,2.115l7.545-1.714c.518-.147.683-.6.175-.815a6.309,6.309,0,0,0-.941-.273A24.287,24.287,0,0,0,701.121,1805.775Z" transform="translate(-656.168 -1735.025)" fill="#b75742"/>
      <path id="Path_268" data-name="Path 268" d="M651.164,1740.178c.747-.28,7.62-1.2,7.62-1.2s9.639.073,10.751,2.013c.307.535.579,19.093.86,20.763l-3.253.862s-2.728-11.086-2.045-17.83c-1.73.6-10.056,3.749-13.364,1.125C649.378,1744.045,650.417,1740.459,651.164,1740.178Z" transform="translate(-625.898 -1692.178)" fill="#b75742"/>
      <path id="Path_269" data-name="Path 269" d="M677.113,1703.628c-.177-3.586-.152-8.005,1.865-8.759.8-.3,2.2,1.491,1.947,8.832A15.175,15.175,0,0,1,677.113,1703.628Z" transform="translate(-643.068 -1663.86)" fill="#f47458"/>
      <path id="Path_270" data-name="Path 270" d="M658.737,1693.018a20.982,20.982,0,0,1,4.519.643s.825,7.065-.742,12.433a13.025,13.025,0,0,0,.205,4.084l-10.51.619s1.665-8.993,1.213-10.469-.463-6.62-.463-6.62.069-.011,2.276-.391A22.987,22.987,0,0,1,658.737,1693.018Z" transform="translate(-627.136 -1662.692)" fill="#a1d4ca"/>
      <path id="Path_271" data-name="Path 271" d="M658.788,1666.054a1.34,1.34,0,0,0-2.1.51,3.428,3.428,0,0,0-.577-.031,4.752,4.752,0,0,0-.892.463,3.237,3.237,0,0,0-1.662,2.5,3.7,3.7,0,0,0,1.056,3.037,3.2,3.2,0,0,0,.788.732c.379.227.708.1,1.074.209.308.1.39.41.771.329.534-.114,1.136-.67,1.772-.531a7.044,7.044,0,0,0,2.176-.279c1.974-.535,1-4.04.746-5.276A2.72,2.72,0,0,0,658.788,1666.054Z" transform="translate(-627.976 -1645.184)" fill="#13375b"/>
      <path id="Path_272" data-name="Path 272" d="M665.941,1684.741l.381,1.285.2.718a.679.679,0,0,1-.6.973,2.257,2.257,0,0,1-2.48-1.15l-.344-3.976Z" transform="translate(-634.122 -1656.003)" fill="#f7a491"/>
      <path id="Path_273" data-name="Path 273" d="M663.211,1683.879a4.9,4.9,0,0,0,3.115,2.159l-.384-1.3-2.842-2.15Z" transform="translate(-634.122 -1656.003)" fill="#f47458"/>
      <path id="Path_274" data-name="Path 274" d="M662.778,1671.117a2.2,2.2,0,0,1,3.009,1.22,13.94,13.94,0,0,1,.444,1.859c.281,1.708-.441,3.491-1.286,3.594a3.947,3.947,0,0,1-3.773-3.139A3.17,3.17,0,0,1,662.778,1671.117Z" transform="translate(-632.846 -1648.51)" fill="#f7a491"/>
      <path id="Path_275" data-name="Path 275" d="M660.908,1680.572a.638.638,0,0,1-.509.758.673.673,0,0,1-.706-.609.638.638,0,0,1,.509-.758A.672.672,0,0,1,660.908,1680.572Z" transform="translate(-631.932 -1654.314)" fill="#f7a491"/>
      <path id="Rectangle_189" data-name="Rectangle 189" d="M.64,0H16.829a.64.64,0,0,1,.64.64v0a.64.64,0,0,1-.64.64H.64A.64.64,0,0,1,0,.64v0A.64.64,0,0,1,.64,0Z" transform="translate(37.819 47.966) rotate(180)" fill="#fff"/>
      <path id="Rectangle_190" data-name="Rectangle 190" d="M.64,0H18.428a.64.64,0,0,1,.64.64v0a.64.64,0,0,1-.64.64H.64A.64.64,0,0,1,0,.64v0A.64.64,0,0,1,.64,0Z" transform="translate(38.831 47.157) rotate(180)" fill="#1e634f"/>
      <g id="Group_51" data-name="Group 51" transform="translate(26.857 62.074)">
        <rect id="Rectangle_191" data-name="Rectangle 191" width="0.792" height="17.668" transform="translate(0 0.571) rotate(-46.128)" fill="#7f7f79"/>
      </g>
      <path id="Path_276" data-name="Path 276" d="M655.151,1782.164c0,.927.566,1.678,1.265,1.678s1.265-.751,1.265-1.678-.566-1.678-1.265-1.678S655.151,1781.237,655.151,1782.164Z" transform="translate(-629.023 -1718.803)" fill="#1b1811"/>
      <g id="Group_53" data-name="Group 53" transform="translate(18.604 49.433)">
        <g id="Group_52" data-name="Group 52">
          <path id="Path_277" data-name="Path 277" d="M637.116,1769.74a17.253,17.253,0,0,1,0-19.3,8.673,8.673,0,0,1,14.765,0,17.251,17.251,0,0,1,0,19.3,8.674,8.674,0,0,1-14.765,0Zm-1.44-9.652c0,6.76,3.958,12.26,8.823,12.26s8.822-5.5,8.822-12.26-3.958-12.26-8.822-12.26S635.675,1753.328,635.675,1760.088Z" transform="translate(-634.163 -1746.315)" fill="#1b1811"/>
        </g>
      </g>
      <rect id="Rectangle_192" data-name="Rectangle 192" width="18.226" height="0.842" rx="0.421" transform="translate(57.141 74.833) rotate(-180)" fill="#c8c6af"/>
      <path id="Path_278" data-name="Path 278" d="M690.022,1813.737h17.637a.657.657,0,0,0,.657-.657h0a.656.656,0,0,0-.657-.657H690.022a.656.656,0,0,0-.657.657h0A.657.657,0,0,0,690.022,1813.737Z" transform="translate(-650.972 -1739.292)" fill="#3c8f7c"/>
      <path id="Path_279" data-name="Path 279" d="M670.063,1684.988l-1.549.253a.687.687,0,0,0,.816.492C670.165,1685.621,670.063,1684.988,670.063,1684.988Z" transform="translate(-637.596 -1657.54)" fill="#fff"/>
      <path id="Path_280" data-name="Path 280" d="M634.655,1763.877c0,6.427,3.8,11.656,8.468,11.656s8.468-5.229,8.468-11.656-3.8-11.655-8.468-11.655S634.655,1757.451,634.655,1763.877Z" transform="translate(-615.875 -1700.672)" fill="#e5ecf2" opacity="0.6"/>
      <path id="Path_281" data-name="Path 281" d="M613.06,1631.521l1.676-.171a.736.736,0,0,1-.708.737C613.131,1632.2,613.06,1631.521,613.06,1631.521Z" transform="translate(-602.021 -1623.131)" fill="#fff"/>
      <g id="Group_54" data-name="Group 54" transform="translate(24.382 38.773)">
        <path id="Path_282" data-name="Path 282" d="M682.1,1726.941a7.4,7.4,0,0,1,.906-1.232,1.726,1.726,0,0,1,.648-.381s.537-.167.612-.05a.288.288,0,0,1-.064.352c-.085.069-.306.109-.391.178a.842.842,0,0,0-.1.542,7.132,7.132,0,0,0,1.594-.423s.441-.178.583-.249c.121-.061.47-.271.47-.271s.512-.272.587-.1c.044.1-.344.468-.774.761a9.836,9.836,0,0,0-.956.607c.042.127.907-.152.907-.152a2.88,2.88,0,0,1,.568-.269c.209-.179.625-.365.7-.156a3.862,3.862,0,0,1-.48.457s-.365.205-.532.314c-.3.192-.8.329-1.006.443-.175.094-.09.122-.094.144a4.646,4.646,0,0,0,.589-.187,3.594,3.594,0,0,0,.571-.185,4.24,4.24,0,0,1,.6-.235c.448-.144.458.169.063.373-.151.078-.316.161-.483.244-.65.325-1.307.477-1.3.556.012.1,1.194-.249,1.194-.249s.69,0,.106.3a5.376,5.376,0,0,1-1.289.472,5.116,5.116,0,0,1-1.4.3c-.464-.008-1.128-.038-1.446-.053Z" transform="translate(-670.695 -1722.133)" fill="#f8a492"/>
        <path id="Path_283" data-name="Path 283" d="M650.281,1716.581l3.19.145s.1,2.7.172,3c0,0,5.723,1.368,8.046,1.661l.414,1.841c-.452-.045-.824-.117-1.045-.13-.436-.024-7.381-.321-7.381-.321s-2.768-.24-2.976-.7S650.281,1716.581,650.281,1716.581Z" transform="translate(-650.281 -1716.581)" fill="#f7a491"/>
      </g>
      <path id="Path_284" data-name="Path 284" d="M648.857,1703.678c-.177-3.586-.151-8.006,1.865-8.759.8-.3,2.2,1.491,1.946,8.832A15.2,15.2,0,0,1,648.857,1703.678Z" transform="translate(-624.942 -1663.891)" fill="#f47458"/>
      <path id="Path_285" data-name="Path 285" d="M583.674,1671.7l3.59,1.9-.536,2.062a66.929,66.929,0,0,0,7.154,2.539s.442.115,1.021.219c.533.1,1.284.23,1.578.281a4.524,4.524,0,0,0,1.253.024,3.649,3.649,0,0,1,1.213.006c.16.062.6.214.831.3s.512.166.63.224a1.282,1.282,0,0,0,.381.05.211.211,0,0,1,.132.371.921.921,0,0,1-.559.117c-.456,0-1.133-.266-1.131-.2s.937.87,1.038.969a14.835,14.835,0,0,1,1.331,1.288c.15.251.018.386-.145.344-.14-.036-1.73-1.22-1.73-1.22s-.2-.151-.193-.016,1.451,1.214,1.636,1.415.214.422-.043.44c-.312.022-1.779-1.224-1.779-1.224s-.187-.153-.22-.054,1.208,1,1.28,1.132a.2.2,0,0,1-.229.3,9.383,9.383,0,0,1-1.58-1.161s-.123-.057-.117.021,1.009.918,1.044,1.093a.14.14,0,0,1-.1.175c-.266.122-1.129-.83-1.654-1.143a15.022,15.022,0,0,0-1.636-1.214,7.077,7.077,0,0,0-1.774-.389c-.445-.038-.932-.081-1.448-.128h0c-4.693-.439-10.9-1.167-10.631-2.7C582.414,1676.738,583.213,1673.332,583.674,1671.7Z" transform="translate(-582.268 -1649.016)" fill="#f7a491"/>
      <path id="Path_286" data-name="Path 286" d="M588.66,1645.095a6.053,6.053,0,0,0-2.825,1.969c-1.306,1.494-2.128,9.862-2.128,9.862l4.508.742.36-4.047,1.2-1.852Z" transform="translate(-583.191 -1631.949)" fill="#96d9c9"/>
    </g>
    <g id="Group_68" data-name="Group 68" transform="translate(497.795 298.942)">
      <g id="Group_20" data-name="Group 20" transform="translate(0 15.398)">
        <rect id="Rectangle_148" data-name="Rectangle 148" width="1.224" height="18.245" transform="translate(5.312 2.519)" fill="#31535b"/>
        <rect id="Rectangle_149" data-name="Rectangle 149" width="1.225" height="18.245" transform="translate(65.73 2.519)" fill="#31535b"/>
        <g id="Group_19" data-name="Group 19" transform="translate(1.105 0)">
          <rect id="Rectangle_150" data-name="Rectangle 150" width="70.057" height="3.627" rx="1.814" fill="#f7cc7f"/>
          <rect id="Rectangle_151" data-name="Rectangle 151" width="70.057" height="3.627" rx="1.814" transform="translate(0 5.151)" fill="#f7cc7f"/>
          <rect id="Rectangle_152" data-name="Rectangle 152" width="70.057" height="3.627" rx="1.814" transform="translate(0 10.303)" fill="#f7cc7f"/>
        </g>
        <path id="Rectangle_153" data-name="Rectangle 153" d="M2.8,0H67.939a2.8,2.8,0,0,1,2.8,2.8v0a0,0,0,0,1,0,0H0a0,0,0,0,1,0,0v0A2.8,2.8,0,0,1,2.8,0Z" transform="translate(0.763 19.364)" fill="#f7cc7f"/>
        <rect id="Rectangle_154" data-name="Rectangle 154" width="72.123" height="1.27" rx="0.635" transform="translate(0 21.798)" fill="#31535b"/>
        <rect id="Rectangle_155" data-name="Rectangle 155" width="1.364" height="17.998" transform="translate(2.905 23.068)" fill="#31535b"/>
        <rect id="Rectangle_156" data-name="Rectangle 156" width="1.364" height="17.998" transform="translate(68.579 23.068)" fill="#31535b"/>
      </g>
      <g id="Group_58" data-name="Group 58" transform="translate(10.725 0)">
        <path id="Path_287" data-name="Path 287" d="M2319.219,1684.2c-.06-.349,1.59-.344,1.733-.663s-1.966-.7-1.991-1.01c-.048-.564,2.333.279,2.329.018s-2.418-1.251-2.074-1.638,2.4,1.287,2.513,1.005-2.046-1.387-1.9-2.024c.081-.341,3.462,2.356,3.926,2.242s-.158-1.886.227-2.068.867,3.3,1.085,3.454,5.036,3.214,6.752,3.976c.319-.564,2.593-3.523,2.882-4.059.885.888,2.422.544,3.351,1.374-1.073,1.758-4.2,7.021-4.762,7.169-1.719.45-8.2-5.14-9.279-6.225s-1.839-.922-2.625-1.341S2319.278,1684.551,2319.219,1684.2Z" transform="translate(-2318.959 -1661.833)" fill="#f7a491"/>
        <path id="Path_288" data-name="Path 288" d="M2355.62,1677.519s2.43-6.547,3.954-8.079,4.787-1.524,5.77.184-5.312,9.589-5.312,9.589Z" transform="translate(-2340.952 -1654.907)" fill="#96d9c9"/>
        <path id="Path_289" data-name="Path 289" d="M2372.9,1666.629c-2.472-.054-2.194-4.833-2.194-4.833a4.61,4.61,0,0,0-.538.072,4.61,4.61,0,0,1,.538-.072,2.076,2.076,0,0,0,1.859-1.743,6.9,6.9,0,0,0,.105-1.951c-.188-1.175,3.035-.409,3.035-.409l.422,2.793a1.983,1.983,0,0,0,1.533,1.639S2375.376,1666.682,2372.9,1666.629Z" transform="translate(-2349.682 -1648.388)" fill="#f7a491"/>
        <path id="Path_290" data-name="Path 290" d="M2405.841,1815.472s.889.872.91,1.191.079,3.747-.284,4.067-1.431.546-1.088.906c.259.272,2.255.214,3.577.141.387-.021.87-3.112,1.023-3.566.222-.66.762-2.146.56-2.606a3.841,3.841,0,0,0-1.232-1.115,6.1,6.1,0,0,1-1.365-1.459Z" transform="translate(-2370.762 -1741.721)" fill="#f48c7f"/>
        <path id="Path_291" data-name="Path 291" d="M2378.561,1824.13s.8,2.259.8,2.264c.059.358.292,1.242.292,1.567,0,1.222-5.492-1.037-4.261-1.578a1.309,1.309,0,0,0,.5-.856,2.87,2.87,0,0,0-.463-1.444Z" transform="translate(-2352.705 -1748.351)" fill="#f7a491"/>
        <g id="Group_56" data-name="Group 56" transform="translate(15.743 33.727)">
          <path id="Path_292" data-name="Path 292" d="M2359.8,1719.1s-.977,3.927-.977,3.987c0,6.55-.717,19.463-.471,20.694.6,3,7.061,18.323,7.061,18.323l3.491-.419-2.417-16.43,3.331-11.315-1.421-12.573Z" transform="translate(-2358.306 -1719.1)" fill="#009779"/>
          <path id="Path_293" data-name="Path 293" d="M2380.34,1722.889l-1.365,14.81,5.59,20.912s-.96,2.246-2.376,2.561l-10.865-15.847-6.749-20.276.237-4.5Z" transform="translate(-2362.066 -1719.966)" fill="#009779"/>
        </g>
        <path id="Path_294" data-name="Path 294" d="M2408.729,1816.623s-2.052,5.8-2.854,6.077c-.214.074-1.237.263-1.43.717a1.964,1.964,0,0,0,0,.593h4.277s.542-2.554.755-3.676a16.6,16.6,0,0,0,1.006-2.991C2410.356,1817.094,2408.729,1816.623,2408.729,1816.623Z" transform="translate(-2370.225 -1743.876)" fill="#327f6b"/>
        <path id="Path_295" data-name="Path 295" d="M2373.584,1831.8l-.63-1.993a5.449,5.449,0,0,1-1.981.467,19.926,19.926,0,0,1-1.949-.467c-2.636.87-4.8,1.293-4.4,1.993h8.963Z" transform="translate(-2346.323 -1751.783)" fill="#327f6b"/>
        <path id="Path_296" data-name="Path 296" d="M2376.305,1658.1c-.187-1.175,3.036-.409,3.036-.409l.051.344a1.922,1.922,0,0,1-.349.578,4.234,4.234,0,0,1-2.818,1.279A6.432,6.432,0,0,0,2376.305,1658.1Z" transform="translate(-2353.313 -1648.388)" fill="#f47458" opacity="0.5" style="mix-blend-mode: multiply;isolation: isolate"/>
        <g id="Group_57" data-name="Group 57" transform="translate(20.881)">
          <path id="Path_297" data-name="Path 297" d="M2376.822,1641.449c.091-.033.834,5.228-.378,6.537s-3.935,1.342-4.783.311c-.937-1.141-.633-6.361,1.252-7.708S2376.822,1641.449,2376.822,1641.449Z" transform="translate(-2371.147 -1638.013)" fill="#f7a491"/>
          <path id="Path_298" data-name="Path 298" d="M2374.9,1634.835a5.233,5.233,0,0,1,2.748,1.572c.662.078,1.561.446,2.49,1.988a3.867,3.867,0,0,1-1.031,5.031,3.011,3.011,0,0,0-1.311,2.222l-.21-.616a3.482,3.482,0,0,1-.167-1.451,2.873,2.873,0,0,1,.216-.872c.32-.689-.687-1.147-.969-1.719-.218-.442-.228-1.451-.571-2.179l-.409-.557a2.591,2.591,0,0,0-1.866-.529C2372.9,1637.932,2373.029,1634.452,2374.9,1634.835Z" transform="translate(-2372.416 -1634.806)" fill="#184655"/>
          <path id="Path_299" data-name="Path 299" d="M2381.922,1650.816c-.01.581.253,1.056.587,1.062s.612-.46.623-1.041-.254-1.056-.588-1.062S2381.931,1650.235,2381.922,1650.816Z" transform="translate(-2377.612 -1643.785)" fill="#f7a491"/>
        </g>
        <path id="Path_300" data-name="Path 300" d="M2372.586,1656.267l1.208.185a.535.535,0,0,0-.487-.561C2372.663,1655.772,2372.586,1656.267,2372.586,1656.267Z" transform="translate(-2351.129 -1647.443)" fill="#fff"/>
        <path id="Path_301" data-name="Path 301" d="M2361.183,1670.411a8.563,8.563,0,0,1,1.29-1.994,3.257,3.257,0,0,1,.653-.1s-.279,4.779,2.194,4.833,4.76-4.5,4.76-4.5c.625.138,1.324.3,1.753.423,0,0,2.161.411,2.747,3.643s1.677,15.385,1.76,17.9c.061,1.831-2.735,3.428-6.62,4.134a12.413,12.413,0,0,1-3.6.373q-.55.017-1.112.01c-4.308-.051-5.844-1.274-6.376-1.992-.091-.043-.179-.081-.271-.126l.029-.3a.689.689,0,0,1-.029-.089S2355.206,1680.71,2361.183,1670.411Z" transform="translate(-2342.098 -1654.907)" fill="#327f6b"/>
        <path id="Path_302" data-name="Path 302" d="M2391.5,1684.8s5.292,7.452,6.542,9.186,4.7,8.688,4.82,8.963-1.723,3.7-1.246,3.8.855-1.8,1.374-1.6,2.326,4.668,2.6,4.433c.5-.441-1-2.774-.73-2.935s1.348,2.579,1.9,2.475-1.257-2.5-1.118-2.724,2,2.028,2.269,1.521c.145-.275-1.7-1.963-1.387-2.14s1.929.9,2.065.561-1.47-.718-2.007-1.58-1.367-1.212-1.824-2.83-1.552-8.464-3.48-11.342-5.863-8.283-5.863-8.283Z" transform="translate(-2362.473 -1663.3)" fill="#f7a491"/>
        <path id="Path_303" data-name="Path 303" d="M2397.4,1680.465l-5.152,3.471a56.136,56.136,0,0,0-4.464-5.881c-1.953-1.933.712-7.858,1.97-7.523C2392.568,1671.282,2397.4,1680.465,2397.4,1680.465Z" transform="translate(-2359.831 -1656.229)" fill="#96d9c9"/>
      </g>
    </g>
  </g>
</svg>
