<svg xmlns="http://www.w3.org/2000/svg" width="100%" height="100%" viewBox="0 0 315.338 95.359">
  <g id="e2e_logo" transform="translate(0.5)">
    <path id="Path_2" data-name="Path 2" d="M30.647,47.468v-7.7H19.091a14.909,14.909,0,0,1,1.707-2.3c.692-.789,2.36-2.39,4.992-4.778a63.341,63.341,0,0,0,4.856-4.808V6.49a15.006,15.006,0,0,0-8.79-2.4,15.68,15.68,0,0,0-9.793,2.974C9.473,9.1,7.994,12.316,7.438,16.878l8.27.828a8.15,8.15,0,0,1,1.776-5.2,6.411,6.411,0,0,1,8.27-.069A5.8,5.8,0,0,1,27.245,16.7a9.128,9.128,0,0,1-1.724,5.065C19.39,30.7,9.108,35.086,7.739,47.469L7.6,47.306s9.585,1.017,11.936.939,3.4,0,4.3-.564a32.485,32.485,0,0,1,6.783-.72v.515" transform="translate(6.397 3.504)" fill="#c5c5c3"/>
    <path id="Path_13004" data-name="Path 13004" d="M30.3,51.951l-.618,3.528H.078V0h10.05V.046h19.55V6.623c-1.67-1.812-17.558-2.476-19.55-2.5V25.368c3.869,0,7.233-.046,10.576-.091,3.32-.047,6.616-.115,10.371-.138a23.6,23.6,0,0,1-2.565,2.887c-1.648,1.719-3.387,3.368-5.128,5l-.8.733H10.128v17.6C12.12,51.356,28.625,53.761,30.3,51.951Z" transform="translate(0.067)" fill="#f15a5c"/>
    <path id="Path_13005" data-name="Path 13005" d="M29.932,51.356c1.99,0,17.878-.711,19.55-2.5V55.48H29.932v-.045H19.881V0H29.908V25.3c3.893,0,7.258-.047,10.578-.091,3.341-.047,6.616-.093,10.369-.138a20.331,20.331,0,0,1-2.541,2.909c-1.648,1.72-3.389,3.37-5.15,5l-.779.735H29.932Z" transform="translate(17.097)" fill="#f15a5c"/>
    <path id="Path_13006" data-name="Path 13006" d="M44.835,6.6c-1.672-1.812-17.56-2.476-19.55-2.5V.025h19.55Z" transform="translate(21.745 0.021)" fill="#ea4448"/>
    <path id="Path_5" data-name="Path 5" d="M48.509,12.273a50.936,50.936,0,0,1,8.993-.733c5,0,8.245.895,10.511,2.877a8.7,8.7,0,0,1,2.85,6.707,9.328,9.328,0,0,1-6.783,9.015V30.3c2.794.95,4.462,3.461,5.331,7.129A55.287,55.287,0,0,0,72.2,47.109H67.362a44.923,44.923,0,0,1-2.427-8.433c-1.071-4.86-3.008-6.694-7.271-6.858H53.243V47.107h-4.68Zm4.68,16.089h4.8c5.005,0,8.137-2.714,8.137-6.707,0-4.561-3.4-6.543-8.355-6.6a19.434,19.434,0,0,0-4.639.422Z" transform="translate(41.717 9.924)" fill="#f05a5c" stroke="#f05a5c" stroke-width="1"/>
    <path id="Path_6" data-name="Path 6" d="M67.632,30.825a8.248,8.248,0,0,0,7.641,8.811,8.4,8.4,0,0,0,1.3-.011,17.614,17.614,0,0,0,7.215-1.358l.813,3.3a21.673,21.673,0,0,1-8.668,1.574c-8.03,0-12.83-5.132-12.83-12.774S67.74,16.691,75.317,16.691c8.5,0,10.769,7.278,10.769,11.949a17.232,17.232,0,0,1-.164,2.145Zm13.907-3.3c0-2.933-1.248-7.494-6.577-7.494-4.789,0-6.889,4.291-7.269,7.494Z" transform="translate(54.266 14.354)" fill="#f05a5c" stroke="#f05a5c" stroke-width="1"/>
    <path id="Path_7" data-name="Path 7" d="M78.832,37.931a12.608,12.608,0,0,0,6.251,1.832c3.445,0,5.059-1.67,5.059-3.763s-1.356-3.407-4.843-4.67c-4.7-1.616-6.889-4.073-6.889-7.17,0-4.073,3.383-7.44,8.993-7.44a13.232,13.232,0,0,1,6.4,1.574l-1.181,3.355a10.2,10.2,0,0,0-5.29-1.466c-2.809,0-4.367,1.561-4.367,3.448,0,2.1,1.559,3.041,4.962,4.3,4.51,1.67,6.783,3.869,6.783,7.643,0,4.455-3.554,7.591-9.752,7.591a15.244,15.244,0,0,1-7.33-1.726Z" transform="translate(66.761 14.378)" fill="#f05a5c" stroke="#f05a5c" stroke-width="1"/>
    <path id="Path_8" data-name="Path 8" d="M93.606,30.825a8.248,8.248,0,0,0,7.641,8.811,8.4,8.4,0,0,0,1.3-.011,17.623,17.623,0,0,0,7.23-1.358l.8,3.3a21.545,21.545,0,0,1-8.668,1.574c-8.03,0-12.83-5.132-12.83-12.774s4.639-13.675,12.216-13.675c8.517,0,10.767,7.278,10.767,11.949a16.542,16.542,0,0,1-.164,2.145Zm13.907-3.3c0-2.933-1.248-7.494-6.577-7.494-4.789,0-6.889,4.291-7.271,7.494Z" transform="translate(76.605 14.354)" fill="#f05a5c" stroke="#f05a5c" stroke-width="1"/>
    <path id="Path_9" data-name="Path 9" d="M119.98,42.653l-.366-3.2h-.164a9.815,9.815,0,0,1-7.976,3.774,7.332,7.332,0,0,1-7.948-6.661c-.019-.2-.028-.411-.028-.616,0-6.138,5.6-9.5,15.68-9.5v-.515a5.291,5.291,0,0,0-4.63-5.874,5.227,5.227,0,0,0-1.3.007,13.323,13.323,0,0,0-6.783,1.88L105.4,18.9a16.588,16.588,0,0,1,8.517-2.187c7.963,0,9.9,5.3,9.9,10.375v9.527a34.369,34.369,0,0,0,.435,6.069Zm-.636-12.927c-5.169-.11-11.043.789-11.043,5.7a4.071,4.071,0,0,0,3.709,4.4,3.921,3.921,0,0,0,.753-.006,6.468,6.468,0,0,0,6.307-4.237,4.682,4.682,0,0,0,.27-1.464Z" transform="translate(89.008 14.374)" fill="#f05a5c" stroke="#f05a5c" stroke-width="1"/>
    <path id="Path_10" data-name="Path 10" d="M118.68,25.211c0-2.987,0-5.554-.216-7.916h4.15l.164,4.983h.216a7.787,7.787,0,0,1,7.215-5.552,4.92,4.92,0,0,1,1.358.164V21.3a7.04,7.04,0,0,0-1.614-.164,6.573,6.573,0,0,0-6.35,5.922,12.565,12.565,0,0,0-.216,2.145V42.78h-4.7Z" transform="translate(101.878 14.383)" fill="#f05a5c" stroke="#f05a5c" stroke-width="1"/>
    <path id="Path_11" data-name="Path 11" d="M147.206,41.661a17.952,17.952,0,0,1-7.488,1.466A12.208,12.208,0,0,1,126.74,31.738a12.332,12.332,0,0,1,0-1.551c0-7.754,5.494-13.455,14.011-13.455a16.237,16.237,0,0,1,6.564,1.358l-1.071,3.575a11.184,11.184,0,0,0-5.493-1.209c-5.982,0-9.224,4.293-9.224,9.6a8.822,8.822,0,0,0,9.06,9.5,13.725,13.725,0,0,0,5.825-1.263Z" transform="translate(108.972 14.389)" fill="#f05a5c" stroke="#f05a5c" stroke-width="1"/>
    <path id="Path_12" data-name="Path 12" d="M140.712,10.672h4.749V26.5h.108a8.63,8.63,0,0,1,3.383-3.257,10.059,10.059,0,0,1,4.842-1.36c3.5,0,9.1,2.091,9.1,10.864V47.82h-4.734V33.293c0-4.073-1.561-7.535-6.036-7.535a6.784,6.784,0,0,0-6.363,4.6,5.663,5.663,0,0,0-.311,2.2V47.848h-4.739Z" transform="translate(121.011 9.178)" fill="#f05a5c" stroke="#f05a5c" stroke-width="1"/>
    <g id="TM" transform="translate(289.727 20.691)" style="mix-blend-mode: normal;isolation: isolate">
      <g id="Group_8281" data-name="Group 8281" style="mix-blend-mode: normal;isolation: isolate">
        <path id="Path_13007" data-name="Path 13007" d="M164.9,12.519h-3.8V24.3h-1.542V12.519h-3.789V11.124H164.9Z" transform="translate(-155.768 -11.124)" fill="#454545" stroke="#454545" stroke-width="1"/>
        <path id="Path_13008" data-name="Path 13008" d="M175.2,24.3H173.67V15.46q0-1.046.128-2.563h-.037a8.106,8.106,0,0,1-.394,1.276L168.87,24.3h-.751l-4.488-10.05a8.186,8.186,0,0,1-.394-1.35H163.2q.073.79.073,2.582V24.3h-1.486V11.124h2.037l4.038,9.186a12.185,12.185,0,0,1,.606,1.579h.054q.393-1.085.634-1.616l4.12-9.149H175.2Z" transform="translate(-150.592 -11.124)" fill="#454545" stroke="#454545" stroke-width="1"/>
      </g>
    </g>
    <g id="Group_8282" data-name="Group 8282" transform="translate(0 69.999)">
      <path id="Path_13009" data-name="Path 13009" d="M9.43,47.843H2.351v6.573h7.89V56.39H0V38.158H9.836v1.975H2.351V45.9H9.43Z" transform="translate(0 -37.183)" fill="#454545" stroke="#454545" stroke-width="1"/>
      <path id="Path_13010" data-name="Path 13010" d="M7.154,44.6c0-1.354-.026-2.463-.108-3.545H9.155l.134,2.165h.054a4.81,4.81,0,0,1,4.324-2.463c1.81,0,4.62,1.083,4.62,5.573v7.818H15.911V46.605c0-2.111-.785-3.869-3.028-3.869a3.379,3.379,0,0,0-3.188,2.435,3.43,3.43,0,0,0-.162,1.109v7.871H7.154Z" transform="translate(6.059 -34.945)" fill="#454545" stroke="#454545" stroke-width="1"/>
      <path id="Path_13011" data-name="Path 13011" d="M17.954,39.631a1.473,1.473,0,0,1-2.946,0,1.45,1.45,0,0,1,1.486-1.488A1.413,1.413,0,0,1,17.954,39.631ZM15.306,56.4V43.31h2.377V56.4Z" transform="translate(12.907 -37.196)" fill="#454545" stroke="#454545" stroke-width="1"/>
      <path id="Path_13012" data-name="Path 13012" d="M30.274,41.059c-.056.947-.11,2-.11,3.6v7.6c0,3-.593,4.843-1.864,5.98a6.928,6.928,0,0,1-4.756,1.568,8.419,8.419,0,0,1-4.351-1.083l.593-1.812a7.373,7.373,0,0,0,3.839,1.029c2.431,0,4.215-1.272,4.215-4.572V51.906h-.054A4.666,4.666,0,0,1,23.627,54.1c-3.244,0-5.569-2.76-5.569-6.385,0-4.436,2.892-6.953,5.892-6.953a4.35,4.35,0,0,1,4.081,2.273h.054l.108-1.975Zm-2.459,5.167a3.388,3.388,0,0,0-.136-1.081,3.425,3.425,0,0,0-3.324-2.517c-2.271,0-3.891,1.92-3.891,4.949,0,2.571,1.3,4.708,3.863,4.708a3.478,3.478,0,0,0,3.3-2.435,4.18,4.18,0,0,0,.19-1.272Z" transform="translate(15.53 -34.945)" fill="#454545" stroke="#454545" stroke-width="1"/>
      <path id="Path_13013" data-name="Path 13013" d="M26.651,44.6c0-1.354-.026-2.463-.108-3.545h2.081l.108,2.111h.082a4.507,4.507,0,0,1,4.107-2.409,3.866,3.866,0,0,1,3.7,2.624h.054a5.421,5.421,0,0,1,1.46-1.7,4.457,4.457,0,0,1,2.89-.921c1.73,0,4.3,1.136,4.3,5.682v7.708H43v-7.41c0-2.517-.919-4.032-2.836-4.032a3.08,3.08,0,0,0-2.81,2.165,3.866,3.866,0,0,0-.19,1.19v8.087H34.84V46.307c0-2.083-.919-3.6-2.73-3.6a3.551,3.551,0,0,0-3.134,3.545v7.9H26.651Z" transform="translate(22.827 -34.945)" fill="#454545" stroke="#454545" stroke-width="1"/>
      <path id="Path_13014" data-name="Path 13014" d="M46.436,54.151l-.19-1.65h-.08a4.873,4.873,0,0,1-4,1.949,3.728,3.728,0,0,1-4-3.761c0-3.166,2.81-4.9,7.864-4.869v-.272a2.7,2.7,0,0,0-2.972-3.03,6.513,6.513,0,0,0-3.406.975l-.539-1.568a8.09,8.09,0,0,1,4.295-1.164c4,0,4.974,2.732,4.974,5.357v4.9a18.473,18.473,0,0,0,.216,3.138Zm-.352-6.681c-2.595-.054-5.539.405-5.539,2.95a2.1,2.1,0,0,0,2.243,2.271,3.253,3.253,0,0,0,3.16-2.191,2.462,2.462,0,0,0,.136-.757Z" transform="translate(32.822 -34.945)" fill="#454545" stroke="#454545" stroke-width="1"/>
      <path id="Path_13015" data-name="Path 13015" d="M52.353,38.9v3.759h3.4v1.813h-3.4v7.061c0,1.622.459,2.543,1.784,2.543a5.248,5.248,0,0,0,1.378-.164l.108,1.787a5.861,5.861,0,0,1-2.109.324,3.3,3.3,0,0,1-2.567-1,4.858,4.858,0,0,1-.919-3.409v-7.14H48V42.659h2.026V39.521Z" transform="translate(41.281 -36.545)" fill="#454545" stroke="#454545" stroke-width="1"/>
      <path id="Path_13016" data-name="Path 13016" d="M65.8,47.5c0,4.842-3.35,6.953-6.514,6.953-3.54,0-6.268-2.6-6.268-6.737,0-4.382,2.864-6.953,6.486-6.953C63.255,40.761,65.8,43.493,65.8,47.5Zm-10.377.136c0,2.866,1.648,5.029,3.973,5.029,2.269,0,3.971-2.137,3.971-5.085,0-2.217-1.107-5.031-3.917-5.031S55.419,45.145,55.419,47.634Z" transform="translate(45.591 -34.945)" fill="#454545" stroke="#454545" stroke-width="1"/>
      <path id="Path_13017" data-name="Path 13017" d="M74.054,47.843H66.973v6.573h7.892V56.39H64.622V38.158h9.837v1.975H66.973V45.9h7.081Z" transform="translate(55.574 -37.183)" fill="#454545" stroke="#454545" stroke-width="1"/>
      <path id="Path_13018" data-name="Path 13018" d="M71.777,44.6c0-1.354-.028-2.463-.108-3.545h2.107l.134,2.165h.056a4.807,4.807,0,0,1,4.323-2.463c1.81,0,4.62,1.083,4.62,5.573v7.818H80.532V46.605c0-2.111-.783-3.869-3.026-3.869a3.5,3.5,0,0,0-3.352,3.543v7.871H71.777Z" transform="translate(61.634 -34.945)" fill="#454545" stroke="#454545" stroke-width="1"/>
      <path id="Path_13019" data-name="Path 13019" d="M79.79,37.634h2.377V56.84H79.79Z" transform="translate(68.618 -37.634)" fill="#454545" stroke="#454545" stroke-width="1"/>
      <path id="Path_13020" data-name="Path 13020" d="M86,39.631a1.472,1.472,0,0,1-2.944,0,1.45,1.45,0,0,1,1.486-1.488A1.412,1.412,0,0,1,86,39.631ZM83.355,56.4V43.31h2.379V56.4Z" transform="translate(71.43 -37.196)" fill="#454545" stroke="#454545" stroke-width="1"/>
      <path id="Path_13021" data-name="Path 13021" d="M98.325,41.059c-.056.947-.11,2-.11,3.6v7.6c0,3-.593,4.843-1.864,5.98A6.928,6.928,0,0,1,91.6,59.805a8.414,8.414,0,0,1-4.35-1.083l.593-1.812a7.371,7.371,0,0,0,3.837,1.029c2.433,0,4.217-1.272,4.217-4.572V51.906h-.054A4.667,4.667,0,0,1,91.676,54.1c-3.242,0-5.567-2.76-5.567-6.385,0-4.436,2.892-6.953,5.892-6.953a4.35,4.35,0,0,1,4.081,2.273h.054l.108-1.975Zm-2.459,5.167a3.388,3.388,0,0,0-.136-1.081,3.425,3.425,0,0,0-3.324-2.517c-2.271,0-3.891,1.92-3.891,4.949,0,2.571,1.3,4.708,3.863,4.708a3.478,3.478,0,0,0,3.3-2.435,4.18,4.18,0,0,0,.19-1.272Z" transform="translate(74.053 -34.945)" fill="#454545" stroke="#454545" stroke-width="1"/>
      <path id="Path_13022" data-name="Path 13022" d="M94.739,37.634h2.379V45.8h.054a4.406,4.406,0,0,1,1.7-1.678,4.9,4.9,0,0,1,2.433-.677c1.756,0,4.566,1.083,4.566,5.6v7.79h-2.379V49.32c0-2.109-.783-3.895-3.026-3.895a3.418,3.418,0,0,0-3.188,2.381,2.912,2.912,0,0,0-.162,1.136v7.9H94.739Z" transform="translate(81.474 -37.634)" fill="#454545" stroke="#454545" stroke-width="1"/>
      <path id="Path_13023" data-name="Path 13023" d="M106.3,38.9v3.759h3.4v1.813h-3.4v7.061c0,1.622.459,2.543,1.782,2.543a5.253,5.253,0,0,0,1.38-.164l.108,1.787a5.857,5.857,0,0,1-2.107.324,3.3,3.3,0,0,1-2.569-1,4.858,4.858,0,0,1-.919-3.409v-7.14h-2.027V42.659h2.027V39.521Z" transform="translate(87.671 -36.545)" fill="#454545" stroke="#454545" stroke-width="1"/>
      <path id="Path_13024" data-name="Path 13024" d="M109.227,48.039c.054,3.218,2.109,4.544,4.486,4.544a8.585,8.585,0,0,0,3.621-.677l.405,1.706a10.606,10.606,0,0,1-4.351.811c-4.027,0-6.432-2.65-6.432-6.6s2.323-7.061,6.134-7.061c4.271,0,5.405,3.761,5.405,6.168a8.8,8.8,0,0,1-.082,1.11Zm6.973-1.706c.026-1.514-.623-3.867-3.3-3.867-2.4,0-3.46,2.217-3.647,3.867Z" transform="translate(91.983 -34.945)" fill="#454545" stroke="#454545" stroke-width="1"/>
      <path id="Path_13025" data-name="Path 13025" d="M114.795,44.6c0-1.354-.026-2.463-.108-3.545h2.107l.136,2.165h.054a4.807,4.807,0,0,1,4.323-2.463c1.812,0,4.622,1.083,4.622,5.573v7.818H123.55V46.605c0-2.111-.783-3.869-3.026-3.869a3.379,3.379,0,0,0-3.188,2.435,3.431,3.431,0,0,0-.162,1.109v7.871h-2.379Z" transform="translate(98.629 -34.945)" fill="#454545" stroke="#454545" stroke-width="1"/>
      <path id="Path_13026" data-name="Path 13026" d="M122.858,44.6c0-1.354-.026-2.463-.108-3.545h2.081l.108,2.111h.08a4.51,4.51,0,0,1,4.109-2.409,3.87,3.87,0,0,1,3.7,2.624h.052a5.373,5.373,0,0,1,1.46-1.7,4.457,4.457,0,0,1,2.89-.921c1.73,0,4.3,1.136,4.3,5.682v7.708h-2.325v-7.41c0-2.517-.919-4.032-2.838-4.032a3.084,3.084,0,0,0-2.81,2.165,3.924,3.924,0,0,0-.188,1.19v8.087h-2.325V46.307c0-2.083-.919-3.6-2.729-3.6a3.253,3.253,0,0,0-2.946,2.381,3.318,3.318,0,0,0-.188,1.164v7.9h-2.325Z" transform="translate(105.563 -34.945)" fill="#454545" stroke="#454545" stroke-width="1"/>
      <path id="Path_13027" data-name="Path 13027" d="M136.686,48.039c.054,3.218,2.107,4.544,4.486,4.544a8.586,8.586,0,0,0,3.621-.677l.405,1.706a10.606,10.606,0,0,1-4.351.811c-4.027,0-6.432-2.65-6.432-6.6s2.323-7.061,6.134-7.061c4.269,0,5.4,3.761,5.4,6.168a8.883,8.883,0,0,1-.08,1.11Zm6.973-1.706c.026-1.514-.623-3.867-3.3-3.867-2.4,0-3.46,2.217-3.647,3.867Z" transform="translate(115.597 -34.945)" fill="#454545" stroke="#454545" stroke-width="1"/>
      <path id="Path_13028" data-name="Path 13028" d="M142.255,44.6c0-1.354-.028-2.463-.11-3.545h2.109l.134,2.165h.056a4.807,4.807,0,0,1,4.323-2.463c1.81,0,4.62,1.083,4.62,5.573v7.818H151.01V46.605c0-2.111-.783-3.869-3.026-3.869a3.379,3.379,0,0,0-3.19,2.435,3.43,3.43,0,0,0-.162,1.109v7.871h-2.377Z" transform="translate(122.243 -34.945)" fill="#454545" stroke="#454545" stroke-width="1"/>
      <path id="Path_13029" data-name="Path 13029" d="M153.761,38.9v3.759h3.406v1.813h-3.406v7.061c0,1.622.459,2.543,1.784,2.543a5.247,5.247,0,0,0,1.378-.164l.108,1.787a5.849,5.849,0,0,1-2.107.324,3.292,3.292,0,0,1-2.567-1,4.858,4.858,0,0,1-.919-3.409v-7.14H149.41V42.659h2.027V39.521Z" transform="translate(128.491 -36.545)" fill="#454545" stroke="#454545" stroke-width="1"/>
    </g>
  </g>
</svg>
