<svg xmlns="http://www.w3.org/2000/svg" width="100%" height="100%" viewBox="0 0 57.68 58.363">
  <g id="noun-data-quality-7018647" transform="translate(-3.675 -3.128)">
    <path id="Path_44850" data-name="Path 44850" d="M37.488,53.262a5.721,5.721,0,0,1-4.781-3.02l-4.4,8.711c.43-.2,3.378-1.637,3.568-1.673a.635.635,0,0,1,.742.5l.717,3.709Zm14.681,0,4.159,8.227.717-3.709a.635.635,0,0,1,.917-.443l3.392,1.612-4.4-8.711a5.73,5.73,0,0,1-4.784,3.023ZM50.7,34.6a8.3,8.3,0,1,0,0,11.743A8.3,8.3,0,0,0,50.7,34.6Zm-5.873-3.7a9.573,9.573,0,1,1-9.572,9.574A9.571,9.571,0,0,1,44.828,30.9ZM40.039,41.807a2,2,0,0,1,0-2.826l0,0a2,2,0,0,1,2.826,0l0,0,.827.822,3.181-2.882a1.995,1.995,0,1,1,2.678,2.957l-4.506,4.083a2,2,0,0,1-2.826.007L40.039,41.8Zm-7.2-22.66a.634.634,0,0,1,.243,1.245,46.666,46.666,0,0,1-18.086,0,.634.634,0,0,1,.243-1.245,45.55,45.55,0,0,0,17.6,0Zm0,10.267a45.5,45.5,0,0,1-17.6,0A.634.634,0,0,0,15,30.66a46.68,46.68,0,0,0,17.687.075,5.746,5.746,0,0,0-.55,3.76c-7.349.975-16.525.591-22.791-1.328-3.5-1.072-5.669-2.463-5.669-3.92V21.535a14.048,14.048,0,0,0,5.3,2.665c8.288,2.539,21.627,2.539,29.915,0a14.013,14.013,0,0,0,5.3-2.665v3.244A5.745,5.745,0,0,0,39.662,28a5.727,5.727,0,0,0-6.214,1.629.635.635,0,0,0-.606-.212ZM29.2,41.525a46.868,46.868,0,0,1-14.2-.6.634.634,0,0,1,.243-1.245,45.369,45.369,0,0,0,13.865.576,5.73,5.73,0,0,1,2.325-4.4c-7.366.856-16.24.421-22.453-1.483a14.014,14.014,0,0,1-5.3-2.665v7.714c0,1.457,2.167,2.848,5.669,3.92,5.973,1.829,14.611,2.262,21.739,1.457A5.728,5.728,0,0,1,29.2,41.525ZM42.814,6.771c-2.7-2.048-8.974-3.643-18.862-3.643S7.784,4.733,5.066,6.788c-1.853,1.4-1.851,2.828,0,4.224,2.712,2.048,8.993,3.645,18.891,3.645,9.856,0,16.141-1.607,18.854-3.662,1.836-1.393,1.863-2.823.007-4.224Zm1.379,4.7c-2.8,2.7-10.076,4.45-20.243,4.45-10.207,0-17.475-1.744-20.274-4.431v7.575c0,1.457,2.167,2.848,5.669,3.92,8.03,2.459,21.15,2.459,29.18,0,3.5-1.072,5.669-2.463,5.669-3.92Zm7,40.472a4.42,4.42,0,0,1-1.26-.4.637.637,0,0,0-.878.365,4.464,4.464,0,0,1-8.446,0,.633.633,0,0,0-.917-.345,4.365,4.365,0,0,1-1.221.379,4.468,4.468,0,0,1-4.718-6.374.637.637,0,0,0-.365-.878v0a4.463,4.463,0,0,1,0-8.446.633.633,0,0,0,.345-.917,4.609,4.609,0,0,1-.375-2.665,4.47,4.47,0,0,1,6.369-3.271.634.634,0,0,0,.875-.365h0a4.463,4.463,0,0,1,8.446,0,.633.633,0,0,0,.917.345A4.466,4.466,0,0,1,55.9,35.368a.637.637,0,0,0,.365.878v0a4.463,4.463,0,0,1,0,8.446.633.633,0,0,0-.345.917,4.464,4.464,0,0,1-4.732,6.335Z" fill-rule="evenodd"/>
  </g>
</svg>
