<svg xmlns="http://www.w3.org/2000/svg" width="100%" height="100%" viewBox="0 0 50.129 66.459">
  <g id="noun-survey-7247183" transform="translate(-19.149 -9.126)">
    <path id="Path_44848" data-name="Path 44848" d="M27.712,71.046a.44.44,0,1,1-.441-.432.437.437,0,0,1,.441.432Zm3.479,0a2.445,2.445,0,0,1-1.032,3.285l-1.863.974a2.436,2.436,0,0,1-1.127.279,2.689,2.689,0,0,1-.727-.111,2.448,2.448,0,0,1-1.431-1.193L19.425,63.59a2.442,2.442,0,0,1,1.025-3.285l1.863-1.041a2.426,2.426,0,0,1,3.282,1.06Zm-2.209,0a1.7,1.7,0,1,0-.5,1.2,1.691,1.691,0,0,0,.5-1.2ZM24.183,52.2a2.346,2.346,0,0,0,4.047,0l2.752-4.688,0,0a6.318,6.318,0,0,0,.847-2.539H20.6a6.317,6.317,0,0,0,.847,2.539ZM31.851,17H20.561V43.684h11.29Zm0-2.225a5.645,5.645,0,1,0-11.29,0v.955h11.29ZM40.982,34.72h8.957v8.963H40.982Zm1.244,5.459,1.508,1.508a.636.636,0,0,0,.9,0L48.7,37.615a.632.632,0,0,0,0-.9.636.636,0,0,0-.9,0l-3.58,3.631-1.092-1.057a.636.636,0,0,0-.9.9ZM40.982,17.9h8.957v8.957H40.982Zm1.244,5.45,1.508,1.508a.611.611,0,0,0,.448.187.637.637,0,0,0,.451-.187L48.7,20.8a.628.628,0,0,0,0-.9.636.636,0,0,0-.9,0l-3.58,3.612L43.16,22.456a.636.636,0,0,0-.9,0,.623.623,0,0,0-.206.441.642.642,0,0,0,.171.457Zm27-6.18v0a4.24,4.24,0,0,0-1.117-2.3l-4.231-4.428a4.225,4.225,0,0,0-2.447-1.254v6.062a1.906,1.906,0,0,0,1.9,1.9Zm-5.875,1.27h5.926V47.569A4.232,4.232,0,0,1,65.047,51.8H40.112a4.232,4.232,0,0,1-4.234-4.231V13.382a4.232,4.232,0,0,1,4.234-4.231H60.177v6.1a3.175,3.175,0,0,0,3.174,3.19Zm-10.62,1.892a.643.643,0,0,0,.635.635h4.8a.635.635,0,0,0,0-1.27h-4.8a.641.641,0,0,0-.635.635ZM51.209,34.079v0a.645.645,0,0,0-.635-.635H40.347a.645.645,0,0,0-.635.635V44.318a.637.637,0,0,0,.635.635H50.574a.637.637,0,0,0,.635-.635Zm0-16.825v0a.643.643,0,0,0-.635-.635H40.347a.643.643,0,0,0-.635.635V27.493a.637.637,0,0,0,.635.635H50.574a.637.637,0,0,0,.635-.635ZM64.165,41.246a.623.623,0,0,0-.635-.635H53.373a.635.635,0,0,0,0,1.27H63.53A.635.635,0,0,0,64.165,41.246Zm-10.8-3.437h4.8a.635.635,0,1,0,0-1.27h-4.8a.635.635,0,1,0,0,1.27ZM63.523,23.776H53.367a.635.635,0,1,0,0,1.27H63.523a.635.635,0,0,0,0-1.27Zm-2.38,31.917-8.71,4.57-.219.279a8.171,8.171,0,0,1-6.459,3.291,9.236,9.236,0,0,1-1.936-.219,10.2,10.2,0,0,1-1.5-.457l-3.469-1.311h0a.657.657,0,0,1-.384-.33.627.627,0,0,1-.022-.5.637.637,0,0,1,.352-.362.648.648,0,0,1,.5.006l3.6,1.362v0a8.506,8.506,0,0,0,2.377.524,6.406,6.406,0,0,0,3.031-.508,2.378,2.378,0,0,0,0-4.418h-.041l-9.217-2.93a8.03,8.03,0,0,0-6.611.806l-6.119,3.621a4.245,4.245,0,0,1,.406.619L32,69.836a4.948,4.948,0,0,1,3.184.041l6.77,2.387a9.864,9.864,0,0,0,8.623-1.016l14.3-9.309a3.641,3.641,0,1,0-3.742-6.246Z"/>
  </g>
</svg>
