<svg xmlns="http://www.w3.org/2000/svg" width="60.241" height="60.821" viewBox="0 0 60.241 60.821">
  <g id="noun-advertising-4923379" transform="translate(-1.759 -1.589)">
    <g id="_07-Advertising" data-name="07-Advertising">
      <path id="Path_44514" data-name="Path 44514" d="M56.81,31.25a1.008,1.008,0,0,1,.12.95.965.965,0,0,1-.73.61c-.15.04-15.56,3.21-20.27,4.75-3.66,1.21-13.57,6.25-14.28,6.62l-.04.02-.69.5-.58-.81L12.18,32.52a1,1,0,0,1,.11-1.3l.03-.03.02-.02c.69-.66,8.52-8.34,10.82-11.4C26.13,15.8,34.06,2.22,34.14,2.09a1,1,0,0,1,1.68-.08L43.4,12.57l5.83,8.12ZM18.71,45.06l-.58-.81v-.01L10.55,33.68a3.059,3.059,0,0,1-.44-.91l-5.02,3.6A8,8,0,0,0,8.46,50.76a7.317,7.317,0,0,0,1.31.11,7.91,7.91,0,0,0,4.65-1.5l5.02-3.6a2.9,2.9,0,0,1-.73-.71Zm3.38,1.26-6.5,4.67,7,9.75a3.992,3.992,0,0,0,3.25,1.67,4,4,0,0,0,3.25-6.33ZM50.38,13.71a4.946,4.946,0,0,0-3.25-2.01,5.046,5.046,0,0,0-1.86.04l5.34,7.43a4.979,4.979,0,0,0-.23-5.46ZM53,13a.994.994,0,0,0,.6-.2l8-6a1,1,0,1,0-1.2-1.6l-8,6A1,1,0,0,0,53,13ZM49.835,9.986a1,1,0,0,0,1.151-.822l1-6a1,1,0,1,0-1.973-.329l-1,6A1,1,0,0,0,49.835,9.986Zm11.559,8.095-7-3a1,1,0,1,0-.788,1.838l7,3a1,1,0,1,0,.788-1.838Z"/>
    </g>
  </g>
</svg>
