<svg xmlns="http://www.w3.org/2000/svg" width="58.363" height="74.936" viewBox="0 0 58.363 74.936">
  <g id="noun-attitude-5764290" transform="translate(-15.154 -5.253)">
    <path id="Path_44497" data-name="Path 44497" d="M63.161,10.869a1.028,1.028,0,0,1-1.779-1.03l.934-1.617a1.028,1.028,0,0,1,1.779,1.03Zm5.707,6.461a1.026,1.026,0,0,1-1.023-1.779l1.62-.936a1.026,1.026,0,1,1,1.023,1.779Zm1.717,8.454a1.031,1.031,0,1,1,0-2.062h1.871a1.031,1.031,0,1,1,0,2.062Zm-2.739,8.172a1.026,1.026,0,0,1,1.023-1.779l1.62.936a1.026,1.026,0,0,1-1.023,1.779ZM40.073,15.551a1.028,1.028,0,0,1-1.026,1.779l-1.621-.936a1.029,1.029,0,0,1,1.031-1.779l1.62.936Zm6.46-5.707a1.026,1.026,0,1,1-1.78,1.022l-.936-1.62A1.027,1.027,0,0,1,45.6,8.222l.935,1.621Zm8.454-1.717a1.031,1.031,0,0,1-2.062,0V6.255a1.031,1.031,0,0,1,2.062,0Zm4.2,37.9v1.012a3.061,3.061,0,0,1-3.055,3.054H51.779a3.061,3.061,0,0,1-3.055-3.054V46.023a3.659,3.659,0,0,1-3.288-3.631V39.777a20.757,20.757,0,0,0-.335-4.563,10.567,10.567,0,0,0-1.969-4.059A11.859,11.859,0,0,1,41.4,27.843a11.477,11.477,0,0,1-.341-6.077,20.44,20.44,0,0,0-13.794,6.11c-3.451,3.606-5.82,8.912-6.2,16.144.485,2.176-1.666,4.588-3.827,7.01C15,53.537,13.64,54.016,18.1,54.7a1.031,1.031,0,0,1,.875.951,5.615,5.615,0,0,1-1.022,3.515c-.132.232-.26.454-.352.641.016.026.131.143.288.3a3.99,3.99,0,0,0,1.289.814c.079.031.156.059.231.084a1.03,1.03,0,0,1-.012,1.969,2.078,2.078,0,0,0-1.1.67.652.652,0,0,0-.118.251.355.355,0,0,0,.01.167.674.674,0,0,0,.217.3c3.049,1.286,3.157,3.334,3.248,5.056a5.51,5.51,0,0,0,.117,1.069c.217.773,1.427.98,7.186-.631a1.023,1.023,0,0,1,.342-.035h0c3.454.242,4.247,6.291,4.738,10.04l.044.335,22.694-9.24a12.555,12.555,0,0,1-.81-4.66,13.057,13.057,0,0,1,1.463-5.617,1.014,1.014,0,0,1,.09-.148h0c4.063-5.543,6.241-10.646,6.984-15.2a19.43,19.43,0,0,0-1.339-11.31,9.3,9.3,0,0,0-.359,1.2,20.809,20.809,0,0,0-.335,4.563v2.618a3.657,3.657,0,0,1-3.288,3.631Zm-8.4.018h6.34v.994a1,1,0,0,1-.994.994H51.78a1,1,0,0,1-.994-.994v-.994Zm-3.294-7.3a18.713,18.713,0,0,0-.386-3.983,12.519,12.519,0,0,0-2.324-4.832,9.828,9.828,0,0,1-1.434-2.739,9.431,9.431,0,0,1-.485-3A9.772,9.772,0,0,1,46.078,17a11.808,11.808,0,0,1,15.753,0,9.771,9.771,0,0,1,3.217,7.186,9.458,9.458,0,0,1-.485,3,9.85,9.85,0,0,1-1.435,2.739c-.313.418-.586.83-.837,1.23-.019.028-.038.059-.054.089A11.691,11.691,0,0,0,60.8,34.762a18.768,18.768,0,0,0-.386,3.983ZM60.415,40.8v1.59a1.594,1.594,0,0,1-1.59,1.59H49.091a1.594,1.594,0,0,1-1.59-1.59V40.8ZM52.35,18.4h3.215a1.265,1.265,0,0,1,.9.372h0a1.264,1.264,0,0,1,.373.895v3.294h3.3a1.266,1.266,0,0,1,.9.372h0a1.266,1.266,0,0,1,.374.895v3.215a1.269,1.269,0,0,1-.372.893h0a1.266,1.266,0,0,1-.893.372h-3.3V32a1.265,1.265,0,0,1-.372.893v0a1.265,1.265,0,0,1-.892.372H52.35a1.265,1.265,0,0,1-.895-.374h0a1.265,1.265,0,0,1-.372-.9V28.716h-3.3a1.268,1.268,0,0,1-.895-.374h0a1.265,1.265,0,0,1-.372-.9V24.232a1.269,1.269,0,0,1,1.268-1.269h3.3V19.669A1.269,1.269,0,0,1,52.352,18.4Zm2.422,2.062v4.563h4.563v1.63H54.772v4.563h-1.63V26.654H48.579v-1.63h4.564V20.461Z" transform="translate(0 0)" fill-rule="evenodd"/>
  </g>
</svg>
