<svg xmlns="http://www.w3.org/2000/svg" width="60" height="55.441" viewBox="0 0 60 55.441">
  <g id="noun-case-studies-7330033" transform="translate(-11.718 -14.624)">
    <path id="Path_44486" data-name="Path 44486" d="M40.813,55.174a11.35,11.35,0,0,1-2.437-12.386H22.739a.612.612,0,1,1,0-1.224H38.982a11.615,11.615,0,0,1,1.831-2.412,11.263,11.263,0,0,1,5.761-3.1H21.515a.612.612,0,0,1,0-1.224H49.059a.614.614,0,0,1,.612.612.607.607,0,0,1-.178.429,11.252,11.252,0,0,1,3.845.906V16.461A1.838,1.838,0,0,0,51.5,14.624H13.555a1.842,1.842,0,0,0-1.837,1.837v41.02a6.12,6.12,0,0,0,6.557,6.11,6.243,6.243,0,0,0,5.682-6.312V53.955a1.841,1.841,0,0,1,2.663-1.641L53.339,65.68V57.549a11.314,11.314,0,0,1-12.527-2.376ZM16,19.523A.612.612,0,0,1,16,18.3H49.06a.612.612,0,0,1,0,1.224Zm2.449,4.286a.61.61,0,0,1,.612-.612H49.059a.612.612,0,1,1,0,1.224H19.066A.606.606,0,0,1,18.454,23.809Zm1.224,5.51a.61.61,0,0,1,.612-.612H49.06a.612.612,0,0,1,0,1.224H20.29a.606.606,0,0,1-.612-.612Z" transform="translate(0 0)"/>
    <path id="Path_44487" data-name="Path 44487" d="M28.163,64.122a.612.612,0,0,0-.294.52v3.324a7.6,7.6,0,0,1-3.729,6.569l29.5,2L28.757,64.1a.59.59,0,0,0-.594.024Z" transform="translate(-2.687 -10.688)"/>
    <path id="Path_44488" data-name="Path 44488" d="M71.7,67.6,69.674,65.57c-.184.214-.367.422-.563.624s-.41.38-.618.563l2.026,2.026Z" transform="translate(-12.282 -11.021)"/>
    <path id="Path_44489" data-name="Path 44489" d="M86.095,77.911l-.012-.012L80.8,83.176l.012.012a1.955,1.955,0,0,0,2.749,0l2.529-2.529A1.944,1.944,0,0,0,86.095,77.911Z" transform="translate(-14.945 -13.688)"/>
    <path id="Path_44490" data-name="Path 44490" d="M72.965,75.34l5.278-5.278L83.52,75.34l-5.278,5.278Z" transform="translate(-13.249 -11.993)"/>
    <path id="Path_44491" data-name="Path 44491" d="M76.448,68.257a1.951,1.951,0,0,0-2.755,0L71.17,70.785a1.944,1.944,0,0,0,0,2.749l.416.422,5.278-5.278Z" transform="translate(-12.738 -11.479)"/>
    <path id="Path_44492" data-name="Path 44492" d="M63.414,46.213a10.1,10.1,0,1,0,0,14.289A10.022,10.022,0,0,0,63.414,46.213ZM61.369,58.452a7.2,7.2,0,1,1,0-10.194A7.149,7.149,0,0,1,61.369,58.452Z" transform="translate(-7.455 -6.193)"/>
  </g>
</svg>
