<svg xmlns="http://www.w3.org/2000/svg" width="57.793" height="57.768" viewBox="0 0 57.793 57.768">
  <g id="noun-communications-7151407_1_" data-name="noun-communications-7151407 (1)" transform="translate(-5.207 -5.203)">
    <path id="Path_44493" data-name="Path 44493" d="M58.185,64.332l-4.06,4.06v2.85h2.85l4.057-4.06Z" transform="translate(-17.36 -20.984)"/>
    <path id="Path_44494" data-name="Path 44494" d="M69.883,66.643a3.4,3.4,0,0,1,.189-2.608,15.883,15.883,0,0,0,1.8-7.391c0-9.354-8.386-17.31-19.139-18.091-.537-.028-1.129-.053-1.693-.053-8.762,0-16.612,4.811-19.568,11.907a15.855,15.855,0,0,0-1.262,6.237c0,10,9.354,18.144,20.833,18.144a23.237,23.237,0,0,0,9.891-2.177,3.176,3.176,0,0,1,2.391-.053l4.785,1.721a2.553,2.553,0,0,0,3.278-3.226l-1.532-4.435ZM60.637,55.648l-9.866,9.866a2.016,2.016,0,0,1-1.424.592h-5.7a2.032,2.032,0,0,1-2.016-2.016v-5.7a2.006,2.006,0,0,1,.592-1.424l9.891-9.891a4.707,4.707,0,0,1,6.64,0l1.908,1.908a4.685,4.685,0,0,1,.592.726,4.708,4.708,0,0,1-.592,5.914Z" transform="translate(-8.874 -11.817)"/>
    <path id="Path_44495" data-name="Path 44495" d="M70.089,58.007,68.181,56.1a.647.647,0,0,0-.94,0l-2.366,2.366,2.85,2.85,2.366-2.366a.647.647,0,0,0,0-.94Z" transform="translate(-21.175 -17.991)"/>
    <path id="Path_44496" data-name="Path 44496" d="M26.04,5.206c-11.478,0-20.833,8.145-20.833,18.144a16.281,16.281,0,0,0,1.8,7.391,3.327,3.327,0,0,1,.189,2.58L5.666,37.756a2.509,2.509,0,0,0,.617,2.633,2.559,2.559,0,0,0,2.661.592l4.811-1.721a3.152,3.152,0,0,1,2.472.108,18.531,18.531,0,0,0,2.956,1.1,18.234,18.234,0,0,1,.94-2.9c3.359-8.092,12.2-13.547,22.042-13.547.617,0,1.237.028,1.827.053.968.081,1.882.214,2.822.375,0-.375.053-.726.053-1.1,0-10-9.354-18.144-20.833-18.144ZM18.649,20.26a1.079,1.079,0,0,1-1.076,1.076H15.69a1.079,1.079,0,0,1-1.076-1.076V18.377A1.079,1.079,0,0,1,15.69,17.3h1.882a1.079,1.079,0,0,1,1.076,1.076Zm7.391,0a1.079,1.079,0,0,1-1.076,1.076H23.081a1.079,1.079,0,0,1-1.076-1.076V18.377A1.079,1.079,0,0,1,23.081,17.3h1.882a1.079,1.079,0,0,1,1.076,1.076Zm8.064,0a1.079,1.079,0,0,1-1.076,1.076H31.145a1.079,1.079,0,0,1-1.076-1.076V18.377A1.079,1.079,0,0,1,31.145,17.3h1.882A1.079,1.079,0,0,1,34.1,18.377Z"/>
  </g>
</svg>
