<svg xmlns="http://www.w3.org/2000/svg" width="61.513" height="64.744" viewBox="0 0 61.513 64.744">
  <g id="noun-brand-7120792" transform="translate(-2.976 -0.51)">
    <path id="Path_44485" data-name="Path 44485" d="M23.236,55.1l.151-.059-9.754,9.757a1.561,1.561,0,0,1-2.649-1.318l.728-5.194a1.566,1.566,0,0,0-1.763-1.763l-5.194.723a1.559,1.559,0,0,1-1.318-2.647l8.244-8.244,1.954.327a1.447,1.447,0,0,1,1.208,1.1l.91,3.444A5.686,5.686,0,0,0,23.236,55.1Zm40.791-.5-7.92-7.92-3.24.856a1.435,1.435,0,0,0-1.1,1.208l-.373,2.215a5.688,5.688,0,0,1-6.778,4.624l9.213,9.213a1.561,1.561,0,0,0,2.649-1.318l-.723-5.194a1.5,1.5,0,0,1,.442-1.318,1.518,1.518,0,0,1,1.318-.445l5.194.723A1.558,1.558,0,0,0,64.027,54.6ZM47.658,28.64a13.93,13.93,0,1,1-4.08-9.851A13.89,13.89,0,0,1,47.658,28.64ZM27.2,23.571a1.6,1.6,0,0,0,.59.807l2.136,1.548-.82,2.509a1.6,1.6,0,0,0,0,1,1.617,1.617,0,0,0,1.538,1.119,1.588,1.588,0,0,0,.945-.312l2.136-1.556,2.133,1.556a1.615,1.615,0,0,0,2.486-.807,1.638,1.638,0,0,0,0-1l-.82-2.509,2.136-1.548a1.581,1.581,0,0,0,.59-.807,1.608,1.608,0,0,0,0-1,1.65,1.65,0,0,0-.588-.81,1.59,1.59,0,0,0-.95-.3l-2.642,0-.81-2.509a1.589,1.589,0,0,0-.585-.81,1.594,1.594,0,0,0-1.9,0,1.579,1.579,0,0,0-.588.81l-.81,2.509-2.642,0a1.606,1.606,0,0,0-.95.3,1.617,1.617,0,0,0-.583,1.809ZM39.752,38.4A1.045,1.045,0,0,0,38.7,37.362H28.758a1.045,1.045,0,0,0,0,2.09h9.949A1.048,1.048,0,0,0,39.752,38.4Zm4.111-4.7a1.045,1.045,0,0,0-1.048-1.042H24.645a1.045,1.045,0,1,0,0,2.09h18.17A1.047,1.047,0,0,0,43.862,33.706Zm.984,19.78-3.439-.935a3.535,3.535,0,0,0-3.717,1.183l-1.431,1.735a3.591,3.591,0,0,1-5.324.245l-2.514-2.527a3.527,3.527,0,0,0-3.807-.835l-2.108.789a3.6,3.6,0,0,1-4.734-2.453l-.91-3.444a3.53,3.53,0,0,0-2.882-2.626l-2.215-.373a3.592,3.592,0,0,1-2.877-4.486l.933-3.439A3.53,3.53,0,0,0,8.639,32.6L6.906,31.172a3.594,3.594,0,0,1-.248-5.324l2.527-2.509a3.53,3.53,0,0,0,.835-3.809l-.784-2.105a3.6,3.6,0,0,1,2.45-4.734l3.444-.91A3.539,3.539,0,0,0,17.759,8.9l.373-2.22A3.592,3.592,0,0,1,22.619,3.8l3.441.935a3.534,3.534,0,0,0,3.715-1.183l1.433-1.735a3.588,3.588,0,0,1,5.322-.245L39.044,4.1a3.527,3.527,0,0,0,3.807.835l2.108-.789A3.6,3.6,0,0,1,49.693,6.6l.91,3.444a3.533,3.533,0,0,0,2.882,2.626l2.215.373a3.6,3.6,0,0,1,2.879,4.486l-.935,3.439a3.53,3.53,0,0,0,1.183,3.717l1.735,1.431A3.6,3.6,0,0,1,60.8,31.44l-2.527,2.509a3.53,3.53,0,0,0-.835,3.809l.784,2.105a3.6,3.6,0,0,1-2.45,4.734l-3.444.91a3.529,3.529,0,0,0-2.626,2.882l-.373,2.22a3.592,3.592,0,0,1-4.486,2.877Zm.212-13.518a16.024,16.024,0,1,0-11.323,4.688A15.968,15.968,0,0,0,45.058,39.968ZM32.023,25.247a1.608,1.608,0,0,1,0,1L31.545,27.7l1.237-.9a1.587,1.587,0,0,1,1.9,0l1.237.9-.475-1.456a1.614,1.614,0,0,1,.588-1.806l1.239-.9-1.53.005A1.6,1.6,0,0,1,34.2,22.431l-.468-1.456-.47,1.456a1.645,1.645,0,0,1-.588.812,1.609,1.609,0,0,1-.95.3l-1.53-.005,1.239.9a1.558,1.558,0,0,1,.593.807Z"/>
  </g>
</svg>
