<svg xmlns="http://www.w3.org/2000/svg" width="57.077" height="58.221" viewBox="0 0 57.077 58.221">
  <g id="noun-research-7267601" transform="translate(-5.922 -5.039)">
    <path id="Path_44498" data-name="Path 44498" d="M42.369,9.2V5.039H5.922V50.157h2.85V9.822a.621.621,0,0,1,.62-.62l32.978,0Zm4.09,20.031c-.1-.013-.2-.025-.309-.035a12.33,12.33,0,1,0,.308,24.495v1.864l-36.447.005V10.442H46.459Zm4.555,21.483A11.027,11.027,0,0,1,47,52.358a.484.484,0,0,0-.083.015,11.1,11.1,0,1,1-.893-21.948c.3.03.6.073.9.129a.483.483,0,0,0,.083.015A11.1,11.1,0,0,1,52.7,49.345a.65.65,0,0,0-.167.1l-1.383,1.125a.724.724,0,0,0-.132.149Zm3.938,2.691-2.076-2.552c-.068.058-.139.116-.21.175s-.142.114-.215.169l2.076,2.552Zm1.26.569L54.831,55.1h0a.813.813,0,0,0-.116,1.136l5.473,6.73a.813.813,0,0,0,1.136.116L62.7,61.956a.8.8,0,0,0,.291-.544.81.81,0,0,0-.175-.592l-5.473-6.73A.8.8,0,0,0,56.8,53.8.8.8,0,0,0,56.211,53.976ZM44.15,46.131V37.006a.62.62,0,0,1,1.239,0v9.125h2.322V39.095a.62.62,0,0,1,1.239,0v7.036h2.162V42.342a.62.62,0,1,1,1.239,0v3.794a.62.62,0,0,1-.081,1.234h-15a.62.62,0,1,1,0-1.239h.076V37.006a.62.62,0,1,1,1.239,0v9.125h2.6V40.253a.62.62,0,1,1,1.239,0v5.878ZM14.3,38.442a.62.62,0,0,1,0-1.239H30.755a.62.62,0,1,1,0,1.239Zm-.134,3.29a.62.62,0,0,1,0-1.239H30.621a.62.62,0,1,1,0,1.239Zm-.132,3.29a.62.62,0,0,1,0-1.239H30.49a.62.62,0,1,1,0,1.239ZM13.9,48.316a.62.62,0,0,1,0-1.239h18.01a.62.62,0,1,1,0,1.239Zm16.321,2.051H13.77a.62.62,0,0,0,0,1.239h19.92a.62.62,0,0,0,0-1.239ZM15.173,27.342a1.6,1.6,0,0,1,.124.142l.01.013a1.43,1.43,0,0,1-.137,1.867,1.431,1.431,0,1,1,0-2.021ZM22.2,21.057a1.429,1.429,0,1,1-1.012-.42A1.43,1.43,0,0,1,22.2,21.057Zm9.244,5.177a1.429,1.429,0,1,1-1.012-.42A1.43,1.43,0,0,1,31.441,26.234Zm6.71-5.949a1.383,1.383,0,0,1-.3-.23,1.429,1.429,0,1,1,1.012.42,1.469,1.469,0,0,1-.539-.1.591.591,0,0,0-.175-.086ZM32.46,25.514l4.55-4.55a.4.4,0,0,1-.033-.033,2.668,2.668,0,1,1,1.887.781,2.7,2.7,0,0,1-.749-.106l-5.076,5.076a2.728,2.728,0,0,1,.058.561,2.668,2.668,0,1,1-5.116-1.065l-4.568-2.638a2.674,2.674,0,0,1-3.827.663l-3.01,3.01a2.667,2.667,0,1,1-.779-.971l2.995-2.995a2.668,2.668,0,1,1,5.061-1.181,2.9,2.9,0,0,1-.015.3l4.889,2.825a2.667,2.667,0,0,1,3.586.169,1.709,1.709,0,0,1,.147.157Z" fill-rule="evenodd"/>
  </g>
</svg>
