<svg xmlns="http://www.w3.org/2000/svg" width="60" height="60" viewBox="0 0 60 60">
  <g id="noun-rocket-launch-2052591" transform="translate(-1.5 -1.5)">
    <g id="Group_47151" data-name="Group 47151" transform="translate(1.5 1.5)">
      <path id="Path_44517" data-name="Path 44517" d="M54.763,1.5A48.785,48.785,0,0,0,9.2,32.813l14.25,14.25A51.483,51.483,0,0,0,40.513,36,48.6,48.6,0,0,0,54.763,1.5Zm-20.625,15a5.625,5.625,0,0,1,11.25,0,5.625,5.625,0,0,1-11.25,0Z" transform="translate(5.237 -1.5)"/>
      <path id="Path_44518" data-name="Path 44518" d="M9,36.412c.188-2.25-.75-7.875,2.438-14.812A29.616,29.616,0,0,0,1.5,43.912,29.908,29.908,0,0,0,22.688,35.1l1.125-1.125C16.875,37.162,11.25,36.225,9,36.412Z" transform="translate(-1.5 16.087)"/>
      <path id="Path_44519" data-name="Path 44519" d="M10.875,29.725a41.169,41.169,0,0,1,.375-8.25l-.375-.375A21.413,21.413,0,0,0,7.5,33.1a22.863,22.863,0,0,0,11.813-3.375l-.375-.375A39.343,39.343,0,0,1,10.875,29.725Z" transform="translate(3.75 15.65)"/>
      <path id="Path_44520" data-name="Path 44520" d="M18.4,32.463l5.813,8.625a1.9,1.9,0,0,0,3.375-.375l7.125-16.875A3.657,3.657,0,0,0,34.9,21.4,53.176,53.176,0,0,1,18.4,32.463Z" transform="translate(13.287 15.912)"/>
      <path id="Path_44521" data-name="Path 44521" d="M3.345,18.457l8.812,5.813A51.281,51.281,0,0,1,23.22,7.957a4.3,4.3,0,0,0-2.625.188L3.72,15.27A1.863,1.863,0,0,0,3.345,18.457Z" transform="translate(-0.532 4.043)"/>
    </g>
  </g>
</svg>
