<svg xmlns="http://www.w3.org/2000/svg" width="73.303" height="67.193" viewBox="0 0 73.303 67.193">
  <g id="noun-market-analysis-7300979" transform="translate(5.875 2.97)">
    <path id="Path_44471" data-name="Path 44471" d="M50.845,58.878H3.891a.768.768,0,0,1,0-1.536H49.62l.079.116a13.7,13.7,0,0,0,1.145,1.42ZM9.713,36.75a3.551,3.551,0,0,0,2.856-5.663l5.916-6.793a3.548,3.548,0,0,0,4.5-.938l16.3,7.743a3.6,3.6,0,0,0-.089.8,3.552,3.552,0,1,0,6.356-2.181L52,21.954a3.556,3.556,0,1,0-1.176-.977l-6.445,7.761a3.555,3.555,0,0,0-4.432.977l-16.3-7.743a3.6,3.6,0,0,0,.089-.8,3.552,3.552,0,1,0-6.408,2.111l-5.916,6.793a3.552,3.552,0,1,0-1.7,6.671ZM68,59.544a12.235,12.235,0,1,0-17.046-2.969A12.236,12.236,0,0,0,68,59.544Zm-1.991-2.831A8.771,8.771,0,1,1,69.6,51.047a8.755,8.755,0,0,1-3.595,5.666Zm5.1-5.412a10.308,10.308,0,1,0-4.224,6.661A10.261,10.261,0,0,0,71.111,51.3ZM66.722,62.042A14.189,14.189,0,0,0,68.882,60.8l.027-.018.544.944.229-.131a.793.793,0,0,1,1.081.29l5.559,9.627a.793.793,0,0,1-.29,1.081l-2.645,1.527a.793.793,0,0,1-1.081-.29L66.747,64.2a.793.793,0,0,1,.29-1.081l.229-.131ZM38.62,22.186a7.577,7.577,0,0,1-7.578-7.578,7.749,7.749,0,0,1,1.827-4.935A7.408,7.408,0,0,1,38.62,7.03a7.578,7.578,0,1,1,0,15.156ZM5.877,55.481h7.676V42.286H5.877Zm33.039,0h7.676v-14.5H38.916Zm-10.876,0V35.42h7.676V55.481Zm-11.695,0V30.264H24.02v25.22ZM57.468,36.214a13.794,13.794,0,0,0-7.676,5.266v-13.6h7.676Z" transform="translate(-9 -10)" fill-rule="evenodd"/>
  </g>
</svg>
