<svg xmlns="http://www.w3.org/2000/svg" width="67.001" height="77.071" viewBox="0 0 67.001 77.071">
  <g id="noun-new-product-7199590" transform="translate(-13.457 -7.964)">
    <path id="Path_44515" data-name="Path 44515" d="M24.476,65.254V75.839l21.64,9.192V60.67l-10.18,8.906a.837.837,0,0,1-.906.129ZM46.957,19.22l1.626,5.031,5.289-.011-4.286,3.1,1.644,5.024L46.957,29.25l-4.272,3.115,1.644-5.024-4.283-3.1,5.289.011ZM23.889,63.187l-10.432-4.4,10.417-8.963L45.4,59.062,35.221,67.968l-11.2-4.72a.659.659,0,0,0-.136-.061ZM42.614,40.373h9.364a14.126,14.126,0,0,1,2.546-6.41.838.838,0,0,1,.086-.111,10.4,10.4,0,1,0-15.337-.036.91.91,0,0,1,.129.161,13.425,13.425,0,0,1,1.755,3.287,15.25,15.25,0,0,1,.777,3.108Zm10.642,4.541,0,0a2.7,2.7,0,0,1-1.3,4.458A7.278,7.278,0,0,1,50.9,52.645a3.631,3.631,0,0,1-3,1.873H46.012a3.649,3.649,0,0,1-3-1.873,7.278,7.278,0,0,1-1.056-3.269,2.689,2.689,0,0,1-1.3-4.458l0,0L26.173,48.981,46.957,57.9l20.648-8.956ZM42.592,42.059a1.006,1.006,0,0,0,0,2.013h8.716a1.006,1.006,0,0,0,0-2.013ZM60.6,22.149a.842.842,0,0,1-.63-1.561l3.355-1.368a.842.842,0,1,1,.63,1.561ZM33.952,20.587a.842.842,0,0,1-.63,1.561l-3.355-1.368a.842.842,0,0,1,.63-1.561ZM39.166,14.8a.839.839,0,0,1-1.454.838l-1.8-3.13a.839.839,0,1,1,1.454-.838Zm17.038.838A.84.84,0,1,1,54.75,14.8l1.8-3.13a.841.841,0,0,1,1.454.845ZM47.8,12.43a.842.842,0,1,1-1.683,0V8.806a.842.842,0,1,1,1.683,0ZM43.656,49.454a5.457,5.457,0,0,0,.77,2.278,2.037,2.037,0,0,0,1.586,1.1H47.9a2.032,2.032,0,0,0,1.586-1.1,5.456,5.456,0,0,0,.77-2.278Zm7.645-3.7a1.006,1.006,0,0,1,0,2.013H42.614a1.006,1.006,0,0,1,0-2.013Zm18.585,17.49-11.2,4.72-10.18-8.91,21.45-9.3,10.5,9.035-10.432,4.4a1.179,1.179,0,0,0-.14.061ZM47.8,85.035l21.64-9.192V65.254L58.856,69.716a.837.837,0,0,1-.877-.14L47.8,60.67Z" transform="translate(0)" fill-rule="evenodd"/>
  </g>
</svg>
