<svg xmlns="http://www.w3.org/2000/svg" width="53.391" height="62.442" viewBox="0 0 53.391 62.442">
  <g id="noun-patient-satisfaction-7058985" transform="translate(-12 -5.558)">
    <path id="Path_44500" data-name="Path 44500" d="M59.6,64.5a12.99,12.99,0,0,0-1.413-4.838q-1.774-4.586-13.444-8.573c-.982-.447-1.49-1.537-1.507-3.257,3.087-2.98,4.377-7.42,3.7-15.381-.354-4.9-4.3-7.343-8.236-7.343-3.949,0-7.881,2.442-8.249,7.343-.678,7.958.615,12.4,3.7,15.381-.016,1.721-.521,2.813-1.49,3.257q-11.686,3.985-13.457,8.573a13.038,13.038,0,0,0-1.4,4.838,3.512,3.512,0,0,0,3.5,3.5H56.077A3.528,3.528,0,0,0,59.6,64.5ZM55.9,22.366H61.92a3.488,3.488,0,0,0,3.471-3.471V9.046A3.491,3.491,0,0,0,61.92,5.561l-46.448,0A3.493,3.493,0,0,0,12,9.046v9.849a3.486,3.486,0,0,0,3.471,3.471H52.422v4.363ZM38.7,8.662l2,3.1,3.565.952-2.322,2.857.2,3.688L38.7,17.94l-3.458,1.323.2-3.688-2.322-2.857,3.565-.952Zm-15.334,0,2.012,3.1,3.565.952-2.322,2.857.2,3.688L23.366,17.94l-3.441,1.323.2-3.688-2.319-2.857,3.565-.952Zm30.653,0-2.011,3.1-3.565.952,2.322,2.857-.184,3.688,3.441-1.323,3.441,1.323-.2-3.688,2.319-2.857-3.565-.952ZM48.63,58.488c-1.306-2.242-5.746-1.029-4.9,2.843.428,1.9,2.352,3.685,4.9,4.961,2.552-1.273,4.487-3.057,4.9-4.961C54.39,57.459,49.933,56.246,48.63,58.488Z" fill-rule="evenodd"/>
  </g>
</svg>
