<svg xmlns="http://www.w3.org/2000/svg" width="63" height="59.5" viewBox="0 0 63 59.5">
  <g id="noun-patient-7252026" transform="translate(-5 -7.5)">
    <path id="Path_44499" data-name="Path 44499" d="M25.049,7.5A15.474,15.474,0,1,1,9.572,22.971,15.471,15.471,0,0,1,25.049,7.5ZM64.15,54H8.85V46.58H5V67H8.85V60.476h55.3V67H68V40.386H64.15ZM51.824,51.179l8.889-9.617v9.617Zm2.836-19.641a4.395,4.395,0,1,0,6.215,0A4.4,4.4,0,0,0,54.659,31.538ZM14.128,51.179H43.99a7.019,7.019,0,0,0,5.138-2.127l3.765-3.765a4.078,4.078,0,0,0-5.767-5.767l-3.508,3.508-22.222,0a7.275,7.275,0,0,0-7.26,7.26v.894Zm7.506-38.016a.783.783,0,0,0-.785.785v4.815H16.034a.783.783,0,0,0-.785.785v6.833a.783.783,0,0,0,.785.785h4.815v4.815a.783.783,0,0,0,.785.785h6.833a.783.783,0,0,0,.785-.785V27.166h4.815a.783.783,0,0,0,.785-.785V19.548a.783.783,0,0,0-.785-.785H29.252V13.948a.783.783,0,0,0-.785-.785Zm6.046,1.575H22.421v4.815a.783.783,0,0,1-.785.785H16.821V25.6h4.815a.783.783,0,0,1,.785.785V31.2H27.68V26.381a.783.783,0,0,1,.785-.785H33.28V20.338H28.464a.783.783,0,0,1-.785-.785Z" fill-rule="evenodd"/>
  </g>
</svg>
