<svg xmlns="http://www.w3.org/2000/svg" width="63.979" height="67.594" viewBox="0 0 63.979 67.594">
  <g id="noun-insights-6138511" transform="translate(-41.659 -138.545)">
    <g id="Group_47137" data-name="Group 47137" transform="translate(41.659 138.545)">
      <path id="Path_44472" data-name="Path 44472" d="M104.3,97.14ZM91.525,81.456l-4.21,7.291,13.506,7.8h0l.013.007h0a1.238,1.238,0,0,0,1.661-.46l2.948-5.106.069-.121h0a1.244,1.244,0,0,0-.438-1.589l-.1-.06h0L91.525,81.456Zm-2.95.941-2,3.468L81.32,82.831a23.909,23.909,0,0,0,2.22-3.342L88.575,82.4ZM50.545,50.925A21.336,21.336,0,1,0,78.912,82.463a1.027,1.027,0,0,1,.068-.077,21.349,21.349,0,0,0-3.826-31.658A12.34,12.34,0,0,1,74.02,54.51a17.611,17.611,0,1,1-22.279.18,12.335,12.335,0,0,1-1.2-3.764Zm14.93,21.362V73.35a.3.3,0,0,1-.3.3H60.493a.3.3,0,0,1-.3-.3V72.287ZM59.452,62.2l-1.571-3.781a1.037,1.037,0,0,0-.45-.508,10.336,10.336,0,0,1-1.9-16.122,10.337,10.337,0,1,1,12.683,16.14,1.036,1.036,0,0,0-.42.49h0L66.219,62.2Zm9.854,6.089v1.021a.9.9,0,0,1-.889.889H57.255a.9.9,0,0,1-.889-.889V68.288ZM56.366,66.2V65.177a.9.9,0,0,1,.889-.889H68.417a.894.894,0,0,1,.889.889V66.2Zm-2.089,1.048v2.062a2.985,2.985,0,0,0,2.979,2.979h.852V73.35a2.391,2.391,0,0,0,2.386,2.386h4.686a2.379,2.379,0,0,0,1.686-.7c.824-.824.7-1.686.7-2.749h.852A2.985,2.985,0,0,0,71.4,69.309V65.177A2.985,2.985,0,0,0,68.478,62.2l1.112-2.678a12.493,12.493,0,0,0,3.354-3.2,15.542,15.542,0,1,1-20.094.167,12.494,12.494,0,0,0,3.232,3.036L57.194,62.2a2.985,2.985,0,0,0-2.917,2.978v2.069Zm7.29-14.8V48.079a1.045,1.045,0,0,1,2.089,0v4.366h1.523V45.924a1.045,1.045,0,0,1,2.089,0v6.521h1.815a1.045,1.045,0,0,1,0,2.089H56.589a1.045,1.045,0,0,1,0-2.089H58.4V50.363a1.045,1.045,0,0,1,2.089,0v2.082ZM58.33,46.587,60.754,44.7l.695.695a1.045,1.045,0,0,0,1.378.088l3.956-2.524A1.04,1.04,0,1,0,65.664,41.2l-3.329,2.124-.755-.755,0,0a1.041,1.041,0,0,0-1.377-.084l-3.152,2.46a1.041,1.041,0,0,0,1.281,1.64Zm-8.022-7.926a1.042,1.042,0,0,1-1.045,1.8l-2.846-1.643a1.042,1.042,0,0,1,1.045-1.8l2.846,1.643Zm26.1,1.8,2.845-1.643a1.042,1.042,0,1,0-1.045-1.8l-2.846,1.643a1.042,1.042,0,1,0,1.045,1.8ZM55.064,34.992a1.04,1.04,0,0,1-1.8,1.037l-1.643-2.846a1.04,1.04,0,0,1,1.8-1.037l1.643,2.846Zm16.888,1.041a1.042,1.042,0,0,1-1.8-1.045l1.643-2.846a1.042,1.042,0,0,1,1.8,1.045l-1.643,2.846Zm-5.056-2a1.043,1.043,0,0,1-2.016-.539l.85-3.174a1.043,1.043,0,1,1,2.016.539l-.85,3.174Zm-6.228-.539a1.043,1.043,0,0,1-2.016.539l-.85-3.174a1.043,1.043,0,1,1,2.016-.539l.85,3.174Zm1.123,24.1a1.045,1.045,0,1,1,2.089,0v2.686a1.045,1.045,0,0,1-2.089,0Z" transform="translate(-41.659 -29.545)" fill-rule="evenodd"/>
    </g>
  </g>
</svg>
