<svg xmlns="http://www.w3.org/2000/svg" width="63.661" height="63.649" viewBox="0 0 63.661 63.649">
  <g id="noun-segmentation-7339933" transform="translate(-8.338 -8.348)">
    <path id="Path_44501" data-name="Path 44501" d="M39.231,8.348A31.834,31.834,0,0,0,12.15,55.264L39.234,39.628ZM34.979,32.376A2.384,2.384,0,0,1,32.6,34.754H28.771a5.867,5.867,0,0,1,.146,1.322v2.1a2.711,2.711,0,0,1-.794,1.913l0,0a2.7,2.7,0,0,1-1.913.8h-10.9A2.716,2.716,0,0,1,12.6,38.18v-2.1A6,6,0,0,1,14.117,32.1a6.1,6.1,0,0,1,2.307-1.624,4.9,4.9,0,0,1,.857-5.8l0,0,0,0a4.908,4.908,0,0,1,6.724-.212C24,24.386,24,24.309,24,24.231a4.174,4.174,0,0,1,7.124-2.952l0,0,0,0a4.17,4.17,0,0,1,.815,4.742,5.1,5.1,0,0,1,3.038,4.638Z"/>
    <path id="Path_44502" data-name="Path 44502" d="M48.9,69.493a3.6,3.6,0,1,0-2.537-1.056A3.574,3.574,0,0,0,48.9,69.493Z" transform="translate(-8.724 -12.734)"/>
    <path id="Path_44503" data-name="Path 44503" d="M47.759,73.789a5.456,5.456,0,0,1-3.417-1.2A4.868,4.868,0,0,0,41.7,74.127a4.818,4.818,0,0,0-1.215,3.2v2.388a1.08,1.08,0,0,0,1.077,1.077l12.38,0a1.079,1.079,0,0,0,.761-.316l0,0,0,0a1.076,1.076,0,0,0,.313-.761V77.329a4.851,4.851,0,0,0-3.856-4.736,5.461,5.461,0,0,1-3.411,1.2Z" transform="translate(-7.587 -15.159)"/>
    <path id="Path_44504" data-name="Path 44504" d="M35.86,33.493a4.16,4.16,0,0,1-5.041-.024,5.18,5.18,0,0,1,.039.612,4.882,4.882,0,0,1-.585,2.322,6.078,6.078,0,0,1,2.319,1.63,6.17,6.17,0,0,1,.579.776h4.605a.508.508,0,0,0,.358-.149.5.5,0,0,0,.149-.358V36.594a3.208,3.208,0,0,0-2.423-3.1Z" transform="translate(-5.176 -5.928)"/>
    <path id="Path_44505" data-name="Path 44505" d="M25.69,39.332a4.916,4.916,0,0,1-6.07,0,4.162,4.162,0,0,0-3.253,4.053v2.1a.846.846,0,0,0,.839.839H28.1a.836.836,0,0,0,.839-.839l0-2.1a4.184,4.184,0,0,0-3.247-4.056Z" transform="translate(-1.895 -7.311)"/>
    <path id="Path_44506" data-name="Path 44506" d="M32.007,30.093a2.3,2.3,0,0,0,3.217-3.3l0,0a2.3,2.3,0,1,0-3.253,3.253.518.518,0,0,0,.039.045Z" transform="translate(-5.417 -4.194)"/>
    <path id="Path_44507" data-name="Path 44507" d="M21.5,35.483l0,0,0,0a3.051,3.051,0,0,0,4.31,0l0,0a3.055,3.055,0,0,0,0-4.31l0,0a3.055,3.055,0,0,0-4.31,0l0,0a3.036,3.036,0,0,0-.892,2.155,3.006,3.006,0,0,0,.883,2.155Z" transform="translate(-2.897 -5.176)"/>
    <path id="Path_44508" data-name="Path 44508" d="M78.735,33.493a4.16,4.16,0,0,1-5.041-.024,5.179,5.179,0,0,1,.039.612,4.882,4.882,0,0,1-.585,2.322,6.085,6.085,0,0,1,2.9,2.406h4.608a.509.509,0,0,0,.507-.507V36.594a3.157,3.157,0,0,0-.8-2.113,3.191,3.191,0,0,0-1.624-.988Z" transform="translate(-15.294 -5.928)"/>
    <path id="Path_44509" data-name="Path 44509" d="M77.853,24.253h0l0,0a31.868,31.868,0,0,0-26.631-15.9V39.63L78.306,55.268a32.109,32.109,0,0,0,2.722-6.861,31.736,31.736,0,0,0-3.175-24.153Zm.006,8.124a2.384,2.384,0,0,1-2.379,2.379H71.651a5.867,5.867,0,0,1,.146,1.322v2.1A2.711,2.711,0,0,1,71,40.095L71,40.1a2.7,2.7,0,0,1-1.913.8h-10.9a2.716,2.716,0,0,1-2.71-2.713l0-2.1A6,6,0,0,1,57,32.1,6.1,6.1,0,0,1,59.3,30.473a4.9,4.9,0,0,1,.857-5.8l0,0,0,0a4.912,4.912,0,0,1,6.727-.212c0-.078-.006-.155-.006-.233a4.17,4.17,0,0,1,7.118-2.952l0,0a4.165,4.165,0,0,1,.818,4.742,5.1,5.1,0,0,1,3.038,4.638Z" transform="translate(-10.12 -0.001)"/>
    <path id="Path_44510" data-name="Path 44510" d="M68.565,39.336a4.916,4.916,0,0,1-6.07,0,4.162,4.162,0,0,0-3.253,4.053v2.1a.846.846,0,0,0,.839.839h10.9a.836.836,0,0,0,.839-.839l0-2.107a4.164,4.164,0,0,0-3.253-4.053Z" transform="translate(-12.012 -7.312)"/>
    <path id="Path_44511" data-name="Path 44511" d="M14.551,67.041a31.831,31.831,0,0,0,54.171,0L41.635,51.4Zm30.943-7.572,0,0a5.448,5.448,0,0,1,.883,6.557,6.789,6.789,0,0,1,2.707,1.859,6.681,6.681,0,0,1,1.689,4.435v2.388a2.94,2.94,0,0,1-.868,2.083l0,0a2.941,2.941,0,0,1-2.086.865l-12.376,0A2.955,2.955,0,0,1,32.5,74.714V72.326a6.67,6.67,0,0,1,1.689-4.435,6.779,6.779,0,0,1,2.7-1.859,5.459,5.459,0,0,1,8.6-6.563Z" transform="translate(-1.466 -10.16)"/>
    <path id="Path_44512" data-name="Path 44512" d="M74.843,30.056a2.3,2.3,0,1,0-.674-1.63,2.289,2.289,0,0,0,.674,1.63Z" transform="translate(-15.534 -4.195)"/>
    <path id="Path_44513" data-name="Path 44513" d="M64.374,35.483l0,0,0,0a3.051,3.051,0,0,0,4.31,0l.006,0a3.055,3.055,0,0,0,0-4.31l-.006,0a3.059,3.059,0,0,0-4.313,0l0,0a3.055,3.055,0,0,0-.006,4.31Z" transform="translate(-13.014 -5.176)"/>
  </g>
</svg>
