<svg xmlns="http://www.w3.org/2000/svg" width="92.413" height="89.713" viewBox="0 0 92.413 89.713">
  <path id="Path_45559" data-name="Path 45559" d="M34.729,65.239H27.292a1.066,1.066,0,0,0-.75.387,1.488,1.488,0,0,0-.358.985v1.17a1.494,1.494,0,0,0,.375,1.005,1.088,1.088,0,0,0,.783.363H48.063a1.088,1.088,0,0,0,.783-.363,1.479,1.479,0,0,0,.375-1.005V66.607a1.477,1.477,0,0,0-.358-.981,1.086,1.086,0,0,0-.75-.391.035.035,0,0,1-.029,0h-.021ZM29.8,71.675v3.107a3.2,3.2,0,0,0,.9,2.241,2.936,2.936,0,0,0,2.126.911h9.753a2.942,2.942,0,0,0,2.126-.911,3.2,3.2,0,0,0,.9-2.241V71.675ZM50.744,57.394a3.711,3.711,0,0,1,.964-1.166,22.376,22.376,0,0,0,5.118-5.975c.049-.087.1-.169.148-.255l4.108,4.108-2.9,2.9h0A1.265,1.265,0,0,0,58,58.573a23.115,23.115,0,0,1,1.92,4.648,1.267,1.267,0,0,0,1.207.911h4.1V75.19h-4.1A1.258,1.258,0,0,0,59.9,76.207a23.2,23.2,0,0,1-.82,2.3,22.8,22.8,0,0,1-1.108,2.307,1.261,1.261,0,0,0,.21,1.5l2.9,2.9-7.82,7.82-2.9-2.9a1.271,1.271,0,0,0-1.57-.177,23,23,0,0,1-4.644,1.924,1.267,1.267,0,0,0-.911,1.207v4.1H32.17v-4.1a1.266,1.266,0,0,0-1.014-1.24,22.881,22.881,0,0,1-2.307-.816,23.684,23.684,0,0,1-2.3-1.113,1.267,1.267,0,0,0-1.5.214l-2.9,2.9-7.825-7.82,2.9-2.9a1.266,1.266,0,0,0,.177-1.57,23.209,23.209,0,0,1-1.071-2.237,22.822,22.822,0,0,1-.845-2.406,1.257,1.257,0,0,0-1.207-.911h-4.1V64.131h4.1a1.261,1.261,0,0,0,1.236-1.018A23.172,23.172,0,0,1,17.435,58.5a1.274,1.274,0,0,0-.21-1.5l-2.9-2.9,4.108-4.108a22.247,22.247,0,0,0,5.266,6.23,3.67,3.67,0,0,1,.964,1.17,17.923,17.923,0,1,0,26.09,0ZM56.9,43.183A21.674,21.674,0,0,1,49.43,23.31,19.643,19.643,0,0,0,19.862,47.278a1.557,1.557,0,0,1,.07.144l.021.045a19.667,19.667,0,0,0,5.332,6.8,6.1,6.1,0,0,1,2.3,4.821v3.618H47.831V59.091a6.078,6.078,0,0,1,2.291-4.821,19.691,19.691,0,0,0,4.537-5.295c.293-.5.56-1.009.812-1.537v0a.9.9,0,0,1,.082-.181,19.551,19.551,0,0,0,1.356-4.083Zm20.655,10.9-.474.223,1.055,2.25,11.076-5.2-1.055-2.25-10.6,4.977ZM98.371,74.654a2.49,2.49,0,0,1-1.187,3.3l-3.358,1.574h0a2.486,2.486,0,0,1-3.3-1.187L80.979,58.008l7.841-3.684,9.551,20.334ZM75.923,47.642a21.831,21.831,0,0,0,7.841-3.684l1.706,3.63-7.841,3.688Zm7.454-6.6a19.154,19.154,0,0,1-24.24.7,1.472,1.472,0,0,0-.157-.124,19.152,19.152,0,0,1-6.955-18.558,1.054,1.054,0,0,0,.021-.111A19.129,19.129,0,1,1,83.41,41.012l-.037.033ZM58.148,34.39a14.872,14.872,0,1,1,25.6-.4,14.887,14.887,0,0,0-25.592.408Zm23.989,1.883a12.374,12.374,0,0,0-22.312.35,14.89,14.89,0,0,0,22.311-.35Zm2.522.882a1.176,1.176,0,0,1-.1.136,17.4,17.4,0,0,1-26.984.581c-.025-.029-.049-.054-.07-.082l-.07-.087c-.029-.033-.058-.066-.082-.1a17.391,17.391,0,1,1,27.31-.447ZM71.844,18.675A2.164,2.164,0,0,0,68.2,20.241v.128a2.16,2.16,0,0,0,2.147,2.052.62.62,0,0,1,.124,0,2.162,2.162,0,0,0,1.372-3.741Zm-1.632-3.1,0,0a4.679,4.679,0,0,0-4.537,4.714.276.276,0,0,0,0,.082v.037a4.682,4.682,0,0,0,4.714,4.537h.119a4.683,4.683,0,0,0-.3-9.361ZM38.964,12.218a1.265,1.265,0,1,1-2.53,0V8.939a1.265,1.265,0,1,1,2.53,0ZM18.985,18.683A1.264,1.264,0,0,1,17.2,20.467l-2.32-2.32h0a1.267,1.267,0,1,1,1.792-1.788l2.32,2.32ZM10.736,37.917a1.267,1.267,0,0,1,0,2.534H7.46a1.267,1.267,0,1,1,0-2.534Z" transform="translate(-6.191 -7.479)" fill-rule="evenodd"/>
</svg>
