<svg xmlns="http://www.w3.org/2000/svg" width="100%" height="100%" viewBox="0 0 127 127">
  <g id="link" transform="translate(6 5.109)">
    <circle id="Ellipse_11289" data-name="Ellipse 11289" cx="63.5" cy="63.5" r="63.5" transform="translate(-6 -5.109)"/>
    <path id="Path_52685" data-name="Path 52685" d="M45.327,67.458l-8.518,8.518A10.085,10.085,0,0,1,22.546,61.714l13.928-13.94a10.134,10.134,0,0,1,14.262,0,5.957,5.957,0,0,0,8.311,0l3.335-3.335v0a21.541,21.541,0,0,0-33.973-4.734L14.481,53.649A21.491,21.491,0,0,0,44.874,84.042l13.94-13.936c.434-.434.838-.876,1.218-1.318a25.919,25.919,0,0,1-14.7-1.329Zm2.448-16.722a10.134,10.134,0,0,0,14.262,0l13.94-13.928A10.085,10.085,0,0,0,61.714,22.546L53.2,31.064a25.959,25.959,0,0,0-14.754-1.329c.384-.442.788-.884,1.218-1.318l13.99-13.936A21.491,21.491,0,0,1,84.042,44.874L70.106,58.814A21.545,21.545,0,0,1,36.129,54.08l3.3-3.331a5.957,5.957,0,0,1,8.311,0ZM73.152,76.123A2.105,2.105,0,0,1,76.1,73.172l5.479,5.479A2.1,2.1,0,0,1,78.631,81.6ZM16.909,19.891A2.105,2.105,0,0,1,19.86,16.94l5.479,5.479a2.105,2.105,0,0,1-2.951,2.951ZM83.4,60.592l7.477,1.967h0A2.1,2.1,0,1,0,91.96,58.5l-7.477-1.967A2.107,2.107,0,0,0,83.4,60.6ZM6.562,39.994a2.084,2.084,0,0,1-1.36-.957,2.106,2.106,0,0,1,2.444-3.1L15.123,37.9h0a2.107,2.107,0,0,1-1.08,4.073L6.562,40.006ZM56.519,84.483a2.107,2.107,0,0,1,4.073-1.08l1.967,7.477v0A2.1,2.1,0,1,1,58.5,91.96l-1.967-7.477ZM35.932,7.646,37.9,15.123v0a2.107,2.107,0,0,0,4.073-1.08L40.005,6.563a2.1,2.1,0,1,0-4.061,1.084Z" transform="translate(7.798 8.688)" fill="#fff" fill-rule="evenodd"/>
  </g>
</svg>
