<svg xmlns="http://www.w3.org/2000/svg" width="100%" height="100%" viewBox="0 0 125 125">
  <g id="Link_Distribution" data-name="Link Distribution" transform="translate(-123 -55.938)">
    <path id="Path_52688" data-name="Path 52688" d="M62.5,0c18.433,0,31.024,5.28,46.649,20.9S125,46.415,125,62.5A62.5,62.5,0,0,1,62.5,125C27.982,125,0,93.75,0,62.5S27.982,0,62.5,0Z" transform="translate(123 55.938)"/>
    <path id="Path_52686" data-name="Path 52686" d="M57.812,50A7.813,7.813,0,1,1,50,42.188,7.815,7.815,0,0,1,57.812,50Zm31.25,31.25a7.813,7.813,0,1,1-14.328-4.3L60.984,63.2a17.151,17.151,0,0,1-9.422,3.906v9.734a4.688,4.688,0,1,1-3.125,0V67.109A17.1,17.1,0,0,1,39.015,63.2l-13.75,13.75a7.832,7.832,0,1,1-2.219-2.219L36.8,60.984a17.152,17.152,0,0,1-3.906-9.422H23.156a4.688,4.688,0,1,1,0-3.125H32.89A17.1,17.1,0,0,1,36.8,39.016l-13.75-13.75a7.832,7.832,0,1,1,2.219-2.219L39.015,36.8a17.152,17.152,0,0,1,9.422-3.906V23.156a4.688,4.688,0,1,1,3.125,0v9.734A17.1,17.1,0,0,1,60.984,36.8l13.75-13.75a7.832,7.832,0,1,1,2.219,2.219L63.2,39.016a17.151,17.151,0,0,1,3.906,9.422h9.734a4.688,4.688,0,1,1,0,3.125H67.109A17.1,17.1,0,0,1,63.2,60.984l13.75,13.75A7.8,7.8,0,0,1,89.062,81.25Zm-9.375-62.5a1.563,1.563,0,1,0,1.563-1.562A1.567,1.567,0,0,0,79.687,18.75Zm-59.375,0a1.563,1.563,0,1,0-1.562,1.563A1.567,1.567,0,0,0,20.312,18.75Zm0,62.5a1.563,1.563,0,1,0-1.562,1.563A1.567,1.567,0,0,0,20.312,81.25ZM60.937,50A10.938,10.938,0,1,0,50,60.938,10.95,10.95,0,0,0,60.937,50ZM82.812,81.25a1.563,1.563,0,1,0-1.562,1.563A1.567,1.567,0,0,0,82.812,81.25Z" transform="translate(135.063 68)" fill="#fff"/>
  </g>
</svg>
