<svg xmlns="http://www.w3.org/2000/svg" width="100%" height="100%" viewBox="0 0 161.867 141.047">
  <g id="monitoring" transform="translate(189.861 20.831)">
    <path id="Path_52687" data-name="Path 52687" d="M117.751,141.635H37.22a3.217,3.217,0,0,0-2.476,1.262,4.8,4.8,0,0,0-1.032,3.029v4.291h87.554v-4.291a4.815,4.815,0,0,0-1.032-3.029,3.219,3.219,0,0,0-2.483-1.262Zm-21.158-3.448-5.438-9.621H63.817l-5.438,9.621Zm56.747-21c.054-.175.108-.351.155-.533a11.356,11.356,0,0,0,.364-2.868v-1.16h-5.087ZM84.217,85.96a24.734,24.734,0,0,0,49.347,0H119.2l-4.143,7.988a1.748,1.748,0,0,1-.938.83,1.72,1.72,0,0,1-2.2-1.032l-7.435-20.369L101.328,84.6a1.717,1.717,0,0,1-1.687,1.363Zm24.666-26.447A24.727,24.727,0,0,1,133.557,82.52h-15.41a1.724,1.724,0,0,0-1.579,1.039L113.8,88.9l-7.9-21.644a1.718,1.718,0,0,0-3.293.061l-4.278,15.2H84.217a24.727,24.727,0,0,1,24.667-23.007Zm0-6.848A31.573,31.573,0,1,1,77.308,84.248v-.013a31.57,31.57,0,0,1,31.576-31.569Zm20.517,59.96a35.023,35.023,0,0,1-41.035,0H3.139v1.16a11.38,11.38,0,0,0,11.342,11.342H138.259l-5.8-5.8a1.719,1.719,0,0,1,0-2.436l1.187-1.187-3.083-3.083H129.4Zm5.148-4.554,3.367,3.367-1.835,1.835-3.367-3.367c.317-.29.627-.594.931-.9S134.252,108.381,134.549,108.071ZM92.88,34.551a18.347,18.347,0,0,0-23.708-4.419,18.474,18.474,0,0,0-5.06,4.419ZM73.915,86.03A34.859,34.859,0,0,0,84.13,109c.061.061.121.115.175.175H3.141V49.34A11.38,11.38,0,0,1,14.482,38H142.518A11.38,11.38,0,0,1,153.86,49.34v59.839h-8.528l-1.363-1.363a1.719,1.719,0,0,0-2.436,0L140.346,109l-3.576-3.576A35.019,35.019,0,1,0,73.909,82.521H65.826a1.713,1.713,0,0,0-1.579,1.039L61.474,88.9l-7.9-21.644a1.718,1.718,0,0,0-3.293.061L46,82.522H20.311a1.72,1.72,0,1,0,0,3.441H47.306A1.724,1.724,0,0,0,48.993,84.6L52.15,73.38l7.435,20.369a1.72,1.72,0,0,0,2.2,1.032,1.739,1.739,0,0,0,.945-.83l4.143-7.988h6.855a1.557,1.557,0,0,0,.189.067Zm6.8-1.606v-.175a27.968,27.968,0,1,1,0,.174Zm24.06-49.873h-7.7a21.767,21.767,0,0,0-37.135,0h-7.7c.121-.277.243-.547.371-.823A28.622,28.622,0,0,1,54.2,30.8a1.731,1.731,0,0,0,.034-1.768l-3.724-7.084,4.041-4.041,7.138,3.758A1.711,1.711,0,0,0,63.4,21.6a28.534,28.534,0,0,1,4.163-2.146A27.9,27.9,0,0,1,72,18.035a1.722,1.722,0,0,0,1.275-1.228l2.368-7.638h5.715l2.388,7.7A1.733,1.733,0,0,0,85,18.042a29.342,29.342,0,0,1,4.439,1.424,28.614,28.614,0,0,1,4.17,2.146,1.715,1.715,0,0,0,1.768.027l7.078-3.724,4.041,4.041-3.758,7.138A1.711,1.711,0,0,0,102.8,30.8a28.031,28.031,0,0,1,1.6,2.935c.128.27.256.547.378.816Zm38.841,91.063-7.509-7.509,6.639-6.639,20.889,20.889A4.694,4.694,0,0,1,157,138.994Z" transform="translate(-193 -30)" fill-rule="evenodd"/>
  </g>
</svg>
