<svg xmlns="http://www.w3.org/2000/svg" width="100%" height="100%" viewBox="0 0 65.258 70.334">
  <g id="noun-brand-loyalty-6192700" transform="translate(-9.786 -6.66)">
    <path id="Path_44890" data-name="Path 44890" d="M44.314,7.707c-1.761-1.4-2.035-1.4-3.8,0-1.884,1.492-2.5,1.637-4.837,1.1-2.066-.469-2.229-.392-3.106,1.523-.992,2.165-1.491,2.568-3.821,3.061-2.04.432-2.149.568-2.132,2.654.019,2.385-.264,2.962-2.148,4.421-1.7,1.318-1.746,1.522-.826,3.489,1.046,2.238,1.046,2.891,0,5.129-.92,1.968-.876,2.174.826,3.489,1.884,1.461,2.166,2.037,2.148,4.421-.017,2.087.093,2.222,2.132,2.654,2.33.494,2.829.893,3.821,3.062.877,1.915,1.04,1.992,3.106,1.523,2.345-.533,2.956-.389,4.84,1.1,1.761,1.4,2.035,1.4,3.8,0,1.884-1.492,2.5-1.637,4.84-1.1,2.066.469,2.229.392,3.106-1.523.992-2.166,1.491-2.568,3.821-3.062,2.04-.432,2.149-.568,2.132-2.654-.019-2.384.264-2.961,2.148-4.421,1.7-1.318,1.746-1.523.826-3.489-1.046-2.238-1.046-2.891,0-5.129.92-1.969.876-2.174-.826-3.489-1.884-1.461-2.166-2.037-2.148-4.421.016-2.086-.092-2.222-2.132-2.654-2.33-.493-2.829-.9-3.821-3.061-.88-1.915-1.043-1.992-3.113-1.523-2.345.533-2.956.389-4.84-1.1ZM50.264,22.4v9.852h-2.7a.48.48,0,0,1-.477-.477v-8.9a.48.48,0,0,1,.477-.477Zm-2.7-1.688h3.541a.843.843,0,0,1,.844.844V33.1a.844.844,0,0,1-.844.845H47.566a2.166,2.166,0,0,1-1.8-.966,10.174,10.174,0,0,1-1.379.767,8.069,8.069,0,0,1-2.745.71l-5.735.007a2.1,2.1,0,0,1-1.947-2.883,2.256,2.256,0,0,1-.7-3.039A2.252,2.252,0,0,1,33,25.445a2.261,2.261,0,0,1,1.758-3.674h3.758c-.509-1.819-1.34-5.749,1.151-6.418a2.253,2.253,0,0,1,1.713.229h0a2.248,2.248,0,0,1,1.055,1.384,10.98,10.98,0,0,0,1.687,3.844,3.423,3.423,0,0,0,1.5,1.106,2.167,2.167,0,0,1,1.938-1.2ZM45.4,31.175a9.341,9.341,0,0,1-1.7,1.032,6.386,6.386,0,0,1-2.176.568H35.9a.412.412,0,0,1,0-.824h1.271a.844.844,0,1,0,0-1.688H35.195a.571.571,0,0,1,0-1.142h1.59a.844.844,0,1,0,0-1.688H34.762a.571.571,0,1,1,0-1.142h1.731a.844.844,0,0,0,0-1.688H34.762a.571.571,0,0,1,0-1.142h4.915a.843.843,0,0,0,.776-1.177,13.682,13.682,0,0,1-.8-3.995c0-.649.113-1.18.421-1.293a.568.568,0,0,1,.472.045h0a.568.568,0,0,1,.267.348,12.607,12.607,0,0,0,2,4.469A5.031,5.031,0,0,0,45.4,23.621v7.557ZM42.416,11.886A14.639,14.639,0,1,1,27.778,26.524,14.639,14.639,0,0,1,42.416,11.886Zm9.158,5.48a12.951,12.951,0,1,1-18.315,0,12.951,12.951,0,0,1,18.315,0ZM25.805,68.247a5.823,5.823,0,0,0-1.926-5.084l-11.8-11.8c-3.327-3.962-2.386-9.681-1.2-16.887.243-1.461.491-2.974.712-4.5.317-2,.916-2.926,2.783-2.926a2.777,2.777,0,0,1,2.766,2.766V40.934a4.463,4.463,0,0,0-.786,6.925l6.086,6.086a.844.844,0,1,0,1.194-1.193l-6.086-6.086a2.767,2.767,0,1,1,3.913-3.913l9.593,9.593a.845.845,0,0,0,.21.153q5.5,3.255,7.332,7.33a11.5,11.5,0,0,1,.247,8.416Zm17.452,4.132v4.615H62.21V72.3a2.391,2.391,0,0,0-1.925-2.332.836.836,0,0,1-.513-.043H45.632A2.381,2.381,0,0,0,43.26,72.3v.075ZM22.623,76.994H41.576V72.3A2.381,2.381,0,0,0,39.2,69.931H25.061a.836.836,0,0,1-.513.043,2.391,2.391,0,0,0-1.925,2.332Zm23.364-8.747a11.494,11.494,0,0,1,.253-8.416q1.835-4.075,7.332-7.33a.845.845,0,0,0,.2-.153l9.591-9.591a2.767,2.767,0,1,1,3.913,3.913l-6.086,6.085a.844.844,0,1,0,1.194,1.193l6.086-6.086a4.463,4.463,0,0,0-.786-6.925V29.818a2.777,2.777,0,0,1,2.767-2.766c1.866,0,2.465.932,2.782,2.926.221,1.525.471,3.041.712,4.5,1.189,7.206,2.132,12.925-1.2,16.887l-11.8,11.8a5.823,5.823,0,0,0-1.926,5.084Z" transform="translate(0 0)" fill-rule="evenodd"/>
  </g>
</svg>
