<svg xmlns="http://www.w3.org/2000/svg" width="100%" height="100%" viewBox="0 0 65.843 68.721">
  <g id="noun-brand-6560720" transform="translate(-14.682 50.988)">
    <path id="Path_44908" data-name="Path 44908" d="M37.493,53.96l-.474.631A.859.859,0,0,1,37.493,53.96ZM47.388,41,44.6,35.82,41.82,41h0a.859.859,0,0,1-.6.439l-5.782,1.048,4.065,4.25h0a.859.859,0,0,1,.229.708l-.8,5.823,5.289-2.547h0a.859.859,0,0,1,.747,0l5.3,2.547-.789-5.8a.859.859,0,0,1,.226-.727l4.065-4.256-5.736-1.036A.859.859,0,0,1,47.388,41Zm30.05,11.556a4.9,4.9,0,0,1-1.461,4.5l-5.134,4.983a6.7,6.7,0,0,0-.773.879,6.811,6.811,0,0,0-.6,1l-3.119,6.37a4.911,4.911,0,0,1-3.827,2.781l-7.083,1.014a6.507,6.507,0,0,0-2.212.719l-6.272,3.321a4.9,4.9,0,0,1-4.734,0l-6.317-3.34a6.566,6.566,0,0,0-2.212-.717l-7.022-1a4.909,4.909,0,0,1-3.829-2.776l-3.153-6.424a6.389,6.389,0,0,0-1.367-1.882L13.232,57.05a4.9,4.9,0,0,1-1.461-4.5L13,45.5a6.713,6.713,0,0,0,.1-1.161,6.637,6.637,0,0,0-.1-1.163L11.774,36.19a4.9,4.9,0,0,1,1.461-4.5l5.134-4.983a6.7,6.7,0,0,0,.773-.879,6.812,6.812,0,0,0,.6-1l3.119-6.37a4.911,4.911,0,0,1,3.827-2.781l7.083-1.013a6.743,6.743,0,0,0,1.139-.258,6.664,6.664,0,0,0,1.072-.459l6.272-3.321a4.9,4.9,0,0,1,4.734,0L53.3,13.954a6.641,6.641,0,0,0,1.073.457h0a6.608,6.608,0,0,0,1.14.258l7.021,1a4.909,4.909,0,0,1,3.829,2.776l3.153,6.424a6.408,6.408,0,0,0,1.367,1.883l5.094,4.934a4.9,4.9,0,0,1,1.461,4.5l-1.225,7.045a6.721,6.721,0,0,0-.1,1.161,6.636,6.636,0,0,0,.1,1.163ZM67.009,44.369a22.406,22.406,0,1,0-6.562,15.842,22.406,22.406,0,0,0,6.562-15.842ZM59.226,29.746A20.678,20.678,0,1,1,44.6,23.689a20.678,20.678,0,0,1,14.622,6.057ZM55.655,41.075l-6.946-1.26L45.367,33.6a.859.859,0,0,0-1.522-.009L40.5,39.815l-6.9,1.253a.859.859,0,0,0-.516,1.446l4.883,5.106-.945,6.97a.859.859,0,0,0,1.229.919L44.6,52.445l6.362,3.065h0a.859.859,0,0,0,1.226-.889l-.945-7,4.883-5.106h0a.859.859,0,0,0-.471-1.438Z" transform="translate(3 -61)"/>
  </g>
</svg>
