<svg xmlns="http://www.w3.org/2000/svg" width="100%" height="100%" viewBox="0 0 66 62.297">
  <g id="noun-customer-support-7341620" transform="translate(-17 -18.843)">
    <path id="Path_44891" data-name="Path 44891" d="M81.281,43.078a6.015,6.015,0,0,0-2.3-1.391,29.8,29.8,0,0,0-57.953,0A5.783,5.783,0,0,0,17,47.219V58.688a5.888,5.888,0,0,0,5.875,5.875,5.619,5.619,0,0,0,2.391-.516,5.849,5.849,0,0,0,3.484-5.359V47.219a5.933,5.933,0,0,0-1.719-4.156,5.863,5.863,0,0,0-4.156-1.7h-.141A28.936,28.936,0,0,1,23.75,38.25a4.2,4.2,0,0,0,4.609-1.3,28.254,28.254,0,0,1,43.407.14A4.186,4.186,0,0,0,75,38.624a3.833,3.833,0,0,0,1.313-.25,26.686,26.686,0,0,1,.984,2.984H77.11c-.234,0-.453.047-.672.063a1.669,1.669,0,0,0-.391.047,5.031,5.031,0,0,0-1.078.313A5.863,5.863,0,0,0,71.391,46v.031a6.04,6.04,0,0,0-.125,1.2V58.7a4.626,4.626,0,0,0,.063.813,1.579,1.579,0,0,0,.047.266c.031.172.063.344.109.516.031.109.063.2.094.3a3.639,3.639,0,0,0,.172.438c.047.109.094.2.141.313.063.125.141.266.219.391.063.109.125.2.188.3.078.109.172.219.25.328l.234.281c.094.109.188.188.3.3.094.078.172.172.266.25a4.423,4.423,0,0,0,.438.313l.188.141A28.2,28.2,0,0,1,57.75,76.031a4.328,4.328,0,0,0-4.25-3.547H50.813a4.328,4.328,0,0,0,0,8.656H53.5a4.324,4.324,0,0,0,4.234-3.484A29.7,29.7,0,0,0,75.391,64.265a5.391,5.391,0,0,0,1.734.3A5.888,5.888,0,0,0,83,58.687V47.218a5.933,5.933,0,0,0-1.719-4.156Z"/>
    <path id="Path_44892" data-name="Path 44892" d="M68.547,47.3c0-7.766-8.3-14.094-18.5-14.094s-18.5,6.328-18.5,14.094,8.3,14.094,18.5,14.094a24.845,24.845,0,0,0,2.625-.141l7.688,5.484a.814.814,0,0,0,.453.141.757.757,0,0,0,.406-.109.809.809,0,0,0,.375-.781l-1.016-7.109c5-2.641,7.953-6.937,7.953-11.578ZM40.953,50.625A2.844,2.844,0,1,1,43.8,47.781,2.844,2.844,0,0,1,40.953,50.625Zm9.094,0a2.844,2.844,0,1,1,2.844-2.844A2.844,2.844,0,0,1,50.047,50.625Zm9.094,0a2.844,2.844,0,1,1,2.844-2.844A2.844,2.844,0,0,1,59.141,50.625Z"/>
    <path id="Path_44893" data-name="Path 44893" d="M40.953,46.516A1.281,1.281,0,1,0,42.234,47.8,1.287,1.287,0,0,0,40.953,46.516Z"/>
    <path id="Path_44894" data-name="Path 44894" d="M50.047,46.516A1.281,1.281,0,1,0,51.328,47.8,1.287,1.287,0,0,0,50.047,46.516Z"/>
    <path id="Path_44895" data-name="Path 44895" d="M59.141,46.516A1.281,1.281,0,1,0,60.422,47.8,1.287,1.287,0,0,0,59.141,46.516Z"/>
  </g>
</svg>
