<svg xmlns="http://www.w3.org/2000/svg" width="100%" height="100%" viewBox="0 0 75.425 68.333">
  <path id="Path_44907" data-name="Path 44907" d="M65.656,46.049A30.642,30.642,0,1,0,54.993,63.623V43.175a3.029,3.029,0,0,1,5.048-2.22ZM52.643,32.184a3.928,3.928,0,1,1-3.929-3.925,3.931,3.931,0,0,1,3.929,3.925Zm-1.5,0a2.42,2.42,0,1,1-.71-1.715,2.429,2.429,0,0,1,.71,1.715Zm-24.638,0h0a3.928,3.928,0,1,1-3.925-3.925A3.928,3.928,0,0,1,26.5,32.184Zm-1.5,0h0a2.414,2.414,0,1,1-.707-1.715A2.426,2.426,0,0,1,25,32.184Zm.419,20.877h0a16.607,16.607,0,0,1-5.87-9.2,2.961,2.961,0,0,1,3.644-3.575,51.235,51.235,0,0,0,25.067,0A2.965,2.965,0,0,1,51.9,43.862a16.631,16.631,0,0,1-26.485,9.2Zm.805-1.27h0a15.5,15.5,0,0,1,19,0l-.121.095v0a15.208,15.208,0,0,1-18.762,0l-.121-.095Zm-5.215-8.276h0a1.461,1.461,0,0,1,1.82-1.774,52.672,52.672,0,0,0,25.794,0,1.474,1.474,0,0,1,1.824,1.035,1.57,1.57,0,0,1,0,.74,15.112,15.112,0,0,1-4.086,7.265,16.98,16.98,0,0,0-21.268,0A15.112,15.112,0,0,1,21,43.515Zm38.048-1.441L79.917,61.017h0a1.429,1.429,0,0,1-.976,2.534H70.367a.748.748,0,0,0-.684,1.054L74.26,74.793a2,2,0,0,1-3.65,1.611L66.177,66.216a.746.746,0,0,0-1.238-.2l-5.762,6.351a1.529,1.529,0,0,1-2.681-.976V43.175a1.53,1.53,0,0,1,2.554-1.1Z" transform="translate(-5.013 -9.239)" fill-rule="evenodd"/>
</svg>
