<svg xmlns="http://www.w3.org/2000/svg" width="100%" height="100%" viewBox="0 0 61.977 60.666">
  <g id="noun-data-driven-6588816" transform="translate(-37 -41.63)">
    <path id="Path_44909" data-name="Path 44909" d="M50.291,61.267a7.314,7.314,0,1,1-7.312,7.312,7.314,7.314,0,0,1,7.312-7.312Zm5.555,8.163H50.291a.849.849,0,0,1-.846-.85V63.028a5.616,5.616,0,1,0,6.4,6.4Zm-4.7-6.4v4.7h4.7a5.627,5.627,0,0,0-4.7-4.7Zm12.947-3.008a.85.85,0,0,1,0-1.7H65.54V55.253a.848.848,0,1,1,1.7,0v3.065h3.3V51.335a.848.848,0,0,1,1.7,0v6.983h3.3v-9.24a.848.848,0,1,1,1.7,0v9.241h3.3V54.048a.848.848,0,0,1,1.7,0v4.272h1.5a.85.85,0,0,1,0,1.7H64.088ZM44.1,46.555H56.487a.847.847,0,0,1,.846.85v9.486a.846.846,0,0,1-.846.846H44.1a.846.846,0,0,1-.846-.846V47.406a.848.848,0,0,1,.846-.85Zm11.54,1.7H44.948V56.04H55.636V48.255ZM43.207,85.54a.85.85,0,0,1,0-1.7h15.5a.85.85,0,1,1,0,1.7Zm5.2,5.09a.85.85,0,1,1,0-1.7H59.448a.85.85,0,1,1,0,1.7ZM93.625,71.1a18.274,18.274,0,1,0,0,25.843,18.276,18.276,0,0,0,0-25.843ZM80.7,64.054a19.927,19.927,0,0,1,7.986,1.661V43.679a2.057,2.057,0,0,0-2.049-2.049H39.053A2.061,2.061,0,0,0,37,43.679v32.8a2.062,2.062,0,0,0,2.053,2.053H61.5A19.978,19.978,0,0,1,80.7,64.054Zm1.032,6.952H79.675a.244.244,0,0,0-.241.245h0v.8h0a1.937,1.937,0,0,1-1.44,1.873,10.265,10.265,0,0,0-2.519,1.043,1.935,1.935,0,0,1-2.342-.3l-.566-.566a.227.227,0,0,0-.168-.076v0a.234.234,0,0,0-.173.072l-1.456,1.452h0a.25.25,0,0,0,0,.345l.566.566h0a1.923,1.923,0,0,1,.3,2.342A10.292,10.292,0,0,0,70.6,81.314a1.937,1.937,0,0,1-1.873,1.44h-.8a.241.241,0,0,0-.241.241v2.057c0,.577,1.2-.144,2.221.642a1.941,1.941,0,0,1,.693,1.039,9.694,9.694,0,0,0,.437,1.292h0l.6,1.227a1.92,1.92,0,0,1-.3,2.339l-.566.57a.245.245,0,0,0,0,.341l1.456,1.456h0a.244.244,0,0,0,.177.068v0a.236.236,0,0,0,.168-.072l.566-.566h0a1.926,1.926,0,0,1,2.339-.3,10.444,10.444,0,0,0,2.519,1.039A1.937,1.937,0,0,1,79.434,96v.8a.241.241,0,0,0,.241.241h2.057c.573,0-.149-1.2.642-2.221a1.941,1.941,0,0,1,1.039-.693,10.321,10.321,0,0,0,2.514-1.039,1.928,1.928,0,0,1,2.342.3l.566.566a.25.25,0,0,0,.345,0L90.632,92.5a.229.229,0,0,0,.076-.173h0l-.068-.168-.57-.566,0,0a1.926,1.926,0,0,1-.308-2.339,10.973,10.973,0,0,0,.606-1.227h0a10.326,10.326,0,0,0,.437-1.292,1.937,1.937,0,0,1,1.873-1.44h.8a.245.245,0,0,0,.245-.241V83c0-.573-1.2.149-2.221-.642a1.917,1.917,0,0,1-.693-1.039A10.4,10.4,0,0,0,89.764,78.8a1.934,1.934,0,0,1,.3-2.342l.566-.566a.243.243,0,0,0,0-.345L89.182,74.1a.246.246,0,0,0-.345,0l-.566.566v0a1.93,1.93,0,0,1-2.342.308,10.236,10.236,0,0,0-2.514-1.043,1.937,1.937,0,0,1-1.44-1.873v-.8a.246.246,0,0,0-.242-.246Zm-2.057-1.7h2.057a1.942,1.942,0,0,1,1.937,1.941c0,.505-.092.958.181,1.034A12.245,12.245,0,0,1,86.778,73.5a.231.231,0,0,0,.3-.037l0,0c.586-.586,1.006-1.131,1.937-1.131a1.93,1.93,0,0,1,1.371.566l1.456,1.456a1.946,1.946,0,0,1,0,2.744c-.153.153-.625.57-.642.7a.249.249,0,0,0,.037.157,12.145,12.145,0,0,1,1.211,2.928.23.23,0,0,0,.236.181c.842,0,1.513-.092,2.171.566a1.935,1.935,0,0,1,.57,1.371v2.057a1.943,1.943,0,0,1-1.941,1.941,3.234,3.234,0,0,0-.951.048.232.232,0,0,0-.085.133l-.509,1.5h0a11.756,11.756,0,0,1-.7,1.423.231.231,0,0,0,.037.3l0,0c.586.586,1.131,1.006,1.131,1.937h0a1.928,1.928,0,0,1-.562,1.375l-1.456,1.452a1.939,1.939,0,0,1-2.744,0l-.59-.59a.228.228,0,0,0-.269-.016,12.282,12.282,0,0,1-2.928,1.215.222.222,0,0,0-.177.232c0,.842.088,1.517-.57,2.173a1.943,1.943,0,0,1-1.371.566H79.675A1.942,1.942,0,0,1,77.734,96.8c0-.509.1-.962-.181-1.034a12.3,12.3,0,0,1-2.923-1.215.233.233,0,0,0-.3.04h0c-.6.6-1.006,1.131-1.937,1.131v0a1.939,1.939,0,0,1-1.371-.57h0L69.572,93.7a1.939,1.939,0,0,1,.048-2.787l.518-.522a.231.231,0,0,0,.04-.3,11.98,11.98,0,0,1-.7-1.423h0a11.855,11.855,0,0,1-.514-1.5.226.226,0,0,0-.232-.181c-.842,0-1.513.088-2.171-.57a1.935,1.935,0,0,1-.57-1.371V82.992a1.941,1.941,0,0,1,1.937-1.937c.509,0,.962.092,1.034-.181a12.186,12.186,0,0,1,1.215-2.928.227.227,0,0,0-.04-.293h0c-.6-.6-1.135-1.006-1.135-1.937a1.939,1.939,0,0,1,.57-1.371h0l1.452-1.456a1.953,1.953,0,0,1,1.375-.566v0c1.472,0,1.773,1.432,2.23,1.167a12.287,12.287,0,0,1,2.923-1.211.23.23,0,0,0,.181-.236h0v-.8h0a1.942,1.942,0,0,1,1.941-1.94Zm5.033,10.708a5.664,5.664,0,1,0,0,8.01,5.667,5.667,0,0,0,0-8.01ZM80.7,76.66a7.362,7.362,0,1,1-7.361,7.363A7.364,7.364,0,0,1,80.7,76.66Z" transform="translate(0 0)"/>
  </g>
</svg>
