<svg xmlns="http://www.w3.org/2000/svg" width="100%" height="100%" viewBox="0 0 61.058 62.667">
  <g id="noun-insights-6388826" transform="translate(-41.7 -36.005)">
    <path id="Path_44896" data-name="Path 44896" d="M56.658,44.082H73.967c.385,0,.8-.242.8-.613V41.147c0-.37-.413-.613-.8-.613H69.38a.708.708,0,0,1-.67-.954l.085-.641c0-2.621-3.8-3.932-5.983-2.037a2.664,2.664,0,0,0-.883,2.735.717.717,0,0,1-.684.912H56.658c-.385,0-.8.242-.8.613v2.322c-.014.356.4.6.8.6Zm9.929-3.861a1.8,1.8,0,1,1,0-2.536,1.806,1.806,0,0,1,0,2.536Zm-1.282-.9a.378.378,0,0,0,0-.755.378.378,0,0,0,0,.755ZM86.56,57.245a13,13,0,0,1,2.365-.385V46.475A2.745,2.745,0,0,0,86.19,43.74H76.175a2.177,2.177,0,0,1-2.208,1.766H56.658A2.177,2.177,0,0,1,54.45,43.74H44.435A2.736,2.736,0,0,0,41.7,46.475V95.937a2.745,2.745,0,0,0,2.735,2.735H86.19a2.745,2.745,0,0,0,2.735-2.735v-10.8a14.124,14.124,0,0,1-2.365-.385v7.322a3.648,3.648,0,0,1-3.633,3.633H47.683a3.648,3.648,0,0,1-3.633-3.633V50.336A3.648,3.648,0,0,1,47.683,46.7H82.928a3.648,3.648,0,0,1,3.633,3.633Zm3.448,1.011a12.75,12.75,0,1,0,12.75,12.75,12.755,12.755,0,0,0-12.75-12.75Zm3.918,15.5A7.463,7.463,0,0,0,96.5,71.007a7.355,7.355,0,0,0-12.964,0,7.354,7.354,0,0,0,10.385,2.749Zm4.017-2.45a8.778,8.778,0,0,1-15.841,0,.742.742,0,0,1,0-.627,8.786,8.786,0,0,1,12.593-3.633,8.931,8.931,0,0,1,3.248,3.647.71.71,0,0,1,0,.613Zm-6.767-1.467a1.652,1.652,0,1,0,0,2.336,1.654,1.654,0,0,0,0-2.336ZM90.008,67.93a3.071,3.071,0,1,1-3.063,3.063,3.076,3.076,0,0,1,3.063-3.063ZM55.348,54.966a2.744,2.744,0,1,0,0,3.875,2.748,2.748,0,0,0,0-3.875Zm0,14.1a2.744,2.744,0,1,0,0,3.875,2.748,2.748,0,0,0,0-3.875Zm0,14.688a2.744,2.744,0,1,0,0,3.875,2.748,2.748,0,0,0,0-3.875ZM53.4,81.52a4.165,4.165,0,0,1,3.946,2.835H76l3.732-3.561a14.124,14.124,0,0,1-3.918-9.374l-18.263-.014a4.129,4.129,0,1,1-.085-1.368A1.08,1.08,0,0,1,57.7,70H75.89a14.2,14.2,0,0,1,3.861-8.761L75.99,57.658H57.5a4.154,4.154,0,1,1,.014-1.41H76.261a.7.7,0,0,1,.484.2l4.017,3.832a14.133,14.133,0,0,1,4.359-2.564V50.364a2.195,2.195,0,0,0-2.194-2.194H47.683a2.195,2.195,0,0,0-2.194,2.194V92.119a2.2,2.2,0,0,0,2.194,2.194H82.928a2.195,2.195,0,0,0,2.194-2.194V84.355a13.864,13.864,0,0,1-4.345-2.55l-3.989,3.789a.73.73,0,0,1-.484.2H57.57A4.169,4.169,0,1,1,53.4,81.52Z"/>
  </g>
</svg>
