<svg xmlns="http://www.w3.org/2000/svg" width="100%" height="100%" viewBox="0 0 83.439 82">
  <g id="Group_47259" data-name="Group 47259" transform="translate(-3.5 -3.5)">
    <g id="Solid" transform="translate(3.5 3.5)">
      <circle id="Ellipse_11228" data-name="Ellipse 11228" cx="3.596" cy="3.596" r="3.596" transform="translate(37.404)"/>
      <circle id="Ellipse_11229" data-name="Ellipse 11229" cx="2.158" cy="2.158" r="2.158" transform="translate(12.947 12.947)"/>
      <rect id="Rectangle_26160" data-name="Rectangle 26160" width="24.456" height="7.006" transform="translate(37.404 74.994)"/>
      <path id="Path_44903" data-name="Path 44903" d="M24.005,46.342a2.789,2.789,0,0,0-.279.334,2.135,2.135,0,0,0,.288,2.7L36.3,61.665a.719.719,0,0,1,.21.508v3.87H52.335V62.417a.719.719,0,0,1,.121-.4l2.749-4.135V42.277a2.158,2.158,0,0,0-4.316,0v4.2a.719.719,0,1,1-1.439,0V39.4a2.158,2.158,0,0,0-4.316,0v7.193a.719.719,0,1,1-1.439,0V37.961a2.158,2.158,0,1,0-4.316,0v8.632a.719.719,0,0,1-1.439,0V30.768a2.158,2.158,0,1,0-4.316,0V51.153a.719.719,0,0,1-1.229.509l-5.336-5.323a2.172,2.172,0,0,0-3.057,0Z" transform="translate(5.216 7.513)"/>
      <path id="Path_44904" data-name="Path 44904" d="M40.606,36.606a3.913,3.913,0,0,1,2.366.886,9.256,9.256,0,0,0,1.23-4.641,9.351,9.351,0,1,0-12.947,8.632V33.009a3.6,3.6,0,0,1,7.193,0v4.316A3.581,3.581,0,0,1,40.606,36.606Z" transform="translate(6.149 5.272)"/>
      <circle id="Ellipse_11230" data-name="Ellipse 11230" cx="2.158" cy="2.158" r="2.158" transform="translate(64.737 12.947)"/>
      <circle id="Ellipse_11231" data-name="Ellipse 11231" cx="3.596" cy="3.596" r="3.596" transform="translate(0 35.965)"/>
      <circle id="Ellipse_11232" data-name="Ellipse 11232" cx="3.596" cy="3.596" r="3.596" transform="translate(76.246 35.965)"/>
      <path id="Path_44905" data-name="Path 44905" d="M64.412,39.675a.719.719,0,0,0-.719-.719H58.537a19.884,19.884,0,0,0,.121-2.158,19.289,19.289,0,0,0-3.9-11.625l2.253-2.251A.72.72,0,0,0,55.991,21.9l-2.142,2.144a19.356,19.356,0,0,0-13.893-6.633V15.219a.719.719,0,0,0-1.439,0v2.194a19.356,19.356,0,0,0-13.893,6.633L22.483,21.9a.72.72,0,0,0-1.019,1.019l2.253,2.251a19.289,19.289,0,0,0-3.9,11.625,19.526,19.526,0,0,0,.121,2.158H16.219a.719.719,0,0,0,0,1.439h3.95a19.187,19.187,0,0,0,6.338,11.051,3.637,3.637,0,0,1,5.024.065l4.109,4.094V46.942a10.807,10.807,0,1,1,12.612-4.264c.033.075.079.144.108.222a3.6,3.6,0,0,1,5.982,2.689,3.835,3.835,0,0,1,2.552-.7,19.2,19.2,0,0,0,1.41-4.5h5.389A.719.719,0,0,0,64.412,39.675Z" transform="translate(1.763 1.325)"/>
      <circle id="Ellipse_11233" data-name="Ellipse 11233" cx="0.719" cy="0.719" r="0.719" transform="translate(12.947 40.281)"/>
      <circle id="Ellipse_11234" data-name="Ellipse 11234" cx="0.719" cy="0.719" r="0.719" transform="translate(20.14 20.14)"/>
      <circle id="Ellipse_11235" data-name="Ellipse 11235" cx="0.719" cy="0.719" r="0.719" transform="translate(40.281 11.509)"/>
      <circle id="Ellipse_11236" data-name="Ellipse 11236" cx="0.719" cy="0.719" r="0.719" transform="translate(60.421 20.14)"/>
      <circle id="Ellipse_11237" data-name="Ellipse 11237" cx="0.719" cy="0.719" r="0.719" transform="translate(69.053 40.281)"/>
    </g>
  </g>
</svg>
