<svg xmlns="http://www.w3.org/2000/svg" width="100%" height="100%" viewBox="0 0 65.278 67.462">
  <g id="noun-online-community-7243252" transform="translate(-6.207 -4.731)">
    <path id="Path_44902" data-name="Path 44902" d="M62.281,67.5c-1.3,0-5.785-.32-7.974-1.491-1.17-.6-1.229-.917-1.229-2.064h0a9.2,9.2,0,1,1,18.41,0c0,1.147-.067,1.491-1.237,2.064-2.192,1.141-6.664,1.491-7.968,1.491ZM43.066,35.752a10.753,10.753,0,0,1,3.727,2.661c-.582.23-1.185.44-1.805.617a11.065,11.065,0,0,0-1.936-3.278Zm4.658,3.808a10.743,10.743,0,0,1,1.892,5.433H46.181a19.208,19.208,0,0,0-.745-4.629,22.475,22.475,0,0,0,2.236-.8ZM49.617,46.4a10.762,10.762,0,0,1-1.892,5.433,21.752,21.752,0,0,0-2.236-.8,19.209,19.209,0,0,0,.745-4.629Zm-2.81,6.58a10.857,10.857,0,0,1-3.727,2.661,11.076,11.076,0,0,0,1.939-3.278c.617.178,1.223.387,1.805.617ZM39.531,35.094V39.88h0a22.514,22.514,0,0,0,4.091-.507c-.955-2.318-2.414-3.922-4.091-4.277Zm4.533,5.613a17.241,17.241,0,0,1,.67,4.271H39.517V41.309a23.489,23.489,0,0,0,4.548-.6Zm.67,5.68a17.283,17.283,0,0,1-.67,4.271,23.591,23.591,0,0,0-4.562-.591V46.4Zm-1.141,5.6h0a22.012,22.012,0,0,0-4.094-.507v4.8c1.677-.358,3.139-1.959,4.091-4.277ZM38.1,56.283c-1.677-.358-3.139-1.959-4.091-4.277A21.981,21.981,0,0,1,38.1,51.5ZM33.54,50.67v0a17.262,17.262,0,0,1-.67-4.271h5.217v3.68a23.849,23.849,0,0,0-4.562.591Zm-.655-5.677a17.241,17.241,0,0,1,.67-4.271,23.645,23.645,0,0,0,4.562.588v3.683Zm1.141-5.6c.961-2.318,2.422-3.9,4.076-4.28v4.786a22.229,22.229,0,0,1-4.091-.507Zm.565,16.226a11.068,11.068,0,0,1-1.936-3.278c-.617.178-1.223.387-1.805.617a10.857,10.857,0,0,0,3.727,2.661ZM29.9,51.835A10.762,10.762,0,0,1,28.011,46.4h3.436a18.927,18.927,0,0,0,.745,4.629,21.763,21.763,0,0,0-2.236.8ZM28.04,44.993A10.754,10.754,0,0,1,29.9,39.56a22.46,22.46,0,0,0,2.236.8,18.927,18.927,0,0,0-.745,4.629Zm2.81-6.58c.582.23,1.185.44,1.805.617a11.065,11.065,0,0,1,1.936-3.278,10.753,10.753,0,0,0-3.727,2.661ZM15.413,44.748a4.538,4.538,0,1,1-4.53,4.53A4.536,4.536,0,0,1,15.413,44.748Zm0,22.747c-1.3,0-5.776-.32-7.968-1.491-1.17-.6-1.237-.917-1.237-2.064h0a9.2,9.2,0,1,1,18.41,0c0,1.147-.058,1.491-1.229,2.064C21.2,67.146,16.683,67.5,15.417,67.5ZM62.281,44.748A4.523,4.523,0,1,1,59.07,46.07a4.538,4.538,0,0,1,3.211-1.322ZM38.848,4.731a4.539,4.539,0,1,1-4.53,4.53,4.536,4.536,0,0,1,4.53-4.53Zm0,22.747c-1.3,0-5.776-.32-7.968-1.491-1.17-.6-1.237-.917-1.237-2.064a9.212,9.212,0,0,1,18.417,0c0,1.147-.067,1.491-1.237,2.064-2.192,1.141-6.708,1.491-7.974,1.491Zm12.56-3.526a.716.716,0,1,1,.745-1.223A26.581,26.581,0,0,1,64.9,40.5a.706.706,0,0,1-.082.562.716.716,0,0,1-.466.32.706.706,0,0,1-.838-.614A25.149,25.149,0,0,0,51.384,23.952Zm-.917,43.974a.7.7,0,0,1,.655,1.246,26.551,26.551,0,0,1-24.6,0,.7.7,0,0,1,.655-1.246,25.157,25.157,0,0,0,23.277,0ZM14.208,40.766a.709.709,0,0,1-1.389-.268A26.583,26.583,0,0,1,25.566,22.73a.744.744,0,0,1,.961.262.7.7,0,0,1,.076.533.7.7,0,0,1-.329.428A25.147,25.147,0,0,0,14.208,40.767Z" fill-rule="evenodd"/>
  </g>
</svg>
