<svg xmlns="http://www.w3.org/2000/svg" width="100%" height="100%" viewBox="0 0 64.318 64">
  <g id="noun-social-media-7351270" transform="translate(-20.038 -20.012)">
    <path id="Path_44897" data-name="Path 44897" d="M58.539,20.745a5.906,5.906,0,0,0-7.722,1.838,5.912,5.912,0,0,0-7.726-1.838,7.217,7.217,0,0,0-2.75,9.068c2.134,4.909,6.551,8.364,10.219,10.881a.454.454,0,0,0,.258,0,.525.525,0,0,0,.254,0A27.292,27.292,0,0,0,61.357,29.813a7.253,7.253,0,0,0-2.817-9.068Z" transform="translate(1.315)"/>
    <path id="Path_44898" data-name="Path 44898" d="M73.059,44.562A7.918,7.918,0,0,0,65.1,52.5a7.8,7.8,0,0,0,1.684,4.843L65.1,60.011a.385.385,0,0,0,0,.238h7.956a7.875,7.875,0,1,0,0-15.728Zm-3.672,8.96,0,0a1.114,1.114,0,0,1-1.417-1.067,1.109,1.109,0,0,1,1.417-1.067,1.108,1.108,0,0,1,.971,1.95,1.1,1.1,0,0,1-.971.183Zm3.651,0v0a1.112,1.112,0,0,1-1.413-1.067,1.728,1.728,0,0,1,2.388-.888,1.109,1.109,0,0,1,0,1.771,1.1,1.1,0,0,1-.975.183Zm3.651,0v0a1.114,1.114,0,0,1-1.417-1.067,1.109,1.109,0,0,1,1.417-1.067,1.108,1.108,0,0,1,.971,1.95,1.1,1.1,0,0,1-.971.183Z" transform="translate(3.012 1.638)"/>
    <path id="Path_44899" data-name="Path 44899" d="M35.938,45.3H31.049a.471.471,0,0,0-.446.429q-3.2-1.407-3.776-6.68h0a.442.442,0,0,0-.4-.4,3.28,3.28,0,0,0-2.771,1.025,2.356,2.356,0,0,0-.621,2.134,24.179,24.179,0,0,0,.9,3.455H21.789A1.753,1.753,0,0,0,20.08,47.39L21.7,53.449h0a1.762,1.762,0,0,0,1.7,1.3h4.909a2.637,2.637,0,0,0,1.217-.3L30.6,53.9v.4a.446.446,0,0,0,.446.446h4.888a.441.441,0,0,0,.446-.446V45.748a.444.444,0,0,0-.129-.317.455.455,0,0,0-.317-.133Zm-5.272,7.6-1.471.767a1.955,1.955,0,0,1-.813.192H23.389a.874.874,0,0,1-.833-.638l-1.621-6.059a.875.875,0,0,1,.167-.733.864.864,0,0,1,.667-.333h2.838a.457.457,0,0,0,.367-.2.449.449,0,0,0,.038-.417A20.417,20.417,0,0,1,23.9,41.609a1.68,1.68,0,0,1,.4-1.434,2.588,2.588,0,0,1,1.667-.746c.492,3.863,2.134,6.251,4.63,7.189Z" transform="translate(0 1.244)"/>
    <path id="Path_44900" data-name="Path 44900" d="M42.141,54.925a8.535,8.535,0,1,0,8.535-8.406,8.526,8.526,0,0,0-8.535,8.406Z" transform="translate(1.478 1.773)"/>
    <path id="Path_44901" data-name="Path 44901" d="M61,63.172a27.1,27.1,0,0,1-2.392-1.534,1,1,0,0,0-1.3,0,9.457,9.457,0,0,1-6.23,2.325,9.6,9.6,0,0,1-6.3-2.346.979.979,0,0,0-1.3,0,27.493,27.493,0,0,1-2.413,1.6c-2.475,1.492-5.293,3.2-5.226,6.764v5.951a.978.978,0,0,0,.45.833,25.915,25.915,0,0,0,6.739,3.242v-6.1a.769.769,0,1,1,1.538,0v6.551a27.191,27.191,0,0,0,12.994,0V73.907a.769.769,0,1,1,1.538,0v6.1a26.4,26.4,0,0,0,6.785-3.221,1.057,1.057,0,0,0,.45-.854V69.982c.021-3.672-2.817-5.314-5.334-6.81Z" transform="translate(1.057 2.766)"/>
  </g>
</svg>
