<svg id="Raven_logo-black" xmlns="http://www.w3.org/2000/svg" xmlns:xlink="http://www.w3.org/1999/xlink" width="100%" height="100%" viewBox="0 0 254.298 86.626">
  <defs>
    <clipPath id="clip-path">
      <rect id="Rectangle_2254" data-name="Rectangle 2254" width="254.298" height="86.626" fill="none"/>
    </clipPath>
  </defs>
  <g id="Group_3790" data-name="Group 3790" clip-path="url(#clip-path)">
    <path id="Path_13072" data-name="Path 13072" d="M98.714,35.45s-18.121,9.661-30.2,16.706c-9.244,5.394-24.321,15.2-24.321,15.2s-7.54,4.066-17.4-1.74S12.3,53.439,10.552,52.28a9.516,9.516,0,0,0-5.335-1.213A.562.562,0,0,0,5,51c-.465-.03-.928-.035-1.393-.046H3.592c-.424,0-.842-.018-1.264-.046-.209-.012-.424-.03-.638-.03a.9.9,0,0,1,.046-.1c.046-.069.092-.145.14-.214a14.109,14.109,0,0,1,2.883-3.182c1.862-1.513,4.006-4.066,6.364-4.268,4.243-.354,8.116,4.117,11.537,6.211,3.143,1.92,5.657,3.856,9.6,3.856a26.939,26.939,0,0,0,11.074-2.014c1.257-.628,4.786-2.385,6.041-3.02,9.8-4.961,9.181-4.879,12.08-6.041a37.719,37.719,0,0,1,4.027-2.014l33.128-4.671a.311.311,0,0,1,.092.046" transform="translate(0.011 0.242)"/>
    <path id="Path_13073" data-name="Path 13073" d="M3.506,50.886a10.241,10.241,0,0,1,2.2-.279c.078-.423.143-.845.219-1.269-.019-.126-.039-.253-.062-.373A5.818,5.818,0,0,0,5.594,47.9a1.144,1.144,0,0,0-.472-.546,2.3,2.3,0,0,0-.219-.11c-.4.127-.8.265-1.2.4a.492.492,0,0,0-.023.115.272.272,0,0,1-.161.256c-.048.023-.088.058-.134.083-.207.11-.414.212-.621.32a4.241,4.241,0,0,0-.415.237c-.3.205-.582.44-.873.658a.731.731,0,0,0-.06.05c-.219.193-.444.38-.656.578a5.947,5.947,0,0,0-.58.6.447.447,0,0,0-.134.338A.341.341,0,0,1,0,51a.094.094,0,0,0,0,.076.071.071,0,0,0,.088.023,1.175,1.175,0,0,0,.117-.074A.647.647,0,0,1,.5,50.92,2.731,2.731,0,0,1,.9,50.9a3.312,3.312,0,0,0,.375-.011c.106,0,.212-.012.318-.011s.251,0,.377,0H2.5a.827.827,0,0,0,.157,0,1.08,1.08,0,0,1,.316,0,1.722,1.722,0,0,0,.338,0,1.357,1.357,0,0,1,.177,0" transform="translate(-0.003 0.317)"/>
    <path id="Path_13074" data-name="Path 13074" d="M58.078,17.132l.06,22.837L47.639,45.7V17.132Z" transform="translate(0.32 0.115)" fill="#f1ad0f"/>
    <path id="Path_13075" data-name="Path 13075" d="M75.136,36.065,65.07,37.071,64.923,0H75.364Z" transform="translate(0.435)" fill="#f1ad0f"/>
    <path id="Path_13076" data-name="Path 13076" d="M30.354,30.011,40.8,29.254l.354,19.7s-3.02,2.014-10.066,1.006Z" transform="translate(0.204 0.195)" fill="#f1ad0f"/>
    <g id="Group_3968" data-name="Group 3968" transform="translate(112.746 34.748)">
      <path id="Path_13077" data-name="Path 13077" d="M13.015,87.793v9.449H10.142V74.422h6.113a26.3,26.3,0,0,1,2.632.11,13,13,0,0,1,1.982.354,7.071,7.071,0,0,1,3.766,2.21,5.869,5.869,0,0,1,1.3,3.889,6.313,6.313,0,0,1-.46,2.475,5.6,5.6,0,0,1-1.287,1.893,6.764,6.764,0,0,1-1.982,1.314,10.7,10.7,0,0,1-2.565.75v.069l6.981,9.757H23.753l-7.264-9.448Zm0-10.865v8.357h2.837q1.324,0,2.258-.085a8.485,8.485,0,0,0,1.676-.308,4.6,4.6,0,0,0,2.309-1.414,3.831,3.831,0,0,0,.813-2.542,3.6,3.6,0,0,0-.778-2.362,4.206,4.206,0,0,0-2.1-1.289,8.308,8.308,0,0,0-1.515-.272q-.884-.085-2.24-.085Z" transform="translate(-10.142 -74.421)"/>
      <path id="Path_13078" data-name="Path 13078" d="M22.883,97.242l9.608-22.821h2.487l9.608,22.821h-3.12l-2.82-6.873H28.786l-2.818,6.873Zm10.826-19.27q-1.579,4.261-3.014,7.743l-.884,2.15h7.819l-.9-2.144q-1.446-3.559-2.954-7.752Z" transform="translate(2.122 -74.421)"/>
      <path id="Path_13079" data-name="Path 13079" d="M46.937,93.7q1.278-3.736,2.754-7.538l4.528-11.735h2.873L48.148,97.243h-2.51L36.694,74.422h2.873l4.528,11.735q1.49,3.8,2.772,7.538Z" transform="translate(15.418 -74.42)"/>
      <path id="Path_13080" data-name="Path 13080" d="M54.968,94.735h12.1v2.507H52.1V74.422h14.32v2.507H54.968V84.3H65.14V86.8H54.968Z" transform="translate(30.242 -74.42)"/>
      <path id="Path_13081" data-name="Path 13081" d="M77.419,87.146q2.169,3.018,4.284,6.207h.106q-.23-3.327-.23-6.787V74.421h2.89V97.244H81.6L72.341,84.516q-2.4-3.327-4.284-6.207h-.106q.23,3.12.23,7.282v11.65H65.3V74.423h2.857Z" transform="translate(42.954 -74.421)"/>
    </g>
    <path id="Path_13082" data-name="Path 13082" d="M63.423,60.212c7.248-4.43,19.155-11.691,22.436-13.678L65.27,60.91Z" transform="translate(0.425 0.311)" fill="#f1ad0f"/>
    <path id="Path_13083" data-name="Path 13083" d="M72.359,55.368l-7.151,4.994-.636-.24,7.787-4.752M88.692,44.586a8.1,8.1,0,0,0-2.213,1c-.456.248-24.188,14.737-24.188,14.737l3.058,1.158L86.985,46.379s2.273-1.791,1.708-1.791" transform="translate(0.417 0.295)" fill="#f1ad0f"/>
  </g>
</svg>
