<svg xmlns="http://www.w3.org/2000/svg" xmlns:xlink="http://www.w3.org/1999/xlink" width="100%" height="100%" viewBox="0 0 229.652 223.891">
  <defs>
    <filter id="Path_16564" x="0" y="0" width="229.652" height="223.891" filterUnits="userSpaceOnUse">
      <feOffset input="SourceAlpha"/>
      <feGaussianBlur stdDeviation="7.5" result="blur"/>
      <feFlood flood-opacity="0.173"/>
      <feComposite operator="in" in2="blur"/>
      <feComposite in="SourceGraphic"/>
    </filter>
  </defs>
  <g id="Group_10034" data-name="Group 10034" transform="translate(-213.609 -612.13)">
    <g id="bg" transform="translate(87 535.314)">
      <g class="hover-effect-slm" id="Path_16565" data-name="Path 16565" transform="translate(147 106)" fill="#fff">
        <path d="M 81.46550750732422 160.3434448242188 C 75.97178649902344 160.3434448242188 70.48164367675781 159.7900085449219 65.14761352539062 158.6985015869141 C 59.94939422607422 157.6348114013672 54.83625411987305 156.0475921630859 49.95022583007812 153.9809722900391 C 45.15280914306641 151.9518432617188 40.5256462097168 149.4402770996094 36.19728469848633 146.51611328125 C 31.9098949432373 143.6196136474609 27.87822723388672 140.2931671142578 24.21425628662109 136.6291961669922 C 20.55028343200684 132.9652252197266 17.22383880615234 128.9335632324219 14.32733917236328 124.6461715698242 C 11.40317249298096 120.3178100585938 8.891616821289062 115.6906433105469 6.862477779388428 110.8932266235352 C 4.7958664894104 106.007194519043 3.208644390106201 100.8940582275391 2.144949913024902 95.69583892822266 C 1.053449869155884 90.36180877685547 0.5000054836273193 84.87167358398438 0.5000054836273193 79.37794494628906 C 0.5000054836273193 70.77181243896484 2.896144390106201 60.26764297485352 7.429421901702881 49.0010871887207 C 11.99281120300293 37.65964126586914 18.41247749328613 26.32641983032227 25.99442291259766 16.22664260864258 C 29.96061706542969 10.94333648681641 34.19197845458984 6.075253009796143 38.5709228515625 1.757642030715942 C 43.17817306518555 -2.785080194473267 47.95328140258789 -6.720691204071045 52.76358795166016 -9.939886093139648 C 57.85336685180664 -13.34610748291016 63.02364349365234 -15.97585773468018 68.13083648681641 -17.75613594055176 C 73.54556274414062 -19.64360809326172 78.96444702148438 -20.60063552856445 84.23694610595703 -20.60063552856445 C 97.17305755615234 -20.60063552856445 109.4142837524414 -14.91855239868164 120.6205596923828 -3.712274551391602 C 133.2728118896484 8.939948081970215 142.8871765136719 19.59694671630859 150.0130920410156 28.86764144897461 C 153.5545654296875 33.47503280639648 156.4944458007812 37.74016952514648 159.000732421875 41.90678024291992 C 161.4244995117188 45.93622589111328 163.3816680908203 49.77311325073242 164.9840545654297 53.63672637939453 C 171.2305908203125 68.69794464111328 171.1002044677734 82.10341644287109 170.9197235107422 100.6573104858398 C 170.887451171875 103.9749221801758 170.8540954589844 107.4054718017578 170.8540954589844 111.0617828369141 C 170.8540954589844 131.2891693115234 161.7737579345703 144.79833984375 143.0942230224609 152.3612213134766 C 135.3517761230469 155.4959411621094 125.9780349731445 157.6331634521484 114.4373092651367 158.8950653076172 C 105.3998641967773 159.8831939697266 94.92283630371094 160.3434448242188 81.46550750732422 160.3434448242188 Z" stroke="none"/>
        <path d="M 84.23694610595703 -20.10063934326172 C 79.02061462402344 -20.10063934326172 73.65711975097656 -19.15299987792969 68.29542541503906 -17.28399658203125 C 63.22828674316406 -15.51771545410156 58.09619903564453 -12.90699768066406 53.04167175292969 -9.524360656738281 C 48.2574462890625 -6.322608947753906 43.50689697265625 -2.407028198242188 38.92198181152344 2.113670349121094 C 34.56059265136719 6.413948059082031 30.34567260742188 11.26325225830078 26.394287109375 16.52684020996094 C 18.83816528320312 26.59222412109375 12.44061279296875 37.88616943359375 7.893280029296875 49.18772506713867 C 5.674026489257812 54.70328140258789 3.955978393554688 60.08008575439453 2.786865234375 65.16883850097656 C 1.6011962890625 70.32966613769531 1 75.11030578613281 1 79.37794494628906 C 1 84.83808898925781 1.550033569335938 90.29450225830078 2.634780883789062 95.59561157226562 C 3.69189453125 100.7615051269531 5.26922607421875 105.8428115844727 7.322982788085938 110.6984481811523 C 9.33953857421875 115.4661407470703 11.83554077148438 120.0646667480469 14.74166870117188 124.3662796020508 C 17.62034606933594 128.6272888183594 20.92634582519531 132.6341705322266 24.56781005859375 136.275634765625 C 28.20928955078125 139.9171142578125 32.21617126464844 143.2231140136719 36.4771728515625 146.1017761230469 C 40.77877807617188 149.0079193115234 45.37730407714844 151.5039215087891 50.14500427246094 153.5204772949219 C 55.00064086914062 155.57421875 60.08194732666016 157.1515502929688 65.24784088134766 158.2086791992188 C 70.5489501953125 159.2934265136719 76.00536346435547 159.8434448242188 81.46550750732422 159.8434448242188 C 94.90422821044922 159.8434448242188 105.3640060424805 159.3841400146484 114.3829803466797 158.3980102539062 C 125.8772583007812 157.1412200927734 135.2074279785156 155.0149841308594 142.9065856933594 151.8977508544922 C 147.161865234375 150.1748962402344 150.9579772949219 148.1148986816406 154.189453125 145.7749938964844 C 157.6052551269531 143.3016357421875 160.5111389160156 140.4281463623047 162.8263702392578 137.2343139648438 C 165.264892578125 133.8704223632812 167.1328430175781 130.0348968505859 168.3783111572266 125.8342514038086 C 169.6893310546875 121.4125289916992 170.3540954589844 116.4423675537109 170.3540954589844 111.0617828369141 C 170.3540954589844 107.4030303955078 170.3874816894531 103.9712524414062 170.4197540283203 100.6524505615234 C 170.5996398925781 82.1578369140625 170.7296142578125 68.79519653320312 164.5222320556641 53.82828140258789 C 162.9294281005859 49.9877815246582 160.9831695556641 46.17253112792969 158.5722503662109 42.16450500488281 C 156.0758666992188 38.01433563232422 153.1464538574219 33.76455688476562 149.6166381835938 29.17233276367188 C 142.5041198730469 19.91902923583984 132.9037475585938 9.278030395507812 120.2670059204102 -3.358718872070312 C 109.1578979492188 -14.46782684326172 97.03561401367188 -20.10063934326172 84.23694610595703 -20.10063934326172 M 84.2369384765625 -21.10062408447266 C 96.44292449951172 -21.10062408447266 108.9408493041992 -16.09909820556641 120.97412109375 -4.065826416015625 C 176.4476776123047 51.4077262878418 171.3540954589844 66.06961059570312 171.3540954589844 111.0617828369141 C 171.3540954589844 156.053955078125 126.4576721191406 160.8434448242188 81.46550750732422 160.8434448242188 C 36.47337341308594 160.8434448242188 0 124.3700866699219 0 79.37794494628906 C 0 44.14543533325195 40.17314147949219 -21.10062408447266 84.2369384765625 -21.10062408447266 Z" stroke="none" fill="#efefef"/>
      </g>
      <g transform="matrix(1, 0, 0, 1, 126.61, 76.82)" filter="url(#Path_16564)">
        <path id="Path_16564-2" data-name="Path 16564" d="M92.623,5.291c31.657,0,52.156,17.307,68.756,48.136,10.476,19.454,31.305,46.53,30.489,72.753-2.081,66.893-99.225,61.031-130.147,53.774S-6.174,130.291,12.1,85.649,40.555,5.291,92.623,5.291Z" transform="translate(15.26 17.21)" fill="#fff"/>
      </g>
    </g>
    <g id="noun-data-quality-5687108" transform="translate(280.704 681.354)">
      <path id="Path_13710" data-name="Path 13710" d="M15.29,29.583a.948.948,0,0,1,1.245-.5l.961.411a.948.948,0,1,1-.747,1.743l-.961-.411A.948.948,0,0,1,15.29,29.583Zm.5,16.747.961.411A.948.948,0,0,0,17.5,45l-.961-.411a.948.948,0,1,0-.747,1.743ZM17.5,60.5l-.961-.411a.949.949,0,1,0-.747,1.744l.961.411a.939.939,0,0,0,.373.076A.949.949,0,0,0,17.5,60.5ZM85,52.778a7.013,7.013,0,0,1-1.416,3.638,7.913,7.913,0,0,0-.993,1.919,7.654,7.654,0,0,0-.112,2.187,6.533,6.533,0,0,1-.558,3.644,6.533,6.533,0,0,1-2.9,2.26,7.293,7.293,0,0,0-1.8,1.13,3.99,3.99,0,0,0-.57.762L82.386,82.43a.948.948,0,0,1-1.346,1.182L74.493,79.9,72.4,87.132a.949.949,0,0,1-.861.684h-.051a.948.948,0,0,1-.878-.591L65.375,74.354a5.825,5.825,0,0,1-2.944.989,5.825,5.825,0,0,1-2.944-.989L54.244,87.223a.948.948,0,0,1-.878.591h-.051a.949.949,0,0,1-.861-.684L50.366,79.9l-6.543,3.715a.948.948,0,0,1-1.346-1.182l4.3-10.564a67.563,67.563,0,0,1-11.015.881A56.577,56.577,0,0,1,16.724,69.8C11.329,67.791,8.358,65,8.358,61.94V15.81c0-3.059,2.971-5.851,8.366-7.862A56.442,56.442,0,0,1,35.759,5,56.571,56.571,0,0,1,54.8,7.944c5.395,2.011,8.366,4.8,8.366,7.862V30.281a8.568,8.568,0,0,1,2.9,1.346,7.922,7.922,0,0,0,1.919.994,7.687,7.687,0,0,0,2.187.112,6.524,6.524,0,0,1,3.647.559,6.541,6.541,0,0,1,2.26,2.9A7.317,7.317,0,0,0,77.21,38a7.264,7.264,0,0,0,1.8,1.13,6.533,6.533,0,0,1,2.9,2.26,6.533,6.533,0,0,1,.56,3.647,7.615,7.615,0,0,0,.112,2.186,7.913,7.913,0,0,0,.993,1.919A7.016,7.016,0,0,1,85,52.778ZM10.251,15.81c0,2.177,2.6,4.395,7.132,6.084a54.55,54.55,0,0,0,18.376,2.829,54.554,54.554,0,0,0,18.376-2.829c4.532-1.689,7.131-3.907,7.131-6.084s-2.6-4.4-7.131-6.085A54.566,54.566,0,0,0,35.759,6.9,54.562,54.562,0,0,0,17.383,9.725C12.85,11.414,10.251,13.632,10.251,15.81Zm0,15.376c0,2.177,2.6,4.395,7.132,6.084A54.55,54.55,0,0,0,35.759,40.1a66.053,66.053,0,0,0,9.494-.665c.2-.106.4-.207.592-.306a7.264,7.264,0,0,0,1.8-1.13,7.246,7.246,0,0,0,1.13-1.8,6.533,6.533,0,0,1,2.26-2.9,6.527,6.527,0,0,1,3.647-.56,7.692,7.692,0,0,0,2.187-.112,7.935,7.935,0,0,0,1.918-.994,9.916,9.916,0,0,1,2.476-1.244V19.876a17.843,17.843,0,0,1-6.47,3.8,56.483,56.483,0,0,1-19.038,2.944A56.58,56.58,0,0,1,16.72,23.672a17.858,17.858,0,0,1-6.47-3.8Zm0,15.376c0,2.177,2.6,4.395,7.132,6.084a54.573,54.573,0,0,0,18.376,2.829c1.634,0,3.262-.056,4.856-.168a5.291,5.291,0,0,1-.752-2.528,7.018,7.018,0,0,1,1.416-3.638,7.956,7.956,0,0,0,.994-1.919,7.69,7.69,0,0,0,.112-2.187,7.068,7.068,0,0,1,.424-3.391,69.973,69.973,0,0,1-7.05.351A56.577,56.577,0,0,1,16.72,39.05a17.845,17.845,0,0,1-6.47-3.795ZM47.62,69.788l.6-1.468a3.993,3.993,0,0,0-.57-.761,7.274,7.274,0,0,0-1.8-1.131,6.533,6.533,0,0,1-2.9-2.263,6.514,6.514,0,0,1-.56-3.647,7.687,7.687,0,0,0-.112-2.187,5.245,5.245,0,0,0-.559-1.213c-1.944.165-3.944.248-5.954.248A56.577,56.577,0,0,1,16.72,54.423a17.845,17.845,0,0,1-6.47-3.795V61.937c0,2.178,2.6,4.4,7.132,6.085A54.573,54.573,0,0,0,35.759,70.85,64.411,64.411,0,0,0,47.62,69.788Zm10.223,3.568a4.515,4.515,0,0,0-.97-.421,7.655,7.655,0,0,0-2.187-.112,6.527,6.527,0,0,1-3.647-.56,4.848,4.848,0,0,1-1.656-1.778L45.26,80.613l5.215-2.96a.949.949,0,0,1,1.38.561l1.664,5.762ZM79.6,80.613,75.476,70.484a4.848,4.848,0,0,1-1.656,1.779,6.522,6.522,0,0,1-3.647.56,7.656,7.656,0,0,0-2.187.112,4.567,4.567,0,0,0-.971.421l4.325,10.62L73,78.215a.948.948,0,0,1,1.38-.561Zm3.5-27.835a5.513,5.513,0,0,0-1.125-2.63,9.407,9.407,0,0,1-1.216-2.425,9.118,9.118,0,0,1-.178-2.76,5.164,5.164,0,0,0-.3-2.619,5.076,5.076,0,0,0-2.123-1.528,8.7,8.7,0,0,1-2.285-1.48,8.7,8.7,0,0,1-1.48-2.284,5.08,5.08,0,0,0-1.528-2.124,5.173,5.173,0,0,0-2.619-.3,9.12,9.12,0,0,1-2.76-.179,9.392,9.392,0,0,1-2.425-1.216,5.51,5.51,0,0,0-2.629-1.125,5.509,5.509,0,0,0-2.63,1.125,9.349,9.349,0,0,1-2.425,1.216,9.118,9.118,0,0,1-2.76.184,5.165,5.165,0,0,0-2.619.3,5.08,5.08,0,0,0-1.528,2.124,8.718,8.718,0,0,1-1.48,2.285A8.734,8.734,0,0,1,46.7,40.82a5.08,5.08,0,0,0-2.124,1.528,5.178,5.178,0,0,0-.3,2.62,9.11,9.11,0,0,1-.179,2.76,9.369,9.369,0,0,1-1.216,2.426,5.506,5.506,0,0,0-1.125,2.629,5.521,5.521,0,0,0,1.125,2.63A9.358,9.358,0,0,1,44.1,57.831a9.121,9.121,0,0,1,.184,2.76,5.169,5.169,0,0,0,.3,2.62,5.079,5.079,0,0,0,2.124,1.527,8.741,8.741,0,0,1,2.285,1.48,6.711,6.711,0,0,1,1.1,1.564l.017.031c.123.228.242.46.358.688A5.08,5.08,0,0,0,52,70.626a5.168,5.168,0,0,0,2.62.3c.318-.012.644-.023.963-.023a6.738,6.738,0,0,1,1.8.2A9.348,9.348,0,0,1,59.8,72.323a5.521,5.521,0,0,0,2.63,1.124,5.521,5.521,0,0,0,2.629-1.124,9.363,9.363,0,0,1,2.425-1.216,9.122,9.122,0,0,1,2.76-.184,5.158,5.158,0,0,0,2.62-.3A5.077,5.077,0,0,0,74.393,68.5c.117-.229.235-.46.358-.688l.017-.03a6.669,6.669,0,0,1,1.1-1.564,8.727,8.727,0,0,1,2.285-1.48,5.077,5.077,0,0,0,2.123-1.527,5.168,5.168,0,0,0,.3-2.62,9.122,9.122,0,0,1,.179-2.76A9.421,9.421,0,0,1,81.976,55.4,5.51,5.51,0,0,0,83.1,52.778Zm-7.242,0A13.428,13.428,0,1,1,62.427,39.35,13.428,13.428,0,0,1,75.854,52.778Zm-1.9,0A11.531,11.531,0,1,0,62.43,64.309,11.531,11.531,0,0,0,73.956,52.778Zm-4.6-5.009a.949.949,0,0,0-1.336.116l-6.159,7.326L59.1,52.836a.948.948,0,0,0-1.237,1.437l3.487,3a.95.95,0,0,0,.618.229h.076a.95.95,0,0,0,.65-.335l6.773-8.061a.948.948,0,0,0-.113-1.339Z" transform="translate(0 0)" fill="#ec5959" stroke="#ec5959" stroke-width="1"/>
    </g>
  </g>
</svg>
