<svg xmlns="http://www.w3.org/2000/svg" xmlns:xlink="http://www.w3.org/1999/xlink" width="100%" height="100%" viewBox="0 0 229.652 223.891">
  <defs>
    <filter id="Path_16564" x="0" y="0" width="229.652" height="223.891" filterUnits="userSpaceOnUse">
      <feOffset input="SourceAlpha"/>
      <feGaussianBlur stdDeviation="7.5" result="blur"/>
      <feFlood flood-opacity="0.173"/>
      <feComposite operator="in" in2="blur"/>
      <feComposite in="SourceGraphic"/>
    </filter>
  </defs>
  <g id="Group_10032" data-name="Group 10032" transform="translate(-204.593 -570.13)">
    <g id="Group_10033" data-name="Group 10033" transform="translate(1)">
      <g id="bg" transform="translate(76.983 493.314)">
        <g class="hover-effect-slm" id="Path_16565" data-name="Path 16565" transform="translate(147 106)" fill="#fff">
          <path d="M 81.46550750732422 160.3434448242188 C 75.97178649902344 160.3434448242188 70.48164367675781 159.7900085449219 65.14761352539062 158.6985015869141 C 59.94939422607422 157.6348114013672 54.83625411987305 156.0475921630859 49.95022583007812 153.9809722900391 C 45.15280914306641 151.9518432617188 40.5256462097168 149.4402770996094 36.19728469848633 146.51611328125 C 31.9098949432373 143.6196136474609 27.87822723388672 140.2931671142578 24.21425628662109 136.6291961669922 C 20.55028343200684 132.9652252197266 17.22383880615234 128.9335632324219 14.32733917236328 124.6461715698242 C 11.40317249298096 120.3178100585938 8.891616821289062 115.6906433105469 6.862477779388428 110.8932266235352 C 4.7958664894104 106.007194519043 3.208644390106201 100.8940582275391 2.144949913024902 95.69583892822266 C 1.053449869155884 90.36180877685547 0.5000054836273193 84.87167358398438 0.5000054836273193 79.37794494628906 C 0.5000054836273193 70.77181243896484 2.896144390106201 60.26764297485352 7.429421901702881 49.0010871887207 C 11.99281120300293 37.65964126586914 18.41247749328613 26.32641983032227 25.99442291259766 16.22664260864258 C 29.96061706542969 10.94333648681641 34.19197845458984 6.075253009796143 38.5709228515625 1.757642030715942 C 43.17817306518555 -2.785080194473267 47.95328140258789 -6.720691204071045 52.76358795166016 -9.939886093139648 C 57.85336685180664 -13.34610748291016 63.02364349365234 -15.97585773468018 68.13083648681641 -17.75613594055176 C 73.54556274414062 -19.64360809326172 78.96444702148438 -20.60063552856445 84.23694610595703 -20.60063552856445 C 97.17305755615234 -20.60063552856445 109.4142837524414 -14.91855239868164 120.6205596923828 -3.712274551391602 C 133.2728118896484 8.939948081970215 142.8871765136719 19.59694671630859 150.0130920410156 28.86764144897461 C 153.5545654296875 33.47503280639648 156.4944458007812 37.74016952514648 159.000732421875 41.90678024291992 C 161.4244995117188 45.93622589111328 163.3816680908203 49.77311325073242 164.9840545654297 53.63672637939453 C 171.2305908203125 68.69794464111328 171.1002044677734 82.10341644287109 170.9197235107422 100.6573104858398 C 170.887451171875 103.9749221801758 170.8540954589844 107.4054718017578 170.8540954589844 111.0617828369141 C 170.8540954589844 131.2891693115234 161.7737579345703 144.79833984375 143.0942230224609 152.3612213134766 C 135.3517761230469 155.4959411621094 125.9780349731445 157.6331634521484 114.4373092651367 158.8950653076172 C 105.3998641967773 159.8831939697266 94.92283630371094 160.3434448242188 81.46550750732422 160.3434448242188 Z" stroke="none"/>
          <path d="M 84.23694610595703 -20.10063934326172 C 79.02061462402344 -20.10063934326172 73.65711975097656 -19.15299987792969 68.29542541503906 -17.28399658203125 C 63.22828674316406 -15.51771545410156 58.09619903564453 -12.90699768066406 53.04167175292969 -9.524360656738281 C 48.2574462890625 -6.322608947753906 43.50689697265625 -2.407028198242188 38.92198181152344 2.113670349121094 C 34.56059265136719 6.413948059082031 30.34567260742188 11.26325225830078 26.394287109375 16.52684020996094 C 18.83816528320312 26.59222412109375 12.44061279296875 37.88616943359375 7.893280029296875 49.18772506713867 C 5.674026489257812 54.70328140258789 3.955978393554688 60.08008575439453 2.786865234375 65.16883850097656 C 1.6011962890625 70.32966613769531 1 75.11030578613281 1 79.37794494628906 C 1 84.83808898925781 1.550033569335938 90.29450225830078 2.634780883789062 95.59561157226562 C 3.69189453125 100.7615051269531 5.26922607421875 105.8428115844727 7.322982788085938 110.6984481811523 C 9.33953857421875 115.4661407470703 11.83554077148438 120.0646667480469 14.74166870117188 124.3662796020508 C 17.62034606933594 128.6272888183594 20.92634582519531 132.6341705322266 24.56781005859375 136.275634765625 C 28.20928955078125 139.9171142578125 32.21617126464844 143.2231140136719 36.4771728515625 146.1017761230469 C 40.77877807617188 149.0079193115234 45.37730407714844 151.5039215087891 50.14500427246094 153.5204772949219 C 55.00064086914062 155.57421875 60.08194732666016 157.1515502929688 65.24784088134766 158.2086791992188 C 70.5489501953125 159.2934265136719 76.00536346435547 159.8434448242188 81.46550750732422 159.8434448242188 C 94.90422821044922 159.8434448242188 105.3640060424805 159.3841400146484 114.3829803466797 158.3980102539062 C 125.8772583007812 157.1412200927734 135.2074279785156 155.0149841308594 142.9065856933594 151.8977508544922 C 147.161865234375 150.1748962402344 150.9579772949219 148.1148986816406 154.189453125 145.7749938964844 C 157.6052551269531 143.3016357421875 160.5111389160156 140.4281463623047 162.8263702392578 137.2343139648438 C 165.264892578125 133.8704223632812 167.1328430175781 130.0348968505859 168.3783111572266 125.8342514038086 C 169.6893310546875 121.4125289916992 170.3540954589844 116.4423675537109 170.3540954589844 111.0617828369141 C 170.3540954589844 107.4030303955078 170.3874816894531 103.9712524414062 170.4197540283203 100.6524505615234 C 170.5996398925781 82.1578369140625 170.7296142578125 68.79519653320312 164.5222320556641 53.82828140258789 C 162.9294281005859 49.9877815246582 160.9831695556641 46.17253112792969 158.5722503662109 42.16450500488281 C 156.0758666992188 38.01433563232422 153.1464538574219 33.76455688476562 149.6166381835938 29.17233276367188 C 142.5041198730469 19.91902923583984 132.9037475585938 9.278030395507812 120.2670059204102 -3.358718872070312 C 109.1578979492188 -14.46782684326172 97.03561401367188 -20.10063934326172 84.23694610595703 -20.10063934326172 M 84.2369384765625 -21.10062408447266 C 96.44292449951172 -21.10062408447266 108.9408493041992 -16.09909820556641 120.97412109375 -4.065826416015625 C 176.4476776123047 51.4077262878418 171.3540954589844 66.06961059570312 171.3540954589844 111.0617828369141 C 171.3540954589844 156.053955078125 126.4576721191406 160.8434448242188 81.46550750732422 160.8434448242188 C 36.47337341308594 160.8434448242188 0 124.3700866699219 0 79.37794494628906 C 0 44.14543533325195 40.17314147949219 -21.10062408447266 84.2369384765625 -21.10062408447266 Z" stroke="none" fill="#efefef"/>
        </g>
        <g transform="matrix(1, 0, 0, 1, 126.61, 76.82)" filter="url(#Path_16564)">
          <path id="Path_16564-2" data-name="Path 16564" d="M92.623,5.291c31.657,0,52.156,17.307,68.756,48.136,10.476,19.454,31.305,46.53,30.489,72.753-2.081,66.893-99.225,61.031-130.147,53.774S-6.174,130.291,12.1,85.649,40.555,5.291,92.623,5.291Z" transform="translate(15.26 17.21)" fill="#fff"/>
        </g>
      </g>
      <g id="noun-efficiency-1088927" transform="translate(262.863 631.442)">
        <g id="Group_8670" data-name="Group 8670" transform="translate(6.976 7)">
          <path id="Path_13709" data-name="Path 13709" d="M49.636,959.362c-19.962,0-36.2,17.455-37.272,39.287l-3.331-6.731a1.08,1.08,0,1,0-1.932.966l5.329,10.663a1.066,1.066,0,0,0,1.8.166l7.461-9.6a1.066,1.066,0,1,0-1.665-1.3l-5.562,7.131c.475-21.395,16.1-38.454,35.173-38.454a1.066,1.066,0,0,0,0-2.133ZM47.3,976.423a1.066,1.066,0,0,0-.866,1.066v5.565a23.9,23.9,0,0,0-5.063,1.7l-3.764-3.765a1.065,1.065,0,0,0-1.532,0l-7.461,7.464a1.067,1.067,0,0,0-.067,1.433l3.9,4.865a18.673,18.673,0,0,0-1.632,4.065h-5.7a1.066,1.066,0,0,0-1.066,1.066v10.663a1.066,1.066,0,0,0,1.066,1.066h5.563a24.31,24.31,0,0,0,1.732,5.032l-3.8,3.8a1.067,1.067,0,0,0,0,1.5l7.461,7.464a1.066,1.066,0,0,0,1.532,0l3.764-3.766a24.034,24.034,0,0,0,5.063,1.733v5.565a1.067,1.067,0,0,0,1.066,1.066H58.163a1.066,1.066,0,0,0,1.066-1.066v-5.565a24.034,24.034,0,0,0,5.063-1.733l3.764,3.766a1.066,1.066,0,0,0,1.532,0l7.461-7.464a1.067,1.067,0,0,0,0-1.5l-3.8-3.8a24.311,24.311,0,0,0,1.732-5.032h5.562a1.066,1.066,0,0,0,1.066-1.066V999.883a1.066,1.066,0,0,0-1.066-1.066h-5.7a18.673,18.673,0,0,0-1.632-4.065l3.9-4.865a1.067,1.067,0,0,0-.067-1.433l-7.461-7.464a1.065,1.065,0,0,0-1.532,0l-3.764,3.765a23.9,23.9,0,0,0-5.063-1.7V977.49a1.066,1.066,0,0,0-1.066-1.066H47.5a1.041,1.041,0,0,0-.2,0Zm1.266,2.133H57.1v5.332a1.066,1.066,0,0,0,.8,1.033,24.292,24.292,0,0,1,6.129,2,1.065,1.065,0,0,0,1.3-.167l3.5-3.5,6.029,6.031-3.664,4.6a1.067,1.067,0,0,0-.067,1.2,16.012,16.012,0,0,1,2,5.031,1.066,1.066,0,0,0,1.033.833H79.48v8.531H74.151a1.066,1.066,0,0,0-1.033.8,24.049,24.049,0,0,1-2,6.1,1.067,1.067,0,0,0,.133,1.3l3.5,3.532-5.929,5.932-3.5-3.5a1.065,1.065,0,0,0-1.3-.167,24.28,24.28,0,0,1-6.129,2.033,1.067,1.067,0,0,0-.8,1.033v5.331H48.57v-5.331a1.067,1.067,0,0,0-.8-1.033,24.28,24.28,0,0,1-6.129-2.033,1.065,1.065,0,0,0-1.3.167l-3.5,3.5-5.929-5.932,3.5-3.532a1.067,1.067,0,0,0,.133-1.3,24.049,24.049,0,0,1-2-6.1,1.066,1.066,0,0,0-1.033-.8H26.187v-8.531h5.329a1.066,1.066,0,0,0,1.033-.833,16.012,16.012,0,0,1,2-5.031,1.067,1.067,0,0,0-.067-1.2l-3.664-4.6,6.029-6.031,3.5,3.5a1.065,1.065,0,0,0,1.3.167,24.292,24.292,0,0,1,6.129-2,1.066,1.066,0,0,0,.8-1.033v-5.332Zm4.263,14.929a11.729,11.729,0,1,0,11.724,11.729A11.743,11.743,0,0,0,52.834,993.485Zm0,2.133a9.6,9.6,0,1,1-9.593,9.6A9.579,9.579,0,0,1,52.834,995.617Zm39.237,10.663a1.067,1.067,0,0,0-.633.4l-7.461,9.6a1.066,1.066,0,1,0,1.665,1.3l5.562-7.131c-.453,21.418-16.086,38.488-35.173,38.488a1.066,1.066,0,0,0,0,2.133c19.962,0,36.2-17.453,37.272-39.288l3.331,6.7a1.08,1.08,0,1,0,1.932-.966l-5.329-10.663a1.066,1.066,0,0,0-1.166-.567Z" transform="translate(-6.976 -959.362)" fill="#f05a5c" stroke="#ec5959" stroke-width="1"/>
        </g>
      </g>
    </g>
  </g>
</svg>
