<svg xmlns="http://www.w3.org/2000/svg" xmlns:xlink="http://www.w3.org/1999/xlink" width="100%" height="100%" viewBox="0 0 229.652 223.891">
  <defs>
    <filter id="Path_16564" x="0" y="0" width="229.652" height="223.891" filterUnits="userSpaceOnUse">
      <feOffset input="SourceAlpha"/>
      <feGaussianBlur stdDeviation="7.5" result="blur"/>
      <feFlood flood-opacity="0.173"/>
      <feComposite operator="in" in2="blur"/>
      <feComposite in="SourceGraphic"/>
    </filter>
  </defs>
  <g id="Group_10035" data-name="Group 10035" transform="translate(-161.609 -667.13)">
    <g id="bg" transform="translate(35 590.313)">
      <g class="hover-effect-slm" id="Path_16565" data-name="Path 16565" transform="translate(147 106)" fill="#fff">
        <path d="M 81.46550750732422 160.3434448242188 C 75.97178649902344 160.3434448242188 70.48164367675781 159.7900085449219 65.14761352539062 158.6985015869141 C 59.94939422607422 157.6348114013672 54.83625411987305 156.0475921630859 49.95022583007812 153.9809722900391 C 45.15280914306641 151.9518432617188 40.5256462097168 149.4402770996094 36.19728469848633 146.51611328125 C 31.9098949432373 143.6196136474609 27.87822723388672 140.2931671142578 24.21425628662109 136.6291961669922 C 20.55028343200684 132.9652252197266 17.22383880615234 128.9335632324219 14.32733917236328 124.6461715698242 C 11.40317249298096 120.3178100585938 8.891616821289062 115.6906433105469 6.862477779388428 110.8932266235352 C 4.7958664894104 106.007194519043 3.208644390106201 100.8940582275391 2.144949913024902 95.69583892822266 C 1.053449869155884 90.36180877685547 0.5000054836273193 84.87167358398438 0.5000054836273193 79.37794494628906 C 0.5000054836273193 70.77181243896484 2.896144390106201 60.26764297485352 7.429421901702881 49.0010871887207 C 11.99281120300293 37.65964126586914 18.41247749328613 26.32641983032227 25.99442291259766 16.22664260864258 C 29.96061706542969 10.94333648681641 34.19197845458984 6.075253009796143 38.5709228515625 1.757642030715942 C 43.17817306518555 -2.785080194473267 47.95328140258789 -6.720691204071045 52.76358795166016 -9.939886093139648 C 57.85336685180664 -13.34610748291016 63.02364349365234 -15.97585773468018 68.13083648681641 -17.75613594055176 C 73.54556274414062 -19.64360809326172 78.96444702148438 -20.60063552856445 84.23694610595703 -20.60063552856445 C 97.17305755615234 -20.60063552856445 109.4142837524414 -14.91855239868164 120.6205596923828 -3.712274551391602 C 133.2728118896484 8.939948081970215 142.8871765136719 19.59694671630859 150.0130920410156 28.86764144897461 C 153.5545654296875 33.47503280639648 156.4944458007812 37.74016952514648 159.000732421875 41.90678024291992 C 161.4244995117188 45.93622589111328 163.3816680908203 49.77311325073242 164.9840545654297 53.63672637939453 C 171.2305908203125 68.69794464111328 171.1002044677734 82.10341644287109 170.9197235107422 100.6573104858398 C 170.887451171875 103.9749221801758 170.8540954589844 107.4054718017578 170.8540954589844 111.0617828369141 C 170.8540954589844 131.2891693115234 161.7737579345703 144.79833984375 143.0942230224609 152.3612213134766 C 135.3517761230469 155.4959411621094 125.9780349731445 157.6331634521484 114.4373092651367 158.8950653076172 C 105.3998641967773 159.8831939697266 94.92283630371094 160.3434448242188 81.46550750732422 160.3434448242188 Z" stroke="none"/>
        <path d="M 84.23694610595703 -20.10063934326172 C 79.02061462402344 -20.10063934326172 73.65711975097656 -19.15299987792969 68.29542541503906 -17.28399658203125 C 63.22828674316406 -15.51771545410156 58.09619903564453 -12.90699768066406 53.04167175292969 -9.524360656738281 C 48.2574462890625 -6.322608947753906 43.50689697265625 -2.407028198242188 38.92198181152344 2.113670349121094 C 34.56059265136719 6.413948059082031 30.34567260742188 11.26325225830078 26.394287109375 16.52684020996094 C 18.83816528320312 26.59222412109375 12.44061279296875 37.88616943359375 7.893280029296875 49.18772506713867 C 5.674026489257812 54.70328140258789 3.955978393554688 60.08008575439453 2.786865234375 65.16883850097656 C 1.6011962890625 70.32966613769531 1 75.11030578613281 1 79.37794494628906 C 1 84.83808898925781 1.550033569335938 90.29450225830078 2.634780883789062 95.59561157226562 C 3.69189453125 100.7615051269531 5.26922607421875 105.8428115844727 7.322982788085938 110.6984481811523 C 9.33953857421875 115.4661407470703 11.83554077148438 120.0646667480469 14.74166870117188 124.3662796020508 C 17.62034606933594 128.6272888183594 20.92634582519531 132.6341705322266 24.56781005859375 136.275634765625 C 28.20928955078125 139.9171142578125 32.21617126464844 143.2231140136719 36.4771728515625 146.1017761230469 C 40.77877807617188 149.0079193115234 45.37730407714844 151.5039215087891 50.14500427246094 153.5204772949219 C 55.00064086914062 155.57421875 60.08194732666016 157.1515502929688 65.24784088134766 158.2086791992188 C 70.5489501953125 159.2934265136719 76.00536346435547 159.8434448242188 81.46550750732422 159.8434448242188 C 94.90422821044922 159.8434448242188 105.3640060424805 159.3841400146484 114.3829803466797 158.3980102539062 C 125.8772583007812 157.1412200927734 135.2074279785156 155.0149841308594 142.9065856933594 151.8977508544922 C 147.161865234375 150.1748962402344 150.9579772949219 148.1148986816406 154.189453125 145.7749938964844 C 157.6052551269531 143.3016357421875 160.5111389160156 140.4281463623047 162.8263702392578 137.2343139648438 C 165.264892578125 133.8704223632812 167.1328430175781 130.0348968505859 168.3783111572266 125.8342514038086 C 169.6893310546875 121.4125289916992 170.3540954589844 116.4423675537109 170.3540954589844 111.0617828369141 C 170.3540954589844 107.4030303955078 170.3874816894531 103.9712524414062 170.4197540283203 100.6524505615234 C 170.5996398925781 82.1578369140625 170.7296142578125 68.79519653320312 164.5222320556641 53.82828140258789 C 162.9294281005859 49.9877815246582 160.9831695556641 46.17253112792969 158.5722503662109 42.16450500488281 C 156.0758666992188 38.01433563232422 153.1464538574219 33.76455688476562 149.6166381835938 29.17233276367188 C 142.5041198730469 19.91902923583984 132.9037475585938 9.278030395507812 120.2670059204102 -3.358718872070312 C 109.1578979492188 -14.46782684326172 97.03561401367188 -20.10063934326172 84.23694610595703 -20.10063934326172 M 84.2369384765625 -21.10062408447266 C 96.44292449951172 -21.10062408447266 108.9408493041992 -16.09909820556641 120.97412109375 -4.065826416015625 C 176.4476776123047 51.4077262878418 171.3540954589844 66.06961059570312 171.3540954589844 111.0617828369141 C 171.3540954589844 156.053955078125 126.4576721191406 160.8434448242188 81.46550750732422 160.8434448242188 C 36.47337341308594 160.8434448242188 0 124.3700866699219 0 79.37794494628906 C 0 44.14543533325195 40.17314147949219 -21.10062408447266 84.2369384765625 -21.10062408447266 Z" stroke="none" fill="#efefef"/>
      </g>
      <g transform="matrix(1, 0, 0, 1, 126.61, 76.82)" filter="url(#Path_16564)">
        <path id="Path_16564-2" data-name="Path 16564" d="M92.623,5.291c31.657,0,52.156,17.307,68.756,48.136,10.476,19.454,31.305,46.53,30.489,72.753-2.081,66.893-99.225,61.031-130.147,53.774S-6.174,130.291,12.1,85.649,40.555,5.291,92.623,5.291Z" transform="translate(15.26 17.21)" fill="#fff"/>
      </g>
    </g>
    <g id="noun-insights-2198129" transform="translate(223.42 728.058)">
      <path id="Path_13711" data-name="Path 13711" d="M65.427,25.6a1.082,1.082,0,0,0-1.343-1.342L61.559,25a12.616,12.616,0,0,1-7.1,0l-2.526-.74A1.082,1.082,0,0,0,50.593,25.6l.739,2.527a12.6,12.6,0,0,1,0,7.1l-.739,2.526A1.082,1.082,0,0,0,51.936,39.1l2.526-.74a12.616,12.616,0,0,1,7.1,0l2.526.74a1.082,1.082,0,0,0,1.343-1.342l-.739-2.527a12.6,12.6,0,0,1,0-7.1ZM62.611,35.837l.184.629-.627-.184a14.765,14.765,0,0,0-8.315,0l-.627.184.184-.628a14.761,14.761,0,0,0,0-8.313l-.184-.629.627.184a14.765,14.765,0,0,0,8.315,0L62.8,26.9l-.184.628A14.761,14.761,0,0,0,62.611,35.837Z" transform="translate(2.005 1.162)" fill="#ec5959" stroke="#ec5959" stroke-width="1"/>
      <path id="Path_13712" data-name="Path 13712" d="M47.491,33.331a1.082,1.082,0,0,0-1.343-1.342l-1.92.563a9.328,9.328,0,0,1-5.251,0l-1.92-.563a1.082,1.082,0,0,0-1.343,1.342l.562,1.921a9.313,9.313,0,0,1,0,5.252l-.562,1.92a1.082,1.082,0,0,0,1.343,1.342l1.92-.563a9.328,9.328,0,0,1,5.251,0l1.92.563a1.082,1.082,0,0,0,1.343-1.342L46.929,40.5a9.313,9.313,0,0,1,0-5.252Zm-2.639,7.781.007.023-.023-.006a11.477,11.477,0,0,0-6.468,0l-.023.006.007-.022a11.477,11.477,0,0,0,0-6.468l-.007-.023.023.006a11.477,11.477,0,0,0,6.468,0l.023-.006-.007.022A11.477,11.477,0,0,0,44.852,41.111Z" transform="translate(0.789 1.793)" fill="#ec5959" stroke="#ec5959" stroke-width="1"/>
      <path id="Path_13713" data-name="Path 13713" d="M58.716,42.228a1.081,1.081,0,0,0-1.53,0l-2.04,2.04-2.04-2.04a1.082,1.082,0,0,0-1.53,1.53l2.04,2.04-2.04,2.04a1.082,1.082,0,1,0,1.53,1.53l2.04-2.04,2.04,2.04a1.082,1.082,0,0,0,1.53-1.53l-2.04-2.04,2.04-2.04A1.081,1.081,0,0,0,58.716,42.228Z" transform="translate(2.063 2.607)" fill="#ec5959" stroke="#ec5959" stroke-width="1"/>
      <path id="Path_13714" data-name="Path 13714" d="M39.043,28.3a1.081,1.081,0,0,0,1.53,0l2.04-2.04,2.04,2.04a1.082,1.082,0,0,0,1.53-1.53l-2.04-2.04,2.04-2.04a1.082,1.082,0,1,0-1.53-1.53l-2.04,2.04-2.04-2.04a1.082,1.082,0,1,0-1.53,1.53l2.04,2.04-2.04,2.04A1.081,1.081,0,0,0,39.043,28.3Z" transform="translate(1.039 0.886)" fill="#ec5959" stroke="#ec5959" stroke-width="1"/>
      <path id="Path_13715" data-name="Path 13715" d="M77.893,34.927A26.157,26.157,0,0,0,53.613,10.051,25.75,25.75,0,0,0,34.19,17.038a25.956,25.956,0,0,0-1.234,36.592c3.931,4.223,5.738,8.241,5.967,13.219h0a4.309,4.309,0,0,0-4.3,4.3v1.261a4.3,4.3,0,0,0,2.792,4.016v8.436a3.929,3.929,0,0,0,3.924,3.924h.215v2.7a5.05,5.05,0,0,0,5.044,5.044H57.328a5.05,5.05,0,0,0,5.044-5.044v-2.7h.215a3.929,3.929,0,0,0,3.924-3.924V76.43A4.3,4.3,0,0,0,69.3,72.414V71.153a4.309,4.309,0,0,0-4.3-4.3h-.085C65.145,61.9,66.958,57.9,70.9,53.7A25.785,25.785,0,0,0,77.893,34.927ZM60.208,91.488a2.883,2.883,0,0,1-2.881,2.88H46.593a2.883,2.883,0,0,1-2.881-2.88v-2.7h16.5Zm2.379-4.861H41.333a1.763,1.763,0,0,1-1.761-1.761V76.718H64.348v8.148A1.763,1.763,0,0,1,62.587,86.627ZM67.14,71.153v1.261A2.144,2.144,0,0,1,65,74.555H38.922a2.144,2.144,0,0,1-2.141-2.141V71.153a2.144,2.144,0,0,1,2.141-2.141H65A2.144,2.144,0,0,1,67.14,71.153Zm-4.413-4.3H41.11c-.225-5.577-2.226-10.026-6.569-14.693A23.791,23.791,0,0,1,53.48,12.211a23.975,23.975,0,0,1,22.251,22.8A23.639,23.639,0,0,1,69.32,52.219C64.963,56.868,62.953,61.3,62.727,66.848Z" transform="translate(0 0)" fill="#ec5959" stroke="#ec5959" stroke-width="1"/>
    </g>
  </g>
</svg>
