<svg id="implicit_exercise" xmlns="http://www.w3.org/2000/svg" xmlns:xlink="http://www.w3.org/1999/xlink" width="100%" height="100%" viewBox="0 0 920 480">
  <defs>
    <clipPath id="clip-path">
      <rect id="Rectangle_33358" data-name="Rectangle 33358" width="119.876" height="293.932" fill="none"/>
    </clipPath>
    <clipPath id="clip-path-3">
      <rect id="Rectangle_33338" data-name="Rectangle 33338" width="24.13" height="25.614" fill="none"/>
    </clipPath>
    <clipPath id="clip-path-4">
      <rect id="Rectangle_33339" data-name="Rectangle 33339" width="36.559" height="38.807" fill="none"/>
    </clipPath>
    <clipPath id="clip-path-5">
      <rect id="Rectangle_33341" data-name="Rectangle 33341" width="24.98" height="165.452" fill="none"/>
    </clipPath>
    <clipPath id="clip-path-7">
      <rect id="Rectangle_33342" data-name="Rectangle 33342" width="15.596" height="92.243" fill="none"/>
    </clipPath>
    <clipPath id="clip-path-8">
      <rect id="Rectangle_33343" data-name="Rectangle 33343" width="9.937" height="5.907" fill="none"/>
    </clipPath>
    <clipPath id="clip-path-9">
      <rect id="Rectangle_33344" data-name="Rectangle 33344" width="9.944" height="5.907" fill="none"/>
    </clipPath>
    <clipPath id="clip-path-14">
      <rect id="Rectangle_33349" data-name="Rectangle 33349" width="17.107" height="93.763" fill="none"/>
    </clipPath>
    <clipPath id="clip-path-15">
      <rect id="Rectangle_33350" data-name="Rectangle 33350" width="18.397" height="5.983" fill="none"/>
    </clipPath>
    <clipPath id="clip-path-16">
      <rect id="Rectangle_33351" data-name="Rectangle 33351" width="66.997" height="20.789" fill="none"/>
    </clipPath>
    <clipPath id="clip-path-17">
      <rect id="Rectangle_33352" data-name="Rectangle 33352" width="6.765" height="2.912" fill="none"/>
    </clipPath>
    <clipPath id="clip-path-18">
      <rect id="Rectangle_33353" data-name="Rectangle 33353" width="32.89" height="32.84" fill="none"/>
    </clipPath>
    <clipPath id="clip-path-19">
      <rect id="Rectangle_33354" data-name="Rectangle 33354" width="43.658" height="80.213" fill="none"/>
    </clipPath>
    <clipPath id="clip-path-20">
      <rect id="Rectangle_33355" data-name="Rectangle 33355" width="20.971" height="57.874" fill="none"/>
    </clipPath>
    <clipPath id="clip-path-21">
      <rect id="Rectangle_33356" data-name="Rectangle 33356" width="64.701" height="32.851" fill="none"/>
    </clipPath>
  </defs>
  <g id="Group_58416" data-name="Group 58416" transform="translate(0 -0.454)">
    <g id="Rectangle_33478" data-name="Rectangle 33478" transform="translate(0 0.454)" fill="#fff" stroke="#f2f2f2" stroke-width="1">
      <rect width="920" height="480" rx="5" stroke="none"/>
      <rect x="0.5" y="0.5" width="919" height="479" rx="4.5" fill="none"/>
    </g>
    <g id="Group_58393" data-name="Group 58393" transform="translate(148 67.453)">
      <path id="Path_51087" data-name="Path 51087" d="M164.332,0c90.758,0,151.1,77.538,151.1,173.187s-60.341,173.187-151.1,173.187c-56.724,0-88.023-21.356-117.979-68.089C29.058,251.309,0,209.055,0,173.187,0,77.538,73.574,0,164.332,0Z" transform="translate(154.64)" fill="#e3e3e3"/>
      <g id="Group_58112" data-name="Group 58112" transform="translate(261.394 52.442)">
        <g id="Group_58171" data-name="Group 58171" clip-path="url(#clip-path)">
          <g id="Group_58170" data-name="Group 58170">
            <g id="Group_58169" data-name="Group 58169" clip-path="url(#clip-path)">
              <path id="Path_51089" data-name="Path 51089" d="M32.382,138.729c2.1-1.116,2.21,1.873,6.226,4.715,10.487,7.425-.592,47.39-7.6,74.546-3.632,14.073-10.217,22.264-17.2,23.182-6,.788-15.3-5.165-13.339-17.414C3.654,203.888,9.15,187.819,14.486,168c3.3-12.267,8.97-24.532,17.9-29.268" transform="translate(-0.016 -5.965)" fill="#152429"/>
              <path id="Path_51090" data-name="Path 51090" d="M51.66,135.29c.695,5.136,4.987,11.064,13.384,9.855,8.415-1.211,9.935-8.15,9.257-13.167-.994-7.35-4.585-33.877-4.585-33.877L48.4,111.24s2.222,16.412,3.255,24.05" transform="translate(-3.851 -4.226)" fill="#e0a47c"/>
              <g id="Group_58114" data-name="Group 58114" transform="translate(44.872 96.856)" style="mix-blend-mode: multiply;isolation: isolate">
                <g id="Group_58113" data-name="Group 58113">
                  <g id="Group_58112-2" data-name="Group 58112" clip-path="url(#clip-path-3)">
                    <path id="Path_51091" data-name="Path 51091" d="M72.88,122.05a27.885,27.885,0,0,1-11.495,4.5,27.34,27.34,0,0,1-11.078-.684c-.822-6.07-1.558-11.51-1.558-11.51l21.311-13.139s1.493,11.03,2.819,20.834" transform="translate(-48.75 -101.216)" fill="#f2e6dc"/>
                  </g>
                </g>
              </g>
              <path id="Path_51092" data-name="Path 51092" d="M29.446,146.661s14.565-15.415,18.668-17.321l.445,3.285c.924,6.829,3.675,13.746,8.925,12.979,5.4-.79,16.514-9.735,15.59-16.565l-.445-3.285c4.451.656,5.989,2.143,5.989,2.143L96.6,271.757s-10.7,1.226-31.094-.831c-17.076-1.721-22.445-9.376-22.445-9.376Z" transform="translate(-2.343 -5.417)" fill="#d8eaef"/>
              <path id="Path_51093" data-name="Path 51093" d="M57.559,164.2l-5.073-12.642,6.3-5.249,6.96,6.008L61.468,164s.8,21.688,2.528,41.493c1.672,19.126,3.3,45.777,3.3,45.777l-8.438,14.513L52.721,248.52s1.165-24.369,1.532-34.888c1.074-30.781,3.307-49.434,3.307-49.434" transform="translate(-4.175 -6.302)" fill="#aa0e0e"/>
              <g id="Group_58117" data-name="Group 58117" transform="translate(40.597 120.886)" opacity="0.26">
                <g id="Group_58116" data-name="Group 58116">
                  <g id="Group_58115" data-name="Group 58115" clip-path="url(#clip-path-4)">
                    <path id="Path_51094" data-name="Path 51094" d="M44.106,135.657l5.859-5.891L58,145.8,73.47,126.327l7.2,3.982L68.541,163l-10.1-15.4-9.283,17.53Z" transform="translate(-44.106 -126.327)" fill="#1f363d"/>
                  </g>
                </g>
              </g>
              <path id="Path_51095" data-name="Path 51095" d="M44.385,133.2l5.649-5.863,8.175,18.235-8.873,17.346Z" transform="translate(-3.531 -5.485)" fill="#fff"/>
              <path id="Path_51096" data-name="Path 51096" d="M80.974,127.871l-6.986-4.013L59.4,145.42l10.246,14.732Z" transform="translate(-4.726 -5.335)" fill="#fff"/>
              <path id="Path_51097" data-name="Path 51097" d="M123.36,193.829c3.982,40.569,1.634,81.54.667,89.792-6.25,6.385-38.619,15.156-51.352,15.794,0,0,.307-39.234,0-77.033-.074-8.95-.872-18.526-.723-24.266.753-29.18,7.557-70.822,7.557-70.822a40.366,40.366,0,0,1,7.483,1.291c8.972,2.652,30.489,5.365,36.368,65.243" transform="translate(-5.723 -5.483)" fill="#1f363d"/>
              <g id="Group_58123" data-name="Group 58123" transform="translate(21.746 126.542)" opacity="0.25">
                <g id="Group_58122" data-name="Group 58122" transform="translate(0 0)">
                  <g id="Group_58121" data-name="Group 58121" clip-path="url(#clip-path-5)">
                    <g id="Group_58120" data-name="Group 58120" style="mix-blend-mode: multiply;isolation: isolate">
                      <g id="Group_58119" data-name="Group 58119">
                        <g id="Group_58118" data-name="Group 58118" clip-path="url(#clip-path-5)">
                          <path id="Path_51098" data-name="Path 51098" d="M27.254,212.786c11.033,56.047,3.15,56.86,3.15,56.86,0,7.852,4.442,24.228,12.567,28.018,0,0,7.4-8.735,5.241-63.591-.355-9.031-2.4-32.571-2.467-37.384-.115-8.4-1.541-42.277-.158-64.477-2.333,1.03-2.388,1.36-4.576,2.74-7.638,4.815-24.861,21.434-13.757,77.833" transform="translate(-23.626 -132.212)" fill="#0d2528"/>
                        </g>
                      </g>
                    </g>
                  </g>
                </g>
              </g>
              <g id="Group_58126" data-name="Group 58126" transform="translate(26.916 126.51)" opacity="0.76">
                <g id="Group_58125" data-name="Group 58125">
                  <g id="Group_58124" data-name="Group 58124" clip-path="url(#clip-path-7)">
                    <path id="Path_51099" data-name="Path 51099" d="M34.937,139.045l9.9-6.84s-1.344,13.719-3.2,34.413c-1.575,17.6,2.978,57.83,2.978,57.83l-14.78-48.127,6.926-8.1-7.518-4.762Z" transform="translate(-29.242 -132.205)" fill="#0d2528"/>
                  </g>
                </g>
              </g>
              <path id="Path_51100" data-name="Path 51100" d="M25.1,217.237c9.6,41.32,6.257,47.548,1.24,53.233-1.946,2.205,4.3,21.39,13.38,26.264,0,0,7.515-30.354,4.208-63.964-.885-8.985-.974-16.28-1.371-21.071-2.947-35.706,2.615-79.779,2.615-79.779a53.689,53.689,0,0,0-6.851,3.695c-7.638,4.815-26.205,25.744-13.22,81.622" transform="translate(-1.64 -5.68)" fill="#1f363d"/>
              <path id="Path_51101" data-name="Path 51101" d="M34.907,137.5,46.3,130.27s-1.342,13.72-3.2,34.412c-1.574,17.6,1.636,59.683,1.636,59.683L31.291,174.385l6.927-8.1L30.7,161.528Z" transform="translate(-2.442 -5.611)" fill="#334f57"/>
              <path id="Path_51102" data-name="Path 51102" d="M39.739,237.448a2.165,2.165,0,0,0,2.43,1.9A2.222,2.222,0,0,0,44,236.825a2.168,2.168,0,0,0-2.433-1.906,2.223,2.223,0,0,0-1.832,2.529" transform="translate(-3.16 -10.118)" fill="#334f57"/>
              <path id="Path_51103" data-name="Path 51103" d="M40.739,262.835a2.068,2.068,0,0,0,1.677,2.346,2.051,2.051,0,0,0,1.946-2.117,2.076,2.076,0,0,0-1.682-2.351,2.051,2.051,0,0,0-1.941,2.121" transform="translate(-3.24 -11.23)" fill="#334f57"/>
              <path id="Path_51104" data-name="Path 51104" d="M18.037,90.839A6.553,6.553,0,0,0,23.426,83.4a6.39,6.39,0,0,0-7.156-5.608l-4.968.727a6.554,6.554,0,0,0-5.385,7.442,6.383,6.383,0,0,0,7.15,5.6Z" transform="translate(-0.466 -3.348)" fill="#eaae86"/>
              <g id="Group_58129" data-name="Group 58129" transform="translate(9.238 78.375)" style="mix-blend-mode: multiply;isolation: isolate">
                <g id="Group_58128" data-name="Group 58128">
                  <g id="Group_58127" data-name="Group 58127" clip-path="url(#clip-path-8)">
                    <path id="Path_51105" data-name="Path 51105" d="M17.834,87.06a2.576,2.576,0,0,0,2.114-2.922,2.516,2.516,0,0,0-2.809-2.21l-4.968.726a2.58,2.58,0,0,0-2.111,2.928,2.506,2.506,0,0,0,2.8,2.2Z" transform="translate(-10.036 -81.903)" fill="#f2e6dc"/>
                  </g>
                </g>
              </g>
              <path id="Path_51106" data-name="Path 51106" d="M90.273,80.674a6.553,6.553,0,0,0,5.393-7.438,6.391,6.391,0,0,0-7.159-5.608l-4.964.727A6.559,6.559,0,0,0,78.151,75.8a6.388,6.388,0,0,0,7.158,5.6Z" transform="translate(-6.212 -2.91)" fill="#eaae86"/>
              <g id="Group_58132" data-name="Group 58132" transform="translate(75.724 68.649)" style="mix-blend-mode: multiply;isolation: isolate">
                <g id="Group_58131" data-name="Group 58131">
                  <g id="Group_58130" data-name="Group 58130" clip-path="url(#clip-path-9)">
                    <path id="Path_51107" data-name="Path 51107" d="M90.07,76.894a2.571,2.571,0,0,0,2.118-2.921,2.514,2.514,0,0,0-2.813-2.208l-4.964.726a2.579,2.579,0,0,0-2.118,2.929,2.508,2.508,0,0,0,2.811,2.2Z" transform="translate(-82.269 -71.739)" fill="#f2e6dc"/>
                  </g>
                </g>
              </g>
              <path id="Path_51108" data-name="Path 51108" d="M40.672,20.022c-17.795,2.6-30.614,16.6-28.11,35.1L18.366,98c2.5,18.5,19.349,34.268,37.145,31.664s29.806-22.592,27.3-41.09l-5.8-42.879c-2.5-18.5-18.544-28.274-36.336-25.671" transform="translate(-0.975 -0.845)" fill="#fcc49a"/>
              <path id="Path_51109" data-name="Path 51109" d="M47.869,90.475a9.436,9.436,0,0,0,4.691.209A13.071,13.071,0,0,0,57.1,89.193,4.293,4.293,0,0,1,53.289,94c-3.86.668-5.32-2.181-5.42-3.529" transform="translate(-3.808 -3.842)" fill="#e2a479"/>
              <path id="Path_51110" data-name="Path 51110" d="M58.157,57.953l9.909,3.8a1.337,1.337,0,0,0,1.73-.829,1.417,1.417,0,0,0-.8-1.8l-9.91-3.8a1.334,1.334,0,0,0-1.729.828,1.418,1.418,0,0,0,.8,1.8" transform="translate(-4.556 -2.379)" fill="#3f2615"/>
              <path id="Path_51111" data-name="Path 51111" d="M34.763,67.692a1.434,1.434,0,0,0,.437-1.545,1.336,1.336,0,0,0-1.708-.876L23.241,68.894a1.413,1.413,0,0,0-.84,1.775,1.333,1.333,0,0,0,1.707.874l10.252-3.621a1.35,1.35,0,0,0,.4-.23" transform="translate(-1.776 -2.808)" fill="#3f2615"/>
              <path id="Path_51112" data-name="Path 51112" d="M7.683,38.142c-2.014-15.83,9.686-26.148,9.686-26.148C22.182,7.24,28.757,4.319,35.1,2.555c-1.163,2.454-3.14,6.749-1.936,5.193C36.457,3.485,44.973,1.065,48.545.207c4.314-.347,7.2-.189,7.2-.018.05,4.121-5.812,8.558-2.893,8.162,4.241-.569,7.929-6.464,8.715-5.918,12.747,8.843,14.47,21.1,15.13,28.068.776,8.136,2.739,34.439,2.739,34.439S76.726,49.763,75.961,44.06C74.539,33.447,65.912,24.91,58.123,30.414,52.649,34.287,48.562,35.749,40.006,36c-13.146.374-16.344.2-19.525.326-7,.289-9.009,7.3-8.167,13.527C12.878,54,14.76,73,14.76,73S9.075,49.081,7.683,38.142" transform="translate(-0.593 0)" fill="#774a07"/>
              <path id="Path_51113" data-name="Path 51113" d="M18.037,90.839A6.553,6.553,0,0,0,23.426,83.4a6.39,6.39,0,0,0-7.156-5.608l-4.968.727a6.554,6.554,0,0,0-5.385,7.442,6.383,6.383,0,0,0,7.15,5.6Z" transform="translate(-0.466 -3.348)" fill="#eaae86"/>
              <g id="Group_58135" data-name="Group 58135" transform="translate(9.238 78.375)" style="mix-blend-mode: multiply;isolation: isolate">
                <g id="Group_58134" data-name="Group 58134">
                  <g id="Group_58133" data-name="Group 58133" clip-path="url(#clip-path-8)">
                    <path id="Path_51114" data-name="Path 51114" d="M17.834,87.06a2.576,2.576,0,0,0,2.114-2.922,2.516,2.516,0,0,0-2.809-2.21l-4.968.726a2.58,2.58,0,0,0-2.111,2.928,2.506,2.506,0,0,0,2.8,2.2Z" transform="translate(-10.036 -81.903)" fill="#f2e6dc"/>
                  </g>
                </g>
              </g>
              <path id="Path_51115" data-name="Path 51115" d="M90.273,80.674a6.553,6.553,0,0,0,5.393-7.438,6.391,6.391,0,0,0-7.159-5.608l-4.964.727A6.559,6.559,0,0,0,78.151,75.8a6.388,6.388,0,0,0,7.158,5.6Z" transform="translate(-6.212 -2.91)" fill="#eaae86"/>
              <g id="Group_58138" data-name="Group 58138" transform="translate(75.724 68.649)" style="mix-blend-mode: multiply;isolation: isolate">
                <g id="Group_58137" data-name="Group 58137">
                  <g id="Group_58136" data-name="Group 58136" clip-path="url(#clip-path-9)">
                    <path id="Path_51116" data-name="Path 51116" d="M90.07,76.894a2.571,2.571,0,0,0,2.118-2.921,2.514,2.514,0,0,0-2.813-2.208l-4.964.726a2.579,2.579,0,0,0-2.118,2.929,2.508,2.508,0,0,0,2.811,2.2Z" transform="translate(-82.269 -71.739)" fill="#f2e6dc"/>
                  </g>
                </g>
              </g>
              <path id="Path_51117" data-name="Path 51117" d="M40.672,20.022c-17.795,2.6-30.614,16.6-28.11,35.1L18.366,98c2.5,18.5,19.349,34.268,37.145,31.664s29.806-22.592,27.3-41.09l-5.8-42.879c-2.5-18.5-18.544-28.274-36.336-25.671" transform="translate(-0.975 -0.845)" fill="#fcc49a"/>
              <path id="Path_51118" data-name="Path 51118" d="M47.869,90.475a9.436,9.436,0,0,0,4.691.209A13.071,13.071,0,0,0,57.1,89.193,4.293,4.293,0,0,1,53.289,94c-3.86.668-5.32-2.181-5.42-3.529" transform="translate(-3.808 -3.842)" fill="#e2a479"/>
              <path id="Path_51119" data-name="Path 51119" d="M58.157,57.953l9.909,3.8a1.337,1.337,0,0,0,1.73-.829,1.417,1.417,0,0,0-.8-1.8l-9.91-3.8a1.334,1.334,0,0,0-1.729.828,1.418,1.418,0,0,0,.8,1.8" transform="translate(-4.556 -2.379)" fill="#3f2615"/>
              <path id="Path_51120" data-name="Path 51120" d="M34.763,67.692a1.434,1.434,0,0,0,.437-1.545,1.336,1.336,0,0,0-1.708-.876L23.241,68.894a1.413,1.413,0,0,0-.84,1.775,1.333,1.333,0,0,0,1.707.874l10.252-3.621a1.35,1.35,0,0,0,.4-.23" transform="translate(-1.776 -2.808)" fill="#3f2615"/>
              <path id="Path_51121" data-name="Path 51121" d="M7.683,38.142c-2.014-15.83,9.686-26.148,9.686-26.148C22.182,7.24,28.757,4.319,35.1,2.555c-1.163,2.454-3.14,6.749-1.936,5.193C36.457,3.485,44.973,1.065,48.545.207c4.314-.347,7.2-.189,7.2-.018.05,4.121-5.812,8.558-2.893,8.162,4.241-.569,7.929-6.464,8.715-5.918,12.747,8.843,14.47,21.1,15.13,28.068.776,8.136,2.739,34.439,2.739,34.439S76.726,49.763,75.961,44.06C74.539,33.447,65.912,24.91,58.123,30.414,52.649,34.287,48.562,35.749,40.006,36c-13.146.374-16.344.2-19.525.326-7,.289-9.009,7.3-8.167,13.527C12.878,54,14.76,73,14.76,73S9.075,49.081,7.683,38.142" transform="translate(-0.593 0)" fill="#774a07"/>
              <path id="Path_51122" data-name="Path 51122" d="M18.037,90.839A6.553,6.553,0,0,0,23.426,83.4a6.39,6.39,0,0,0-7.156-5.608l-4.968.727a6.554,6.554,0,0,0-5.385,7.442,6.383,6.383,0,0,0,7.15,5.6Z" transform="translate(-0.466 -3.348)" fill="#eaae86"/>
              <g id="Group_58141" data-name="Group 58141" transform="translate(9.238 78.375)" style="mix-blend-mode: multiply;isolation: isolate">
                <g id="Group_58140" data-name="Group 58140">
                  <g id="Group_58139" data-name="Group 58139" clip-path="url(#clip-path-8)">
                    <path id="Path_51123" data-name="Path 51123" d="M17.834,87.06a2.576,2.576,0,0,0,2.114-2.922,2.516,2.516,0,0,0-2.809-2.21l-4.968.726a2.58,2.58,0,0,0-2.111,2.928,2.506,2.506,0,0,0,2.8,2.2Z" transform="translate(-10.036 -81.903)" fill="#f2e6dc"/>
                  </g>
                </g>
              </g>
              <path id="Path_51124" data-name="Path 51124" d="M90.273,80.674a6.553,6.553,0,0,0,5.393-7.438,6.391,6.391,0,0,0-7.159-5.608l-4.964.727A6.559,6.559,0,0,0,78.151,75.8a6.388,6.388,0,0,0,7.158,5.6Z" transform="translate(-6.212 -2.91)" fill="#eaae86"/>
              <g id="Group_58144" data-name="Group 58144" transform="translate(75.724 68.649)" style="mix-blend-mode: multiply;isolation: isolate">
                <g id="Group_58143" data-name="Group 58143">
                  <g id="Group_58142" data-name="Group 58142" clip-path="url(#clip-path-9)">
                    <path id="Path_51125" data-name="Path 51125" d="M90.07,76.894a2.571,2.571,0,0,0,2.118-2.921,2.514,2.514,0,0,0-2.813-2.208l-4.964.726a2.579,2.579,0,0,0-2.118,2.929,2.508,2.508,0,0,0,2.811,2.2Z" transform="translate(-82.269 -71.739)" fill="#f2e6dc"/>
                  </g>
                </g>
              </g>
              <path id="Path_51126" data-name="Path 51126" d="M40.672,20.022c-17.795,2.6-30.614,16.6-28.11,35.1L18.366,98c2.5,18.5,19.349,34.268,37.145,31.664s29.806-22.592,27.3-41.09l-5.8-42.879c-2.5-18.5-18.544-28.274-36.336-25.671" transform="translate(-0.975 -0.845)" fill="#fcc49a"/>
              <path id="Path_51127" data-name="Path 51127" d="M47.869,90.475a9.436,9.436,0,0,0,4.691.209A13.071,13.071,0,0,0,57.1,89.193,4.293,4.293,0,0,1,53.289,94c-3.86.668-5.32-2.181-5.42-3.529" transform="translate(-3.808 -3.842)" fill="#e2a479"/>
              <path id="Path_51128" data-name="Path 51128" d="M58.157,57.953l9.909,3.8a1.337,1.337,0,0,0,1.73-.829,1.417,1.417,0,0,0-.8-1.8l-9.91-3.8a1.334,1.334,0,0,0-1.729.828,1.418,1.418,0,0,0,.8,1.8" transform="translate(-4.556 -2.379)" fill="#3f2615"/>
              <path id="Path_51129" data-name="Path 51129" d="M34.763,67.692a1.434,1.434,0,0,0,.437-1.545,1.336,1.336,0,0,0-1.708-.876L23.241,68.894a1.413,1.413,0,0,0-.84,1.775,1.333,1.333,0,0,0,1.707.874l10.252-3.621a1.35,1.35,0,0,0,.4-.23" transform="translate(-1.776 -2.808)" fill="#3f2615"/>
              <path id="Path_51130" data-name="Path 51130" d="M7.683,38.142c-2.014-15.83,9.686-26.148,9.686-26.148C22.182,7.24,28.757,4.319,35.1,2.555c-1.163,2.454-3.14,6.749-1.936,5.193C36.457,3.485,44.973,1.065,48.545.207c4.314-.347,7.2-.189,7.2-.018.05,4.121-5.812,8.558-2.893,8.162,4.241-.569,7.929-6.464,8.715-5.918,12.747,8.843,14.47,21.1,15.13,28.068.776,8.136,2.739,34.439,2.739,34.439S76.726,49.763,75.961,44.06C74.539,33.447,65.912,24.91,58.123,30.414,52.649,34.287,48.562,35.749,40.006,36c-13.146.374-16.344.2-19.525.326-7,.289-9.009,7.3-8.167,13.527C12.878,54,14.76,73,14.76,73S9.075,49.081,7.683,38.142" transform="translate(-0.593 0)" fill="#774a07"/>
              <g id="Group_58147" data-name="Group 58147" transform="translate(67.524 121.549)" opacity="0.76">
                <g id="Group_58146" data-name="Group 58146">
                  <g id="Group_58145" data-name="Group 58145" clip-path="url(#clip-path-14)">
                    <path id="Path_51131" data-name="Path 51131" d="M90.467,129.724l-10.091-2.7a180.661,180.661,0,0,0-6.892,45.244c-.457,23.414.5,48.518.5,48.518L88.94,171.289l-9.022-8.878,10.285-3.2Z" transform="translate(-73.36 -127.02)" fill="#0d2528"/>
                  </g>
                </g>
              </g>
              <path id="Path_51132" data-name="Path 51132" d="M90.517,129.088,78.77,125.806a180.608,180.608,0,0,0-6.894,45.243c-.457,23.414,1.984,49.681,1.984,49.681l13.473-50.655-9.021-8.88L88.6,158Z" transform="translate(-5.713 -5.419)" fill="#334f57"/>
              <g id="Group_58150" data-name="Group 58150" transform="translate(41.663 97.749)" opacity="0.34" style="mix-blend-mode: multiply;isolation: isolate">
                <g id="Group_58149" data-name="Group 58149">
                  <g id="Group_58148" data-name="Group 58148" clip-path="url(#clip-path-15)">
                    <path id="Path_51133" data-name="Path 51133" d="M46.218,108.132a.932.932,0,0,1-.614-.233,1.022,1.022,0,0,1-.117-1.4c.069-.084,6.928-8.349,17.7-1.877a1.015,1.015,0,0,1,.349,1.357.935.935,0,0,1-1.305.363c-9.394-5.644-15.039,1.144-15.276,1.435a.939.939,0,0,1-.733.354" transform="translate(-45.264 -102.149)" fill="#a3673a"/>
                  </g>
                </g>
              </g>
              <path id="Path_51134" data-name="Path 51134" d="M35.674,78.737a3.427,3.427,0,1,1-3.424-3.56,3.493,3.493,0,0,1,3.424,3.56" transform="translate(-2.293 -3.238)" fill="#3f2919"/>
              <path id="Path_51135" data-name="Path 51135" d="M71.235,73.72a3.427,3.427,0,1,1-3.424-3.56,3.494,3.494,0,0,1,3.424,3.56" transform="translate(-5.122 -3.022)" fill="#3f2919"/>
              <g id="Group_58153" data-name="Group 58153" transform="translate(14.868 72.747)" opacity="0.44">
                <g id="Group_58152" data-name="Group 58152">
                  <g id="Group_58151" data-name="Group 58151" clip-path="url(#clip-path-16)">
                    <path id="Path_51136" data-name="Path 51136" d="M55.243,82.233c.429-1.8,3.848-3.056,5.988-3.522,4.072-.894,12.614-2.657,17.208-2.689,4.594-.051,4.358,2.276,4.627,5.53.251,2.891.278,5.858-5.052,7.339a69.188,69.188,0,0,1-15.306,2.22c-4.251.109-5.809-1.322-6.749-3.238a8.985,8.985,0,0,1-.715-5.639m-35.619,2.32c4.423-1.277,13.107-2.013,17.251-2.311,2.187-.16,5.806.073,6.693,1.685a9.146,9.146,0,0,1,.805,5.626c-.4,2.111-1.535,3.931-5.642,5.034a69.073,69.073,0,0,1-15.314,2.222c-5.5.091-6.263-2.769-6.791-5.621-.59-3.208-1.412-5.381,3-6.635" transform="translate(-16.153 -76.022)" fill="#fff"/>
                  </g>
                </g>
              </g>
              <path id="Path_51137" data-name="Path 51137" d="M86.133,74.8a1.29,1.29,0,0,0-1.051-.218,35.726,35.726,0,0,1-3.663.187c-.638.016-1.342.032-2.124.056a99.04,99.04,0,0,0-9.855.989c-3.436.5-6.567,1.094-9.059,1.717a32.782,32.782,0,0,0-6.117,2.208,18.17,18.17,0,0,1-11.611,1.683,32.708,32.708,0,0,0-6.467-.382c-2.553.108-5.719.428-9.154.926-3.694.535-7.336,1.23-9.748,1.851-.763.2-1.451.39-2.07.556a34.964,34.964,0,0,1-3.551.857,1.343,1.343,0,0,0-.97.517,2.071,2.071,0,0,0-.138,1.542l.272,2c.141,1.05.8,1.248,1.617,1.5.682.2,1.4,1.066,2.021,2.421.059.138.122.294.19.467.657,1.717,1.884,4.916,9.763,4.393,2.379-.163,4.669-.4,6.8-.713a55.841,55.841,0,0,0,9.83-2.252c3.037-1.034,3.978-3.618,4.812-5.9.725-1.985,1.35-3.7,3.22-3.973s2.922,1.2,4.141,2.9c1.4,1.958,2.98,4.173,6.178,4.3a55.594,55.594,0,0,0,10.05-.632c2.137-.307,4.4-.733,6.739-1.252,7.723-1.742,8.047-5.173,8.222-7.017.014-.18.032-.344.054-.487A4.331,4.331,0,0,1,85.8,80.129c.681-.442,1.275-.826,1.131-1.885l-.23-1.723c-.013-.094-.024-.192-.034-.291a2,2,0,0,0-.531-1.433m-4.077,5.975.059.771c.272,3.118.091,5.61-4.8,6.97a61.035,61.035,0,0,1-7.383,1.509,69.616,69.616,0,0,1-7.846.7c-4.3.11-5.642-1.4-6.451-3.049a8.693,8.693,0,0,1-.69-5.4c.353-1.46,3.222-2.717,5.743-3.266,3.014-.664,7.436-1.571,11.371-2.142a44.98,44.98,0,0,1,5.764-.541c3.91-.042,4.025,1.552,4.236,4.441m-39.4,3.29a8.684,8.684,0,0,1,.767,5.385c-.345,1.812-1.239,3.649-5.4,4.764a69.723,69.723,0,0,1-7.743,1.564,60.786,60.786,0,0,1-7.493.648c-5.048.082-5.887-2.261-6.456-5.335l-.142-.749c-.553-2.848-.86-4.417,2.906-5.488a44.724,44.724,0,0,1,5.679-1.12c3.933-.572,8.427-.956,11.5-1.178,2.568-.19,5.66.2,6.38,1.51" transform="translate(-0.833 -3.211)" fill="#052c35"/>
              <g id="Group_58156" data-name="Group 58156" transform="translate(46.605 102.048)" opacity="0.34" style="mix-blend-mode: multiply;isolation: isolate">
                <g id="Group_58155" data-name="Group 58155">
                  <g id="Group_58154" data-name="Group 58154" clip-path="url(#clip-path-17)">
                    <path id="Path_51138" data-name="Path 51138" d="M51.587,109.553a.929.929,0,0,1-.652-.266,1.01,1.01,0,0,1-.062-1.377c.075-.087,1.885-2.108,5.844-.867a1,1,0,0,1,.639,1.238.949.949,0,0,1-1.192.664c-2.728-.858-3.84.261-3.886.311a.952.952,0,0,1-.691.3" transform="translate(-50.632 -106.641)" fill="#a3673a"/>
                  </g>
                </g>
              </g>
              <g id="Group_58159" data-name="Group 58159" transform="translate(42.824 96.256)" opacity="0.37" style="mix-blend-mode: multiply;isolation: isolate">
                <g id="Group_58158" data-name="Group 58158">
                  <g id="Group_58157" data-name="Group 58157" clip-path="url(#clip-path-18)">
                    <path id="Path_51139" data-name="Path 51139" d="M79.376,117.587s.585-2.73-2.771-1.971-8.9,6.977-8.9,6.977a119.546,119.546,0,0,0-11.233-18.2c-2.223-2.85-2.962-3.619-4.377-3.79-.859-.105-3.311.611-1.605,3.183a61.268,61.268,0,0,1,6.421,12.289s-1.267-1.348-3.358.3c-1.579,1.248-1.166,3.642-1.166,3.642a2.751,2.751,0,0,0-2.482.3,2.848,2.848,0,0,0-1.166,2.883s-2.481.907-2.188,3.032a32.556,32.556,0,0,0,2.765,6.719,27.141,27.141,0,0,0,8.924.2,28.117,28.117,0,0,0,12.4-5.122c2.929-5.706,8.738-10.442,8.738-10.442" transform="translate(-46.525 -100.589)" fill="#e2a479"/>
                  </g>
                </g>
              </g>
              <g id="Group_58162" data-name="Group 58162" transform="translate(61.127 141.502)" opacity="0.29" style="mix-blend-mode: multiply;isolation: isolate">
                <g id="Group_58161" data-name="Group 58161">
                  <g id="Group_58160" data-name="Group 58160" clip-path="url(#clip-path-19)">
                    <path id="Path_51140" data-name="Path 51140" d="M106.747,148.457c3.026,2.98,3.463,13.18,3.29,17.912-.637,17.552-6.774,37.434-16.067,51.322-13.16,19.666-32.327,8.644-26.476-10.017,3.543-11.3,11.119-14.6,19.23-42.088,1.662-5.629,5-10.958,8.6-13.909,2.1-1.72,9.427-5.186,11.423-3.22" transform="translate(-66.411 -147.871)" fill="#243f47"/>
                  </g>
                </g>
              </g>
              <path id="Path_51141" data-name="Path 51141" d="M105.19,141.905a14.654,14.654,0,0,1,4.619,11.426c-.638,17.551-8.549,40.365-21.184,62.26-10.512,18.215-27.511,7.9-21.661-10.763,3.543-11.3,12.277-21.688,20.387-49.18,1.662-5.63,5-10.958,8.6-13.909,2.1-1.72,7.243-1.8,9.239.166" transform="translate(-5.232 -6.049)" fill="#243f47"/>
              <g id="Group_58165" data-name="Group 58165" transform="translate(61.782 160.185)" opacity="0.22" style="mix-blend-mode: multiply;isolation: isolate">
                <g id="Group_58164" data-name="Group 58164">
                  <g id="Group_58163" data-name="Group 58163" clip-path="url(#clip-path-20)">
                    <path id="Path_51142" data-name="Path 51142" d="M84.03,167.395c-6.989,19.719-13.837,28.781-16.908,38.442a103.357,103.357,0,0,0,2.338,12.407c4.239,14.688,12.556,2.371,15.769-1.326,2.652-3.05,3.5-15.347,2.389-24.009-1.121-8.782-2.434-17.872-3.588-25.513" transform="translate(-67.121 -167.395)" fill="#152429"/>
                  </g>
                </g>
              </g>
              <g id="Group_58168" data-name="Group 58168" transform="translate(28.762 209.395)" opacity="0.3" style="mix-blend-mode: multiply;isolation: isolate">
                <g id="Group_58167" data-name="Group 58167">
                  <g id="Group_58166" data-name="Group 58166" clip-path="url(#clip-path-21)">
                    <path id="Path_51143" data-name="Path 51143" d="M93.78,237.966s2.854-1.5,2.013-3.811c-.714-1.963-3.454-1.124-3.454-1.124s2.185-1.2,1.7-3.231c-.442-1.861-2.2-1.938-3.235-1.736-13.343,2.606-18.27,1.485-18.715,1.725a67.545,67.545,0,0,1,4.258-6.926c1.059-1.351,1.245-2.708.042-3.712-1.331-1.109-3.41.928-3.41.928a94.39,94.39,0,0,0-10.268,9.01l-.049-.532-2.969.482c-.022-.423-.028-.722-.017-.855l-28.431-2.1c.347,9.667.494,18.211.494,18.211l.283,7.378c12.571-1.017,29.327-3.864,29.327-3.864l-.073-.734,3.059-.26-.116-1.258a62.33,62.33,0,0,0,11.225,2.376c5.127.355,10.951.082,15.729-2.236,3.244-1.573,2.216-3.418,2.216-3.418s2.321-1.126,1.863-2.875a1.747,1.747,0,0,0-1.473-1.436" transform="translate(-31.247 -218.82)" fill="#0d2528"/>
                  </g>
                </g>
              </g>
              <path id="Path_51144" data-name="Path 51144" d="M61.743,233.8c-.168-2.407.158-4.143,2.469-7.188C67.126,222.783,75.4,216.5,75.4,216.5s2.079-2.037,3.41-.928c1.2,1,1.015,2.361-.043,3.712a67.8,67.8,0,0,0-4.258,6.926c.445-.24,5.373.88,18.715-1.724,1.037-.2,2.794-.125,3.236,1.735.481,2.033-1.7,3.232-1.7,3.232s2.741-.838,3.454,1.125c.841,2.311-2.013,3.81-2.013,3.81a1.747,1.747,0,0,1,1.473,1.436c.458,1.748-1.862,2.875-1.862,2.875s1.028,1.845-2.216,3.419c-4.778,2.318-10.6,2.59-15.728,2.235-3.583-.249-12.543-2.361-14.26-3.634-2.419-1.794-1.716-4.706-1.866-6.921" transform="translate(-4.909 -9.271)" fill="#e8ad85"/>
              <path id="Path_51145" data-name="Path 51145" d="M61.2,226.04l3.823-.62,1.672,18.256-5.853.5Z" transform="translate(-4.84 -9.71)" fill="#fff"/>
              <path id="Path_51146" data-name="Path 51146" d="M57.192,224.846l-55.427-4.1s-3.225,9.563-.955,16.764c2.6,8.244,11.541,11.21,21.5,11.178,11.946-.04,36.554-4.222,36.554-4.222s-1.791-18.256-1.672-19.623" transform="translate(0 -9.508)" fill="#243f47"/>
              <path id="Path_51147" data-name="Path 51147" d="M73.721,153.47s-3.438-15.756-2.708-19.7c1.359-7.348,10.211-14.562,10.211-14.562s.584-2.73-2.771-1.97-8.9,6.976-8.9,6.976a119.682,119.682,0,0,0-11.233-18.2c-2.223-2.851-2.962-3.618-4.377-3.791-.861-.1-3.312.611-1.605,3.184a61.241,61.241,0,0,1,6.42,12.288s-1.267-1.346-3.358.3c-1.579,1.247-1.166,3.641-1.166,3.641a2.746,2.746,0,0,0-2.481.3,2.848,2.848,0,0,0-1.167,2.882s-2.481.91-2.189,3.032c.207,1.51,2.772,7.282,5.4,11.378a12.613,12.613,0,0,0,6.856,5.157l2.517,10.937Z" transform="translate(-3.848 -4.403)" fill="#ffd2b3"/>
              <path id="Path_51148" data-name="Path 51148" d="M75.11,151.867c.16-.662-1.274-6.955-1.274-6.955l-15.768,3.975,1.116,7.782Z" transform="translate(-4.619 -6.242)" fill="#d8eaef"/>
              <path id="Path_51149" data-name="Path 51149" d="M87.466,209.618,75.678,147.853l-18.475,5.3s3.664,48.682,7.486,61.929c4.239,14.688,13.539,10.762,18.635,6.292,4.068-3.567,4.142-11.756,4.142-11.756" transform="translate(-4.551 -6.369)" fill="#243f47"/>
            </g>
          </g>
        </g>
      </g>
      <g id="Group_58172" data-name="Group 58172" transform="translate(481.09 30.481)">
        <path id="Path_51088" data-name="Path 51088" d="M15.651,0H128.335c8.644,0,15.651,7.285,15.651,16.271V71.592c0,8.986-7.007,16.271-15.651,16.271H42.811L15.651,106.781V87.863C7.007,87.863,0,80.578,0,71.592V16.271C0,7.285,7.007,0,15.651,0Z" fill="#ff4929"/>
        <text id="NO" transform="translate(68.839 53.916)" fill="#fff" font-size="42" font-family="Poppins-Medium, Poppins" font-weight="500"><tspan x="-31.479" y="0">NO</tspan></text>
      </g>
      <g id="Group_58173" data-name="Group 58173" transform="translate(0 26.321)">
        <path id="Path_51088-2" data-name="Path 51088" d="M15.651,0H128.335c8.644,0,15.651,7.285,15.651,16.271V71.592c0,8.986-7.007,16.271-15.651,16.271v23.078L96.75,87.863h-81.1C7.007,87.863,0,80.578,0,71.592V16.271C0,7.285,7.007,0,15.651,0Z" fill="#ff4929"/>
        <text id="YES" transform="translate(68.841 55.131)" fill="#fff" font-size="43" font-family="Poppins-Medium, Poppins" font-weight="500"><tspan x="-36.786" y="0">YES</tspan></text>
      </g>
    </g>
  </g>
</svg>
