<svg xmlns="http://www.w3.org/2000/svg" xmlns:xlink="http://www.w3.org/1999/xlink" width="100%" height="100%" viewBox="0 0 923.001 483"><defs><style>.a{fill:#42424f;}.a,.c{stroke:#42424f;}.b{clip-path:url(#a);}.c{fill:#492c25;}.d{fill:#1a1a1a;}.e{opacity:0.255;}.f{fill-rule:evenodd;}.g{fill:#f15a5c;}.h,.k,.m{fill:#fff;}.i{fill:#e3e3e3;}.j{fill:#e8d909;}.l{fill:#f54f4f;}.m{stroke:#fff;}.n{fill:#6cc959;}.o,.q{stroke:none;}.p{fill:none;}.q{fill:#fff;}.r{filter:url(#f);}.s{filter:url(#d);}.t{filter:url(#b);}</style><clipPath id="a"><rect class="a" width="779.002" height="393.64" rx="2"/></clipPath><filter id="b" x="816.619" y="146.825" width="106.382" height="106.382" filterUnits="userSpaceOnUse"><feOffset input="SourceAlpha"/><feGaussianBlur stdDeviation="1" result="c"/><feFlood flood-opacity="0.412"/><feComposite operator="in" in2="c"/><feComposite in="SourceGraphic"/></filter><filter id="d" x="816.619" y="293.648" width="106.382" height="106.382" filterUnits="userSpaceOnUse"><feOffset input="SourceAlpha"/><feGaussianBlur stdDeviation="1" result="e"/><feFlood flood-opacity="0.412"/><feComposite operator="in" in2="e"/><feComposite in="SourceGraphic"/></filter><filter id="f" x="816.619" y="0" width="106.382" height="106.382" filterUnits="userSpaceOnUse"><feOffset input="SourceAlpha"/><feGaussianBlur stdDeviation="1" result="g"/><feFlood flood-opacity="0.412"/><feComposite operator="in" in2="g"/><feComposite in="SourceGraphic"/></filter></defs><g transform="translate(0 3)"><g transform="translate(0 0)"><g transform="translate(0 0)"><g transform="translate(0)"><g class="b" transform="translate(0)"><g class="c"><rect class="o" width="779.002" height="393.64" rx="2"/><rect class="p" x="0.5" y="0.5" width="778.002" height="392.64" rx="1.5"/></g><g transform="translate(224.813 127.687) rotate(-7)"><path class="d" d="M-13353.275,12990.533h-184.837v-117.5h184.837v117.5Zm-138.089-.253c15.188,0,23.637,0,29.161.018a6.032,6.032,0,0,0,2.056-.333.55.55,0,0,0,.347-.269,1.722,1.722,0,0,0,.105-1.022c-.343-1.959-.763-4.154-1.25-6.523-.114-.529-.24-1.189-.374-1.961-.19-1.028-.333-1.761-.462-2.375-.033-.16-.056-.291-.068-.4s-.042-.249-.069-.385l0-.026c-.483-2.217-.795-3.6-.928-4.108-.294-1.13-.612-2.224-.948-3.251a.144.144,0,0,1,.062-.174,5.055,5.055,0,0,0,.724-.561,16.134,16.134,0,0,0,1.828-1.933,24.62,24.62,0,0,0,2.272-3.489c.122-.225.234-.479.343-.723l.049-.109c.038-.084.075-.168.114-.252a6.8,6.8,0,0,0,.33-.833c.122-.372.218-.667.287-.883.09-.277.137-.422.145-.436.091-.365.192-.842.3-1.416a7.756,7.756,0,0,0,.119-1.435c0-.167,0-.759,0-1.352a8.006,8.006,0,0,0-.109-1.346,8.639,8.639,0,0,0-2.049-4.132,10.036,10.036,0,0,0-1.95-1.613c-.313-.209-.918-.569-1.678-1.02a9.628,9.628,0,0,1-3.041-2.653,5.789,5.789,0,0,1-.707-1.274,9.526,9.526,0,0,1-.387-1.4,2.386,2.386,0,0,1-.048-.806,11.084,11.084,0,0,1,.615-2.409,22.314,22.314,0,0,1,1.029-2.238,34.018,34.018,0,0,0,1.672-3.979,6.252,6.252,0,0,0,.21-.689l.046-.2.029-.122a11.954,11.954,0,0,0,.288-1.466,13.72,13.72,0,0,0,.065-2.358c-.021-.3-.052-.936-.085-1.729-.013-.333-.064-.808-.163-1.491-.028-.221-.042-.459-.054-.685l0-.059c-.011-.193-.022-.393-.045-.582a27.862,27.862,0,0,0-1.073-4.9c-.271-.853-.493-1.536-.689-2.1a43.373,43.373,0,0,0-2.453-5.609c-.3-.57-.62-1.132-.982-1.716-.288-.462-.672-1.069-1.091-1.672a19.11,19.11,0,0,0-4.006-4.271,20.536,20.536,0,0,0-2.962-1.947,20.757,20.757,0,0,0-4.38-1.679c-.173-.041-.788-.158-1.954-.353a7.109,7.109,0,0,0-.972-.116c-.275,0-.557-.027-.828-.051h-.01c-.269-.023-.6-.053-.919-.053-.136,0-.265.006-.394.017-.523.054-.975.085-1.342.095a5.917,5.917,0,0,0-.758.089c-.095.016-.18.03-.258.045h-.007a3.6,3.6,0,0,1-.643.077,2.51,2.51,0,0,1-.448-.045c-.159-.029-.347-.055-.592-.082l-.112-.013-.031,0c-.241-.029-.514-.062-.764-.068-.573,0-.953-.006-1.272-.006-.338,0-.622,0-.867.006-.215,0-.419.021-.664.045l-.02,0c-.182.017-.37.034-.563.042-.109.011-.417.046-.921.136-.3.056-.627.106-.989.156-.414.062-.736.12-.985.177a24,24,0,0,0-8.075,3.5,24.742,24.742,0,0,0-3.8,3.109,28.49,28.49,0,0,0-5.545,7.8,26.055,26.055,0,0,0-1.834,5.273c-.071.319-.119.631-.165.932l0,.02c-.041.273-.088.582-.155.883a4.928,4.928,0,0,0-.094.717c-.009.108-.02.239-.035.392-.027.285-.044.565-.048.832v2.6c0,.378.021.97.051,1.811.026.557.035,1.229.041,1.814a8.574,8.574,0,0,0,.1,1.187c.084.587.14,1.166.167,1.722a12.317,12.317,0,0,0,.166,1.3,11.614,11.614,0,0,1,.167,1.28c.054.724.127,1.4.218,2.012a9.082,9.082,0,0,1,.092,1.636v.026c0,.1,0,.2,0,.3a11.921,11.921,0,0,1-.1,1.479c-.07.487-.133,1.013-.187,1.56-.077.626-.156,1.131-.241,1.542a32.055,32.055,0,0,1-2.134,6.571c-.718,1.612-1.289,2.862-1.7,3.717-.292.608-.691,1.621-1.224,3.1a11.21,11.21,0,0,0-.354,1.148c-.1.4-.2.782-.3,1.161a5.466,5.466,0,0,0-.105.921c0,.032-.015.112-.033.242-.009.063-.019.136-.03.221l-.024.176c-.045.271-.072.506-.089.646a10.139,10.139,0,0,0,.2,2.609,7.361,7.361,0,0,0,1.831,3.771,8.613,8.613,0,0,0,3.011,1.954,1.915,1.915,0,0,0,.281.086l.025.007c.07.018.136.035.2.057a.114.114,0,0,1,.085.152c-.313,1.238-.536,2.216-.642,2.827-.042.238-.112.605-.241,1.268-.087.428-.146.853-.2,1.263s-.108.789-.182,1.163c-.066.348-.1.666-.138,1.068v.014q-.015.149-.032.319l0,.032c-.038.394-.082.755-.132,1.074a11.181,11.181,0,0,0-.181,1.423,10.362,10.362,0,0,1-.108,1.421c-.067.544-.113,1.006-.14,1.413-.035.562-.061.97-.071,1.111a9.154,9.154,0,0,0-.037,1.107,13.906,13.906,0,0,1-.16,2.263,2.446,2.446,0,0,0,.306,1.607,1.106,1.106,0,0,0,.86.584c.263.034.468.055.55.055C-13509.6,12990.281-13501.229,12990.28-13491.364,12990.28Zm29.484-1.9h-9.962a.129.129,0,0,1-.146-.146,16.417,16.417,0,0,0-.112-1.961,12.817,12.817,0,0,1-.1-1.461q0-.886-.006-1.242c0-.117,0-.191,0-.222a3.584,3.584,0,0,0-.037-.487v-.019a4.017,4.017,0,0,1-.039-.459c-.024-.99-.073-1.817-.149-2.531a14.394,14.394,0,0,1-.095-1.461v-1.468a3.76,3.76,0,0,0-.046-.479l0-.012a3.932,3.932,0,0,1-.051-.519,24.652,24.652,0,0,0-.153-2.616,14.922,14.922,0,0,1-.081-1.968v-.17c0-.12,0-.246,0-.38a2.682,2.682,0,0,0-.234-1.2.614.614,0,0,0-.466-.381,1.149,1.149,0,0,0-.269-.03,1.43,1.43,0,0,0-.625.152.2.2,0,0,0-.095.089,2.33,2.33,0,0,0-.166,1.346l0,.047.007.149c.012.256.02.451.02.636v.3c0,.581,0,.965.044,1.511.026.452.048.941.064,1.454.018.555.064,1.15.139,1.771a19.316,19.316,0,0,1,.092,2.148v.051c0,.168,0,.343,0,.525a2.9,2.9,0,0,0,.031.344,2.758,2.758,0,0,1,.033.359,29.779,29.779,0,0,0,.187,3.095,15.119,15.119,0,0,1,.072,1.61c0,.159,0,.33.006.517,0,.381.027.863.058,1.455.009.173.019.349.028.527l.009.161q.021.374.041.762a.209.209,0,0,1-.044.157.2.2,0,0,1-.149.05h-32.393a.156.156,0,0,1-.174-.173q.007-6.11.01-10.153l0-2.085c0-1.978,0-3.405.006-4.376,0-.354-.011-.631-.034-.9a1.02,1.02,0,0,0-.917-1.016.875.875,0,0,0-.229.03c-.64.17-.73.776-.733,1.407v16.8a2.066,2.066,0,0,0,.023.295c.007.071-.023.112-.088.119a1.97,1.97,0,0,1-.422.044h-8.382a.139.139,0,0,1-.156-.156,5.736,5.736,0,0,1,.049-.575l0-.032a5.417,5.417,0,0,0,.043-.567c0-.144,0-.28,0-.413v-.012a18.408,18.408,0,0,1,.074-1.842c.12-1.166.2-2.121.241-2.919a14.355,14.355,0,0,1,.156-1.532c.084-.533.14-1.036.17-1.535a11.747,11.747,0,0,1,.2-1.4c0-.027.012-.084.022-.17.05-.36.1-.774.164-1.23.076-.57.273-1.645.57-3.105.243-1.182.55-2.386.911-3.577a29.817,29.817,0,0,1,1.332-3.558,14.759,14.759,0,0,1,.934-1.771,16.5,16.5,0,0,1,3-3.574,19.348,19.348,0,0,1,1.6-1.234c.062-.044.125-.089.188-.136l.211-.151a.41.41,0,0,1,.2-.1.048.048,0,0,1,.041.019c.024.033.017.11-.022.229-.1.313-.194.572-.295.829s-.187.51-.286.829c-.432,1.373-.81,2.619-1.121,3.7a1.484,1.484,0,0,0,.347,1.57,1.577,1.577,0,0,0,.883.212,3.081,3.081,0,0,0,.959-.147c1.574-.58,2.5-.945,2.722-1.05a6.134,6.134,0,0,1,.812-.344.411.411,0,0,1,.132-.024.3.3,0,0,1,.259.157,29.992,29.992,0,0,0,2.386,3.367c.478.562.849,1.01,1.073,1.3.311.39.723.9,1.159,1.38a.52.52,0,0,1,.108.221c.089.513.225,1.181.425,2.1a7.655,7.655,0,0,0,.262.86l.037.107c.028.082.058.168.088.259a1.957,1.957,0,0,0,1.187,1.271,1.683,1.683,0,0,0,.289.026,1.3,1.3,0,0,0,.479-.088,1.676,1.676,0,0,0,.765-.887c.2-.41.407-.883.628-1.447.135-.343.574-1.289,1.2-2.6.04-.085.12-.227.231-.423l.015-.026.016-.026a.136.136,0,0,1,.071-.059,2.342,2.342,0,0,1,.256-.078,1.691,1.691,0,0,0,.471-.184c.258-.155.59-.383.985-.676.454-.339.795-.589.959-.7,3.439-2.385,5.534-3.854,6.058-4.247.491-.375,1.03-.765,1.647-1.192a.3.3,0,0,1,.167-.058.283.283,0,0,1,.159.054,4.322,4.322,0,0,1,.67.51c1.171,1.023,1.763,1.562,1.98,1.8.263.288.652.746,1.227,1.443a1.875,1.875,0,0,0,.853.619.672.672,0,0,0,.216.036c.51,0,.922-.574,1.052-.981a2.321,2.321,0,0,0,.087-.6v-.006a3.48,3.48,0,0,1,.042-.408c.11-.593.2-1.22.252-1.862.058-.619.123-1.118.2-1.525.04-.2.079-.526.133-1.02.032-.312.08-.634.149-1.016.144-.746.252-1.445.329-2.138a.211.211,0,0,1,.105-.156.194.194,0,0,1,.088-.021.2.2,0,0,1,.1.028,11.45,11.45,0,0,1,2.145,1.431,17.039,17.039,0,0,1,2.232,2.358,26.837,26.837,0,0,1,2.245,3.51,35.157,35.157,0,0,1,2.518,6.047,48.23,48.23,0,0,1,1.23,4.818l.258,1.268c.293,1.412.584,2.908.891,4.573.118.615.324,1.647.733,3.683.109.507.179.861.218,1.07.038.226.115.612.23,1.2l.042.214.043.215a.228.228,0,0,1-.024.2A.227.227,0,0,1-13461.88,12988.381Zm-34.6-3.449a1.05,1.05,0,0,0-.3.042,1.236,1.236,0,0,0-.445.234,1.423,1.423,0,0,0-.322.407,1.611,1.611,0,0,0-.146.514,1.362,1.362,0,0,0,.055.536,1.433,1.433,0,0,0,.237.493,1.391,1.391,0,0,0,.391.363,1.2,1.2,0,0,0,.479.174,1.048,1.048,0,0,0,.19.017,1.394,1.394,0,0,0,.315-.037,1.251,1.251,0,0,0,.442-.234,1.386,1.386,0,0,0,.322-.408,1.5,1.5,0,0,0,.146-.51,1.521,1.521,0,0,0-.052-.543,1.349,1.349,0,0,0-.241-.489,1.313,1.313,0,0,0-.387-.364,1.288,1.288,0,0,0-.482-.18A1.4,1.4,0,0,0-13496.484,12984.932Zm.293-6.709a1.164,1.164,0,0,0-.27.03,1.342,1.342,0,0,0-.507.207,1.381,1.381,0,0,0-.391.384,1.439,1.439,0,0,0-.217.5,1.468,1.468,0,0,0-.011.547,1.416,1.416,0,0,0,.2.5,1.429,1.429,0,0,0,.374.388,1.484,1.484,0,0,0,.5.207,1.331,1.331,0,0,0,.269.024,1.42,1.42,0,0,0,.274-.024,1.436,1.436,0,0,0,.5-.207,1.42,1.42,0,0,0,.391-.388,1.479,1.479,0,0,0,.218-.5,1.492,1.492,0,0,0,.01-.547,1.379,1.379,0,0,0-.2-.507,1.522,1.522,0,0,0-.37-.384,1.392,1.392,0,0,0-.5-.207A1.166,1.166,0,0,0-13496.191,12978.223Zm-2.907-11.04c-.01,0-.019-.011-.022-.017a1.727,1.727,0,0,0-.112-.166c-1.093-1.49-1.89-2.646-2.437-3.53a3.174,3.174,0,0,0-.57-.595.931.931,0,0,0-.53-.23c-.086,0-.164-.007-.241-.007a2.2,2.2,0,0,0-.85.146c-1.225.507-2.282.944-3.074,1.265a.186.186,0,0,1-.066.013.163.163,0,0,1-.107-.044.146.146,0,0,1-.037-.166.9.9,0,0,1,.07-.149.736.736,0,0,0,.086-.194c.151-.567.3-1.055.441-1.491l.237-.723q.22-.672.423-1.288l.2-.608c.171-.536.4-1.122.594-1.639l.021-.055c.1-.257.18-.466.248-.651.2-.525.4-1.01.6-1.437.243-.521.482-1,.693-1.4a.653.653,0,0,1,.422-.353.509.509,0,0,1,.123-.014,1.585,1.585,0,0,1,.383.061,16.888,16.888,0,0,1,1.9.595.6.6,0,0,1,.322.252.7.7,0,0,1,.078.373c0,.164,0,.29,0,.371v.078c.047.715.122,1.429.222,2.123.059.406.1.879.136,1.444a13.574,13.574,0,0,0,.163,1.624,12.185,12.185,0,0,1,.149,1.332,15.173,15.173,0,0,0,.207,1.868,8.318,8.318,0,0,1,.112.955c.016.151.046.455.095.954a4.98,4.98,0,0,0,.126.654l.006.023c.032.13.061.247.082.362a.263.263,0,0,1-.078.251A.023.023,0,0,1-13499.1,12967.183Zm8.257-.146c-.007,0-.013,0-.017-.016a.227.227,0,0,1,.014-.119,3.18,3.18,0,0,1,.384-.666c1.306-1.922,2.485-3.562,3.507-4.872.966-1.247,2.03-2.527,3.166-3.806.522-.586,1.162-1.25,1.9-1.974a7.948,7.948,0,0,1,1.447-1.111,5.451,5.451,0,0,1,1.4-.574l1.553-.411.015,0,.015,0,.039,0c.078,0,.132.047.159.14l.015.05.021.077a4.549,4.549,0,0,1,.2.943c.014.268.051.608.108,1.013a2.042,2.042,0,0,0,.177.72,2.346,2.346,0,0,1,.225.438.736.736,0,0,1,0,.452,7.751,7.751,0,0,0-.164.975c-.031.247-.061.477-.1.684a10.481,10.481,0,0,0-.214,1.287,11.123,11.123,0,0,1-.177,1.281,11.977,11.977,0,0,0-.152,1.288c-.041.53-.093.968-.156,1.338a.252.252,0,0,1-.112.167.046.046,0,0,1-.029.01.135.135,0,0,1-.08-.04,32.7,32.7,0,0,0-3.03-2.715,2.552,2.552,0,0,0-1.353-.547.76.76,0,0,0-.086,0,1.854,1.854,0,0,0-1,.409l-.042.027-.056.036c-.184.122-.337.23-.473.325l-.02.015c-2.042,1.521-4.14,3.033-6.235,4.5-.176.124-.377.3-.555.452l-.007.006,0,0c-.1.09-.194.167-.264.222A.019.019,0,0,1-13490.842,12967.036Zm-.879-14.682c-.119,0-.256,0-.436,0a8.269,8.269,0,0,1-1.107-.089,21.528,21.528,0,0,1-2.848-.635.982.982,0,0,1-.312-.149.183.183,0,0,1-.048-.1l-.159-1.831a.126.126,0,0,1,.022-.1.128.128,0,0,1,.1-.034h.01c.116,0,.229.008.334.008a11.461,11.461,0,0,0,2.605-.36,8.54,8.54,0,0,0,2.592-1.084,2.4,2.4,0,0,0,.564-.53.808.808,0,0,0,.107-.882.909.909,0,0,0-.812-.509.991.991,0,0,0-.139.011,2.673,2.673,0,0,0-.751.326,7.333,7.333,0,0,1-2.467.959,18.538,18.538,0,0,1-1.879.207c-.082,0-.175.008-.283.008a5.809,5.809,0,0,1-.688-.042c-.111-.01-.236-.02-.354-.027l-.033,0a8.6,8.6,0,0,1-.9-.1,9.576,9.576,0,0,1-4.394-2.035,11.693,11.693,0,0,1-1.365-1.406,9.289,9.289,0,0,1-1.1-1.6,18.125,18.125,0,0,1-1.927-5.083c-.044-.205-.138-.672-.274-1.484a15.03,15.03,0,0,1-.187-1.5,40.273,40.273,0,0,1-.03-4.869c.01-.162.023-.353.055-.574a6.288,6.288,0,0,0,.03-.761,4.634,4.634,0,0,1,.041-.781c.114-.634.21-1.285.295-1.991.022-.178.059-.357.094-.53l.007-.035,0-.008c.042-.209.082-.406.1-.6a3.835,3.835,0,0,1,.174-.777.186.186,0,0,1,.156-.144c.358-.092.622-.162.761-.2a3.23,3.23,0,0,1,.765-.136c.167-.006.339-.009.527-.009.281,0,.6.007,1.035.021a3.8,3.8,0,0,1,.741.14c.046.016.34.082.73.167a1.558,1.558,0,0,0,.326.035.811.811,0,0,0,.777-.409.837.837,0,0,0,0-.7.958.958,0,0,0-.707-.551l-.031-.008-.146-.038-.019,0c-.181-.047-.454-.118-.83-.211a6.909,6.909,0,0,0-1.718-.184c-.263,0-.541.008-.878.024a2.319,2.319,0,0,0-.737.139.181.181,0,0,1-.071.016.189.189,0,0,1-.071-.016.15.15,0,0,1-.088-.2,21.251,21.251,0,0,1,2.076-4.923,12.494,12.494,0,0,1,1-1.485,7.1,7.1,0,0,1,3.452-2.4,3.8,3.8,0,0,1,1.144-.176,4.093,4.093,0,0,1,.61.046,3.49,3.49,0,0,1,.927.479,9.1,9.1,0,0,1,2.314,2.035,20.284,20.284,0,0,1,2.534,4.1c.3.644.6,1.3.911,2.011a.419.419,0,0,1,.047.17.089.089,0,0,1-.017.073.1.1,0,0,1-.078.025h-.047a5.347,5.347,0,0,0-1.894.377,1.569,1.569,0,0,0-.687.422.918.918,0,0,0-.02.924.619.619,0,0,0,.624.4,2.16,2.16,0,0,0,.656-.136c.3-.1.459-.148.486-.156a7.743,7.743,0,0,1,1.514-.179l.131,0a.31.31,0,0,1,.258.2c.1.191.421.8.979,1.875.442.839.729,1.359.962,1.74,1.139,1.9,2.343,3.736,3.581,5.47a12.6,12.6,0,0,0,1.158,1.387,1.513,1.513,0,0,1,.258.37c.015.027.029.062.046.1l.011.024a1.329,1.329,0,0,0,.25.417.894.894,0,0,0,.57.216.812.812,0,0,0,.785-.678,4.844,4.844,0,0,1,1.261-2.385,4.6,4.6,0,0,1,2.235-1.224,2.67,2.67,0,0,1,.595-.071,2.267,2.267,0,0,1,1.1.282,2.444,2.444,0,0,1,1.129,1.287,5.465,5.465,0,0,1,.288,1.077,1.886,1.886,0,0,1-.014.677l-.013.067a9.942,9.942,0,0,1-.347,1.4,9.579,9.579,0,0,1-2.657,3.758,5.387,5.387,0,0,1-3.356,1.444,3.145,3.145,0,0,1-.612-.059,2.716,2.716,0,0,1-1.129-.62l-.04-.032a.756.756,0,0,0-.489-.162,1.886,1.886,0,0,0-.359.043.641.641,0,0,0-.463.486c-.343,1.052-.579,1.825-.632,2.069-.06.294-.127.565-.192.829l-.01.039c-.09.358-.183.729-.246,1.133-.035.231-.116.612-.234,1.1a7.286,7.286,0,0,0-.121.909v.007l0,.03c-.024.258-.05.523-.093.773,0,.027-.009.056-.015.084l-.012.071v0a5.887,5.887,0,0,0-.1.75c-.03.656-.062,1.2-.089,1.481a3.716,3.716,0,0,0,.007.751l0,.014c0,.052.011.1.017.154v.009a2.067,2.067,0,0,1,0,.8c-.014.048-.071.089-.152.136a10.261,10.261,0,0,1-2.012.928,15.26,15.26,0,0,1-2.266.459A6.685,6.685,0,0,1-13491.721,12952.354Zm-5.785-11.025c-.182,0-.617.026-.746.273a1.164,1.164,0,0,0-.067.781.5.5,0,0,0,.234.34,2.7,2.7,0,0,0,1.284.378l.091,0c.12,0,.214,0,.3,0a7.449,7.449,0,0,0,.906-.052,6.261,6.261,0,0,0,.932-.234,7.346,7.346,0,0,0,.894-.329,5.843,5.843,0,0,0,2.433-2.035.864.864,0,0,0,.119-.8.753.753,0,0,0-.728-.591h-.051a1.373,1.373,0,0,0-1,.634c-.028.033-.057.065-.086.1a4.645,4.645,0,0,1-2.739,1.549,3.223,3.223,0,0,1-.485.025c-.291,0-.676-.013-1.146-.039C-13497.412,12941.331-13497.46,12941.329-13497.506,12941.329Zm17.421-6.169c.038,0,.069.052.092.153a2.421,2.421,0,0,1-.177,1.58,1.129,1.129,0,0,1-.658.625c-.076.029-.28.092-.7.218a.5.5,0,0,0-.309.2,1.028,1.028,0,0,0-.038.944.962.962,0,0,0,.888.459l.041,0,.037,0a2.538,2.538,0,0,0,1.549-.648,3.5,3.5,0,0,0,1.094-2.019,4.414,4.414,0,0,0-.17-2.267.127.127,0,0,1,0-.109.121.121,0,0,1,.1-.043l.108-.018.025,0c.248-.037.587-.088.675-.24a1.146,1.146,0,0,0,.082-.9c-.114-.392-.669-.5-.979-.5-.041,0-.075,0-.105,0a3.657,3.657,0,0,0-1.478.384,4.234,4.234,0,0,0-1.625,1.427c-.276.425-.533.968-.067,1.4a.959.959,0,0,0,.69.228h.04c.373-.017.586-.412.757-.73l.011-.021C-13480.16,12935.2-13480.12,12935.16-13480.085,12935.16Zm-18.384-4.4a.743.743,0,0,0-.707.371,7.022,7.022,0,0,0-.442,1.435l-.012.049c-.038.16-.074.312-.11.443-.12.444-.2.748-.247.985-.03.165-.1.483-.222,1a8.124,8.124,0,0,0-.111,1.087,2.036,2.036,0,0,0,.849,1.9,5.939,5.939,0,0,0,1,.595,2.173,2.173,0,0,0,.846.207.937.937,0,0,0,.4-.082.907.907,0,0,0,.4-1.036c-.087-.376-.4-.5-.771-.636-.024-.008-.046-.017-.069-.025l-.037-.015a2.677,2.677,0,0,1-.754-.469c-.122-.1-.23-.405-.048-1.258.227-.975.446-1.945.612-2.681a4.706,4.706,0,0,1,.143-.5,1.411,1.411,0,0,0,.009-1.038.629.629,0,0,0-.427-.3A1.413,1.413,0,0,0-13498.469,12930.757Zm6.722-3.643h-.056a1.4,1.4,0,0,0-.68.207,2.054,2.054,0,0,0-.564.554,2.582,2.582,0,0,0-.35.8,3.119,3.119,0,0,0-.105.934,3.735,3.735,0,0,0,.17.925,2.71,2.71,0,0,0,.422.768,1.982,1.982,0,0,0,.6.51,1.431,1.431,0,0,0,.648.156h.048a1.425,1.425,0,0,0,.677-.211,1.779,1.779,0,0,0,.557-.55,2.7,2.7,0,0,0,.36-.8,3.322,3.322,0,0,0,.1-.934,3.1,3.1,0,0,0-.174-.925,2.669,2.669,0,0,0-.418-.774,1.88,1.88,0,0,0-.594-.5A1.414,1.414,0,0,0-13491.747,12927.114Zm-12.135-.441a1.512,1.512,0,0,0-.683.16,2.018,2.018,0,0,0-.655.527,2.742,2.742,0,0,0-.456.815,3.332,3.332,0,0,0-.189.972,3.229,3.229,0,0,0,.1.988,2.7,2.7,0,0,0,.388.85,1.988,1.988,0,0,0,.6.584,1.531,1.531,0,0,0,.733.221l.036,0,.035,0a1.545,1.545,0,0,0,.68-.163,2.007,2.007,0,0,0,.646-.526,2.691,2.691,0,0,0,.462-.812,3.437,3.437,0,0,0,.19-.972,3.37,3.37,0,0,0-.105-.988,2.683,2.683,0,0,0-.391-.854,1.851,1.851,0,0,0-.6-.577,1.435,1.435,0,0,0-.73-.228Z" transform="translate(13569.204 -12819.438)"/><path class="d" d="M246.295,27.188H18.33A13.712,13.712,0,0,0,4.687,40.831V183.857A13.712,13.712,0,0,0,18.33,197.5H246.295a13.712,13.712,0,0,0,13.643-13.643V40.831A13.712,13.712,0,0,0,246.295,27.188ZM224.731,175.5a4.41,4.41,0,0,1-4.4,4.4H26.693a4.41,4.41,0,0,1-4.4-4.4V49.191a4.41,4.41,0,0,1,4.4-4.4H220.33a4.41,4.41,0,0,1,4.4,4.4Zm13.2-54.131a8.8,8.8,0,1,1,8.8-8.8A9.126,9.126,0,0,1,237.934,121.365Z" transform="translate(0)"/></g><g class="e" transform="translate(664 -1.8)"><path class="f" d="M17.051,64.625c.523,3.523.859,5.766.859,5.793,0,2.551,2.121,5.035,5.953,6.945,5.18,2.582,13.535,4.285,22.957,4.285s17.773-1.7,22.953-4.285c3.832-1.914,5.957-4.395,5.957-6.945,0-.012.059-.418.168-1.148a21.487,21.487,0,0,0,7.234-1.379c.02.016.043.027.059.043,2.945,2,4.715,4.223,4.715,6.652a6.41,6.41,0,0,1-1.883,4.25,19.365,19.365,0,0,1-5.68,4.066c-7.562,3.828-19.77,6.3-33.523,6.3S20.856,86.734,13.3,82.9a19.312,19.312,0,0,1-5.68-4.066,6.392,6.392,0,0,1-1.883-4.25A6.547,6.547,0,0,1,7.77,70.168c1.973-2.109,5.176-3.984,9.285-5.543ZM14.762,35.2c5.938,3.3,18.117,5.629,32.184,5.629,13.859,0,25.887-2.254,31.91-5.477-2.2,14.8-5.2,34.992-5.2,35.062A3.788,3.788,0,0,1,72.5,72.929,12.5,12.5,0,0,1,68.852,75.5c-4.965,2.477-12.988,4.063-22.023,4.063S29.77,77.972,24.8,75.5a12.423,12.423,0,0,1-3.648-2.566,3.777,3.777,0,0,1-1.148-2.516c0-.023-.41-2.773-1.035-6.98a1,1,0,0,0-.113-.785c-1.078-7.293-2.734-18.4-4.078-27.453ZM77.219,62.523A13.39,13.39,0,0,0,81.114,37.1l.73-4.738A18.021,18.021,0,0,1,94.266,49.254c0,9.59-7.879,17.418-17.754,17.91l.707-4.637ZM13.078,23.9a13.435,13.435,0,0,0,1.848,1.172c5.981,3.223,18.02,5.457,31.895,5.457s25.914-2.238,31.891-5.457A13.438,13.438,0,0,0,80.559,23.9c-.332,2.234-.789,5.289-1.3,8.769-5.055,3.6-17.629,6.07-32.309,6.07a98.95,98.95,0,0,1-23.691-2.578c-3.945-1.016-7.035-2.266-8.9-3.7-.5-3.395-.949-6.375-1.273-8.562ZM46.82,10.8c13.438,0,25.113,2.09,30.9,5.207a9.64,9.64,0,0,1,2.633,1.934,2.589,2.589,0,0,1,.766,1.684,2.608,2.608,0,0,1-.766,1.68,9.56,9.56,0,0,1-2.633,1.934c-5.793,3.117-17.465,5.207-30.9,5.207S21.7,26.355,15.91,23.237A9.56,9.56,0,0,1,13.277,21.3a2.588,2.588,0,0,1-.766-1.68,2.608,2.608,0,0,1,.766-1.684,9.64,9.64,0,0,1,2.633-1.934C21.7,12.89,33.375,10.8,46.82,10.8Z"/></g></g><g transform="translate(322.883 130.026)"><ellipse class="g" cx="66.741" cy="67.252" rx="66.741" ry="67.252" transform="translate(0 0)"/><path class="h" d="M304.061,244.206a2.507,2.507,0,0,1-1.191-.2,2.684,2.684,0,0,1-1.589-2.6V157.347a2.684,2.684,0,0,1,1.589-2.6,3.146,3.146,0,0,1,2.979.4l46.476,42.029a2.936,2.936,0,0,1,0,4.4l-46.476,41.829a2.418,2.418,0,0,1-1.787.8Zm2.781-80.455V235l39.326-35.624Z" transform="translate(-251.814 -132.129)"/><path class="g" d="M228.575,226.333c-36.744,0-66.735-30.22-66.735-67.246S191.831,91.84,228.575,91.84s66.735,30.22,66.735,67.246S265.32,226.333,228.575,226.333Zm0-128.889c-33.765,0-61.174,27.619-61.174,61.642s27.41,61.642,61.174,61.642,61.174-27.619,61.174-61.642S262.34,97.444,228.575,97.444Z" transform="translate(-161.829 -91.84)"/></g></g><g transform="translate(0 425.369)"><ellipse class="g" cx="27.108" cy="27.315" rx="27.108" ry="27.315" transform="translate(0 0)"/><path class="h" d="M302.409,190.957a1.019,1.019,0,0,1-.484-.081,1.09,1.09,0,0,1-.645-1.057V155.678a1.09,1.09,0,0,1,.645-1.057,1.279,1.279,0,0,1,1.21.163l18.877,17.071a1.192,1.192,0,0,1,0,1.788l-18.877,16.989a.982.982,0,0,1-.726.326Zm1.129-32.678v28.939l15.973-14.469Z" transform="translate(-281.189 -145.435)"/><path class="g" d="M188.946,146.466a27.314,27.314,0,1,1,27.106-27.313A27.269,27.269,0,0,1,188.946,146.466Zm0-52.35a25.038,25.038,0,1,0,24.847,25.037A24.953,24.953,0,0,0,188.946,94.116Z" transform="translate(-161.836 -91.84)"/></g><rect class="i" width="849.911" height="14.059" transform="translate(68.912 445.857)"/><rect class="g" width="195.749" height="14.059" transform="translate(68.912 445.857)"/></g><g transform="translate(819.619 0)"><g transform="translate(0 146.825)"><g transform="translate(0 0)"><g class="t" transform="matrix(1, 0, 0, 1, -819.62, -149.82)"><circle class="j" cx="50.191" cy="50.191" r="50.191" transform="translate(819.62 149.82)"/></g><g transform="translate(22.215 33.528)"><g transform="translate(0 0)"><path class="h" d="M332.342,305.732a7.2,7.2,0,1,1,7.2,7.2h0a7.193,7.193,0,0,1-7.2-7.188Z" transform="translate(-332.342 -298.536)"/></g><g transform="translate(46.782 0)"><path class="h" d="M342.362,305.732a7.192,7.192,0,1,1,0,.008Z" transform="translate(-342.362 -298.536)"/></g><g transform="translate(1.479 28.952)"><g class="k" transform="translate(-332.191 -304.737)"><path class="o" d="M 334.1196594238281 308.7451477050781 C 332.92333984375 308.7452087402344 331.9460754394531 307.7956848144531 331.941162109375 306.6284790039062 C 331.935791015625 306.0724182128906 332.150390625 305.5438537597656 332.54541015625 305.1415710449219 C 332.954833984375 304.7246398925781 333.506103515625 304.4922180175781 334.0976867675781 304.4871215820312 L 334.1285095214844 304.4871215820312 L 389.0292053222656 304.4871215820312 L 389.0481262207031 304.4870300292969 C 390.238525390625 304.4870300292969 391.2112731933594 305.4345092773438 391.2165832519531 306.59912109375 C 391.2218322753906 307.1688232421875 390.9993286132812 307.7066040039062 390.5899963378906 308.1122741699219 C 390.1830139160156 308.5155639648438 389.6397705078125 308.7403259277344 389.060302734375 308.7451171875 L 389.0292053222656 308.7451171875 L 334.1285095214844 308.7451171875 L 334.1196594238281 308.7451477050781 Z"/><path class="q" d="M 334.1196594238281 308.4951477050781 C 334.12255859375 308.4951477050781 334.1256103515625 308.4951171875 334.1285095214844 308.4951171875 L 389.0582580566406 308.4951171875 C 390.1195373535156 308.4863586425781 390.9761962890625 307.6410522460938 390.9665832519531 306.6002502441406 C 390.9618530273438 305.5630798339844 390.0921020507812 304.728759765625 389.0292053222656 304.7371215820312 L 334.0998229980469 304.7371215820312 C 333.0375366210938 304.7462463378906 332.1811828613281 305.5910949707031 332.191162109375 306.62744140625 C 332.1955261230469 307.6615295410156 333.0615234375 308.4951782226562 334.1196594238281 308.4951477050781 M 334.1196899414062 308.9951477050781 L 334.1196594238281 308.9951477050781 C 332.7860717773438 308.9952087402344 331.6966552734375 307.9340209960938 331.691162109375 306.6295471191406 C 331.6851806640625 306.0079956054688 331.9252014160156 305.4163818359375 332.3670349121094 304.9664001464844 C 332.8232727050781 304.5017700195312 333.4371337890625 304.2427978515625 334.0955200195312 304.2371520996094 L 334.1285095214844 304.2371215820312 L 389.0481262207031 304.2370300292969 C 390.375732421875 304.2370300292969 391.4606323242188 305.296142578125 391.4665832519531 306.5979614257812 C 391.4724731445312 307.2345886230469 391.2236633300781 307.8362731933594 390.7659606933594 308.2898559570312 C 390.3124389648438 308.7393188476562 389.7074279785156 308.9897766113281 389.0623779296875 308.9950866699219 L 389.0292053222656 308.9951171875 L 334.1196899414062 308.9951477050781 Z"/></g></g></g></g></g><g transform="translate(0 293.648)"><g transform="translate(0 0)"><g class="s" transform="matrix(1, 0, 0, 1, -819.62, -296.65)"><circle class="l" cx="50.191" cy="50.191" r="50.191" transform="translate(819.62 296.65)"/></g><g transform="translate(20.973 33.528)"><path class="m" d="M334.139,372.98a1.882,1.882,0,0,1-1.722-2.628,29.277,29.277,0,0,1,53.72,0,1.878,1.878,0,1,1-3.4,1.587l-.042-.094a25.525,25.525,0,0,0-46.829,0A1.871,1.871,0,0,1,334.139,372.98Z" transform="translate(-328.065 -335.154)"/><path class="m" d="M339.15,356.6a8.688,8.688,0,0,1-7.489-4.323,2.209,2.209,0,1,1,3.824-2.213,4.238,4.238,0,0,0,7.172.247,2.209,2.209,0,0,1,3.66,2.474h0A8.659,8.659,0,0,1,339.15,356.6Z" transform="translate(-331.363 -348.954)"/><path class="m" d="M349,356.6a8.656,8.656,0,0,1-7.172-3.815,2.209,2.209,0,0,1,3.66-2.474h0a4.23,4.23,0,0,0,5.878,1.135,4.31,4.31,0,0,0,1.294-1.382,2.209,2.209,0,1,1,3.823,2.213A8.686,8.686,0,0,1,349,356.6Z" transform="translate(-294.364 -348.954)"/></g></g></g><g transform="translate(0)"><g transform="translate(0 0)"><g class="r" transform="matrix(1, 0, 0, 1, -819.62, -3)"><circle class="n" cx="50.191" cy="50.191" r="50.191" transform="translate(819.62 3)"/></g><g transform="translate(17.99 28.784)"><path class="m" d="M397.179,257.56a1.86,1.86,0,0,1-1.686,1.074,1.9,1.9,0,0,1-.817-.187l-1.149-.546a31.1,31.1,0,0,1-58.1,0l-1.149.546a1.821,1.821,0,0,1-.8.187,1.879,1.879,0,0,1-.813-3.586l5.318-2.545a1.879,1.879,0,1,1,1.77,3.315l-.145.07-.779.36a27.355,27.355,0,0,0,51.306,0l-.775-.36a1.875,1.875,0,1,1,1.615-3.385h0l5.322,2.545a1.87,1.87,0,0,1,.892,2.493Z" transform="translate(-331.571 -232.087)"/><g transform="translate(1.704 0.019)"><path class="m" d="M339.723,255.578a8.693,8.693,0,0,1-7.489-4.3,2.209,2.209,0,0,1,3.824-2.213,4.237,4.237,0,0,0,7.167.248,2.208,2.208,0,0,1,3.66,2.47A8.648,8.648,0,0,1,339.723,255.578Z" transform="translate(-331.936 -247.959)"/></g><g transform="translate(48.785)"><path class="m" d="M349.569,255.593a8.655,8.655,0,0,1-7.171-3.815,2.209,2.209,0,1,1,3.661-2.474,4.24,4.24,0,0,0,5.887,1.13,4.348,4.348,0,0,0,1.284-1.377,2.207,2.207,0,0,1,3.82,2.213A8.688,8.688,0,0,1,349.569,255.593Z" transform="translate(-342.02 -247.955)"/></g></g></g></g></g></g></g></svg>