<svg xmlns="http://www.w3.org/2000/svg" width="51.129" height="51.105" viewBox="0 0 51.129 51.105">
  <g id="noun-research-5782338" transform="translate(-1 -1)">
    <g id="Group_47205" data-name="Group 47205" transform="translate(1 1)">
      <g id="Group_47204" data-name="Group 47204" transform="translate(0 0)">
        <path id="Path_44838" data-name="Path 44838" d="M44.109,5.01H40a5.013,5.013,0,0,0-9.823,0h2.076a3.007,3.007,0,0,1,5.67,0h-5.67a3.571,3.571,0,0,0-.172,1.032,3.024,3.024,0,0,0,3.008,3.022,1.008,1.008,0,0,1,0,2.016,5.042,5.042,0,0,1-5.013-5.04,5.934,5.934,0,0,1,.1-1.03H28.067a5.013,5.013,0,0,0-9.823,0h2.076a3.007,3.007,0,0,1,5.67,0h-5.67a3.571,3.571,0,0,0-.172,1.032,3.024,3.024,0,0,0,3.008,3.022,1.008,1.008,0,0,1,0,2.016,5.042,5.042,0,0,1-5.013-5.04,5.934,5.934,0,0,1,.1-1.03H16.137A5.1,5.1,0,0,0,11.226,1,5.1,5.1,0,0,0,6.314,5.01H8.391a3.1,3.1,0,0,1,2.835-2.005A3.1,3.1,0,0,1,14.061,5.01H8.391a3.571,3.571,0,0,0-.172,1.032,3.024,3.024,0,0,0,3.008,3.022,1.008,1.008,0,0,1,0,2.016A5.042,5.042,0,0,1,6.213,6.04a5.934,5.934,0,0,1,.1-1.03H2A1.055,1.055,0,0,0,1,6.071V13.03H45.111V6.071A1.055,1.055,0,0,0,44.109,5.01Z" transform="translate(-1 -1)"/>
        <path id="Path_44839" data-name="Path 44839" d="M465.993,175.563,461,150.6V176.7h4.01a.976.976,0,0,0,.775-.338A.94.94,0,0,0,465.993,175.563Z" transform="translate(-414.883 -135.599)"/>
        <path id="Path_44840" data-name="Path 44840" d="M1,171.135a.954.954,0,0,0,1,.944H12.189l8.137-8.108a8.126,8.126,0,1,1,1.418,1.418l-6.719,6.69H44.109a.954.954,0,0,0,1-.944V141H1Zm7.018-27.027H38.094a1,1,0,0,1,0,2.005H8.018a1,1,0,1,1,0-2.005Zm0,5.013h12.03a1,1,0,1,1,0,2.005H8.018a1,1,0,1,1,0-2.005Z" transform="translate(-1 -126.965)"/>
        <path id="Path_44841" data-name="Path 44841" d="M198.724,271.643h0a6.015,6.015,0,1,0-1.762-4.254,5.976,5.976,0,0,0,1.762,4.254Z" transform="translate(-177.316 -235.271)"/>
        <path id="Path_44842" data-name="Path 44842" d="M67.794,455.258a1.02,1.02,0,0,0,0,1.432,1.007,1.007,0,0,0,.709.3,1.028,1.028,0,0,0,.709-.319L74.858,451H72.022Z" transform="translate(-60.833 -405.886)"/>
      </g>
    </g>
  </g>
</svg>
