<svg xmlns="http://www.w3.org/2000/svg" width="100%" height="100%" viewBox="0 0 146.448 117.758">
  <g id="noun-script-6989576" transform="translate(-8.419 -16.563)">
    <path id="Path_51633" data-name="Path 51633" d="M127.5,69.079H35.779A1.027,1.027,0,0,0,34.755,70.1v43.2a1.033,1.033,0,0,0,1.025,1.046H127.5a1.033,1.033,0,0,0,1.025-1.046V70.1a1.031,1.031,0,0,0-.3-.729,1.02,1.02,0,0,0-.722-.3ZM63.039,106.787a1.833,1.833,0,0,1-1.286,3.137,1.8,1.8,0,0,1-1.3-.53L45.321,94.24a1.794,1.794,0,0,1,0-2.586L60.453,76.522a1.834,1.834,0,0,1,2.586,2.586L49.207,92.954Zm29.914-28.7L76.135,108.458a1.838,1.838,0,0,1-1.616.956,1.9,1.9,0,0,1-.88-.22,1.84,1.84,0,0,1-.715-2.5l16.728-30.41a1.857,1.857,0,1,1,3.233,1.83Zm25,16.157-15.133,15.153a1.8,1.8,0,0,1-1.3.53,1.833,1.833,0,0,1-1.286-3.137l13.832-13.833L100.237,79.108a1.834,1.834,0,0,1,2.586-2.586l15.133,15.133a1.794,1.794,0,0,1,0,2.586Zm-91.1-60.364a4.695,4.695,0,1,1,4.691,4.7,4.683,4.683,0,0,1-4.691-4.7Zm40.095,0a4.657,4.657,0,1,0,.021,0ZM8.419,49.338v69.706a15.278,15.278,0,0,0,15.256,15.277H139.6a15.275,15.275,0,0,0,15.256-15.263v-69.7ZM132.21,113.3a4.714,4.714,0,0,1-4.712,4.712H35.782A4.71,4.71,0,0,1,31.09,113.3V70.1a4.694,4.694,0,0,1,4.691-4.7H127.5a4.7,4.7,0,0,1,4.691,4.7Zm12.4-29.79a1.837,1.837,0,0,1-3.673,0V58.183H114.767a1.837,1.837,0,1,1,0-3.673h28.008a1.832,1.832,0,0,1,1.837,1.837Zm10.256-37.838-.007-13.846A15.275,15.275,0,0,0,139.6,16.563H23.676A15.275,15.275,0,0,0,8.419,31.826V45.672ZM71.645,25.5a8.381,8.381,0,1,1-8.35,8.378,8.377,8.377,0,0,1,8.35-8.378Zm-20.34,0H51.3a8.379,8.379,0,1,1-8.364,8.378A8.383,8.383,0,0,1,51.3,25.5Zm-19.755,0h-.007a8.379,8.379,0,1,1-8.364,8.378A8.383,8.383,0,0,1,31.543,25.5Zm15.057,8.385v-.007a4.695,4.695,0,1,1,4.691,4.7,4.683,4.683,0,0,1-4.691-4.7Z"/>
  </g>
</svg>
