<svg xmlns="http://www.w3.org/2000/svg" width="100%" height="100%" viewBox="0 0 121.206 128.686">
  <g id="noun-flow-2086376" transform="translate(-5.914 -4.25)">
    <path id="Path_51634" data-name="Path 51634" d="M101.113,86.191c0-8.584-22.231-11.626-27.2-12.2L71.93,67.707A17.18,17.18,0,1,0,60.284,67.7l-1.989,6.292c-4.968.574-27.2,3.615-27.2,12.2,0,7.1-3.117,20.04-3.955,23.395H8.013v7.425H124.219v-7.425H105.068C104.23,106.231,101.113,93.291,101.113,86.191ZM86.887,109.586H45.345V88.99a3.11,3.11,0,0,1,3.108-3.108H83.78a3.111,3.111,0,0,1,3.108,3.108v20.6Z" transform="translate(0.401 13.425)" stroke="#000" stroke-width="5"/>
    <path id="Path_51635" data-name="Path 51635" d="M109.936,53.795a15.668,15.668,0,0,0-6.146,1.229l-24.6-24.6a15.97,15.97,0,1,0-26.3-1.364L27.546,54.42a15.992,15.992,0,1,0,7.194,4.411l24.091-24.1a16.218,16.218,0,0,0,13.833.747l24.584,24.6a15.969,15.969,0,1,0,12.689-6.278ZM19.345,73.738l.77.77-.77.77-.77.77-6.281-6.28,6.281-6.281.77.77.77.77-.77.77-3.97,3.97ZM22.439,75.6l-2.084-.644,3.4-11.02,2.084.644Zm5.181.448-.77-.77-.77-.77.77-.77,3.97-3.968L26.85,65.8l-.77-.77.77-.77.77-.77L33.9,69.771ZM62.766,24.7l.77.77-.77.77-.77.77-6.28-6.28L62,14.446l.77.77.77.77-.77.77L58.8,20.724Zm3.095,1.861-2.084-.641,3.4-11.02,2.084.641Zm5.183.449-.77-.77-.77-.77.77-.77,3.968-3.968-3.968-3.968-.77-.77.77-.77.77-.77,6.28,6.28Zm35.144,46.732.77.77-.77.77-.77.77-6.281-6.281,6.281-6.28.77.77.77.77-.77.77-3.97,3.968Zm3.093,1.86-2.084-.644,3.4-11.018,2.084.644Zm5.183.45-.77-.77-.77-.77.77-.77,3.97-3.97-3.97-3.968-.77-.77.77-.77.77-.77,6.281,6.28Z" stroke="#000" stroke-width="1"/>
    <path id="Path_51636" data-name="Path 51636" d="M46.372,72.258l-9.257,9.259,9.257,9.259,1.54-1.542L40.2,81.517,47.912,73.8Z" transform="translate(13.585 30.582)"/>
    <path id="Path_51637" data-name="Path 51637" d="M51.445,73.8l7.717,7.718-7.717,7.717,1.54,1.542,9.259-9.259-9.259-9.259Z" transform="translate(20.077 30.582)"/>
    <rect id="Rectangle_33446" data-name="Rectangle 33446" width="2.181" height="17.767" transform="matrix(-0.955, -0.296, 0.296, -0.955, 64.928, 120.9)"/>
  </g>
</svg>
