<svg xmlns="http://www.w3.org/2000/svg" width="100%" height="100%" viewBox="0 0 125.68 125.686">
  <g id="noun-report-7385889" transform="translate(-9.558 -10.156)">
    <path id="Path_51638" data-name="Path 51638" d="M121.684,10.156H23.112A13.546,13.546,0,0,0,9.558,23.71V28.1h125.68V23.71a13.546,13.546,0,0,0-13.554-13.554Z"/>
    <path id="Path_51639" data-name="Path 51639" d="M16.951,26.219H9.559v76.935a13.546,13.546,0,0,0,13.554,13.554H63.471l-3.549,3.549a3.7,3.7,0,0,0,5.23,5.23l7.245-7.245,7.245,7.245a3.7,3.7,0,0,0,5.224-5.23l-3.549-3.549h40.359a13.546,13.546,0,0,0,13.554-13.554V89.65c-.3.394-.641.789-.986,1.183a32.2,32.2,0,0,1-6.407,5.421c-.444.246-.838.493-1.281.739a.153.153,0,0,1-.1.049,32.211,32.211,0,0,1-2.908,1.479q-1.553.665-3.105,1.183a30.037,30.037,0,0,1-3.006.838c-.246.049-.493.1-.789.148a19.551,19.551,0,0,1-2.366.345,1.365,1.365,0,0,1-.641.049,20.762,20.762,0,0,1-3.056.2,32.035,32.035,0,0,1,0-64.07,20.762,20.762,0,0,1,3.056.2,1.365,1.365,0,0,1,.641.049,19.551,19.551,0,0,1,2.366.345c.3.049.542.1.789.148a30.03,30.03,0,0,1,3.006.838,28.951,28.951,0,0,1,3.105,1.183,32.221,32.221,0,0,1,2.908,1.479.151.151,0,0,1,.1.049,32.241,32.241,0,0,1,7.738,6.21,9.855,9.855,0,0,1,.936,1.084V26.221ZM33.906,94.431a3.7,3.7,0,1,1-7.393,0V83.44a3.7,3.7,0,0,1,7.393,0Zm19.222,0a3.7,3.7,0,1,1-7.393,0V73.582a3.7,3.7,0,0,1,7.393,0ZM62.985,53.77a3.185,3.185,0,0,1-1.331-.246,3.567,3.567,0,0,1-2.317-3.647l-27.452,14.1a3.98,3.98,0,0,1-1.676.394,3.766,3.766,0,0,1-3.3-2.021,3.7,3.7,0,0,1,1.626-4.978L54.952,43.815a3.687,3.687,0,0,1,2.809-6.555l8.921,1.331a1.16,1.16,0,0,1,.394.1h.1a3.5,3.5,0,0,1,.887.394,3.218,3.218,0,0,1,.789.641,3.5,3.5,0,0,1,.493.69,1.542,1.542,0,0,1,.246.493c.049.148.1.345.148.493a4.856,4.856,0,0,1,.1.838,3.178,3.178,0,0,1-.148.986,2.85,2.85,0,0,1-.246.69l-3.006,7.541a3.739,3.739,0,0,1-3.45,2.317ZM72.35,94.431a3.7,3.7,0,1,1-7.393,0V63.725a3.7,3.7,0,0,1,7.393,0Z" transform="translate(0 9.271)"/>
    <path id="Path_51640" data-name="Path 51640" d="M78.647,38.112c-.641.1-1.281.246-1.873.394a14.939,14.939,0,0,0-2.119.591,23.544,23.544,0,0,0-9.118,5.618,5.6,5.6,0,0,0-.739.789c-.246.246-.493.542-.739.789a14.173,14.173,0,0,0-1.331,1.676,7.442,7.442,0,0,0-.887,1.281c-.2.3-.394.641-.591.936a9.684,9.684,0,0,0-.641,1.232c-.1.148-.148.3-.246.444-.246.542-.493,1.134-.739,1.725a21.8,21.8,0,0,0-1.134,3.992,17.47,17.47,0,0,0-.345,2.317A21.5,21.5,0,0,0,58,62.41,24.63,24.63,0,0,0,100.825,79.02a23.815,23.815,0,0,0,6.161-12.913H82.638a3.724,3.724,0,0,1-3.7-3.7V38.062c-.1,0-.2.049-.3.049Z" transform="translate(27.956 16.106)"/>
    <path id="Path_51641" data-name="Path 51641" d="M90.5,45.85l-.049-.049a20.091,20.091,0,0,0-1.774-1.774c-.1-.049-.148-.148-.246-.2a15.532,15.532,0,0,0-1.479-1.183,21.291,21.291,0,0,0-2.612-1.676,11.4,11.4,0,0,0-1.725-.887,23.2,23.2,0,0,0-2.563-1.035c-.493-.148-.936-.3-1.429-.444-.641-.148-1.281-.3-1.922-.394-.1,0-.246-.049-.345-.049-.148-.049-.246-.049-.394-.1V58.714H96.616A23.949,23.949,0,0,0,90.5,45.85Z" transform="translate(38.327 16.106)"/>
  </g>
</svg>
