<svg xmlns="http://www.w3.org/2000/svg" width="100%" height="100%" viewBox="0 0 105.399 125.489">
  <g id="noun-import-7000473" transform="translate(-14.641 -7.112)">
    <path id="Path_51632" data-name="Path 51632" d="M93.445,38.8H115.9L88.338,11.244V33.689A5.128,5.128,0,0,0,93.445,38.8Zm26.6,5.836-26.6-.006A10.949,10.949,0,0,1,82.507,33.689V7.112H19.748a5.12,5.12,0,0,0-5.107,5.107v115.27a5.125,5.125,0,0,0,5.107,5.113h95.173a5.124,5.124,0,0,0,5.1-5.113h.017ZM54.278,66.976A2.918,2.918,0,1,1,58.4,62.849l6.1,6.1-.222-14.9-14.2.006a2.918,2.918,0,0,1,0-5.836H67.147A2.921,2.921,0,0,1,70.054,51.1l.274,18.051,6.309-6.309v-.006a2.918,2.918,0,1,1,4.121,4.127L69.581,78.153a2.924,2.924,0,0,1-4.132,0Zm27.4,14.854H81.67a2.918,2.918,0,1,1,5.836,0v6.743a2.919,2.919,0,0,1-2.918,2.918H50.448a2.913,2.913,0,0,1-2.9-3.226l.108-6.321h-.006a2.919,2.919,0,0,1,2.958-3.112,2.922,2.922,0,0,1,2.861,3.2L53.4,85.648H81.676ZM43.739,109.262h-.006a2.918,2.918,0,1,1,0-5.836H90.948a2.918,2.918,0,0,1,0,5.836Zm0,11.092-.006-.006a2.918,2.918,0,1,1,0-5.836H90.948a2.918,2.918,0,0,1,0,5.836Z" transform="translate(0 0)"/>
  </g>
</svg>
