<svg xmlns="http://www.w3.org/2000/svg" width="57.212" height="50" viewBox="0 0 57.212 50">
  <g id="noun-ad-7270021" transform="translate(-3.999 -9.797)">
    <path id="Path_44843" data-name="Path 44843" d="M22.132,35.633l14.225-8.468a.926.926,0,0,1,1.27.323.978.978,0,0,1,.1.233l4.55,16.964a.931.931,0,0,1-.661,1.139.988.988,0,0,1-.313.029l-10.639-.141,1.166,6.551a.933.933,0,0,1-.712,1.069L27.27,54.365a.931.931,0,0,1-1.139-.661l-2.106-7.863-5.592,1.5a.931.931,0,0,1-1.139-.661l-2.2-8.2a.931.931,0,0,1,.661-1.139l6.376-1.71Zm9.036-24.1a2.951,2.951,0,1,1-2.087,5.038l-.056-.061a2.951,2.951,0,0,1,2.142-4.977Zm.768,2.184a1.087,1.087,0,0,0-1.555,1.518,1.084,1.084,0,0,0,1.87-.751,1.083,1.083,0,0,0-.318-.768Zm-9.855-2.184a2.952,2.952,0,1,1-2.087.865l.063-.056a2.943,2.943,0,0,1,2.023-.809Zm.768,2.184a1.088,1.088,0,0,0-1.518-.019,1.1,1.1,0,0,0-.335.785,1.086,1.086,0,1,0,1.853-.768Zm-9.855-2.184a2.952,2.952,0,1,1-2.087.865l.063-.056a2.943,2.943,0,0,1,2.023-.809Zm.768,2.181a1.083,1.083,0,0,0-.768-.316,1.078,1.078,0,1,0,.768.313ZM4,19.178H61.208V13.747a3.964,3.964,0,0,0-3.95-3.95H7.949A3.964,3.964,0,0,0,4,13.749V19.18Zm57.209,1.866H4v34.8a3.964,3.964,0,0,0,3.95,3.95h49.31a3.964,3.964,0,0,0,3.952-3.95v-34.8Zm-18.456,9.2a.932.932,0,1,1-1.02-1.559L44.96,26.57a.932.932,0,1,1,1.02,1.559Zm1.263,5.844a.931.931,0,1,1-.479-1.8l3.729-1a.931.931,0,0,1,.479,1.8Zm1.244,5.754a.93.93,0,1,1,.1-1.858l3.855.219a.93.93,0,0,1-.1,1.858Zm-16.491,3.84L25.9,45.648l1.79,6.675,2.157-.578-1.079-6.06Zm-5.225-1.642-1.715-6.4L17.137,38.9l1.715,6.4,4.691-1.258Zm.024-7.108L25.4,43.784l14.759.2L36.249,29.387Z" transform="translate(0)"/>
  </g>
</svg>
