<svg xmlns="http://www.w3.org/2000/svg" xmlns:xlink="http://www.w3.org/1999/xlink" width="90" height="90" viewBox="0 0 90 90">
  <defs>
    <clipPath id="clip-path">
      <rect id="Rectangle_30079" data-name="Rectangle 30079" width="90" height="90" fill="#59ba46" stroke="#4da03c" stroke-width="2"/>
    </clipPath>
  </defs>
  <g id="Top_Arrow" transform="translate(-1590 -787)">
    <g id="Group_1850" data-name="Group 1850" transform="translate(1590 787)">
      <g id="Group_1848" data-name="Group 1848" transform="translate(0 0)" clip-path="url(#clip-path)">
        <g id="Path_17595" data-name="Path 17595" transform="translate(0.336 -0.252)" fill="#59ba46">
          <path d="M 70.64644622802734 88.91356658935547 L 19.26708602905273 88.91356658935547 C 18.93316078186035 88.91356658935547 18.66148567199707 88.64189147949219 18.66148567199707 88.30796813964844 L 18.66148567199707 46.56222915649414 L 18.66148567199707 45.56222915649414 L 17.66148567199707 45.56222915649414 L 1.605422735214233 45.56222915649414 C 1.360235214233398 45.56195068359375 1.14028525352478 45.41507720947266 1.046172738075256 45.18805313110352 C 0.95207279920578 44.96112823486328 1.003747820854187 44.70190048217773 1.177760243415833 44.52753829956055 L 44.52838516235352 1.177102327346802 C 44.64258575439453 1.063002347946167 44.79478454589844 1.000002264976501 44.95667266845703 1.000002264976501 C 45.11833572387695 1.000002264976501 45.27021026611328 1.062864780426025 45.38432312011719 1.177002310752869 L 88.73555755615234 44.52842712402344 C 88.90944671630859 44.70223999023438 88.96094512939453 44.96151351928711 88.86689758300781 45.18911361694336 C 88.77320861816406 45.41500091552734 88.55322265625 45.56195068359375 88.30698394775391 45.56222915649414 L 72.25204467773438 45.56222915649414 L 71.25204467773438 45.56222915649414 L 71.25204467773438 46.56222915649414 L 71.25204467773438 88.30796813964844 C 71.25204467773438 88.64189147949219 70.98036956787109 88.91356658935547 70.64644622802734 88.91356658935547 Z" stroke="none"/>
          <path d="M 70.25205993652344 87.91357421875 L 70.25205993652344 44.56222534179688 L 87.35515594482422 44.56222534179688 L 44.95640182495117 2.163292407989502 L 2.557299613952637 44.56222534179688 L 19.66148376464844 44.56222534179688 L 19.66148376464844 87.91357421875 L 70.25205993652344 87.91357421875 M 70.64644622802734 89.91357421875 L 19.2670841217041 89.91357421875 C 18.38041687011719 89.91357421875 17.66148376464844 89.19462585449219 17.66148376464844 88.30796051025391 L 17.66148376464844 46.56222534179688 L 1.605430245399475 46.56222534179688 C 0.9560302495956421 46.56149291992188 0.3710435926914215 46.17082595825195 0.1224036067724228 45.57097244262695 C -0.1264230608940125 44.97093200683594 0.01139027252793312 44.28062438964844 0.469950258731842 43.82114410400391 L 43.82128524780273 0.4699856340885162 C 44.4484748840332 -0.1566572785377502 45.46506500244141 -0.1566514223814011 46.09152221679688 0.4699856340885162 L 89.44267272949219 43.82131958007812 C 89.90215301513672 44.28062438964844 90.03904724121094 44.97093200683594 89.79112243652344 45.57097244262695 C 89.54231262207031 46.17082595825195 88.95749664306641 46.56149291992188 88.30809783935547 46.56222534179688 L 72.25205993652344 46.56222534179688 L 72.25205993652344 88.30796051025391 C 72.25205993652344 89.19462585449219 71.53311157226562 89.91357421875 70.64644622802734 89.91357421875 Z" stroke="none" fill="#4da03c"/>
        </g>
      </g>
    </g>
    <text id="High_Price" data-name="HighPrice" transform="translate(1635 833)" fill="#fff" font-size="16" font-family="Arial-BoldMT, Arial" font-weight="700"><tspan x="-17.773" y="0">High</tspan><tspan x="-19.57" y="21">Price</tspan></text>
  </g>
</svg>
