<svg xmlns="http://www.w3.org/2000/svg" width="100%" height="100%" viewBox="0 0 67.594 67.594">
  <g id="noun-analytics-7350614" transform="translate(-4.718 -4.719)">
    <path id="Path_44860" data-name="Path 44860" d="M74.458,35.938H69.794a1.166,1.166,0,1,0,0,2.332h1.848L60.468,49.444l-6.17-6.17a1.168,1.168,0,0,0-1.65,0l-6.995,6.995a1.166,1.166,0,0,0,1.65,1.65l6.17-6.17,6.17,6.17a1.168,1.168,0,0,0,1.65,0l12-12v1.848a1.166,1.166,0,0,0,2.332,0V37.1a1.165,1.165,0,0,0-1.166-1.166Z" transform="translate(-10.306 -7.926)"/>
    <path id="Path_44861" data-name="Path 44861" d="M80.238,83.833A1.154,1.154,0,0,1,79.072,85H37.1a1.166,1.166,0,1,1,0-2.332h1.166V65.179a1.154,1.154,0,0,1,1.166-1.166h9.327a1.154,1.154,0,0,1,1.166,1.166V82.667h2.332V60.516a1.154,1.154,0,0,1,1.166-1.166h9.327a1.154,1.154,0,0,1,1.166,1.166V82.667h2.332V55.853a1.154,1.154,0,0,1,1.166-1.166H76.74a1.154,1.154,0,0,1,1.166,1.166V82.667h1.166A1.154,1.154,0,0,1,80.238,83.833Z" transform="translate(-7.926 -12.686)"/>
    <path id="Path_44862" data-name="Path 44862" d="M28.688,42.188l-15.3,15.3-1.632,1.655A26.665,26.665,0,0,1,4.719,42.188Z" transform="translate(0 -9.513)"/>
    <path id="Path_44863" data-name="Path 44863" d="M30.343,4.719V30.344H4.718A26.885,26.885,0,0,1,30.343,4.719Z" transform="translate(0 0)"/>
    <path id="Path_44864" data-name="Path 44864" d="M58.943,29.177a3.491,3.491,0,0,0,.886,2.332l-6.715,6.715L48.591,33.7a3.49,3.49,0,0,0-4.943,0L36.653,40.7A3.5,3.5,0,1,0,41.6,45.639l4.523-4.523,3.218,3.218h-.886a3.493,3.493,0,0,0-3.5,3.5v1.376A3.232,3.232,0,0,0,43.787,49H34.461a3.493,3.493,0,0,0-3.5,3.5v5.6a26.678,26.678,0,0,1-14.619-6.832l1.632-1.632H18l17.277-17.3a1.094,1.094,0,0,0,.35-.816V4.719A26.868,26.868,0,0,1,60.738,26.146a3.418,3.418,0,0,0-1.8,3.031Z" transform="translate(-2.952)"/>
  </g>
</svg>
