<svg xmlns="http://www.w3.org/2000/svg" width="100%" height="100%" viewBox="0 0 70.262 64.445">
  <g id="noun-data-transformation-6575964" transform="translate(-3.134 -7.015)">
    <path id="Path_44858" data-name="Path 44858" d="M47.641,66.974H21.7a4.6,4.6,0,0,1-4.585-4.585v-3.4h1.755v3.4a2.841,2.841,0,0,0,2.83,2.83H47.06a2.543,2.543,0,0,0,.581,1.756ZM59.372,51.526a5.9,5.9,0,1,0,5.9,5.9A5.9,5.9,0,0,0,59.372,51.526Zm-41.378,6.6c-8.208,0-14.859-2.527-14.859-5.639v-5.22A9.658,9.658,0,0,0,7.18,49.836c6,2.278,15.623,2.278,21.631,0a9.7,9.7,0,0,0,4.046-2.573v5.22C32.857,55.6,26.2,58.123,17.994,58.123Zm8.722-4.1a18.906,18.906,0,0,0,2.9-1.013.583.583,0,1,0-.478-1.063,17.7,17.7,0,0,1-2.726.946.584.584,0,0,0,.3,1.129Zm-4.332.805a.582.582,0,0,0-.129-1.157,37.714,37.714,0,0,1-9.838-.178.582.582,0,0,0-.178,1.149A38.472,38.472,0,0,0,22.383,54.833ZM65.172,14.322h6.183c-.129-.129-7.079-7.307-7.079-7.307l-.008,6.4a.907.907,0,0,0,.9.9Zm8.224,41.8v2.618a1.522,1.522,0,0,1-1.519,1.519H69.886A10.807,10.807,0,0,1,68.8,62.867l1.411,1.411a1.519,1.519,0,0,1,0,2.149l-1.851,1.851a1.523,1.523,0,0,1-2.145,0L64.8,66.867A10.733,10.733,0,0,1,62.2,67.945v2a1.524,1.524,0,0,1-1.519,1.519H58.059a1.524,1.524,0,0,1-1.519-1.519v-2a10.978,10.978,0,0,1-2.606-1.079l-1.411,1.411a1.527,1.527,0,0,1-2.149,0l-1.851-1.851a1.532,1.532,0,0,1,0-2.149l1.411-1.411a10.933,10.933,0,0,1-1.083-2.606H46.86a1.522,1.522,0,0,1-1.519-1.519V56.124a1.52,1.52,0,0,1,1.519-1.519h2A10.659,10.659,0,0,1,49.935,52l-1.411-1.411a1.523,1.523,0,0,1,0-2.145l1.851-1.855a1.527,1.527,0,0,1,2.149,0L53.935,48a10.837,10.837,0,0,1,2.606-1.083v-2A1.524,1.524,0,0,1,58.059,43.4h2.618A1.524,1.524,0,0,1,62.2,44.92v2A10.745,10.745,0,0,1,64.8,48l1.415-1.415a1.523,1.523,0,0,1,2.145,0l1.851,1.855a1.515,1.515,0,0,1,0,2.145L68.8,52a10.794,10.794,0,0,1,1.083,2.61h1.992A1.52,1.52,0,0,1,73.4,56.124Zm-7.1,1.307a6.929,6.929,0,1,0-7.486,6.9A6.928,6.928,0,0,0,66.3,57.431ZM3.134,37.58l.016-6.535A9.742,9.742,0,0,0,7.18,33.6c6,2.278,15.623,2.278,21.631,0a9.712,9.712,0,0,0,4.046-2.576v6.556c0,3.112-6.656,5.639-14.863,5.639S3.134,40.693,3.134,37.581Zm23.581,1.145a18.906,18.906,0,0,0,2.9-1.013.583.583,0,1,0-.478-1.063,17.694,17.694,0,0,1-2.726.946.584.584,0,0,0,.3,1.129Zm-14.477.618a38.472,38.472,0,0,0,10.145.187.582.582,0,0,0-.129-1.157,37.714,37.714,0,0,1-9.838-.178.582.582,0,0,0-.178,1.149Zm6.635-20.457a2.841,2.841,0,0,1,2.83-2.83H46.508V14.3H21.7a4.6,4.6,0,0,0-4.585,4.585v3.4h1.755v-3.4ZM47.384,35.629V8.621A1.612,1.612,0,0,1,48.99,7.015H63.4L63.392,13.4a1.791,1.791,0,0,0,1.876,1.8h6.087V35.629a1.61,1.61,0,0,1-1.606,1.606H48.989a1.612,1.612,0,0,1-1.606-1.606Zm18.793-4.4H59.164a.585.585,0,0,0,0,1.17h7.013A.585.585,0,0,0,66.177,31.227Zm0-4.689H62.912a.587.587,0,0,0,0,1.175h3.265A.587.587,0,0,0,66.177,26.538Zm0-4.684H59.164a.585.585,0,0,0,0,1.17h7.013A.585.585,0,0,0,66.177,21.854Zm-3.265-3.519h3.265a.585.585,0,0,0,0-1.17H62.912A.585.585,0,0,0,62.912,18.335Zm-10.348-5.88h7.013a.585.585,0,0,0,0-1.17H52.563A.585.585,0,0,0,52.563,12.455Zm0,5.88h7.013a.585.585,0,0,0,0-1.17H52.563A.585.585,0,0,0,52.563,18.335Zm0,4.689h3.265a.585.585,0,0,0,0-1.17H52.563A.585.585,0,0,0,52.563,23.024Zm0,4.689h7.013a.587.587,0,0,0,0-1.175H52.563A.587.587,0,0,0,52.563,27.713Zm0,4.684h3.265a.585.585,0,0,0,0-1.17H52.563A.585.585,0,0,0,52.563,32.4Zm7.685,9.98V38.115H58.493v4.262ZM17.994,34.431c8.208,0,14.863-2.523,14.863-5.639S26.2,23.157,17.994,23.157s-14.86,2.522-14.86,5.635,6.651,5.639,14.859,5.639Zm-14.86,10.6.008-5.208a9.673,9.673,0,0,0,4.037,2.56c6,2.282,15.623,2.282,21.631,0a9.658,9.658,0,0,0,4.046-2.573v5.22c0,3.112-6.656,5.639-14.863,5.639S3.134,48.144,3.134,45.032Zm23.581,1.344a18.907,18.907,0,0,0,2.9-1.013.582.582,0,1,0-.478-1.062,17.7,17.7,0,0,1-2.726.946.584.584,0,0,0,.3,1.129Zm-14.477.618a38.472,38.472,0,0,0,10.145.187.582.582,0,0,0-.129-1.157,37.714,37.714,0,0,1-9.838-.178.582.582,0,0,0-.178,1.149Z"/>
  </g>
</svg>
