<svg xmlns="http://www.w3.org/2000/svg" width="100%" height="100%" viewBox="0 0 69.958 66.493">
  <g id="noun-data-cleaning-7131842" transform="translate(-12.692 -14.544)">
    <path id="Path_44852" data-name="Path 44852" d="M50.781,15.992V27.357H62.252Z" transform="translate(-2.377 -0.09)"/>
    <path id="Path_44853" data-name="Path 44853" d="M71.741,60.43l-6.292-4.64a5.314,5.314,0,0,0-6.856.44,79.281,79.281,0,0,0-6.376,6.853c-3.981,4.875-7.68,6.234-10.255,6.442,1.9,1.472,4.325,2.827,5.871,1.967a46.613,46.613,0,0,0,7.519-5.761,1.053,1.053,0,0,1,1.45,1.527,48.3,48.3,0,0,1-7.75,5.963,6.66,6.66,0,0,0,7.984-.934l2.824-2.674a1.054,1.054,0,1,1,1.447,1.535l-2.824,2.674a8.966,8.966,0,0,1-2.154,1.465c.1.092.205.187.33.293a7.627,7.627,0,0,0,5.981,1.831A7.862,7.862,0,0,0,68.1,74.2a62,62,0,0,0,4.333-6.8L64.6,61.7A1.054,1.054,0,1,1,65.844,60l7.5,5.457A4.508,4.508,0,0,0,71.74,60.43Z" transform="translate(-1.826 -2.508)"/>
    <path id="Path_44854" data-name="Path 44854" d="M59.909,77.058a9.86,9.86,0,0,1-6.457-2.4A15.281,15.281,0,0,1,52.338,73.6a.334.334,0,0,0-.029-.048,8.757,8.757,0,0,1-1.743.187,8.588,8.588,0,0,1-5.952-2.373c-.011-.011-.011-.015-.022-.022-3.794-.223-7.867-4.487-8.409-5.073A1.054,1.054,0,0,1,37.41,64.61c.2.092,5.164,2.2,11.35-5.369A81.784,81.784,0,0,1,55.3,52.2a7.4,7.4,0,0,1,6.021-2.022V29.377H47.357A1.055,1.055,0,0,1,46.3,28.322l-.007-13.778H14.464a1.774,1.774,0,0,0-1.773,1.773V79.264a1.774,1.774,0,0,0,1.773,1.773H59.55a1.774,1.774,0,0,0,1.773-1.773V76.949c-.088.011-.172.037-.264.044a10.138,10.138,0,0,1-1.15.066ZM24.03,31.325H49.987a1.055,1.055,0,0,1,0,2.11H24.03a1.055,1.055,0,0,1,0-2.11Zm0,9.428H49.987a1.055,1.055,0,0,1,0,2.11H24.03a1.055,1.055,0,0,1,0-2.11Zm0,9.431H49.987a1.055,1.055,0,0,1,0,2.11H24.03a1.055,1.055,0,0,1,0-2.11Zm0,9.428H42.955a1.055,1.055,0,0,1,0,2.11H24.03a1.055,1.055,0,1,1,0-2.11Zm10.06,11.537H24.03a1.055,1.055,0,1,1,0-2.11H34.095a1.055,1.055,0,1,1,0,2.11Z" transform="translate(0 0)"/>
    <path id="Path_44855" data-name="Path 44855" d="M68.52,53.273l4.794,3.538,9.94-13.7-4.893-3.4Z" transform="translate(-3.484 -1.57)"/>
    <path id="Path_44856" data-name="Path 44856" d="M85.643,35.462a2.981,2.981,0,0,0-4.161.659L80.332,37.7l4.893,3.4L86.3,39.619a2.976,2.976,0,0,0-.659-4.157Z" transform="translate(-4.221 -1.27)"/>
  </g>
</svg>
