<svg xmlns="http://www.w3.org/2000/svg" width="100%" height="100%" viewBox="0 0 46.802 59.045">
  <g id="noun-data-coding-5751561" transform="translate(0.002)">
    <g id="Layer_49" data-name="Layer 49" transform="translate(-0.002)">
      <path id="Path_44859" data-name="Path 44859" d="M6.243,47.8l3.008-8.435H45.4a1.406,1.406,0,0,1,1.321,1.884L44.369,47.8ZM5.23,50.61,2.9,57.161a1.4,1.4,0,0,0,1.321,1.884H39.364a1.406,1.406,0,0,0,1.321-.928l2.685-7.507ZM32.335.829V11.247H42.752ZM43.582,14.058V36.552H9.842V1.406A1.406,1.406,0,0,1,11.247,0H29.523V12.653a1.406,1.406,0,0,0,1.406,1.406ZM20.259,25.305l1.828-1.814a1.412,1.412,0,0,0-2-2l-2.812,2.812a1.406,1.406,0,0,0,0,2l2.812,2.812a1.412,1.412,0,1,0,2-2Zm8.435-1.982a1.406,1.406,0,0,0-1.982,0l-1.982,1.982a1.4,1.4,0,1,0,1.982,1.982l1.982-1.982A1.406,1.406,0,0,0,28.694,23.323Zm7.451.984L33.333,21.5a1.412,1.412,0,0,0-2,2l1.828,1.814-1.828,1.814a1.412,1.412,0,1,0,2,2L36.145,26.3a1.406,1.406,0,0,0,0-2ZM.254,56.234,7.03,37.227v-9.11H1.407A1.406,1.406,0,0,0,0,29.523V57.794a4.077,4.077,0,0,1,.253-1.56Z" transform="translate(0.002)"/>
    </g>
  </g>
</svg>
