<svg xmlns="http://www.w3.org/2000/svg" width="100%" height="100%" viewBox="0 0 53.164 58.637">
  <g id="noun-forecasting-7210715" transform="translate(-7.5 -3.126)">
    <path id="Path_44866" data-name="Path 44866" d="M34.441,3.753A18.287,18.287,0,1,1,16.154,22.041,18.287,18.287,0,0,1,34.441,3.753ZM10.148,59.745H58.395l-1.031.924a.626.626,0,1,0,.836.933l2.253-2.018a.508.508,0,0,0,.051-.051.626.626,0,0,0-.049-.884L58.2,56.628a.626.626,0,1,0-.836.933l1.031.924H54.686V46.063l-.081-.076L49.658,41.04H47.219l0,17.447h-3.11V48.93H36.647v9.558h-3.11V44.972H26.073V58.487h-3.11V52.66H15.5v5.827H10.778V5.393L11.7,6.424a.626.626,0,0,0,.933-.836L10.617,3.336a.628.628,0,0,0-.936,0L7.66,5.589a.626.626,0,0,0,.933.836l.924-1.031V59.115a.63.63,0,0,0,.63.63ZM57.676,45.274a1.669,1.669,0,0,0,0-2.358l-7.261-7.264-.674.674-1.168-1.151q-.462.5-.96.96l1.168,1.148-.2.2-.518.52,7.261,7.261a1.662,1.662,0,0,0,2.355,0Zm-25.068-30.7a.684.684,0,1,0,.2.484A.7.7,0,0,0,32.609,14.569Zm10.538-1.124a.684.684,0,1,0,.2.484A.7.7,0,0,0,43.147,13.446Zm-6.184,3.934a.684.684,0,1,0,.2.484A.681.681,0,0,0,36.963,17.379Zm-3.208-1.872a1.633,1.633,0,0,0,.061-.454,1.693,1.693,0,0,0-3.386,0,1.775,1.775,0,0,0,.027.305l-3.039,1.591,0,0a1.693,1.693,0,1,0,.5,1.2,1.775,1.775,0,0,0-.027-.305l3.039-1.591,0,0a1.693,1.693,0,0,0,2.282.1l1.639,1.058a1.633,1.633,0,0,0-.061.454,1.693,1.693,0,0,0,3.386,0,1.775,1.775,0,0,0-.059-.445l3.455-2.2a1.694,1.694,0,1,0-.6-1.293,1.669,1.669,0,0,0,.059.445l-3.455,2.2a1.694,1.694,0,0,0-2.179-.007ZM26.706,17.66a.684.684,0,1,0,.2.484A.681.681,0,0,0,26.706,17.66ZM40.031,28.938H38.844V23.851a.5.5,0,0,0-.5-.5h-2.8a.5.5,0,0,0-.5.5v5.087H33.847V22.265a.5.5,0,0,0-.5-.5h-2.8a.5.5,0,0,0-.5.5v6.672H28.851V25.715a.5.5,0,0,0-.5-.5h-2.8a.5.5,0,0,0-.5.5v3.223H23.781a.5.5,0,0,0,0,1.007H45.1a.5.5,0,0,0,0-1.007H43.84V20.482a.5.5,0,0,0-.5-.5h-2.8a.5.5,0,0,0-.5.5Zm2.8,0V20.985H41.04l0,7.953Zm-5,0V24.357H36.044v4.581Zm-5,0V22.769H31.048v6.169Zm-5,0V26.219H26.051v2.719Zm6.6-23.284a16.383,16.383,0,1,0,11.586,4.8,16.339,16.339,0,0,0-11.586-4.8Zm10.875,5.512a15.378,15.378,0,1,0,4.5,10.873A15.326,15.326,0,0,0,45.316,11.166Z" fill-rule="evenodd"/>
  </g>
</svg>
