<svg xmlns="http://www.w3.org/2000/svg" width="100%" height="100%" viewBox="0 0 63.615 63.289">
  <g id="noun-statistical-analysis-6500112" transform="translate(-5 -5.23)">
    <path id="Path_44865" data-name="Path 44865" d="M14.252,6.311,6.081,14.482h6.4a1.774,1.774,0,0,0,1.767-1.767Zm13.1,25.82,10.2-10.2L35.818,20.2a2.17,2.17,0,0,1,1.548-3.711l8.623.035a2.17,2.17,0,0,1,2.163,2.163v8.623a2.177,2.177,0,0,1-3.711,1.548l-1.7-1.732L29.965,39.907a3.711,3.711,0,0,1-2.615,1.074h0A3.661,3.661,0,0,1,24.742,39.9L22.48,37.638,15.1,45.031c-2.036,2.036-4.948.834-5.923-1.343a3.315,3.315,0,0,1,.707-3.852l9.959-9.966a3.7,3.7,0,0,1,5.223,0l2.255,2.262ZM39.168,22.47,27.859,33.779a.77.77,0,0,1-1.081,0L23.95,30.951a2.177,2.177,0,0,0-3.068,0l-9.966,9.966c-1.866,1.866,1.173,4.9,3.039,3.032l8.008-7.924a.77.77,0,0,1,1.081,0l2.827,2.827a2.17,2.17,0,0,0,1.534.636h0a2.156,2.156,0,0,0,1.534-.636L42.207,25.509a.749.749,0,0,1,1.074,0l2.3,2.3a.65.65,0,0,0,1.117-.488L46.668,18.7a.664.664,0,0,0-.65-.65l-8.623-.035a.65.65,0,0,0-.459,1.11L39.2,21.388a.77.77,0,0,1,0,1.081ZM15.645,53.2H11.072V63.211h4.573Zm-5.337-1.527h6.1a.763.763,0,0,1,.763.749V63.974a.763.763,0,0,1-.763.763h-6.1a.77.77,0,0,1-.763-.763V52.425a.763.763,0,0,1,.763-.763Zm15.444-7.535H21.186V63.225h4.566Zm-5.329-1.527a.763.763,0,0,0-.763.763v20.6a.763.763,0,0,0,.763.763h6.093a.763.763,0,0,0,.763-.763v-20.6a.763.763,0,0,0-.763-.763ZM25.5,7.188a8.164,8.164,0,1,0,8.121,8.171A8.164,8.164,0,0,0,25.5,7.188Zm.707,7.733L31.534,18A6.644,6.644,0,0,0,26.2,8.771v6.149Zm4.566,4.4L25.116,16.03a.749.749,0,0,1-.4-.707V8.771A6.637,6.637,0,1,0,30.8,19.317ZM46,32.669A11.309,11.309,0,1,0,57.305,43.978,11.309,11.309,0,0,0,46,32.669Zm-10.129,19.2V63.211H31.294V49.251h3a12.723,12.723,0,0,0,1.576,2.615Zm10.108,4.948a12.914,12.914,0,0,1-4.573-.855v7.252H46V56.85ZM36.934,34.9a12.857,12.857,0,0,0-3.216,12.822H30.531a.763.763,0,0,0-.792.763V63.974a.763.763,0,0,0,.763.763h6.1a.763.763,0,0,0,.763-.763V53.513a12.723,12.723,0,0,0,2.516,1.739v8.722a.763.763,0,0,0,.763.763h6.093a.763.763,0,0,0,.763-.763V56.744a12.61,12.61,0,0,0,4.545-1.414V66.752a1.774,1.774,0,0,1-1.767,1.767H6.767A1.774,1.774,0,0,1,5,66.752V16.009h7.485a3.3,3.3,0,0,0,3.294-3.294V5.23h34.5A1.774,1.774,0,0,1,52.046,7V32.634a12.836,12.836,0,0,0-15.112,2.255ZM46,36.8a7.188,7.188,0,1,0,7.2,7.181h0A7.2,7.2,0,0,0,46,36.8ZM39.84,37.829a8.708,8.708,0,1,0,14.843,6.156h0A8.715,8.715,0,0,0,39.84,37.829ZM59.56,55.464A2.078,2.078,0,0,0,58.09,59l6.991,6.983a2.071,2.071,0,0,0,3.534-1.463h0a2.12,2.12,0,0,0-.608-1.491l-6.983-6.983a2.057,2.057,0,0,0-1.463-.6Zm-2.545-.474a3.534,3.534,0,0,0-.707.968l-2.12-2.12a12.193,12.193,0,0,0,1.7-1.633l2.12,2.12a3.534,3.534,0,0,0-.968.707Zm-6.185-11c.057-1.2.092-2.333.1-2.608a.756.756,0,0,0-.848-.841l-2.594.1a.763.763,0,1,0,.057,1.52h.707l-2.41,2.417-.933-.933a.77.77,0,0,0-1.081,0l-2.509,2.488a.763.763,0,0,0,1.074,1.081l1.979-1.979.919.933a.77.77,0,0,0,1.081,0l2.969-2.933v.707a.763.763,0,0,0,1.52.064Z" transform="translate(0 0)" fill-rule="evenodd"/>
  </g>
</svg>
