<?xml version="1.0" encoding="utf-8"?>
<!-- Generator: Adobe Illustrator 28.0.0, SVG Export Plug-In . SVG Version: 6.00 Build 0)  -->
<svg version="1.1" id="Layer_1" xmlns="http://www.w3.org/2000/svg" xmlns:xlink="http://www.w3.org/1999/xlink" x="0px" y="0px"
	 viewBox="0 0 78 76" style="enable-background:new 0 0 78 76;" xml:space="preserve">
<style type="text/css">
	.st0{fill:#333333;}
	.st1{fill:#FFFFFF;}
</style>
<g>
	<path class="st0" d="M69.4,18.7C68.1,12.2,63.1,7,56.5,5.6c-0.6,0-1.1-0.1-1.7-0.2h-3.2c-0.2,0.1-0.6,0.2-0.9,0.2
		c-3.2,0.5-6,1.8-8.3,3.9c-3.5,3-5.4,7.4-5.4,12.1c2.6,0.8,5.1,2,7.3,3.6c4.3,3,7.6,7.6,9,12.6c0,0.1,0.1,0.1,0.1,0.2
		c0.7,0,1.2,0,1.9-0.1c2.1-0.2,4.2-0.9,6-2c0.3-0.2,0.8-0.2,1.1-0.1c1.5,0.5,3.2,0.9,4.4,1.2c1.4,0.3,2.1-0.3,1.7-1.8
		c-0.5-1.5-0.8-2.9-1.2-4.4c-0.1-0.3,0-0.7,0.1-1c0.7-1.1,1.2-2.4,1.6-3.7c0.3-0.9,0.3-1.9,0.6-2.8v-2.7
		C69.6,20,69.5,19.3,69.4,18.7z"/>
	<g>
		<path class="st0" d="M53.7,38.1c0-0.1-0.1-0.1-0.1-0.2c-1.7-5.1-4.8-9.6-9.2-12.6c-2.3-1.6-4.7-2.8-7.3-3.6h-0.2
			c-3.4-0.9-7-1.1-10.5-0.5c-5.9,0.9-11.2,4.2-14.5,9c-6,8.2-6.9,16.9-2,26c0.1,0.2,0.2,0.6,0.1,0.9c-0.6,2-1.1,4.1-1.6,6.1
			c-0.2,0.7-0.2,1.4,0,2c0.6,1.6,2.3,2.4,3.8,1.8c2-0.6,3.9-1,6-1.6c0.3-0.1,0.8-0.1,1.1,0.1c3.2,1.8,6.8,2.8,10.5,2.9
			c6.3,0.2,12.4-2,17-6.3c5.3-4.5,8.1-11.2,7.9-18C54.5,42.2,54.3,40,53.7,38.1z M45,60.6c-4.1,3.7-9.2,5.8-14.7,5.8
			c-0.2,0-0.6,0-0.8,0c-3.3-0.1-6.5-1-9.4-2.6c-0.6-0.3-1.2-0.5-1.8-0.5c-0.3,0-0.8,0.1-1.1,0.1c-1.9,0.6-3.8,1-5.9,1.6h-0.1h-0.1
			c-0.1,0-0.1,0-0.2,0c-0.2,0-0.6-0.1-0.7-0.5c-0.1-0.1-0.1-0.3,0-0.6v-0.1v-0.1c0.6-2,1.1-4.1,1.6-6c0.2-0.8,0.1-1.8-0.3-2.6
			c-4.3-8.2-3.7-15.9,1.9-23.7c3-4.3,7.9-7.3,13.1-8.1c1.2-0.2,2.5-0.3,3.8-0.3c1.9,0,3.9,0.2,5.8,0.8l0.3,0.1h0.2
			c2.3,0.7,4.4,1.8,6.3,3.2c3.9,2.8,6.8,6.9,8.1,11.4v0.1c0,0.1,0,0.1,0.1,0.2c0.5,1.8,0.7,3.6,0.8,5.4C52.3,50.6,49.8,56.5,45,60.6
			z"/>
		<path class="st1" d="M53.4,20.2c-0.9,0-1.6,0.7-1.6,1.6c0,0.9,0.7,1.6,1.6,1.6s1.6-0.7,1.6-1.6C54.9,20.9,54.1,20.2,53.4,20.2z"/>
		<path class="st1" d="M59.7,20.2c-0.9,0-1.6,0.7-1.6,1.6c0,0.9,0.7,1.6,1.6,1.6s1.6-0.7,1.6-1.6S60.6,20.2,59.7,20.2z"/>
		<path class="st1" d="M46.9,23.3c0.9,0,1.6-0.7,1.6-1.6c0-0.9-0.7-1.6-1.6-1.6s-1.6,0.7-1.6,1.6C45.4,22.7,46,23.3,46.9,23.3z"/>
		<path class="st0" d="M38.6,35.1c-0.3,0-0.8,0-1.1,0h-1.2v-4.3c0-0.6-0.2-0.9-0.7-1.1c-0.3-0.2-0.8-0.1-1.1,0
			c-0.3,0.2-0.6,0.6-0.6,1c0,1,0,2,0,2.9v1.2h-8.3v-4.2c0-0.1,0-0.2,0-0.5c-0.1-0.6-0.7-1-1.2-0.9c-0.6,0-1,0.6-1.1,1.1c0,1,0,2,0,3
			v1.2h-0.7c-0.6,0-1.1,0-1.6,0c-0.8,0-1.2,0.5-1.2,1.2c0,1.1,0,2.3,0,3.5c0,0.8,0.5,1.2,1.2,1.2h0.6v1.4c0,1,0,1.9,0,2.9
			c0,3.6,2.4,6.7,5.8,7.8c0.3,0.1,0.8,0.2,1.1,0.3c0.1,0,0.2,0,0.3,0.1c0.5,3.4,2.9,6.1,6.1,6.9c0.3,0.1,0.7,0.1,0.9,0.2
			c0.1,0,0.3,0,0.5,0.1h0.9h-0.1c0.6-0.3,0.8-0.8,0.7-1.4s-0.6-0.9-1.2-0.9c-1.9-0.1-3.5-0.9-4.6-2.4c-0.6-0.8-0.9-1.6-1.1-2.5
			c4.2-0.7,7-4.2,7-8.3v-4.1c0.2,0,0.5,0,0.6,0c0.7,0,1.1-0.5,1.1-1.1c0-1.2,0-2.4,0-3.6C39.7,35.5,39.2,35.1,38.6,35.1z M37.3,38.6
			h-0.5c-0.8,0-1.2,0.5-1.2,1.2V45c0,3-2,5.4-5,6c-1.5,0.3-3-0.1-4.4-1s-2.3-2.3-2.5-3.7c-0.1-0.5-0.1-0.8-0.1-1.2
			c0-1.2,0-2.4,0-3.6V40c0-0.9-0.5-1.4-1.4-1.4h-0.5v-1.2h15.4v1.2H37.3z"/>
	</g>
</g>
</svg>
