<svg xmlns="http://www.w3.org/2000/svg" width="100%" height="100%" viewBox="0 0 151.825 143.157">
  <g id="Group_2217" data-name="Group 2217" transform="translate(-33 -49.008)" style="mix-blend-mode: luminosity;isolation: isolate">
    <g id="user" transform="translate(47.088 62.333)">
      <path id="Path_18451" data-name="Path 18451" d="M156.357,373.339c-13.063-.044-26.459,1.145-33.3-.26h0a49.793,49.793,0,0,0-5.1-.807c-4.1-.434-5.51-.072-8.133-.282-.895-.072-6.641-.583-10.878-3.768a12.336,12.336,0,0,1-4.636-7.14c-2.361-8.548,4.909-15.386,5.555-15.971.821-.746,3.319-2.38,8.779-5.157a96.369,96.369,0,0,1,19.168-7.213c1.624-.429,2.052-.2,2.479,1.255,2.461,8.3,9.154,13.538,20.1,15.47,13.518,2.38,27.778-4.76,30.35-15.073.042-.164.076-.332.121-.5.2-.712.42-1.125.824-1.285a2.747,2.747,0,0,1,1.737.171c4.765,1.785,8.957,1.545,17.526,6.193a54.964,54.964,0,0,1,8.015,5.244,24.611,24.611,0,0,1,4.46,4.179,15.367,15.367,0,0,1,3.119,6.743,12.593,12.593,0,0,1-1.7,8.9,14.989,14.989,0,0,1-6.777,6.067,23.6,23.6,0,0,1-7.759,1.888c-2.718.232-3.917-.1-7.4.27h0a40.266,40.266,0,0,0-4.864.817c-6.189,1.364-19.8.3-31.686.26Z" transform="translate(-93.839 -243.939)" fill="#42424f"/>
      <path id="Path_18452" data-name="Path 18452" d="M210.076,26.477c-5.746,10.839-4.893,29.2,9.275,40q-.557-.091-1.1-.232c-14.44-4.758-24.214-13.063-27.149-25.778-3-12.976,2.382-23.813,14.67-32.191,16.99-11.6,43.2-10.884,59.408,1.4,20.235,15.335,17.149,41.239-6.4,53.241a72.963,72.963,0,0,1-8.93,3.593c8.143-6.662,11.636-14.8,12.279-23.989-21.717,3.955-39.184-.891-52.056-16.046Z" transform="translate(-172.8 -12.051)" fill="#42424f"/>
    </g>
    <g id="noun-call-center-4067192" transform="translate(56.127 49.008)">
      <path id="Path_18455" data-name="Path 18455" d="M240.662,203.332c17.466-4.728,30.2-19.016,33.829-37.977h0a7.875,7.875,0,0,0,5.568-7.511V147.337a7.879,7.879,0,0,0-5.043-7.328,49.9,49.9,0,0,0-94.972,0A7.879,7.879,0,0,0,175,147.337v10.506a7.879,7.879,0,1,0,15.759,0V147.337a7.879,7.879,0,0,0-5.253-7.38,44.65,44.65,0,0,1,83.889,0,7.877,7.877,0,0,0-5.1,7.38v10.506a7.878,7.878,0,0,0,4.833,7.248c-3.44,16.756-14.34,28.891-29.732,33.147a7.88,7.88,0,0,0-6.619-3.624H222.277a7.879,7.879,0,1,0,0,15.759h10.506a7.879,7.879,0,0,0,7.879-7.039Zm-55.155-45.49a2.626,2.626,0,1,1-5.253,0V147.336a2.626,2.626,0,0,1,5.253,0Zm89.3,0a2.626,2.626,0,1,1-5.253,0V147.336a2.626,2.626,0,0,1,5.253,0Zm-42.023,47.276H222.277a2.626,2.626,0,0,1,0-5.253h10.506a2.626,2.626,0,1,1,0,5.253Z" transform="translate(-175.001 -105.448)" fill="#f15a5c"/>
    </g>
    <path id="Icon_awesome-volume-up" data-name="Icon awesome-volume-up" d="M10.411,2.332a1.26,1.26,0,0,1,1.383,2.107,12.169,12.169,0,0,0,0,20.373,1.26,1.26,0,1,1-1.383,2.107,14.69,14.69,0,0,1,0-24.587ZM8.763,14.625A9.616,9.616,0,0,1,13.23,6.487a1.245,1.245,0,0,1,1.725.389,1.265,1.265,0,0,1-.386,1.737,7.118,7.118,0,0,0,0,12.023,1.265,1.265,0,0,1,.386,1.737,1.247,1.247,0,0,1-1.725.389A9.616,9.616,0,0,1,8.763,14.625Zm7.384-4a1.25,1.25,0,1,1,1.206,2.191,2.053,2.053,0,0,0,0,3.626,1.25,1.25,0,0,1-1.206,2.191,4.554,4.554,0,0,1,0-8.007Z" transform="translate(29.237 79.304)" fill="#42424f"/>
    <path id="Icon_awesome-volume-up-2" data-name="Icon awesome-volume-up" d="M6.648.207A1.26,1.26,0,0,1,8.032,2.314a12.169,12.169,0,0,0,0,20.373,1.26,1.26,0,1,1-1.383,2.107,14.69,14.69,0,0,1,0-24.587ZM5,12.5A9.616,9.616,0,0,1,9.467,4.363a1.245,1.245,0,0,1,1.725.389,1.265,1.265,0,0,1-.386,1.737,7.118,7.118,0,0,0,0,12.023,1.265,1.265,0,0,1,.386,1.737,1.247,1.247,0,0,1-1.725.389A9.616,9.616,0,0,1,5,12.5Zm7.384-4a1.25,1.25,0,1,1,1.206,2.191,2.053,2.053,0,0,0,0,3.626A1.25,1.25,0,0,1,12.383,16.5a4.554,4.554,0,0,1,0-8.007Z" transform="matrix(-1, -0.017, 0.017, -1, 184.389, 107.689)" fill="#42424f"/>
  </g>
</svg>
