<?xml version="1.0" encoding="UTF-8"?>
<svg version="1.1" xmlns="http://www.w3.org/2000/svg" width="122" height="146" class="icons-words">
<path d="M0 0 C4.22985407 4.12668689 4.61107605 8.36060273 5 14 C6.01320312 13.96519531 7.02640625 13.93039062 8.0703125 13.89453125 C9.4218583 13.86637405 10.77342219 13.83907597 12.125 13.8125 C12.79015625 13.78736328 13.4553125 13.76222656 14.140625 13.73632812 C20.00876247 13.65003199 23.72609898 15.32449398 28.375 18.75 C30.72219404 21.99996098 30.54994002 24.08167736 30 28 C28.20573857 30.69139215 26.27765827 32.72234173 24 35 C24.66 36.051875 25.32 37.10375 26 38.1875 C29.50685928 45.22617842 29.0119151 53.53941305 26.75 60.9375 C25.30671547 64.68037184 23.38881887 67.78745048 21 71 C21.495 71.37125 21.99 71.7425 22.5 72.125 C22.995 72.74375 23.49 73.3625 24 74 C23.896875 74.928125 23.79375 75.85625 23.6875 76.8125 C23.65851511 80.00464656 23.65851511 80.00464656 25.62890625 81.6171875 C27.70942371 83.1574601 29.83134674 84.58720947 32 86 C33.3399574 86.99110642 34.67530848 87.98858013 36 89 C36.4021875 88.1028125 36.4021875 88.1028125 36.8125 87.1875 C38.03854802 84.92899048 38.93534581 83.52937348 41 82 C43.6875 81.8125 43.6875 81.8125 46 82 C46.93423645 85.01031744 47.04449911 85.86650268 46 89 C47.010625 88.67 48.02125 88.34 49.0625 88 C52.83979737 86.95456618 56.06391589 86.48976687 60 87 C63 89.0625 63 89.0625 65 92 C65.18991912 95.54515689 65.07099992 97.79280356 62.6484375 100.5234375 C58.91080155 103.70871346 56.44874942 105.14102575 51.625 105.125 C50.46871094 105.12886719 50.46871094 105.12886719 49.2890625 105.1328125 C47.0671811 105.00389788 45.13381492 104.61383717 43 104 C43.05220703 105.03447266 43.05220703 105.03447266 43.10546875 106.08984375 C43.43256748 117.44484238 40.65344624 124.59198864 33 133 C25.02201203 141.39965752 15.09723039 146.00982503 3.5 146.3125 C-7.78342833 146.17388294 -17.51030269 142.40242029 -26 135 C-28.48747271 132.44317396 -30.75775518 129.77095596 -33 127 C-33.66 126.34 -34.32 125.68 -35 125 C-35.66 125.165 -36.32 125.33 -37 125.5 C-37.66 125.665 -38.32 125.83 -39 126 C-39.66 125.34 -40.32 124.68 -41 124 C-41.825 124.165 -42.65 124.33 -43.5 124.5 C-44.325 124.665 -45.15 124.83 -46 125 C-46.66 124.34 -47.32 123.68 -48 123 C-48 122.01 -48 121.02 -48 120 C-50.475 120.99 -50.475 120.99 -53 122 C-55.0625 120.5625 -55.0625 120.5625 -57 118 C-57.53312181 114.73061446 -57.12684507 112.10394596 -56 109 C-52.54354929 104.2692013 -47.91276668 100.90369576 -43.25 97.4375 C-39.11785129 94.3188972 -37.27120382 91.62652631 -35 87 C-31.3834682 80.88930834 -26.84819408 76.89879605 -21 73 C-21.38671875 72.55011719 -21.7734375 72.10023437 -22.171875 71.63671875 C-26.5965656 66.17156872 -28.91172862 60.68246843 -31 54 C-32.299375 54.1546875 -32.299375 54.1546875 -33.625 54.3125 C-38.22488246 53.88658496 -39.94950217 52.41365233 -43 49 C-43.8125 45.625 -43.8125 45.625 -43 42 C-40.50094123 38.74541183 -37.69304146 35.84652073 -34 34 C-35.18952228 31.42270173 -36.42614095 29.45210449 -38.1875 27.1875 C-40 24 -40 24 -40.25 20.5625 C-37.13776321 11.69262514 -26.92732754 7.0634116 -19 3 C-13.03835101 0.27439958 -6.53959026 -1.42318421 0 0 Z M-31 13 C-31.99773438 13.61875 -31.99773438 13.61875 -33.015625 14.25 C-36.01814174 16.38262871 -36.94680211 17.76060952 -37.75 21.375 C-36.75873137 26.16613171 -34.43070931 28.6407638 -31 32 C-30.12859375 31.49210937 -29.2571875 30.98421875 -28.359375 30.4609375 C-18.22920926 24.59150974 -8.10045698 18.84246588 3 15 C1.68 11.04 0.36 7.08 -1 3 C-12.08066519 3 -21.70360269 7.16696639 -31 13 Z M-6 21 C-6 21.33 -6 21.66 -6 22 C-5.0821875 22.09796875 -4.164375 22.1959375 -3.21875 22.296875 C5.03905219 23.30307779 11.71083124 24.32356963 18.1875 29.875 C19.0846875 30.431875 19.0846875 30.431875 20 31 C23.13759973 30.17824769 24.70255875 29.29744125 27 27 C27.58402133 24.58582128 27.58402133 24.58582128 27 22 C22.71448687 17.71448687 18.94742715 16.85564078 13.0625 16.6875 C6.29996079 16.7149157 0.31894845 18.74969086 -6 21 Z M-19.20703125 31.89453125 C-25.15836071 38.88312947 -27.4377682 46.85032575 -27.33984375 55.859375 C-26.63951438 62.3313844 -23.36320097 66.9995734 -18.6875 71.375 C-11.46297894 76.95617507 -4.0037996 78.04291115 5 77 C11.15458982 75.41226948 16.0457513 73.11726302 20 68 C24.80253972 59.81608028 25.86966966 52.49859978 25 43 C23.96566537 39.96023053 22.71974696 37.74084672 21 35 C20.34 35 19.68 35 19 35 C18.94714844 34.40574219 18.89429688 33.81148437 18.83984375 33.19921875 C17.27472809 29.10079959 13.04145187 28.03608654 9.265625 26.2734375 C-1.48075625 22.08286299 -10.80826441 24.03221259 -19.20703125 31.89453125 Z M-33 36 C-33.67804687 36.47308594 -34.35609375 36.94617187 -35.0546875 37.43359375 C-38.6196498 40.1383537 -40.33630978 42.54379426 -41 47 C-40.30596047 49.53711443 -40.30596047 49.53711443 -38 51 C-35.24437863 51.33565526 -32.79480082 51.18326563 -30 51 C-29.68869141 49.89205078 -29.68869141 49.89205078 -29.37109375 48.76171875 C-27.00262965 40.96263402 -23.66961651 34.66338535 -19 28 C-23.89761909 28 -29.09564733 33.27306961 -33 36 Z M10.74609375 77.02734375 C4.74690627 80.36917302 -3.53030504 79.77504874 -10.0078125 78.328125 C-12.36792043 77.61538585 -14.6894115 76.85880281 -17 76 C-17.98179183 80.12076007 -17.9193223 82.16135541 -16 86 C-13.33920174 88.66079826 -5.51671937 87.18564452 -1.9375 87.1875 C-0.1131543 87.20586914 -0.1131543 87.20586914 1.74804688 87.22460938 C8.19219937 87.23509904 13.84256393 86.94485809 20 85 C20.87867729 81.26562152 21.08912219 77.83225427 21 74 C16.64525804 73.47215249 14.28697571 74.74580549 10.74609375 77.02734375 Z M-28.1484375 80.96484375 C-30.25749532 83.28302755 -31.47977544 85.57285906 -32.875 88.375 C-35.90574532 94.3314248 -39.82379531 97.88948451 -45 102 C-46.35834069 103.16180422 -47.71293697 104.32801105 -49.0625 105.5 C-50.5165625 106.7375 -50.5165625 106.7375 -52 108 C-51.360625 108.268125 -50.72125 108.53625 -50.0625 108.8125 C-48 110 -48 110 -47 113 C-46.154375 112.938125 -45.30875 112.87625 -44.4375 112.8125 C-40.26380157 113.04015628 -37.74567053 114.20207814 -34 116 C-33.78085937 115.26136719 -33.56171875 114.52273437 -33.3359375 113.76171875 C-31.2959586 107.23544479 -28.78205368 101.53581098 -25.390625 95.609375 C-23.40579081 91.88502321 -22.11712877 88.05863329 -21 84 C-20.68482422 82.97712891 -20.68482422 82.97712891 -20.36328125 81.93359375 C-19.79898952 79.79309353 -19.79898952 79.79309353 -21 77 C-24.15705027 77 -25.86617271 78.9784281 -28.1484375 80.96484375 Z M23 84 C22.30269775 84.70624512 22.30269775 84.70624512 21.59130859 85.42675781 C16.94697856 90.01835995 7.45134688 89.25717311 1.3359375 89.2734375 C-0.12972656 89.26183594 -0.12972656 89.26183594 -1.625 89.25 C-3.10226563 89.26160156 -3.10226563 89.26160156 -4.609375 89.2734375 C-10.42018345 89.25794201 -15.43014993 88.66698601 -21 87 C-21.20625 88.299375 -21.4125 89.59875 -21.625 90.9375 C-22.44533738 94.72049466 -23.66299016 97.25389841 -25.9375 100.375 C-30.0969484 106.21657826 -32.43181664 112.94321197 -32.0625 120.1875 C-29.81265681 128.26046675 -24.10117025 133.80385394 -17 138 C-7.39375112 143.12121215 3.6884483 143.49957796 14.21875 141.33984375 C24.56020794 137.98467973 31.83126038 131.46142168 37 122 C40.58661472 114.66374261 39.88209652 105.77146696 37.375 98.1875 C34.88959337 92.0668545 31.4877861 87.65852406 26 84 C25.01 84 24.02 84 23 84 Z M39.375 86.3125 C36.6689011 88.7769076 36.6689011 88.7769076 37 92 C38.4263486 96.23709438 39.79507393 99.35737276 43.8125 101.5 C50.20974174 102.5034889 54.34576623 102.36561534 60 99 C61.41577477 97.81575674 61.41577477 97.81575674 61.0625 94.4375 C61.0315625 92.7359375 61.0315625 92.7359375 61 91 C56.22168164 88.61084082 50.07729403 90.17105404 45 91 C44 86.25 44 86.25 44 84 C41.66706542 83.77965649 41.66706542 83.77965649 39.375 86.3125 Z M-54 112 C-54.33 113.32 -54.66 114.64 -55 116 C-54.01 116 -53.02 116 -52 116 C-51.01 117.485 -51.01 117.485 -50 119 C-48.68 119 -47.36 119 -46 119 C-45.67 119.66 -45.34 120.32 -45 121 C-44.071875 120.773125 -43.14375 120.54625 -42.1875 120.3125 C-39 120 -39 120 -37.125 121.4375 C-36.568125 122.2109375 -36.568125 122.2109375 -36 123 C-35.67 121.68 -35.34 120.36 -35 119 C-36.2065625 118.566875 -36.2065625 118.566875 -37.4375 118.125 C-40 117 -40 117 -41 115 C-43.31 115 -45.62 115 -48 115 C-48.33 114.01 -48.66 113.02 -49 112 C-50.65 112 -52.3 112 -54 112 Z " fill="#40404D" transform="translate(57,0)"/>
<path d="M0 0 C4.44026103 4.22366293 4.74047978 9.16079495 5 15 C4.01 14.67 3.02 14.34 2 14 C1.05078125 11.49609375 1.05078125 11.49609375 0.3125 8.4375 C0.06113281 7.42558594 -0.19023438 6.41367188 -0.44921875 5.37109375 C-0.63097656 4.58863281 -0.81273437 3.80617187 -1 3 C-13.37665974 5.32392473 -26.72183897 8.72183897 -36 18 C-36.55676245 22.56967542 -36.55676245 22.56967542 -34.8828125 26.7265625 C-33.61795309 28.17722047 -32.31088675 29.59079674 -31 31 C-31 31.66 -31 32.32 -31 33 C-34.82919612 31.49567295 -36.78089547 29.44343806 -39 26 C-40.09132567 22.72602298 -40.7176829 20.49291585 -39.171875 17.27734375 C-31.48471465 7.11269498 -13.10010856 -3.1411041 0 0 Z " fill="#F1585B" transform="translate(57,0)"/>
<path d="M0 0 C1.0625 2.25 1.0625 2.25 2 5 C2.845625 5.845625 3.69125 6.69125 4.5625 7.5625 C7.89285714 10.89285714 7.89285714 10.89285714 8 14 C7.34 14.66 6.68 15.32 6 16 C5.01 16 4.02 16 3 16 C2.731875 16.94875 2.46375 17.8975 2.1875 18.875 C1 22 1 22 -2 24 C-6.96495273 24.45971784 -10.06167696 24.15065843 -14 21 C-16.59546366 17.53938179 -16.47425963 14.20058534 -16 10 C-14.71667753 6.41518186 -13.34148471 3.01791362 -11 0 C-7.11827225 -1.24901019 -3.90574025 -1.21511919 0 0 Z M-11 5 C-12.69213943 7.95955861 -13.29521319 10.15699917 -13.3125 13.5625 C-13.32925781 14.32691406 -13.34601562 15.09132813 -13.36328125 15.87890625 C-12.91020043 18.5243136 -12.09441982 19.37156353 -10 21 C-6.3220369 22.13168095 -4.86932223 21.96733056 -1 21 C-0.34 18.36 0.32 15.72 1 13 C1.99 13 2.98 13 4 13 C3.69025617 10.10905762 2.95829554 8.95308249 1 6.75 C-3.06924552 4.37627345 -6.40051313 4.63925593 -11 5 Z " fill="#F2595B" transform="translate(51,102)"/>
<path d="M0 0 C0.93423645 3.01031744 1.04449911 3.86650268 0 7 C1.5159375 6.505 1.5159375 6.505 3.0625 6 C6.83979737 4.95456618 10.06391589 4.48976687 14 5 C17 7.0625 17 7.0625 19 10 C19.18991912 13.54515689 19.07099992 15.79280356 16.6484375 18.5234375 C11.37599847 23.01669835 7.69485306 23.49634255 1 23 C-2.0625 22 -2.0625 22 -4 21 C-4 20.01 -4 19.02 -4 18 C-3.319375 18.165 -2.63875 18.33 -1.9375 18.5 C2.85133315 19.31512054 6.71009477 19.40608128 11.375 17.9375 C14.38266493 16.15396896 14.38266493 16.15396896 14.875 12.3125 C14.91625 11.219375 14.9575 10.12625 15 9 C10.58725175 8.90994391 6.43577982 8.9308286 2.0625 9.625 C1.051875 9.74875 0.04125 9.8725 -1 10 C-1.66 9.34 -2.32 8.68 -3 8 C-2.625 4.875 -2.625 4.875 -2 2 C-5.53372712 3.96318174 -8.24479785 6.04070881 -11 9 C-9.03329621 3.09988863 -6.66164979 -0.74018331 0 0 Z " fill="#F1585A" transform="translate(103,82)"/>
<path d="M0 0 C1.85546875 1.63671875 1.85546875 1.63671875 3 3 C-0.44069624 5.29379749 -1.72290301 6 -6 6 C-6.33 7.32 -6.66 8.64 -7 10 C-7.99 10 -8.98 10 -10 10 C-10 9.34 -10 8.68 -10 8 C-10.81984375 8.04640625 -11.6396875 8.0928125 -12.484375 8.140625 C-13.56203125 8.17671875 -14.6396875 8.2128125 -15.75 8.25 C-17.35101563 8.31960937 -17.35101563 8.31960937 -18.984375 8.390625 C-22 8 -22 8 -24.3984375 6.11328125 C-26 4 -26 4 -25.875 1.9375 C-25 0 -25 0 -23 -3 C-15.01174201 -5.66275266 -7.47300736 -3.31026548 0 0 Z M-21 -1 C-21.66 0.65 -22.32 2.3 -23 4 C-18.43593959 7.04270694 -14.26226544 5.77933007 -9 5 C-6.28639216 4.43607837 -3.66934529 3.75547508 -1 3 C-1 2.67 -1 2.34 -1 2 C-2.27875 1.814375 -3.5575 1.62875 -4.875 1.4375 C-5.59429687 1.33308594 -6.31359375 1.22867188 -7.0546875 1.12109375 C-9.08140667 0.8315703 -9.08140667 0.8315703 -11 2 C-11.33 1.01 -11.66 0.02 -12 -1 C-13.32 -1 -14.64 -1 -16 -1 C-16.33 -0.01 -16.66 0.98 -17 2 C-17.66 1.01 -18.32 0.02 -19 -1 C-19.66 -1 -20.32 -1 -21 -1 Z " fill="#3F3F4C" transform="translate(78,52)"/>
<path d="M0 0 C2.77869928 0.2137461 4.55155611 0.7010374 6.875 2.25 C8 4 8 4 7.875 6.5625 C7 9 7 9 4 11 C1.03923709 10.64111965 0.15341979 10.15341979 -2 8 C-2.25 5 -2.25 5 -2 2 C-1.34 1.34 -0.68 0.68 0 0 Z M1 3 C1 4.65 1 6.3 1 8 C2.32 7.67 3.64 7.34 5 7 C5 6.01 5 5.02 5 4 C3.68 3.67 2.36 3.34 1 3 Z " fill="#F1585A" transform="translate(57,34)"/>
<path d="M0 0 C4.875 2.625 4.875 2.625 6 6 C4.5625 8.1875 4.5625 8.1875 3 10 C0.03 9.505 0.03 9.505 -3 9 C-3.75 6.75 -3.75 6.75 -4 4 C-2.0625 1.6875 -2.0625 1.6875 0 0 Z M-1 4 C-1 4.99 -1 5.98 -1 7 C-0.01 7 0.98 7 2 7 C2 6.01 2 5.02 2 4 C1.01 4 0.02 4 -1 4 Z " fill="#F25557" transform="translate(43,39)"/>
<path d="M0 0 C-1.8129756 3.6259512 -6.48107514 4.28609996 -10.1171875 5.68359375 C-12.75873077 6.88982692 -14.27696372 7.69864359 -16 10 C-16.25069913 12.62570704 -16.25069913 12.62570704 -16 15 C-16.99 15 -17.98 15 -19 15 C-19.4375 12.375 -19.4375 12.375 -19 9 C-14.99700153 3.86407743 -6.51921075 -2.17307025 0 0 Z " fill="#F35659" transform="translate(43,8)"/>
<path d="M0 0 C1.11375 0.7115625 1.11375 0.7115625 2.25 1.4375 C7.10460084 3.92343086 12.65477938 3.7491725 18 4 C17.67 4.66 17.34 5.32 17 6 C10.89939366 7.36737728 7.42880959 7.14870956 2 4 C0.5625 1.8125 0.5625 1.8125 0 0 Z " fill="#40404C" transform="translate(40,131)"/>
<path d="M0 0 C2.86724686 0.57344937 3.8614515 0.8614515 6 3 C5.625 5.625 5.625 5.625 5 8 C4.01 8.33 3.02 8.66 2 9 C1.01 8.34 0.02 7.68 -1 7 C-0.67 4.69 -0.34 2.38 0 0 Z M1 3 C1.33 3.99 1.66 4.98 2 6 C2.66 6 3.32 6 4 6 C3.67 5.01 3.34 4.02 3 3 C2.34 3 1.68 3 1 3 Z " fill="#3E3E4B" transform="translate(81,108)"/>
<path d="M0 0 C1.67542976 0.28604898 3.34385343 0.61781233 5 1 C5.33 2.65 5.66 4.3 6 6 C4.35 6.66 2.7 7.32 1 8 C-0.5625 6.75 -0.5625 6.75 -2 5 C-1.74853421 2.86254078 -1.54074221 1.54074221 0 0 Z M1 2 C1 2.99 1 3.98 1 5 C1.99 5 2.98 5 4 5 C3.67 4.01 3.34 3.02 3 2 C2.34 2 1.68 2 1 2 Z " fill="#3E3E4B" transform="translate(78,96)"/>
<path d="M0 0 C2.2109885 0.42793326 3.98119242 0.99059621 6 2 C6 3.65 6 5.3 6 7 C3.625 7.625 3.625 7.625 1 8 C-1 6 -1 6 -1.1875 3.4375 C-1 1 -1 1 0 0 Z M2 3 C2 3.99 2 4.98 2 6 C2.66 6 3.32 6 4 6 C4 5.01 4 4.02 4 3 C3.34 3 2.68 3 2 3 Z " fill="#3D3D4A" transform="translate(81,120)"/>
<path d="M0 0 C2.70108504 0.090916 5.36930311 0.23740766 8.0625 0.4375 C9.20041992 0.51581055 9.20041992 0.51581055 10.36132812 0.59570312 C12.24121722 0.72575835 14.12065685 0.86228038 16 1 C16 1.66 16 2.32 16 3 C13.72942623 3.05398987 11.45848712 3.09278742 9.1875 3.125 C7.29064453 3.15980469 7.29064453 3.15980469 5.35546875 3.1953125 C2 3 2 3 -1 1 C-0.67 0.67 -0.34 0.34 0 0 Z " fill="#3E3E4B" transform="translate(43,82)"/>
<path d="M0 0 C0.66 0.33 1.32 0.66 2 1 C0.7143824 3.14967221 -0.57807905 5.29466349 -1.875 7.4375 C-2.23980469 8.04916016 -2.60460937 8.66082031 -2.98046875 9.29101562 C-5.7734375 13.88671875 -5.7734375 13.88671875 -8 15 C-7.4520917 10.7170548 -5.97567196 8.14864359 -3.4375 4.6875 C-2.79683594 3.80449219 -2.15617187 2.92148438 -1.49609375 2.01171875 C-0.75552734 1.01591797 -0.75552734 1.01591797 0 0 Z " fill="#40404D" transform="translate(27,97)"/>
<path d="M0 0 C0.99 0 1.98 0 3 0 C4.38671875 1.609375 4.38671875 1.609375 5.6875 3.75 C6.12449219 4.44609375 6.56148438 5.1421875 7.01171875 5.859375 C8 8 8 8 8 12 C7.01 12 6.02 12 5 12 C4.80664062 11.38511719 4.61328125 10.77023438 4.4140625 10.13671875 C4.15367188 9.32847656 3.89328125 8.52023438 3.625 7.6875 C3.36976562 6.88699219 3.11453125 6.08648437 2.8515625 5.26171875 C2.01168189 2.77275472 2.01168189 2.77275472 0 0 Z " fill="#3C3C48" transform="translate(86,93)"/>
<path d="M0 0 C0.66 0.66 1.32 1.32 2 2 C0.50260417 3.20442708 -0.99479167 4.40885417 -2.4921875 5.61328125 C-4.25292107 7.12270545 -4.25292107 7.12270545 -6 10 C-6.66 9.67 -7.32 9.34 -8 9 C-6.85459775 7.68712379 -5.70866567 6.37470979 -4.5625 5.0625 C-3.92441406 4.33160156 -3.28632813 3.60070312 -2.62890625 2.84765625 C-1.77458541 1.87860647 -0.91348825 0.91348825 0 0 Z " fill="#3D3D4A" transform="translate(18,98)"/>
<path d="M0 0 C0.391875 0.45375 0.78375 0.9075 1.1875 1.375 C3.30832487 3.27642919 5.33042235 4.06204028 8 5 C6.02 5.99 6.02 5.99 4 7 C2 5.75 2 5.75 0 4 C0 2.68 0 1.36 0 0 Z " fill="#3D3D48" transform="translate(40,115)"/>
<path d="M0 0 C0.33 0 0.66 0 1 0 C1.185625 1.2065625 1.185625 1.2065625 1.375 2.4375 C1.58125 3.283125 1.7875 4.12875 2 5 C2.66 5.33 3.32 5.66 4 6 C3.67 6.99 3.34 7.98 3 9 C1.68 8.34 0.36 7.68 -1 7 C-1.04254356 5.00045254 -1.04080783 2.99958364 -1 1 C-0.67 0.67 -0.34 0.34 0 0 Z " fill="#373741" transform="translate(22,41)"/>
<path d="M0 0 C0 0.66 0 1.32 0 2 C-2.31 2.66 -4.62 3.32 -7 4 C-7 3.01 -7 2.02 -7 1 C-4 0 -4 0 0 0 Z " fill="#3F3F4C" transform="translate(77,80)"/>
<path d="M0 0 C0.66 0.33 1.32 0.66 2 1 C1.34 2.32 0.68 3.64 0 5 C-1.32 4.34 -2.64 3.68 -4 3 C-3 1 -3 1 0 0 Z " fill="#41414B" transform="translate(60,64)"/>
<path d="M0 0 C3 3.75 3 3.75 3 6 C3.66 6.33 4.32 6.66 5 7 C4.01 7.33 3.02 7.66 2 8 C0.4375 5.6875 0.4375 5.6875 -1 3 C-0.67 2.01 -0.34 1.02 0 0 Z " fill="#3C3C49" transform="translate(35,55)"/>
<path d="M0 0 C1.875 0.25 1.875 0.25 4 1 C5.25 3.0625 5.25 3.0625 6 5 C3 5 3 5 1.3125 3.625 C0 2 0 2 0 0 Z " fill="#3E3E49" transform="translate(75,19)"/>
<path d="M0 0 C3.91402949 1.26941497 5.79072873 2.51167694 8 6 C5.0280615 4.87548273 2.66559313 3.77706209 0 2 C0 1.34 0 0.68 0 0 Z " fill="#40404C" transform="translate(65,31)"/>
<path d="M0 0 C0.99 0.33 1.98 0.66 3 1 C2.67 2.65 2.34 4.3 2 6 C1.01 6 0.02 6 -1 6 C-0.34 5.67 0.32 5.34 1 5 C0.67 3.35 0.34 1.7 0 0 Z " fill="#3E3E4B" transform="translate(114,92)"/>
<path d="M0 0 C1.98 0.495 1.98 0.495 4 1 C3.67 1.99 3.34 2.98 3 4 C1.68 3.34 0.36 2.68 -1 2 C-0.67 1.34 -0.34 0.68 0 0 Z " fill="#3A3A46" transform="translate(49,64)"/>
<path d="M0 0 C0.66 0.33 1.32 0.66 2 1 C1.67 1.99 1.34 2.98 1 4 C-0.32 3.67 -1.64 3.34 -3 3 C-2.01 2.01 -1.02 1.02 0 0 Z " fill="#383844" transform="translate(67,62)"/>
<path d="M0 0 C0.99 0.99 1.98 1.98 3 3 C2.34 3.66 1.68 4.32 1 5 C0.34 4.67 -0.32 4.34 -1 4 C-0.67 2.68 -0.34 1.36 0 0 Z " fill="#35353F" transform="translate(44,60)"/>
</svg>
