<svg xmlns="http://www.w3.org/2000/svg" xmlns:xlink="http://www.w3.org/1999/xlink" width="100%" height="100%" viewBox="0 0 135 116">
  <defs>
    <clipPath id="clip-path">
      <rect id="Rectangle_33358" data-name="Rectangle 33358" width="38.298" height="90.324" fill="none"/>
    </clipPath>
    <clipPath id="clip-path-3">
      <rect id="Rectangle_33338" data-name="Rectangle 33338" width="7.709" height="7.871" fill="none"/>
    </clipPath>
    <clipPath id="clip-path-4">
      <rect id="Rectangle_33339" data-name="Rectangle 33339" width="11.68" height="11.925" fill="none"/>
    </clipPath>
    <clipPath id="clip-path-5">
      <rect id="Rectangle_33341" data-name="Rectangle 33341" width="7.981" height="50.843" fill="none"/>
    </clipPath>
    <clipPath id="clip-path-7">
      <rect id="Rectangle_33342" data-name="Rectangle 33342" width="4.983" height="28.346" fill="none"/>
    </clipPath>
    <clipPath id="clip-path-8">
      <rect id="Rectangle_33343" data-name="Rectangle 33343" width="3.175" height="1.815" fill="none"/>
    </clipPath>
    <clipPath id="clip-path-9">
      <rect id="Rectangle_33344" data-name="Rectangle 33344" width="3.177" height="1.815" fill="none"/>
    </clipPath>
    <clipPath id="clip-path-14">
      <rect id="Rectangle_33349" data-name="Rectangle 33349" width="5.465" height="28.813" fill="none"/>
    </clipPath>
    <clipPath id="clip-path-15">
      <rect id="Rectangle_33350" data-name="Rectangle 33350" width="5.877" height="1.838" fill="none"/>
    </clipPath>
    <clipPath id="clip-path-16">
      <rect id="Rectangle_33351" data-name="Rectangle 33351" width="21.404" height="6.388" fill="none"/>
    </clipPath>
    <clipPath id="clip-path-17">
      <rect id="Rectangle_33352" data-name="Rectangle 33352" width="2.161" height="0.895" fill="none"/>
    </clipPath>
    <clipPath id="clip-path-18">
      <rect id="Rectangle_33353" data-name="Rectangle 33353" width="10.508" height="10.092" fill="none"/>
    </clipPath>
    <clipPath id="clip-path-19">
      <rect id="Rectangle_33354" data-name="Rectangle 33354" width="13.948" height="24.649" fill="none"/>
    </clipPath>
    <clipPath id="clip-path-20">
      <rect id="Rectangle_33355" data-name="Rectangle 33355" width="6.7" height="17.785" fill="none"/>
    </clipPath>
    <clipPath id="clip-path-21">
      <rect id="Rectangle_33356" data-name="Rectangle 33356" width="20.67" height="10.095" fill="none"/>
    </clipPath>
  </defs>
  <g id="Group_58174" data-name="Group 58174" transform="translate(-276 -1992)" style="mix-blend-mode: luminosity;isolation: isolate">
    <path id="Path_51087" data-name="Path 51087" d="M52.5,0c28.995,0,48.272,25.072,48.272,56S81.495,112,52.5,112c-18.122,0-28.121-6.905-37.691-22.017C9.283,81.261,0,67.6,0,56,0,25.072,23.505,0,52.5,0Z" transform="translate(291 1996)" fill="#e3e3e3"/>
    <g id="Group_58112" data-name="Group 58112" transform="translate(325.105 2017.676)">
      <g id="Group_58171" data-name="Group 58171" clip-path="url(#clip-path)">
        <g id="Group_58170" data-name="Group 58170">
          <g id="Group_58169" data-name="Group 58169" clip-path="url(#clip-path)">
            <path id="Path_51089" data-name="Path 51089" d="M10.481,138.563c.672-.343.706.575,1.989,1.449,3.35,2.282-.189,14.563-2.428,22.908-1.16,4.324-3.264,6.842-5.5,7.124-1.916.242-4.889-1.587-4.262-5.351,1.018-6.106,2.774-11.044,4.479-17.135,1.055-3.77,2.866-7.539,5.717-8.994" transform="translate(-0.141 -97.765)" fill="#152429"/>
            <path id="Path_51090" data-name="Path 51090" d="M49.445,109.529a3.569,3.569,0,0,0,4.276,3.029,3.3,3.3,0,0,0,2.957-4.046c-.318-2.259-1.465-10.41-1.465-10.41L48.4,102.138s.71,5.043,1.04,7.391" transform="translate(-34.171 -69.253)" fill="#e0a47c"/>
            <g id="Group_58114" data-name="Group 58114" transform="translate(14.336 29.764)" style="mix-blend-mode: multiply;isolation: isolate">
              <g id="Group_58113" data-name="Group 58113">
                <g id="Group_58112-2" data-name="Group 58112" clip-path="url(#clip-path-3)">
                  <path id="Path_51091" data-name="Path 51091" d="M56.459,107.618a8.971,8.971,0,0,1-7.211,1.172l-.5-3.537,6.808-4.037.9,6.4" transform="translate(-48.75 -101.216)" fill="#f2e6dc"/>
                </g>
              </g>
            </g>
            <path id="Path_51092" data-name="Path 51092" d="M29.446,132.178s4.653-4.737,5.964-5.323l.142,1.01c.3,2.1,1.174,4.224,2.851,3.988,1.724-.243,5.276-2.991,4.98-5.09l-.142-1.01a3.736,3.736,0,0,1,1.913.658L50.9,170.62a53.809,53.809,0,0,1-9.934-.255c-5.455-.529-7.171-2.881-7.171-2.881Z" transform="translate(-20.787 -88.774)" fill="#d8eaef"/>
            <path id="Path_51093" data-name="Path 51093" d="M54.107,151.806l-1.621-3.885,2.013-1.613,2.224,1.846-1.368,3.591s.254,6.665.807,12.751c.534,5.877,1.053,14.067,1.053,14.067l-2.7,4.46-1.96-5.305s.372-7.489.489-10.721c.343-9.459,1.057-15.191,1.057-15.191" transform="translate(-37.052 -103.285)" fill="#aa0e0e"/>
            <g id="Group_58117" data-name="Group 58117" transform="translate(12.97 37.148)" opacity="0.26">
              <g id="Group_58116" data-name="Group 58116">
                <g id="Group_58115" data-name="Group 58115" clip-path="url(#clip-path-4)">
                  <path id="Path_51094" data-name="Path 51094" d="M44.106,129.194l1.872-1.81,2.568,4.926,4.941-5.983,2.3,1.224L51.912,137.6l-3.225-4.732-2.966,5.387Z" transform="translate(-44.106 -126.327)" fill="#1f363d"/>
                </g>
              </g>
            </g>
            <path id="Path_51095" data-name="Path 51095" d="M44.385,129.137l1.8-1.8,2.612,5.6-2.835,5.33Z" transform="translate(-31.333 -89.891)" fill="#fff"/>
            <path id="Path_51096" data-name="Path 51096" d="M66.3,125.091l-2.232-1.233L59.4,130.484l3.273,4.527Z" transform="translate(-41.936 -87.436)" fill="#fff"/>
            <path id="Path_51097" data-name="Path 51097" d="M88.364,147.741a156.746,156.746,0,0,1,.213,27.593c-2,1.962-12.338,4.657-16.406,4.853,0,0,.1-12.057,0-23.672-.024-2.75-.278-5.693-.231-7.457a193.4,193.4,0,0,1,2.414-21.763,13.361,13.361,0,0,1,2.391.4c2.866.815,9.74,1.648,11.619,20.049" transform="translate(-50.781 -89.863)" fill="#1f363d"/>
            <g id="Group_58123" data-name="Group 58123" transform="translate(6.947 38.887)" opacity="0.25">
              <g id="Group_58122" data-name="Group 58122" transform="translate(0 -0.001)">
                <g id="Group_58121" data-name="Group 58121" clip-path="url(#clip-path-5)">
                  <g id="Group_58120" data-name="Group 58120" style="mix-blend-mode: multiply;isolation: isolate">
                    <g id="Group_58119" data-name="Group 58119">
                      <g id="Group_58118" data-name="Group 58118" clip-path="url(#clip-path-5)">
                        <path id="Path_51098" data-name="Path 51098" d="M24.785,156.972c3.525,17.223,1.006,17.473,1.006,17.473,0,2.413,1.419,7.445,4.015,8.61,0,0,2.364-2.684,1.675-19.541-.114-2.775-.768-10.009-.788-11.488-.037-2.582-.492-12.991-.051-19.814a8.164,8.164,0,0,0-1.462.842c-2.44,1.48-7.943,6.587-4.4,23.918" transform="translate(-23.626 -132.212)" fill="#0d2528"/>
                      </g>
                    </g>
                  </g>
                </g>
              </g>
            </g>
            <g id="Group_58126" data-name="Group 58126" transform="translate(8.599 38.876)" opacity="0.76">
              <g id="Group_58125" data-name="Group 58125">
                <g id="Group_58124" data-name="Group 58124" clip-path="url(#clip-path-7)">
                  <path id="Path_51099" data-name="Path 51099" d="M31.061,134.307l3.164-2.1S33.8,136.421,33.2,142.78c-.5,5.407.951,17.771.951,17.771l-4.722-14.789,2.213-2.488-2.4-1.463Z" transform="translate(-29.242 -132.205)" fill="#0d2528"/>
                </g>
              </g>
            </g>
            <path id="Path_51100" data-name="Path 51100" d="M22.048,158.138c3.068,12.7,2,14.611.4,16.358-.622.678,1.374,6.573,4.274,8.071a62.849,62.849,0,0,0,1.344-19.656c-.283-2.761-.311-5-.438-6.475-.942-10.972.835-24.516.835-24.516a17.383,17.383,0,0,0-2.189,1.135c-2.44,1.48-8.372,7.911-4.224,25.082" transform="translate(-14.553 -93.127)" fill="#1f363d"/>
            <path id="Path_51101" data-name="Path 51101" d="M32.044,132.492l3.638-2.222s-.429,4.216-1.023,10.575c-.5,5.408.523,18.34.523,18.34l-4.293-15.358,2.213-2.488-2.4-1.463Z" transform="translate(-21.672 -91.963)" fill="#334f57"/>
            <path id="Path_51102" data-name="Path 51102" d="M39.724,235.681a.688.688,0,1,0,.585-.777.687.687,0,0,0-.585.777" transform="translate(-28.038 -165.823)" fill="#334f57"/>
            <path id="Path_51103" data-name="Path 51103" d="M40.735,261.364a.588.588,0,1,0,.62-.652.64.64,0,0,0-.62.652" transform="translate(-28.756 -184.046)" fill="#334f57"/>
            <path id="Path_51104" data-name="Path 51104" d="M9.748,81.756a2.024,2.024,0,0,0-.564-4.009L7.6,77.971A2.024,2.024,0,0,0,8.16,81.98Z" transform="translate(-4.134 -54.871)" fill="#eaae86"/>
            <g id="Group_58129" data-name="Group 58129" transform="translate(2.951 24.084)" style="mix-blend-mode: multiply;isolation: isolate">
              <g id="Group_58128" data-name="Group 58128">
                <g id="Group_58127" data-name="Group 58127" clip-path="url(#clip-path-8)">
                  <path id="Path_51105" data-name="Path 51105" d="M12.527,83.488a.8.8,0,0,0-.222-1.577l-1.587.223a.8.8,0,0,0,.222,1.577Z" transform="translate(-10.036 -81.903)" fill="#f2e6dc"/>
                </g>
              </g>
            </g>
            <path id="Path_51106" data-name="Path 51106" d="M81.981,71.592a2.024,2.024,0,1,0-.564-4.009l-1.586.223a2.024,2.024,0,1,0,.564,4.009Z" transform="translate(-55.125 -47.696)" fill="#eaae86"/>
            <g id="Group_58132" data-name="Group 58132" transform="translate(24.192 21.096)" style="mix-blend-mode: multiply;isolation: isolate">
              <g id="Group_58131" data-name="Group 58131">
                <g id="Group_58130" data-name="Group 58130" clip-path="url(#clip-path-9)">
                  <path id="Path_51107" data-name="Path 51107" d="M84.761,73.323a.8.8,0,0,0-.222-1.576l-1.586.223a.8.8,0,0,0,.221,1.576Z" transform="translate(-82.268 -71.739)" fill="#f2e6dc"/>
                </g>
              </g>
            </g>
            <path id="Path_51108" data-name="Path 51108" d="M21.33,19.735c-5.685.8-9.78,5.1-8.98,10.786L14.2,43.7c.8,5.684,6.181,10.53,11.867,9.73s9.522-6.942,8.722-12.627L32.939,27.623c-.8-5.686-5.924-8.689-11.609-7.888" transform="translate(-8.648 -13.841)" fill="#fcc49a"/>
            <path id="Path_51109" data-name="Path 51109" d="M47.869,89.587a3.128,3.128,0,0,0,1.5.064,4.284,4.284,0,0,0,1.45-.458A1.322,1.322,0,0,1,49.6,90.672a1.363,1.363,0,0,1-1.731-1.084" transform="translate(-33.793 -62.965)" fill="#e2a479"/>
            <path id="Path_51110" data-name="Path 51110" d="M57.557,56.074l3.166,1.169a.43.43,0,1,0,.3-.807l-3.166-1.169a.43.43,0,1,0-.3.807" transform="translate(-40.433 -38.997)" fill="#3f2615"/>
            <path id="Path_51111" data-name="Path 51111" d="M26.3,65.963a.43.43,0,0,0-.406-.744L22.62,66.332a.43.43,0,0,0,.277.814l3.275-1.113a.436.436,0,0,0,.129-.071" transform="translate(-15.763 -46.025)" fill="#3f2615"/>
            <path id="Path_51112" data-name="Path 51112" d="M7.524,11.721a9.617,9.617,0,0,1,3.094-8.035,13.167,13.167,0,0,1,5.665-2.9c-.372.754-1,2.074-.618,1.6C16.717,1.071,19.438.327,20.579.063a9.072,9.072,0,0,1,2.3-.006c.016,1.266-1.857,2.63-.924,2.508C23.31,2.391,24.488.579,24.739.747a10.827,10.827,0,0,1,4.834,8.625c.248,2.5.875,10.583.875,10.583s-.866-4.664-1.111-6.416c-.454-3.261-3.21-5.885-5.7-4.193a9.213,9.213,0,0,1-5.788,1.715c-4.2.115-5.222.061-6.238.1C9.378,11.25,8.735,13.4,9,15.318c.18,1.277.781,7.113.781,7.113S7.969,15.082,7.524,11.721" transform="translate(-5.259 0)" fill="#774a07"/>
            <path id="Path_51113" data-name="Path 51113" d="M9.748,81.756a2.024,2.024,0,0,0-.564-4.009L7.6,77.971A2.024,2.024,0,0,0,8.16,81.98Z" transform="translate(-4.134 -54.871)" fill="#eaae86"/>
            <g id="Group_58135" data-name="Group 58135" transform="translate(2.951 24.084)" style="mix-blend-mode: multiply;isolation: isolate">
              <g id="Group_58134" data-name="Group 58134">
                <g id="Group_58133" data-name="Group 58133" clip-path="url(#clip-path-8)">
                  <path id="Path_51114" data-name="Path 51114" d="M12.527,83.488a.8.8,0,0,0-.222-1.577l-1.587.223a.8.8,0,0,0,.222,1.577Z" transform="translate(-10.036 -81.903)" fill="#f2e6dc"/>
                </g>
              </g>
            </g>
            <path id="Path_51115" data-name="Path 51115" d="M81.981,71.592a2.024,2.024,0,1,0-.564-4.009l-1.586.223a2.024,2.024,0,1,0,.564,4.009Z" transform="translate(-55.125 -47.696)" fill="#eaae86"/>
            <g id="Group_58138" data-name="Group 58138" transform="translate(24.192 21.096)" style="mix-blend-mode: multiply;isolation: isolate">
              <g id="Group_58137" data-name="Group 58137">
                <g id="Group_58136" data-name="Group 58136" clip-path="url(#clip-path-9)">
                  <path id="Path_51116" data-name="Path 51116" d="M84.761,73.323a.8.8,0,0,0-.222-1.576l-1.586.223a.8.8,0,0,0,.221,1.576Z" transform="translate(-82.268 -71.739)" fill="#f2e6dc"/>
                </g>
              </g>
            </g>
            <path id="Path_51117" data-name="Path 51117" d="M21.33,19.735c-5.685.8-9.78,5.1-8.98,10.786L14.2,43.7c.8,5.684,6.181,10.53,11.867,9.73s9.522-6.942,8.722-12.627L32.939,27.623c-.8-5.686-5.924-8.689-11.609-7.888" transform="translate(-8.648 -13.841)" fill="#fcc49a"/>
            <path id="Path_51118" data-name="Path 51118" d="M47.869,89.587a3.128,3.128,0,0,0,1.5.064,4.284,4.284,0,0,0,1.45-.458A1.322,1.322,0,0,1,49.6,90.672a1.363,1.363,0,0,1-1.731-1.084" transform="translate(-33.793 -62.965)" fill="#e2a479"/>
            <path id="Path_51119" data-name="Path 51119" d="M57.557,56.074l3.166,1.169a.43.43,0,1,0,.3-.807l-3.166-1.169a.43.43,0,1,0-.3.807" transform="translate(-40.433 -38.997)" fill="#3f2615"/>
            <path id="Path_51120" data-name="Path 51120" d="M26.3,65.963a.43.43,0,0,0-.406-.744L22.62,66.332a.43.43,0,0,0,.277.814l3.275-1.113a.436.436,0,0,0,.129-.071" transform="translate(-15.763 -46.025)" fill="#3f2615"/>
            <path id="Path_51121" data-name="Path 51121" d="M7.524,11.721a9.617,9.617,0,0,1,3.094-8.035,13.167,13.167,0,0,1,5.665-2.9c-.372.754-1,2.074-.618,1.6C16.717,1.071,19.438.327,20.579.063a9.072,9.072,0,0,1,2.3-.006c.016,1.266-1.857,2.63-.924,2.508C23.31,2.391,24.488.579,24.739.747a10.827,10.827,0,0,1,4.834,8.625c.248,2.5.875,10.583.875,10.583s-.866-4.664-1.111-6.416c-.454-3.261-3.21-5.885-5.7-4.193a9.213,9.213,0,0,1-5.788,1.715c-4.2.115-5.222.061-6.238.1C9.378,11.25,8.735,13.4,9,15.318c.18,1.277.781,7.113.781,7.113S7.969,15.082,7.524,11.721" transform="translate(-5.259 0)" fill="#774a07"/>
            <path id="Path_51122" data-name="Path 51122" d="M9.748,81.756a2.024,2.024,0,0,0-.564-4.009L7.6,77.971A2.024,2.024,0,0,0,8.16,81.98Z" transform="translate(-4.134 -54.871)" fill="#eaae86"/>
            <g id="Group_58141" data-name="Group 58141" transform="translate(2.951 24.084)" style="mix-blend-mode: multiply;isolation: isolate">
              <g id="Group_58140" data-name="Group 58140">
                <g id="Group_58139" data-name="Group 58139" clip-path="url(#clip-path-8)">
                  <path id="Path_51123" data-name="Path 51123" d="M12.527,83.488a.8.8,0,0,0-.222-1.577l-1.587.223a.8.8,0,0,0,.222,1.577Z" transform="translate(-10.036 -81.903)" fill="#f2e6dc"/>
                </g>
              </g>
            </g>
            <path id="Path_51124" data-name="Path 51124" d="M81.981,71.592a2.024,2.024,0,1,0-.564-4.009l-1.586.223a2.024,2.024,0,1,0,.564,4.009Z" transform="translate(-55.125 -47.696)" fill="#eaae86"/>
            <g id="Group_58144" data-name="Group 58144" transform="translate(24.192 21.096)" style="mix-blend-mode: multiply;isolation: isolate">
              <g id="Group_58143" data-name="Group 58143">
                <g id="Group_58142" data-name="Group 58142" clip-path="url(#clip-path-9)">
                  <path id="Path_51125" data-name="Path 51125" d="M84.761,73.323a.8.8,0,0,0-.222-1.576l-1.586.223a.8.8,0,0,0,.221,1.576Z" transform="translate(-82.268 -71.739)" fill="#f2e6dc"/>
                </g>
              </g>
            </g>
            <path id="Path_51126" data-name="Path 51126" d="M21.33,19.735c-5.685.8-9.78,5.1-8.98,10.786L14.2,43.7c.8,5.684,6.181,10.53,11.867,9.73s9.522-6.942,8.722-12.627L32.939,27.623c-.8-5.686-5.924-8.689-11.609-7.888" transform="translate(-8.648 -13.841)" fill="#fcc49a"/>
            <path id="Path_51127" data-name="Path 51127" d="M47.869,89.587a3.128,3.128,0,0,0,1.5.064,4.284,4.284,0,0,0,1.45-.458A1.322,1.322,0,0,1,49.6,90.672a1.363,1.363,0,0,1-1.731-1.084" transform="translate(-33.793 -62.965)" fill="#e2a479"/>
            <path id="Path_51128" data-name="Path 51128" d="M57.557,56.074l3.166,1.169a.43.43,0,1,0,.3-.807l-3.166-1.169a.43.43,0,1,0-.3.807" transform="translate(-40.433 -38.997)" fill="#3f2615"/>
            <path id="Path_51129" data-name="Path 51129" d="M26.3,65.963a.43.43,0,0,0-.406-.744L22.62,66.332a.43.43,0,0,0,.277.814l3.275-1.113a.436.436,0,0,0,.129-.071" transform="translate(-15.763 -46.025)" fill="#3f2615"/>
            <path id="Path_51130" data-name="Path 51130" d="M7.524,11.721a9.617,9.617,0,0,1,3.094-8.035,13.167,13.167,0,0,1,5.665-2.9c-.372.754-1,2.074-.618,1.6C16.717,1.071,19.438.327,20.579.063a9.072,9.072,0,0,1,2.3-.006c.016,1.266-1.857,2.63-.924,2.508C23.31,2.391,24.488.579,24.739.747a10.827,10.827,0,0,1,4.834,8.625c.248,2.5.875,10.583.875,10.583s-.866-4.664-1.111-6.416c-.454-3.261-3.21-5.885-5.7-4.193a9.213,9.213,0,0,1-5.788,1.715c-4.2.115-5.222.061-6.238.1C9.378,11.25,8.735,13.4,9,15.318c.18,1.277.781,7.113.781,7.113S7.969,15.082,7.524,11.721" transform="translate(-5.259 0)" fill="#774a07"/>
            <g id="Group_58147" data-name="Group 58147" transform="translate(21.572 37.352)" opacity="0.76">
              <g id="Group_58146" data-name="Group 58146">
                <g id="Group_58145" data-name="Group 58145" clip-path="url(#clip-path-14)">
                  <path id="Path_51131" data-name="Path 51131" d="M78.826,127.852l-3.224-.831a53.6,53.6,0,0,0-2.2,13.9c-.146,7.2.159,14.909.159,14.909l4.778-15.209L75.455,137.9l3.286-.983Z" transform="translate(-73.36 -127.021)" fill="#0d2528"/>
                </g>
              </g>
            </g>
            <path id="Path_51132" data-name="Path 51132" d="M77.793,126.815l-3.753-1.009a53.583,53.583,0,0,0-2.2,13.9c-.146,7.2.634,15.267.634,15.267l4.3-15.566-2.882-2.729,3.286-.982Z" transform="translate(-50.7 -88.811)" fill="#334f57"/>
            <g id="Group_58150" data-name="Group 58150" transform="translate(13.31 30.038)" opacity="0.34" style="mix-blend-mode: multiply;isolation: isolate">
              <g id="Group_58149" data-name="Group 58149">
                <g id="Group_58148" data-name="Group 58148" clip-path="url(#clip-path-15)">
                  <path id="Path_51133" data-name="Path 51133" d="M45.569,103.987a.305.305,0,0,1-.233-.5,4.372,4.372,0,0,1,5.653-.577.305.305,0,1,1-.306.528c-3-1.734-4.8.351-4.88.441a.3.3,0,0,1-.234.109" transform="translate(-45.264 -102.149)" fill="#a3673a"/>
                </g>
              </g>
            </g>
            <path id="Path_51134" data-name="Path 51134" d="M31.014,76.271a1.094,1.094,0,1,1-1.094-1.094,1.094,1.094,0,0,1,1.094,1.094" transform="translate(-20.349 -53.07)" fill="#3f2919"/>
            <path id="Path_51135" data-name="Path 51135" d="M66.574,71.254A1.094,1.094,0,1,1,65.48,70.16a1.094,1.094,0,0,1,1.094,1.094" transform="translate(-45.453 -49.529)" fill="#3f2919"/>
            <g id="Group_58153" data-name="Group 58153" transform="translate(4.75 22.355)" opacity="0.44">
              <g id="Group_58152" data-name="Group 58152">
                <g id="Group_58151" data-name="Group 58151" clip-path="url(#clip-path-16)">
                  <path id="Path_51136" data-name="Path 51136" d="M28.641,77.93c.137-.554,1.229-.939,1.913-1.082a35.964,35.964,0,0,1,5.5-.826c1.468-.016,1.392.7,1.478,1.7.08.888.089,1.8-1.614,2.255a22.923,22.923,0,0,1-4.89.682c-1.358.034-1.856-.406-2.156-1a2.666,2.666,0,0,1-.228-1.733m-11.38.713a35.911,35.911,0,0,1,5.511-.71c.7-.049,1.855.022,2.138.518a2.716,2.716,0,0,1,.257,1.729c-.128.649-.49,1.208-1.8,1.547a22.882,22.882,0,0,1-4.893.683c-1.758.028-2-.851-2.17-1.727-.188-.986-.451-1.653.958-2.039" transform="translate(-16.153 -76.021)" fill="#fff"/>
                </g>
              </g>
            </g>
            <path id="Path_51137" data-name="Path 51137" d="M34.645,74.63a.425.425,0,0,0-.336-.067c-.271.037-.647.046-1.17.057-.2,0-.429.01-.679.017-.791.026-1.968.139-3.149.3-1.1.153-2.1.336-2.894.528a10.742,10.742,0,0,0-1.954.678,6.009,6.009,0,0,1-3.71.517,10.857,10.857,0,0,0-2.066-.117c-.816.033-1.827.131-2.924.285-1.18.164-2.344.378-3.114.569l-.661.171a11.541,11.541,0,0,1-1.134.263.434.434,0,0,0-.31.159.614.614,0,0,0-.044.474l.087.614c.045.323.257.383.517.46.218.063.446.328.646.744.019.042.039.09.061.144.21.528.6,1.511,3.119,1.35.76-.05,1.491-.124,2.174-.219a18.439,18.439,0,0,0,3.141-.692,2.542,2.542,0,0,0,1.537-1.812c.232-.61.431-1.137,1.029-1.221s.934.37,1.323.892A2.534,2.534,0,0,0,26.1,80.05a18.454,18.454,0,0,0,3.211-.194c.683-.094,1.407-.225,2.153-.385,2.467-.535,2.571-1.59,2.627-2.156,0-.055.01-.106.017-.15a1.312,1.312,0,0,1,.425-.9c.218-.136.407-.254.361-.579l-.074-.53c0-.029-.008-.059-.011-.089a.6.6,0,0,0-.17-.44m-1.3,1.836.019.237c.087.958.029,1.724-1.534,2.142a20.179,20.179,0,0,1-2.359.464,23.1,23.1,0,0,1-2.507.215c-1.374.034-1.8-.43-2.061-.937a2.579,2.579,0,0,1-.221-1.658c.113-.449,1.029-.835,1.835-1,.963-.2,2.376-.483,3.633-.658a14.925,14.925,0,0,1,1.841-.166c1.249-.013,1.286.477,1.353,1.365M20.756,77.477A2.579,2.579,0,0,1,21,79.132c-.11.557-.4,1.121-1.725,1.464a23.055,23.055,0,0,1-2.474.48,20.171,20.171,0,0,1-2.394.2c-1.613.025-1.881-.695-2.063-1.639l-.045-.23c-.177-.875-.275-1.357.928-1.686a14.789,14.789,0,0,1,1.814-.344c1.257-.176,2.692-.294,3.675-.362.82-.058,1.808.063,2.038.464" transform="translate(-7.393 -52.632)" fill="#052c35"/>
            <g id="Group_58156" data-name="Group 58156" transform="translate(14.889 31.359)" opacity="0.34" style="mix-blend-mode: multiply;isolation: isolate">
              <g id="Group_58155" data-name="Group 58155">
                <g id="Group_58154" data-name="Group 58154" clip-path="url(#clip-path-17)">
                  <path id="Path_51138" data-name="Path 51138" d="M50.938,107.536a.3.3,0,0,1-.228-.5,1.767,1.767,0,0,1,1.867-.266.305.305,0,1,1-.177.585c-.872-.264-1.227.08-1.242.1a.31.31,0,0,1-.221.091" transform="translate(-50.633 -106.641)" fill="#a3673a"/>
                </g>
              </g>
            </g>
            <g id="Group_58159" data-name="Group 58159" transform="translate(13.681 29.579)" opacity="0.37" style="mix-blend-mode: multiply;isolation: isolate">
              <g id="Group_58158" data-name="Group 58158">
                <g id="Group_58157" data-name="Group 58157" clip-path="url(#clip-path-18)">
                  <path id="Path_51139" data-name="Path 51139" d="M57.02,105.813s.187-.839-.885-.606-2.844,2.144-2.844,2.144a36.486,36.486,0,0,0-3.589-5.594c-.71-.876-.946-1.112-1.4-1.165-.274-.032-1.058.188-.513.978a18.556,18.556,0,0,1,2.051,3.776s-.4-.414-1.073.093a1.236,1.236,0,0,0-.373,1.119.91.91,0,0,0-.793.093.856.856,0,0,0-.373.886s-.792.279-.7.932a9.787,9.787,0,0,0,.883,2.065,9.009,9.009,0,0,0,2.851.061,9.179,9.179,0,0,0,3.962-1.574,12.075,12.075,0,0,1,2.792-3.209" transform="translate(-46.525 -100.589)" fill="#e2a479"/>
                </g>
              </g>
            </g>
            <g id="Group_58162" data-name="Group 58162" transform="translate(19.529 43.483)" opacity="0.29" style="mix-blend-mode: multiply;isolation: isolate">
              <g id="Group_58161" data-name="Group 58161">
                <g id="Group_58160" data-name="Group 58160" clip-path="url(#clip-path-19)">
                  <path id="Path_51140" data-name="Path 51140" d="M79.3,148.051c.967.916,1.106,4.05,1.051,5.5a31.345,31.345,0,0,1-5.133,15.771c-4.2,6.043-10.328,2.656-8.458-3.078,1.132-3.473,3.552-4.485,6.144-12.933a9.063,9.063,0,0,1,2.748-4.274c.671-.528,3.012-1.594,3.649-.99" transform="translate(-66.411 -147.871)" fill="#243f47"/>
                </g>
              </g>
            </g>
            <path id="Path_51141" data-name="Path 51141" d="M78.363,140.891a4.418,4.418,0,0,1,1.476,3.511c-.2,5.393-2.731,12.4-6.768,19.132-3.358,5.6-8.789,2.427-6.92-3.307,1.132-3.473,3.922-6.665,6.513-15.113a9.062,9.062,0,0,1,2.748-4.274,2.777,2.777,0,0,1,2.951.051" transform="translate(-46.429 -99.143)" fill="#243f47"/>
            <g id="Group_58165" data-name="Group 58165" transform="translate(19.738 49.224)" opacity="0.22" style="mix-blend-mode: multiply;isolation: isolate">
              <g id="Group_58164" data-name="Group 58164">
                <g id="Group_58163" data-name="Group 58163" clip-path="url(#clip-path-20)">
                  <path id="Path_51142" data-name="Path 51142" d="M72.524,167.4c-2.233,6.06-4.421,8.844-5.4,11.813a30.684,30.684,0,0,0,.747,3.813c1.354,4.514,4.011.729,5.038-.408.847-.937,1.117-4.716.763-7.378-.358-2.7-.777-5.492-1.146-7.84" transform="translate(-67.122 -167.395)" fill="#152429"/>
                </g>
              </g>
            </g>
            <g id="Group_58168" data-name="Group 58168" transform="translate(9.189 64.346)" opacity="0.3" style="mix-blend-mode: multiply;isolation: isolate">
              <g id="Group_58167" data-name="Group 58167">
                <g id="Group_58166" data-name="Group 58166" clip-path="url(#clip-path-21)">
                  <path id="Path_51143" data-name="Path 51143" d="M51.225,224.7s.912-.461.643-1.171c-.228-.6-1.1-.346-1.1-.346s.7-.368.544-.993a.812.812,0,0,0-1.034-.533,24.419,24.419,0,0,1-5.979.53,20.626,20.626,0,0,1,1.36-2.128c.338-.415.4-.832.014-1.141-.425-.341-1.089.285-1.089.285a29.857,29.857,0,0,0-3.28,2.769l-.016-.164-.949.148a2.568,2.568,0,0,1-.006-.263l-9.083-.646c.111,2.971.158,5.6.158,5.6l.09,2.267c4.016-.313,9.369-1.187,9.369-1.187l-.023-.226.977-.08-.037-.386a20.6,20.6,0,0,0,3.586.73,10.5,10.5,0,0,0,5.025-.687c1.036-.483.708-1.05.708-1.05s.742-.346.6-.883a.553.553,0,0,0-.471-.441" transform="translate(-31.247 -218.821)" fill="#0d2528"/>
                </g>
              </g>
            </g>
            <path id="Path_51144" data-name="Path 51144" d="M61.717,220.947a2.774,2.774,0,0,1,.789-2.209,25.52,25.52,0,0,1,3.576-3.106s.664-.626,1.089-.285c.384.308.324.725-.014,1.141a20.707,20.707,0,0,0-1.36,2.128,24.426,24.426,0,0,0,5.979-.53.813.813,0,0,1,1.034.533c.154.625-.544.993-.544.993s.876-.258,1.1.346c.269.71-.643,1.171-.643,1.171a.553.553,0,0,1,.47.441c.146.537-.595.883-.595.883s.328.567-.708,1.051a10.5,10.5,0,0,1-5.025.687,16.357,16.357,0,0,1-4.556-1.117c-.773-.551-.548-1.446-.6-2.127" transform="translate(-43.56 -151.95)" fill="#e8ad85"/>
            <path id="Path_51145" data-name="Path 51145" d="M60.952,225.611l1.221-.191.534,5.61-1.87.152Z" transform="translate(-42.948 -159.133)" fill="#fff"/>
            <path id="Path_51146" data-name="Path 51146" d="M18.271,222.007.564,220.748A9.551,9.551,0,0,0,.258,225.9c.83,2.533,3.687,3.445,6.869,3.435a105.977,105.977,0,0,0,11.678-1.3s-.572-5.61-.534-6.03" transform="translate(0 -155.835)" fill="#243f47"/>
            <path id="Path_51147" data-name="Path 51147" d="M56.471,117.963s-1.1-4.842-.865-6.054c.434-2.258,3.262-4.475,3.262-4.475s.187-.839-.885-.605-2.844,2.144-2.844,2.144a36.527,36.527,0,0,0-3.589-5.594c-.71-.876-.946-1.112-1.4-1.165-.275-.032-1.058.188-.513.978a18.547,18.547,0,0,1,2.051,3.776s-.4-.414-1.073.093a1.235,1.235,0,0,0-.373,1.119.908.908,0,0,0-.792.093.856.856,0,0,0-.373.886s-.792.28-.7.932a14.278,14.278,0,0,0,1.725,3.5,4.036,4.036,0,0,0,2.19,1.585l.8,3.361Z" transform="translate(-34.148 -72.155)" fill="#ffd2b3"/>
            <path id="Path_51148" data-name="Path 51148" d="M63.513,147.049a17.8,17.8,0,0,0-.407-2.137l-5.038,1.222.356,2.391Z" transform="translate(-40.993 -102.299)" fill="#d8eaef"/>
            <path id="Path_51149" data-name="Path 51149" d="M66.871,166.833l-3.766-18.98-5.9,1.629s1.171,14.96,2.392,19.031c1.354,4.514,4.325,3.307,5.954,1.933,1.3-1.1,1.323-3.613,1.323-3.613" transform="translate(-40.382 -104.375)" fill="#243f47"/>
          </g>
        </g>
      </g>
    </g>
    <g id="Group_58172" data-name="Group 58172" transform="translate(-61 15)">
      <path id="Path_51088" data-name="Path 51088" d="M5,0H41a5,5,0,0,1,5,5V22a5,5,0,0,1-5,5H13.677L5,32.813V27a5,5,0,0,1-5-5V5A5,5,0,0,1,5,0Z" transform="translate(426 1999)" fill="#ff4929"/>
      <text id="NO" transform="translate(449 2018)" fill="#fff" font-size="15" font-family="Poppins-Medium, Poppins" font-weight="500"><tspan x="-11" y="0">NO</tspan></text>
    </g>
    <g id="Group_58173" data-name="Group 58173" transform="translate(-150 -7)">
      <path id="Path_51088-2" data-name="Path 51088" d="M5,0H41a5,5,0,0,1,5,5V22a5,5,0,0,1-5,5v7.092L30.909,27H5a5,5,0,0,1-5-5V5A5,5,0,0,1,5,0Z" transform="translate(426 1999)" fill="#ff4929"/>
      <text id="YES" transform="translate(449 2018)" fill="#fff" font-size="15" font-family="Poppins-Medium, Poppins" font-weight="500"><tspan x="-12" y="0">YES</tspan></text>
    </g>
  </g>
</svg>
