<svg xmlns="http://www.w3.org/2000/svg" width="100%" height="100%" viewBox="0 0 165.287 130.215">
  <g id="noun-london-827542" transform="translate(-13.593 -21.319)">
    <path id="Path_51081" data-name="Path 51081" d="M66.627,122.791l-.17,4.057,1.986-.2,1.816,1.591,2.043,5.219s-2.272,1.816-2.272,2.724,1.221,1.989,1.221,1.989.057,0,.935.054a3.781,3.781,0,0,1,1.022.229l.227-2.043,2.724-2.272a6.123,6.123,0,0,1,3.178,1.362,9.986,9.986,0,0,1,1.816,2.724l1.135.229,1.589,1.814-.454,1.137.454,1.362L84.1,143.9l.454.908-.454,1.816,2.043.908,1.9-.2,2.7,4.143,1.589.057-.284-1.276.651-.654a3.377,3.377,0,0,0,1.986-.908,6.229,6.229,0,0,0,1.051-1.108l1.333-.452.651-2.327,1.137-.681a3.166,3.166,0,0,1,.622-2.894,2.143,2.143,0,0,1,2.554-.286l1.591-.225,1.022-.824.851-1.389-.994-1.392.795-.767,1.051.059.452-1.362,3.405-.229,1.591,2.5.452-.908,2.272-.229.908,1.362.708,3.861,1.335.225-1.362,1.818,2.5,6.81,1.133-3.405s.454-2.043,1.362-2.27,2.272,1.589,2.272,1.589l.17.879,1.419.086,1.105,2.665a48.947,48.947,0,0,0,5.7-1.362,2.472,2.472,0,0,0,1.135-1.587l-.91-.681-.254-1.589.03-1.448-.057-1.9,1.873-1.419,1.192-1.7,4.256-1.7-1.051-3.348s.17-1.249,1.078-1.249,2.467.057,2.467.057l2.583-4.57.311-1.787.738-1.591s-.992-3.205-.538-4.113a6.354,6.354,0,0,1,1.673-1.786l-1.362-4.54.6-1.308-1.959-1.417.681-5.675,2.043-.229a5.116,5.116,0,0,1,.17-1.473,11.318,11.318,0,0,1,1.646-3.065l1.959-.114,1.616-2.329,1.278-.111,1.276-2.667,1.816-1.137-.4-1.532-.708-.595L157.2,88.06l-1.816-.229.057-.894.17-2.735s2.781-.711,3.462-1.619a9.267,9.267,0,0,1,1.135-1.305l-3.462.2a4.816,4.816,0,0,1,2.724-1.308c1.362,0,1.505-.708,1.505-.708l-.908-2.978.851-.313-.086-1.049,1.135-1.816a32.168,32.168,0,0,0,1.591,3.405c.681,1.135,1.133-.456,1.133-.456l.6-.822-.143-3.264,5.675-1.362.91-.681,7.151-1.246-2.613-3.462-1.362-1.646s-1.133-4.313-1.589-5.448a10.049,10.049,0,0,0-1.135-2.043l-1.9-.03-1.505-1.56-.822.511-3.035-.965,2.043-2.27s-2.356-1.476-3.264-1.476a1.693,1.693,0,0,1-1.333-.568l.511-.681L162.2,46.97l-.229-1.133-.681-.994-1.559-.143-1.165-1.589.91-2.043-2.5-1.362a3.215,3.215,0,0,1-1.646,2.043c-1.362.681-3.121,1.362-3.121,1.362a17.944,17.944,0,0,0-4.029.086,5.079,5.079,0,0,0-2.1,1.276l-6.436-.39-1.056-.064-2.129,2.3-1.732.2-1.7.994-.792.227-.681-.851-.681.765.452,1.591-1.587.962-1.619-.708-1.333.654-1.392-.03-1.446-.651-1.478-1.362-1.362-.454a8.921,8.921,0,0,1-1.814-2.043,20.144,20.144,0,0,0-2.272-2.7l.6-1.73L116.568,39.4l-3.464.113-3.065-1.93-.565,1.816-2.213-.143.424-.908,1.816-1.616.027-3.151-.735-.568.395-3.687.456-2.3-7.607-.708-1.814.454L97.27,25.178l-6.129-.227L88.19,23.362l-1.56.34-3.889.113-2.5-2.5L80.3,26.8l-2.524,3.83-.386.279L74.373,33.1,73.492,31.9s-2.951,2.157-3.405,3.065a7.094,7.094,0,0,1-1.078,1.56S65.8,30.883,65.8,29.294s-1.9,3.6-2.356,4.738-.17,3.208-.624,4.57-1.078,1.505-1.078,1.505L59.618,39.2s-1.619.511-3.435.962a5.5,5.5,0,0,1-2.279-.093c-1.126-.2-2.234-.384-3.169.493-3.092,2.894-8.683,5.219-8.683,5.219l-2.07,1.816-6.1,2.413-1.3-.341-7.328-1.93L25.2,49.013l-1.93,1.562-3.632-2.81L17.82,47.2l-1.476-2.3-2.327-.027.17,2.554.681.908-.254,2.581.141,1.619-1.162.681a2.145,2.145,0,0,1,.822,1.7,13.271,13.271,0,0,1-.227,2.27s1.589.681,2.5,3.859,1.249,5.192,1.249,5.192l.568.711.2,1.389-.427,1.335h-.908l-.454,1.133L16.431,72.2l-.624,1.333a7.684,7.684,0,0,1,.568,3.18c0,2.043.227,4.284.227,4.284s1.5,2.384,1.219,3.662c-.656,2.956-1.56,3.659-1.56,3.659l-.681.938L14.528,92.06l1.022,2.581,1.591.456,2.724,2.043,3.659.084,2.808,1.9-1.7.511-.284.908.03,3.519.254,1.7,1.619-.03,1.616,1.108.17,1.192,1.589.225.908-1.133,1.135-.229.454,1.137,1.362.454.908,1.362,2.27.227s1.135.225,1.362,1.135a19.955,19.955,0,0,0,1.135,2.724c2.043.681,1.959-.17,1.959-.17A2.508,2.508,0,0,1,42.733,113c.908,0,1.221.427,2.129.654a3.154,3.154,0,0,1,1.56,1.417l3.405,3.861,1.587.352.456.1,2.043,3.176.227,2.5-1.135.681-1.133,2.268.227.91-2.413,3.8.6,1.192A8.2,8.2,0,0,0,50,136.5c0,1.873.368,2.213.368,2.213l-.651.994a1.762,1.762,0,0,0,1.957-.057c1.135-.681,3.037-2.018,3.378-2.783.114-.254.567-3.46.567-3.46l1.73-1.589.427-1.762.538-1.362a20.208,20.208,0,0,1,2.64-2.949A12.873,12.873,0,0,1,63,124.38l.681-1.137h1.362l1.589-.452"/>
  </g>
</svg>
