<svg xmlns="http://www.w3.org/2000/svg" width="100%" height="100%" viewBox="0 0 169.162 129.36">
  <g id="photo-capture" transform="translate(-69.396 -83.27)" style="mix-blend-mode: luminosity;isolation: isolate">
    <path id="Path_18341" data-name="Path 18341" d="M244.723,161.861v9.688H230.192v-9.688ZM244,97.806h-9.69V83.27H244ZM170.614,83.633v9.69H156.081v-9.69Zm-14.533,17.426h9.69v9.688h-9.69Zm0,19.375h9.69v9.69h-9.69Zm36.078,51.115v-9.688h9.69v9.688Zm19.378,0v-9.688h9.688v9.688ZM244,155.571h-9.69v-9.69H244Zm0-19.378h-9.69v-9.688H244Zm0-19.375h-9.69V107.13H244ZM228.745,83.633v9.69h-9.69v-9.69Zm-19.378,0v9.69h-9.688v-9.69Zm-19.375,0v9.69H180.3v-9.69Z" transform="translate(-6.165)" fill="#f15a5c" fill-rule="evenodd"/>
    <rect id="Rectangle_30210" data-name="Rectangle 30210" width="15.327" height="10.611" transform="translate(149.567 148.154)" fill="#f15a5c"/>
    <rect id="Rectangle_30211" data-name="Rectangle 30211" width="75.455" height="47.16" rx="3" transform="translate(69.396 154.049)" fill="#f15a5c"/>
    <path id="Path_18342" data-name="Path 18342" d="M131.561,136.96a9.115,9.115,0,0,0-9.411,8.87V151.9a4.257,4.257,0,0,1,1.042-.167h17.317a4.144,4.144,0,0,1,2.661.921,3.51,3.51,0,0,1,1.311,2.677V184.95a3.6,3.6,0,0,1-1.311,2.719,4.146,4.146,0,0,1-2.661.921H123.192a4.2,4.2,0,0,1-1.042-.126v7.991a9.151,9.151,0,0,0,9.411,8.911H213.21a9.111,9.111,0,0,0,9.372-8.911V145.831a9.075,9.075,0,0,0-9.372-8.87H131.561ZM201.1,141.9h14.463v8.158H201.1Zm-28.735,6.652c12.286,0,22.293,9.652,22.293,21.5s-10.007,21.5-22.293,21.5-22.253-9.652-22.253-21.5S160.082,148.549,172.367,148.549Zm0,2.929c-10.659,0-19.247,8.292-19.247,18.576s8.587,18.618,19.247,18.618,19.284-8.334,19.284-18.618S183.026,151.477,172.367,151.477Zm-49.174,3.3a1.509,1.509,0,0,0-.925.293.492.492,0,0,0-.115.125v1.13h19.477v-1c0-.035-.015-.1-.193-.251a1.509,1.509,0,0,0-.925-.293Zm56,2.008h0a1.325,1.325,0,0,1,.809.168,15.221,15.221,0,0,1,7.213,9.079,14.725,14.725,0,0,1-1.5,11.631,15.567,15.567,0,0,1-20.981,5.481h0a1.526,1.526,0,0,1-.708-.907,1.676,1.676,0,0,1,.091-1.185,1.379,1.379,0,0,1,1.928-.669A12.931,12.931,0,0,0,183.321,176a11.3,11.3,0,0,0,1.2-9.037,12.148,12.148,0,0,0-5.824-7.238h0a1.575,1.575,0,0,1-.79-1.674,1.467,1.467,0,0,1,1.292-1.255Zm-57.044,2.594v1.925h19.477v-1.925Zm0,4.979v1.883h19.477v-1.883Zm0,4.979V171.6h19.477v-2.259Zm0,5.355v10.375a.463.463,0,0,0,.115.126,1.509,1.509,0,0,0,.925.293h.115a9.707,9.707,0,0,1,1.736-6.527,7.566,7.566,0,0,1,5.863-3.138c4.718-.146,8.843,3.969,9.411,9.2v0a1.719,1.719,0,0,1,0,.46h.193a1.509,1.509,0,0,0,.925-.293c.178-.147.193-.215.193-.251V174.7H122.15Zm8.832,4.226a4.654,4.654,0,0,0-3.7,1.967,6.529,6.529,0,0,0-1.118,4.6H137.5v-.082c-.4-3.679-3.416-6.58-6.518-6.485Z" transform="translate(-51.007 7.264)" fill="#42424f"/>
    <path id="noun-upload-4614210" d="M153.368,55.93l2.57-2.59V76.43a1.992,1.992,0,1,0,3.984,0V53.341l2.57,2.59a2,2,0,1,0,2.829-2.829l-5.977-5.977a1.992,1.992,0,0,0-2.829,0L150.539,53.1a2,2,0,1,0,2.829,2.829Zm16.515,4.562H165.9a1.992,1.992,0,0,0,0,3.984h3.984a1.992,1.992,0,0,1,1.992,1.992V80.414a1.992,1.992,0,0,1-1.992,1.992H145.976a1.992,1.992,0,0,1-1.992-1.992V66.469a1.992,1.992,0,0,1,1.992-1.992h3.984a1.992,1.992,0,0,0,0-3.984h-3.984A5.977,5.977,0,0,0,140,66.469V80.414a5.976,5.976,0,0,0,5.977,5.977h23.906a5.976,5.976,0,0,0,5.977-5.977V66.469a5.977,5.977,0,0,0-5.977-5.977Z" transform="translate(39.985 57.834)" fill="#f15a5c"/>
  </g>
</svg>
