<svg xmlns="http://www.w3.org/2000/svg" xmlns:xlink="http://www.w3.org/1999/xlink" width="100%" height="100%" viewBox="0 0 164.729 127.247">
  <defs>
    <filter id="Rectangle_30074" x="0" y="0" width="136.521" height="127.247" filterUnits="userSpaceOnUse">
      <feOffset dx="-9" dy="9" input="SourceAlpha"/>
      <feGaussianBlur result="blur"/>
      <feFlood flood-opacity="0.149"/>
      <feComposite operator="in" in2="blur"/>
      <feComposite in="SourceGraphic"/>
    </filter>
    <clipPath id="clip-path">
      <rect id="Rectangle_30079" data-name="Rectangle 30079" width="21.033" height="21.033" transform="translate(0 0)" fill="#f54f4f" stroke="#d34444" stroke-width="2"/>
    </clipPath>
    <clipPath id="clip-path-2">
      <rect id="Rectangle_30079-2" data-name="Rectangle 30079" width="21.033" height="21.033" fill="#59ba46" stroke="#4da03c" stroke-width="2"/>
    </clipPath>
  </defs>
  <g id="Pricing_High_Low" transform="translate(-1149.651 -393.209)" style="mix-blend-mode: luminosity;isolation: isolate">
    <g transform="matrix(1, 0, 0, 1, 1149.65, 393.21)" filter="url(#Rectangle_30074)">
      <g id="Rectangle_30074-2" data-name="Rectangle 30074" transform="translate(9 0)" fill="#fff" stroke="#bababa" stroke-width="1">
        <rect width="127.521" height="118.247" rx="5" stroke="none"/>
        <rect x="0.5" y="0.5" width="126.521" height="117.247" rx="4.5" fill="none"/>
      </g>
    </g>
    <g id="price_button" transform="translate(1164.026 485.103)">
      <g id="Rectangle_30078" data-name="Rectangle 30078" transform="translate(0 0)" fill="#cfcfce" stroke="#b1b1b1" stroke-width="1">
        <rect width="116.385" height="21.033" rx="3" stroke="none"/>
        <rect x="0.5" y="0.5" width="115.385" height="20.033" rx="2.5" fill="none"/>
      </g>
    </g>
    <rect id="_18" data-name="18" width="116.385" height="81.329" rx="5" transform="translate(1164.108 398.652)" fill="#8f8f8f"/>
    <g id="Group_1851" data-name="Group 1851" transform="translate(1293.347 492.719)">
      <g id="Group_1849" data-name="Group 1849" transform="translate(0 0)">
        <g id="Group_1848" data-name="Group 1848" transform="translate(0 0)" clip-path="url(#clip-path)">
          <g id="Path_17595" data-name="Path 17595" transform="translate(0.079 0.079)" fill="#f54f4f">
            <path d="M 10.50653648376465 19.75447845458984 L 1.883447289466858 11.131422996521 L 4.127583026885986 11.131422996521 L 5.127583026885986 11.131422996521 L 5.127583026885986 10.131422996521 L 5.127583026885986 1.000002861022949 L 15.88567352294922 1.000002861022949 L 15.88567352294922 10.131422996521 L 15.88567352294922 11.131422996521 L 16.88567352294922 11.131422996521 L 19.12956619262695 11.131422996521 L 10.50653648376465 19.75447845458984 Z" stroke="none"/>
            <path d="M 6.127583503723145 2.000003814697266 L 6.127583503723145 12.131422996521 L 4.297666549682617 12.131422996521 L 10.50653839111328 18.34026336669922 L 16.71536064147949 12.131422996521 L 14.88567352294922 12.131422996521 L 14.88567352294922 2.000003814697266 L 6.127583503723145 2.000003814697266 M 4.502822875976562 3.814697265625e-06 L 16.51043319702148 3.814697265625e-06 C 16.71765327453613 3.814697265625e-06 16.88567352294922 0.1680221557617188 16.88567352294922 0.3752422332763672 L 16.88567352294922 10.131422996521 L 20.63805389404297 10.131422996521 C 20.78982353210449 10.13159275054932 20.92649269104004 10.22289276123047 20.98464393615723 10.36308288574219 C 21.04258346557617 10.50332260131836 21.01059341430664 10.66465282440186 20.90321350097656 10.77199268341064 L 10.77182292938232 20.90341377258301 C 10.625412940979 21.04986381530762 10.38784313201904 21.04986190795898 10.2412633895874 20.90341377258301 L 0.109832763671875 10.77203273773193 C 0.00266265869140625 10.66465282440186 -0.02953720092773438 10.50332260131836 0.02861404418945312 10.36308288574219 C 0.08672332763671875 10.22289276123047 0.2234325408935547 10.13159275054932 0.3752021789550781 10.131422996521 L 4.127582550048828 10.131422996521 L 4.127582550048828 0.3752422332763672 C 4.127582550048828 0.1680221557617188 4.295602798461914 3.814697265625e-06 4.502822875976562 3.814697265625e-06 Z" stroke="none" fill="#d34444"/>
          </g>
        </g>
      </g>
    </g>
    <g id="Group_1852" data-name="Group 1852" transform="translate(1293.347 393.209)">
      <g id="Group_1850" data-name="Group 1850" transform="translate(0 0)">
        <g id="Group_1848-2" data-name="Group 1848" transform="translate(0 0)" clip-path="url(#clip-path-2)">
          <g id="Path_17595-2" data-name="Path 17595" transform="translate(0.079 -0.059)" fill="#59ba46">
            <path d="M 15.88567352294922 20.01324844360352 L 5.127583026885986 20.01324844360352 L 5.127583026885986 10.88182926177979 L 5.127583026885986 9.881829261779785 L 4.127583026885986 9.881829261779785 L 1.883439421653748 9.881829261779785 L 10.50654602050781 1.258773922920227 L 19.12956809997559 9.881829261779785 L 16.88567352294922 9.881829261779785 L 15.88567352294922 9.881829261779785 L 15.88567352294922 10.88182926177979 L 15.88567352294922 20.01324844360352 Z" stroke="none"/>
            <path d="M 14.88567352294922 19.01324844360352 L 14.88567352294922 8.881829261779785 L 16.71536064147949 8.881829261779785 L 10.50653839111328 2.672988176345825 L 4.297667026519775 8.881829261779785 L 6.127583026885986 8.881829261779785 L 6.127583026885986 19.01324844360352 L 14.88567352294922 19.01324844360352 M 16.51043319702148 21.01324844360352 L 4.502823352813721 21.01324844360352 C 4.295603275299072 21.01324844360352 4.127583026885986 20.84523010253906 4.127583026885986 20.63801956176758 L 4.127583026885986 10.88182926177979 L 0.3752031326293945 10.88182926177979 C 0.2234331369400024 10.88165950775146 0.08672313392162323 10.79035949707031 0.02861313149333 10.65016937255859 C -0.02953686751425266 10.50992965698242 0.002663132268935442 10.34859943389893 0.1098331287503242 10.24121952056885 L 10.2412633895874 0.1098393946886063 C 10.38784217834473 -0.03660986945033073 10.62541198730469 -0.03661133721470833 10.77182292938232 0.1098393946886063 L 20.90321350097656 10.24125957489014 C 21.01059341430664 10.34859943389893 21.04258346557617 10.50992965698242 20.98464393615723 10.65016937255859 C 20.92649269104004 10.79035949707031 20.78982353210449 10.88165950775146 20.63805389404297 10.88182926177979 L 16.88567352294922 10.88182926177979 L 16.88567352294922 20.63801956176758 C 16.88567352294922 20.84523010253906 16.71765327453613 21.01324844360352 16.51043319702148 21.01324844360352 Z" stroke="none" fill="#4da03c"/>
          </g>
        </g>
      </g>
    </g>
  </g>
</svg>
