<svg xmlns="http://www.w3.org/2000/svg" id="Inscribee_Logo" width="100%" height="100%" viewBox="0 0 241.296 48.289">
  <path id="Path_11724" data-name="Path 11724" d="M113.751,336.688h7.581v32.929h-7.581Zm19.511,12.975a6.252,6.252,0,0,0-1.587-4.569,6.024,6.024,0,0,0-4.5-1.618,5.879,5.879,0,0,0-4.314,1.507,5.743,5.743,0,0,0-1.523,4.268l-.665-6.821a11.838,11.838,0,0,1,3.759-4.633,9.093,9.093,0,0,1,5.345-1.586,10.02,10.02,0,0,1,8.17,3.508,15.147,15.147,0,0,1,2.9,9.913v19.986H133.26Z" transform="translate(-103.032 -321.968)" fill="#f05b5b"/>
  <path id="Path_11725" data-name="Path 11725" d="M146.845,369.534a23.18,23.18,0,0,1-5-1.634,19.161,19.161,0,0,1-4.2-2.631l4.6-5.71a20.773,20.773,0,0,0,5.124,2.7,15.319,15.319,0,0,0,5.09.919,11.646,11.646,0,0,0,5.25-.935,2.938,2.938,0,0,0,1.792-2.713,2.424,2.424,0,0,0-.886-2.046,5.211,5.211,0,0,0-2.238-.934q-1.347-.254-3.791-.476l-.856-.063c-.292-.02-.585-.053-.856-.1a2.071,2.071,0,0,1-.254-.015,2.024,2.024,0,0,0-.254-.016,31.611,31.611,0,0,1-5.679-1.061,7.4,7.4,0,0,1-3.727-2.616,8.883,8.883,0,0,1-1.508-5.554,10.339,10.339,0,0,1,1.508-5.726,9.237,9.237,0,0,1,4.424-3.522,19.052,19.052,0,0,1,7.17-1.19,24.67,24.67,0,0,1,4.949.493,24.089,24.089,0,0,1,4.615,1.428,22.058,22.058,0,0,1,4.171,2.338l-4.531,5.52a21.278,21.278,0,0,0-4.677-2.125,15.557,15.557,0,0,0-4.585-.731,9.6,9.6,0,0,0-4.531.856,2.739,2.739,0,0,0-1.552,2.539,1.859,1.859,0,0,0,.856,1.649,5.35,5.35,0,0,0,2.141.778q1.283.208,3.728.428c.17.02.332.038.491.048s.323.026.493.048h.221a1.048,1.048,0,0,1,.254.032,33.995,33.995,0,0,1,6.059,1.046,8.081,8.081,0,0,1,4.092,2.777,9.412,9.412,0,0,1,1.682,6.043,10.435,10.435,0,0,1-1.586,5.884,9.662,9.662,0,0,1-4.712,3.616,21.1,21.1,0,0,1-7.661,1.223A27.535,27.535,0,0,1,146.845,369.534Z" transform="translate(-97.555 -321.964)" fill="#f05b5b"/>
  <path id="Path_11726" data-name="Path 11726" d="M169.816,368.362a11.592,11.592,0,0,1-4.981-5.045,17.264,17.264,0,0,1-1.714-8.01v-4.472a16.926,16.926,0,0,1,1.714-7.917,11.537,11.537,0,0,1,4.981-5,16.746,16.746,0,0,1,7.866-1.713,19.294,19.294,0,0,1,4.969.618,14.922,14.922,0,0,1,4.187,1.792,11.262,11.262,0,0,1,3.094,2.856l-5.14,4.823a8.915,8.915,0,0,0-3.047-2.094,9.33,9.33,0,0,0-3.645-.731,7.414,7.414,0,0,0-5.457,1.92,7.331,7.331,0,0,0-1.936,5.441v4.472a7.609,7.609,0,0,0,1.92,5.568,7.341,7.341,0,0,0,5.475,1.951,8.822,8.822,0,0,0,6.692-3.046l5.14,5.139a11.726,11.726,0,0,1-3.126,2.809,14.808,14.808,0,0,1-4.187,1.754,19.673,19.673,0,0,1-4.933.6A16.619,16.619,0,0,1,169.816,368.362Z" transform="translate(-92.164 -321.966)" fill="#f05b5b"/>
  <path id="Path_11727" data-name="Path 11727" d="M186.765,336.683h7.9v32.929h-7.9ZM203.23,343.9a7.142,7.142,0,0,0-2.569-.428,5.736,5.736,0,0,0-4.427,1.7,6.672,6.672,0,0,0-1.57,4.712L194,342.428a11.738,11.738,0,0,1,3.727-4.585,8.554,8.554,0,0,1,5.06-1.634,11.106,11.106,0,0,1,3.9.65,8.648,8.648,0,0,1,3.046,1.921l-4.631,6.376a4.918,4.918,0,0,0-1.871-1.258Z" transform="translate(-87.212 -321.963)" fill="#f05b5b"/>
  <path id="Path_11728" data-name="Path 11728" d="M207.511,325.326h7.55v7.832h-7.55Zm0,13.632h7.55v34.015h-7.55Z" transform="translate(-83.124 -325.326)" fill="#f05b5b"/>
  <path id="Path_11729" data-name="Path 11729" d="M216.81,325.326H224.4v47.633H216.81Zm10.377,46.6a8.886,8.886,0,0,1-3.236-4.307l.438-7.437a7.421,7.421,0,0,0,.665,3.293,4.72,4.72,0,0,0,1.936,2.08,6.129,6.129,0,0,0,3.078.721,5.42,5.42,0,0,0,4.384-1.835,7.84,7.84,0,0,0,1.555-5.207v-6.39a8.164,8.164,0,0,0-1.555-5.323,5.36,5.36,0,0,0-4.385-1.882,6.245,6.245,0,0,0-3.078.7,4.606,4.606,0,0,0-1.936,2.08,7.536,7.536,0,0,0-.665,3.31l-.665-7.043a11.355,11.355,0,0,1,3.695-4.6,8.642,8.642,0,0,1,5.09-1.621,10.483,10.483,0,0,1,5.98,1.669,10.361,10.361,0,0,1,3.791,4.9,20.8,20.8,0,0,1,1.3,7.778v6.422a20.143,20.143,0,0,1-1.315,7.682,10.35,10.35,0,0,1-3.854,4.864,10.768,10.768,0,0,1-6.059,1.672,8.815,8.815,0,0,1-5.169-1.53Z" transform="translate(-80.774 -325.326)" fill="#f05b5b"/>
  <path id="Path_11730" data-name="Path 11730" d="M248.174,368.375a11.636,11.636,0,0,1-5.044-5.029,17,17,0,0,1-1.745-8.009v-3.712a19.092,19.092,0,0,1,1.665-8.345,11.747,11.747,0,0,1,4.855-5.261,15.287,15.287,0,0,1,7.66-1.808,12.238,12.238,0,0,1,7.22,2.109,13.065,13.065,0,0,1,4.566,6.106,26.369,26.369,0,0,1,1.571,9.646v2.148H246.56v-5.554h15.324l-.031-.349a9.42,9.42,0,0,0-1.936-5.361,5.407,5.407,0,0,0-4.346-1.9,6.664,6.664,0,0,0-5.3,2.141,8.947,8.947,0,0,0-1.871,6.076v4.189a7.044,7.044,0,0,0,7.746,7.772,10.068,10.068,0,0,0,3.7-.715,11.193,11.193,0,0,0,3.282-1.983l4.949,4.633a18.387,18.387,0,0,1-5.631,3.632,16.457,16.457,0,0,1-6.3,1.286,17.1,17.1,0,0,1-7.972-1.711Z" transform="translate(-75.541 -321.965)" fill="#f05b5b"/>
  <path id="Union_6" data-name="Union 6" d="M265.8,370.155a3.138,3.138,0,1,1,3.141,3.24A3.191,3.191,0,0,1,265.8,370.155Zm29.2,2c-.308,0-.623,0-.932-.015-3.458-.118-9.947-.973-14.554-5.381-.042-.039-.085-.082-.126-.125a1.336,1.336,0,0,0-.891-.52h-.026a1.441,1.441,0,0,0-.769.366l-.061.045a6.4,6.4,0,0,1-3.256,1.208c-.126.012-.257.017-.383.017a3.385,3.385,0,0,1-2.115-.677,2.917,2.917,0,0,1-1.067-2.331,4.089,4.089,0,0,1,1.7-2.819,6.235,6.235,0,0,0,1.45-1.736,2.829,2.829,0,0,0-.266-2.462,21.811,21.811,0,0,1,3.481-22.945,23.358,23.358,0,0,1,13.251-7.792,18.618,18.618,0,0,1,3.614-.375c2.631,0,6.138.7,7.965,4.014a13.014,13.014,0,0,1,1.387,7.8,19.452,19.452,0,0,1-2.6,7.585,40.763,40.763,0,0,1-4.987,6.517c-.868.962-2.029,2.222-3.282,3.4a56.456,56.456,0,0,1-5.261,4.23h-.009l-.656.486a1.474,1.474,0,0,0-.647,1,1.539,1.539,0,0,0,.425,1.151,4.4,4.4,0,0,0,1.47,1,14.273,14.273,0,0,0,3.721,1.378,6.684,6.684,0,0,0,1.16.106,4.933,4.933,0,0,0,2.673-.725,7.612,7.612,0,0,0,2.631-3.949l.292-.825a12.779,12.779,0,0,1,1.671-3.6,6.06,6.06,0,0,1,4.841-2.332,5.676,5.676,0,0,1,2.967.811,7.2,7.2,0,0,1,3.176,5.707,7.942,7.942,0,0,1-.009,1.094,9.911,9.911,0,0,1-2.485,5.613c-3.848,4.425-10.1,5.085-13.49,5.085Zm-8.979-32.543a17.5,17.5,0,0,0-3.855,4.65,12,12,0,0,0-1.426,6.1c0,.337.029.68.051,1.011.026.4.053.805.053,1.208v.263c-.019.491-.042,1.1.422,1.346a.481.481,0,0,0,.227.057c.292,0,.541-.283.745-.511a1.164,1.164,0,0,1,.113-.118c.574-.6,1.2-1.169,1.811-1.719a24.092,24.092,0,0,0,2.183-2.125,35.863,35.863,0,0,0,3.2-4.492,11.565,11.565,0,0,0,1.809-4.654,2.647,2.647,0,0,0-.89-2.5,1.868,1.868,0,0,0-1.048-.313,6.071,6.071,0,0,0-3.4,1.8Z" transform="translate(-69.704 -325.107)" fill="#f05b5b"/>
  <path id="Path_11731" data-name="Path 11731" d="M104.583,325.392h7.55v7.832h-7.55Zm0,13.632h7.55v34.015h-7.55Z" transform="translate(-104.583 -325.316)" fill="#f05b5b"/>
</svg>