<svg xmlns="http://www.w3.org/2000/svg" width="100%" height="100%" viewBox="0 0 35 35">
  <g id="noun-instagram-7139236" transform="translate(-7.832 -7.832)">
    <path id="Path_45895" data-name="Path 45895" d="M32.132,8.332h-13.6a10.212,10.212,0,0,0-10.2,10.2v13.6a10.212,10.212,0,0,0,10.2,10.2h13.6a10.212,10.212,0,0,0,10.2-10.2l0-13.6a10.211,10.211,0,0,0-10.2-10.2Zm6.8,23.8a6.808,6.808,0,0,1-6.8,6.8l-13.6,0a6.808,6.808,0,0,1-6.8-6.8l0-13.6a6.808,6.808,0,0,1,6.8-6.8h13.6a6.808,6.808,0,0,1,6.8,6.8Zm-13.6-15.3a8.5,8.5,0,1,0,8.5,8.5A8.509,8.509,0,0,0,25.332,16.833Zm0,13.6a5.1,5.1,0,1,1,5.1-5.1A5.1,5.1,0,0,1,25.332,30.433Zm9.707-14.808a1.7,1.7,0,1,1-2.414,0,1.8,1.8,0,0,1,2.414,0Z" stroke="#fff" stroke-width="1"/>
  </g>
</svg>
