<svg id="Component_267_1" data-name="Component 267 – 1" xmlns="http://www.w3.org/2000/svg" xmlns:xlink="http://www.w3.org/1999/xlink" width="194.09" height="192.347" viewBox="0 0 194.09 192.347">
  <defs>
    <clipPath id="clip-path">
      <rect id="Rectangle_5689" data-name="Rectangle 5689" width="194.09" height="192.347" fill="none"/>
    </clipPath>
  </defs>
  <g id="Group_15601" data-name="Group 15601" style="mix-blend-mode: luminosity;isolation: isolate">
    <g id="Group_15600" data-name="Group 15600" clip-path="url(#clip-path)">
      <path id="Path_20094" data-name="Path 20094" d="M335.91,308.861a33.139,33.139,0,0,0,31.511-22.934c4.6-14.187,8.961-31.017,6.574-38.2-4.49-13.509-25.818,20.312-25.818,20.312s23.852-37.354,14.592-45.83-29.79,9.3-28.9,45.83l-3.793,40.823Z" transform="translate(-180.581 -120.428)" fill="#2e2e2e"/>
      <path id="Path_20095" data-name="Path 20095" d="M325.7,323.508c-1.845-6.764-6.341-27.381,4.962-34.749a11.993,11.993,0,0,0,5.559-10.193c-.064-4.705.674-10.3,4.05-13.063a5.377,5.377,0,0,0,1.878-3.026c.6-2.808,2.012-7.792,4.864-10.655a3.276,3.276,0,0,1,5.559,2.283,31.492,31.492,0,0,1-1.284,9.7,5.447,5.447,0,0,0,.415,4.132c1.4,2.665,3,8.115-1.25,15.621a11.717,11.717,0,0,0-1.01,9.045c2.737,9.388,5.222,29.2-20.864,32.822a2.622,2.622,0,0,1-2.88-1.916" transform="translate(-176.846 -137.255)" fill="#878787"/>
      <path id="Path_20106" data-name="Path 20106" d="M336.19,264.28a.118.118,0,0,0,.083-.191c-.8-1.067-5.455-7.005-8.409-4.26-3.1,2.884,6.446,4.6,8.326,4.45" transform="translate(-179.036 -141.758)" fill="#8d83f2"/>
      <g id="Group_15606" data-name="Group 15606">
        <path id="Path_20096" data-name="Path 20096" d="M341.913,231.53q2.766-4.6,5.438-9.244c1.76-3.109,3.493-6.233,5.144-9.4s3.206-6.381,4.713-9.615,2.924-6.513,4.267-9.832a.113.113,0,0,1,.148-.063.115.115,0,0,1,.067.137,92.7,92.7,0,0,1-3.673,10.118c-1.4,3.305-2.981,6.533-4.643,9.713s-3.4,6.321-5.244,9.4q-2.743,4.628-5.744,9.091a.281.281,0,0,1-.474-.3" transform="translate(-187.036 -105.791)" fill="#ed6a5a"/>
        <path id="Path_20097" data-name="Path 20097" d="M384.543,182.745a.118.118,0,0,1-.2-.056c-.326-1.292-2-8.65,1.99-9.214,4.194-.592-.49,7.9-1.789,9.269" transform="translate(-209.928 -94.892)" fill="#ed6a5a"/>
        <path id="Path_20098" data-name="Path 20098" d="M381.808,195.991a.118.118,0,0,1-.111-.176c.625-1.177,4.32-7.757,7.659-5.495,3.507,2.376-5.667,5.529-7.547,5.67" transform="translate(-208.815 -103.866)" fill="#ed6a5a"/>
        <path id="Path_20099" data-name="Path 20099" d="M375.534,192.845a.118.118,0,0,0,.184-.1c.047-1.331.136-8.877-3.885-8.588-4.225.3,2.144,7.622,3.7,8.684" transform="translate(-202.647 -100.748)" fill="#ed6a5a"/>
        <path id="Path_20100" data-name="Path 20100" d="M370.559,203.442a.118.118,0,0,0,.172-.118c-.11-1.327-.906-8.832-4.866-8.072-4.16.8,3.023,7.318,4.695,8.19" transform="translate(-199.462 -106.792)" fill="#ed6a5a"/>
        <path id="Path_20101" data-name="Path 20101" d="M364.554,213.249a.118.118,0,0,0,.124-.167c-.537-1.219-3.742-8.051-7.237-6.04-3.671,2.114,5.248,5.929,7.113,6.207" transform="translate(-195.073 -113.07)" fill="#ed6a5a"/>
        <path id="Path_20102" data-name="Path 20102" d="M359.624,224.068a.118.118,0,0,0,.124-.167c-.537-1.219-3.742-8.051-7.237-6.04-3.671,2.114,5.248,5.929,7.113,6.207" transform="translate(-192.376 -118.989)" fill="#ed6a5a"/>
        <path id="Path_20103" data-name="Path 20103" d="M354.282,233.458a.118.118,0,0,0,.124-.167c-.537-1.219-3.742-8.051-7.237-6.04-3.671,2.114,5.248,5.929,7.113,6.207" transform="translate(-189.453 -124.126)" fill="#ed6a5a"/>
        <path id="Path_20104" data-name="Path 20104" d="M348.5,244.309a.118.118,0,0,0,.124-.167c-.537-1.219-3.742-8.051-7.237-6.04-3.671,2.114,5.248,5.929,7.113,6.207" transform="translate(-186.288 -130.063)" fill="#ed6a5a"/>
        <path id="Path_20105" data-name="Path 20105" d="M342.886,253.809a.118.118,0,0,0,.083-.19c-.8-1.068-5.455-7.005-8.409-4.26-3.1,2.884,6.446,4.6,8.326,4.45" transform="translate(-182.699 -136.03)" fill="#ed6a5a"/>
        <path id="Path_20107" data-name="Path 20107" d="M377.268,208.405a.118.118,0,0,1-.051-.2c.958-.925,6.509-6.039,8.983-2.855,2.6,3.345-7.1,3.5-8.932,3.056" transform="translate(-206.353 -111.781)" fill="#ed6a5a"/>
        <path id="Path_20108" data-name="Path 20108" d="M374.414,218.937a.118.118,0,0,1,.007-.208c1.179-.62,7.939-3.974,9.423-.224,1.559,3.939-7.8,1.375-9.43.432" transform="translate(-204.808 -118.586)" fill="#ed6a5a"/>
        <path id="Path_20109" data-name="Path 20109" d="M369.514,229.617a.118.118,0,0,1,.028-.206c1.235-.5,8.294-3.168,9.4.71,1.161,4.074-7.9.6-9.427-.5" transform="translate(-202.132 -124.765)" fill="#ed6a5a"/>
        <path id="Path_20110" data-name="Path 20110" d="M364.18,240.114a.118.118,0,0,1,.034-.205c1.25-.46,8.392-2.9,9.371,1.013,1.029,4.11-7.91.341-9.406-.808" transform="translate(-199.215 -130.611)" fill="#ed6a5a"/>
        <path id="Path_20111" data-name="Path 20111" d="M358.466,250.947a.118.118,0,0,1,.043-.2c1.268-.409,8.5-2.556,9.323,1.392.861,4.148-7.918.02-9.365-1.188" transform="translate(-196.091 -136.661)" fill="#ed6a5a"/>
        <path id="Path_20112" data-name="Path 20112" d="M353.832,259.8a.118.118,0,0,1,.093-.186c1.33-.071,8.873-.3,8.657,3.728-.227,4.23-7.66-2-8.751-3.542" transform="translate(-193.567 -142.016)" fill="#ed6a5a"/>
        <path id="Path_20113" data-name="Path 20113" d="M347.715,270.259a.118.118,0,0,1,.093-.186c1.33-.071,8.873-.3,8.657,3.728-.227,4.23-7.66-2-8.751-3.542" transform="translate(-190.221 -147.74)" fill="#ed6a5a"/>
      </g>
      <path id="Path_20115" data-name="Path 20115" d="M68.347,327.317h-27.5c-19.755,0-36.969-14.015-40.37-33.476C-.44,288.6-.147,284,2.364,281.217c9.372-10.385,24.57,19.51,24.57,19.51s-12.665-33.238-.76-44.485,29.636,19.667,25.836,43.091c0,0,2.347-31.388,15.148-37.114s11.195,58,1.189,65.1" transform="translate(0 -138.884)" fill="#878787"/>
      <path id="Path_20123" data-name="Path 20123" d="M107.767,353.569a.118.118,0,0,1-.124-.168c.537-1.219,3.742-8.051,7.237-6.039,3.671,2.114-5.248,5.929-7.113,6.207" transform="translate(-58.885 -189.838)" fill="#8d83f2"/>
      <path id="Path_20124" data-name="Path 20124" d="M113.553,364.42a.118.118,0,0,1-.124-.167c.537-1.219,3.742-8.051,7.237-6.04,3.671,2.114-5.248,5.929-7.113,6.207" transform="translate(-62.05 -195.774)" fill="#8d83f2"/>
      <path id="Path_20125" data-name="Path 20125" d="M118.047,373.92a.118.118,0,0,1-.083-.191c.8-1.067,5.455-7,8.409-4.26,3.1,2.884-6.446,4.6-8.326,4.45" transform="translate(-64.524 -201.742)" fill="#8d83f2"/>
      <path id="Path_20126" data-name="Path 20126" d="M124.744,384.39a.118.118,0,0,1-.083-.191c.8-1.067,5.455-7,8.409-4.26,3.1,2.884-6.446,4.6-8.326,4.45" transform="translate(-68.188 -207.47)" fill="#8d83f2"/>
      <g id="Group_15607" data-name="Group 15607">
        <path id="Path_20116" data-name="Path 20116" d="M105.534,351.943q-2.995-4.464-5.744-9.091-2.768-4.613-5.244-9.4c-1.662-3.18-3.241-6.407-4.643-9.713a92.651,92.651,0,0,1-3.672-10.118.113.113,0,0,1,.214-.074q2.014,4.978,4.267,9.832c1.508,3.235,3.069,6.445,4.713,9.615s3.384,6.29,5.144,9.4q2.665,4.651,5.439,9.244a.281.281,0,0,1-.474.3" transform="translate(-47.174 -171.502)" fill="#ed6a5a"/>
        <path id="Path_20117" data-name="Path 20117" d="M82.1,302.857a.118.118,0,0,0,.2-.056c.326-1.292,2-8.65-1.99-9.214-4.194-.592.49,7.9,1.789,9.269" transform="translate(-43 -160.603)" fill="#ed6a5a"/>
        <path id="Path_20118" data-name="Path 20118" d="M79.831,316.1a.118.118,0,0,0,.111-.175c-.625-1.177-4.32-7.757-7.659-5.5-3.507,2.376,5.667,5.529,7.548,5.67" transform="translate(-39.112 -169.578)" fill="#ed6a5a"/>
        <path id="Path_20119" data-name="Path 20119" d="M89.9,312.956a.118.118,0,0,1-.184-.1c-.047-1.331-.136-8.877,3.885-8.588,4.225.3-2.143,7.622-3.7,8.685" transform="translate(-49.077 -166.46)" fill="#ed6a5a"/>
        <path id="Path_20120" data-name="Path 20120" d="M93.881,323.551a.118.118,0,0,1-.172-.118c.11-1.327.906-8.832,4.866-8.073,4.16.8-3.023,7.318-4.695,8.19" transform="translate(-51.268 -172.502)" fill="#ed6a5a"/>
        <path id="Path_20121" data-name="Path 20121" d="M97.495,333.36a.118.118,0,0,1-.124-.167c.537-1.219,3.742-8.051,7.237-6.04,3.671,2.114-5.248,5.929-7.113,6.207" transform="translate(-53.265 -178.782)" fill="#ed6a5a"/>
        <path id="Path_20122" data-name="Path 20122" d="M102.426,344.179a.118.118,0,0,1-.124-.167c.537-1.219,3.742-8.051,7.237-6.04,3.671,2.114-5.248,5.929-7.113,6.207" transform="translate(-55.963 -184.701)" fill="#ed6a5a"/>
        <path id="Path_20127" data-name="Path 20127" d="M83.167,328.516a.118.118,0,0,0,.051-.2c-.958-.925-6.509-6.039-8.983-2.855-2.6,3.345,7.1,3.5,8.932,3.056" transform="translate(-40.373 -177.492)" fill="#ed6a5a"/>
        <path id="Path_20128" data-name="Path 20128" d="M85.777,339.048a.118.118,0,0,0-.007-.208c-1.179-.62-7.939-3.974-9.423-.224-1.559,3.939,7.8,1.375,9.43.432" transform="translate(-41.673 -184.298)" fill="#ed6a5a"/>
        <path id="Path_20129" data-name="Path 20129" d="M90.78,349.727a.118.118,0,0,0-.028-.206c-1.235-.5-8.294-3.168-9.4.71-1.161,4.074,7.9.6,9.427-.5" transform="translate(-44.452 -190.477)" fill="#ed6a5a"/>
        <path id="Path_20130" data-name="Path 20130" d="M96.168,360.225a.118.118,0,0,0-.034-.205c-1.25-.46-8.392-2.9-9.371,1.013-1.029,4.11,7.91.341,9.406-.808" transform="translate(-47.422 -196.323)" fill="#ed6a5a"/>
        <path id="Path_20131" data-name="Path 20131" d="M101.963,371.058a.118.118,0,0,0-.043-.2c-1.268-.409-8.5-2.556-9.323,1.392-.861,4.148,7.918.02,9.365-1.188" transform="translate(-50.627 -202.372)" fill="#ed6a5a"/>
        <path id="Path_20132" data-name="Path 20132" d="M107.428,379.908a.118.118,0,0,0-.093-.186c-1.33-.071-8.873-.3-8.657,3.728.227,4.23,7.66-2,8.751-3.542" transform="translate(-53.983 -207.728)" fill="#ed6a5a"/>
        <path id="Path_20133" data-name="Path 20133" d="M113.546,390.369a.118.118,0,0,0-.093-.186c-1.33-.071-8.873-.3-8.657,3.728.227,4.23,7.66-2,8.751-3.542" transform="translate(-57.33 -213.451)" fill="#ed6a5a"/>
      </g>
      <path id="Path_20134" data-name="Path 20134" d="M195.994,413.4c0,1.826-38.907,3.307-86.9,3.307s-86.9-1.481-86.9-3.307,38.907-3.307,86.9-3.307,86.9,1.481,86.9,3.307" transform="translate(-12.142 -224.358)" fill="#e9e8f2"/>
      <path id="Path_20135" data-name="Path 20135" d="M221.879,90.014l-2.241.035-.146-9.242a.753.753,0,0,1,.758.5l1.575,5.338Z" transform="translate(-120.082 -44.209)" fill="#011627"/>
      <path id="Path_20136" data-name="Path 20136" d="M279.524,83.355l-6.639-6.813c-6.973-.237-24.892,3.043-24.892,3.043s-22.008,3.381-23.414,4.622l.009,3.5c7.171,2.075,22.22,2.075,26.73.21,6.921,1.369,19.707.312,26.724-.442a2.435,2.435,0,0,0,1.482-4.122" transform="translate(-122.866 -41.869)" fill="#ed6a5a"/>
      <path id="Path_20137" data-name="Path 20137" d="M211.833,100.637c-.589,11.331-.623,41.352-.932,70.625-.286,27.181-.814,53.71-2.245,64.02a4.83,4.83,0,0,1-4.68,4.293h-95.55a4.858,4.858,0,0,1-4.714-4.607c-.707-8.795-1.572-29.5-2.323-52.571-1-30.677-1.813-65.524-1.8-82.1a4.9,4.9,0,0,1,4.484-5.017c16.792-.926,65.339-3.564,103.469.062a4.944,4.944,0,0,1,4.294,5.3" transform="translate(-54.483 -51.143)" fill="#2e2e2e"/>
      <path id="Path_20138" data-name="Path 20138" d="M213.077,265.219c-.286,27.18-.814,53.71-2.245,64.02a4.83,4.83,0,0,1-4.681,4.294H110.6a4.859,4.859,0,0,1-4.714-4.608c-.707-8.794-1.572-29.5-2.323-52.57,23.022,13.251,68.319,29.829,109.513-11.135" transform="translate(-56.659 -145.099)" fill="#2f2f2f"/>
      <path id="Path_20252" data-name="Path 20252" d="M0,0H130.708V96.837H0Z" transform="translate(52.647 180.973) rotate(-90)" fill="#fff"/>
      <path id="Path_20140" data-name="Path 20140" d="M197.177,230.58a2.712,2.712,0,0,1,1.136-.745c2.1-1.408,4.234-2.764,6.448-4a2.8,2.8,0,0,1,1.388-.377,19.4,19.4,0,0,0,3.39-3.031c.89-1.052,2.2-2.8,3.561-3.242V111.1H116.262V241.806h62.975c.22-.357,1.9-.673,2.325-.908,5.454-3,10.425-6.753,15.556-10.256l.059-.063" transform="translate(-63.606 -60.781)" fill="#f0f0f2"/>
      <path id="Path_20142" data-name="Path 20142" d="M146.682,172.835H133.774V159.927h12.908Zm-12.038-.87h11.168V160.8H134.645Z" transform="translate(-73.187 -87.495)" fill="#bababa"/>
      <path id="Path_20143" data-name="Path 20143" d="M145.125,150.953q-.683,1.895-1.408,3.77l-1.437,3.756c-.869,2.169-1.717,4.349-2.6,6.51a23.551,23.551,0,0,1-1.437-2.07c-.638-1.017-1.251-2.055-1.8-3.151l-2.665,2.427c1.04.65,2.017,1.358,2.97,2.087a18.528,18.528,0,0,1,2.654,2.374l.6.679.466-.832c1.307-2.333,2.687-4.632,4.03-6.948l2.071-3.447q1.031-1.726,2.1-3.433Z" transform="translate(-73.253 -84.994)" fill="#ed6a5a"/>
      <rect id="Rectangle_5677" data-name="Rectangle 5677" width="20.766" height="3.087" transform="translate(77.935 70.399)" fill="#1c1c1c"/>
      <rect id="Rectangle_5678" data-name="Rectangle 5678" width="43.004" height="3.087" transform="translate(77.935 75.31)" fill="#ccc"/>
      <rect id="Rectangle_5679" data-name="Rectangle 5679" width="25.349" height="3.087" transform="translate(77.935 80.222)" fill="#ccc"/>
      <path id="Path_20144" data-name="Path 20144" d="M146.682,228.525H133.774V215.617h12.908Zm-12.038-.87h11.168V216.487H134.645Z" transform="translate(-73.187 -117.962)" fill="#bababa"/>
      <path id="Path_20145" data-name="Path 20145" d="M145.125,206.642q-.683,1.895-1.408,3.77l-1.437,3.756c-.869,2.169-1.717,4.349-2.6,6.51a23.551,23.551,0,0,1-1.437-2.07c-.638-1.017-1.251-2.055-1.8-3.151l-2.665,2.427c1.04.65,2.017,1.358,2.97,2.087a18.53,18.53,0,0,1,2.654,2.374l.6.679.466-.832c1.307-2.333,2.687-4.632,4.03-6.949l2.071-3.447q1.031-1.726,2.1-3.433Z" transform="translate(-73.253 -115.187)" fill="#ed6a5a"/>
      <rect id="Rectangle_5680" data-name="Rectangle 5680" width="20.766" height="3.087" transform="translate(77.935 95.622)" fill="#1c1c1c"/>
      <rect id="Rectangle_5681" data-name="Rectangle 5681" width="43.004" height="3.087" transform="translate(77.935 100.533)" fill="#d7d5f2"/>
      <rect id="Rectangle_5682" data-name="Rectangle 5682" width="25.349" height="3.087" transform="translate(77.935 105.444)" fill="#ccc"/>
      <path id="Path_20146" data-name="Path 20146" d="M146.682,284.214H133.774V271.306h12.908Zm-12.038-.87h11.168V272.177H134.645Z" transform="translate(-73.187 -148.43)" fill="#bababa"/>
      <rect id="Rectangle_5683" data-name="Rectangle 5683" width="20.766" height="3.087" transform="translate(77.935 120.844)" fill="#1c1c1c"/>
      <rect id="Rectangle_5684" data-name="Rectangle 5684" width="43.004" height="3.087" transform="translate(77.935 125.755)" fill="#ccc"/>
      <rect id="Rectangle_5685" data-name="Rectangle 5685" width="25.349" height="3.087" transform="translate(77.935 130.666)" fill="#ccc"/>
      <path id="Path_20147" data-name="Path 20147" d="M146.682,339.9H133.774V327h12.908Zm-12.038-.87h11.168V327.866H134.645Z" transform="translate(-73.187 -178.897)" fill="#bababa"/>
      <rect id="Rectangle_5686" data-name="Rectangle 5686" width="20.766" height="3.087" transform="translate(77.935 146.066)" fill="#1c1c1c"/>
      <rect id="Rectangle_5687" data-name="Rectangle 5687" width="43.004" height="3.087" transform="translate(77.935 150.977)" fill="#ccc"/>
      <rect id="Rectangle_5688" data-name="Rectangle 5688" width="25.349" height="3.087" transform="translate(77.935 155.888)" fill="#ccc"/>
      <path id="Path_20148" data-name="Path 20148" d="M215.947,72.361a1.124,1.124,0,0,0-.876-.918,126.258,126.258,0,0,0-20.038-2.285c1.626-2.8,3.843-7.495,2.291-10.2-2.9-5.051-16-3.788-23.291-1.543-5.391,1.659-2.816,8.522-1.1,12-5.98.382-12.5,1.036-19.54,2.073a1.135,1.135,0,0,0-.964,1c-.269,2.558-.826,10.243,1.33,16.3a1.115,1.115,0,0,0,1,.732c6.435.323,52.92,2.515,60.524-1.206a1.126,1.126,0,0,0,.623-.846,52.536,52.536,0,0,0,.043-15.107M184.321,59.239a3.859,3.859,0,1,1-3.861,3.856,3.859,3.859,0,0,1,3.861-3.856" transform="translate(-83.244 -30.336)" fill="#6c6c6c"/>
      <path id="Path_20149" data-name="Path 20149" d="M158.166,96.76c-.487,2.775-1.322,9.172.572,12.535a.3.3,0,0,0,.255.149c3.15.061,49.371.894,57.884-2.731a.3.3,0,0,0-.109-.568l-53.894-1.1a.287.287,0,0,1-.229-.116,26.212,26.212,0,0,1-3.906-8.192.293.293,0,0,0-.573.021" transform="translate(-86.198 -52.804)" fill="#8b8b8b"/>
      <path id="Path_20150" data-name="Path 20150" d="M230.423,57.789a9.368,9.368,0,0,1,4.321.329,6.8,6.8,0,0,1,2.076,1.048,4.918,4.918,0,0,1,2.007,4.421,7.247,7.247,0,0,1-.6,2.249,10.519,10.519,0,0,1-2.536,3.479.288.288,0,0,1-.463-.315l0-.006a33.3,33.3,0,0,0,1.342-3.736,8.58,8.58,0,0,0,.241-1.759,3.746,3.746,0,0,0-.317-1.521,5.112,5.112,0,0,0-2.421-2.231,23.513,23.513,0,0,0-3.676-1.4l-.02-.006a.286.286,0,0,1,.039-.555" transform="translate(-125.931 -31.552)" fill="#8b8b8b"/>
      <path id="Path_20151" data-name="Path 20151" d="M221.373,71.428a3.854,3.854,0,1,1-5.438-5.444,4.224,4.224,0,0,0-.213,1.336,4.323,4.323,0,0,0,4.321,4.322,4.176,4.176,0,0,0,1.33-.213" transform="translate(-117.43 -36.099)" fill="#222"/>
      <path id="Path_20152" data-name="Path 20152" d="M214.648,91.01l30.167,1.414a.043.043,0,0,1,.041.048l-.622,5.493a.043.043,0,0,1-.084,0l-.966-4.138a.043.043,0,0,0-.038-.033Z" transform="translate(-117.432 -49.791)" fill="#8b8b8b"/>
      <path id="Path_20153" data-name="Path 20153" d="M328.221,8.057A4.561,4.561,0,1,0,319.383,5.8c-.624,2.44-.317,6.4,2.124,7.025a3.015,3.015,0,0,0,1.038.063l.863,4.135,3.475-.726-1.034-4.951a6.884,6.884,0,0,0,2.371-3.288" transform="translate(-174.58 -1.294)" fill="#f4c587"/>
      <path id="Path_20154" data-name="Path 20154" d="M325.026,5.422a5.74,5.74,0,0,1-1.753,4.017,3.963,3.963,0,0,0-.562.675,4.479,4.479,0,0,0-.6,1.286A1.808,1.808,0,0,1,320.7,9.534a3.709,3.709,0,0,0-.149-1.495.578.578,0,0,1,.222-.62,2.549,2.549,0,0,0,.575-.707.6.6,0,0,0-.181-.793,1.465,1.465,0,0,0-1.268-.041c-.444.974-1.445.3-1.363-.938.045-.62-.172-.883-.394-.987a.639.639,0,0,0-.661.122,5.716,5.716,0,0,1-1.957,1.033,3.715,3.715,0,0,1-1.621.145c-2.468-.376-2.342-3.107-1.852-3.261.507-.159,1.63.593,1.753.679-.362-.358-1.15-2.822,1.613-2.138,2.789.693,4.737-.562,6.725-.534,1.7.018,1.54.969,1.458,1.25a.461.461,0,0,1-.027.077c1.585-.313,1.581,2.138,1.454,4.094" transform="translate(-170.564 0)" fill="#011627"/>
      <path id="Path_20155" data-name="Path 20155" d="M337.526,6.932a5.741,5.741,0,0,1-1.753,4.017,3.96,3.96,0,0,0-.562.675c-.476-1.59-.4-4.579-.58-5.874A3.719,3.719,0,0,1,336.1,2.761a.459.459,0,0,1-.027.077c1.585-.313,1.581,2.138,1.454,4.094" transform="translate(-183.063 -1.511)" fill="#011d33"/>
      <path id="Path_20156" data-name="Path 20156" d="M326.7,24.1a3.281,3.281,0,0,0,2.016-1.238s-.066,2.114-1.8,2.3Z" transform="translate(-178.736 -12.507)" fill="#f2b35e"/>
      <path id="Path_20157" data-name="Path 20157" d="M316.832,101.4c.674,4.574,1.037,12.994-2.1,24.8l-3.365-1.413c-.245-1.336-1.63-12.482-2.35-20.3-.272-2.917-.444-5.371-.435-6.676.009-1,5.349-18.51,11.594-21.617l5.462,1.789,2.717.892s-1.024,10.335-11.526,22.523" transform="translate(-168.824 -41.684)" fill="#ed6a5a"/>
      <path id="Path_20158" data-name="Path 20158" d="M325.642,77.98c-.422,1.617-5,18.479-13.066,25.159-1.553,1.286-2.709,1.635-3.555,1.345-.272-2.917-.444-5.371-.435-6.676.009-1,5.349-18.51,11.594-21.617Z" transform="translate(-168.825 -41.684)" fill="#ed7566"/>
      <path id="Path_20159" data-name="Path 20159" d="M310.928,183.8l-.935,2.036-8.4-3.858a.752.752,0,0,1,.781-.467l5.495.883Z" transform="translate(-164.999 -99.3)" fill="#011627"/>
      <path id="Path_20160" data-name="Path 20160" d="M312.347,33.123c-.29-.306-1.2-.072-2.112.273A7.087,7.087,0,0,0,306.94,36l-6.487,8.491a1.542,1.542,0,0,0,.122,2.014l6.16,6.309,1.961-2.168-4.371-4.715s10.735-9.941,8.023-12.8" transform="translate(-164.202 -18.043)" fill="#f4c587"/>
      <path id="Path_20161" data-name="Path 20161" d="M307.394,40.04l4.348,2.57s4.709-4.756,5.215-7.892a1.667,1.667,0,0,0-1.64-1.962,3.888,3.888,0,0,0-1.754.5,8.374,8.374,0,0,0-1.94,1.731Z" transform="translate(-168.173 -17.921)" fill="#5c5c5c"/>
      <path id="Path_20162" data-name="Path 20162" d="M333,53.482l-15.475-2.317s-1.258-15.912.425-18.562,7.286-2.986,8.825-2.77c.243.034.944.188,1.678.356a2.664,2.664,0,0,1,2.072,2.635L330.4,41.65a5.573,5.573,0,0,0,.158,1.4Z" transform="translate(-173.469 -16.292)" fill="#8e8e8e"/>
      <path id="Path_20163" data-name="Path 20163" d="M334.07,48.526a.7.7,0,0,1-.539.752c-2.5.593-12.161,2.794-15.558,2.1-.28-.054-.579-.448-.833-.91a11.619,11.619,0,0,1-.725-1.644c2.636-1.037,13.04-2.808,13.04-2.808-.027-.036-.055-.068-.082-.1a30.058,30.058,0,0,1-5.013-10.761,3.3,3.3,0,0,1,2.3-4,4.835,4.835,0,0,1,1.183-.2,1.669,1.669,0,0,1,.906.177c3.582,2.124,5.027,14.5,5.322,17.4" transform="translate(-173.108 -16.93)" fill="#f4c587"/>
      <path id="Path_20164" data-name="Path 20164" d="M329.984,67.189c-3.356,2.246-8.723,2.015-12.844,1.359a11.647,11.647,0,0,1-.725-1.644c2.636-1.037,13.039-2.808,13.039-2.808-.027-.036-.054-.068-.081-.1a5.011,5.011,0,0,1,.847.643,1.642,1.642,0,0,1-.236,2.554" transform="translate(-173.108 -35.009)" fill="#f4ce9c"/>
      <path id="Path_20165" data-name="Path 20165" d="M342.158,39.4l-6.308,2.175s-5.241-8.213-.826-10.629c0,0,5.02-3.246,7.133,8.454" transform="translate(-182.322 -16.704)" fill="#c1c1c1"/>
      <path id="Path_20166" data-name="Path 20166" d="M333.241,39.112a12.535,12.535,0,0,0,2.592,7.156l.2-.069a18.6,18.6,0,0,0,2.534,4.181s-5.7-1.53-5.328-11.268" transform="translate(-182.304 -21.398)" fill="#5c5c5c"/>
      <path id="Path_20167" data-name="Path 20167" d="M301,65.369c-.036.358-.068.643-.1.842a.346.346,0,0,1-.331.322H285.8a.349.349,0,0,1-.326-.294q-.1-.448-.163-.9a32.091,32.091,0,0,1,.168-10.729.345.345,0,0,1,.3-.294,125.152,125.152,0,0,1,13.827.082c.435.023.774.045.987.059a.348.348,0,0,1,.308.317,45.781,45.781,0,0,1,.1,10.593" transform="translate(-155.887 -29.627)" fill="#484848"/>
      <path id="Path_20168" data-name="Path 20168" d="M319.756,80.091H309.429V78.917h9.153a1.174,1.174,0,0,1,1.174,1.174" transform="translate(-169.286 -43.175)" fill="#1a1a1a"/>
      <path id="Path_20169" data-name="Path 20169" d="M299.614,54.4c-1.667,2.609-7.641,11.142-14.3,10.942a32.091,32.091,0,0,1,.168-10.729.345.345,0,0,1,.3-.294,125.152,125.152,0,0,1,13.827.082" transform="translate(-155.887 -29.627)" fill="#c6c6c6"/>
      <path id="Path_20170" data-name="Path 20170" d="M47.453,291.361s-2.717,14.45,3.719,26.188c0,0-5.2,10.209-2.571,28.045h3.366s5.623-26.025,5.826-29.036l-3.339-25.2Z" transform="translate(-25.65 -159.401)" fill="#645e5f"/>
      <path id="Path_20171" data-name="Path 20171" d="M57.737,317.29c-.353,2.459-1.671,8.995-2.957,15.163-.58-9.679,1.553-14.307,1.553-14.307-3.65-3.324-7.342-14.09-9.4-20.915a41.818,41.818,0,0,1,.548-5.87s5.04,19.7,10.253,25.929" transform="translate(-25.678 -159.401)" fill="#4b4b4b"/>
      <path id="Path_20172" data-name="Path 20172" d="M50.676,411.105v2.241h9.243a.753.753,0,0,0-.515-.75l-5.362-1.49Z" transform="translate(-27.724 -224.913)" fill="#011627"/>
      <path id="Path_20173" data-name="Path 20173" d="M65.977,318.345c0,.208-.014.412-.018.616a194.317,194.317,0,0,1-2.691,26.631H59.731c-4.574-18.66-.526-27.446-.526-27.446-5.484-5-11.06-26.785-11.06-26.785H63.758c.135.544.262,1.092.375,1.649.023.082.036.163.054.249,1.667,7.767,2.02,16.758,1.789,25.087" transform="translate(-26.34 -159.401)" fill="#646464"/>
      <path id="Path_20174" data-name="Path 20174" d="M73.764,411.105v2.241h9.243a.753.753,0,0,0-.515-.75l-5.362-1.49Z" transform="translate(-40.356 -224.913)" fill="#011627"/>
      <path id="Path_20175" data-name="Path 20175" d="M75.7,320.335c-4.588-3-11.5-18.4-9.4-22.134,1.531-2.713,5.009-3.229,7.554-3.2.023.082.036.163.054.249,1.667,7.767,2.02,16.758,1.789,25.087" transform="translate(-36.059 -161.392)" fill="#4b4b4b"/>
      <path id="Path_20176" data-name="Path 20176" d="M33.29,299.194s-1.357,3.091-.79,3.847a.126.126,0,0,0,.161.028,1.984,1.984,0,0,0,.761-1.187,4.094,4.094,0,0,0-.159,2.2.161.161,0,0,0,.215.064c.233-.111.664-.529.755-2.094a4.794,4.794,0,0,0,.8,1.79.155.155,0,0,0,.244-.049,4.155,4.155,0,0,0,.295-1.938s-.168-.869.445-.99a1.333,1.333,0,0,1,.448.136c.218.092.654.256.807.165.207-.123-.8-1.994-2.017-2.714Z" transform="translate(-17.705 -163.281)" fill="#f4c587"/>
      <path id="Path_20177" data-name="Path 20177" d="M123.707,223.1a9.027,9.027,0,0,1,.892-2.33,4.089,4.089,0,0,1,1.159-.391A1.2,1.2,0,0,0,126.4,220c.453-.523,1.067-1.148,1.415-1.017.466.175-1.045,2.4-1.1,2.729s-.013.974.351.745.2-1.015.5-1.128.806,1.268-.5,2l-1.576.854Z" transform="translate(-67.679 -119.792)" fill="#f4c587"/>
      <path id="Path_20178" data-name="Path 20178" d="M70.2,228.656c-.2,1.721-9.158,13.9-10.933,14.23-1.06.2-6.132-1.807-10.032-3.447a5.714,5.714,0,0,1-.458,1.766,10.693,10.693,0,0,1-.679,1.313,2.028,2.028,0,0,0-.285,1.35L50.51,256a.647.647,0,0,1-.629.788H33.821a.645.645,0,0,1-.6-.888l3.31-8.288a8.63,8.63,0,0,0,.182-4.294c-.132-.62-.276-1.332-.421-2.065-2.994,1.7-7.55,4.04-7.55,4.04l2.481,13.134S27.7,260.7,26.882,260.07a.348.348,0,0,1-.082-.082c-.494-.7-4.167-9.688-4.57-14.679v0a4.1,4.1,0,0,1,.489-2.9c.063-.072.141-.149.222-.231,1.8-1.73,7.564-4.787,11.377-6.717.8-.4,1.522-.761,2.1-1.042a4.166,4.166,0,0,1,1.458-.711,22.6,22.6,0,0,1,6.414-.571c.181.009.756.113,1.58.281,2.659.53,7.867,1.694,10.44,2.274l1.508.34a11.046,11.046,0,0,1,1.287-1.3c2.346-2.174,7.124-6.223,8.5-7.382.245-.208.38-.322.38-.322Z" transform="translate(-12.142 -124.202)" fill="#ed6a5a"/>
      <path id="Path_20179" data-name="Path 20179" d="M48.092,243.6c-.711,2.278-2.006,5.439-3.093,8.483-.349.19-.693.371-1.024.548,1.051-3,2.351-6.173,3.134-8.546.353-.177.684-.34.983-.485" transform="translate(-24.058 -133.272)" fill="#e64b39"/>
      <path id="Path_20180" data-name="Path 20180" d="M78.531,252.575a5.714,5.714,0,0,1-.458,1.766l0,0c-.5-.2-2.323-3.306-2.323-3.306Z" transform="translate(-41.44 -137.337)" fill="#e64b39"/>
      <path id="Path_20181" data-name="Path 20181" d="M35.859,264.111a1.045,1.045,0,0,1,.309.632,1.034,1.034,0,0,1-.139.689,1.093,1.093,0,0,1-.17-1.321" transform="translate(-19.537 -144.493)" fill="#e64b39"/>
      <path id="Path_20182" data-name="Path 20182" d="M31.746,266.24a2.116,2.116,0,0,1,1.021,0,2.093,2.093,0,0,1,.923.438,2.3,2.3,0,0,1-1.943-.434" transform="translate(-17.368 -145.623)" fill="#e64b39"/>
      <path id="Path_20183" data-name="Path 20183" d="M35.4,267.778a.718.718,0,0,1-.491.925.718.718,0,0,1,.491-.925" transform="translate(-19.075 -146.499)" fill="#e64b39"/>
      <path id="Path_20184" data-name="Path 20184" d="M99.361,247.337a.832.832,0,0,1-.379.491.333.333,0,1,1-.233-.388.833.833,0,0,1,.612-.1" transform="translate(-53.818 -135.306)" fill="#e64b39"/>
      <path id="Path_20185" data-name="Path 20185" d="M100.991,247.361a1.02,1.02,0,0,1,.141,1.274.97.97,0,0,1-.3-.612.98.98,0,0,1,.154-.662" transform="translate(-55.164 -135.329)" fill="#e64b39"/>
      <path id="Path_20186" data-name="Path 20186" d="M101.5,246.113a.75.75,0,0,1,.356-.465.317.317,0,1,1,.226.393.751.751,0,0,1-.581.072" transform="translate(-55.527 -134.337)" fill="#e64b39"/>
      <path id="Path_20187" data-name="Path 20187" d="M84.248,247.952c-.979.53-8.189-2.717-9.914-4.253a1.84,1.84,0,0,1-.327-2.568c2.659.53,7.867,1.694,10.44,2.274.439,2.029.448,4.2-.2,4.547" transform="translate(-40.282 -131.921)" fill="#ed7f72"/>
      <path id="Path_20188" data-name="Path 20188" d="M35.222,245.641c.032,3.7-5.562,7.446-7.5,8.148a3.566,3.566,0,0,1-3.882-1.431c1.8-1.73,7.564-4.787,11.377-6.717" transform="translate(-13.045 -134.388)" fill="#ed7f72"/>
      <path id="Path_20189" data-name="Path 20189" d="M64.641,215.314a4.56,4.56,0,0,0-4.408-2.54,2.511,2.511,0,0,1-.189.535c-.56,1.151-1.184,2.28-1.687,3.457a16.42,16.42,0,0,1-1.522,3.177,7.694,7.694,0,0,0,2.609,2.121v5.06h3.55V222.9a3.016,3.016,0,0,0,1-.272c2.262-1.109,1.753-5.049.644-7.31" transform="translate(-31.094 -116.401)" fill="#f4c587"/>
      <path id="Path_20190" data-name="Path 20190" d="M55,240.961s-5.575,3.456-7.69-.426c0,0-4,1.843-4.96-.861a4.242,4.242,0,0,1-.208-1.531c.113-4.823,5.715-15.766,5.476-18.433-.1-1.137-.25-2.4-.3-3.573-.077-1.59.018-3.034.63-3.823,1.065-1.372,3.791-6.653,6.4-7.387,2.582-.729,5.381,2.573,2.07,5.471a.268.268,0,0,1-.1.059.283.283,0,0,1-.1.032,2.1,2.1,0,0,0-1.8,2.319,2.06,2.06,0,0,1-.344,1.572s-.412.684-1.78-1.2a.215.215,0,0,0-.213-.1c-.3.041-.987.217-.933.906a.925.925,0,0,0,.507.657,6.247,6.247,0,0,1,2.885,3.854,7.37,7.37,0,0,1,.195,1.449,8.5,8.5,0,0,0,.236,1.495c.688,3.089,2.69,8.9,3.46,11.934C59.44,237.4,59.3,241.4,55,240.961" transform="translate(-23.056 -112.058)" fill="#011627"/>
      <path id="Path_20191" data-name="Path 20191" d="M52.1,236.034c-.294,6.069-2.355,14.883-5.612,16.576a5.486,5.486,0,0,1-4.14.317,4.251,4.251,0,0,1-.208-1.531c.113-4.823,5.716-15.766,5.476-18.433-.1-1.137-.249-2.4-.3-3.573a4.1,4.1,0,0,1,1.64-.34,3.061,3.061,0,0,1,2.518,1.5c.557.829.752,2.908.63,5.485" transform="translate(-23.055 -125.311)" fill="#011d33"/>
      <path id="Path_20192" data-name="Path 20192" d="M178.329,218.992l-1.027-8.17,1.061-.5,1.617-.752,58.855-7.4,1.25,9.942-58.854,7.4Z" transform="translate(-97.001 -110.609)" fill="#ff8b86"/>
      <path id="Path_20193" data-name="Path 20193" d="M179.644,210.328l1.617-.752,58.855-7.4,1.25,9.942-58.3,7.328a.611.611,0,0,1,.534-.691c11.728-1.665,48.493-5.288,47.36-10.382-1.262-5.674-43.43,2.976-51.311,1.953" transform="translate(-98.282 -110.61)" fill="#ff6e69"/>
      <path id="Path_20194" data-name="Path 20194" d="M316.878,210.447l-1.25-9.942,8.93-1.122a.557.557,0,0,1,.356.072.573.573,0,0,1,.292.431l1.105,8.794a.577.577,0,0,1-.5.644Z" transform="translate(-172.678 -109.079)" fill="#ff6e69"/>
      <path id="Path_20195" data-name="Path 20195" d="M327.44,204.974c-.255-2.736,1.8-4.421,3.924-5.426a.573.573,0,0,1,.292.431l1.106,8.794a.578.578,0,0,1-.5.645l-.122.015c-1.952-.247-4.391-1.216-4.7-4.459" transform="translate(-179.128 -109.171)" fill="#ff8b87"/>
      <path id="Path_20196" data-name="Path 20196" d="M152.55,224.871l3.833-1.754.543-.249,9.512-4.357-2.478,2.834,3.1,2.136-2.478,2.838,3.1,2.133-8.822-1.595-2.063-.375-4.137-.749Z" transform="translate(-83.459 -119.546)" fill="#f4a4a1"/>
      <path id="Path_20197" data-name="Path 20197" d="M160.979,223.617l-.109-.5.543-.249,9.512-4.357-2.478,2.835,6.417,1.72-5.792,3.255,3.1,2.133-8.822-1.595-2.063-.375a2.729,2.729,0,0,1-.538-.446s6.521,2.547,6.946-.784-1.006-5.188-6.718-1.636" transform="translate(-87.946 -119.546)" fill="#f4a4a1"/>
      <path id="Path_20198" data-name="Path 20198" d="M152.55,230.133l4.376-2,1.94,3.991-6.2-1.124Z" transform="translate(-83.459 -124.809)" fill="#1c1c1c"/>
      <path id="Path_20199" data-name="Path 20199" d="M308.764,200.705l1.6.319a.342.342,0,0,0,.215-.027l1.474-.706a.342.342,0,0,1,.488.266l1.328,10.569a.342.342,0,0,1-.407.379l-1.6-.32a.345.345,0,0,0-.215.027l-1.474.706a.342.342,0,0,1-.488-.266l-1.328-10.568a.342.342,0,0,1,.407-.379" transform="translate(-168.699 -109.56)" fill="#5f5f5f"/>
      <path id="Path_20200" data-name="Path 20200" d="M315.133,211.354l-1.092-8.689a.148.148,0,0,1,.069-.145l.925-.569a.149.149,0,0,1,.226.111l1.056,9.519a.149.149,0,0,1-.19.159l-.888-.261a.149.149,0,0,1-.106-.124" transform="translate(-171.809 -110.474)" fill="#cecece"/>
      <path id="Path_20201" data-name="Path 20201" d="M311.945,211.9l-1.092-8.689a.148.148,0,0,0-.1-.123l-1.037-.322a.148.148,0,0,0-.191.163l1.333,9.484a.149.149,0,0,0,.223.107l.8-.473a.149.149,0,0,0,.072-.146" transform="translate(-169.336 -110.925)" fill="#cecece"/>
      <path id="Path_20202" data-name="Path 20202" d="M229.556,232.915c.008-.518-.036-1.531-.515-1.515-.642.022-.38,1.359-.38,1.359l-.005.092-.941.121h0l-2.236.284a2.336,2.336,0,0,0,1.078.152h0l.232.712,2.76-.113,0-1.082s0-.005,0-.009" transform="translate(-123.358 -126.597)" fill="#f4c587"/>
      <path id="Path_20203" data-name="Path 20203" d="M286.988,225.624c-.1-.508-.236-1.513.237-1.582.635-.093.615,1.27.615,1.27l.022.09.947-.048h0l2.251-.145a2.332,2.332,0,0,1-1.033.368l-.1.741-2.737.38-.2-1.064a.041.041,0,0,1,0-.008" transform="translate(-156.955 -122.569)" fill="#f4c587"/>
      <path id="Path_20204" data-name="Path 20204" d="M259.168,302.961a1.421,1.421,0,0,0-.072.127c-.666,1.087-5.575,9.113-10.947,16.182a58.941,58.941,0,0,1-8.03,8.99c2.4,3.954,5.983,11.581,7.659,23.678h-3.646c-.063-.1-.154-.249-.272-.457-1.847-3.293-10.308-20.091-12.337-24.122-.027-.05-.05-.1-.073-.159a1.885,1.885,0,0,1,.1-1.576c1.821-3.415,8.682-16.015,13.238-21.3l6.381-.6Z" transform="translate(-126.554 -165.748)" fill="#645e5f"/>
      <path id="Path_20205" data-name="Path 20205" d="M266.078,320.189c-.634.833-1.273,1.653-1.911,2.446-.254-5.929.036-14.307,2.79-17.795l2.138-.2c-2.523,2.926-3.084,9.824-3.016,15.548" transform="translate(-144.484 -166.667)" fill="#4b4b4b"/>
      <path id="Path_20206" data-name="Path 20206" d="M245.03,379.829c-.068.362-.444.625-1.015.8-1.847-3.293-10.308-20.091-12.337-24.122a1.686,1.686,0,0,1-.072-.159,6.083,6.083,0,0,1,5.5,1.531c2.717,2.717,8.266,20.127,7.926,21.952" transform="translate(-126.71 -194.893)" fill="#4b4b4b"/>
      <path id="Path_20207" data-name="Path 20207" d="M256.492,411.105v2.241h-9.243a.753.753,0,0,1,.515-.75l5.362-1.49Z" transform="translate(-135.268 -224.913)" fill="#011627"/>
      <path id="Path_20208" data-name="Path 20208" d="M296.3,411.105v2.241h-9.243a.753.753,0,0,1,.514-.75l5.362-1.49Z" transform="translate(-157.046 -224.913)" fill="#011627"/>
      <path id="Path_20209" data-name="Path 20209" d="M285.806,352.026H282.16c-.136-.208-.43-.7-.851-1.409-2.717-4.633-10.575-18.533-12.152-22.387a2.748,2.748,0,0,1-.1-.439,65.205,65.205,0,0,1-.589-8.433c-.068-5.725.494-12.623,3.016-15.548l7.93-.634.652-.054s3.053,9.923-1.92,25.227c2.4,3.954,5.983,11.581,7.659,23.678" transform="translate(-146.874 -165.835)" fill="#646464"/>
      <path id="Path_20210" data-name="Path 20210" d="M282.027,378.733c-2.717-4.633-10.576-18.533-12.152-22.387a2.763,2.763,0,0,1-.1-.439c1.083-1.259,2.844-2.278,5.218-.217,3.782,3.288,9.493,19.009,7.034,23.044" transform="translate(-147.592 -193.951)" fill="#4b4b4b"/>
      <path id="Path_20211" data-name="Path 20211" d="M241.218,247.885s-.743,3.478-1.218,5.625c-.209.96-.367,1.658-.381,1.658-.023-.077-12.251-.258-14.262-.557a.349.349,0,0,1-.3-.331c-.213-5.444-.023-13.388,1.141-16.939a.091.091,0,0,1,.082-.072l3.071-.109a.084.084,0,0,1,.091.086c-.023,2.939-.181,12.459.186,12.781h0a66.326,66.326,0,0,1,11.59-2.142" transform="translate(-123.084 -129.749)" fill="#ed5442"/>
      <path id="Path_20212" data-name="Path 20212" d="M244.555,260.841s-.743,3.478-1.218,5.625c-5.118.58-12.26-.222-12.26-1.01,0-.648.96-1.653,1.884-2.473h0a66.327,66.327,0,0,1,11.59-2.142" transform="translate(-126.42 -142.704)" fill="#ed6a5a"/>
      <path id="Path_20213" data-name="Path 20213" d="M273.114,277.843l-15.091,1.137a.294.294,0,0,1-.318-.245c-.2-1.119-.982-5.6-1.467-9.9-.408-3.632-.6-7.124-.041-8.329a6.048,6.048,0,0,1,3.179-2.65c.159-.077.326-.145.49-.208a16.34,16.34,0,0,1,3.392-.915v0l.208-.027.3-.041a6.818,6.818,0,0,1,.819-.054c.29,0,1.232.086,2.116.172.435.041.856.086,1.177.118a.709.709,0,0,1,.635.625l1.177,10.073.032.254a5.708,5.708,0,0,0,.34,1.368l1.7,4.221,1.607,3.99a.3.3,0,0,1-.258.412" transform="translate(-139.974 -140.39)" fill="#ede4e4"/>
      <path id="Path_20214" data-name="Path 20214" d="M273.581,292.615l-15.091,1.137a.294.294,0,0,1-.317-.245c-.2-1.119-.982-5.6-1.467-9.9,2.1,2.609,7.944,8.474,15.526,4.6l1.607,3.99a.3.3,0,0,1-.258.412" transform="translate(-140.442 -155.161)" fill="#e6d6d6"/>
      <path id="Path_20215" data-name="Path 20215" d="M280.812,267.806c-6.182-.992-4.389-9.987-4.389-9.987l1.4-.829c.435.041.856.086,1.178.118a.708.708,0,0,1,.634.625Z" transform="translate(-151.097 -140.598)" fill="#e6d6d6"/>
      <path id="Path_20216" data-name="Path 20216" d="M292.5,241.494a.5.5,0,0,1-.036.136.812.812,0,0,1-.426.476c-.136.063-.294.136-.466.222a.016.016,0,0,1-.009,0c-2.187,1.024-7.07,3.338-9.842,4.651-.285.136-.548.258-.784.371a2.881,2.881,0,0,1-3.238-.471,5.059,5.059,0,0,1-1.1-4.42,1.448,1.448,0,0,1,1.087-1.191,40.662,40.662,0,0,1,9.706-.951s-5.195-8.37-6.024-11.078l1.042-.109,2.1-.213s6.255,6.717,7.967,12.188a.8.8,0,0,1,.023.385" transform="translate(-151.274 -125.241)" fill="#ed6a5a"/>
      <path id="Path_20217" data-name="Path 20217" d="M292.5,241.751a.5.5,0,0,1-.036.136.812.812,0,0,1-.426.476c-.136.063-.294.136-.466.222a.016.016,0,0,1-.009,0c-2.187,1.024-7.07,3.338-9.842,4.651-.285.136-.548.258-.784.371a2.881,2.881,0,0,1-3.238-.471,5.059,5.059,0,0,1-1.1-4.42,1.448,1.448,0,0,1,1.087-1.191,40.662,40.662,0,0,1,9.706-.951s-5.195-8.37-6.024-11.078l1.042-.109c.765,2.024,5.439,13.121,10.086,12.36" transform="translate(-151.274 -125.498)" fill="#ed5442"/>
      <path id="Path_20218" data-name="Path 20218" d="M258.914,230.44a4.561,4.561,0,0,0-5.071,3.986c-.3,2.5.523,6.387,3.024,6.687a3.007,3.007,0,0,0,1.038-.072l.809,2.312a1.779,1.779,0,0,0,3.351-1.173l-1.085-3.1a6.886,6.886,0,0,0,1.92-3.57,4.561,4.561,0,0,0-3.986-5.071" transform="translate(-138.844 -126.054)" fill="#f4c587"/>
      <path id="Path_20219" data-name="Path 20219" d="M268.024,256.731a1.89,1.89,0,0,1-.091.575,2.361,2.361,0,0,1-1.11,1.3,1.649,1.649,0,0,1-.562.208,2.467,2.467,0,0,1-.471.045,2.957,2.957,0,0,1-1.608-.5,4.332,4.332,0,0,1-.548-.426c.159-.077.326-.145.489-.208a2.92,2.92,0,0,0,.8.507,1.933,1.933,0,0,0,2.419-.793,1.505,1.505,0,0,0,.177-.63v0l.208-.027.3-.041" transform="translate(-144.233 -140.456)" fill="#ed6a5a"/>
      <path id="Path_20220" data-name="Path 20220" d="M262.882,252.3a2.613,2.613,0,0,0,1.655-1.313,2.479,2.479,0,0,1-1.2,2.548Z" transform="translate(-143.821 -137.313)" fill="#f2b35e"/>
      <path id="Path_20221" data-name="Path 20221" d="M261.546,230.728c-.2,1.712-.833,1.8-.467,2.844.263.738-.933,2.772-1.658,3.9-.3.466-.516.779-.516.779a6.352,6.352,0,0,1-2.486-2.038c-.294-.448-.457-1.3,0-1.581.489-.3,1.064-.761,1.1-1.25.041-.652-.933-.725-1.4-.72a.18.18,0,0,1-.177-.231c.131-.5.385-1.635,0-1.952a3.872,3.872,0,0,0-3.406-.154c-1.526.544-2.727,1.037-3.247.041-.833-1.6.4-1.644,1.64-2.02,0,0-.136-1.159.439-1.662s4.86-1.694,8.035,1.907c.036.036.063.068.1.1,0,0,2.251.326,2.052,2.034" transform="translate(-136.234 -123.692)" fill="#011627"/>
      <path id="Path_20222" data-name="Path 20222" d="M272.995,233.749c-.2,1.712-.833,1.8-.466,2.844.263.738-.933,2.772-1.658,3.9-1.916-1.046-.281-5.3-.281-5.3-1-1.214-.263-2.772.258-3.583.036.036.063.068.1.1,0,0,2.251.326,2.052,2.034" transform="translate(-147.682 -126.713)" fill="#011d33"/>
    </g>
  </g>
</svg>
