<svg xmlns="http://www.w3.org/2000/svg" width="100%" height="100%" viewBox="0 0 23 17.086">
  <g id="menu" transform="translate(-57 -58.914)">
    <path id="Path_47569" data-name="Path 47569" d="M32.425,41.086H10.575A.622.622,0,0,1,10,40.429V39.114a.622.622,0,0,1,.575-.657h21.85a.622.622,0,0,1,.575.657v1.314A.622.622,0,0,1,32.425,41.086Zm0-7.229H10.575A.622.622,0,0,1,10,33.2V31.886a.622.622,0,0,1,.575-.657h21.85a.622.622,0,0,1,.575.657V33.2A.622.622,0,0,1,32.425,33.857Zm0-7.229H10.575A.622.622,0,0,1,10,25.971V24.657A.622.622,0,0,1,10.575,24h21.85a.622.622,0,0,1,.575.657v1.314A.622.622,0,0,1,32.425,26.629Z" transform="translate(47 34.914)" fill-rule="evenodd"/>
  </g>
</svg>
