<svg xmlns="http://www.w3.org/2000/svg" xmlns:xlink="http://www.w3.org/1999/xlink" width="61.515" height="47.556" viewBox="0 0 61.515 47.556"><defs><clipPath id="a"><path d="M96.063,665.578l-2.992,9.547H81.458l16.6-47.519H111.38l15.1,47.519H114.372l-2.565-9.547Zm8.407-27.357L98.7,656.815h10.758Z" transform="translate(-81.458 -627.606)" fill="none"/></clipPath><linearGradient id="b" x1="0.094" y1="1.441" x2="0.094" y2="1.441" gradientUnits="objectBoundingBox"><stop offset="0" stop-color="#7c8efa"/><stop offset="0.19" stop-color="#8386f2"/><stop offset="0.483" stop-color="#9973dd"/><stop offset="0.842" stop-color="#bd53bc"/><stop offset="1" stop-color="#cf44ab"/></linearGradient><clipPath id="c"><rect width="11.431" height="47.519" fill="none"/></clipPath><linearGradient id="d" x1="-0.752" y1="2.306" x2="-0.751" y2="2.306" gradientUnits="objectBoundingBox"><stop offset="0" stop-color="#7c8efa"/><stop offset="0.224" stop-color="#7f8af6"/><stop offset="0.442" stop-color="#8b80eb"/><stop offset="0.657" stop-color="#9f6ed8"/><stop offset="0.869" stop-color="#ba56be"/><stop offset="1" stop-color="#cf44ab"/></linearGradient><clipPath id="e"><path d="M104.469,638.221l4.987,18.594H98.7Zm-6.412-10.615-16.6,47.519H93.071l2.992-9.547h15.745l2.565,9.547h12.111l-15.1-47.519Z" transform="translate(-81.458 -627.606)" fill="none"/></clipPath><clipPath id="f"><rect width="3.269" height="16.699" fill="none"/></clipPath><clipPath id="g"><rect width="3.324" height="29.463" fill="none"/></clipPath><clipPath id="h"><rect width="1.785" height="1.785" fill="none"/></clipPath><clipPath id="i"><rect width="2.443" height="12.856" fill="none"/></clipPath><clipPath id="j"><rect width="1.785" height="10.967" fill="none"/></clipPath><clipPath id="k"><rect width="3.589" height="0.214" fill="none"/></clipPath><clipPath id="l"><rect width="1.38" height="1.353" fill="none"/></clipPath><clipPath id="n"><rect width="1.89" height="1.853" fill="none"/></clipPath><clipPath id="p"><rect width="1.031" height="4.57" fill="none"/></clipPath><clipPath id="q"><rect width="1.165" height="5.165" fill="none"/></clipPath><clipPath id="r"><rect width="4.57" height="1.031" fill="none"/></clipPath><clipPath id="s"><rect width="0.441" height="0.441" fill="none"/></clipPath><clipPath id="w"><rect width="0.306" height="4.153" fill="none"/></clipPath><clipPath id="x"><rect width="0.306" height="0.306" fill="none"/></clipPath><clipPath id="ae"><rect width="0.306" height="0.307" fill="none"/></clipPath><radialGradient id="av" cx="0.5" cy="0.5" r="0.686" gradientUnits="objectBoundingBox"><stop offset="0" stop-color="#fff"/><stop offset="1" stop-color="#d044ab" stop-opacity="0"/></radialGradient><clipPath id="aw"><path d="M967.775,1474.057l.177.461H967.6Zm-.1-.255-.459,1.182h.2l.108-.28h.5l.108.28h.2l-.459-1.182Z" transform="translate(-967.213 -1473.802)" fill="none"/></clipPath><linearGradient id="ax" x1="-25.976" y1="35.987" x2="-25.949" y2="35.987" gradientUnits="objectBoundingBox"><stop offset="0" stop-color="#7c8efa"/><stop offset="0.759" stop-color="#8544ab"/><stop offset="0.762" stop-color="#8742ad"/><stop offset="0.809" stop-color="#ab2aca"/><stop offset="0.856" stop-color="#c617e1"/><stop offset="0.903" stop-color="#da0af1"/><stop offset="0.951" stop-color="#e602fb"/><stop offset="1" stop-color="#ea00ff"/></linearGradient><clipPath id="ay"><rect width="0.203" height="1.182" fill="none"/></clipPath><linearGradient id="az" x1="-72.968" y1="43.467" x2="-72.895" y2="43.467" xlink:href="#ax"/><clipPath id="be"><path d="M1439.137,821.6a5.337,5.337,0,0,0-3.742,5.636,10.369,10.369,0,0,1,.2,2.054c-.007.556-1.651,2.572-1.126,2.826l.014.007c.5.2,1.208.19,1.435.467a.292.292,0,0,1,.05.184c.006.266-.222.748-.221,1.055a.231.231,0,0,0,.051.148c.184.235.9.134,1.01.122h.018s-.508.185-.654.269a.411.411,0,0,0-.1.281.478.478,0,0,0,.092.241c.136.2.292.383.289.555,0,.011,0,.023,0,.037,0,.029,0,.063-.009.1-.04.445-.174,1.5.36,1.827.6.367,5.182-.676,5.591-1.336a19.25,19.25,0,0,0,1.5-3.06,1.092,1.092,0,0,0-.46-1.347,4.246,4.246,0,0,1-2.1-3.7,4.3,4.3,0,0,1,3.349-4.1V821.4a12.541,12.541,0,0,0-2.668-.311,7.615,7.615,0,0,0-2.87.513" transform="translate(-1434.36 -821.086)" fill="none"/></clipPath><linearGradient id="bf" x1="-2.982" y1="6.563" x2="-2.979" y2="6.563" gradientUnits="objectBoundingBox"><stop offset="0" stop-color="#fff"/><stop offset="0.284" stop-color="#efedff"/><stop offset="0.847" stop-color="#c7bfff"/><stop offset="0.991" stop-color="#bcb3ff"/><stop offset="1" stop-color="#bcb3ff"/></linearGradient><clipPath id="bg"><path d="M1643.015,921.384a3.383,3.383,0,0,0,2.418,3.283v-6.485a3.383,3.383,0,0,0-2.418,3.2" transform="translate(-1643.014 -918.182)" fill="none"/></clipPath><linearGradient id="bh" x1="-8.65" y1="15.535" x2="-8.645" y2="15.535" xlink:href="#bf"/><clipPath id="bi"><path d="M1623.77,898.022a4.158,4.158,0,0,0,1.941,7.019v-.078a4.088,4.088,0,0,1-3.118-4.015h0a4.087,4.087,0,0,1,3.118-3.92v-.078a4.133,4.133,0,0,0-1.941,1.071" transform="translate(-1622.517 -896.951)" fill="none"/></clipPath><linearGradient id="bj" x1="-6.735" y1="12.216" x2="-6.731" y2="12.216" xlink:href="#bf"/><clipPath id="bl"><rect width="0.775" height="0.857" fill="none"/></clipPath><clipPath id="bm"><rect width="1.674" height="0.735" fill="none"/></clipPath><clipPath id="bn"><rect width="2.412" height="2.885" fill="none"/></clipPath><clipPath id="bo"><rect width="2.129" height="2.004" fill="none"/></clipPath><clipPath id="bp"><rect width="1.628" height="0.187" fill="none"/></clipPath><clipPath id="bq"><path d="M1611.182,1451.02s-.742,3.788,3.576,1.745v-10.518c-3.046,3.473-3.576,8.773-3.576,8.773" transform="translate(-1611.133 -1442.247)" fill="none"/></clipPath><linearGradient id="br" x1="-7.84" y1="4.025" x2="-7.835" y2="4.025" xlink:href="#bf"/></defs><g transform="translate(-81.458 -627.567)"><g transform="translate(81.458 627.605)"><g transform="translate(0 0)"><g clip-path="url(#a)"><rect width="62.998" height="63.865" transform="translate(-20.889 12.439) rotate(-30.772)" fill="url(#b)"/></g></g><g transform="translate(50.084)"><g clip-path="url(#c)"><rect width="11.431" height="47.519" transform="translate(0 0)" fill="url(#d)"/><rect width="11.431" height="47.519" transform="translate(0 -0.531)" fill="none"/></g></g><g transform="translate(0 0)"><g clip-path="url(#e)"><g transform="translate(15.972 31.905)" opacity="0.5" style="mix-blend-mode:soft-light;isolation:isolate"><g clip-path="url(#f)"><path d="M503.709,1487.342H503.5v-12.1l3.056-3.056v-1.544h.214v1.632l-3.056,3.056Z" transform="translate(-503.496 -1470.642)"/></g></g><g transform="translate(30.401 -0.804)" opacity="0.5" style="mix-blend-mode:soft-light;isolation:isolate"><g transform="translate(0)"><g clip-path="url(#g)"><rect width="0.214" height="0.56" transform="translate(3.11 27.782)"/><rect width="0.214" height="0.56" transform="translate(3.11 28.902)"/><rect width="0.214" height="0.56" transform="translate(3.11 24.421)"/><rect width="0.214" height="0.56" transform="translate(3.11 25.541)"/><rect width="0.214" height="0.56" transform="translate(3.11 26.662)"/><path d="M963.231,1222.95h-.214v-.225l-.155-.151.143-.171.225.22Z" transform="translate(-959.907 -1199.089)"/><path d="M902.971,1164.163l-.39-.38.143-.171.39.38Zm-.78-.761-.39-.38.143-.171.39.38Zm-.78-.761-.39-.38.143-.171.39.38Z" transform="translate(-900.406 -1141.058)"/><path d="M884.991,1142.645l-.225-.22v-.327h.214v.225l.155.151Z" transform="translate(-884.766 -1121.823)"/><rect width="0.214" height="0.56" transform="translate(0 18.035)"/><rect width="0.214" height="0.56" transform="translate(0 19.155)"/><rect width="0.214" height="0.56" transform="translate(0 16.915)"/><rect width="0.214" height="0.56" transform="translate(0 13.555)"/><rect width="0.214" height="0.56" transform="translate(0 15.795)"/><rect width="0.214" height="0.56" transform="translate(0 14.675)"/><rect width="0.214" height="0.56" transform="translate(0 11.121)"/><rect width="0.214" height="0.56" transform="translate(0 12.241)"/><rect width="0.214" height="0.56" transform="translate(0 10.001)"/><rect width="0.214" height="0.56" transform="translate(0 6.641)"/><rect width="0.214" height="0.56" transform="translate(0 8.881)"/><rect width="0.214" height="0.56" transform="translate(0 7.761)"/><rect width="0.214" height="0.56" transform="translate(0 4.48)"/><rect width="0.214" height="0.56" transform="translate(0 5.6)"/><rect width="0.214" height="0.56" transform="translate(0 3.36)"/><rect width="0.214" height="0.56" transform="translate(0 2.24)"/><rect width="0.214" height="0.56" transform="translate(0 1.12)"/></g></g></g><path d="M694.753,1728.244h-.214c.014-2.556.014-5.159,0-7.737h.214c.014,2.579.014,5.183,0,7.74" transform="translate(-671.337 -1679.143)" fill="#fff"/><path d="M33.953,1490.4v.322c-2.627-.005-5.815-.005-8.391-.005-.775.736-1.537,1.511-2.273,2.261-.376.383-.766.78-1.152,1.167l-.047.047H0v-.322H21.956c.37-.371.742-.75,1.1-1.117.753-.767,1.532-1.561,2.328-2.314l.047-.044H25.5c2.587,0,5.806,0,8.455.005" transform="translate(-3.083 -1457.738)" fill="#fff"/><path d="M839.832,52.918H839.6V46.06l-2.167-2.383V19.184l-4.767-3.857V0h.641V15.038l4.363,3.857v24.71l2.167,2.383Z" transform="translate(-804.233 -23.751)" fill="#fff"/><g transform="translate(18.431 29.729)" opacity="0.5" style="mix-blend-mode:soft-light;isolation:isolate"><g clip-path="url(#h)"><path d="M569.356,1414.947a.892.892,0,1,1,.892-.892.893.893,0,0,1-.892.892m0-1.571a.679.679,0,1,0,.679.679.679.679,0,0,0-.679-.679" transform="translate(-568.464 -1413.162)"/></g></g><rect width="0.214" height="16.389" transform="translate(11.062 40.16)" fill="#fff"/><path d="M351.878,1648.727a.892.892,0,1,1,.892-.892.893.893,0,0,1-.892.892m0-1.571a.679.679,0,1,0,.679.679.679.679,0,0,0-.679-.679" transform="translate(-340.786 -1608.365)" fill="#fff"/><path d="M1022.626,907.615a.892.892,0,1,1,.892-.892.893.893,0,0,1-.892.892m0-1.571a.679.679,0,1,0,.679.679.679.679,0,0,0-.679-.679" transform="translate(-986.149 -895.301)" fill="#fff"/><path d="M467.5,1467.227c-6.688,0-10.219,0-16.922,0v-.214c6.7,0,10.234,0,16.922,0Z" transform="translate(-436.605 -1435.246)" fill="#fff"/><path d="M407.282,1446.805a.892.892,0,1,1-.892-.892.893.893,0,0,1,.892.892m-1.571,0a.679.679,0,1,0,.679-.679.679.679,0,0,0-.679.679" transform="translate(-393.234 -1414.944)" fill="#fff"/><path d="M1016.634,1581.21c0,6.688,0,10.77,0,17.473h-.214c0-6.7,0-10.785,0-17.473Z" transform="translate(-981.036 -1545.121)" fill="#fff"/><rect width="0.214" height="9.248" transform="translate(36.37 12.248)" fill="#fff"/><g transform="translate(26.082 -1.072)" opacity="0.6"><g transform="translate(0)"><g clip-path="url(#i)"><path d="M799.157,609.277c0-1.882,0-8.1,0-10h.246c0,1.894,0,8.113,0,9.995Z" transform="translate(-798.077 -599.282)" fill="#fff"/><path d="M771.848,876.89a1.221,1.221,0,1,1,1.222-1.22,1.223,1.223,0,0,1-1.222,1.22m0-1.735a.514.514,0,1,0,.513.514.514.514,0,0,0-.513-.514" transform="translate(-770.628 -864.033)" fill="#fff"/></g></g></g><g transform="translate(20.552 -2.585)" opacity="0.6"><g clip-path="url(#j)"><path d="M625.415,801.922a.892.892,0,1,1-.892.892.893.893,0,0,1,.892-.892m0,1.571a.679.679,0,1,0-.679-.679.679.679,0,0,0,.679.679" transform="translate(-624.523 -792.74)" fill="#fff"/><rect width="0.214" height="9.248" transform="translate(0.839 0)" fill="#fff"/></g></g><path d="M1022.626,832.422a.892.892,0,1,1,.892-.892.893.893,0,0,1-.892.892m0-1.571a.679.679,0,1,0,.679.679.679.679,0,0,0-.679-.679" transform="translate(-986.149 -822.954)" fill="#fff"/><path d="M1042.7,570.729h-.214v-.037h.214Zm0-.55h-.214v-.513h.214Zm0-1.025h-.214v-.513h.214Zm0-1.025h-.214v-.513h.214Zm0-1.026h-.214v-.513h.214Zm0-1.025h-.214v-.513h.214Zm0-1.025h-.214v-.513h.214Zm0-1.025h-.214v-.513h.214Zm0-1.026h-.214v-.513h.214Zm0-1.025h-.214v-.513h.214Zm0-1.026h-.214v-.513h.214Z" transform="translate(-1006.118 -562.979)" fill="#6a59b0"/><path d="M583.876,629.024h-.214v-.037h.214Zm0-.55h-.214v-.513h.214Zm0-1.025h-.214v-.513h.214Zm0-1.026h-.214v-.513h.214Zm0-1.025h-.214v-.513h.214Zm0-1.026h-.214v-.513h.214Zm0-1.025h-.214v-.513h.214Zm0-1.025h-.214v-.513h.214Zm0-1.025h-.214v-.513h.214Zm0-1.026h-.214v-.513h.214Zm0-1.025h-.214v-.513h.214Z" transform="translate(-564.656 -619.068)" fill="#6a59b0"/><path d="M583.876,872.849h-.214v-.037h.214Zm0-.55h-.214v-.513h.214Zm0-1.025h-.214v-.513h.214Zm0-1.025h-.214v-.513h.214Zm0-1.025h-.214v-.513h.214Zm0-1.025h-.214v-.513h.214Zm0-1.026h-.214v-.513h.214Zm0-1.026h-.214v-.513h.214Zm0-1.025h-.214v-.513h.214Zm0-1.025h-.214v-.513h.214Zm0-1.025h-.214v-.513h.214Z" transform="translate(-564.656 -853.665)" fill="#6a59b0"/><rect width="0.214" height="0.513" transform="translate(19.006 21.149)" fill="#6a59b0"/><rect width="0.214" height="0.513" transform="translate(19.006 20.123)" fill="#6a59b0"/><rect width="0.214" height="0.513" transform="translate(19.006 19.098)" fill="#6a59b0"/><rect width="0.214" height="0.513" transform="translate(19.006 23.2)" fill="#6a59b0"/><rect width="0.214" height="0.513" transform="translate(19.006 22.174)" fill="#6a59b0"/><rect width="0.214" height="0.513" transform="translate(19.006 24.225)" fill="#6a59b0"/><path d="M259.845,1400.033h-.279V1400h.279Zm0-.554h-.279v-.516h.279Zm0-1.032h-.279v-.516h.279Zm0-1.032h-.279v-.516h.279Zm0-1.032h-.279v-.516h.279Zm0-1.032h-.279v-.516h.279Zm0-1.032h-.279v-.516h.279Zm0-1.032h-.279v-.516h.279Zm0-1.032h-.279v-.516h.279Zm0-1.032h-.279v-.516h.279Zm0-1.032h-.279v-.516h.279Z" transform="translate(-252.826 -1360.834)" fill="#6a59b0"/><path d="M259.845,1645.459h-.279v-.038h.279Zm0-.554h-.279v-.516h.279Zm0-1.032h-.279v-.516h.279Zm0-1.032h-.279v-.516h.279Zm0-1.032h-.279v-.516h.279Zm0-1.032h-.279v-.516h.279Zm0-1.032h-.279v-.516h.279Zm0-1.032h-.279v-.516h.279Zm0-1.032h-.279v-.516h.279Zm0-1.032h-.279v-.516h.279Zm0-1.032h-.279v-.516h.279Z" transform="translate(-252.826 -1596.971)" fill="#6a59b0"/><path d="M703.983,1550.365a.785.785,0,1,1-.786-.785.785.785,0,0,1,.786.785" transform="translate(-678.912 -1514.688)" fill="#fff"/><path d="M680,1528.864a1.7,1.7,0,1,1,1.7-1.7,1.7,1.7,0,0,1-1.7,1.7m0-3.182a1.484,1.484,0,1,0,1.484,1.484,1.486,1.486,0,0,0-1.484-1.484" transform="translate(-655.713 -1491.488)" fill="#fff"/><path d="M809.833,565.232c0-2.47,0-5.291,0-5.291v-.04l2.863-3.247c0-.784,0-9.455-.012-15.382h.214c.012,6.1.012,15.3.012,15.423v.04l-2.863,3.247c0,.476,0,2.911,0,5.251Z" transform="translate(-782.267 -544.538)" fill="#d9d2ff"/><path d="M790.354,1173.9a.892.892,0,1,1,.892-.892.893.893,0,0,1-.892.892m0-1.571a.679.679,0,1,0,.679.679.679.679,0,0,0-.679-.679" transform="translate(-762.668 -1151.507)" fill="#d9d2ff"/><path d="M802.208,1184.417a.443.443,0,1,1-.443-.443.443.443,0,0,1,.443.443" transform="translate(-774.078 -1162.917)" fill="#d9d2ff"/><path d="M1036.173,919.879a.382.382,0,1,1-.382-.382.382.382,0,0,1,.382.382" transform="translate(-999.306 -908.45)" fill="#fff"/><path d="M892.064,1240.96a.892.892,0,1,1,.892-.892.893.893,0,0,1-.892.892m0-1.571a.679.679,0,1,0,.679.679.679.679,0,0,0-.679-.679" transform="translate(-860.528 -1216.031)" fill="#fff"/><path d="M904.928,1252.53a.4.4,0,1,1-.4-.4.4.4,0,0,1,.4.4" transform="translate(-872.99 -1228.493)" fill="#fff"/><path d="M903.189,1402.8H896.1V1395.7h7.093Zm-6.872-.221h6.651v-6.651h-6.651Z" transform="translate(-865.266 -1366.636)" fill="#fff"/><path d="M903.189,1402.8H896.1V1395.7h7.093Zm-6.872-.221h6.651v-6.651h-6.651Z" transform="translate(-865.266 -1366.636)" fill="#fff"/><path d="M922.023,1421.632h-5.551v-5.551h5.551Zm-5.33-.221H921.8V1416.3h-5.109Z" transform="translate(-884.871 -1386.241)" fill="#fff"/><g transform="translate(26.538 35.396)" opacity="0.4" style="mix-blend-mode:soft-light;isolation:isolate"><g clip-path="url(#k)"><rect width="0.513" height="0.214" transform="translate(2.051 0)"/><rect width="0.513" height="0.214" transform="translate(1.025 0)"/><rect width="0.513" height="0.214" transform="translate(0 0)"/><rect width="0.513" height="0.214" transform="translate(3.076 0)"/></g></g><g transform="translate(29.794 28.061)" style="mix-blend-mode:soft-light;isolation:isolate"><g transform="translate(0)"><g clip-path="url(#l)"><path d="M869.2,1370.442h-.468v-1.354h1.38v.468H869.2Z" transform="translate(-868.728 -1369.088)" fill="#fff"/></g></g></g><g transform="translate(28.818 27.057)" style="mix-blend-mode:soft-light;isolation:isolate"><g clip-path="url(#l)"><path d="M843.391,1343.9h-.468v-1.354h1.38v.468h-.912Z" transform="translate(-842.922 -1342.546)" fill="#fff"/></g></g><g transform="translate(37.347 35.583)" style="mix-blend-mode:soft-light;isolation:isolate"><g transform="translate(0)"><g clip-path="url(#n)"><path d="M1070.187,1569.705h-1.89v-.641h1.249v-1.212h.641Z" transform="translate(-1068.297 -1567.852)" fill="#fff"/></g></g></g><g transform="translate(38.505 36.741)" style="mix-blend-mode:soft-light;isolation:isolate"><g clip-path="url(#n)"><path d="M1100.782,1600.3h-1.89v-.641h1.249v-1.212h.641Z" transform="translate(-1098.892 -1598.448)" fill="#fff"/></g></g><rect width="8.504" height="0.214" transform="matrix(0.64, -0.768, 0.768, 0.64, 34.622, 19.726)" fill="#6a59b0"/><rect width="0.214" height="14.787" transform="translate(40.78 -3.142)" fill="#6a59b0"/><path d="M1149.62,949.82a.382.382,0,1,1-.382-.382.382.382,0,0,1,.382.382" transform="translate(-1108.459 -937.258)" fill="#fff"/><g transform="translate(36.202 23.781)" opacity="0.5" style="mix-blend-mode:soft-light;isolation:isolate"><g transform="translate(0)"><g clip-path="url(#p)"><path d="M1039.076,1256.679l-.516-.7-.516.7Z" transform="translate(-1038.044 -1255.976)" fill="#fff"/><path d="M1039.076,1282.228l-.516-.7-.516.7Z" transform="translate(-1038.044 -1280.559)" fill="#fff"/><path d="M1039.076,1307.776l-.516-.7-.516.7Z" transform="translate(-1038.044 -1305.139)" fill="#fff"/><path d="M1039.076,1333.325l-.516-.7-.516.7Z" transform="translate(-1038.044 -1329.721)" fill="#fff"/><path d="M1039.076,1358.872l-.516-.7-.516.7Z" transform="translate(-1038.044 -1354.302)" fill="#fff"/></g></g></g><g transform="translate(8.924 41.392)" opacity="0.5" style="mix-blend-mode:soft-light;isolation:isolate"><g clip-path="url(#q)"><path d="M317.274,1836.828l.583.794.583-.794Z" transform="translate(-317.274 -1832.457)" fill="#fff"/><path d="M317.274,1807.954l.583.794.583-.794Z" transform="translate(-317.274 -1804.676)" fill="#fff"/><path d="M317.274,1779.079l.583.794.583-.794Z" transform="translate(-317.274 -1776.894)" fill="#fff"/><path d="M317.274,1750.2l.583.794.583-.794Z" transform="translate(-317.274 -1749.112)" fill="#fff"/><path d="M317.274,1721.33l.583.794.583-.794Z" transform="translate(-317.274 -1721.33)" fill="#fff"/></g></g><g transform="translate(24.848 30.085)" opacity="0.5" style="mix-blend-mode:soft-light;isolation:isolate"><g clip-path="url(#r)"><path d="M738.741,1422.549l-.7.516.7.515Z" transform="translate(-738.038 -1422.549)" fill="#fff"/><path d="M764.289,1422.549l-.7.516.7.515Z" transform="translate(-762.619 -1422.549)" fill="#fff"/><path d="M789.837,1422.549l-.7.516.7.515Z" transform="translate(-787.201 -1422.549)" fill="#fff"/><path d="M815.386,1422.549l-.7.516.7.515Z" transform="translate(-811.782 -1422.549)" fill="#fff"/><path d="M840.933,1422.549l-.7.516.7.515Z" transform="translate(-836.363 -1422.549)" fill="#fff"/></g></g><rect width="0.233" height="5.923" transform="translate(39.571 41.593)" fill="#fff"/><path d="M972.263,1585.176h-4.928v-4.391h.233v4.158h4.7Z" transform="translate(-933.809 -1544.712)" fill="#fff"/><path d="M1106.415,1676.5a.874.874,0,1,1,.874-.875.876.876,0,0,1-.874.875m0-1.54a.665.665,0,1,0,.665.665.666.666,0,0,0-.665-.665" transform="translate(-1066.784 -1635.122)" fill="#fff"/><path d="M1119.022,1687.838a.394.394,0,1,1-.394-.394.394.394,0,0,1,.394.394" transform="translate(-1078.997 -1647.335)" fill="#fff"/><rect width="4.251" height="0.233" transform="translate(25.933 23.705)" fill="#fff"/><rect width="0.233" height="3.87" transform="translate(31.638 25.342)" fill="#fff"/><path d="M582.53,1425.984a.4.4,0,1,1-.4-.4.4.4,0,0,1,.4.4" transform="translate(-562.794 -1395.383)" fill="#fff"/><g transform="translate(23.808 30.381)" opacity="0.5" style="mix-blend-mode:soft-light;isolation:isolate"><g clip-path="url(#s)"><path d="M710.985,1430.6a.22.22,0,1,1-.221-.22.22.22,0,0,1,.221.22" transform="translate(-710.544 -1430.38)"/></g></g><g transform="translate(23.038 30.381)" opacity="0.5" style="mix-blend-mode:soft-light;isolation:isolate"><g clip-path="url(#s)"><path d="M690.648,1430.6a.22.22,0,1,1-.22-.22.22.22,0,0,1,.22.22" transform="translate(-690.207 -1430.38)"/></g></g><g transform="translate(22.268 30.381)" opacity="0.5" style="mix-blend-mode:soft-light;isolation:isolate"><g clip-path="url(#s)"><path d="M670.312,1430.6a.22.22,0,1,1-.22-.22.22.22,0,0,1,.22.22" transform="translate(-669.871 -1430.38)"/></g></g><g transform="translate(21.499 30.381)" opacity="0.5" style="mix-blend-mode:soft-light;isolation:isolate"><g clip-path="url(#s)"><path d="M649.975,1430.6a.22.22,0,1,1-.22-.22.22.22,0,0,1,.22.22" transform="translate(-649.534 -1430.38)"/></g></g><g transform="translate(38.815 42.398)" style="mix-blend-mode:multiply;isolation:isolate"><g transform="translate(0)"><g clip-path="url(#w)"><g transform="translate(0 1.603)" opacity="0.5" style="mix-blend-mode:soft-light;isolation:isolate"><g clip-path="url(#x)"><path d="M1107.248,1790.585a.153.153,0,1,1,.153-.153.153.153,0,0,1-.153.153" transform="translate(-1107.095 -1790.279)" fill="#fff"/></g></g><g transform="translate(0 1.069)" opacity="0.5" style="mix-blend-mode:soft-light;isolation:isolate"><g clip-path="url(#x)"><path d="M1107.248,1776.464a.153.153,0,1,1,.153-.153.153.153,0,0,1-.153.153" transform="translate(-1107.095 -1776.158)" fill="#fff"/></g></g><g transform="translate(0 0.534)" opacity="0.5" style="mix-blend-mode:soft-light;isolation:isolate"><g clip-path="url(#x)"><path d="M1107.248,1762.343a.153.153,0,1,1,.153-.153.153.153,0,0,1-.153.153" transform="translate(-1107.095 -1762.037)" fill="#fff"/></g></g><g opacity="0.5" style="mix-blend-mode:soft-light;isolation:isolate"><g clip-path="url(#x)"><path d="M1107.248,1748.222a.153.153,0,1,1,.153-.153.153.153,0,0,1-.153.153" transform="translate(-1107.095 -1747.916)" fill="#fff"/></g></g><g transform="translate(0 3.847)" opacity="0.5" style="mix-blend-mode:soft-light;isolation:isolate"><g clip-path="url(#x)"><path d="M1107.248,1849.873a.153.153,0,1,1,.153-.153.153.153,0,0,1-.153.153" transform="translate(-1107.095 -1849.567)" fill="#fff"/></g></g><g transform="translate(0 3.313)" opacity="0.5" style="mix-blend-mode:soft-light;isolation:isolate"><g clip-path="url(#x)"><path d="M1107.248,1835.752a.153.153,0,1,1,.153-.153.153.153,0,0,1-.153.153" transform="translate(-1107.095 -1835.446)" fill="#fff"/></g></g><g transform="translate(0 2.778)" opacity="0.5" style="mix-blend-mode:soft-light;isolation:isolate"><g clip-path="url(#x)"><path d="M1107.248,1821.632a.153.153,0,1,1,.153-.153.153.153,0,0,1-.153.153" transform="translate(-1107.095 -1821.326)" fill="#fff"/></g></g><g transform="translate(0 2.243)" opacity="0.5" style="mix-blend-mode:soft-light;isolation:isolate"><g clip-path="url(#ae)"><path d="M1107.248,1807.511a.153.153,0,1,1,.153-.153.153.153,0,0,1-.153.153" transform="translate(-1107.095 -1807.205)" fill="#fff"/></g></g></g></g></g><g transform="translate(26.071 5.423)" opacity="0.5" style="mix-blend-mode:soft-light;isolation:isolate"><g transform="translate(0)"><g clip-path="url(#x)"><path d="M770.5,771.194a.153.153,0,1,1,.153-.153.153.153,0,0,1-.153.153" transform="translate(-770.342 -770.888)" fill="#fff"/></g></g></g><g transform="translate(26.071 4.888)" opacity="0.5" style="mix-blend-mode:soft-light;isolation:isolate"><g transform="translate(0)"><g clip-path="url(#x)"><path d="M770.5,757.073a.153.153,0,1,1,.153-.153.153.153,0,0,1-.153.153" transform="translate(-770.342 -756.767)" fill="#fff"/></g></g></g><g transform="translate(26.071 4.354)" opacity="0.5" style="mix-blend-mode:soft-light;isolation:isolate"><g transform="translate(0)"><g clip-path="url(#x)"><path d="M770.5,742.952a.153.153,0,1,1,.153-.153.153.153,0,0,1-.153.153" transform="translate(-770.342 -742.646)" fill="#fff"/></g></g></g><g transform="translate(26.071 3.819)" opacity="0.5" style="mix-blend-mode:soft-light;isolation:isolate"><g transform="translate(0)"><g clip-path="url(#ae)"><path d="M770.5,728.831a.153.153,0,1,1,.153-.153.153.153,0,0,1-.153.153" transform="translate(-770.342 -728.525)" fill="#fff"/></g></g></g><g transform="translate(26.071 7.666)" opacity="0.5" style="mix-blend-mode:soft-light;isolation:isolate"><g transform="translate(0)"><g clip-path="url(#x)"><path d="M770.5,830.482a.153.153,0,1,1,.153-.153.153.153,0,0,1-.153.153" transform="translate(-770.342 -830.176)" fill="#fff"/></g></g></g><g transform="translate(26.071 7.132)" opacity="0.5" style="mix-blend-mode:soft-light;isolation:isolate"><g transform="translate(0)"><g clip-path="url(#ae)"><path d="M770.5,816.361a.153.153,0,1,1,.153-.153.153.153,0,0,1-.153.153" transform="translate(-770.342 -816.055)" fill="#fff"/></g></g></g><g transform="translate(26.071 6.597)" opacity="0.5" style="mix-blend-mode:soft-light;isolation:isolate"><g transform="translate(0)"><g clip-path="url(#ae)"><path d="M770.5,802.24a.153.153,0,1,1,.153-.153.153.153,0,0,1-.153.153" transform="translate(-770.342 -801.934)" fill="#fff"/></g></g></g><g transform="translate(26.071 6.063)" opacity="0.5" style="mix-blend-mode:soft-light;isolation:isolate"><g transform="translate(0)"><g clip-path="url(#x)"><path d="M770.5,788.12a.153.153,0,1,1,.153-.153.153.153,0,0,1-.153.153" transform="translate(-770.342 -787.814)" fill="#fff"/></g></g></g><g transform="translate(26.071 17.309)" opacity="0.5" style="mix-blend-mode:soft-light;isolation:isolate"><g transform="translate(0)"><g clip-path="url(#x)"><path d="M770.5,1085.265a.153.153,0,1,1,.153-.153.153.153,0,0,1-.153.153" transform="translate(-770.342 -1084.959)" fill="#fff"/></g></g></g><g transform="translate(26.071 16.774)" opacity="0.5" style="mix-blend-mode:soft-light;isolation:isolate"><g transform="translate(0)"><g clip-path="url(#x)"><path d="M770.5,1071.144a.153.153,0,1,1,.153-.153.153.153,0,0,1-.153.153" transform="translate(-770.342 -1070.838)" fill="#fff"/></g></g></g><g transform="translate(26.071 16.24)" opacity="0.5" style="mix-blend-mode:soft-light;isolation:isolate"><g transform="translate(0)"><g clip-path="url(#x)"><path d="M770.5,1057.023a.153.153,0,1,1,.153-.153.153.153,0,0,1-.153.153" transform="translate(-770.342 -1056.717)" fill="#fff"/></g></g></g><g transform="translate(26.071 15.705)" opacity="0.5" style="mix-blend-mode:soft-light;isolation:isolate"><g transform="translate(0)"><g clip-path="url(#x)"><path d="M770.5,1042.9a.153.153,0,1,1,.153-.153.153.153,0,0,1-.153.153" transform="translate(-770.342 -1042.596)" fill="#fff"/></g></g></g><g transform="translate(26.071 19.552)" opacity="0.5" style="mix-blend-mode:soft-light;isolation:isolate"><g transform="translate(0)"><g clip-path="url(#x)"><path d="M770.5,1144.553a.153.153,0,1,1,.153-.153.153.153,0,0,1-.153.153" transform="translate(-770.342 -1144.247)" fill="#fff"/></g></g></g><g transform="translate(26.071 19.018)" opacity="0.5" style="mix-blend-mode:soft-light;isolation:isolate"><g transform="translate(0)"><g clip-path="url(#x)"><path d="M770.5,1130.432a.153.153,0,1,1,.153-.153.153.153,0,0,1-.153.153" transform="translate(-770.342 -1130.126)" fill="#fff"/></g></g></g><g transform="translate(26.071 18.484)" opacity="0.5" style="mix-blend-mode:soft-light;isolation:isolate"><g transform="translate(0)"><g clip-path="url(#x)"><path d="M770.5,1116.312a.153.153,0,1,1,.153-.153.153.153,0,0,1-.153.153" transform="translate(-770.342 -1116.006)" fill="#fff"/></g></g></g><g transform="translate(26.071 17.949)" opacity="0.5" style="mix-blend-mode:soft-light;isolation:isolate"><g transform="translate(0)"><g clip-path="url(#ae)"><path d="M770.5,1102.191a.153.153,0,1,1,.153-.153.153.153,0,0,1-.153.153" transform="translate(-770.342 -1101.885)" fill="#fff"/></g></g></g><path d="M182.552,1517.552l-2.566-2.566h-7.6v-.28H180.1l2.648,2.648Z" transform="translate(-168.948 -1481.135)" fill="#fff"/><rect width="3.206" height="3.206" transform="translate(32.774 31.013)" fill="#fff"/><path d="M935.976,1456.383h-.659a.118.118,0,1,1,0-.235h.659a.118.118,0,0,1,0,.235" transform="translate(-902.889 -1424.792)" fill="#fff"/><path d="M935.976,1474.21h-.659a.117.117,0,1,1,0-.235h.659a.117.117,0,1,1,0,.235" transform="translate(-902.889 -1441.944)" fill="#fff"/><path d="M935.976,1492.038h-.659a.118.118,0,0,1,0-.235h.659a.118.118,0,0,1,0,.235" transform="translate(-902.889 -1459.098)" fill="#fff"/><path d="M935.976,1509.866h-.659a.117.117,0,1,1,0-.235h.659a.117.117,0,1,1,0,.235" transform="translate(-902.889 -1476.251)" fill="#fff"/><path d="M1021.55,1456.383h-.659a.118.118,0,0,1,0-.235h.659a.118.118,0,1,1,0,.235" transform="translate(-985.225 -1424.792)" fill="#fff"/><path d="M1021.55,1474.21h-.659a.117.117,0,1,1,0-.235h.659a.117.117,0,1,1,0,.235" transform="translate(-985.225 -1441.944)" fill="#fff"/><path d="M1021.55,1492.038h-.659a.118.118,0,0,1,0-.235h.659a.118.118,0,1,1,0,.235" transform="translate(-985.225 -1459.098)" fill="#fff"/><path d="M1021.55,1509.866h-.659a.117.117,0,1,1,0-.235h.659a.117.117,0,1,1,0,.235" transform="translate(-985.225 -1476.251)" fill="#fff"/><path d="M1013.811,1433.276v-.66a.117.117,0,0,1,.235,0v.66a.117.117,0,0,1-.235,0" transform="translate(-978.526 -1402.038)" fill="#fff"/><path d="M995.983,1433.276v-.66a.117.117,0,0,1,.235,0v.66a.117.117,0,0,1-.235,0" transform="translate(-961.373 -1402.038)" fill="#fff"/><path d="M978.156,1433.276v-.66a.117.117,0,0,1,.235,0v.66a.117.117,0,0,1-.235,0" transform="translate(-944.221 -1402.038)" fill="#fff"/><path d="M960.328,1433.276v-.66a.118.118,0,0,1,.235,0v.66a.118.118,0,0,1-.235,0" transform="translate(-927.067 -1402.038)" fill="#fff"/><path d="M1013.811,1519.1v-.66a.117.117,0,0,1,.235,0v.66a.117.117,0,0,1-.235,0" transform="translate(-978.526 -1484.61)" fill="#fff"/><path d="M995.983,1519.1v-.66a.117.117,0,0,1,.235,0v.66a.117.117,0,0,1-.235,0" transform="translate(-961.373 -1484.61)" fill="#fff"/><path d="M978.156,1519.1v-.66a.117.117,0,0,1,.235,0v.66a.117.117,0,0,1-.235,0" transform="translate(-944.221 -1484.61)" fill="#fff"/><path d="M960.328,1519.1v-.66a.118.118,0,0,1,.235,0v.66a.118.118,0,0,1-.235,0" transform="translate(-927.067 -1484.61)" fill="#fff"/><circle cx="2" cy="2" r="2" transform="translate(17.107 28.469)" fill="url(#av)"/></g></g><g transform="translate(33.521 32.024)"><g transform="translate(0)" clip-path="url(#aw)"><rect width="1.404" height="1.443" transform="matrix(0.962, -0.273, 0.273, 0.962, -0.31, 0.088)" fill="url(#ax)"/></g></g><g transform="translate(34.804 32.024)"><g transform="translate(0)" clip-path="url(#ay)"><rect width="0.517" height="1.192" transform="translate(-0.31 0.088) rotate(-15.824)" fill="url(#az)"/></g></g><g transform="translate(0 -0.038)"><g clip-path="url(#e)"><path d="M403.936,1303.074h-3.777V1299.3h3.777Zm-3.659-.118h3.542v-3.542h-3.542Z" transform="translate(-388.098 -1273.877)" fill="#fff"/><circle cx="2" cy="2" r="2" transform="translate(22.513 33.469)" fill="url(#av)"/><path d="M413.965,1313.1h-2.956v-2.956h2.956Zm-2.838-.118h2.72v-2.72h-2.72Z" transform="translate(-398.537 -1284.315)" fill="#fff"/><rect width="1.707" height="1.707" transform="translate(13.096 26.455)" fill="#fff"/><rect width="6.861" height="0.106" transform="translate(5.207 26.345)" fill="#fff"/><rect width="6.861" height="0.106" transform="translate(5.207 27.003)" fill="#fff"/><rect width="6.861" height="0.106" transform="translate(5.207 27.661)" fill="#fff"/><rect width="6.861" height="0.106" transform="translate(5.207 28.319)" fill="#fff"/><path d="M470.483,620.727H470.4v-4.691l.013-.013,2.177-2.177c.034-6.732.079-19.506,0-19.792a.04.04,0,0,0,.028.026l.011-.041-.032-.032.049-.01c.037.015.044.018.055.9.006.517.011,1.274.013,2.252,0,1.646,0,3.939-.005,6.814-.013,4.895-.038,9.848-.038,9.9v.018l-.013.013-2.177,2.177Z" transform="translate(-455.677 -595.269)" fill="#fff"/><path d="M453.1,693.379h-.087v-8.751l1.228-1.172V669.508h.087v13.986l-1.228,1.172Z" transform="translate(-438.949 -667.922)" fill="#fff"/><path d="M401.819,712.469h-.087V706L400.4,704.33V689.348h.087V704.3l1.333,1.671Z" transform="translate(-388.328 -687.012)" fill="#fff"/><path d="M374.108,1018.127h-.087l.044-3.479-1.784-1.784v-5.835h.087v5.8l1.784,1.784v.018Z" transform="translate(-361.276 -992.669)" fill="#fff"/><circle cx="2" cy="2" r="2" transform="translate(25.513 8.469)" fill="url(#av)"/></g></g><g transform="translate(50.084 0)"><g clip-path="url(#c)"><path d="M1649.773,1520.8c.1.286,7.042,13.771,7.042,13.771v-21.387Z" transform="translate(-1640.504 -1479.673)" fill="#352d57"/><path d="M1638.227,1179.342a45.464,45.464,0,0,0-1.961-11.693l.384-.125a45.908,45.908,0,0,1,1.981,11.814Z" transform="translate(-1627.508 -1147.091)" fill="#1e1930"/><path d="M1693.638,1103.22l-4.388,4.987-1.224-4.322Z" transform="translate(-1677.309 -1085.22)" fill="#1e1930"/><path d="M1583.243,863.631a5.579,5.579,0,1,0,5.645-5.512,5.579,5.579,0,0,0-5.645,5.512" transform="translate(-1576.491 -849.395)" fill="#1e1930"/><rect width="2.274" height="11.48" transform="translate(10.342 19.479) rotate(-15.37)" fill="#1e1930"/><path d="M1660.879,1153.754l-.374-1.333,3.482-1.183.481,1.716Z" transform="translate(-1650.83 -1131.421)" fill="#352d57"/><path d="M1675.386,1207l-.374-1.333,3.482-1.183.481,1.716Z" transform="translate(-1664.788 -1182.653)" fill="#352d57"/><path d="M1689.894,1260.247l-.374-1.333,3.482-1.183.481,1.716Z" transform="translate(-1678.746 -1233.884)" fill="#352d57"/><path d="M1704.4,1313.493l-.374-1.333,3.482-1.183.481,1.716Z" transform="translate(-1692.704 -1285.115)" fill="#352d57"/></g></g><g transform="translate(51.2 7.322)"><g clip-path="url(#be)"><rect width="17.012" height="11.243" transform="matrix(0.031, -1, 1, 0.031, -0.934, 16.674)" fill="url(#bf)"/></g></g><g transform="translate(59.097 10.997)"><g clip-path="url(#bg)"><rect width="6.926" height="4.629" transform="translate(-2.217 5.625) rotate(-68.654)" fill="url(#bh)"/></g></g><g transform="translate(58.321 10.193)"><g clip-path="url(#bi)"><rect width="8.706" height="5.941" transform="translate(-2.766 7.018) rotate(-68.654)" fill="url(#bj)"/></g></g><g transform="translate(50.084 0)"><g clip-path="url(#c)"><g transform="translate(2.917 20.961)" style="mix-blend-mode:soft-light;isolation:isolate"><g clip-path="url(#bl)"><path d="M1482.217,1182.215c0,.029,0,.063-.009.1a1.543,1.543,0,0,0,.495-.793c-.021-.163-.495.027-.774.1.136.2.292.384.289.556,0,.011,0,.023,0,.037" transform="translate(-1481.929 -1181.46)" fill="#171516"/></g></g><g transform="translate(1.22 18.274)" style="mix-blend-mode:soft-light;isolation:isolate"><g clip-path="url(#bm)"><path d="M1437.087,1110.549l.014.007c.5.2,1.208.19,1.435.467a.292.292,0,0,1,.05.184c.1-.169.25-.482.131-.649-.145-.206-1.1.033-1.631-.008" transform="translate(-1437.087 -1110.472)" fill="#171516"/></g></g><g transform="translate(4.906 15.396)" opacity="0.5" style="mix-blend-mode:soft-light;isolation:isolate"><g clip-path="url(#bn)"><path d="M1536.773,1034.753a2.882,2.882,0,0,0-1.221-.327c-.72-.033-1.087,2.542-1.067,2.854s3.05-1.918,2.288-2.528" transform="translate(-1534.484 -1034.426)" fill="#fff"/></g></g><g transform="translate(2.579 13.868)" style="mix-blend-mode:soft-light;isolation:isolate"><g clip-path="url(#bo)"><path d="M1474.671,995.767s.58-.381.426-.771a2.88,2.88,0,0,0-1.93-.943c-.361.125-.09,1.673.208,1.886.428.307,1.3-.172,1.3-.172" transform="translate(-1472.994 -994.037)" fill="#171516"/></g></g><path d="M1482.925,1007.906a.776.776,0,0,0,.044.091s1.366-.354,1.374-.59-1.356-.678-1.356-.678a.559.559,0,0,0-.078.145,1.488,1.488,0,0,0,.016,1.032" transform="translate(-1479.874 -992.38)" fill="#171516"/><path d="M1482.265,1005.983s-.7-.289-.749-.216.15.28.4.389c.522.228.629-.015.35-.173" transform="translate(-1478.607 -991.445)" fill="#171516"/><path d="M1482.925,1011.6c.18-.02.324-.241.328-.511,0-.286-.15-.519-.344-.521a1.488,1.488,0,0,0,.016,1.032" transform="translate(-1479.874 -996.073)" fill="#846fd9"/><path d="M1481.3,1016.183c.118-.013.212-.158.214-.335s-.1-.34-.225-.341a.634.634,0,0,0,.01.676" transform="translate(-1478.305 -1000.827)" fill="#fff"/><g transform="translate(2.549 20.178)" style="mix-blend-mode:soft-light;isolation:isolate"><g clip-path="url(#bp)"><path d="M1472.2,1160.8c.184.235.9.134,1.009.123a5.3,5.3,0,0,1,.619-.156,5.714,5.714,0,0,1-1.628.033" transform="translate(-1472.197 -1160.771)" fill="#171516"/></g></g></g></g><g transform="translate(57.89 30.83)"><g clip-path="url(#bq)"><rect width="7.487" height="13.256" transform="translate(-3.898 0.879) rotate(-15.337)" fill="url(#br)"/></g></g><g transform="translate(50.084 0)"><circle cx="2.5" cy="2.5" r="2.5" transform="translate(3.023 1.469)" fill="url(#av)"/><circle cx="1.5" cy="1.5" r="1.5" transform="translate(7.023 29.469)" fill="url(#av)"/><circle cx="2" cy="2" r="2" transform="translate(2.023 40.469)" fill="url(#av)"/><circle cx="1" cy="1" r="1" transform="translate(2.023 25.469)" fill="url(#av)"/></g></g></g></svg>