<svg id="data_validator" xmlns="http://www.w3.org/2000/svg" width="100%" height="100%" viewBox="0 0 126.287 61.149">
  <g id="Group_4823" data-name="Group 4823" transform="translate(74.658 9.369)">
    <path id="Path_13634" data-name="Path 13634" d="M535.457,145.729h-8.791V172.95H523.1V145.729H514.33V142.5h21.127Z" transform="translate(-514.33 -142.501)" fill="#ffb501"/>
    <path id="Path_13635" data-name="Path 13635" d="M554.038,172.95h-3.95l-3.228-8.535H533.95l-3.036,8.535h-3.971L538.621,142.5h3.695Zm-8.345-11.742-4.779-12.973a12.529,12.529,0,0,1-.465-2.039h-.085a11.313,11.313,0,0,1-.49,2.039l-4.734,12.973Z" transform="translate(-504.561 -142.501)" fill="#ffb501"/>
  </g>
  <g id="Group_4824" data-name="Group 4824" transform="translate(50.5 42.964)">
    <path id="Path_13636" data-name="Path 13636" d="M511.006,172.122h-1.5l-1.226-2.969h-4.9l-1.153,2.969h-1.508l4.436-10.59h1.4Zm-3.169-4.083-1.815-4.513a4.185,4.185,0,0,1-.177-.71h-.032a3.544,3.544,0,0,1-.186.71l-1.8,4.513Z" transform="translate(-500.716 -161.356)" fill="#ffb501"/>
    <path id="Path_13637" data-name="Path 13637" d="M513.472,172.122h-6v-10.59h1.354V171h4.644Z" transform="translate(-495.482 -161.356)" fill="#ffb501"/>
    <path id="Path_13638" data-name="Path 13638" d="M514.831,161.532v1.063H513.7v8.464h1.129v1.063h-3.613v-1.063h1.129v-8.464h-1.129v-1.063Z" transform="translate(-492.582 -161.356)" fill="#ffb501"/>
    <path id="Path_13639" data-name="Path 13639" d="M514.331,172.122v-10.59h3.194q6.111,0,6.111,5.162a4.987,4.987,0,0,1-1.7,3.941,6.646,6.646,0,0,1-4.543,1.487Zm1.356-9.467V171h1.723a5.182,5.182,0,0,0,3.542-1.116,3.991,3.991,0,0,0,1.265-3.16q0-4.07-4.726-4.069Z" transform="translate(-490.171 -161.356)" fill="#ffb501"/>
    <path id="Path_13640" data-name="Path 13640" d="M530.391,172.122h-1.5l-1.228-2.969h-4.9l-1.153,2.969H520.1l4.436-10.59h1.4Zm-3.169-4.083-1.814-4.513a4.02,4.02,0,0,1-.177-.71H525.2a3.673,3.673,0,0,1-.186.71l-1.8,4.513Z" transform="translate(-485.701 -161.356)" fill="#ffb501"/>
    <path id="Path_13641" data-name="Path 13641" d="M534.216,162.655h-3.34v9.467h-1.354v-9.467h-3.331v-1.123h8.024Z" transform="translate(-480.985 -161.356)" fill="#ffb501"/>
    <path id="Path_13642" data-name="Path 13642" d="M536.728,172.376a5.311,5.311,0,0,1-3.939-1.485,5.23,5.23,0,0,1-1.48-3.861,5.222,5.222,0,0,1,5.613-5.6,5.185,5.185,0,0,1,3.858,1.476,5.249,5.249,0,0,1,1.466,3.861,5.557,5.557,0,0,1-1.5,4.1A5.415,5.415,0,0,1,536.728,172.376Zm.1-9.822a3.882,3.882,0,0,0-2.958,1.2,4.99,4.99,0,0,0-.03,6.31,3.764,3.764,0,0,0,2.892,1.194,3.976,3.976,0,0,0,3-1.137,4.406,4.406,0,0,0,1.095-3.183,4.575,4.575,0,0,0-1.065-3.242A3.808,3.808,0,0,0,536.824,162.554Z" transform="translate(-477.022 -161.433)" fill="#ffb501"/>
    <path id="Path_13643" data-name="Path 13643" d="M547.043,172.122H545.43l-1.936-2.969a6.364,6.364,0,0,0-.516-.7,2.816,2.816,0,0,0-.511-.477,1.868,1.868,0,0,0-.566-.27,2.5,2.5,0,0,0-.68-.085h-1.112v4.505h-1.356v-10.59H542.2a5.36,5.36,0,0,1,1.4.174,3.172,3.172,0,0,1,1.113.529,2.466,2.466,0,0,1,.738.882,2.974,2.974,0,0,1,.085,2.252,2.587,2.587,0,0,1-.516.823,3.105,3.105,0,0,1-.806.618,4.3,4.3,0,0,1-1.061.394v.03a2.413,2.413,0,0,1,.91.628,4.657,4.657,0,0,1,.385.468c.124.174.266.378.422.609Zm-6.935-9.467v3.84h1.838a3.008,3.008,0,0,0,.939-.14,2.215,2.215,0,0,0,.745-.4,1.829,1.829,0,0,0,.491-.642,1.985,1.985,0,0,0,.178-.854,1.6,1.6,0,0,0-.6-1.326,2.749,2.749,0,0,0-1.737-.476Z" transform="translate(-471.256 -161.356)" fill="#ffb501"/>
  </g>
  <path id="Subtraction_1" data-name="Subtraction 1" d="M20.824,29.22h-3.79l-3.1-8.191H0l1.4-3.076H12.816L8.231,5.5a10.771,10.771,0,0,1-.4-1.671L9.577,0,20.823,29.217ZM4.946,10.177l0,0L7.51,4.538a7.978,7.978,0,0,1-.276.963Z" transform="translate(56.738 10.232)" fill="#ffb501"/>
  <path id="Subtraction_2" data-name="Subtraction 2" d="M16.2,61.149H0V0H16.885A48.5,48.5,0,0,1,31.027,1.863a25.958,25.958,0,0,1,10.1,5.589,23.225,23.225,0,0,1,6.06,9.314,38.5,38.5,0,0,1,2.02,13.04,40.6,40.6,0,0,1-.277,4.8q-1.785,2.43-3.569,4.863c-.427.583-.748.832-1.072.832-.3,0-.611-.211-1.015-.684q-1.127-1.319-2.257-2.631a33.919,33.919,0,0,0,.686-7.012c0-7.8-2.1-13.724-6.247-17.622S25.007,6.481,16.716,6.481H7.164V54.667h9.124c7.979,0,14.278-2.166,18.721-6.439.176-.169.352-.345.525-.524q1.576,3.115,3.154,6.23a29.728,29.728,0,0,1-9.966,5.412A41.016,41.016,0,0,1,16.2,61.149Z" transform="translate(0 0)" fill="#ededed"/>
  <path id="Path_13648" data-name="Path 13648" d="M501.986,190.67c-.836.025-1.491-.578-1.989-1.728q-4.254-9.8-8.489-19.626a3.26,3.26,0,0,1-.027-2.784c.387-.8.987-.875,1.531-.144,2.747,3.675,5.5,7.341,8.223,11.068.44.6.7.545,1.1-.091,4.686-7.472,15.4-26.445,20.093-33.891.735-1.166,1.673-.813,1.849.8a4.606,4.606,0,0,1-.311,2.023c-2.417,5.451-10.874,22.382-13.316,27.792q-3.274,7.253-6.544,14.514C503.534,189.877,502.872,190.723,501.986,190.67Z" transform="translate(-457.599 -132.91)" fill="#ffb501"/>
</svg>
