<svg xmlns="http://www.w3.org/2000/svg" xmlns:xlink="http://www.w3.org/1999/xlink" width="100%" height="100%" viewBox="0 0 164.304 57.462">
  <defs>
    <linearGradient id="linear-gradient" x1="0.039" y1="0.502" x2="1.039" y2="0.502" gradientUnits="objectBoundingBox">
      <stop offset="0" stop-color="#ff603c"/>
      <stop offset="1" stop-color="#e8a50f"/>
    </linearGradient>
    <linearGradient id="linear-gradient-2" x1="0" y1="0.5" x2="1" y2="0.5" xlink:href="#linear-gradient"/>
    <linearGradient id="linear-gradient-3" x1="0.012" y1="0.394" x2="1.01" y2="0.394" xlink:href="#linear-gradient"/>
    <linearGradient id="linear-gradient-4" x1="-4.606" y1="1.434" x2="-3.447" y2="1.434" xlink:href="#linear-gradient"/>
    <linearGradient id="linear-gradient-5" x1="-0.722" y1="0.901" x2="0.304" y2="0.901" xlink:href="#linear-gradient"/>
    <linearGradient id="linear-gradient-6" x1="-1.321" y1="0.802" x2="-0.252" y2="0.802" xlink:href="#linear-gradient"/>
    <linearGradient id="linear-gradient-7" x1="-0.309" y1="0.637" x2="0.725" y2="0.637" xlink:href="#linear-gradient"/>
    <linearGradient id="linear-gradient-8" x1="-1.682" y1="1.243" x2="-0.682" y2="1.243" xlink:href="#linear-gradient"/>
  </defs>
  <g id="data_pilot_logo" transform="translate(0 0.006)">
    <g id="Group_2661" data-name="Group 2661" transform="translate(103.367 8.09) rotate(-8)">
      <g id="Group_2658" data-name="Group 2658" transform="translate(0.022 9.053)">
        <path id="Path_3839" data-name="Path 3839" d="M35.8,15.637a14.79,14.79,0,0,1-2.162,13.813A15.65,15.65,0,0,1,20.762,35.6,15.541,15.541,0,0,1,5.384,20.058,15.022,15.022,0,0,1,14.375,6.619,16.035,16.035,0,0,1,30.812,8.675a8.14,8.14,0,0,0,1.039.673A23.132,23.132,0,0,1,33.482,7.46a20.339,20.339,0,0,1,1.766-1.853l-.078-.036.078.036.029-.013A21.514,21.514,0,0,0,12.658,1.677,20.177,20.177,0,0,0,.05,20.207a20.567,20.567,0,0,0,12.491,18.8A21.364,21.364,0,0,0,35.6,35.172a19.9,19.9,0,0,0,4.853-22.239c-.085-.2-.173-.4-.264-.6a.182.182,0,0,0-.036.012" transform="translate(0 0)" fill="url(#linear-gradient)"/>
      </g>
      <path id="Path_3840" data-name="Path 3840" d="M16.5,30,.032,13.05l14.306,7.712L43.8.1Z" transform="translate(4.134 9.081)" stroke="#fff" stroke-width="0.25" fill="url(#linear-gradient-2)"/>
      <g id="Group_2659" data-name="Group 2659" transform="translate(35.39 0.085)">
        <path id="Path_3841" data-name="Path 3841" d="M4.307.159a.7.7,0,0,1,.7-.1.678.678,0,0,1,.423.55.656.656,0,0,1-.293.62L1.088,4.161A.7.7,0,0,1,.147,4a.654.654,0,0,1,.115-.919Z" transform="translate(1.284 12.205)" fill="url(#linear-gradient-3)"/>
        <path id="Path_3842" data-name="Path 3842" d="M3.43.26A.7.7,0,0,1,4.621.467a.652.652,0,0,1-.144.667L1.194,4.856a.7.7,0,0,1-.94.038.657.657,0,0,1-.107-.91Z" transform="translate(3.663 14.678)" fill="url(#linear-gradient-4)"/>
        <path id="Path_3843" data-name="Path 3843" d="M4.462,4.294.008,3.446C4.489-.192,4.733-.022,8.014.037A21.838,21.838,0,0,0,4.462,4.3Z" transform="translate(0.016 6.416)" fill-rule="evenodd" fill="url(#linear-gradient-5)"/>
        <path id="Path_3844" data-name="Path 3844" d="M.007,2.769.143,7.117C4.53,3.373,4.4,3.114,4.885.012A32.133,32.133,0,0,1,.007,2.77Z" transform="translate(10.243 14.477)" fill-rule="evenodd" fill="url(#linear-gradient-6)"/>
        <path id="Path_3845" data-name="Path 3845" d="M16.78,7.781c-1.752,2.853-8.769,8.136-12.539,9.136L.03,12.148C1.57,8.728,8.119,2.817,11.292,1.566c8.352-3.231,10.063-1.4,5.49,6.215ZM14.035,4.673a2.705,2.705,0,0,1-.343,3.911,2.9,2.9,0,0,1-4.034-.268,2.754,2.754,0,0,1,.3-3.964,2.956,2.956,0,0,1,4.081.32Z" transform="translate(4.494 0.011)" fill-rule="evenodd" fill="url(#linear-gradient-7)"/>
        <path id="Ellipse_15" data-name="Ellipse 15" d="M1.662,0A1.658,1.658,0,0,1,3.333,1.628,1.625,1.625,0,0,1,1.675,3.239,1.658,1.658,0,0,1,0,1.615,1.625,1.625,0,0,1,1.662,0Z" transform="translate(14.673 4.885)" fill="url(#linear-gradient-8)"/>
      </g>
    </g>
    <path id="Path_3846" data-name="Path 3846" d="M5.211-18.863a1.226,1.226,0,0,1-1.368-1.4V-44.023a1.226,1.226,0,0,1,1.368-1.4H11.9q5.082,0,7.584,3.226t2.5,10.019q0,6.831-2.5,10.076T11.9-18.861ZM9.04-23.113h2.9a3.812,3.812,0,0,0,3.655-2.144q1.114-2.144,1.114-6.926,0-4.744-1.114-6.869a3.818,3.818,0,0,0-3.655-2.125H9.042ZM30.234-18.6a5.41,5.41,0,0,1-4.164-1.575A6.127,6.127,0,0,1,24.6-24.518a6.66,6.66,0,0,1,.977-3.586,6.612,6.612,0,0,1,3.166-2.505,15.148,15.148,0,0,1,5.822-.928v-1.025a2.775,2.775,0,0,0-.606-1.879,2.65,2.65,0,0,0-2.091-.7,9.827,9.827,0,0,0-2.541.3,16.032,16.032,0,0,0-1.876.607,3.331,3.331,0,0,1-1.055.3q-.352,0-.567-.493a4.554,4.554,0,0,1-.313-1.139,7.365,7.365,0,0,1-.093-1.063q0-.493,1-1.044a10.449,10.449,0,0,1,2.561-.929,13.545,13.545,0,0,1,3.205-.38q3.87,0,5.629,1.723a6.065,6.065,0,0,1,1.76,4.533v7.628a21.712,21.712,0,0,0,.2,3.492,9.663,9.663,0,0,1,.2,1.556.685.685,0,0,1-.449.607,4.409,4.409,0,0,1-1.075.363,10.916,10.916,0,0,1-1.214.189q-.587.057-.86.057a.96.96,0,0,1-.919-.453,6.2,6.2,0,0,1-.488-1.632,6.636,6.636,0,0,1-1.8,1.575A5.4,5.4,0,0,1,30.234-18.6ZM31.8-22.164a2.914,2.914,0,0,0,1.588-.453,3.723,3.723,0,0,0,1.184-1.213v-4.63a6.217,6.217,0,0,0-3.851.907A3.321,3.321,0,0,0,29.6-24.821a3.123,3.123,0,0,0,.547,1.936,1.932,1.932,0,0,0,1.642.72ZM48.724-18.6a5.041,5.041,0,0,1-3.44-1.2,5.081,5.081,0,0,1-1.368-4V-34.879h-1.1q-1.055,0-1.055-1.632v-.569q0-1.632,1.055-1.632h1.095l.587-3.717q.2-1.1,1.72-1.1h.934q1.76,0,1.76,1.1v3.717h1.994q1.055,0,1.055,1.632v.569q0,1.632-1.055,1.632H48.913V-24.29a2.954,2.954,0,0,0,.254,1.443.988.988,0,0,0,.919.417,3.055,3.055,0,0,0,.8-.076,1.834,1.834,0,0,1,.528-.076q.313,0,.508.474a4.918,4.918,0,0,1,.293,1.044,5.579,5.579,0,0,1,.093.873,1.026,1.026,0,0,1-.547.854,4.191,4.191,0,0,1-1.388.55,7.526,7.526,0,0,1-1.654.19Zm10.946,0a5.41,5.41,0,0,1-4.164-1.575,6.127,6.127,0,0,1-1.466-4.346,6.66,6.66,0,0,1,.977-3.586,6.611,6.611,0,0,1,3.166-2.505,15.148,15.148,0,0,1,5.822-.928v-1.025a2.775,2.775,0,0,0-.606-1.879,2.65,2.65,0,0,0-2.091-.7,9.827,9.827,0,0,0-2.541.3,16.033,16.033,0,0,0-1.876.607,3.331,3.331,0,0,1-1.055.3q-.352,0-.567-.493a4.554,4.554,0,0,1-.313-1.139,7.365,7.365,0,0,1-.093-1.063q0-.493,1-1.044a10.449,10.449,0,0,1,2.561-.929,13.545,13.545,0,0,1,3.205-.38q3.87,0,5.629,1.723a6.065,6.065,0,0,1,1.76,4.533v7.628a21.711,21.711,0,0,0,.2,3.492,9.662,9.662,0,0,1,.2,1.556.685.685,0,0,1-.449.607,4.409,4.409,0,0,1-1.075.363,10.916,10.916,0,0,1-1.214.189q-.587.057-.86.057a.96.96,0,0,1-.919-.453,6.2,6.2,0,0,1-.488-1.632,6.636,6.636,0,0,1-1.8,1.575,5.4,5.4,0,0,1-2.934.74Zm1.563-3.567a2.914,2.914,0,0,0,1.588-.453,3.723,3.723,0,0,0,1.184-1.213v-4.63a6.217,6.217,0,0,0-3.851.907,3.321,3.321,0,0,0-1.114,2.733,3.123,3.123,0,0,0,.547,1.936,1.932,1.932,0,0,0,1.642.72Zm14.23,3.377a3.406,3.406,0,0,1-1.622-.285.9.9,0,0,1-.488-.816V-44.024a1.226,1.226,0,0,1,1.368-1.4h6.411q8.092,0,8.092,8.083,0,8.121-8.092,8.121H78.547v9.339a.9.9,0,0,1-.488.816,3.406,3.406,0,0,1-1.622.285Zm3.089-14.688h2.58a2.729,2.729,0,0,0,2.326-.907,5,5,0,0,0,.684-2.96,4.914,4.914,0,0,0-.684-2.922,2.729,2.729,0,0,0-2.326-.907H78.547ZM93.289-18.787a3.3,3.3,0,0,1-1.588-.285.9.9,0,0,1-.488-.816v-17.8A.9.9,0,0,1,91.7-38.5a3.3,3.3,0,0,1,1.588-.285h.86a3.3,3.3,0,0,1,1.588.285.9.9,0,0,1,.488.816v17.8a.9.9,0,0,1-.488.816,3.3,3.3,0,0,1-1.588.285Zm.467-22.123a4.7,4.7,0,0,1-1.916-.285.889.889,0,0,1-.587-.816v-2.733a.868.868,0,0,1,.587-.778,4.7,4.7,0,0,1,1.916-.285,4.864,4.864,0,0,1,1.876.266.854.854,0,0,1,.587.8v2.733a.889.889,0,0,1-.587.816,4.569,4.569,0,0,1-1.879.282ZM105.015-18.6a5.041,5.041,0,0,1-3.44-1.2,5.081,5.081,0,0,1-1.368-4V-46.339a.9.9,0,0,1,.488-.816,3.3,3.3,0,0,1,1.588-.285h.86a3.3,3.3,0,0,1,1.588.285.9.9,0,0,1,.488.816V-24.29a2.954,2.954,0,0,0,.254,1.443.988.988,0,0,0,.919.417,3.055,3.055,0,0,0,.8-.076,1.834,1.834,0,0,1,.528-.076q.313,0,.508.474a4.917,4.917,0,0,1,.293,1.044,5.578,5.578,0,0,1,.093.873,1.026,1.026,0,0,1-.547.854,4.191,4.191,0,0,1-1.388.55,7.526,7.526,0,0,1-1.669.19Zm58.95,0a5.041,5.041,0,0,1-3.44-1.2,5.081,5.081,0,0,1-1.368-4V-34.879h-1.095q-1.055,0-1.055-1.632v-.569q0-1.632,1.055-1.632h1.095l.587-3.717q.2-1.1,1.72-1.1h.934q1.76,0,1.76,1.1v3.717h1.994q1.055,0,1.055,1.632v.569q0,1.632-1.055,1.632h-1.989V-24.29a2.954,2.954,0,0,0,.254,1.443.988.988,0,0,0,.919.417,3.055,3.055,0,0,0,.8-.076,1.834,1.834,0,0,1,.528-.076q.313,0,.508.474a4.916,4.916,0,0,1,.293,1.044,5.573,5.573,0,0,1,.093.873,1.026,1.026,0,0,1-.547.854,4.19,4.19,0,0,1-1.388.55,7.527,7.527,0,0,1-1.662.19Z" transform="translate(-3.843 67.898)" fill="#cecece"/>
  </g>
</svg>
