<svg id="gamification_logo" xmlns="http://www.w3.org/2000/svg" xmlns:xlink="http://www.w3.org/1999/xlink" width="100%" height="100%" viewBox="0 0 258.149 62.711">
  <defs>
    <clipPath id="clip-path">
      <rect id="Rectangle_27025" data-name="Rectangle 27025" width="258.149" height="62.711" fill="none"/>
    </clipPath>
  </defs>
  <g id="Group_48946" data-name="Group 48946">
    <g id="Group_48945" data-name="Group 48945" clip-path="url(#clip-path)">
      <path id="Path_47574" data-name="Path 47574" d="M7.824,72.878V53.89a11.99,11.99,0,1,1,23.98,0V72.878a11.99,11.99,0,1,1-23.98,0" transform="translate(-4.418 -23.659)" fill="#c6c6c6"/>
      <path id="Path_47575" data-name="Path 47575" d="M65.838,30.979V11.991a11.99,11.99,0,1,1,23.98,0V30.979a11.99,11.99,0,1,1-23.98,0" transform="translate(-37.176 -0.001)" fill="#f05a5c"/>
      <path id="Path_47577" data-name="Path 47577" d="M55.345,45.874a12.626,12.626,0,0,0-1.093-2.88,14.918,14.918,0,0,0-26.218,0,14.923,14.923,0,1,0-13.11,22.051,1.849,1.849,0,1,0,0-3.7A11.226,11.226,0,1,1,26.15,50.12a1.825,1.825,0,0,0,.083.519A14.939,14.939,0,0,0,41.143,65.044a1.849,1.849,0,1,0,0-3.7A11.226,11.226,0,1,1,52.368,50.12c0,.108,3.055-3.669,2.977-4.246" transform="translate(0 -19.873)" fill="#333"/>
      <path id="Path_47578" data-name="Path 47578" d="M29.045,63.831H25.788v3.257a1.85,1.85,0,1,1-3.7,0V63.831H18.832a1.85,1.85,0,0,1,0-3.7h3.256V56.875a1.849,1.849,0,0,1,3.7,0v3.256h3.257a1.85,1.85,0,0,1,0,3.7" transform="translate(-9.59 -31.071)" fill="#333"/>
      <path id="Path_47579" data-name="Path 47579" d="M78.3,60.656l4.979,8.622a1.48,1.48,0,0,0,2.562,0l5.033-8.715a1.465,1.465,0,0,0,.212-.754,1.276,1.276,0,0,0-.008-.141,1.4,1.4,0,0,0-.19-.575,1.176,1.176,0,0,0-.9-.589c-.136-.037-10.517-.051-10.537-.05A1.366,1.366,0,0,0,78.03,59.8a1.476,1.476,0,0,0,.273.857m8.742.384-2.483,4.3-2.482-4.3Z" transform="translate(-44.06 -33.007)" fill="#333"/>
      <path id="Path_47580" data-name="Path 47580" d="M41.905,93.295a1.905,1.905,0,1,1,1.75,2.049,1.905,1.905,0,0,1-1.75-2.049" transform="translate(-23.659 -51.688)" fill="#333"/>
    </g>
  </g>
  <path id="Path_47583" data-name="Path 47583" d="M20.844-43.376a1.861,1.861,0,0,1,1.394.567,1.944,1.944,0,0,1,.551,1.41v6.874a1.944,1.944,0,0,1-1.005,1.751A12.936,12.936,0,0,1,14.814-30.8,11.66,11.66,0,0,1,8.88-32.368a11.779,11.779,0,0,1-4.312-4.247,11.252,11.252,0,0,1-1.589-5.852,11.252,11.252,0,0,1,1.589-5.852A11.779,11.779,0,0,1,8.88-52.568a11.66,11.66,0,0,1,5.934-1.573,11.431,11.431,0,0,1,5.577,1.3,1.784,1.784,0,0,1,.73.681,1.786,1.786,0,0,1,.243.908,2.051,2.051,0,0,1-.535,1.41,1.692,1.692,0,0,1-1.313.6,2.66,2.66,0,0,1-1.07-.259,9.177,9.177,0,0,0-3.631-.746A7.283,7.283,0,0,0,10.988-49.2a7.755,7.755,0,0,0-2.772,2.837,7.694,7.694,0,0,0-1.021,3.891,7.694,7.694,0,0,0,1.021,3.891,7.755,7.755,0,0,0,2.772,2.837,7.283,7.283,0,0,0,3.826,1.054,12.639,12.639,0,0,0,1.945-.162,11.3,11.3,0,0,0,1.816-.422v-4.215H15.527a1.944,1.944,0,0,1-1.41-.551,1.861,1.861,0,0,1-.567-1.394,1.861,1.861,0,0,1,.567-1.394,1.944,1.944,0,0,1,1.41-.551ZM41.3-48.791a1.89,1.89,0,0,1,1.394.551,1.93,1.93,0,0,1,.551,1.427V-33.1a1.944,1.944,0,0,1-.551,1.41,1.861,1.861,0,0,1-1.394.567,1.836,1.836,0,0,1-1.378-.551,2.039,2.039,0,0,1-.567-1.394,6.653,6.653,0,0,1-2.189,1.6,6.6,6.6,0,0,1-2.9.665,7.413,7.413,0,0,1-4.053-1.151,8.07,8.07,0,0,1-2.869-3.194,9.966,9.966,0,0,1-1.054-4.637,10.2,10.2,0,0,1,1.038-4.653,7.972,7.972,0,0,1,2.837-3.21,7.221,7.221,0,0,1,3.972-1.151,7.51,7.51,0,0,1,2.918.567,7.663,7.663,0,0,1,2.3,1.443v-.032a1.944,1.944,0,0,1,.551-1.41A1.861,1.861,0,0,1,41.3-48.791Zm-6.55,14.428a4.33,4.33,0,0,0,3.437-1.54,5.719,5.719,0,0,0,1.329-3.875,5.781,5.781,0,0,0-1.329-3.891,4.31,4.31,0,0,0-3.437-1.556,4.276,4.276,0,0,0-3.4,1.556,5.781,5.781,0,0,0-1.329,3.891A5.763,5.763,0,0,0,31.333-35.9,4.282,4.282,0,0,0,34.754-34.362ZM67.47-48.791q3.21,0,4.442,1.962A10.181,10.181,0,0,1,73.144-41.4v8.3a1.944,1.944,0,0,1-.551,1.41,1.861,1.861,0,0,1-1.394.567,1.861,1.861,0,0,1-1.394-.567,1.944,1.944,0,0,1-.551-1.41v-8.3a4.916,4.916,0,0,0-.7-2.8,2.75,2.75,0,0,0-2.448-1.021,3.705,3.705,0,0,0-2.837,1.086,3.842,3.842,0,0,0-1.021,2.74v8.3a1.944,1.944,0,0,1-.551,1.41,1.861,1.861,0,0,1-1.394.567,1.861,1.861,0,0,1-1.394-.567,1.944,1.944,0,0,1-.551-1.41v-8.3a4.916,4.916,0,0,0-.7-2.8,2.75,2.75,0,0,0-2.448-1.021,3.705,3.705,0,0,0-2.837,1.086,3.842,3.842,0,0,0-1.021,2.74v8.3a1.944,1.944,0,0,1-.551,1.41,1.861,1.861,0,0,1-1.394.567,1.861,1.861,0,0,1-1.394-.567,1.944,1.944,0,0,1-.551-1.41V-46.489a1.944,1.944,0,0,1,.551-1.41,1.861,1.861,0,0,1,1.394-.567A1.861,1.861,0,0,1,50.8-47.9a1.944,1.944,0,0,1,.551,1.41v.519a7.918,7.918,0,0,1,2.221-1.994,5.615,5.615,0,0,1,3-.827q4.085,0,5.22,3.567a7.636,7.636,0,0,1,2.253-2.464A5.649,5.649,0,0,1,67.47-48.791ZM81.023-33.1a1.944,1.944,0,0,1-.551,1.41,1.861,1.861,0,0,1-1.394.567,1.861,1.861,0,0,1-1.394-.567,1.944,1.944,0,0,1-.551-1.41V-46.489a1.944,1.944,0,0,1,.551-1.41,1.861,1.861,0,0,1,1.394-.567,1.861,1.861,0,0,1,1.394.567,1.944,1.944,0,0,1,.551,1.41ZM79.045-50.574a2.576,2.576,0,0,1-1.556-.357,1.523,1.523,0,0,1-.454-1.265v-.616a1.47,1.47,0,0,1,.486-1.265,2.667,2.667,0,0,1,1.556-.357,2.646,2.646,0,0,1,1.589.357,1.523,1.523,0,0,1,.454,1.265v.616a1.489,1.489,0,0,1-.47,1.281A2.831,2.831,0,0,1,79.045-50.574Zm14.3-1.1a1.786,1.786,0,0,0-1.556.632,2.313,2.313,0,0,0-.454,1.378v1.524h2.951a1.79,1.79,0,0,1,1.3.5,1.706,1.706,0,0,1,.519,1.281,1.706,1.706,0,0,1-.519,1.281,1.79,1.79,0,0,1-1.3.5H91.333V-33.1a1.944,1.944,0,0,1-.551,1.41,1.861,1.861,0,0,1-1.394.567,1.861,1.861,0,0,1-1.394-.567,1.944,1.944,0,0,1-.551-1.41V-44.576H85.692a1.79,1.79,0,0,1-1.3-.5,1.706,1.706,0,0,1-.519-1.281,1.706,1.706,0,0,1,.519-1.281,1.79,1.79,0,0,1,1.3-.5h1.751v-1.491a5.108,5.108,0,0,1,1.67-3.956,6.9,6.9,0,0,1,4.815-1.524,4.3,4.3,0,0,1,2.091.486,1.593,1.593,0,0,1,.892,1.491,1.779,1.779,0,0,1-.454,1.265,1.452,1.452,0,0,1-1.1.486,1.9,1.9,0,0,1-.34-.032l-.373-.065A5.541,5.541,0,0,0,93.343-51.676ZM102.2-33.1a1.944,1.944,0,0,1-.551,1.41,1.861,1.861,0,0,1-1.394.567,1.861,1.861,0,0,1-1.394-.567A1.944,1.944,0,0,1,98.3-33.1V-46.489a1.944,1.944,0,0,1,.551-1.41,1.861,1.861,0,0,1,1.394-.567,1.861,1.861,0,0,1,1.394.567,1.944,1.944,0,0,1,.551,1.41Zm-1.978-17.476a2.576,2.576,0,0,1-1.556-.357,1.523,1.523,0,0,1-.454-1.265v-.616a1.47,1.47,0,0,1,.486-1.265,2.667,2.667,0,0,1,1.556-.357,2.646,2.646,0,0,1,1.589.357,1.523,1.523,0,0,1,.454,1.265v.616a1.489,1.489,0,0,1-.47,1.281A2.831,2.831,0,0,1,100.217-50.574Zm13.521,1.783a9.817,9.817,0,0,1,4.442.859,2.575,2.575,0,0,1,1.686,2.286,1.958,1.958,0,0,1-.422,1.248,1.337,1.337,0,0,1-1.1.535,2.071,2.071,0,0,1-.843-.146,3.026,3.026,0,0,1-.632-.389,4.512,4.512,0,0,0-.6-.405,4.068,4.068,0,0,0-.956-.292,5.335,5.335,0,0,0-1.021-.13,4.9,4.9,0,0,0-3.81,1.508,5.612,5.612,0,0,0-1.378,3.939A5.555,5.555,0,0,0,110.5-35.9a4.6,4.6,0,0,0,3.567,1.54,5.517,5.517,0,0,0,2.367-.389,4.384,4.384,0,0,0,.535-.34,3.68,3.68,0,0,1,.632-.373,1.753,1.753,0,0,1,.713-.13,1.642,1.642,0,0,1,1.281.519,1.9,1.9,0,0,1,.47,1.329,1.877,1.877,0,0,1-.908,1.459,7.071,7.071,0,0,1-2.4,1.086,12.072,12.072,0,0,1-3.178.405,8.212,8.212,0,0,1-4.393-1.167,7.85,7.85,0,0,1-2.934-3.226,10.049,10.049,0,0,1-1.038-4.588,9.792,9.792,0,0,1,1.086-4.669,7.992,7.992,0,0,1,3.032-3.194A8.494,8.494,0,0,1,113.738-48.791Zm23.183,0a1.89,1.89,0,0,1,1.394.551,1.93,1.93,0,0,1,.551,1.427V-33.1a1.944,1.944,0,0,1-.551,1.41,1.861,1.861,0,0,1-1.394.567,1.836,1.836,0,0,1-1.378-.551,2.039,2.039,0,0,1-.567-1.394,6.653,6.653,0,0,1-2.189,1.6,6.6,6.6,0,0,1-2.9.665,7.413,7.413,0,0,1-4.053-1.151,8.07,8.07,0,0,1-2.869-3.194,9.966,9.966,0,0,1-1.054-4.637,10.2,10.2,0,0,1,1.038-4.653,7.972,7.972,0,0,1,2.837-3.21,7.221,7.221,0,0,1,3.972-1.151,7.51,7.51,0,0,1,2.918.567,7.663,7.663,0,0,1,2.3,1.443v-.032a1.944,1.944,0,0,1,.551-1.41A1.861,1.861,0,0,1,136.921-48.791Zm-6.55,14.428a4.33,4.33,0,0,0,3.437-1.54,5.719,5.719,0,0,0,1.329-3.875,5.781,5.781,0,0,0-1.329-3.891,4.31,4.31,0,0,0-3.437-1.556,4.276,4.276,0,0,0-3.4,1.556,5.781,5.781,0,0,0-1.329,3.891A5.763,5.763,0,0,0,126.95-35.9,4.282,4.282,0,0,0,130.371-34.362Zm21.075-.422a1.079,1.079,0,0,1,.827.438,1.714,1.714,0,0,1,.373,1.151,1.732,1.732,0,0,1-.956,1.475,3.974,3.974,0,0,1-2.156.6,6.286,6.286,0,0,1-3.388-.859q-1.378-.859-1.378-3.648v-8.949h-1.491a1.76,1.76,0,0,1-1.3-.519,1.76,1.76,0,0,1-.519-1.3,1.668,1.668,0,0,1,.519-1.248,1.79,1.79,0,0,1,1.3-.5h1.491v-2.075a1.915,1.915,0,0,1,.567-1.41,1.915,1.915,0,0,1,1.41-.567,1.823,1.823,0,0,1,1.362.567,1.944,1.944,0,0,1,.551,1.41v2.075h2.3a1.76,1.76,0,0,1,1.3.519,1.76,1.76,0,0,1,.519,1.3,1.668,1.668,0,0,1-.519,1.248,1.79,1.79,0,0,1-1.3.5h-2.3v8.787a1.241,1.241,0,0,0,.357.989,1.438,1.438,0,0,0,.973.308,2.782,2.782,0,0,0,.713-.13A1.937,1.937,0,0,1,151.446-34.784Zm8.56,1.686a1.944,1.944,0,0,1-.551,1.41,1.861,1.861,0,0,1-1.394.567,1.861,1.861,0,0,1-1.394-.567,1.944,1.944,0,0,1-.551-1.41V-46.489a1.944,1.944,0,0,1,.551-1.41,1.861,1.861,0,0,1,1.394-.567,1.861,1.861,0,0,1,1.394.567,1.944,1.944,0,0,1,.551,1.41Zm-1.978-17.476a2.576,2.576,0,0,1-1.556-.357,1.523,1.523,0,0,1-.454-1.265v-.616a1.47,1.47,0,0,1,.486-1.265,2.667,2.667,0,0,1,1.556-.357,2.646,2.646,0,0,1,1.589.357,1.523,1.523,0,0,1,.454,1.265v.616a1.489,1.489,0,0,1-.47,1.281A2.831,2.831,0,0,1,158.028-50.574Zm22.632,10.8a9.267,9.267,0,0,1-1.167,4.653,8.246,8.246,0,0,1-3.194,3.194,8.969,8.969,0,0,1-4.458,1.135,8.942,8.942,0,0,1-4.474-1.135,8.278,8.278,0,0,1-3.178-3.194,9.267,9.267,0,0,1-1.167-4.653,9.267,9.267,0,0,1,1.167-4.653,8.4,8.4,0,0,1,3.178-3.21,8.844,8.844,0,0,1,4.474-1.151A8.87,8.87,0,0,1,176.3-47.64a8.361,8.361,0,0,1,3.194,3.21A9.267,9.267,0,0,1,180.66-39.777Zm-3.891,0a5.942,5.942,0,0,0-.665-2.837,4.891,4.891,0,0,0-1.783-1.929,4.678,4.678,0,0,0-2.48-.681,4.678,4.678,0,0,0-2.48.681,4.891,4.891,0,0,0-1.783,1.929,5.942,5.942,0,0,0-.665,2.837,5.847,5.847,0,0,0,.665,2.821,4.918,4.918,0,0,0,1.783,1.913,4.678,4.678,0,0,0,2.48.681,4.678,4.678,0,0,0,2.48-.681,4.918,4.918,0,0,0,1.783-1.913A5.847,5.847,0,0,0,176.769-39.777Zm16.406-9.014q3.307,0,4.572,1.962a9.971,9.971,0,0,1,1.265,5.431v8.3a1.944,1.944,0,0,1-.551,1.41,1.861,1.861,0,0,1-1.394.567,1.861,1.861,0,0,1-1.394-.567,1.944,1.944,0,0,1-.551-1.41v-8.3a4.671,4.671,0,0,0-.746-2.8,2.964,2.964,0,0,0-2.561-1.021,3.953,3.953,0,0,0-2.951,1.086,3.744,3.744,0,0,0-1.07,2.74v8.3a1.944,1.944,0,0,1-.551,1.41,1.861,1.861,0,0,1-1.394.567,1.861,1.861,0,0,1-1.394-.567,1.944,1.944,0,0,1-.551-1.41V-46.489a1.944,1.944,0,0,1,.551-1.41,1.861,1.861,0,0,1,1.394-.567,1.861,1.861,0,0,1,1.394.567,1.944,1.944,0,0,1,.551,1.41v.551a7.831,7.831,0,0,1,2.286-2.01A5.924,5.924,0,0,1,193.176-48.791Z" transform="translate(48.223 72.324)" fill="#333"/>
  <g id="Group_48948" data-name="Group 48948">
    <g id="Group_48947" data-name="Group 48947" clip-path="url(#clip-path)">
      <path id="Path_47584" data-name="Path 47584" d="M8.073-12.3a1.8,1.8,0,0,1-.19.838,1.9,1.9,0,0,1-.512.626,2.3,2.3,0,0,1-.756.392,3.084,3.084,0,0,1-.925.136H2v-7.727H5.983a1.525,1.525,0,0,1,.729.174,1.821,1.821,0,0,1,.555.452,2.07,2.07,0,0,1,.354.631,2.124,2.124,0,0,1,.125.713A2.074,2.074,0,0,1,7.458-15a1.761,1.761,0,0,1-.822.735,1.963,1.963,0,0,1,1.05.713A2.04,2.04,0,0,1,8.073-12.3Zm-1.252-.229a1.291,1.291,0,0,0-.082-.457,1.3,1.3,0,0,0-.218-.381,1.021,1.021,0,0,0-.332-.261.936.936,0,0,0-.424-.1H3.219v2.362H5.69a1.08,1.08,0,0,0,.446-.093,1.142,1.142,0,0,0,.359-.25,1.161,1.161,0,0,0,.239-.37A1.178,1.178,0,0,0,6.821-12.525Zm-3.6-4.451V-14.7H5.461a1,1,0,0,0,.419-.087,1.148,1.148,0,0,0,.337-.234,1.026,1.026,0,0,0,.229-.354,1.235,1.235,0,0,0,.082-.457,1.2,1.2,0,0,0-.283-.822.916.916,0,0,0-.718-.321ZM11.774-10.2a3.028,3.028,0,0,1-1.208-.234,2.812,2.812,0,0,1-.931-.637,2.87,2.87,0,0,1-.6-.936,3.033,3.033,0,0,1-.212-1.132,3.075,3.075,0,0,1,.212-1.137,2.919,2.919,0,0,1,.6-.947,2.772,2.772,0,0,1,.931-.642,3.056,3.056,0,0,1,1.219-.234,2.93,2.93,0,0,1,1.2.239,2.876,2.876,0,0,1,.92.637,2.724,2.724,0,0,1,.582.925,3.073,3.073,0,0,1,.2,1.1q0,.131-.011.245t-.022.19H10.1a1.949,1.949,0,0,0,.18.686,1.8,1.8,0,0,0,.381.528,1.659,1.659,0,0,0,.533.343,1.67,1.67,0,0,0,.626.12,1.9,1.9,0,0,0,.473-.06,1.669,1.669,0,0,0,.43-.174,1.524,1.524,0,0,0,.348-.278,1.3,1.3,0,0,0,.239-.359l1.023.294a2.372,2.372,0,0,1-.974,1.05A3.018,3.018,0,0,1,11.774-10.2ZM13.5-13.581a1.914,1.914,0,0,0-.18-.664,1.71,1.71,0,0,0-.375-.517,1.675,1.675,0,0,0-.533-.332,1.74,1.74,0,0,0-.642-.12,1.7,1.7,0,0,0-.637.12,1.691,1.691,0,0,0-.528.332,1.636,1.636,0,0,0-.37.517,1.992,1.992,0,0,0-.174.664ZM17.738-10.2a4.359,4.359,0,0,1-1.366-.223,3.464,3.464,0,0,1-1.17-.637l.479-.762a4.42,4.42,0,0,0,1.012.561,2.855,2.855,0,0,0,1.023.19,1.5,1.5,0,0,0,.843-.207.665.665,0,0,0,.31-.588.544.544,0,0,0-.348-.522,6.969,6.969,0,0,0-1.088-.359q-.533-.141-.914-.272a2.353,2.353,0,0,1-.62-.3,1.07,1.07,0,0,1-.348-.4,1.283,1.283,0,0,1-.109-.555,1.705,1.705,0,0,1,.169-.773,1.658,1.658,0,0,1,.468-.571,2.1,2.1,0,0,1,.7-.354,3.043,3.043,0,0,1,.871-.12,3.572,3.572,0,0,1,1.2.2,3.116,3.116,0,0,1,.99.566l-.512.718a2.668,2.668,0,0,0-1.687-.631,1.441,1.441,0,0,0-.767.19.656.656,0,0,0-.31.6.607.607,0,0,0,.065.294.554.554,0,0,0,.212.207,1.748,1.748,0,0,0,.381.158q.234.071.582.158.577.141,1,.283a2.727,2.727,0,0,1,.691.332,1.231,1.231,0,0,1,.4.446,1.338,1.338,0,0,1,.131.615,1.54,1.54,0,0,1-.615,1.29A2.673,2.673,0,0,1,17.738-10.2Zm6.5-.4a6,6,0,0,1-.631.245,2.669,2.669,0,0,1-.86.136,1.822,1.822,0,0,1-.533-.076,1.306,1.306,0,0,1-.441-.229,1.038,1.038,0,0,1-.3-.4,1.456,1.456,0,0,1-.109-.593v-3.559h-.751V-16h.751v-1.872h1.2V-16H23.8v.925H22.559v3.178a.591.591,0,0,0,.19.441.646.646,0,0,0,.419.136,1.334,1.334,0,0,0,.479-.087q.229-.087.337-.141Zm6.683,0a6,6,0,0,1-.631.245,2.669,2.669,0,0,1-.86.136,1.822,1.822,0,0,1-.533-.076,1.306,1.306,0,0,1-.441-.229,1.038,1.038,0,0,1-.3-.4,1.456,1.456,0,0,1-.109-.593v-3.559h-.751V-16h.751v-1.872h1.2V-16h1.241v.925H29.242v3.178a.591.591,0,0,0,.19.441.646.646,0,0,0,.419.136,1.334,1.334,0,0,0,.479-.087q.229-.087.337-.141Zm3.113.4a2.957,2.957,0,0,1-1.214-.239,2.833,2.833,0,0,1-.92-.642,2.83,2.83,0,0,1-.588-.941,3.117,3.117,0,0,1-.207-1.126,3.117,3.117,0,0,1,.207-1.126,2.786,2.786,0,0,1,.593-.941,2.9,2.9,0,0,1,.925-.642,2.93,2.93,0,0,1,1.2-.239,2.929,2.929,0,0,1,1.2.239,2.9,2.9,0,0,1,.925.642,2.786,2.786,0,0,1,.593.941,3.117,3.117,0,0,1,.207,1.126,3.117,3.117,0,0,1-.207,1.126,2.786,2.786,0,0,1-.593.941,2.9,2.9,0,0,1-.925.642A2.929,2.929,0,0,1,34.031-10.2Zm-1.7-2.939a2.153,2.153,0,0,0,.131.762,1.894,1.894,0,0,0,.359.6,1.68,1.68,0,0,0,.539.4,1.544,1.544,0,0,0,.669.147,1.544,1.544,0,0,0,.669-.147,1.645,1.645,0,0,0,.539-.408,1.961,1.961,0,0,0,.359-.609,2.153,2.153,0,0,0,.131-.762A2.166,2.166,0,0,0,35.6-13.9a1.948,1.948,0,0,0-.359-.615,1.645,1.645,0,0,0-.539-.408,1.544,1.544,0,0,0-.669-.147,1.474,1.474,0,0,0-.658.152,1.712,1.712,0,0,0-.539.414,2.031,2.031,0,0,0-.365.615A2.089,2.089,0,0,0,32.333-13.135Zm8.25,2.939a2.957,2.957,0,0,1-1.214-.239,2.833,2.833,0,0,1-.92-.642,2.83,2.83,0,0,1-.588-.941,3.117,3.117,0,0,1-.207-1.126,3.117,3.117,0,0,1,.207-1.126,2.786,2.786,0,0,1,.593-.941,2.9,2.9,0,0,1,.925-.642,2.93,2.93,0,0,1,1.2-.239,2.93,2.93,0,0,1,1.2.239,2.9,2.9,0,0,1,.925.642,2.786,2.786,0,0,1,.593.941,3.117,3.117,0,0,1,.207,1.126,3.117,3.117,0,0,1-.207,1.126,2.786,2.786,0,0,1-.593.941,2.9,2.9,0,0,1-.925.642A2.93,2.93,0,0,1,40.583-10.2Zm-1.7-2.939a2.153,2.153,0,0,0,.131.762,1.894,1.894,0,0,0,.359.6,1.68,1.68,0,0,0,.539.4,1.544,1.544,0,0,0,.669.147,1.544,1.544,0,0,0,.669-.147,1.645,1.645,0,0,0,.539-.408,1.961,1.961,0,0,0,.359-.609,2.153,2.153,0,0,0,.131-.762,2.166,2.166,0,0,0-.131-.756,1.948,1.948,0,0,0-.359-.615,1.645,1.645,0,0,0-.539-.408,1.544,1.544,0,0,0-.669-.147,1.474,1.474,0,0,0-.658.152,1.712,1.712,0,0,0-.539.414,2.031,2.031,0,0,0-.365.615A2.089,2.089,0,0,0,38.885-13.135Zm5.7-5.115h1.2v6.3a.709.709,0,0,0,.163.5.586.586,0,0,0,.457.18,1.062,1.062,0,0,0,.278-.044q.158-.044.3-.1l.174.936a2.786,2.786,0,0,1-.62.19,3.361,3.361,0,0,1-.642.071,1.315,1.315,0,0,1-.963-.337,1.283,1.283,0,0,1-.343-.958ZM49.921-10.2a4.359,4.359,0,0,1-1.366-.223,3.463,3.463,0,0,1-1.17-.637l.479-.762a4.42,4.42,0,0,0,1.012.561,2.855,2.855,0,0,0,1.023.19,1.5,1.5,0,0,0,.843-.207.665.665,0,0,0,.31-.588.544.544,0,0,0-.348-.522,6.969,6.969,0,0,0-1.088-.359q-.533-.141-.914-.272a2.353,2.353,0,0,1-.62-.3,1.07,1.07,0,0,1-.348-.4,1.283,1.283,0,0,1-.109-.555,1.705,1.705,0,0,1,.169-.773,1.658,1.658,0,0,1,.468-.571,2.1,2.1,0,0,1,.7-.354,3.043,3.043,0,0,1,.871-.12,3.572,3.572,0,0,1,1.2.2,3.116,3.116,0,0,1,.99.566l-.512.718a2.668,2.668,0,0,0-1.687-.631,1.441,1.441,0,0,0-.767.19.656.656,0,0,0-.31.6.607.607,0,0,0,.065.294.555.555,0,0,0,.212.207,1.748,1.748,0,0,0,.381.158q.234.071.582.158.577.141,1,.283a2.727,2.727,0,0,1,.691.332,1.231,1.231,0,0,1,.4.446,1.338,1.338,0,0,1,.131.615,1.54,1.54,0,0,1-.615,1.29A2.673,2.673,0,0,1,49.921-10.2Zm8.087,0a4.359,4.359,0,0,1-1.366-.223,3.464,3.464,0,0,1-1.17-.637l.479-.762a4.42,4.42,0,0,0,1.012.561,2.855,2.855,0,0,0,1.023.19,1.5,1.5,0,0,0,.843-.207.665.665,0,0,0,.31-.588.544.544,0,0,0-.348-.522,6.969,6.969,0,0,0-1.088-.359q-.533-.141-.914-.272a2.353,2.353,0,0,1-.62-.3,1.07,1.07,0,0,1-.348-.4,1.283,1.283,0,0,1-.109-.555,1.705,1.705,0,0,1,.169-.773,1.658,1.658,0,0,1,.468-.571,2.1,2.1,0,0,1,.7-.354,3.043,3.043,0,0,1,.871-.12,3.572,3.572,0,0,1,1.2.2,3.116,3.116,0,0,1,.99.566l-.512.718a2.668,2.668,0,0,0-1.687-.631,1.441,1.441,0,0,0-.767.19.656.656,0,0,0-.31.6.607.607,0,0,0,.065.294.554.554,0,0,0,.212.207,1.748,1.748,0,0,0,.381.158q.234.071.582.158.577.141,1,.283a2.727,2.727,0,0,1,.691.332,1.231,1.231,0,0,1,.4.446,1.338,1.338,0,0,1,.131.615,1.54,1.54,0,0,1-.615,1.29A2.673,2.673,0,0,1,58.007-10.2Zm5.91,0a3.027,3.027,0,0,1-1.208-.234,2.812,2.812,0,0,1-.931-.637,2.87,2.87,0,0,1-.6-.936,3.033,3.033,0,0,1-.212-1.132,3.075,3.075,0,0,1,.212-1.137,2.919,2.919,0,0,1,.6-.947,2.772,2.772,0,0,1,.931-.642,3.056,3.056,0,0,1,1.219-.234,2.93,2.93,0,0,1,1.2.239,2.876,2.876,0,0,1,.92.637,2.724,2.724,0,0,1,.582.925,3.073,3.073,0,0,1,.2,1.1q0,.131-.011.245t-.022.19h-4.56a1.949,1.949,0,0,0,.18.686,1.8,1.8,0,0,0,.381.528,1.659,1.659,0,0,0,.533.343,1.67,1.67,0,0,0,.626.12,1.9,1.9,0,0,0,.473-.06,1.669,1.669,0,0,0,.43-.174,1.523,1.523,0,0,0,.348-.278,1.3,1.3,0,0,0,.239-.359l1.023.294A2.372,2.372,0,0,1,65.5-10.6,3.018,3.018,0,0,1,63.917-10.2Zm1.731-3.385a1.914,1.914,0,0,0-.18-.664,1.709,1.709,0,0,0-.375-.517,1.675,1.675,0,0,0-.533-.332,1.74,1.74,0,0,0-.642-.12,1.7,1.7,0,0,0-.637.12,1.691,1.691,0,0,0-.528.332,1.636,1.636,0,0,0-.37.517,1.992,1.992,0,0,0-.174.664ZM69.326-10.2a2.12,2.12,0,0,1-.767-.136,1.855,1.855,0,0,1-.609-.375,1.751,1.751,0,0,1-.4-.566,1.7,1.7,0,0,1-.147-.707,1.525,1.525,0,0,1,.174-.729,1.7,1.7,0,0,1,.5-.566,2.4,2.4,0,0,1,.762-.37,3.42,3.42,0,0,1,.974-.131,4.463,4.463,0,0,1,.795.071,4,4,0,0,1,.707.19v-.392a1.32,1.32,0,0,0-.359-.985,1.413,1.413,0,0,0-1.034-.354,2.493,2.493,0,0,0-.9.169,4.542,4.542,0,0,0-.909.484l-.37-.762a4.036,4.036,0,0,1,2.286-.74,2.606,2.606,0,0,1,1.828.6,2.216,2.216,0,0,1,.653,1.72v2.057q0,.381.316.392V-10.3q-.174.033-.3.044t-.245.011a.77.77,0,0,1-.539-.174.745.745,0,0,1-.234-.446l-.033-.359a2.538,2.538,0,0,1-.941.767A2.764,2.764,0,0,1,69.326-10.2Zm.327-.882a2.152,2.152,0,0,0,.822-.158,1.417,1.417,0,0,0,.6-.441.552.552,0,0,0,.229-.414v-.751a3.619,3.619,0,0,0-.648-.185,3.574,3.574,0,0,0-.669-.065,1.831,1.831,0,0,0-1.05.278.85.85,0,0,0-.408.735.927.927,0,0,0,.316.713A1.148,1.148,0,0,0,69.653-11.078Zm13.006.773h-1.2v-3.189a2.048,2.048,0,0,0-.261-1.165.874.874,0,0,0-.762-.37,1.362,1.362,0,0,0-.931.375,2.114,2.114,0,0,0-.6.974V-10.3h-1.2v-3.189a2.044,2.044,0,0,0-.261-1.17.867.867,0,0,0-.751-.365,1.393,1.393,0,0,0-.936.37,2.058,2.058,0,0,0-.609.969V-10.3h-1.2V-16H75.04v1.143a2.4,2.4,0,0,1,.887-.92,2.446,2.446,0,0,1,1.257-.321,1.6,1.6,0,0,1,1.116.37,1.585,1.585,0,0,1,.506.925,2.606,2.606,0,0,1,.9-.963A2.335,2.335,0,0,1,80.95-16.1a1.653,1.653,0,0,1,.833.19,1.472,1.472,0,0,1,.528.506,2.087,2.087,0,0,1,.272.735,4.956,4.956,0,0,1,.076.887Zm1.393-7.945h1.2v6.3a.709.709,0,0,0,.163.5.586.586,0,0,0,.457.18,1.062,1.062,0,0,0,.278-.044q.158-.044.3-.1l.174.936a2.785,2.785,0,0,1-.62.19,3.361,3.361,0,0,1-.642.071,1.315,1.315,0,0,1-.963-.337,1.283,1.283,0,0,1-.343-.958ZM89.9-10.2a3.027,3.027,0,0,1-1.208-.234,2.812,2.812,0,0,1-.931-.637,2.87,2.87,0,0,1-.6-.936,3.033,3.033,0,0,1-.212-1.132,3.075,3.075,0,0,1,.212-1.137,2.919,2.919,0,0,1,.6-.947,2.772,2.772,0,0,1,.931-.642,3.056,3.056,0,0,1,1.219-.234,2.93,2.93,0,0,1,1.2.239,2.875,2.875,0,0,1,.92.637,2.724,2.724,0,0,1,.582.925,3.073,3.073,0,0,1,.2,1.1q0,.131-.011.245t-.022.19H88.22a1.949,1.949,0,0,0,.18.686,1.8,1.8,0,0,0,.381.528,1.659,1.659,0,0,0,.533.343,1.67,1.67,0,0,0,.626.12,1.9,1.9,0,0,0,.473-.06,1.669,1.669,0,0,0,.43-.174,1.524,1.524,0,0,0,.348-.278,1.3,1.3,0,0,0,.239-.359l1.023.294a2.372,2.372,0,0,1-.974,1.05A3.018,3.018,0,0,1,89.9-10.2Zm1.73-3.385a1.914,1.914,0,0,0-.18-.664,1.709,1.709,0,0,0-.375-.517,1.675,1.675,0,0,0-.533-.332,1.74,1.74,0,0,0-.642-.12,1.7,1.7,0,0,0-.637.12,1.691,1.691,0,0,0-.528.332,1.636,1.636,0,0,0-.37.517,1.992,1.992,0,0,0-.174.664ZM95.861-10.2a4.359,4.359,0,0,1-1.366-.223,3.463,3.463,0,0,1-1.17-.637l.479-.762a4.42,4.42,0,0,0,1.012.561,2.855,2.855,0,0,0,1.023.19,1.5,1.5,0,0,0,.843-.207.665.665,0,0,0,.31-.588.544.544,0,0,0-.348-.522,6.969,6.969,0,0,0-1.088-.359q-.533-.141-.914-.272a2.353,2.353,0,0,1-.62-.3,1.07,1.07,0,0,1-.348-.4,1.283,1.283,0,0,1-.109-.555,1.705,1.705,0,0,1,.169-.773,1.658,1.658,0,0,1,.468-.571,2.1,2.1,0,0,1,.7-.354,3.043,3.043,0,0,1,.871-.12,3.572,3.572,0,0,1,1.2.2,3.116,3.116,0,0,1,.99.566l-.512.718a2.668,2.668,0,0,0-1.687-.631,1.441,1.441,0,0,0-.767.19.656.656,0,0,0-.31.6.607.607,0,0,0,.065.294.555.555,0,0,0,.212.207,1.748,1.748,0,0,0,.381.158q.234.071.582.158.577.141,1,.283a2.727,2.727,0,0,1,.691.332,1.231,1.231,0,0,1,.4.446,1.338,1.338,0,0,1,.131.615,1.54,1.54,0,0,1-.615,1.29A2.673,2.673,0,0,1,95.861-10.2Zm5.4,0a4.359,4.359,0,0,1-1.366-.223,3.464,3.464,0,0,1-1.17-.637l.479-.762a4.42,4.42,0,0,0,1.012.561,2.855,2.855,0,0,0,1.023.19,1.5,1.5,0,0,0,.843-.207.665.665,0,0,0,.31-.588.544.544,0,0,0-.348-.522,6.97,6.97,0,0,0-1.088-.359q-.533-.141-.914-.272a2.353,2.353,0,0,1-.62-.3,1.07,1.07,0,0,1-.348-.4,1.283,1.283,0,0,1-.109-.555,1.705,1.705,0,0,1,.169-.773,1.658,1.658,0,0,1,.468-.571,2.1,2.1,0,0,1,.7-.354,3.043,3.043,0,0,1,.871-.12,3.572,3.572,0,0,1,1.2.2,3.116,3.116,0,0,1,.99.566l-.512.718a2.668,2.668,0,0,0-1.687-.631,1.441,1.441,0,0,0-.767.19.656.656,0,0,0-.31.6.607.607,0,0,0,.065.294.554.554,0,0,0,.212.207,1.748,1.748,0,0,0,.381.158q.234.071.582.158.577.141,1,.283a2.727,2.727,0,0,1,.691.332,1.231,1.231,0,0,1,.4.446,1.338,1.338,0,0,1,.131.615,1.54,1.54,0,0,1-.615,1.29A2.673,2.673,0,0,1,101.259-10.2ZM104.6-18.25h1.2v6.3a.709.709,0,0,0,.163.5.586.586,0,0,0,.457.18,1.061,1.061,0,0,0,.278-.044q.158-.044.3-.1l.174.936a2.786,2.786,0,0,1-.62.19,3.361,3.361,0,0,1-.642.071,1.315,1.315,0,0,1-.963-.337,1.283,1.283,0,0,1-.343-.958Zm3.222,9.284q.163.033.321.054a1.957,1.957,0,0,0,.256.022.48.48,0,0,0,.245-.06.73.73,0,0,0,.212-.212,2.2,2.2,0,0,0,.223-.43q.114-.278.267-.713L107.006-16h1.23L110-11.361,111.566-16H112.7l-2.579,7.009a1.773,1.773,0,0,1-.6.822,1.756,1.756,0,0,1-1.1.332,2.375,2.375,0,0,1-.272-.016,1.739,1.739,0,0,1-.316-.071Zm10.437-1.23a3.028,3.028,0,0,1-1.208-.234,2.811,2.811,0,0,1-.931-.637,2.87,2.87,0,0,1-.6-.936,3.033,3.033,0,0,1-.212-1.132,3.075,3.075,0,0,1,.212-1.137,2.918,2.918,0,0,1,.6-.947,2.772,2.772,0,0,1,.931-.642,3.056,3.056,0,0,1,1.219-.234,2.929,2.929,0,0,1,1.2.239,2.875,2.875,0,0,1,.92.637,2.724,2.724,0,0,1,.582.925,3.073,3.073,0,0,1,.2,1.1q0,.131-.011.245t-.022.19h-4.56a1.949,1.949,0,0,0,.18.686,1.8,1.8,0,0,0,.381.528,1.659,1.659,0,0,0,.533.343,1.67,1.67,0,0,0,.626.12,1.9,1.9,0,0,0,.473-.06,1.67,1.67,0,0,0,.43-.174,1.524,1.524,0,0,0,.348-.278,1.3,1.3,0,0,0,.239-.359l1.023.294a2.372,2.372,0,0,1-.974,1.05A3.018,3.018,0,0,1,118.259-10.2Zm1.73-3.385a1.914,1.914,0,0,0-.18-.664,1.709,1.709,0,0,0-.375-.517,1.675,1.675,0,0,0-.533-.332,1.74,1.74,0,0,0-.642-.12,1.7,1.7,0,0,0-.637.12,1.691,1.691,0,0,0-.528.332,1.636,1.636,0,0,0-.37.517,1.993,1.993,0,0,0-.174.664Zm2.177-4.669h1.2v6.3a.709.709,0,0,0,.163.5.586.586,0,0,0,.457.18,1.062,1.062,0,0,0,.278-.044q.158-.044.3-.1l.174.936a2.786,2.786,0,0,1-.62.19,3.361,3.361,0,0,1-.642.071,1.315,1.315,0,0,1-.963-.337,1.283,1.283,0,0,1-.343-.958Zm5.845,8.054a3.028,3.028,0,0,1-1.208-.234,2.811,2.811,0,0,1-.931-.637,2.87,2.87,0,0,1-.6-.936,3.033,3.033,0,0,1-.212-1.132,3.075,3.075,0,0,1,.212-1.137,2.918,2.918,0,0,1,.6-.947,2.772,2.772,0,0,1,.931-.642,3.056,3.056,0,0,1,1.219-.234,2.93,2.93,0,0,1,1.2.239,2.876,2.876,0,0,1,.92.637,2.724,2.724,0,0,1,.582.925,3.073,3.073,0,0,1,.2,1.1q0,.131-.011.245t-.022.19h-4.56a1.948,1.948,0,0,0,.18.686,1.8,1.8,0,0,0,.381.528,1.659,1.659,0,0,0,.533.343,1.67,1.67,0,0,0,.626.12,1.9,1.9,0,0,0,.473-.06,1.67,1.67,0,0,0,.43-.174,1.523,1.523,0,0,0,.348-.278,1.3,1.3,0,0,0,.239-.359l1.023.294a2.372,2.372,0,0,1-.974,1.05A3.018,3.018,0,0,1,128.011-10.2Zm1.73-3.385a1.914,1.914,0,0,0-.18-.664,1.71,1.71,0,0,0-.376-.517,1.675,1.675,0,0,0-.533-.332,1.74,1.74,0,0,0-.642-.12,1.7,1.7,0,0,0-.637.12,1.691,1.691,0,0,0-.528.332,1.636,1.636,0,0,0-.37.517,1.993,1.993,0,0,0-.174.664Zm3.472,3.276L131.037-16h1.23l1.633,4.68L135.543-16h1.132L134.5-10.3Zm5.54.109a2.12,2.12,0,0,1-.767-.136,1.855,1.855,0,0,1-.609-.375,1.751,1.751,0,0,1-.4-.566,1.7,1.7,0,0,1-.147-.707A1.525,1.525,0,0,1,137-12.71a1.7,1.7,0,0,1,.5-.566,2.4,2.4,0,0,1,.762-.37,3.42,3.42,0,0,1,.974-.131,4.462,4.462,0,0,1,.794.071,4,4,0,0,1,.707.19v-.392a1.32,1.32,0,0,0-.359-.985,1.412,1.412,0,0,0-1.034-.354,2.493,2.493,0,0,0-.9.169,4.542,4.542,0,0,0-.909.484l-.37-.762a4.036,4.036,0,0,1,2.286-.74,2.606,2.606,0,0,1,1.828.6,2.216,2.216,0,0,1,.653,1.72v2.057q0,.381.316.392V-10.3q-.174.033-.3.044t-.245.011a.77.77,0,0,1-.539-.174.745.745,0,0,1-.234-.446l-.033-.359a2.538,2.538,0,0,1-.941.767A2.764,2.764,0,0,1,138.753-10.2Zm.327-.882a2.152,2.152,0,0,0,.822-.158,1.417,1.417,0,0,0,.6-.441.552.552,0,0,0,.229-.414v-.751a3.619,3.619,0,0,0-.648-.185,3.573,3.573,0,0,0-.669-.065,1.831,1.831,0,0,0-1.05.278.85.85,0,0,0-.408.735.927.927,0,0,0,.316.713A1.148,1.148,0,0,0,139.08-11.078Zm7.39.479a6,6,0,0,1-.631.245,2.669,2.669,0,0,1-.86.136,1.822,1.822,0,0,1-.533-.076,1.306,1.306,0,0,1-.441-.229,1.038,1.038,0,0,1-.3-.4,1.456,1.456,0,0,1-.109-.593v-3.559h-.751V-16h.751v-1.872h1.2V-16h1.241v.925h-1.241v3.178a.591.591,0,0,0,.19.441.646.646,0,0,0,.419.136,1.334,1.334,0,0,0,.479-.087q.229-.087.337-.141Zm3.135.4a3.028,3.028,0,0,1-1.208-.234,2.811,2.811,0,0,1-.931-.637,2.87,2.87,0,0,1-.6-.936,3.033,3.033,0,0,1-.212-1.132,3.075,3.075,0,0,1,.212-1.137,2.918,2.918,0,0,1,.6-.947,2.772,2.772,0,0,1,.931-.642,3.056,3.056,0,0,1,1.219-.234,2.929,2.929,0,0,1,1.2.239,2.875,2.875,0,0,1,.92.637,2.724,2.724,0,0,1,.582.925,3.073,3.073,0,0,1,.2,1.1q0,.131-.011.245t-.022.19h-4.56a1.949,1.949,0,0,0,.18.686,1.8,1.8,0,0,0,.381.528,1.658,1.658,0,0,0,.533.343,1.67,1.67,0,0,0,.626.12,1.9,1.9,0,0,0,.473-.06,1.669,1.669,0,0,0,.43-.174,1.523,1.523,0,0,0,.348-.278,1.3,1.3,0,0,0,.239-.359l1.023.294a2.372,2.372,0,0,1-.974,1.05A3.018,3.018,0,0,1,149.6-10.2Zm1.73-3.385a1.914,1.914,0,0,0-.18-.664,1.709,1.709,0,0,0-.375-.517,1.675,1.675,0,0,0-.533-.332,1.74,1.74,0,0,0-.642-.12,1.7,1.7,0,0,0-.637.12,1.691,1.691,0,0,0-.528.332,1.637,1.637,0,0,0-.37.517,1.993,1.993,0,0,0-.174.664Zm8.087,3.385a2.232,2.232,0,0,1-1.208-.327,2.437,2.437,0,0,1-.827-.849v3.385h-1.2V-16h1.056v1.023a2.486,2.486,0,0,1,.843-.816,2.26,2.26,0,0,1,1.17-.3,2.42,2.42,0,0,1,1.077.239,2.737,2.737,0,0,1,.849.642,2.963,2.963,0,0,1,.561.936,3.147,3.147,0,0,1,.2,1.121A3.545,3.545,0,0,1,161.761-12a2.868,2.868,0,0,1-.522.936,2.55,2.55,0,0,1-.8.631A2.222,2.222,0,0,1,159.421-10.2Zm-.392-1.023a1.461,1.461,0,0,0,.691-.163,1.718,1.718,0,0,0,.533-.435,1.988,1.988,0,0,0,.343-.62,2.195,2.195,0,0,0,.12-.718,2.016,2.016,0,0,0-.136-.74,1.988,1.988,0,0,0-.37-.609,1.72,1.72,0,0,0-.561-.414,1.652,1.652,0,0,0-.707-.152,1.457,1.457,0,0,0-.479.087,1.9,1.9,0,0,0-.468.239,1.862,1.862,0,0,0-.381.354,1.192,1.192,0,0,0-.229.441v1.491a2.2,2.2,0,0,0,.283.49,2.084,2.084,0,0,0,.386.392,1.876,1.876,0,0,0,.463.261A1.393,1.393,0,0,0,159.03-11.219Zm7.194-3.744a2.678,2.678,0,0,0-1.235.321,1.692,1.692,0,0,0-.767.854V-10.3h-1.2V-16h1.11v1.273a2.6,2.6,0,0,1,.767-.941,1.861,1.861,0,0,1,1.018-.386h.18a.643.643,0,0,1,.125.011Zm2.862,4.767a2.957,2.957,0,0,1-1.214-.239,2.833,2.833,0,0,1-.92-.642,2.83,2.83,0,0,1-.588-.941,3.117,3.117,0,0,1-.207-1.126,3.117,3.117,0,0,1,.207-1.126,2.786,2.786,0,0,1,.593-.941,2.9,2.9,0,0,1,.925-.642,2.929,2.929,0,0,1,1.2-.239,2.93,2.93,0,0,1,1.2.239,2.9,2.9,0,0,1,.925.642,2.786,2.786,0,0,1,.593.941,3.117,3.117,0,0,1,.207,1.126,3.117,3.117,0,0,1-.207,1.126,2.786,2.786,0,0,1-.593.941,2.9,2.9,0,0,1-.925.642A2.93,2.93,0,0,1,169.086-10.2Zm-1.7-2.939a2.153,2.153,0,0,0,.131.762,1.894,1.894,0,0,0,.359.6,1.68,1.68,0,0,0,.539.4,1.544,1.544,0,0,0,.669.147,1.544,1.544,0,0,0,.669-.147,1.644,1.644,0,0,0,.539-.408,1.961,1.961,0,0,0,.359-.609,2.153,2.153,0,0,0,.131-.762,2.167,2.167,0,0,0-.131-.756,1.947,1.947,0,0,0-.359-.615,1.644,1.644,0,0,0-.539-.408,1.544,1.544,0,0,0-.669-.147,1.474,1.474,0,0,0-.658.152,1.712,1.712,0,0,0-.539.414,2.031,2.031,0,0,0-.365.615A2.089,2.089,0,0,0,167.388-13.135Zm5.094,4.909a2.261,2.261,0,0,1-.74-.12,1.855,1.855,0,0,1-.631-.37l.533-.805a.871.871,0,0,0,.327.19,1.2,1.2,0,0,0,.37.06A.789.789,0,0,0,172.9-9.5a.785.785,0,0,0,.245-.593V-16h1.2v5.812a2.08,2.08,0,0,1-.147.795,1.909,1.909,0,0,1-.4.62,1.792,1.792,0,0,1-.593.4A1.838,1.838,0,0,1,172.482-8.226Zm.664-8.707V-18.25h1.2v1.317Zm5.213,6.737a3.028,3.028,0,0,1-1.208-.234,2.811,2.811,0,0,1-.931-.637,2.87,2.87,0,0,1-.6-.936,3.033,3.033,0,0,1-.212-1.132,3.075,3.075,0,0,1,.212-1.137,2.918,2.918,0,0,1,.6-.947,2.772,2.772,0,0,1,.931-.642,3.056,3.056,0,0,1,1.219-.234,2.929,2.929,0,0,1,1.2.239,2.875,2.875,0,0,1,.92.637,2.724,2.724,0,0,1,.582.925,3.073,3.073,0,0,1,.2,1.1q0,.131-.011.245t-.022.19h-4.56a1.949,1.949,0,0,0,.18.686,1.8,1.8,0,0,0,.381.528,1.658,1.658,0,0,0,.533.343,1.67,1.67,0,0,0,.626.12,1.9,1.9,0,0,0,.473-.06,1.669,1.669,0,0,0,.43-.174,1.523,1.523,0,0,0,.348-.278,1.3,1.3,0,0,0,.239-.359l1.023.294a2.372,2.372,0,0,1-.974,1.05A3.018,3.018,0,0,1,178.359-10.2Zm1.73-3.385a1.914,1.914,0,0,0-.18-.664,1.709,1.709,0,0,0-.375-.517,1.675,1.675,0,0,0-.533-.332,1.74,1.74,0,0,0-.642-.12,1.7,1.7,0,0,0-.637.12,1.691,1.691,0,0,0-.528.332,1.636,1.636,0,0,0-.37.517,1.993,1.993,0,0,0-.174.664Zm1.8.424a3.1,3.1,0,0,1,.207-1.132,2.8,2.8,0,0,1,.593-.936,2.811,2.811,0,0,1,.931-.637,3.056,3.056,0,0,1,1.219-.234,2.871,2.871,0,0,1,1.518.386,2.451,2.451,0,0,1,.952,1.029l-1.165.37a1.5,1.5,0,0,0-.555-.561,1.516,1.516,0,0,0-.773-.2,1.594,1.594,0,0,0-.669.141,1.613,1.613,0,0,0-.539.4,1.894,1.894,0,0,0-.359.6,2.186,2.186,0,0,0-.131.773,2.119,2.119,0,0,0,.136.767,1.972,1.972,0,0,0,.37.615,1.7,1.7,0,0,0,.544.408,1.519,1.519,0,0,0,.658.147,1.635,1.635,0,0,0,.435-.06,1.56,1.56,0,0,0,.4-.169,1.548,1.548,0,0,0,.316-.25.947.947,0,0,0,.2-.3l1.175.348a2.327,2.327,0,0,1-.947,1.05,2.933,2.933,0,0,1-1.567.408,2.968,2.968,0,0,1-1.208-.239,2.839,2.839,0,0,1-.931-.648,2.933,2.933,0,0,1-.6-.941A3.033,3.033,0,0,1,181.885-13.156Zm9.621,2.558a6,6,0,0,1-.631.245,2.669,2.669,0,0,1-.86.136,1.822,1.822,0,0,1-.533-.076,1.306,1.306,0,0,1-.441-.229,1.038,1.038,0,0,1-.3-.4,1.456,1.456,0,0,1-.109-.593v-3.559h-.751V-16h.751v-1.872h1.2V-16h1.241v.925H189.83v3.178a.591.591,0,0,0,.19.441.646.646,0,0,0,.419.136,1.334,1.334,0,0,0,.479-.087q.229-.087.337-.141Zm2.9.4a4.359,4.359,0,0,1-1.366-.223,3.464,3.464,0,0,1-1.17-.637l.479-.762a4.42,4.42,0,0,0,1.012.561,2.855,2.855,0,0,0,1.023.19,1.5,1.5,0,0,0,.843-.207.665.665,0,0,0,.31-.588.544.544,0,0,0-.348-.522,6.969,6.969,0,0,0-1.088-.359q-.533-.141-.914-.272a2.353,2.353,0,0,1-.62-.3,1.07,1.07,0,0,1-.348-.4,1.283,1.283,0,0,1-.109-.555,1.705,1.705,0,0,1,.169-.773,1.658,1.658,0,0,1,.468-.571,2.1,2.1,0,0,1,.7-.354,3.043,3.043,0,0,1,.871-.12,3.572,3.572,0,0,1,1.2.2,3.115,3.115,0,0,1,.99.566l-.512.718a2.668,2.668,0,0,0-1.687-.631,1.441,1.441,0,0,0-.767.19.656.656,0,0,0-.31.6.607.607,0,0,0,.065.294.555.555,0,0,0,.212.207,1.748,1.748,0,0,0,.381.158q.234.071.582.158.577.141,1,.283a2.727,2.727,0,0,1,.691.332,1.231,1.231,0,0,1,.4.446,1.338,1.338,0,0,1,.131.615,1.54,1.54,0,0,1-.615,1.29A2.673,2.673,0,0,1,194.4-10.2Z" transform="translate(51.513 70.545)" fill="#8e8e8e"/>
      <path id="Path_47581" data-name="Path 47581" d="M296.147,102.1H116.9c-1.757,0-3.182-.78-3.182-1.741s1.424-1.741,3.182-1.741H296.147c1.757,0,3.182.78,3.182,1.741s-1.424,1.741-3.182,1.741" transform="translate(-64.211 -55.686)" fill="#333"/>
      <path id="Path_47582" data-name="Path 47582" d="M551.05,63.2a1.741,1.741,0,1,1,0-3.483,13.787,13.787,0,0,0,5.365-26.486,1.742,1.742,0,0,1,1.357-3.208A17.27,17.27,0,0,1,551.05,63.2" transform="translate(-310.169 -16.872)" fill="#333"/>
    </g>
  </g>
</svg>
