<svg id="Inscribee_Logo" xmlns="http://www.w3.org/2000/svg" width="100%" height="100%" viewBox="0 0 165.103 33.041">
  <path id="Path_11724" data-name="Path 11724" d="M113.751,336.533h5.187v22.531h-5.187Zm13.35,8.878a4.278,4.278,0,0,0-1.086-3.126,4.122,4.122,0,0,0-3.082-1.107,4.023,4.023,0,0,0-2.952,1.031,3.93,3.93,0,0,0-1.042,2.92l-.455-4.667a8.1,8.1,0,0,1,2.572-3.17,6.222,6.222,0,0,1,3.657-1.085,6.856,6.856,0,0,1,5.59,2.4,10.364,10.364,0,0,1,1.986,6.783v13.675H127.1Z" transform="translate(-106.417 -326.461)" fill="#f05b5b"/>
  <path id="Path_11725" data-name="Path 11725" d="M143.941,359.01a15.857,15.857,0,0,1-3.419-1.118,13.109,13.109,0,0,1-2.874-1.8l3.147-3.907a14.212,14.212,0,0,0,3.506,1.846,10.481,10.481,0,0,0,3.483.629,7.968,7.968,0,0,0,3.592-.64,2.01,2.01,0,0,0,1.226-1.856,1.659,1.659,0,0,0-.606-1.4,3.566,3.566,0,0,0-1.531-.639q-.922-.174-2.594-.326l-.586-.043c-.2-.014-.4-.036-.586-.066a1.411,1.411,0,0,1-.174-.01,1.394,1.394,0,0,0-.174-.011,21.63,21.63,0,0,1-3.886-.726,5.065,5.065,0,0,1-2.55-1.79,6.078,6.078,0,0,1-1.032-3.8,7.074,7.074,0,0,1,1.032-3.918,6.32,6.32,0,0,1,3.027-2.41,13.036,13.036,0,0,1,4.906-.814,16.879,16.879,0,0,1,3.386.337,16.484,16.484,0,0,1,3.158.977,15.09,15.09,0,0,1,2.854,1.6l-3.1,3.777a14.56,14.56,0,0,0-3.2-1.454,10.645,10.645,0,0,0-3.137-.5,6.567,6.567,0,0,0-3.1.586,1.874,1.874,0,0,0-1.062,1.737,1.272,1.272,0,0,0,.586,1.128,3.661,3.661,0,0,0,1.465.532q.878.142,2.551.293c.116.014.227.026.336.033s.221.018.337.033h.151a.718.718,0,0,1,.174.022,23.263,23.263,0,0,1,4.146.716,5.529,5.529,0,0,1,2.8,1.9,6.44,6.44,0,0,1,1.151,4.135,7.14,7.14,0,0,1-1.085,4.026,6.611,6.611,0,0,1-3.224,2.474,14.44,14.44,0,0,1-5.242.837A18.841,18.841,0,0,1,143.941,359.01Z" transform="translate(-110.215 -326.461)" fill="#f05b5b"/>
  <path id="Path_11726" data-name="Path 11726" d="M167.7,358.207a7.932,7.932,0,0,1-3.408-3.452,11.813,11.813,0,0,1-1.173-5.481v-3.06a11.581,11.581,0,0,1,1.173-5.417,7.894,7.894,0,0,1,3.408-3.418,11.458,11.458,0,0,1,5.382-1.172,13.2,13.2,0,0,1,3.4.423,10.209,10.209,0,0,1,2.865,1.226,7.706,7.706,0,0,1,2.117,1.954l-3.517,3.3a6.1,6.1,0,0,0-2.085-1.433,6.383,6.383,0,0,0-2.494-.5,5.073,5.073,0,0,0-3.734,1.314,5.016,5.016,0,0,0-1.325,3.723v3.06a5.206,5.206,0,0,0,1.314,3.81,5.023,5.023,0,0,0,3.746,1.335,6.036,6.036,0,0,0,4.579-2.084l3.517,3.516a8.023,8.023,0,0,1-2.139,1.922,10.131,10.131,0,0,1-2.865,1.2,13.46,13.46,0,0,1-3.375.413,11.371,11.371,0,0,1-5.386-1.179Z" transform="translate(-114.568 -326.461)" fill="#f05b5b"/>
  <path id="Path_11727" data-name="Path 11727" d="M186.765,336.533h5.406v22.531h-5.406Zm11.266,4.938a4.886,4.886,0,0,0-1.758-.293,3.925,3.925,0,0,0-3.029,1.162,4.565,4.565,0,0,0-1.074,3.224l-.456-5.1a8.031,8.031,0,0,1,2.55-3.137,5.853,5.853,0,0,1,3.462-1.118,7.6,7.6,0,0,1,2.67.445,5.917,5.917,0,0,1,2.084,1.314l-3.169,4.363a3.365,3.365,0,0,0-1.28-.861Z" transform="translate(-118.648 -326.461)" fill="#f05b5b"/>
  <path id="Path_11728" data-name="Path 11728" d="M207.511,325.326h5.166v5.359h-5.166Zm0,9.328h5.166v23.274h-5.166Z" transform="translate(-122.401 -325.326)" fill="#f05b5b"/>
  <path id="Path_11729" data-name="Path 11729" d="M216.81,325.326H222v32.592h-5.19Zm7.1,31.886a6.08,6.08,0,0,1-2.214-2.947l.3-5.089a5.077,5.077,0,0,0,.455,2.253,3.229,3.229,0,0,0,1.325,1.423,4.194,4.194,0,0,0,2.106.494,3.709,3.709,0,0,0,3-1.256,5.364,5.364,0,0,0,1.064-3.563v-4.372a5.586,5.586,0,0,0-1.064-3.642,3.668,3.668,0,0,0-3-1.288,4.273,4.273,0,0,0-2.106.481,3.151,3.151,0,0,0-1.325,1.423,5.157,5.157,0,0,0-.455,2.265l-.455-4.819a7.77,7.77,0,0,1,2.528-3.15,5.913,5.913,0,0,1,3.483-1.109,7.173,7.173,0,0,1,4.092,1.142,7.089,7.089,0,0,1,2.594,3.352,14.228,14.228,0,0,1,.89,5.322v4.394a13.783,13.783,0,0,1-.9,5.256,7.082,7.082,0,0,1-2.637,3.328,7.368,7.368,0,0,1-4.146,1.144,6.031,6.031,0,0,1-3.537-1.047Z" transform="translate(-123.73 -325.326)" fill="#f05b5b"/>
  <path id="Path_11730" data-name="Path 11730" d="M246.028,358.217a7.962,7.962,0,0,1-3.451-3.441,11.633,11.633,0,0,1-1.194-5.48v-2.54a13.063,13.063,0,0,1,1.139-5.71,8.038,8.038,0,0,1,3.322-3.6,10.46,10.46,0,0,1,5.241-1.237,8.374,8.374,0,0,1,4.94,1.443,8.939,8.939,0,0,1,3.124,4.178,18.042,18.042,0,0,1,1.075,6.6v1.47h-15.3v-3.8h10.485l-.021-.239a6.446,6.446,0,0,0-1.325-3.668,3.7,3.7,0,0,0-2.974-1.3,4.56,4.56,0,0,0-3.625,1.465,6.122,6.122,0,0,0-1.28,4.157v2.866a4.82,4.82,0,0,0,5.3,5.318,6.889,6.889,0,0,0,2.529-.489,7.658,7.658,0,0,0,2.246-1.357l3.386,3.17a12.581,12.581,0,0,1-3.853,2.485,11.26,11.26,0,0,1-4.309.88,11.7,11.7,0,0,1-5.455-1.171Z" transform="translate(-127.907 -326.461)" fill="#f05b5b"/>
  <path id="Union_6" data-name="Union 6" d="M265.8,356.408a2.147,2.147,0,1,1,2.149,2.217A2.183,2.183,0,0,1,265.8,356.408Zm19.982,1.371c-.211,0-.426,0-.638-.01-2.366-.081-6.806-.666-9.958-3.682-.029-.027-.058-.056-.086-.086a.914.914,0,0,0-.61-.356h-.018a.986.986,0,0,0-.526.25l-.042.031a4.379,4.379,0,0,1-2.228.827c-.086.008-.176.011-.262.011a2.316,2.316,0,0,1-1.447-.463,2,2,0,0,1-.73-1.595,2.8,2.8,0,0,1,1.162-1.929,4.267,4.267,0,0,0,.992-1.188,1.936,1.936,0,0,0-.182-1.685,14.924,14.924,0,0,1,2.382-15.7,15.982,15.982,0,0,1,9.067-5.331,12.743,12.743,0,0,1,2.473-.256,5.865,5.865,0,0,1,5.45,2.746,8.9,8.9,0,0,1,.949,5.338,13.309,13.309,0,0,1-1.781,5.19,27.892,27.892,0,0,1-3.412,4.459c-.594.658-1.388,1.52-2.246,2.329a38.625,38.625,0,0,1-3.6,2.894h-.006l-.449.333a1.009,1.009,0,0,0-.443.685,1.053,1.053,0,0,0,.291.788,3.009,3.009,0,0,0,1.006.684,9.766,9.766,0,0,0,2.546.943,4.572,4.572,0,0,0,.794.072,3.375,3.375,0,0,0,1.829-.5,5.209,5.209,0,0,0,1.8-2.7l.2-.564a8.744,8.744,0,0,1,1.143-2.464,4.147,4.147,0,0,1,3.312-1.6,3.884,3.884,0,0,1,2.03.555,4.928,4.928,0,0,1,2.173,3.9,5.434,5.434,0,0,1-.006.748,6.782,6.782,0,0,1-1.7,3.841c-2.633,3.027-6.914,3.479-9.23,3.479Zm-6.144-22.267A11.973,11.973,0,0,0,277,338.693a8.212,8.212,0,0,0-.976,4.174c0,.23.02.465.035.691.018.271.036.551.036.827v.18c-.013.336-.029.755.289.921a.329.329,0,0,0,.155.039c.2,0,.37-.193.51-.349a.794.794,0,0,1,.077-.081c.393-.413.824-.8,1.239-1.176a16.494,16.494,0,0,0,1.494-1.454,24.537,24.537,0,0,0,2.19-3.074,7.913,7.913,0,0,0,1.238-3.185,1.811,1.811,0,0,0-.609-1.714,1.278,1.278,0,0,0-.717-.214,4.154,4.154,0,0,0-2.325,1.233Z" transform="translate(-131.624 -325.584)" fill="#f05b5b"/>
  <path id="Path_11731" data-name="Path 11731" d="M104.583,325.392h5.166v5.359h-5.166Zm0,9.328h5.166v23.274h-5.166Z" transform="translate(-104.583 -325.34)" fill="#f05b5b"/>
</svg>
