<svg id="Raven_logo-black" xmlns="http://www.w3.org/2000/svg" xmlns:xlink="http://www.w3.org/1999/xlink" width="100%" height="100%" viewBox="0 0 169 57.569">
  <defs>
    <clipPath id="clip-path">
      <rect id="Rectangle_2254" data-name="Rectangle 2254" width="169" height="57.569" fill="none"/>
    </clipPath>
  </defs>
  <g id="Group_3790" data-name="Group 3790" clip-path="url(#clip-path)">
    <path id="Path_13072" data-name="Path 13072" d="M66.17,35.438S54.127,41.859,46.1,46.541c-6.143,3.585-16.163,10.1-16.163,10.1s-5.011,2.7-11.563-1.156S8.739,47.394,7.58,46.623a6.324,6.324,0,0,0-3.546-.806.374.374,0,0,0-.147-.046c-.309-.02-.617-.023-.926-.031H2.954c-.282,0-.559-.012-.84-.031-.139-.008-.282-.02-.424-.02a.6.6,0,0,1,.031-.069c.031-.046.061-.1.093-.142A9.377,9.377,0,0,1,3.73,43.364c1.237-1.006,2.662-2.7,4.23-2.836,2.82-.235,5.394,2.736,7.667,4.127,2.089,1.276,3.76,2.562,6.382,2.562a17.9,17.9,0,0,0,7.359-1.338c.835-.417,3.18-1.585,4.015-2.007,6.512-3.3,6.1-3.243,8.028-4.015a25.067,25.067,0,0,1,2.676-1.338l22.016-3.1a.207.207,0,0,1,.061.031" transform="translate(-0.56 -11.719)"/>
    <path id="Path_13073" data-name="Path 13073" d="M2.328,49.666a6.806,6.806,0,0,1,1.464-.186c.052-.281.1-.562.146-.844-.013-.083-.026-.168-.041-.248a3.867,3.867,0,0,0-.181-.7.76.76,0,0,0-.314-.363,1.531,1.531,0,0,0-.146-.073c-.267.085-.532.176-.8.264a.327.327,0,0,0-.015.076.181.181,0,0,1-.107.17c-.032.015-.059.039-.089.055-.137.073-.275.141-.412.213a2.819,2.819,0,0,0-.276.157c-.2.136-.387.293-.58.437a.486.486,0,0,0-.04.033c-.146.128-.295.253-.436.384a3.953,3.953,0,0,0-.385.4.3.3,0,0,0-.089.224.227.227,0,0,1-.027.08.062.062,0,0,0,0,.051.047.047,0,0,0,.059.015.781.781,0,0,0,.078-.049.43.43,0,0,1,.2-.07A1.815,1.815,0,0,1,.6,49.678a2.2,2.2,0,0,0,.249-.007c.07,0,.141-.008.211-.007s.167,0,.25,0h.352a.55.55,0,0,0,.1,0,.718.718,0,0,1,.21,0,1.144,1.144,0,0,0,.224,0,.9.9,0,0,1,.117,0" transform="translate(-0.001 -15.638)"/>
    <path id="Path_13074" data-name="Path 13074" d="M54.577,17.132l.04,15.177-6.978,3.807V17.132Z" transform="translate(-15.767 -5.67)" fill="#f1ad0f"/>
    <path id="Path_13075" data-name="Path 13075" d="M71.71,23.968l-6.69.669L64.923,0h6.939Z" transform="translate(-21.488)" fill="#f1ad0f"/>
    <path id="Path_13076" data-name="Path 13076" d="M30.354,29.757l6.939-.5.235,13.089s-2.007,1.338-6.69.669Z" transform="translate(-10.046 -9.683)" fill="#f1ad0f"/>
    <g id="Group_3968" data-name="Group 3968" transform="translate(74.928 23.092)">
      <path id="Path_13077" data-name="Path 13077" d="M12.051,83.308v6.28H10.142V74.422H14.2a17.475,17.475,0,0,1,1.749.073,8.641,8.641,0,0,1,1.317.235,4.7,4.7,0,0,1,2.5,1.469,3.9,3.9,0,0,1,.867,2.585,4.2,4.2,0,0,1-.305,1.645,3.723,3.723,0,0,1-.855,1.258,4.5,4.5,0,0,1-1.317.873,7.112,7.112,0,0,1-1.7.5V83.1l4.64,6.484h-1.91L14.36,83.309Zm0-7.221v5.554h1.886q.88,0,1.5-.056a5.639,5.639,0,0,0,1.114-.2,3.055,3.055,0,0,0,1.534-.94,2.546,2.546,0,0,0,.54-1.689,2.39,2.39,0,0,0-.517-1.57,2.8,2.8,0,0,0-1.395-.856,5.522,5.522,0,0,0-1.007-.181q-.587-.056-1.489-.056Z" transform="translate(-10.142 -74.421)"/>
      <path id="Path_13078" data-name="Path 13078" d="M22.883,89.588l6.385-15.167h1.653l6.385,15.167H35.233L33.359,85.02H26.806l-1.873,4.568Zm7.195-12.806q-1.049,2.831-2,5.146l-.587,1.429h5.2l-.6-1.425q-.961-2.365-1.963-5.152Z" transform="translate(-6.265 -74.421)"/>
      <path id="Path_13079" data-name="Path 13079" d="M43.5,87.231q.849-2.483,1.83-5.01l3.009-7.8H50.25L44.306,89.589H42.638L36.694,74.422H38.6l3.009,7.8q.99,2.527,1.842,5.01Z" transform="translate(-2.062 -74.421)"/>
      <path id="Path_13080" data-name="Path 13080" d="M54,87.921h8.039v1.666H52.1V74.422h9.517v1.666H54v4.9h6.76V82.65H54Z" transform="translate(2.624 -74.421)"/>
      <path id="Path_13081" data-name="Path 13081" d="M73.354,82.878Q74.8,84.883,76.2,87h.07q-.153-2.211-.153-4.51V74.421h1.921V89.589H76.13L69.98,81.13Q68.385,78.918,67.133,77h-.07q.153,2.074.153,4.839v7.742H65.3V74.422h1.9Z" transform="translate(6.643 -74.421)"/>
    </g>
    <path id="Path_13082" data-name="Path 13082" d="M63.423,55.624c4.817-2.944,12.73-7.77,14.91-9.09L64.651,56.088Z" transform="translate(-20.991 -15.402)" fill="#f1ad0f"/>
    <path id="Path_13083" data-name="Path 13083" d="M68.982,51.752,64.23,55.071l-.423-.16,5.175-3.158m10.855-7.167a5.38,5.38,0,0,0-1.471.667c-.3.164-16.075,9.794-16.075,9.794l2.033.77L78.7,45.777s1.511-1.19,1.135-1.19" transform="translate(-20.617 -14.759)" fill="#f1ad0f"/>
  </g>
</svg>
