<svg xmlns="http://www.w3.org/2000/svg" width="90.15" height="90.131" viewBox="0 0 90.15 90.131">
  <g id="noun-chocolate-7177510" transform="translate(-6.234 -6.267)">
    <path id="Path_50566" data-name="Path 50566" d="M84.945,52.283l-10,10-8.58-8.54a2.12,2.12,0,0,1,0-2.93L73.48,43.7a2.029,2.029,0,0,1,1.445-.588A2.126,2.126,0,0,1,76.4,43.7Zm-34.6,10-10-10,8.54-8.58a2.157,2.157,0,0,1,2.926,0l7.119,7.119a2.115,2.115,0,0,1,0,2.926Zm-10-34.592,10-10,8.56,8.519a2.106,2.106,0,0,1,.016,2.946l-7.119,7.119a2.16,2.16,0,0,1-2.922,0ZM71.2,41.43l-7.119,7.119a2.1,2.1,0,0,1-2.881,0L54.083,41.43a2.065,2.065,0,0,1,0-2.881L61.2,31.43a2.06,2.06,0,0,1,2.881,0L71.2,38.549a2.065,2.065,0,0,1,0,2.881Zm2.278-5.159-7.119-7.119a2.1,2.1,0,0,1,0-2.922l8.58-8.54,10,10-8.523,8.56a2.151,2.151,0,0,1-2.938.016ZM61.206,6.838a2.1,2.1,0,0,1,2.881,0l8.58,8.58-8.6,8.556a2.009,2.009,0,0,1-2.865-.02L52.63,15.418ZM38.071,29.969l8.54,8.58a2.061,2.061,0,0,1,0,2.881l-8.536,8.576L28.05,39.99Zm3.384,65.8a2.086,2.086,0,0,1-1.5.624,1.978,1.978,0,0,1-1.429-.624L6.842,64.087a1.978,1.978,0,0,1-.608-1.413,2.1,2.1,0,0,1,.624-1.5L19.039,49l3.509.744-1.883,5.537a1.612,1.612,0,0,0,.8,1.956L34.8,63.946,42.77,78.519a1.62,1.62,0,0,0,1.908.761l3.944-1.272,3.582,7.01Zm15.662-8.226-1.441-2.817a.354.354,0,0,0-.024-.04l-4.785-9.36a1.607,1.607,0,0,0-1.433-.877,1.627,1.627,0,0,0-.495.076l-3.98,1.28L37.386,61.966A1.589,1.589,0,0,0,36.7,61.3L24.171,55l2.012-5.932a1.611,1.611,0,0,0-1.191-2.093l-9.369-1.984,6.439-6.439,2.463,2.463a1.092,1.092,0,0,0,.1.141L61.483,78.014c.04.04.1.056.137.093l2.467,2.467Zm5.525-12.97L52.626,64.562l8.58-8.54a2.1,2.1,0,0,1,2.881,0l8.576,8.536ZM95.8,41.43l-8.58,8.58-8.556-8.6a1.966,1.966,0,0,1,.02-2.861l8.536-8.576,8.58,8.576a2.06,2.06,0,0,1,0,2.877Z"/>
  </g>
</svg>
