<svg xmlns="http://www.w3.org/2000/svg" width="83.973" height="89.46" viewBox="0 0 83.973 89.46">
  <g id="noun-cookies-7404718" transform="translate(-12.453 -10.003)">
    <path id="Path_50564" data-name="Path 50564" d="M93.592,80.9a1.327,1.327,0,0,0-.695-.821,4.975,4.975,0,0,1-1.123-.734,5.2,5.2,0,0,1-1.712-4.949,1.312,1.312,0,0,0-.795-1.472A5.174,5.174,0,0,1,87.14,65a1.318,1.318,0,0,0,.162-1.319,5.177,5.177,0,0,1,2.717-6.805,1.318,1.318,0,0,0,.642-1.826,5.154,5.154,0,0,1,.642-5.792,4.679,4.679,0,0,1,.55-.55,1.32,1.32,0,0,0,.2-1.782A31.114,31.114,0,1,0,90.709,85.7a30.863,30.863,0,0,0,2.739-3.735A1.308,1.308,0,0,0,93.6,80.9ZM73.778,56.943a1.392,1.392,0,1,1,.153,1.966,1.386,1.386,0,0,1-.153-1.966Zm-9.688-15.3a4.543,4.543,0,0,1,6.4-.5,4.537,4.537,0,0,1-2.6,7.972c-.122.009-.24.013-.358.013a4.538,4.538,0,0,1-3.442-7.487Zm-8.6,6.063a1.391,1.391,0,1,1,.153,1.961A1.391,1.391,0,0,1,55.493,47.7ZM45.6,64.189A6.3,6.3,0,1,1,49.679,65.7,6.244,6.244,0,0,1,45.6,64.189Zm2.088,10.226a1.392,1.392,0,1,1,1.966-.153A1.391,1.391,0,0,1,47.683,74.414ZM57.4,85.055a4.534,4.534,0,1,1-.494-6.4,4.526,4.526,0,0,1,.494,6.4Zm5.4-14.6a1.391,1.391,0,1,1-.153-1.961A1.391,1.391,0,0,1,62.8,70.452Zm-.057-11a1.391,1.391,0,1,1,1.961-.153A1.391,1.391,0,0,1,62.744,59.449Zm3.77,27.165a1.391,1.391,0,1,1-.153-1.961A1.391,1.391,0,0,1,66.514,86.614Zm7.8-6.709a4.49,4.49,0,0,1-3.1,1.572c-.122.009-.24.013-.358.013A4.532,4.532,0,1,1,74.311,79.9ZM77.1,68.443a1.391,1.391,0,1,1-.153-1.961A1.387,1.387,0,0,1,77.1,68.443ZM77.39,49.1a1.391,1.391,0,1,1,.153,1.961A1.391,1.391,0,0,1,77.39,49.1Zm2.9,31.764a1.391,1.391,0,1,1-.153-1.961A1.387,1.387,0,0,1,80.291,80.865Z" transform="translate(2.776 2.88)"/>
    <path id="Path_50565" data-name="Path 50565" d="M36.657,54.4A4.532,4.532,0,0,1,42.4,48.653c.55-.769,1.136-1.516,1.76-2.25a33.645,33.645,0,0,1,9.273-7.57,1.4,1.4,0,1,1,1.057-2.45,1.4,1.4,0,0,1,.319,1.734,33.845,33.845,0,0,1,15.03-3.512,33.462,33.462,0,0,1,4.241.271,32.583,32.583,0,0,0-.97-3.608,31.128,31.128,0,1,0-36.9,40.117,33.836,33.836,0,0,1,1.974-14.839A4.5,4.5,0,0,1,36.652,54.4ZM59.681,31.652a1.4,1.4,0,1,1,.157,1.97A1.4,1.4,0,0,1,59.681,31.652ZM50.709,21.474a4.537,4.537,0,1,1,5.5,6.329,4.571,4.571,0,0,1-1.442.236,4.538,4.538,0,0,1-4.049-6.565ZM44.738,33.041a1.4,1.4,0,1,1-.153-1.97A1.394,1.394,0,0,1,44.738,33.041ZM41.554,19.129a1.4,1.4,0,1,1,.153,1.97A1.393,1.393,0,0,1,41.554,19.129Zm-19.647,17.2a1.4,1.4,0,1,1,.153,1.97A1.393,1.393,0,0,1,21.907,36.327Zm3.342,16.647a4.535,4.535,0,1,1-2.879-8.6,4.538,4.538,0,0,1,2.883,8.605Zm6.919,4.521a1.4,1.4,0,1,1-.153-1.97A1.4,1.4,0,0,1,32.167,57.495ZM31.835,33.3a6.3,6.3,0,0,1-5.971-4.289,6.287,6.287,0,1,1,7.954,3.966,6.3,6.3,0,0,1-1.983.323Zm3.521,8.513a1.4,1.4,0,1,1,1.97-.157A1.394,1.394,0,0,1,35.356,41.817Z" transform="translate(0 0)"/>
  </g>
</svg>
