<svg xmlns="http://www.w3.org/2000/svg" width="94.254" height="89.5" viewBox="0 0 94.254 89.5">
  <g id="noun-food-and-beverage-6526752" transform="translate(159.494 -14.751)">
    <path id="Path_45561" data-name="Path 45561" d="M11.949,95.251H58.1a6.146,6.146,0,0,0,3.66-1.124,3.05,3.05,0,0,0,1.366-2.383V88.461H6.922v3.284a3.053,3.053,0,0,0,1.365,2.383,6.154,6.154,0,0,0,3.662,1.123Zm53.459-16.1H4.641a1.141,1.141,0,0,0-1.135,1.134v1.152a1.143,1.143,0,0,0,1.135,1.135H65.407a1.143,1.143,0,0,0,1.135-1.135V80.286a1.141,1.141,0,0,0-1.135-1.134ZM63.673,84.58H6.224q.073.4.161.791c.079.357.169.719.269,1.084H63.242q.151-.548.27-1.085.087-.392.161-.79Zm-.357-9.308H6.582c-.085.293-.163.589-.233.887-.077.327-.145.658-.2.989H63.752c-.059-.332-.127-.662-.2-.989q-.1-.446-.232-.885ZM51.752,55.984a1,1,0,0,1-.309-.184,32.511,32.511,0,0,0-16.418-4.3A31.616,31.616,0,0,0,15.4,57.988c-4.941,3.919-8.11,9.3-8.429,15.279H63.062l.013-.019c-.325-5.965-3.492-11.344-8.428-15.259a27.934,27.934,0,0,0-2.895-2ZM97.117,38.927H47.076a.647.647,0,0,0-.643.643v3.089a.647.647,0,0,0,.643.643H97.117a.647.647,0,0,0,.643-.643V39.57a.647.647,0,0,0-.643-.643ZM52.462,45.307H91.731L88.667,91.85a3.207,3.207,0,0,1-1.224,2.257,4.593,4.593,0,0,1-2.888.994l-20.993.122a4.812,4.812,0,0,0,1.571-3.478V88.036a1.46,1.46,0,0,0-.1-.544q.241-.821.434-1.69.137-.616.243-1.235a3.148,3.148,0,0,0,2.843-3.127V80.287a3.149,3.149,0,0,0-2.762-3.118q-.118-.74-.287-1.467-.2-.845-.47-1.667a1.734,1.734,0,0,0,.059-.523c-.245-6.715-3.722-12.749-9.2-17.091a29.671,29.671,0,0,0-2.828-1.982l-.6-9.132Zm.257-8.385H91.473l-1.8-6.011a3.743,3.743,0,0,0-3.652-2.718H58.169a3.743,3.743,0,0,0-3.652,2.718l-1.8,6.011ZM70.581,14.911V26.188h3.03V16.582a1,1,0,0,1,.113-.464l0-.005.008-.016,0-.005.01-.016,0-.006.01-.015,0-.005.011-.016,0-.005.008-.013.006-.008.026-.037h0l.016-.019h0a.9.9,0,0,1,.074-.082l7.976-7.976L79.742,5.751Z" transform="translate(-163 9)" fill-rule="evenodd"/>
  </g>
</svg>
