<svg xmlns="http://www.w3.org/2000/svg" width="104.388" height="101.167" viewBox="0 0 104.388 101.167">
  <g id="noun-franchise-7286176" transform="translate(-3.124 -4.572)">
    <path id="Path_45562" data-name="Path 45562" d="M76.148,74.14h-46.9v2.827h50.51V74.14ZM29.061,45.7a5.872,5.872,0,0,0,5.289,3.775c2.2,0,4.189-1.779,5.193-3.775ZM33.68,33.868,29.287,43.35H40.322l2.188-9.482ZM53.887,43.35l-.022-9.482H44.914L42.727,43.35Zm13.666-9.482,2.136,9.482H80.828L76.4,33.868Zm-.265,9.482-2.136-9.482H56.209l.022,9.482ZM53.347,45.7H42.865a5.876,5.876,0,0,0,5.289,3.775C50.359,49.474,52.342,47.7,53.347,45.7Zm13.809,0H56.674a5.872,5.872,0,0,0,5.289,3.775C64.164,49.474,66.147,47.7,67.156,45.7ZM59.223,55.972H49.771V71.791h9.451ZM48.6,53.624A1.175,1.175,0,0,0,47.423,54.8V71.792H35.149V51.775a8.709,8.709,0,0,0,6.033-4.21,8.091,8.091,0,0,0,6.972,4.262,8.434,8.434,0,0,0,6.833-4.262,8.091,8.091,0,0,0,6.972,4.262,8.434,8.434,0,0,0,6.833-4.262,8.18,8.18,0,0,0,6.176,4.219V71.792H61.577V54.8A1.175,1.175,0,0,0,60.4,53.624l-11.8,0Zm27.445-4.158A6.5,6.5,0,0,0,80.961,45.7H70.479A5.835,5.835,0,0,0,76.042,49.466ZM58.778,6.175A5.439,5.439,0,0,0,49.5,10.016c0,3.971,3.88,8.373,5.541,10.073,2.436-2.579,8.09-9.569,3.741-13.914Zm1.379,10.787c2.892,2.062,3.075,5.285.217,7.438a8.88,8.88,0,0,1-5.324,1.644c-6.3,0-9.952-5.5-5.206-9.012a30.513,30.513,0,0,0,4.48,5.359,1.071,1.071,0,0,0,1.47-.013,30.187,30.187,0,0,0,4.363-5.415ZM54.942,7.693a2.27,2.27,0,1,1-2.27,2.27A2.272,2.272,0,0,1,54.942,7.693Zm3.836,78.326A5.439,5.439,0,0,0,49.5,89.859c0,3.971,3.88,8.373,5.541,10.073,2.436-2.579,8.09-9.564,3.741-13.914Zm1.4,10.765c2.7,2.005,2.84,5.2.039,7.311a8.88,8.88,0,0,1-5.324,1.644c-6.45,0-9.86-5.637-5.224-9a.584.584,0,0,0,.061-.048,30.562,30.562,0,0,0,4.6,5.546,1.071,1.071,0,0,0,1.47-.013,30.121,30.121,0,0,0,4.38-5.437Zm-5.232-9.243a2.27,2.27,0,1,1-2.27,2.27A2.272,2.272,0,0,1,54.942,87.541ZM14.218,47.73a5.439,5.439,0,0,0-9.282,3.841c0,3.971,3.88,8.373,5.541,10.073,2.436-2.579,8.09-9.564,3.741-13.914ZM15.6,58.517c2.892,2.062,3.075,5.285.217,7.438A8.88,8.88,0,0,1,10.5,67.6c-6.3,0-9.952-5.5-5.206-9.012a30.513,30.513,0,0,0,4.48,5.359,1.071,1.071,0,0,0,1.47-.013A30.625,30.625,0,0,0,15.6,58.517Zm-5.219-9.269a2.27,2.27,0,1,1-2.27,2.27A2.272,2.272,0,0,1,10.382,49.248Zm93.483-1.518a5.439,5.439,0,0,0-9.282,3.841c0,3.971,3.88,8.373,5.541,10.073,2.431-2.579,8.086-9.564,3.741-13.914Zm1.379,10.787c2.892,2.062,3.075,5.285.217,7.438a8.871,8.871,0,0,1-5.324,1.644c-6.3,0-9.952-5.5-5.206-9.012a30.513,30.513,0,0,0,4.48,5.359,1.071,1.071,0,0,0,1.47-.013,30.625,30.625,0,0,0,4.363-5.415Zm-5.219-9.269a2.27,2.27,0,1,1-2.27,2.27A2.272,2.272,0,0,1,100.025,49.248ZM12.652,40.9a1.077,1.077,0,0,1-2.04-.692A47.071,47.071,0,0,1,43.133,9.985a1.074,1.074,0,0,1,.539,2.079A44.926,44.926,0,0,0,12.653,40.9ZM41.563,98.154a1.077,1.077,0,0,1-.639,2.057A47.133,47.133,0,0,1,11.718,73.522a1.075,1.075,0,1,1,1.988-.822A44.894,44.894,0,0,0,41.564,98.153Zm24.67-86.137a1.073,1.073,0,0,1,.531-2.079A47.059,47.059,0,0,1,99.5,40.246a1.077,1.077,0,0,1-2.04.692,44.874,44.874,0,0,0-31.229-28.92Zm30.2,60.606a1.075,1.075,0,0,1,1.988.822A47.085,47.085,0,0,1,68.891,100.3a1.074,1.074,0,0,1-.631-2.053A44.942,44.942,0,0,0,96.437,72.622Z" transform="translate(0 0)" fill-rule="evenodd"/>
  </g>
</svg>
