<svg xmlns="http://www.w3.org/2000/svg" width="86.989" height="87.999" viewBox="0 0 86.989 87.999">
  <g id="noun-pet-food-7301918" transform="translate(-5.27 -4.999)">
    <path id="Path_45564" data-name="Path 45564" d="M73.678,57.192c.087-2.62.152-5.278.175-7.921l-13.329,0a1.361,1.361,0,0,1-.6-.13,19.419,19.419,0,0,1-38.753.084,2.188,2.188,0,0,1-.387.042l-13.546,0c0,.672.023,1.363.023,2.032H12.2a1.467,1.467,0,0,1,1.443,1.474A1.452,1.452,0,0,1,12.2,54.247H7.32c.023.8.042,1.6.065,2.406h4.931a1.461,1.461,0,1,1,0,2.922H7.491c.042.8.087,1.623.129,2.406h4.972a1.471,1.471,0,0,1,0,2.941l-4.8,0c.046.8.106,1.6.171,2.406h4.991a1.459,1.459,0,1,1,0,2.918H8.2c.3,3.185.646,6.279,1.056,9.224Q-1.66,96.024,17.306,86.72a71.607,71.607,0,0,0,26.806,3.766,4.411,4.411,0,0,1,.236-1.039l4.068-12.535a6.6,6.6,0,0,1,1.291-2.273,7.6,7.6,0,0,1,6.226-9.4,7.6,7.6,0,0,1,7.191-5.175h.042a6.955,6.955,0,0,1,6.374-4.262,6.879,6.879,0,0,1,4.137,1.386Zm-4.133,1.36a4.2,4.2,0,0,1,4.178,4.22,2.883,2.883,0,0,1-.046.626,4.861,4.861,0,0,1,7.172,4.308c0,.107-.023.218-.023.348a4.542,4.542,0,0,1,1.185-.149A4.872,4.872,0,0,1,86.878,72.8v.088a6.5,6.5,0,0,0-2.328-.435H54.56a6.537,6.537,0,0,0-2.348.435V72.8a4.872,4.872,0,0,1,4.866-4.893,4.442,4.442,0,0,1,1.185.149v-.348A4.843,4.843,0,0,1,65.412,63.4a5.782,5.782,0,0,1-.042-.626,4.191,4.191,0,0,1,4.175-4.22ZM27.13,43.01a2,2,0,1,1-.5,2.727,1.964,1.964,0,0,1,.5-2.727Zm26.8,0a1.938,1.938,0,0,0-2.693.607,1.975,1.975,0,0,0,.517,2.727,1.992,1.992,0,0,0,2.177-3.334Zm-8.676-7.23a2.557,2.557,0,1,0,2.454,2.555A2.509,2.509,0,0,0,45.257,35.78Zm-9.432,0a2.557,2.557,0,1,1-2.454,2.555A2.509,2.509,0,0,1,35.825,35.78ZM42.7,59.487c3.533,1.3,8.934-1.237,7.578-6.841-2.693-11.06-16.771-11.06-19.464,0-1.356,5.607,4.046,8.139,7.578,6.841a5.905,5.905,0,0,1,4.308,0ZM54.559,75.2h29.99a3.677,3.677,0,0,1,3.533,2.578L92.15,90.294a2.057,2.057,0,0,1-.277,1.86,2.027,2.027,0,0,1-1.66.844l-41.317,0a1.97,1.97,0,0,1-1.656-.844,2.053,2.053,0,0,1-.3-1.86l4.091-12.516A3.654,3.654,0,0,1,54.56,75.2ZM73.848,46.321a235.085,235.085,0,0,0-2.025-30.655Q82.741-.93,63.748,8.391a81.186,81.186,0,0,0-46.442,0Q-1.644-.925,9.257,15.667A235.067,235.067,0,0,0,7.233,46.321H20.775a1.069,1.069,0,0,1,.387.065,19.417,19.417,0,0,1,38.753.088,1.36,1.36,0,0,1,.6-.153Z" transform="translate(0 0)" fill-rule="evenodd"/>
  </g>
</svg>
