<svg xmlns="http://www.w3.org/2000/svg" width="113.435" height="88.529" viewBox="0 0 113.435 88.529">
  <g id="noun-product-6397499" transform="translate(-6.05 -15.7)">
    <path id="Path_50567" data-name="Path 50567" d="M66.291,54.41H15.38L6.05,71.819H56.96Z" transform="translate(0 11.245)" fill-rule="evenodd"/>
    <path id="Path_50568" data-name="Path 50568" d="M13.87,74.319V91.728h51.4v-33L57.45,73.274a1.858,1.858,0,0,1-1.639.994Z" transform="translate(2.272 12.5)" fill-rule="evenodd"/>
    <path id="Path_50569" data-name="Path 50569" d="M56.6,57.39V91.55L87.379,83.3V71.689L72.68,77.07a1.845,1.845,0,0,1-2.142-.645Z" transform="translate(14.685 12.111)" fill-rule="evenodd"/>
    <path id="Path_50570" data-name="Path 50570" d="M88.387,47.42,57.57,55.666,72.449,75.979l32.069-11.615Q96.453,55.912,88.387,47.42Z" transform="translate(14.967 9.215)" fill-rule="evenodd"/>
    <path id="Path_50571" data-name="Path 50571" d="M23.43,52.75H64.171L84.7,47.24H43.975Z" transform="translate(5.049 9.162)" fill-rule="evenodd"/>
    <path id="Path_50572" data-name="Path 50572" d="M87.609,66.28,83.35,67.816v5.1h4.259Z" transform="translate(22.456 14.694)" fill-rule="evenodd"/>
    <path id="Path_50573" data-name="Path 50573" d="M54.9,33.225V21.83a1.871,1.871,0,0,1,1.884-1.871H76.267a1.858,1.858,0,0,1,1.871,1.871v11.4h31.669V15.7H23.24V33.225Z" transform="translate(4.994 0)" fill-rule="evenodd"/>
    <path id="Path_50574" data-name="Path 50574" d="M73.846,45.24l-8.388-7.82-8.388,7.82a1.871,1.871,0,0,1-3.239-1.291V32.18H26.91V52.054l15.228-4.091a2.271,2.271,0,0,1,.581-.09H97.875a1.9,1.9,0,0,1,1.445.684L104,53.473V32.18H77.072V43.949a1.871,1.871,0,0,1-3.226,1.291Z" transform="translate(6.06 4.787)" fill-rule="evenodd"/>
    <path id="Path_50575" data-name="Path 50575" d="M50.68,42.677l6.594-6.156a1.884,1.884,0,0,1,2.581,0l6.569,6.156V21.9H50.68Z" transform="translate(12.965 1.801)" fill-rule="evenodd"/>
  </g>
</svg>
