<svg xmlns="http://www.w3.org/2000/svg" width="83.633" height="89.999" viewBox="0 0 83.633 89.999">
  <g id="noun-sauces-7131981" transform="translate(-8.183 -5.001)">
    <path id="Path_50563" data-name="Path 50563" d="M34.254,62.082c-3.1,2.168-6.875,2.707-10.645,2.793a4.932,4.932,0,0,1,1.977-1.6c1.629-.949,3.762-2.191,3.379-5.551a7.683,7.683,0,0,1,5.293,4.344Zm6.871,4.3a6.17,6.17,0,0,0-4.844-2.559C32.141,67.016,27.113,67.5,22.265,67.5a5.822,5.822,0,0,0-2.93,2.457c7.082.7,14.535.551,21.789-3.566Zm6.945,3.121a5.84,5.84,0,0,0-4.734-1.4,33.324,33.324,0,0,1-18.023,4.777,68.363,68.363,0,0,1-7.8-.512,5.962,5.962,0,0,0-2.684,1.285h35.2a6.564,6.564,0,0,0-1.957-4.148ZM54.6,76.262H8.183a20.162,20.162,0,0,0,.957,4.949h44.5a20.127,20.127,0,0,0,.957-4.949Zm-44.4,7.555A20.072,20.072,0,0,0,28.18,95H34.6A20.067,20.067,0,0,0,52.575,83.816ZM36.859,61.254a8.712,8.712,0,0,1,6.785,4.215,8.187,8.187,0,0,1,6.2,2.137,9.2,9.2,0,0,1,2.789,6.055h3.3a1.3,1.3,0,0,1,1.3,1.3,23.079,23.079,0,0,1-.145,2.559h8.6V54.172H36.859ZM49.906,91.633h12.07A3.724,3.724,0,0,0,65.7,87.911V80.126H56.651a22.685,22.685,0,0,1-6.746,11.508Zm18.4-3.723A6.287,6.287,0,0,1,67.249,91.4a3.876,3.876,0,0,0,1.328.23H88.452a3.125,3.125,0,0,0,3.363-2.809v-9.41l-23.512,0Zm0-11.1H91.816V59.4H68.3ZM89.238,37.118l-2.711-2.16-16.023,0-2.711,2.16a6.8,6.8,0,0,0-1.887,2.3q1.014,1.758,2.176,3.48a1.308,1.308,0,0,1,.223.73V56.805H91.817V42.465a6.613,6.613,0,0,0-2.578-5.348ZM79.156,12.72H77.874L75.4,24.322h6.223ZM68.129,32.357H88.9a.05.05,0,0,0,.047-.043V26.97a.05.05,0,0,0-.047-.047H68.129a.047.047,0,0,0-.043.047v5.344A.043.043,0,0,0,68.129,32.357ZM46.317,14.111a54.06,54.06,0,0,1-9.461,29.91v7.547H65.7V44.021a54.123,54.123,0,0,1-9.461-29.91ZM43.93,11.505H58.625a.189.189,0,0,0,.184-.184V5.193A.2.2,0,0,0,58.625,5H43.93a.193.193,0,0,0-.184.191v6.133A.188.188,0,0,0,43.93,11.505Z"/>
  </g>
</svg>
