<svg xmlns="http://www.w3.org/2000/svg" width="87.01" height="90.272" viewBox="0 0 87.01 90.272">
  <g id="noun-skincare-7283083" transform="translate(121.994 -3.435)">
    <path id="Path_45563" data-name="Path 45563" d="M4.981,81.484v6.263h16.87a.8.8,0,0,0,.8-.8V82.273a.8.8,0,0,0-.8-.8ZM41.2,57.147c-1.661-.385-3.469-.683-5.319-.981-6.149-1-12.714-2.076-16.149-6.561a6.286,6.286,0,0,0,.717,1.857,5.9,5.9,0,0,0,4.311,2.624.96.96,0,0,1-.336,1.891,7.731,7.731,0,0,1-5.617-3.533,8.2,8.2,0,0,1-.978-2.586A6.4,6.4,0,0,0,17.9,54.3q1.37,3.222,7.2,5.172a.957.957,0,1,1-.608,1.816q-6.642-2.225-8.346-6.24a7.657,7.657,0,0,1-.5-4.111A42.659,42.659,0,0,0,11.7,57.687q-1.755,3.952-1.042,6.089h31.99Zm2.673,12.272H7.442v1.8H44.27ZM43.07,65.7H7.653a.162.162,0,0,0-.121.064.379.379,0,0,0-.087.253V67.5H43.463Zm3.582,27.871H9.869a4.9,4.9,0,0,1-4.787-3.9H21.851a2.72,2.72,0,0,0,2.714-2.714V82.277a2.72,2.72,0,0,0-2.714-2.714H4.981v-5.04a1.379,1.379,0,0,1,1.378-1.378H44.686l1.431,6.569a1.614,1.614,0,0,0,.578.925,1.556,1.556,0,0,0,.472.26v1.638a.959.959,0,0,0-.955.959v8.331a3.611,3.611,0,0,0,.442,1.74Zm2.435-11.03H61.2V80.993H49.087Zm13.069,8.652H48.131v.642a1.74,1.74,0,0,0,1.736,1.736H60.415a1.74,1.74,0,0,0,1.736-1.736Zm-9.917-6.731a2.2,2.2,0,0,0,2.14,1.718h1.529a2.2,2.2,0,0,0,2.14-1.718Zm7.754,0h2.163v4.809H48.131V84.459h2.163A4.113,4.113,0,0,0,54.375,88.1H55.9a4.121,4.121,0,0,0,4.088-3.639ZM70.31,42.488l1.053-4.836H38.925l1.053,4.836Zm4.3-25.055H62.914a2.616,2.616,0,0,0-2.608,2.608v2.307H77.217V20.042a2.616,2.616,0,0,0-2.612-2.608ZM71.382,9.094H66.134v6.417h5.247Zm-10.2-1.921a1.792,1.792,0,0,1-1.786-1.786V5.081A1.792,1.792,0,0,1,61.177,3.3h23.99L91.1,6.72a1.766,1.766,0,0,1,.831,1.087,1.785,1.785,0,0,1-.174,1.355h0L91.6,9.43a1.766,1.766,0,0,1-1.087.831,1.785,1.785,0,0,1-1.355-.174L84.341,7.309a.962.962,0,0,0-.479-.128V7.173ZM55.621,31.212H81.891V27.939a3.375,3.375,0,0,0-1.234-2.544,4.817,4.817,0,0,0-3.148-1.121h-17.5a4.809,4.809,0,0,0-3.148,1.121,3.381,3.381,0,0,0-1.234,2.544Zm9.763,42.906h23.8V52.582H70.072Zm23.8,1.921H64.964l-.8,3.673a1.614,1.614,0,0,1-.578.925,1.557,1.557,0,0,1-.472.26v1.638a.959.959,0,0,1,.955.959v8.331a3.607,3.607,0,0,1-.442,1.737H83.722a5.465,5.465,0,0,0,5.455-5.455ZM70.491,50.66l2.986-13.722a.9.9,0,0,0,.034-.249.958.958,0,0,0-.959-.959H49.143a5.5,5.5,0,0,1,1.416-1.536,5.4,5.4,0,0,1,3.228-1.061H83.729a5.465,5.465,0,0,1,5.455,5.455V50.66ZM44.768,64.488,40.4,44.409H69.891l-7.55,34.666h-14.4l-1.536-7.052a.714.714,0,0,0-.019-.087L45.6,68.3a.713.713,0,0,0-.019-.087l-.793-3.639a.322.322,0,0,0-.015-.087Z" transform="translate(-126.975 0.139)" fill-rule="evenodd"/>
  </g>
</svg>
