<svg xmlns="http://www.w3.org/2000/svg" width="99.085" height="95.253" viewBox="0 0 99.085 95.253">
  <g id="noun-tea-314634" transform="translate(-4.75 -7)">
    <path id="Path_50559" data-name="Path 50559" d="M103.835,54.3V33.5h-26V45.411l8.211,8.211V69.63H66.336V53.622l8.211-8.211V33.5H22.815C10.075,33.5,4.75,35.629,4.75,48.828A23.565,23.565,0,0,0,28.26,72.366,40.2,40.2,0,0,0,48.025,90.98H39.238a4.379,4.379,0,1,0,0,8.759H88.507a4.379,4.379,0,1,0,0-8.759H79.72A40.017,40.017,0,0,0,103.835,54.3Zm-95.8-5.474c0-10.626,2.971-12.043,14.781-12.043H23.91V54.3A39.753,39.753,0,0,0,26.719,69,20.27,20.27,0,0,1,8.035,48.828Z" transform="translate(0 2.514)"/>
    <g id="Group_57752" data-name="Group 57752" transform="translate(50.936 7)">
      <g id="Group_57749" data-name="Group 57749" transform="translate(0 0.001)">
        <path id="Path_50560" data-name="Path 50560" d="M48.577,32.182a1.642,1.642,0,0,1-1.169-2.8c2.594-2.632,4.92-5.725,5.075-6.729a10.114,10.114,0,0,0-2.071-1.73c-1.482-1.059-3.017-2.154-3.382-3.7-.581-2.465,2.855-6.651,5.842-9.732a1.643,1.643,0,0,1,2.359,2.286c-2.553,2.635-4.835,5.725-4.983,6.729a9.877,9.877,0,0,0,2.073,1.741c1.484,1.059,3.017,2.154,3.382,3.7.581,2.471-2.918,6.662-5.956,9.741a1.633,1.633,0,0,1-1.169.489Z" transform="translate(-46.934 -7.001)"/>
      </g>
      <g id="Group_57750" data-name="Group 57750" transform="translate(10.949)">
        <path id="Path_50561" data-name="Path 50561" d="M58.577,32.182a1.642,1.642,0,0,1-1.17-2.8c2.6-2.632,4.921-5.725,5.076-6.728a10.04,10.04,0,0,0-2.071-1.732c-1.484-1.059-3.017-2.154-3.382-3.7-.58-2.465,2.856-6.652,5.842-9.732a1.643,1.643,0,0,1,2.359,2.287c-2.553,2.635-4.835,5.725-4.983,6.729a9.929,9.929,0,0,0,2.071,1.74c1.484,1.059,3.017,2.154,3.382,3.7.585,2.471-2.916,6.662-5.955,9.742a1.633,1.633,0,0,1-1.169.489Z" transform="translate(-56.935 -7)"/>
      </g>
      <g id="Group_57751" data-name="Group 57751" transform="translate(21.897)">
        <path id="Path_50562" data-name="Path 50562" d="M68.577,32.182a1.642,1.642,0,0,1-1.17-2.8c2.6-2.632,4.921-5.725,5.076-6.728a10.04,10.04,0,0,0-2.071-1.732c-1.484-1.059-3.017-2.154-3.382-3.7-.58-2.465,2.856-6.652,5.842-9.732a1.643,1.643,0,0,1,2.359,2.287c-2.553,2.635-4.835,5.725-4.983,6.729a9.929,9.929,0,0,0,2.071,1.74c1.484,1.059,3.017,2.154,3.382,3.7.585,2.471-2.916,6.662-5.955,9.742a1.633,1.633,0,0,1-1.169.489Z" transform="translate(-66.935 -7)"/>
      </g>
    </g>
  </g>
</svg>
