<svg xmlns="http://www.w3.org/2000/svg" width="61.227" height="61.227" viewBox="0 0 61.227 61.227">
  <g id="noun-success-252412" transform="translate(-3.7 -3.711)">
    <g id="Group_47081" data-name="Group 47081" transform="translate(3.7 3.711)">
      <path id="Path_44459" data-name="Path 44459" d="M64.736,11.044l-7.142,7.142a.751.751,0,0,1-.529.2l-1.852-.265A29.277,29.277,0,0,1,61.429,36.04,28.851,28.851,0,1,1,32.6,7.209a28.165,28.165,0,0,1,13.093,3.174,3.877,3.877,0,0,0-.066,1.521l.066.4-3.373,3.373A22.764,22.764,0,0,0,32.6,13.491a22.545,22.545,0,0,0-22.483,24A22.632,22.632,0,0,0,48.667,52.043,22.44,22.44,0,0,0,55.28,36.106a22.172,22.172,0,0,0-4.7-13.755l-3.9,3.9a17.121,17.121,0,0,1-1.918,21.954A17.114,17.114,0,1,1,20.563,24a16.984,16.984,0,0,1,12.1-5.026,17.477,17.477,0,0,1,5.555.926L33.325,24.8c-.2,0-.463-.066-.661-.066a11.086,11.086,0,0,0-8,3.373,11.363,11.363,0,1,0,19.375,8,11.771,11.771,0,0,0-1.521-5.687l-4.232,4.1a6.143,6.143,0,0,1,.066,2.91,5.9,5.9,0,1,1-7.076-7.076,6.167,6.167,0,0,1,2.91.066L50.651,13.954l-.331-2.314a.751.751,0,0,1,.2-.529L57.594,3.9a.666.666,0,0,1,1.124.4l.661,4.96,4.96.661A.666.666,0,0,1,64.736,11.044Z" transform="translate(-3.7 -3.711)"/>
    </g>
  </g>
</svg>
