<svg xmlns="http://www.w3.org/2000/svg" width="54.314" height="69.943" viewBox="0 0 54.314 69.943">
  <g id="noun-brand-positioning-7123679" transform="translate(-15.55 -5.639)">
    <path id="Path_44465" data-name="Path 44465" d="M44.617,64.568A84.441,84.441,0,0,0,57.7,48.1c6.362-10.769,11.308-26.427,1.127-36.611a20.178,20.178,0,0,0-28.42,0c-10.18,10.18-5.235,25.842,1.127,36.611A84.4,84.4,0,0,0,44.617,64.568ZM55.09,14.109a14.811,14.811,0,1,1-20.946,0A14.869,14.869,0,0,1,55.09,14.109Z" transform="translate(-1.909)" fill-rule="evenodd"/>
    <path id="Path_44466" data-name="Path 44466" d="M55.638,17.143a12.845,12.845,0,1,0,0,18.165,12.9,12.9,0,0,0,0-18.165Zm-5.552-.865a2.366,2.366,0,0,1,3.03,1.752l1.278,6.217a2.061,2.061,0,0,1-.234,1.487L48.136,36.174a1.823,1.823,0,0,1-2.5.613c-.745-.462-8.043-4.671-8.056-4.653h-.006a1.814,1.814,0,0,1-.714-2.467l6.023-10.439h0a2.063,2.063,0,0,1,1.173-.948Z" transform="translate(-3.848 -1.643)" fill-rule="evenodd"/>
    <path id="Path_44467" data-name="Path 44467" d="M49.581,73.543a68.744,68.744,0,0,1,7.1.841.983.983,0,0,1-.339,1.937,69.822,69.822,0,0,0-8.394-.915c-1.521,1.691-3.055,3.276-4.551,4.748a.981.981,0,0,1-1.376,0,98.374,98.374,0,0,1-9.476-10.7,37.639,37.639,0,0,0-12.456,3.9c-8.3,4.73-3.979,9.722,3.083,12.527,10.765,4.277,28.312,4.277,39.077,0,7.061-2.805,11.376-7.8,3.083-12.527a37.615,37.615,0,0,0-12.456-3.9C51.8,70.87,50.7,72.234,49.581,73.543ZM26.437,80.9a.982.982,0,0,1-.474,1.906,15.944,15.944,0,0,1-4.016-1.493c-3.4-1.992-1.481-4.373,1.41-5.518a33.966,33.966,0,0,1,7.381-1.721.983.983,0,0,1,.736.185.972.972,0,0,1,.382.65.976.976,0,0,1-.847,1.109,32.075,32.075,0,0,0-6.929,1.607c-1.3.514-2.861.992-1.142,2a14.2,14.2,0,0,0,3.5,1.278Zm22,1.447a.981.981,0,1,1,.117,1.959c-.911.055-1.875.1-2.895.126-1.047.031-2.032.046-2.95.046-1.6,0-3.193-.04-4.767-.114s-3.1-.188-4.53-.333v0a.979.979,0,0,1,.191-1.949c1.4.142,2.882.249,4.431.323,2.513.12,5.056.142,7.572.068.936-.028,1.885-.071,2.833-.126Zm14.852-3.455a.984.984,0,0,1,1.968,0c0,1.223-1.121,2.257-3.1,3.055A32.649,32.649,0,0,1,55,83.659v0a.983.983,0,1,1-.277-1.946,30.64,30.64,0,0,0,6.7-1.6C62.613,79.643,63.288,79.215,63.288,78.889Z" transform="translate(0 -13.508)" fill-rule="evenodd"/>
    <path id="Path_44468" data-name="Path 44468" d="M52.019,19.406l-6.023,2h0a.167.167,0,0,0-.08.049l-5.946,10.3L47.847,36.3l5.937-10.279v0a.147.147,0,0,0,.009-.114l-1.278-6.217a.343.343,0,0,0-.191-.24.366.366,0,0,0-.3-.043Zm-1.965,2.069h0a1.1,1.1,0,0,1,1.515.4,1.114,1.114,0,0,1,.108.841,1.086,1.086,0,0,1-.523.668,1.1,1.1,0,0,1-1.1-1.906Z" transform="translate(-5.17 -2.911)" fill-rule="evenodd"/>
  </g>
</svg>
