<svg xmlns="http://www.w3.org/2000/svg" width="66.999" height="67" viewBox="0 0 66.999 67">
  <g id="noun-behavior-5750543" transform="translate(-4.146 -4.146)">
    <path id="Path_44462" data-name="Path 44462" d="M42.764,47.271,49.6,54.108a4.079,4.079,0,0,1,.5-.6L53.506,50.1a3.984,3.984,0,0,1,.6-.5l-6.837-6.837a25.035,25.035,0,0,1-4.508,4.508h0Zm11.73,3.811a2.628,2.628,0,0,1,3.709,0L69.677,62.557a5.035,5.035,0,0,1-7.12,7.12L51.082,58.2a2.628,2.628,0,0,1,0-3.709l3.411-3.411h0ZM27.6,16.542a5.214,5.214,0,1,0,5.214,5.214A5.214,5.214,0,0,0,27.6,16.542Zm0-5.861A16.914,16.914,0,0,0,15.194,39.1,13.591,13.591,0,0,1,27.6,30.52,13.589,13.589,0,0,1,40,39.1a16.914,16.914,0,0,0-12.4-28.417Zm0,17.686a6.61,6.61,0,1,1,6.61-6.61A6.61,6.61,0,0,1,27.6,28.367Zm0-24.221A23.449,23.449,0,1,0,51.044,27.6,23.449,23.449,0,0,0,27.6,4.146Zm0,41.759A18.31,18.31,0,1,1,45.9,27.6,18.31,18.31,0,0,1,27.6,45.9ZM16.284,40.17a16.912,16.912,0,0,0,22.622,0A12.2,12.2,0,0,0,27.6,31.91,12.2,12.2,0,0,0,16.284,40.17Z" fill-rule="evenodd"/>
  </g>
</svg>
