<svg xmlns="http://www.w3.org/2000/svg" width="60.862" height="61.26" viewBox="0 0 60.862 61.26">
  <path id="Path_44470" data-name="Path 44470" d="M69.675,76.215a.579.579,0,0,1-.577.577H9.391a.577.577,0,1,1,0-1.154H11.83V54.26a.585.585,0,0,1,.577-.577H16.34a4.508,4.508,0,0,1,4.5,4.5V75.638h2.439V43.894a.593.593,0,0,1,.165-.413.582.582,0,0,1,.407-.173h3.931a4.5,4.5,0,0,1,4.534,4.5V75.638h2.447V54.261a.577.577,0,0,1,.577-.577h3.9a4.5,4.5,0,0,1,4.5,4.5V75.638h2.424V45.3a.577.577,0,0,1,.577-.577h3.934a4.51,4.51,0,0,1,4.5,4.5V75.639h2.439V31.45a.583.583,0,0,1,.577-.577h3.934a4.5,4.5,0,0,1,4.5,4.5V75.639h2.439a.586.586,0,0,1,.6.577ZM16.332,46.956a4.563,4.563,0,0,0,3.394-7.628L22.973,36.1h0a.577.577,0,0,0-.817-.814l-3.31,3.293a4.49,4.49,0,0,0-2.517-.771,4.572,4.572,0,0,0,0,9.143ZM27.793,35.287a4.554,4.554,0,0,0,3.339-1.46l1.538,1.325,0,0a.575.575,0,0,0,.745-.877l-1.639-1.385a4.456,4.456,0,0,0,.554-2.17,4.571,4.571,0,1,0-4.572,4.572Zm11.452,8.621a4.62,4.62,0,0,0,4.572-4.572,4.557,4.557,0,0,0-.323-1.685l2.032-1.885a.578.578,0,0,0-.817-.817l-1.833,1.694h0a4.572,4.572,0,1,0-3.634,7.264ZM50.7,34.765a4.572,4.572,0,0,0,3.787-7.135l2.947-2.655a.559.559,0,0,0,.04-.808.578.578,0,0,0-.4-.193.588.588,0,0,0-.418.147l-2.941,2.641a4.571,4.571,0,0,0-7.588,3.463,4.617,4.617,0,0,0,4.572,4.54Zm11.461-10.09A4.571,4.571,0,1,0,57.586,20.1,4.571,4.571,0,0,0,62.158,24.675Z" transform="translate(-8.814 -15.532)"/>
</svg>
