<svg xmlns="http://www.w3.org/2000/svg" width="64.994" height="65.175" viewBox="0 0 64.994 65.175">
  <g id="noun-market-segmentation-7286844" transform="translate(26.936 -19.914)">
    <path id="Path_44461" data-name="Path 44461" d="M50.023,14.918A32.688,32.688,0,0,1,79.052,43.947H68.2A21.938,21.938,0,0,0,50.019,25.764V14.914ZM67.7,72.559a2.829,2.829,0,0,0,4.027-3.974L59.094,55.947a15.156,15.156,0,1,0-4,4L67.707,72.555ZM46.559,36.737a10.678,10.678,0,0,0-8.643,16.951,7.658,7.658,0,0,1,3.86-4.231,5.759,5.759,0,1,1,9.565,0,7.672,7.672,0,0,1,3.86,4.231,10.678,10.678,0,0,0-8.643-16.951Zm6.292,19.3a10.673,10.673,0,0,1-12.588,0,4.809,4.809,0,0,1,4.162-4.48,5.818,5.818,0,0,0,4.26,0,4.809,4.809,0,0,1,4.162,4.48ZM45,48.722h3.109a2.937,2.937,0,1,0-3.109,0Zm23.2,2.155h10.85a32.418,32.418,0,0,1-5.749,15.305L65.531,58.4a21.785,21.785,0,0,0,2.681-7.528ZM65.331,74.16A32.68,32.68,0,0,1,14.064,50.877h10.85a21.924,21.924,0,0,0,32.64,15.5l7.781,7.781ZM24.914,43.948H14.064A32.688,32.688,0,0,1,43.092,14.92V25.77A21.938,21.938,0,0,0,24.91,43.952Z" transform="translate(-41 5)" fill-rule="evenodd"/>
  </g>
</svg>
