<svg xmlns="http://www.w3.org/2000/svg" xmlns:xlink="http://www.w3.org/1999/xlink" width="100%" height="100%"  viewBox="0 0 938 489">
  <defs>
    <filter id="Rectangle_138" x="0" y="114" width="938" height="375" filterUnits="userSpaceOnUse">
      <feOffset input="SourceAlpha"/>
      <feGaussianBlur stdDeviation="3" result="blur"/>
      <feFlood flood-opacity="0.11"/>
      <feComposite operator="in" in2="blur"/>
      <feComposite in="SourceGraphic"/>
    </filter>
    <linearGradient id="linear-gradient" x1="1" y1="0.406" x2="0" y2="0.444" gradientUnits="objectBoundingBox">
      <stop offset="0" stop-color="#f15b5b"/>
      <stop offset="1" stop-color="#ed901d"/>
    </linearGradient>
    <linearGradient id="linear-gradient-2" x1="0.039" y1="0.502" x2="1.039" y2="0.502" gradientUnits="objectBoundingBox">
      <stop offset="0" stop-color="#ff603c"/>
      <stop offset="1" stop-color="#e8a50f"/>
    </linearGradient>
    <linearGradient id="linear-gradient-3" x1="0" y1="0.5" x2="1" y2="0.5" xlink:href="#linear-gradient-2"/>
    <linearGradient id="linear-gradient-4" x1="0.012" y1="0.394" x2="1.01" y2="0.394" xlink:href="#linear-gradient-2"/>
    <linearGradient id="linear-gradient-5" x1="-4.606" y1="1.434" x2="-3.447" y2="1.434" xlink:href="#linear-gradient-2"/>
    <linearGradient id="linear-gradient-6" x1="-0.722" y1="0.901" x2="0.304" y2="0.901" xlink:href="#linear-gradient-2"/>
    <linearGradient id="linear-gradient-7" x1="-1.321" y1="0.802" x2="-0.252" y2="0.802" xlink:href="#linear-gradient-2"/>
    <linearGradient id="linear-gradient-8" x1="-0.309" y1="0.637" x2="0.725" y2="0.637" xlink:href="#linear-gradient-2"/>
    <linearGradient id="linear-gradient-9" x1="-1.682" y1="1.243" x2="-0.682" y2="1.243" xlink:href="#linear-gradient-2"/>
  </defs>
  <g id="DataPilot_Slider3" transform="translate(9)">
    <path id="Path_52746" data-name="Path 52746" d="M0,0H920V415H0Z" transform="translate(0 64)" fill="#fcfcfc"/>
    <g id="Group_11" data-name="Group 11" transform="translate(-930.627 13.076)">
      <g transform="matrix(1, 0, 0, 1, 921.63, -13.08)" filter="url(#Rectangle_138)">
        <rect id="Rectangle_138-2" data-name="Rectangle 138" width="920" height="357" rx="10" transform="translate(9 123)" fill="#fcfcfc"/>
      </g>
      <g id="Group_395" data-name="Group 395" transform="translate(945.626 418.924)">
        <g id="Group_967" data-name="Group 967" transform="translate(0)">
          <g id="Group_964" data-name="Group 964" transform="translate(80.625 11)">
            <g id="Group_965" data-name="Group 965">
              <text id="_10" data-name="10" transform="translate(0 14)" fill="#707070" font-size="13" font-family="Poppins-Regular, Poppins"><tspan x="0" y="0">10</tspan></text>
              <g id="arrow-down" transform="translate(29.003 5.205)">
                <path id="Path_2004" data-name="Path 2004" d="M84.466,130.7a.8.8,0,0,0-.567,1.37l5.814,5.814a.816.816,0,0,0,.567.235.793.793,0,0,0,.567-.235l5.806-5.807a.8.8,0,1,0-1.116-1.143h0L90.291,136.2l-5.257-5.257a.8.8,0,0,0-.567-.235Z" transform="translate(-83.666 -130.704)" fill="#666"/>
              </g>
            </g>
          </g>
          <g id="Group_966" data-name="Group 966" transform="translate(714.001)">
            <text id="_1_-10_of_20" data-name="1 -10 of 20" transform="translate(0 25)" fill="#707070" font-size="13" font-family="Poppins-Regular, Poppins"><tspan x="0" y="0">1 -10 of 20</tspan></text>
            <g id="Group_1915" data-name="Group 1915" transform="translate(137)" opacity="0.612">
              <g id="Rectangle_851" data-name="Rectangle 851" fill="#fff" stroke="#666" stroke-width="1">
                <rect width="40" height="36" rx="10" stroke="none"/>
                <rect x="0.5" y="0.5" width="39" height="35" rx="9.5" fill="none"/>
              </g>
              <path id="Icon_ionic-ios-arrow-back" data-name="Icon ionic-ios-arrow-back" d="M15.641,11.192l-4.16-3.781a.667.667,0,0,1,0-1.009.846.846,0,0,1,1.113,0l4.713,4.284a.668.668,0,0,1,.023.985L12.6,15.985a.847.847,0,0,1-1.113,0,.667.667,0,0,1,0-1.009Z" transform="translate(5.966 6.806)" fill="#666"/>
            </g>
            <g id="Group_1916" data-name="Group 1916" transform="translate(82)">
              <g id="Rectangle_851-2" data-name="Rectangle 851" fill="#fff" stroke="#e1e1e1" stroke-width="1">
                <rect width="40" height="36" rx="10" stroke="none"/>
                <rect x="0.5" y="0.5" width="39" height="35" rx="9.5" fill="none"/>
              </g>
              <path id="Icon_ionic-ios-arrow-back-2" data-name="Icon ionic-ios-arrow-back" d="M13.145,11.192,17.3,7.412a.667.667,0,0,0,0-1.009.846.846,0,0,0-1.113,0l-4.713,4.284a.668.668,0,0,0-.023.985l4.732,4.314a.847.847,0,0,0,1.113,0,.667.667,0,0,0,0-1.009Z" transform="translate(5.248 6.806)" fill="#e1e1e1"/>
            </g>
          </g>
          <text id="Show_Row" data-name="Show Row" transform="translate(0 25)" font-size="13" font-family="Poppins-Regular, Poppins"><tspan x="0" y="0">Show Row</tspan></text>
        </g>
      </g>
      <g id="Group_58459" data-name="Group 58459" transform="translate(944.627 129.924)">
        <g id="Group_1930" data-name="Group 1930" transform="translate(0 8)">
          <text id="Questions_List" data-name="Questions List" transform="translate(0 21)" font-size="20" font-family="Poppins-Medium, Poppins" font-weight="500"><tspan x="0" y="0">Questions List</tspan></text>
        </g>
        <g id="Group_1931" data-name="Group 1931" transform="translate(741)">
          <rect id="Rectangle_24" data-name="Rectangle 24" width="151" height="44" rx="6" fill="url(#linear-gradient)"/>
          <g id="Group_1974" data-name="Group 1974" transform="translate(15.999 10)">
            <text id="Edit_Project" data-name="Edit Project" transform="translate(24.854 18)" fill="#fff" font-size="17" font-family="Poppins-Medium, Poppins" font-weight="500"><tspan x="0" y="0">Edit Project</tspan></text>
            <g id="noun-edit-5387505" transform="translate(0 4)">
              <path id="Path_2199" data-name="Path 2199" d="M17.641,3.272a2.644,2.644,0,0,0-3.736,0L3.5,13.679a.375.375,0,0,0-.1.185l-.888,4.094a.375.375,0,0,0,.446.446l4.094-.888a.375.375,0,0,0,.185-.1L17.641,7.008A2.645,2.645,0,0,0,17.641,3.272ZM6.782,16.807l-3.418.742.742-3.418,8.97-8.969,2.676,2.676ZM17.111,6.478l-.83.83L13.605,4.632l.83-.83a1.892,1.892,0,1,1,2.676,2.676Z" transform="translate(-2.5 -2.5)" fill="#fff" stroke="#fff" stroke-width="1"/>
            </g>
          </g>
        </g>
        <g id="search" transform="translate(435.927)">
          <g id="Rectangle_23" data-name="Rectangle 23" transform="translate(0)" fill="#fff" stroke="#e6e6e6" stroke-width="1">
            <rect width="294" height="44" rx="4" stroke="none"/>
            <rect x="0.5" y="0.5" width="293" height="43" rx="3.5" fill="none"/>
          </g>
          <path id="Icon_akar-search" data-name="Icon akar-search" d="M25,25l-5.194-5.2m2.879-6.954A9.842,9.842,0,1,1,12.842,3a9.842,9.842,0,0,1,9.842,9.842Z" transform="translate(7 7)" fill="none" stroke="#707070" stroke-linecap="round" stroke-width="2"/>
          <line id="Line_9" data-name="Line 9" y2="34" transform="translate(42 4)" fill="none" stroke="#e8e8e8" stroke-width="1"/>
        </g>
      </g>
      <g id="raw" transform="translate(944.626 201.924)">
        <g id="raw1">
          <g id="Group_1929" data-name="Group 1929">
            <g id="Rectangle_11" data-name="Rectangle 11" fill="#fff" stroke="#e8e8e8" stroke-width="1">
              <rect width="487" height="53" rx="5" stroke="none"/>
              <rect x="0.5" y="0.5" width="486" height="52" rx="4.5" fill="none"/>
            </g>
            <text id="How_are_interested_are_you_in_the_National_Football_League_Please_choose_one." data-name="How are interested are you in the National FootballLeague? Please choose one." transform="translate(49 20)" font-size="16" font-family="Poppins-Regular, Poppins"><tspan x="0" y="0">How are interested are you in the National Football</tspan><tspan x="0" y="20">League? Please choose one.</tspan></text>
            <g id="Layer_1" data-name="Layer 1" transform="translate(8.775 10)">
              <g id="Group_60" data-name="Group 60">
                <path id="Path_27" data-name="Path 27" d="M22.119,28a58.647,58.647,0,0,1-5.962-.316,8.464,8.464,0,0,1-5.746-3.575,1.617,1.617,0,0,0-1.532-.85c-2.023.037-4.049.016-6.072.016-.234,0-.466-.009-.7,0-.516.022-1.016-.146-1.085-.66a1.753,1.753,0,0,1,.435-1.085,9.6,9.6,0,0,1,.944-.859c.807-.822.813-.927.113-1.829A11.51,11.51,0,0,1,0,11.507,11.655,11.655,0,0,1,22.857,8.463a3.134,3.134,0,0,0,1.222,1.845A9.706,9.706,0,0,1,26.437,23.4c-.7,1.1-.7,1.147.2,2.037a6.67,6.67,0,0,1,.863.772c.219.316.481.8.378,1.079a1.3,1.3,0,0,1-.975.611c-1.007.084-2.023.031-3.033.031H22.122V28Zm2.629-1.811a2.854,2.854,0,0,1,.131-3.823A7.016,7.016,0,0,0,26.127,17.4a7.884,7.884,0,0,0-2.7-5.286c-.922,6.629-4.665,10.3-11.252,11.246a6.5,6.5,0,0,0,4.211,2.477c2.692.254,5.412.245,8.366.357Z" transform="translate(0.001 -0.002)"/>
                <path id="Path_28" data-name="Path 28" d="M22.753,27.123c.025-.2.05-.4.079-.588s.058-.385.079-.581a1.773,1.773,0,0,1,.231-.619.406.406,0,0,1,.346-.206.493.493,0,0,1,.151.021.186.186,0,0,1,.1.091l.018.035c-.011.035-.025.077-.04.129s-.032.115-.047.189a2.161,2.161,0,0,1,.054.318c.011.133.018.29.018.472a.816.816,0,0,0,.04.182c.025.087.061.2.1.325.141.4.252.717.335.948a3.98,3.98,0,0,0,.169.434,1.8,1.8,0,0,0,.516.623,1.076,1.076,0,0,0,.624.2,1.534,1.534,0,0,0,.3-.021c.065-.014.1-.046.1-.091a14.434,14.434,0,0,1-1.5-2.365,4.219,4.219,0,0,1-.49-1.764c.007-.2.007-.378.007-.549a.993.993,0,0,0-.036-.234.951.951,0,0,1-.036-.22c.029-.3.065-.584.1-.84a5.113,5.113,0,0,1,.674-1.833,6.24,6.24,0,0,1,1.406-1.592c.252-.213.487-.392.7-.542a4.117,4.117,0,0,1,.552-.336,3.8,3.8,0,0,1,.714-.276,2.89,2.89,0,0,1,.739-.094,3.147,3.147,0,0,1,1.262.238,2.6,2.6,0,0,1,.952.707,2.989,2.989,0,0,1,.563,1,4.031,4.031,0,0,1,.18,1.263c0,.108,0,.231-.014.371s-.022.29-.04.455c-.025.224-.04.4-.054.535a2.793,2.793,0,0,1-.036.287,2.939,2.939,0,0,1-.054.378,4.529,4.529,0,0,1-.123.455c-.058.189-.108.353-.144.493a1.566,1.566,0,0,0-.065.332,1.053,1.053,0,0,1-.076.241,3.228,3.228,0,0,1-.18.353c-.058.1-.119.2-.177.3s-.119.2-.177.3-.115.245-.2.4-.195.339-.325.532c-.187.224-.418.5-.689.847s-.591.735-.963,1.183c-.011.052.022.119.1.2a2.67,2.67,0,0,0,.346.3c.04.035.1.087.162.154a2.784,2.784,0,0,1,.216.248,1.921,1.921,0,0,0,.407.385,5.261,5.261,0,0,0,.656.4,3.582,3.582,0,0,0,.3.252c.123.094.267.2.425.322a2.317,2.317,0,0,1,.382.287c.083.084.123.147.123.192l-.007.084a.953.953,0,0,0-.267.227.984.984,0,0,1-.433.259c-.054,0-.119,0-.2-.007a1.66,1.66,0,0,1-.278-.053,1.492,1.492,0,0,0-.526-.245.728.728,0,0,1-.35-.15,3.056,3.056,0,0,1-.31-.171c-.119-.073-.256-.164-.415-.266-.177-.136-.4-.315-.663-.532s-.573-.483-.919-.8a1.23,1.23,0,0,0-.292-.2c-.047,0-.133.063-.256.192a3.335,3.335,0,0,1-1.486.3,2.774,2.774,0,0,0-.346-.1c-.137-.035-.292-.066-.469-.094-.054-.045-.112-.1-.173-.154a2.855,2.855,0,0,0-.227-.182.859.859,0,0,1-.13-.073c-.047-.031-.1-.073-.18-.126a1.13,1.13,0,0,1-.451-.581,6.2,6.2,0,0,1-.353-1.165c-.022-.133-.047-.269-.072-.413a.554.554,0,0,1,.036-.168c.025-.07.043-.126.054-.157l-.036-.087Zm5.4-7.11a2.418,2.418,0,0,0-1.078.245,3.106,3.106,0,0,0-.948.742,3.587,3.587,0,0,0-.656.983,2.672,2.672,0,0,0-.22,1.078,6.609,6.609,0,0,0,.058.913,4.224,4.224,0,0,0,.18.787c.155.441.267.78.339,1.015s.115.371.13.413a1.3,1.3,0,0,0,.169.182q.362.556.736,1.081a6.024,6.024,0,0,0,.49.658c.133.147.234.22.306.22a1.055,1.055,0,0,0,.7-.441,7.831,7.831,0,0,0,.891-1.326c.3-.542.537-1.022.714-1.431a4.135,4.135,0,0,0,.314-1.036c.065-.476.126-.966.188-1.47-.029-.1-.058-.2-.09-.283a1.222,1.222,0,0,1-.043-.206c-.011-.081-.029-.178-.054-.29a2.433,2.433,0,0,0-.725-1.372,2.04,2.04,0,0,0-1.388-.458Z" transform="translate(-16.71 -12.34)" fill="#fff"/>
              </g>
            </g>
            <g id="noun-arrow-down-2424963" transform="translate(463.128 22)">
              <path id="Path_2191" data-name="Path 2191" d="M2.486,14.938a.922.922,0,0,0-.656.276.961.961,0,0,0,0,1.334l6.716,6.833a.935.935,0,0,0,.656.276.908.908,0,0,0,.656-.276l6.707-6.824a.956.956,0,0,0,.022-1.343.922.922,0,0,0-1.311,0h0L9.214,21.392,3.141,15.214a.921.921,0,0,0-.656-.276Z" transform="translate(-1.561 -14.938)"/>
            </g>
          </g>
        </g>
        <g id="Group_2692" data-name="Group 2692" transform="translate(515 15)">
          <text id="Terminate" transform="translate(29 17)" font-size="16" font-family="Poppins-Regular, Poppins"><tspan x="0" y="0">Terminate</tspan></text>
          <g id="radio" transform="translate(0 2)">
            <g id="radio-2" data-name="radio">
              <g id="Group_2690" data-name="Group 2690">
                <path id="Path_4126" data-name="Path 4126" d="M22.333,31.833a9.5,9.5,0,1,1,9.5-9.5A9.511,9.511,0,0,1,22.333,31.833Zm0-18.233a8.733,8.733,0,1,0,8.733,8.733A8.743,8.743,0,0,0,22.333,13.6Z" transform="translate(-12.833 -12.833)" fill="#c4c4c4"/>
              </g>
            </g>
          </g>
        </g>
        <g id="Group_2693" data-name="Group 2693" transform="translate(648 15)">
          <text id="Quotafull" transform="translate(29 17)" font-size="16" font-family="Poppins-Regular, Poppins"><tspan x="0" y="0">Quotafull</tspan></text>
          <g id="radio-3" data-name="radio" transform="translate(0 2)">
            <g id="radio-4" data-name="radio">
              <g id="Group_2690-2" data-name="Group 2690">
                <path id="Path_4126-2" data-name="Path 4126" d="M22.333,31.833a9.5,9.5,0,1,1,9.5-9.5A9.511,9.511,0,0,1,22.333,31.833Zm0-18.233a8.733,8.733,0,1,0,8.733,8.733A8.743,8.743,0,0,0,22.333,13.6Z" transform="translate(-12.833 -12.833)" fill="#c4c4c4"/>
              </g>
            </g>
            <g id="active">
              <g id="Group_2690-3" data-name="Group 2690">
                <path id="Path_4126-3" data-name="Path 4126" d="M22.333,31.833a9.5,9.5,0,1,1,9.5-9.5A9.511,9.511,0,0,1,22.333,31.833Zm0-18.233a8.733,8.733,0,1,0,8.733,8.733A8.743,8.743,0,0,0,22.333,13.6Z" transform="translate(-12.833 -12.833)" fill="#f05a5c"/>
              </g>
              <circle id="Ellipse_16" data-name="Ellipse 16" cx="6.422" cy="6.422" r="6.422" transform="translate(3.078 3.078)" fill="#f05a5c"/>
            </g>
          </g>
        </g>
        <g id="Group_2694" data-name="Group 2694" transform="translate(771 15)">
          <text id="Completes" transform="translate(29 17)" font-size="16" font-family="Poppins-Regular, Poppins"><tspan x="0" y="0">Completes</tspan></text>
          <g id="radio-5" data-name="radio" transform="translate(0 2)">
            <g id="radio-6" data-name="radio">
              <g id="Group_2690-4" data-name="Group 2690">
                <path id="Path_4126-4" data-name="Path 4126" d="M22.333,31.833a9.5,9.5,0,1,1,9.5-9.5A9.511,9.511,0,0,1,22.333,31.833Zm0-18.233a8.733,8.733,0,1,0,8.733,8.733A8.743,8.743,0,0,0,22.333,13.6Z" transform="translate(-12.833 -12.833)" fill="#c4c4c4"/>
              </g>
            </g>
          </g>
        </g>
      </g>
      <g id="raw-2" data-name="raw" transform="translate(944.626 275.924)">
        <g id="raw1-2" data-name="raw1">
          <g id="Group_1929-2" data-name="Group 1929">
            <g id="Rectangle_11-2" data-name="Rectangle 11" fill="#fff" stroke="#e8e8e8" stroke-width="1">
              <rect width="487" height="53" rx="5" stroke="none"/>
              <rect x="0.5" y="0.5" width="486" height="52" rx="4.5" fill="none"/>
            </g>
            <text id="How_are_interested_are_you_in_the_National_Football_League_Please_choose_one.-2" data-name="How are interested are you in the National FootballLeague? Please choose one." transform="translate(49 20)" font-size="16" font-family="Poppins-Regular, Poppins"><tspan x="0" y="0">How are interested are you in the National Football</tspan><tspan x="0" y="20">League? Please choose one.</tspan></text>
            <g id="Layer_1-2" data-name="Layer 1" transform="translate(8.775 10)">
              <g id="Group_60-2" data-name="Group 60">
                <path id="Path_27-2" data-name="Path 27" d="M22.119,28a58.647,58.647,0,0,1-5.962-.316,8.464,8.464,0,0,1-5.746-3.575,1.617,1.617,0,0,0-1.532-.85c-2.023.037-4.049.016-6.072.016-.234,0-.466-.009-.7,0-.516.022-1.016-.146-1.085-.66a1.753,1.753,0,0,1,.435-1.085,9.6,9.6,0,0,1,.944-.859c.807-.822.813-.927.113-1.829A11.51,11.51,0,0,1,0,11.507,11.655,11.655,0,0,1,22.857,8.463a3.134,3.134,0,0,0,1.222,1.845A9.706,9.706,0,0,1,26.437,23.4c-.7,1.1-.7,1.147.2,2.037a6.67,6.67,0,0,1,.863.772c.219.316.481.8.378,1.079a1.3,1.3,0,0,1-.975.611c-1.007.084-2.023.031-3.033.031H22.122V28Zm2.629-1.811a2.854,2.854,0,0,1,.131-3.823A7.016,7.016,0,0,0,26.127,17.4a7.884,7.884,0,0,0-2.7-5.286c-.922,6.629-4.665,10.3-11.252,11.246a6.5,6.5,0,0,0,4.211,2.477c2.692.254,5.412.245,8.366.357Z" transform="translate(0.001 -0.002)"/>
                <path id="Path_28-2" data-name="Path 28" d="M22.753,27.123c.025-.2.05-.4.079-.588s.058-.385.079-.581a1.773,1.773,0,0,1,.231-.619.406.406,0,0,1,.346-.206.493.493,0,0,1,.151.021.186.186,0,0,1,.1.091l.018.035c-.011.035-.025.077-.04.129s-.032.115-.047.189a2.161,2.161,0,0,1,.054.318c.011.133.018.29.018.472a.816.816,0,0,0,.04.182c.025.087.061.2.1.325.141.4.252.717.335.948a3.98,3.98,0,0,0,.169.434,1.8,1.8,0,0,0,.516.623,1.076,1.076,0,0,0,.624.2,1.534,1.534,0,0,0,.3-.021c.065-.014.1-.046.1-.091a14.434,14.434,0,0,1-1.5-2.365,4.219,4.219,0,0,1-.49-1.764c.007-.2.007-.378.007-.549a.993.993,0,0,0-.036-.234.951.951,0,0,1-.036-.22c.029-.3.065-.584.1-.84a5.113,5.113,0,0,1,.674-1.833,6.24,6.24,0,0,1,1.406-1.592c.252-.213.487-.392.7-.542a4.117,4.117,0,0,1,.552-.336,3.8,3.8,0,0,1,.714-.276,2.89,2.89,0,0,1,.739-.094,3.147,3.147,0,0,1,1.262.238,2.6,2.6,0,0,1,.952.707,2.989,2.989,0,0,1,.563,1,4.031,4.031,0,0,1,.18,1.263c0,.108,0,.231-.014.371s-.022.29-.04.455c-.025.224-.04.4-.054.535a2.793,2.793,0,0,1-.036.287,2.939,2.939,0,0,1-.054.378,4.529,4.529,0,0,1-.123.455c-.058.189-.108.353-.144.493a1.566,1.566,0,0,0-.065.332,1.053,1.053,0,0,1-.076.241,3.228,3.228,0,0,1-.18.353c-.058.1-.119.2-.177.3s-.119.2-.177.3-.115.245-.2.4-.195.339-.325.532c-.187.224-.418.5-.689.847s-.591.735-.963,1.183c-.011.052.022.119.1.2a2.67,2.67,0,0,0,.346.3c.04.035.1.087.162.154a2.784,2.784,0,0,1,.216.248,1.921,1.921,0,0,0,.407.385,5.261,5.261,0,0,0,.656.4,3.582,3.582,0,0,0,.3.252c.123.094.267.2.425.322a2.317,2.317,0,0,1,.382.287c.083.084.123.147.123.192l-.007.084a.953.953,0,0,0-.267.227.984.984,0,0,1-.433.259c-.054,0-.119,0-.2-.007a1.66,1.66,0,0,1-.278-.053,1.492,1.492,0,0,0-.526-.245.728.728,0,0,1-.35-.15,3.056,3.056,0,0,1-.31-.171c-.119-.073-.256-.164-.415-.266-.177-.136-.4-.315-.663-.532s-.573-.483-.919-.8a1.23,1.23,0,0,0-.292-.2c-.047,0-.133.063-.256.192a3.335,3.335,0,0,1-1.486.3,2.774,2.774,0,0,0-.346-.1c-.137-.035-.292-.066-.469-.094-.054-.045-.112-.1-.173-.154a2.855,2.855,0,0,0-.227-.182.859.859,0,0,1-.13-.073c-.047-.031-.1-.073-.18-.126a1.13,1.13,0,0,1-.451-.581,6.2,6.2,0,0,1-.353-1.165c-.022-.133-.047-.269-.072-.413a.554.554,0,0,1,.036-.168c.025-.07.043-.126.054-.157l-.036-.087Zm5.4-7.11a2.418,2.418,0,0,0-1.078.245,3.106,3.106,0,0,0-.948.742,3.587,3.587,0,0,0-.656.983,2.672,2.672,0,0,0-.22,1.078,6.609,6.609,0,0,0,.058.913,4.224,4.224,0,0,0,.18.787c.155.441.267.78.339,1.015s.115.371.13.413a1.3,1.3,0,0,0,.169.182q.362.556.736,1.081a6.024,6.024,0,0,0,.49.658c.133.147.234.22.306.22a1.055,1.055,0,0,0,.7-.441,7.831,7.831,0,0,0,.891-1.326c.3-.542.537-1.022.714-1.431a4.135,4.135,0,0,0,.314-1.036c.065-.476.126-.966.188-1.47-.029-.1-.058-.2-.09-.283a1.222,1.222,0,0,1-.043-.206c-.011-.081-.029-.178-.054-.29a2.433,2.433,0,0,0-.725-1.372,2.04,2.04,0,0,0-1.388-.458Z" transform="translate(-16.71 -12.34)" fill="#fff"/>
              </g>
            </g>
            <g id="noun-arrow-down-2424963-2" data-name="noun-arrow-down-2424963" transform="translate(463.128 22)">
              <path id="Path_2191-2" data-name="Path 2191" d="M2.486,14.938a.922.922,0,0,0-.656.276.961.961,0,0,0,0,1.334l6.716,6.833a.935.935,0,0,0,.656.276.908.908,0,0,0,.656-.276l6.707-6.824a.956.956,0,0,0,.022-1.343.922.922,0,0,0-1.311,0h0L9.214,21.392,3.141,15.214a.921.921,0,0,0-.656-.276Z" transform="translate(-1.561 -14.938)"/>
            </g>
          </g>
        </g>
        <g id="Group_2692-2" data-name="Group 2692" transform="translate(515 15)">
          <text id="Terminate-2" data-name="Terminate" transform="translate(29 17)" font-size="16" font-family="Poppins-Regular, Poppins"><tspan x="0" y="0">Terminate</tspan></text>
          <g id="radio-7" data-name="radio" transform="translate(0 2)">
            <g id="radio-8" data-name="radio">
              <g id="Group_2690-5" data-name="Group 2690">
                <path id="Path_4126-5" data-name="Path 4126" d="M22.333,31.833a9.5,9.5,0,1,1,9.5-9.5A9.511,9.511,0,0,1,22.333,31.833Zm0-18.233a8.733,8.733,0,1,0,8.733,8.733A8.743,8.743,0,0,0,22.333,13.6Z" transform="translate(-12.833 -12.833)" fill="#c4c4c4"/>
              </g>
            </g>
            <g id="active-2" data-name="active">
              <g id="Group_2690-6" data-name="Group 2690">
                <path id="Path_4126-6" data-name="Path 4126" d="M22.333,31.833a9.5,9.5,0,1,1,9.5-9.5A9.511,9.511,0,0,1,22.333,31.833Zm0-18.233a8.733,8.733,0,1,0,8.733,8.733A8.743,8.743,0,0,0,22.333,13.6Z" transform="translate(-12.833 -12.833)" fill="#f05a5c"/>
              </g>
              <circle id="Ellipse_16-2" data-name="Ellipse 16" cx="6.422" cy="6.422" r="6.422" transform="translate(3.078 3.078)" fill="#f05a5c"/>
            </g>
          </g>
        </g>
        <g id="Group_2693-2" data-name="Group 2693" transform="translate(648 15)">
          <text id="Quotafull-2" data-name="Quotafull" transform="translate(29 17)" font-size="16" font-family="Poppins-Regular, Poppins"><tspan x="0" y="0">Quotafull</tspan></text>
          <g id="radio-9" data-name="radio" transform="translate(0 2)">
            <g id="radio-10" data-name="radio">
              <g id="Group_2690-7" data-name="Group 2690">
                <path id="Path_4126-7" data-name="Path 4126" d="M22.333,31.833a9.5,9.5,0,1,1,9.5-9.5A9.511,9.511,0,0,1,22.333,31.833Zm0-18.233a8.733,8.733,0,1,0,8.733,8.733A8.743,8.743,0,0,0,22.333,13.6Z" transform="translate(-12.833 -12.833)" fill="#c4c4c4"/>
              </g>
            </g>
          </g>
        </g>
        <g id="Group_2694-2" data-name="Group 2694" transform="translate(771 15)">
          <text id="Completes-2" data-name="Completes" transform="translate(29 17)" font-size="16" font-family="Poppins-Regular, Poppins"><tspan x="0" y="0">Completes</tspan></text>
          <g id="radio-11" data-name="radio" transform="translate(0 2)">
            <g id="radio-12" data-name="radio">
              <g id="Group_2690-8" data-name="Group 2690">
                <path id="Path_4126-8" data-name="Path 4126" d="M22.333,31.833a9.5,9.5,0,1,1,9.5-9.5A9.511,9.511,0,0,1,22.333,31.833Zm0-18.233a8.733,8.733,0,1,0,8.733,8.733A8.743,8.743,0,0,0,22.333,13.6Z" transform="translate(-12.833 -12.833)" fill="#c4c4c4"/>
              </g>
            </g>
          </g>
        </g>
      </g>
      <g id="raw-3" data-name="raw" transform="translate(944.626 349.924)">
        <g id="raw1-3" data-name="raw1">
          <g id="Group_1929-3" data-name="Group 1929">
            <g id="Rectangle_11-3" data-name="Rectangle 11" fill="#fff" stroke="#e8e8e8" stroke-width="1">
              <rect width="487" height="53" rx="5" stroke="none"/>
              <rect x="0.5" y="0.5" width="486" height="52" rx="4.5" fill="none"/>
            </g>
            <text id="How_are_interested_are_you_in_the_National_Football_League_Please_choose_one.-3" data-name="How are interested are you in the National FootballLeague? Please choose one." transform="translate(49 20)" font-size="16" font-family="Poppins-Regular, Poppins"><tspan x="0" y="0">How are interested are you in the National Football</tspan><tspan x="0" y="20">League? Please choose one.</tspan></text>
            <g id="Layer_1-3" data-name="Layer 1" transform="translate(8.775 10)">
              <g id="Group_60-3" data-name="Group 60">
                <path id="Path_27-3" data-name="Path 27" d="M22.119,28a58.647,58.647,0,0,1-5.962-.316,8.464,8.464,0,0,1-5.746-3.575,1.617,1.617,0,0,0-1.532-.85c-2.023.037-4.049.016-6.072.016-.234,0-.466-.009-.7,0-.516.022-1.016-.146-1.085-.66a1.753,1.753,0,0,1,.435-1.085,9.6,9.6,0,0,1,.944-.859c.807-.822.813-.927.113-1.829A11.51,11.51,0,0,1,0,11.507,11.655,11.655,0,0,1,22.857,8.463a3.134,3.134,0,0,0,1.222,1.845A9.706,9.706,0,0,1,26.437,23.4c-.7,1.1-.7,1.147.2,2.037a6.67,6.67,0,0,1,.863.772c.219.316.481.8.378,1.079a1.3,1.3,0,0,1-.975.611c-1.007.084-2.023.031-3.033.031H22.122V28Zm2.629-1.811a2.854,2.854,0,0,1,.131-3.823A7.016,7.016,0,0,0,26.127,17.4a7.884,7.884,0,0,0-2.7-5.286c-.922,6.629-4.665,10.3-11.252,11.246a6.5,6.5,0,0,0,4.211,2.477c2.692.254,5.412.245,8.366.357Z" transform="translate(0.001 -0.002)"/>
                <path id="Path_28-3" data-name="Path 28" d="M22.753,27.123c.025-.2.05-.4.079-.588s.058-.385.079-.581a1.773,1.773,0,0,1,.231-.619.406.406,0,0,1,.346-.206.493.493,0,0,1,.151.021.186.186,0,0,1,.1.091l.018.035c-.011.035-.025.077-.04.129s-.032.115-.047.189a2.161,2.161,0,0,1,.054.318c.011.133.018.29.018.472a.816.816,0,0,0,.04.182c.025.087.061.2.1.325.141.4.252.717.335.948a3.98,3.98,0,0,0,.169.434,1.8,1.8,0,0,0,.516.623,1.076,1.076,0,0,0,.624.2,1.534,1.534,0,0,0,.3-.021c.065-.014.1-.046.1-.091a14.434,14.434,0,0,1-1.5-2.365,4.219,4.219,0,0,1-.49-1.764c.007-.2.007-.378.007-.549a.993.993,0,0,0-.036-.234.951.951,0,0,1-.036-.22c.029-.3.065-.584.1-.84a5.113,5.113,0,0,1,.674-1.833,6.24,6.24,0,0,1,1.406-1.592c.252-.213.487-.392.7-.542a4.117,4.117,0,0,1,.552-.336,3.8,3.8,0,0,1,.714-.276,2.89,2.89,0,0,1,.739-.094,3.147,3.147,0,0,1,1.262.238,2.6,2.6,0,0,1,.952.707,2.989,2.989,0,0,1,.563,1,4.031,4.031,0,0,1,.18,1.263c0,.108,0,.231-.014.371s-.022.29-.04.455c-.025.224-.04.4-.054.535a2.793,2.793,0,0,1-.036.287,2.939,2.939,0,0,1-.054.378,4.529,4.529,0,0,1-.123.455c-.058.189-.108.353-.144.493a1.566,1.566,0,0,0-.065.332,1.053,1.053,0,0,1-.076.241,3.228,3.228,0,0,1-.18.353c-.058.1-.119.2-.177.3s-.119.2-.177.3-.115.245-.2.4-.195.339-.325.532c-.187.224-.418.5-.689.847s-.591.735-.963,1.183c-.011.052.022.119.1.2a2.67,2.67,0,0,0,.346.3c.04.035.1.087.162.154a2.784,2.784,0,0,1,.216.248,1.921,1.921,0,0,0,.407.385,5.261,5.261,0,0,0,.656.4,3.582,3.582,0,0,0,.3.252c.123.094.267.2.425.322a2.317,2.317,0,0,1,.382.287c.083.084.123.147.123.192l-.007.084a.953.953,0,0,0-.267.227.984.984,0,0,1-.433.259c-.054,0-.119,0-.2-.007a1.66,1.66,0,0,1-.278-.053,1.492,1.492,0,0,0-.526-.245.728.728,0,0,1-.35-.15,3.056,3.056,0,0,1-.31-.171c-.119-.073-.256-.164-.415-.266-.177-.136-.4-.315-.663-.532s-.573-.483-.919-.8a1.23,1.23,0,0,0-.292-.2c-.047,0-.133.063-.256.192a3.335,3.335,0,0,1-1.486.3,2.774,2.774,0,0,0-.346-.1c-.137-.035-.292-.066-.469-.094-.054-.045-.112-.1-.173-.154a2.855,2.855,0,0,0-.227-.182.859.859,0,0,1-.13-.073c-.047-.031-.1-.073-.18-.126a1.13,1.13,0,0,1-.451-.581,6.2,6.2,0,0,1-.353-1.165c-.022-.133-.047-.269-.072-.413a.554.554,0,0,1,.036-.168c.025-.07.043-.126.054-.157l-.036-.087Zm5.4-7.11a2.418,2.418,0,0,0-1.078.245,3.106,3.106,0,0,0-.948.742,3.587,3.587,0,0,0-.656.983,2.672,2.672,0,0,0-.22,1.078,6.609,6.609,0,0,0,.058.913,4.224,4.224,0,0,0,.18.787c.155.441.267.78.339,1.015s.115.371.13.413a1.3,1.3,0,0,0,.169.182q.362.556.736,1.081a6.024,6.024,0,0,0,.49.658c.133.147.234.22.306.22a1.055,1.055,0,0,0,.7-.441,7.831,7.831,0,0,0,.891-1.326c.3-.542.537-1.022.714-1.431a4.135,4.135,0,0,0,.314-1.036c.065-.476.126-.966.188-1.47-.029-.1-.058-.2-.09-.283a1.222,1.222,0,0,1-.043-.206c-.011-.081-.029-.178-.054-.29a2.433,2.433,0,0,0-.725-1.372,2.04,2.04,0,0,0-1.388-.458Z" transform="translate(-16.71 -12.34)" fill="#fff"/>
              </g>
            </g>
            <g id="noun-arrow-down-2424963-3" data-name="noun-arrow-down-2424963" transform="translate(463.128 22)">
              <path id="Path_2191-3" data-name="Path 2191" d="M2.486,14.938a.922.922,0,0,0-.656.276.961.961,0,0,0,0,1.334l6.716,6.833a.935.935,0,0,0,.656.276.908.908,0,0,0,.656-.276l6.707-6.824a.956.956,0,0,0,.022-1.343.922.922,0,0,0-1.311,0h0L9.214,21.392,3.141,15.214a.921.921,0,0,0-.656-.276Z" transform="translate(-1.561 -14.938)"/>
            </g>
          </g>
        </g>
        <g id="Group_2692-3" data-name="Group 2692" transform="translate(515 15)">
          <text id="Terminate-3" data-name="Terminate" transform="translate(29 17)" font-size="16" font-family="Poppins-Regular, Poppins"><tspan x="0" y="0">Terminate</tspan></text>
          <g id="radio-13" data-name="radio" transform="translate(0 2)">
            <g id="radio-14" data-name="radio">
              <g id="Group_2690-9" data-name="Group 2690">
                <path id="Path_4126-9" data-name="Path 4126" d="M22.333,31.833a9.5,9.5,0,1,1,9.5-9.5A9.511,9.511,0,0,1,22.333,31.833Zm0-18.233a8.733,8.733,0,1,0,8.733,8.733A8.743,8.743,0,0,0,22.333,13.6Z" transform="translate(-12.833 -12.833)" fill="#c4c4c4"/>
              </g>
            </g>
            <g id="active-3" data-name="active">
              <g id="Group_2690-10" data-name="Group 2690">
                <path id="Path_4126-10" data-name="Path 4126" d="M22.333,31.833a9.5,9.5,0,1,1,9.5-9.5A9.511,9.511,0,0,1,22.333,31.833Zm0-18.233a8.733,8.733,0,1,0,8.733,8.733A8.743,8.743,0,0,0,22.333,13.6Z" transform="translate(-12.833 -12.833)" fill="#f05a5c"/>
              </g>
              <circle id="Ellipse_16-3" data-name="Ellipse 16" cx="6.422" cy="6.422" r="6.422" transform="translate(3.078 3.078)" fill="#f05a5c"/>
            </g>
          </g>
        </g>
        <g id="Group_2693-3" data-name="Group 2693" transform="translate(648 15)">
          <text id="Quotafull-3" data-name="Quotafull" transform="translate(29 17)" font-size="16" font-family="Poppins-Regular, Poppins"><tspan x="0" y="0">Quotafull</tspan></text>
          <g id="radio-15" data-name="radio" transform="translate(0 2)">
            <g id="radio-16" data-name="radio">
              <g id="Group_2690-11" data-name="Group 2690">
                <path id="Path_4126-11" data-name="Path 4126" d="M22.333,31.833a9.5,9.5,0,1,1,9.5-9.5A9.511,9.511,0,0,1,22.333,31.833Zm0-18.233a8.733,8.733,0,1,0,8.733,8.733A8.743,8.743,0,0,0,22.333,13.6Z" transform="translate(-12.833 -12.833)" fill="#c4c4c4"/>
              </g>
            </g>
          </g>
        </g>
        <g id="Group_2694-3" data-name="Group 2694" transform="translate(771 15)">
          <text id="Completes-3" data-name="Completes" transform="translate(29 17)" font-size="16" font-family="Poppins-Regular, Poppins"><tspan x="0" y="0">Completes</tspan></text>
          <g id="radio-17" data-name="radio" transform="translate(0 2)">
            <g id="radio-18" data-name="radio">
              <g id="Group_2690-12" data-name="Group 2690">
                <path id="Path_4126-12" data-name="Path 4126" d="M22.333,31.833a9.5,9.5,0,1,1,9.5-9.5A9.511,9.511,0,0,1,22.333,31.833Zm0-18.233a8.733,8.733,0,1,0,8.733,8.733A8.743,8.743,0,0,0,22.333,13.6Z" transform="translate(-12.833 -12.833)" fill="#c4c4c4"/>
              </g>
            </g>
          </g>
        </g>
      </g>
    </g>
    <g id="Group_396" data-name="Group 396" transform="translate(-25 -47)">
      <text id="Projects" transform="translate(25 143)" font-size="22" font-family="Poppins-Medium, Poppins" font-weight="500"><tspan x="0" y="0">Projects</tspan></text>
      <rect id="Rectangle_141" data-name="Rectangle 141" width="38" height="3" rx="1.5" transform="translate(26 153)" fill="#f05a5c"/>
    </g>
    <text id="Project_name_3452_user-survey_Question_List" data-name="Project_name_3452_user-survey  /  Question List" transform="translate(553 97)" fill="#656565" font-size="15" font-family="Poppins-Light, Poppins" font-weight="300"><tspan x="0" y="0">Project_name_3452_user-survey</tspan><tspan y="0" font-family="SegoeUI, Segoe UI" font-weight="400"> </tspan><tspan y="0" xml:space="preserve" fill="#505050" font-family="SegoeUI, Segoe UI" font-weight="400"> /  </tspan><tspan y="0" font-family="Poppins-Medium, Poppins" font-weight="500" fill="#000">Question List</tspan></text>
    <g id="header">
      <rect id="Rectangle_4" data-name="Rectangle 4" width="920" height="64" fill="#fcfcfc"/>
      <line id="Line_1" data-name="Line 1" x2="920" transform="translate(0 64)" fill="none" stroke="#e8e8e8" stroke-width="1"/>
      <g id="Group_373" data-name="Group 373" transform="translate(-102 -20)">
        <g id="Component_4_34" data-name="Component 4 – 34" transform="translate(400 24)">
          <rect id="Rectangle_10" data-name="Rectangle 10" width="165" height="40" rx="4" fill="#f9f9f9"/>
          <g id="Group_1934" data-name="Group 1934" transform="translate(-1)">
            <text id="Dashboard" transform="translate(61 26)" font-size="16" font-family="Poppins-Regular, Poppins"><tspan x="0" y="0">Dashboard</tspan></text>
            <g id="Icon_material-dashboard" data-name="Icon material-dashboard" transform="translate(11.5 5.5)" fill="none">
              <path d="M4.5,15.611h8.889V4.5H4.5Zm0,8.889h8.889V17.833H4.5Zm11.111,0H24.5V13.389H15.611Zm0-20v6.667H24.5V4.5Z" stroke="none"/>
              <path d="M 22.5 22.5 L 22.5 15.38889026641846 L 17.61111068725586 15.38889026641846 L 17.61111068725586 22.5 L 22.5 22.5 M 11.38889026641846 22.5 L 11.38889026641846 19.83333015441895 L 6.5 19.83333015441895 L 6.5 22.5 L 11.38889026641846 22.5 M 11.38889026641846 13.61110973358154 L 11.38889026641846 6.5 L 6.5 6.5 L 6.5 13.61110973358154 L 11.38889026641846 13.61110973358154 M 22.5 9.166669845581055 L 22.5 6.5 L 17.61111068725586 6.5 L 17.61111068725586 9.166669845581055 L 22.5 9.166669845581055 M 24.5 24.5 L 15.61110973358154 24.5 L 15.61110973358154 13.38889026641846 L 24.5 13.38889026641846 L 24.5 24.5 Z M 13.38889026641846 24.5 L 4.5 24.5 L 4.5 17.83333015441895 L 13.38889026641846 17.83333015441895 L 13.38889026641846 24.5 Z M 13.38889026641846 15.61110973358154 L 4.5 15.61110973358154 L 4.5 4.5 L 13.38889026641846 4.5 L 13.38889026641846 15.61110973358154 Z M 24.5 11.16666984558105 L 15.61110973358154 11.16666984558105 L 15.61110973358154 4.5 L 24.5 4.5 L 24.5 11.16666984558105 Z" stroke="none" fill="#000"/>
            </g>
          </g>
        </g>
        <g id="Component_4_35" data-name="Component 4 – 35" transform="translate(583 24)">
          <rect id="Rectangle_10-2" data-name="Rectangle 10" width="165" height="40" rx="4" fill="#f2f2f2"/>
          <g id="Group_1935" data-name="Group 1935" transform="translate(11)">
            <text id="Projects-2" data-name="Projects" transform="translate(63 26)" font-size="16" font-family="Poppins-Regular, Poppins"><tspan x="0" y="0">Projects</tspan></text>
            <path id="Icon_feather-folder" data-name="Icon feather-folder" d="M25,22.278A2.211,2.211,0,0,1,22.8,24.5H5.2A2.211,2.211,0,0,1,3,22.278V6.722A2.211,2.211,0,0,1,5.2,4.5h5.5l2.2,3.333h9.9A2.211,2.211,0,0,1,25,10.056Z" transform="translate(13 5.5)"/>
          </g>
          <line id="Line_11" data-name="Line 11" x1="108" transform="translate(28.5 41)" fill="none" stroke="#f15b5b" stroke-linecap="round" stroke-width="2"/>
        </g>
        <g id="Component_4_36" data-name="Component 4 – 36" transform="translate(761 24)">
          <rect id="Rectangle_10-3" data-name="Rectangle 10" width="165" height="40" rx="4" fill="#f9f9f9"/>
          <g id="Group_1921" data-name="Group 1921" transform="translate(-1.098)">
            <text id="Add_Project" data-name="Add Project" transform="translate(60.822 26)" font-size="16" font-family="Poppins-Regular, Poppins"><tspan x="0" y="0">Add Project</tspan></text>
            <g id="Icon_feather-folder-plus" data-name="Icon feather-folder-plus" transform="translate(16.098 10)">
              <path id="Path_5" data-name="Path 5" d="M25.134,22.278A2.218,2.218,0,0,1,22.921,24.5H5.213A2.218,2.218,0,0,1,3,22.278V6.722A2.218,2.218,0,0,1,5.213,4.5h5.534L12.96,7.833h9.96a2.218,2.218,0,0,1,2.213,2.222Z" transform="translate(-3 -4.5)" fill="none" stroke="#000" stroke-linecap="round" stroke-linejoin="round" stroke-width="2"/>
              <path id="Path_6" data-name="Path 6" d="M18,16.5v6.667" transform="translate(-6.933 -7.611)" fill="none" stroke="#000" stroke-linecap="round" stroke-linejoin="round" stroke-width="2"/>
              <path id="Path_7" data-name="Path 7" d="M13.5,21h6.64" transform="translate(-5.753 -8.778)" fill="none" stroke="#000" stroke-linecap="round" stroke-linejoin="round" stroke-width="2"/>
            </g>
          </g>
        </g>
      </g>
      <g id="Component_2_11" data-name="Component 2 – 11" transform="translate(872 4)">
        <g id="Group_2" data-name="Group 2" transform="translate(-1719 -23)">
          <rect id="Rectangle_3" data-name="Rectangle 3" width="48" height="40" rx="5" transform="translate(1719 23)" fill="#e0e0e0"/>
          <text id="AG" transform="translate(1743 51)" font-size="20" font-family="Poppins-Medium, Poppins" font-weight="500"><tspan x="-14.7" y="0">AG</tspan></text>
        </g>
      </g>
      <g id="logo" transform="translate(-3453.317 -565.973)">
        <g id="Group_2661" data-name="Group 2661" transform="translate(3539.293 572.766) rotate(-8)">
          <g id="Group_2658" data-name="Group 2658" transform="translate(0 7.717)">
            <path id="Path_3839" data-name="Path 3839" d="M29.506,13.184A12.886,12.886,0,0,1,17.039,30.17,12.881,12.881,0,0,1,4.413,17.039a12.883,12.883,0,0,1,21-9.744,6.615,6.615,0,0,0,.854.567,19.712,19.712,0,0,1,1.351-1.606,17.263,17.263,0,0,1,1.461-1.577l-.064-.03.064.03.024-.011a17.293,17.293,0,1,0-18.86,28.422,17.3,17.3,0,0,0,23.1-22.215c-.069-.172-.142-.342-.215-.512a.148.148,0,0,0-.03.01" transform="translate(0 0)" fill="url(#linear-gradient-2)"/>
          </g>
          <path id="Path_3840" data-name="Path 3840" d="M13.52,25.452,0,11.131l11.769,6.494L36.127,0Z" transform="translate(3.414 7.707)" stroke="#fff" stroke-miterlimit="10" stroke-width="0.25" fill="url(#linear-gradient-3)"/>
          <g id="Group_2659" data-name="Group 2659" transform="translate(29.219 0)">
            <path id="Path_3841" data-name="Path 3841" d="M3.564.128a.567.567,0,1,1,.677.909L.9,3.535a.567.567,0,0,1-.678-.909Z" transform="translate(1.017 10.371)" fill="url(#linear-gradient-4)"/>
            <path id="Path_3842" data-name="Path 3842" d="M2.853.216a.567.567,0,1,1,.86.738L.994,4.122a.568.568,0,0,1-.86-.738Z" transform="translate(2.958 12.462)" fill="url(#linear-gradient-5)"/>
            <path id="Path_3843" data-name="Path 3843" d="M3.669,3.636,0,2.932C3.706-.168,3.907-.026,6.612.013A18.635,18.635,0,0,0,3.669,3.638Z" transform="translate(0 5.463)" fill-rule="evenodd" fill="url(#linear-gradient-6)"/>
            <path id="Path_3844" data-name="Path 3844" d="M0,2.355.1,6.044C3.727,2.853,3.617,2.634,4.031,0A26.582,26.582,0,0,1,0,2.357Z" transform="translate(8.406 12.269)" fill-rule="evenodd" fill="url(#linear-gradient-7)"/>
            <path id="Path_3845" data-name="Path 3845" d="M13.826,6.566C12.371,8.993,6.567,13.5,3.456,14.359L0,10.329C1.281,7.423,6.7,2.382,9.322,1.314c6.9-2.77,8.3-1.224,4.505,5.253ZM11.573,3.94a2.343,2.343,0,0,1-.3,3.319,2.342,2.342,0,0,1-3.326-.213A2.386,2.386,0,1,1,11.573,3.94Z" transform="translate(3.702 0)" fill-rule="evenodd" fill="url(#linear-gradient-8)"/>
            <circle id="Ellipse_15" data-name="Ellipse 15" cx="1.372" cy="1.372" r="1.372" transform="translate(12.092 4.122)" fill="url(#linear-gradient-9)"/>
          </g>
        </g>
        <path id="Path_3846" data-name="Path 3846" d="M4.97-23.184q-1.127,0-1.127-1.192V-44.54q0-1.192,1.127-1.192h5.508a7.321,7.321,0,0,1,6.249,2.738q2.062,2.738,2.062,8.5,0,5.8-2.062,8.552a7.3,7.3,0,0,1-6.249,2.754Zm3.157-3.608h2.384a3.129,3.129,0,0,0,3.012-1.82,13.871,13.871,0,0,0,.918-5.879,13.651,13.651,0,0,0-.918-5.83,3.133,3.133,0,0,0-3.012-1.8H8.127Zm17.459,3.833A4.386,4.386,0,0,1,22.155-24.3a5.3,5.3,0,0,1-1.208-3.688,5.783,5.783,0,0,1,.805-3.044,5.478,5.478,0,0,1,2.609-2.126,12.152,12.152,0,0,1,4.8-.789v-.87a2.4,2.4,0,0,0-.5-1.594,2.144,2.144,0,0,0-1.723-.6,7.873,7.873,0,0,0-2.094.258,12.936,12.936,0,0,0-1.546.515,2.685,2.685,0,0,1-.87.258q-.29,0-.467-.419a3.958,3.958,0,0,1-.258-.966,6.434,6.434,0,0,1-.081-.9q0-.419.821-.886a8.45,8.45,0,0,1,2.11-.789,10.849,10.849,0,0,1,2.641-.322q3.189,0,4.638,1.466a5.237,5.237,0,0,1,1.45,3.849v6.474a18.975,18.975,0,0,0,.161,2.963,8.436,8.436,0,0,1,.161,1.321.579.579,0,0,1-.37.515,3.561,3.561,0,0,1-.886.306,8.751,8.751,0,0,1-1,.161q-.483.048-.709.048a.784.784,0,0,1-.757-.387,5.381,5.381,0,0,1-.4-1.385A5.521,5.521,0,0,1,28-23.586,4.346,4.346,0,0,1,25.586-22.958Zm1.288-3.028a2.349,2.349,0,0,0,1.3-.387,3.119,3.119,0,0,0,.982-1.031v-3.93a4.99,4.99,0,0,0-3.173.773,2.861,2.861,0,0,0-.918,2.319,2.71,2.71,0,0,0,.451,1.643A1.572,1.572,0,0,0,26.874-25.986Zm13.948,3.028a4.078,4.078,0,0,1-2.835-1.015,4.39,4.39,0,0,1-1.127-3.4v-9.406h-.9q-.87,0-.87-1.385v-.483q0-1.385.87-1.385h.9l.483-3.157q.161-.934,1.417-.934h.773q1.45,0,1.45.934v3.157h1.643q.87,0,.87,1.385v.483q0,1.385-.87,1.385H40.983v8.987a2.573,2.573,0,0,0,.209,1.224.8.8,0,0,0,.757.354,2.446,2.446,0,0,0,.66-.064,1.47,1.47,0,0,1,.435-.064q.258,0,.419.4a4.271,4.271,0,0,1,.242.886,4.871,4.871,0,0,1,.081.741.874.874,0,0,1-.451.725,3.4,3.4,0,0,1-1.144.467A6.029,6.029,0,0,1,40.822-22.958Zm9.019,0A4.386,4.386,0,0,1,46.41-24.3,5.3,5.3,0,0,1,45.2-27.983a5.783,5.783,0,0,1,.805-3.044,5.478,5.478,0,0,1,2.609-2.126,12.152,12.152,0,0,1,4.8-.789v-.87a2.4,2.4,0,0,0-.5-1.594,2.144,2.144,0,0,0-1.723-.6,7.873,7.873,0,0,0-2.094.258,12.936,12.936,0,0,0-1.546.515,2.685,2.685,0,0,1-.87.258q-.29,0-.467-.419a3.957,3.957,0,0,1-.258-.966,6.434,6.434,0,0,1-.081-.9q0-.419.821-.886a8.45,8.45,0,0,1,2.11-.789,10.849,10.849,0,0,1,2.641-.322q3.189,0,4.638,1.466a5.237,5.237,0,0,1,1.45,3.849v6.474A18.975,18.975,0,0,0,57.7-25.5a8.436,8.436,0,0,1,.161,1.321.579.579,0,0,1-.37.515,3.561,3.561,0,0,1-.886.306,8.751,8.751,0,0,1-1,.161q-.483.048-.709.048a.784.784,0,0,1-.757-.387,5.381,5.381,0,0,1-.4-1.385,5.521,5.521,0,0,1-1.482,1.337A4.346,4.346,0,0,1,49.841-22.958Zm1.288-3.028a2.349,2.349,0,0,0,1.3-.387,3.119,3.119,0,0,0,.982-1.031v-3.93a4.99,4.99,0,0,0-3.173.773,2.861,2.861,0,0,0-.918,2.319,2.71,2.71,0,0,0,.451,1.643A1.572,1.572,0,0,0,51.129-25.986Zm11.725,2.867a2.734,2.734,0,0,1-1.337-.242.764.764,0,0,1-.4-.693V-44.54q0-1.192,1.127-1.192h5.283q6.668,0,6.668,6.861,0,6.893-6.668,6.893H65.4v7.924a.764.764,0,0,1-.4.693,2.734,2.734,0,0,1-1.337.242ZM65.4-35.585h2.126a2.215,2.215,0,0,0,1.917-.773,4.343,4.343,0,0,0,.564-2.512,4.272,4.272,0,0,0-.564-2.48,2.215,2.215,0,0,0-1.917-.773H65.4ZM77.543-23.119a2.647,2.647,0,0,1-1.3-.242.764.764,0,0,1-.4-.693V-39.161a.764.764,0,0,1,.4-.693,2.647,2.647,0,0,1,1.3-.242h.709a2.647,2.647,0,0,1,1.3.242.764.764,0,0,1,.4.693v15.107a.764.764,0,0,1-.4.693,2.647,2.647,0,0,1-1.3.242ZM77.929-41.9a3.769,3.769,0,0,1-1.578-.242.753.753,0,0,1-.483-.693v-2.319a.734.734,0,0,1,.483-.66,3.769,3.769,0,0,1,1.578-.242,3.9,3.9,0,0,1,1.546.225.723.723,0,0,1,.483.676v2.319a.753.753,0,0,1-.483.693A3.665,3.665,0,0,1,77.929-41.9Zm9.277,18.94a4.078,4.078,0,0,1-2.835-1.015,4.39,4.39,0,0,1-1.127-3.4V-46.5a.764.764,0,0,1,.4-.693,2.647,2.647,0,0,1,1.3-.242h.709a2.647,2.647,0,0,1,1.3.242.764.764,0,0,1,.4.693V-27.79a2.573,2.573,0,0,0,.209,1.224.8.8,0,0,0,.757.354,2.446,2.446,0,0,0,.66-.064,1.47,1.47,0,0,1,.435-.064q.258,0,.419.4a4.27,4.27,0,0,1,.242.886,4.871,4.871,0,0,1,.081.741.874.874,0,0,1-.451.725,3.4,3.4,0,0,1-1.144.467A6.029,6.029,0,0,1,87.206-22.958Zm48.575,0a4.078,4.078,0,0,1-2.835-1.015,4.39,4.39,0,0,1-1.127-3.4v-9.406h-.9q-.87,0-.87-1.385v-.483q0-1.385.87-1.385h.9l.483-3.157q.161-.934,1.417-.934h.773q1.45,0,1.45.934v3.157h1.643q.87,0,.87,1.385v.483q0,1.385-.87,1.385h-1.643v8.987a2.573,2.573,0,0,0,.209,1.224.8.8,0,0,0,.757.354,2.446,2.446,0,0,0,.66-.064,1.47,1.47,0,0,1,.435-.064q.258,0,.419.4a4.271,4.271,0,0,1,.242.886,4.871,4.871,0,0,1,.081.741.874.874,0,0,1-.451.725,3.4,3.4,0,0,1-1.144.467A6.029,6.029,0,0,1,135.781-22.958Z" transform="translate(3450.34 630.774)"/>
      </g>
    </g>
  </g>
</svg>
