<svg xmlns="http://www.w3.org/2000/svg" xmlns:xlink="http://www.w3.org/1999/xlink" width="100%" height="100%"  viewBox="0 0 938 486">
  <defs>
    <filter id="Rectangle_138" x="0" y="125" width="938" height="361" filterUnits="userSpaceOnUse">
      <feOffset input="SourceAlpha"/>
      <feGaussianBlur stdDeviation="3" result="blur"/>
      <feFlood flood-opacity="0.11"/>
      <feComposite operator="in" in2="blur"/>
      <feComposite in="SourceGraphic"/>
    </filter>
    <linearGradient id="linear-gradient" x1="1" y1="0.5" x2="0" y2="0.5" gradientUnits="objectBoundingBox">
      <stop offset="0" stop-color="#f15b5b"/>
      <stop offset="1" stop-color="#ee911c"/>
    </linearGradient>
    <linearGradient id="linear-gradient-2" x1="0.039" y1="0.502" x2="1.039" y2="0.502" gradientUnits="objectBoundingBox">
      <stop offset="0" stop-color="#ff603c"/>
      <stop offset="1" stop-color="#e8a50f"/>
    </linearGradient>
    <linearGradient id="linear-gradient-3" x1="0" y1="0.5" x2="1" y2="0.5" xlink:href="#linear-gradient-2"/>
    <linearGradient id="linear-gradient-4" x1="0.012" y1="0.394" x2="1.01" y2="0.394" xlink:href="#linear-gradient-2"/>
    <linearGradient id="linear-gradient-5" x1="-4.606" y1="1.434" x2="-3.447" y2="1.434" xlink:href="#linear-gradient-2"/>
    <linearGradient id="linear-gradient-6" x1="-0.722" y1="0.901" x2="0.304" y2="0.901" xlink:href="#linear-gradient-2"/>
    <linearGradient id="linear-gradient-7" x1="-1.321" y1="0.802" x2="-0.252" y2="0.802" xlink:href="#linear-gradient-2"/>
    <linearGradient id="linear-gradient-8" x1="-0.309" y1="0.637" x2="0.725" y2="0.637" xlink:href="#linear-gradient-2"/>
    <linearGradient id="linear-gradient-9" x1="-1.682" y1="1.243" x2="-0.682" y2="1.243" xlink:href="#linear-gradient-2"/>
  </defs>
  <g id="DataPilot_Slider2" transform="translate(9)">
    <rect id="Rectangle_133" data-name="Rectangle 133" width="920" height="416" transform="translate(0 64)" fill="#fcfcfc"/>
    <g id="Group_11" data-name="Group 11" transform="translate(-913.626 6)">
      <g transform="matrix(1, 0, 0, 1, 904.63, -6)" filter="url(#Rectangle_138)">
        <rect id="Rectangle_138-2" data-name="Rectangle 138" width="920" height="343" rx="10" transform="translate(9 134)" fill="#fcfcfc"/>
      </g>
      <g id="Group_395" data-name="Group 395" transform="translate(946.023 177)">
        <g id="raw" transform="translate(-13 2)">
          <rect id="Rectangle_11" data-name="Rectangle 11" width="879" height="60" transform="translate(-0.001)" fill="#fff"/>
          <rect id="line" width="879" height="1" transform="translate(-0.001 59)" fill="#e5e5e5"/>
          <text id="_3452_user-survey" data-name="3452_user-survey" transform="translate(3.602 36.185)" font-size="16" font-family="Poppins-Regular, Poppins"><tspan x="0" y="0">3452_user-survey</tspan></text>
          <text id="Confirmit" transform="translate(180.602 36.185)" font-size="16" font-family="Poppins-Regular, Poppins"><tspan x="0" y="0">Confirmit</tspan></text>
          <text id="_23" data-name="23" transform="translate(294.602 36.185)" font-size="16" font-family="Poppins-Regular, Poppins"><tspan x="-9.312" y="0">23</tspan></text>
          <text id="_15" data-name="15" transform="translate(405.602 36.185)" font-size="16" font-family="Poppins-Regular, Poppins"><tspan x="-7.584" y="0">15</tspan></text>
          <text id="_137" data-name="137" transform="translate(653.602 36.185)" font-size="16" font-family="Poppins-Regular, Poppins"><tspan x="0" y="0">137</tspan></text>
          <g id="Group_39" data-name="Group 39" transform="translate(768.532 22)">
            <g id="Component_6_18" data-name="Component 6 – 18" transform="translate(0)">
              <g id="icon">
                <g id="Path_23" data-name="Path 23" fill="none">
                  <path d="M2.753,0h9.635a2.753,2.753,0,0,1,2.753,2.753v9.635a2.753,2.753,0,0,1-2.753,2.753H2.753A2.753,2.753,0,0,1,0,12.388V2.753A2.753,2.753,0,0,1,2.753,0Z" stroke="none"/>
                  <path d="M 2.752910614013672 2 C 2.337750434875488 2 2 2.337750434875488 2 2.752910614013672 L 2 12.38811016082764 C 2 12.80327033996582 2.337750434875488 13.14101982116699 2.752910614013672 13.14101982116699 L 12.38811016082764 13.14101982116699 C 12.80327033996582 13.14101982116699 13.14101982116699 12.80327033996582 13.14101982116699 12.38811016082764 L 13.14101982116699 2.752910614013672 C 13.14101982116699 2.337750434875488 12.80327033996582 2 12.38811016082764 2 L 2.752910614013672 2 M 2.752910614013672 0 L 12.38811016082764 0 C 13.90850067138672 0 15.14102077484131 1.23252010345459 15.14102077484131 2.752910614013672 L 15.14102077484131 12.38811016082764 C 15.14102077484131 13.90850067138672 13.90850067138672 15.14102077484131 12.38811016082764 15.14102077484131 L 2.752910614013672 15.14102077484131 C 1.23252010345459 15.14102077484131 0 13.90850067138672 0 12.38811016082764 L 0 2.752910614013672 C 0 1.23252010345459 1.23252010345459 0 2.752910614013672 0 Z" stroke="none" fill="#484848"/>
                </g>
                <path id="Icon_feather-check" data-name="Icon feather-check" d="M12.882,9,8.151,13.818,6,11.628" transform="translate(-1.799 -5.006)" fill="none" stroke="#484848" stroke-linecap="round" stroke-linejoin="round" stroke-width="2"/>
                <g id="Layer_1" data-name="Layer 1" transform="translate(9.992 5.721)">
                  <g id="Group_34" data-name="Group 34">
                    <path id="Path_14" data-name="Path 14" d="M31.957,39a2.3,2.3,0,0,1-.288-.379c-.285-.669-.9-.621-1.164-1.3-.533-.971-.657-.951-1.648-1.315-.7-.258-.9-.467-1.6-.744-.113-.045-.261-.182-.259-.275s.148-.229.262-.275a19.338,19.338,0,0,0,2.388-1.436c.938-.356,1.434-2.225,1.729-2.9a3.9,3.9,0,0,1,.389-.706,4.972,4.972,0,0,1,.469.706,6.274,6.274,0,0,0,1.606,2.295,7.3,7.3,0,0,0,2.679,2.03c.116.046.286.193.271.266a.5.5,0,0,1-.281.3c-.723.292-.786-.862-1.515-.583-.892.341-.678,1.834-1.335,2.642-.3.709-1.125.579-1.425,1.288a2.512,2.512,0,0,1-.281.389Z" transform="translate(-27.002 -29.666)" fill="#f9f9f9"/>
                    <path id="Path_2741" data-name="Path 2741" d="M30.39,35.591a1.719,1.719,0,0,1-.215-.284c-.213-.5-.424-1-.622-1.508a2.48,2.48,0,0,0-1.532-1.478c-.525-.193-1.049-.39-1.567-.6-.085-.034-.2-.136-.194-.206s.111-.171.2-.206c.535-.214,1.076-.411,1.614-.615a2.432,2.432,0,0,0,1.464-1.416c.205-.512.2-1.031.426-1.537a2.922,2.922,0,0,1,.291-.529,3.721,3.721,0,0,1,.351.529c.223.514.433,1.033.643,1.552a2.42,2.42,0,0,0,1.451,1.4c.538.2,1.08.4,1.614.615.087.034.214.145.2.2a.373.373,0,0,1-.211.221c-.542.219-1.09.421-1.636.63A2.385,2.385,0,0,0,31.261,33.7c-.224.531-.435,1.067-.66,1.6a1.879,1.879,0,0,1-.211.291Z" transform="translate(-25.437 -26.285)" fill="#484848"/>
                  </g>
                </g>
              </g>
            </g>
            <g id="Layer_1-2" data-name="Layer 1" transform="translate(26.628 1)">
              <g id="Group_38" data-name="Group 38" transform="translate(0)">
                <path id="Path_17" data-name="Path 17" d="M5.829,0A.293.293,0,0,1,6.1.152a1.915,1.915,0,0,0,1.434.853c.628.089,1.26.152,1.889.233.28.036.556.1.836.134A1.888,1.888,0,0,0,11.807.933.166.166,0,0,1,11.943.9a1.393,1.393,0,0,1,.363.16c.318.231.625.475.933.719a.911.911,0,0,1,.172.19.227.227,0,0,1,.008.261,1.767,1.767,0,0,0-.138,1.3,5.438,5.438,0,0,0,.224.706c.271.678.552,1.352.835,2.025a2.278,2.278,0,0,0,.581.855,1.559,1.559,0,0,0,.52.351.465.465,0,0,1,.346.52,3.387,3.387,0,0,1-.22,1.354.357.357,0,0,1-.354.255,1.476,1.476,0,0,0-.868.342,8.423,8.423,0,0,0-1.321,1.409q-.382.478-.766.954a2.6,2.6,0,0,0-.619,1.235,4.526,4.526,0,0,0-.007.533.2.2,0,0,1-.043.141,2.349,2.349,0,0,1-.423.293,3.748,3.748,0,0,1-1.32.414.2.2,0,0,1-.155-.055,1.979,1.979,0,0,0-1.444-.817c-.893-.139-1.784-.291-2.677-.429a2.133,2.133,0,0,0-1.226.142,1.372,1.372,0,0,0-.339.21.244.244,0,0,1-.272.05.7.7,0,0,1-.1-.04,4.233,4.233,0,0,1-1.178-.9.384.384,0,0,1-.082-.481,1.71,1.71,0,0,0,.068-1.3c-.168-.532-.37-1.054-.565-1.577-.138-.372-.277-.745-.437-1.108a2.173,2.173,0,0,0-1.3-1.252.2.2,0,0,1-.1-.115,1.05,1.05,0,0,1-.025-.567c.07-.347.133-.695.2-1.041a.316.316,0,0,1,.336-.3,2.208,2.208,0,0,0,1.518-.785Q2.889,3.6,3.667,2.6a2.224,2.224,0,0,0,.5-1.307A1.84,1.84,0,0,0,4.132.879a.179.179,0,0,1,.05-.194,1.324,1.324,0,0,1,.3-.22C4.837.317,5.2.185,5.562.053A1.7,1.7,0,0,1,5.829,0Zm7.048,7.483a5,5,0,0,0-9.994,0,5,5,0,0,0,9.994,0Z" transform="translate(0.011)" fill="#484848"/>
                <path id="Path_18" data-name="Path 18" d="M238.921,232.45l1.735,1.483-.735.863q-1.712,2.007-3.429,4.011a1.8,1.8,0,0,1-.492.391c-.627.342-1.264.665-1.9.994a.954.954,0,0,1-.128.06c-.2.067-.273.006-.242-.193a1.123,1.123,0,0,1,.05-.181c.234-.7.466-1.4.707-2.1a1.035,1.035,0,0,1,.181-.325q2.091-2.458,4.189-4.91a.868.868,0,0,0,.06-.1Zm-3.98,5.358c-.127.378-.243.71-.348,1.045-.046.146.231.448.366.388.344-.155.674-.34,1.038-.528l-1.056-.905Z" transform="translate(-229.179 -228.385)" fill="#484848"/>
                <path id="Path_19" data-name="Path 19" d="M206.64,186.14a2.753,2.753,0,0,1,1.991-.251,1.82,1.82,0,0,1,1.387,1.817,2.216,2.216,0,0,0,.685,1.765c.1.1.211.186.336.294L209.983,191a3.27,3.27,0,0,0-3.028-1.026l1.473-2.938Z" transform="translate(-202.299 -182.25)" fill="#484848"/>
                <path id="Path_20" data-name="Path 20" d="M326.739,311.48c.6.455,1.184.895,1.767,1.331q.349.261.7.512a1.162,1.162,0,0,1,.418,1.563,1.257,1.257,0,0,1-1.587.538,1.376,1.376,0,0,1-.411-.266c-.713-.7-1.417-1.4-2.122-2.1a.489.489,0,0,1-.048-.074l1.279-1.5Zm1.963,2.39a.617.617,0,1,0,0,1.234.641.641,0,0,0,.642-.618.631.631,0,0,0-.639-.616Z" transform="translate(-317.826 -304.357)" fill="#484848"/>
                <path id="Path_21" data-name="Path 21" d="M351.69,208.314c.184-.215.346-.417.522-.605a.427.427,0,0,1,.632-.047q.529.431,1.037.887a.424.424,0,0,1,.047.631c-.158.2-.333.395-.514.608Z" transform="translate(-342.793 -202.942)" fill="#484848"/>
                <path id="Path_22" data-name="Path 22" d="M188.41,211.5c.553.264,1.049.493,1.536.742.046.024.069.18.04.247-.139.315-.3.621-.455.928-.1.2-.218.224-.383.059A2.8,2.8,0,0,1,188.41,211.5Z" transform="translate(-184.227 -206.762)" fill="#484848"/>
              </g>
            </g>
            <g id="Icon_material-delete-outline" data-name="Icon material-delete-outline" transform="translate(89.066 0)">
              <path id="Icon_material-delete-outline-2" data-name="Icon material-delete-outline" d="M8.509,18.3a1.894,1.894,0,0,0,2.018,1.725H18.6A1.894,1.894,0,0,0,20.615,18.3V7.95H8.509Zm2.018-8.626H18.6V18.3h-8.07Zm7.566-4.313L17.084,4.5H12.04l-1.009.863H7.5V7.088H21.623V5.363Z" transform="translate(-7.5 -4.5)" fill="#484848"/>
            </g>
            <g id="download" transform="translate(49.119 0)">
              <g id="download-2" data-name="download">
                <path id="Path_4304" data-name="Path 4304" d="M25.283,52.875H16.974a2.06,2.06,0,0,1-2.1-2.014v-3a.93.93,0,0,1,.474-.852,1.013,1.013,0,0,1,1.007,0,.93.93,0,0,1,.474.852v3a.142.142,0,0,0,.144.139h8.308a.142.142,0,0,0,.144-.139v-3a.93.93,0,0,1,.474-.852,1.013,1.013,0,0,1,1.007,0,.93.93,0,0,1,.474.852v3A2.06,2.06,0,0,1,25.283,52.875Z" transform="translate(-14.875 -36.891)" fill="#484848"/>
                <path id="Path_4305" data-name="Path 4305" d="M25.547,8a.959.959,0,0,1,.976.936v5.992l1.991-1.911a1,1,0,0,1,1.381,0,.9.9,0,0,1,0,1.324l-3.656,3.512a1.026,1.026,0,0,1-1.384,0l-3.646-3.5a.914.914,0,0,1,0-1.329,1.009,1.009,0,0,1,1.385,0l1.991,1.911V8.936A.959.959,0,0,1,25.547,8Z" transform="translate(-19.415 -8)" fill="#484848"/>
              </g>
            </g>
            <g id="upload" transform="translate(68.569 0)">
              <g id="upload-2" data-name="upload">
                <path id="Path_4304-2" data-name="Path 4304" d="M25.675,53.1H17.053a2.137,2.137,0,0,1-2.177-2.09V47.9a.965.965,0,0,1,.491-.885,1.052,1.052,0,0,1,1.044,0,.965.965,0,0,1,.492.885v3.116a.147.147,0,0,0,.15.144h8.621a.147.147,0,0,0,.15-.144V47.9a.965.965,0,0,1,.492-.885,1.052,1.052,0,0,1,1.044,0,.965.965,0,0,1,.492.885v3.116A2.137,2.137,0,0,1,25.675,53.1Z" transform="translate(-14.875 -36.515)" fill="#484848"/>
                <path id="Path_4305-2" data-name="Path 4305" d="M25.721,18.5a1,1,0,0,0,1.012-.972V11.313L28.8,13.3a1.04,1.04,0,0,0,1.433,0,.937.937,0,0,0,0-1.373L26.439,8.279a1.064,1.064,0,0,0-1.436,0L21.22,11.913a.948.948,0,0,0,0,1.38,1.047,1.047,0,0,0,1.437,0l2.066-1.983V17.53a1,1,0,0,0,1,.972Z" transform="translate(-19.359 -8)" fill="#484848"/>
              </g>
            </g>
          </g>
          <text id="_08" data-name="08" transform="translate(518.602 36.185)" font-size="16" font-family="Poppins-Regular, Poppins"><tspan x="0" y="0">08</tspan></text>
        </g>
        <g id="Group_10" data-name="Group 10" transform="translate(7 -31)">
          <text id="Project" transform="translate(-20 17)" font-size="16" font-family="Poppins-SemiBold, Poppins" font-weight="600"><tspan x="0" y="0">Project</tspan></text>
          <text id="Platform" transform="translate(162 17)" font-size="16" font-family="Poppins-SemiBold, Poppins" font-weight="600"><tspan x="0" y="0">Platform</tspan></text>
          <text id="Responses" transform="translate(266 17)" font-size="16" font-family="Poppins-SemiBold, Poppins" font-weight="600"><tspan x="0" y="0">Responses</tspan></text>
          <text id="Completes" transform="translate(379 17)" font-size="16" font-family="Poppins-SemiBold, Poppins" font-weight="600"><tspan x="0" y="0">Completes</tspan></text>
          <text id="Sample_Size" data-name="Sample Size" transform="translate(632 17)" font-size="16" font-family="Poppins-SemiBold, Poppins" font-weight="600"><tspan x="0" y="0">Sample Size</tspan></text>
          <text id="Action" transform="translate(804 17)" font-size="16" font-family="Poppins-SemiBold, Poppins" font-weight="600"><tspan x="0" y="0">Action</tspan></text>
          <text id="Screened_Out" data-name="Screened Out" transform="translate(498 17)" font-size="16" font-family="Poppins-SemiBold, Poppins" font-weight="600"><tspan x="0" y="0">Screened Out</tspan></text>
        </g>
        <g id="page_raw" transform="translate(-13.398 250)">
          <g id="Group_964" data-name="Group 964" transform="translate(80.625 11)">
            <g id="Group_965" data-name="Group 965">
              <text id="_10" data-name="10" transform="translate(0 14)" fill="#707070" font-size="13" font-family="Poppins-Regular, Poppins"><tspan x="0" y="0">10</tspan></text>
              <g id="arrow-down" transform="translate(29.003 5.205)">
                <path id="Path_2004" data-name="Path 2004" d="M84.466,130.7a.8.8,0,0,0-.567,1.37l5.814,5.814a.816.816,0,0,0,.567.235.793.793,0,0,0,.567-.235l5.806-5.807a.8.8,0,1,0-1.116-1.143h0L90.291,136.2l-5.257-5.257a.8.8,0,0,0-.567-.235Z" transform="translate(-83.666 -130.704)" fill="#666"/>
              </g>
            </g>
          </g>
          <g id="Group_966" data-name="Group 966" transform="translate(704.398)">
            <text id="_1_-10_of_20" data-name="1 -10 of 20" transform="translate(13 25)" fill="#707070" font-size="13" font-family="Poppins-Regular, Poppins"><tspan x="0" y="0">1 -10 of 20</tspan></text>
            <g id="Group_1915" data-name="Group 1915" transform="translate(142.503 4.953)" opacity="0.612">
              <g id="Rectangle_851" data-name="Rectangle 851" transform="translate(0)" fill="#fff" stroke="#666" stroke-width="1">
                <rect width="34.497" height="31.047" rx="10" stroke="none"/>
                <rect x="0.5" y="0.5" width="33.497" height="30.047" rx="9.5" fill="none"/>
              </g>
              <path id="Icon_ionic-ios-arrow-back" data-name="Icon ionic-ios-arrow-back" d="M15.037,10.5,11.45,7.244a.575.575,0,0,1,0-.87.729.729,0,0,1,.96,0l4.064,3.695a.576.576,0,0,1,.02.85l-4.081,3.72a.73.73,0,0,1-.96,0,.575.575,0,0,1,0-.87Z" transform="translate(3.24 5.018)" fill="#666"/>
            </g>
            <g id="Group_1916" data-name="Group 1916" transform="translate(95.07 4.953)">
              <g id="Rectangle_851-2" data-name="Rectangle 851" transform="translate(0)" fill="#fff" stroke="#e1e1e1" stroke-width="1">
                <rect width="34.497" height="31.047" rx="10" stroke="none"/>
                <rect x="0.5" y="0.5" width="33.497" height="30.047" rx="9.5" fill="none"/>
              </g>
              <path id="Icon_ionic-ios-arrow-back-2" data-name="Icon ionic-ios-arrow-back" d="M12.885,10.5l3.587-3.261a.575.575,0,0,0,0-.87.729.729,0,0,0-.96,0l-4.064,3.695a.576.576,0,0,0-.02.85l4.081,3.72a.73.73,0,0,0,.96,0,.575.575,0,0,0,0-.87Z" transform="translate(2.62 5.018)" fill="#e1e1e1"/>
            </g>
          </g>
          <text id="Show_Row" data-name="Show Row" transform="translate(0.398 25)" font-size="13" font-family="Poppins-Regular, Poppins"><tspan x="0" y="0">Show Row</tspan></text>
        </g>
        <g id="raw-2" data-name="raw" transform="translate(-13.399 62)">
          <rect id="Rectangle_11-2" data-name="Rectangle 11" width="879" height="60" transform="translate(0.399)" fill="#fcfcfc"/>
          <rect id="line-2" data-name="line" width="879" height="1" transform="translate(0.399 59)" fill="#e5e5e5"/>
          <text id="_3452_user-survey-2" data-name="3452_user-survey" transform="translate(3.001 36.185)" font-size="16" font-family="Poppins-Regular, Poppins"><tspan x="0" y="0">3452_user-survey</tspan></text>
          <text id="Confirmit-2" data-name="Confirmit" transform="translate(181.001 36.185)" font-size="16" font-family="Poppins-Regular, Poppins"><tspan x="0" y="0">Confirmit</tspan></text>
          <text id="_50" data-name="50" transform="translate(295.001 36.185)" font-size="16" font-family="Poppins-Regular, Poppins"><tspan x="-10.048" y="0">50</tspan></text>
          <text id="_30" data-name="30" transform="translate(406.001 36.185)" font-size="16" font-family="Poppins-Regular, Poppins"><tspan x="-9.736" y="0">30</tspan></text>
          <text id="_120" data-name="120" transform="translate(654.001 36.185)" font-size="16" font-family="Poppins-Regular, Poppins"><tspan x="0" y="0">120</tspan></text>
          <g id="Group_39-2" data-name="Group 39" transform="translate(768.884 22)">
            <g id="Component_6_19" data-name="Component 6 – 19" transform="translate(0)">
              <g id="icon-2" data-name="icon">
                <g id="Path_23-2" data-name="Path 23" fill="none">
                  <path d="M2.753,0h9.635a2.753,2.753,0,0,1,2.753,2.753v9.635a2.753,2.753,0,0,1-2.753,2.753H2.753A2.753,2.753,0,0,1,0,12.388V2.753A2.753,2.753,0,0,1,2.753,0Z" stroke="none"/>
                  <path d="M 2.752910614013672 2 C 2.337750434875488 2 2 2.337750434875488 2 2.752910614013672 L 2 12.38811016082764 C 2 12.80327033996582 2.337750434875488 13.14101982116699 2.752910614013672 13.14101982116699 L 12.38811016082764 13.14101982116699 C 12.80327033996582 13.14101982116699 13.14101982116699 12.80327033996582 13.14101982116699 12.38811016082764 L 13.14101982116699 2.752910614013672 C 13.14101982116699 2.337750434875488 12.80327033996582 2 12.38811016082764 2 L 2.752910614013672 2 M 2.752910614013672 0 L 12.38811016082764 0 C 13.90850067138672 0 15.14102077484131 1.23252010345459 15.14102077484131 2.752910614013672 L 15.14102077484131 12.38811016082764 C 15.14102077484131 13.90850067138672 13.90850067138672 15.14102077484131 12.38811016082764 15.14102077484131 L 2.752910614013672 15.14102077484131 C 1.23252010345459 15.14102077484131 0 13.90850067138672 0 12.38811016082764 L 0 2.752910614013672 C 0 1.23252010345459 1.23252010345459 0 2.752910614013672 0 Z" stroke="none" fill="#484848"/>
                </g>
                <path id="Icon_feather-check-2" data-name="Icon feather-check" d="M12.882,9,8.151,13.818,6,11.628" transform="translate(-1.799 -5.006)" fill="none" stroke="#484848" stroke-linecap="round" stroke-linejoin="round" stroke-width="2"/>
                <g id="Layer_1-3" data-name="Layer 1" transform="translate(9.992 5.721)">
                  <g id="Group_34-2" data-name="Group 34">
                    <path id="Path_14-2" data-name="Path 14" d="M31.957,39a2.3,2.3,0,0,1-.288-.379c-.285-.669-.9-.621-1.164-1.3-.533-.971-.657-.951-1.648-1.315-.7-.258-.9-.467-1.6-.744-.113-.045-.261-.182-.259-.275s.148-.229.262-.275a19.338,19.338,0,0,0,2.388-1.436c.938-.356,1.434-2.225,1.729-2.9a3.9,3.9,0,0,1,.389-.706,4.972,4.972,0,0,1,.469.706,6.274,6.274,0,0,0,1.606,2.295,7.3,7.3,0,0,0,2.679,2.03c.116.046.286.193.271.266a.5.5,0,0,1-.281.3c-.723.292-.786-.862-1.515-.583-.892.341-.678,1.834-1.335,2.642-.3.709-1.125.579-1.425,1.288a2.512,2.512,0,0,1-.281.389Z" transform="translate(-27.002 -29.666)" fill="#f9f9f9"/>
                    <path id="Path_2741-2" data-name="Path 2741" d="M30.39,35.591a1.719,1.719,0,0,1-.215-.284c-.213-.5-.424-1-.622-1.508a2.48,2.48,0,0,0-1.532-1.478c-.525-.193-1.049-.39-1.567-.6-.085-.034-.2-.136-.194-.206s.111-.171.2-.206c.535-.214,1.076-.411,1.614-.615a2.432,2.432,0,0,0,1.464-1.416c.205-.512.2-1.031.426-1.537a2.922,2.922,0,0,1,.291-.529,3.721,3.721,0,0,1,.351.529c.223.514.433,1.033.643,1.552a2.42,2.42,0,0,0,1.451,1.4c.538.2,1.08.4,1.614.615.087.034.214.145.2.2a.373.373,0,0,1-.211.221c-.542.219-1.09.421-1.636.63A2.385,2.385,0,0,0,31.261,33.7c-.224.531-.435,1.067-.66,1.6a1.879,1.879,0,0,1-.211.291Z" transform="translate(-25.437 -26.285)" fill="#484848"/>
                  </g>
                </g>
              </g>
            </g>
            <g id="Layer_1-4" data-name="Layer 1" transform="translate(26.642 1)">
              <g id="Group_38-2" data-name="Group 38" transform="translate(0)">
                <path id="Path_17-2" data-name="Path 17" d="M5.829,0A.293.293,0,0,1,6.1.152a1.915,1.915,0,0,0,1.434.853c.628.089,1.26.152,1.889.233.28.036.556.1.836.134A1.888,1.888,0,0,0,11.807.933.166.166,0,0,1,11.943.9a1.393,1.393,0,0,1,.363.16c.318.231.625.475.933.719a.911.911,0,0,1,.172.19.227.227,0,0,1,.008.261,1.767,1.767,0,0,0-.138,1.3,5.438,5.438,0,0,0,.224.706c.271.678.552,1.352.835,2.025a2.278,2.278,0,0,0,.581.855,1.559,1.559,0,0,0,.52.351.465.465,0,0,1,.346.52,3.387,3.387,0,0,1-.22,1.354.357.357,0,0,1-.354.255,1.476,1.476,0,0,0-.868.342,8.423,8.423,0,0,0-1.321,1.409q-.382.478-.766.954a2.6,2.6,0,0,0-.619,1.235,4.526,4.526,0,0,0-.007.533.2.2,0,0,1-.043.141,2.349,2.349,0,0,1-.423.293,3.748,3.748,0,0,1-1.32.414.2.2,0,0,1-.155-.055,1.979,1.979,0,0,0-1.444-.817c-.893-.139-1.784-.291-2.677-.429a2.133,2.133,0,0,0-1.226.142,1.372,1.372,0,0,0-.339.21.244.244,0,0,1-.272.05.7.7,0,0,1-.1-.04,4.233,4.233,0,0,1-1.178-.9.384.384,0,0,1-.082-.481,1.71,1.71,0,0,0,.068-1.3c-.168-.532-.37-1.054-.565-1.577-.138-.372-.277-.745-.437-1.108a2.173,2.173,0,0,0-1.3-1.252.2.2,0,0,1-.1-.115,1.05,1.05,0,0,1-.025-.567c.07-.347.133-.695.2-1.041a.316.316,0,0,1,.336-.3,2.208,2.208,0,0,0,1.518-.785Q2.889,3.6,3.667,2.6a2.224,2.224,0,0,0,.5-1.307A1.84,1.84,0,0,0,4.132.879a.179.179,0,0,1,.05-.194,1.324,1.324,0,0,1,.3-.22C4.837.317,5.2.185,5.562.053A1.7,1.7,0,0,1,5.829,0Zm7.048,7.483a5,5,0,0,0-9.994,0,5,5,0,0,0,9.994,0Z" transform="translate(0.011)" fill="#484848"/>
                <path id="Path_18-2" data-name="Path 18" d="M238.921,232.45l1.735,1.483-.735.863q-1.712,2.007-3.429,4.011a1.8,1.8,0,0,1-.492.391c-.627.342-1.264.665-1.9.994a.954.954,0,0,1-.128.06c-.2.067-.273.006-.242-.193a1.123,1.123,0,0,1,.05-.181c.234-.7.466-1.4.707-2.1a1.035,1.035,0,0,1,.181-.325q2.091-2.458,4.189-4.91a.868.868,0,0,0,.06-.1Zm-3.98,5.358c-.127.378-.243.71-.348,1.045-.046.146.231.448.366.388.344-.155.674-.34,1.038-.528l-1.056-.905Z" transform="translate(-229.179 -228.385)" fill="#484848"/>
                <path id="Path_19-2" data-name="Path 19" d="M206.64,186.14a2.753,2.753,0,0,1,1.991-.251,1.82,1.82,0,0,1,1.387,1.817,2.216,2.216,0,0,0,.685,1.765c.1.1.211.186.336.294L209.983,191a3.27,3.27,0,0,0-3.028-1.026l1.473-2.938Z" transform="translate(-202.299 -182.25)" fill="#484848"/>
                <path id="Path_20-2" data-name="Path 20" d="M326.739,311.48c.6.455,1.184.895,1.767,1.331q.349.261.7.512a1.162,1.162,0,0,1,.418,1.563,1.257,1.257,0,0,1-1.587.538,1.376,1.376,0,0,1-.411-.266c-.713-.7-1.417-1.4-2.122-2.1a.489.489,0,0,1-.048-.074l1.279-1.5Zm1.963,2.39a.617.617,0,1,0,0,1.234.641.641,0,0,0,.642-.618.631.631,0,0,0-.639-.616Z" transform="translate(-317.826 -304.357)" fill="#484848"/>
                <path id="Path_21-2" data-name="Path 21" d="M351.69,208.314c.184-.215.346-.417.522-.605a.427.427,0,0,1,.632-.047q.529.431,1.037.887a.424.424,0,0,1,.047.631c-.158.2-.333.395-.514.608Z" transform="translate(-342.793 -202.942)" fill="#484848"/>
                <path id="Path_22-2" data-name="Path 22" d="M188.41,211.5c.553.264,1.049.493,1.536.742.046.024.069.18.04.247-.139.315-.3.621-.455.928-.1.2-.218.224-.383.059A2.8,2.8,0,0,1,188.41,211.5Z" transform="translate(-184.227 -206.762)" fill="#484848"/>
              </g>
            </g>
            <g id="Icon_material-delete-outline-3" data-name="Icon material-delete-outline" transform="translate(89.113 0)">
              <path id="Icon_material-delete-outline-4" data-name="Icon material-delete-outline" d="M8.509,18.3a1.894,1.894,0,0,0,2.018,1.725H18.6A1.894,1.894,0,0,0,20.615,18.3V7.95H8.509Zm2.018-8.626H18.6V18.3h-8.07Zm7.566-4.313L17.084,4.5H12.04l-1.009.863H7.5V7.088H21.623V5.363Z" transform="translate(-7.5 -4.5)" fill="#484848"/>
            </g>
            <g id="download-3" data-name="download" transform="translate(49.144 0)">
              <g id="download-4" data-name="download">
                <path id="Path_4304-3" data-name="Path 4304" d="M25.283,52.875H16.974a2.06,2.06,0,0,1-2.1-2.014v-3a.93.93,0,0,1,.474-.852,1.013,1.013,0,0,1,1.007,0,.93.93,0,0,1,.474.852v3a.142.142,0,0,0,.144.139h8.308a.142.142,0,0,0,.144-.139v-3a.93.93,0,0,1,.474-.852,1.013,1.013,0,0,1,1.007,0,.93.93,0,0,1,.474.852v3A2.06,2.06,0,0,1,25.283,52.875Z" transform="translate(-14.875 -36.891)" fill="#484848"/>
                <path id="Path_4305-3" data-name="Path 4305" d="M25.547,8a.959.959,0,0,1,.976.936v5.992l1.991-1.911a1,1,0,0,1,1.381,0,.9.9,0,0,1,0,1.324l-3.656,3.512a1.026,1.026,0,0,1-1.384,0l-3.646-3.5a.914.914,0,0,1,0-1.329,1.009,1.009,0,0,1,1.385,0l1.991,1.911V8.936A.959.959,0,0,1,25.547,8Z" transform="translate(-19.415 -8)" fill="#484848"/>
              </g>
            </g>
            <g id="upload-3" data-name="upload" transform="translate(68.605 0)">
              <g id="upload-4" data-name="upload">
                <path id="Path_4304-4" data-name="Path 4304" d="M25.675,53.1H17.053a2.137,2.137,0,0,1-2.177-2.09V47.9a.965.965,0,0,1,.491-.885,1.052,1.052,0,0,1,1.044,0,.965.965,0,0,1,.492.885v3.116a.147.147,0,0,0,.15.144h8.621a.147.147,0,0,0,.15-.144V47.9a.965.965,0,0,1,.492-.885,1.052,1.052,0,0,1,1.044,0,.965.965,0,0,1,.492.885v3.116A2.137,2.137,0,0,1,25.675,53.1Z" transform="translate(-14.875 -36.515)" fill="#484848"/>
                <path id="Path_4305-4" data-name="Path 4305" d="M25.721,18.5a1,1,0,0,0,1.012-.972V11.313L28.8,13.3a1.04,1.04,0,0,0,1.433,0,.937.937,0,0,0,0-1.373L26.439,8.279a1.064,1.064,0,0,0-1.436,0L21.22,11.913a.948.948,0,0,0,0,1.38,1.047,1.047,0,0,0,1.437,0l2.066-1.983V17.53a1,1,0,0,0,1,.972Z" transform="translate(-19.359 -8)" fill="#484848"/>
              </g>
            </g>
          </g>
          <text id="_09" data-name="09" transform="translate(519.001 36.185)" font-size="16" font-family="Poppins-Regular, Poppins"><tspan x="0" y="0">09</tspan></text>
        </g>
        <g id="raw-3" data-name="raw" transform="translate(-13.399 122)">
          <rect id="Rectangle_11-3" data-name="Rectangle 11" width="879" height="60" transform="translate(0.399)" fill="#fff"/>
          <rect id="line-3" data-name="line" width="879" height="1" transform="translate(0.399 59)" fill="#e5e5e5"/>
          <text id="_3452_user-survey-3" data-name="3452_user-survey" transform="translate(3.001 36.185)" font-size="16" font-family="Poppins-Regular, Poppins"><tspan x="0" y="0">3452_user-survey</tspan></text>
          <text id="Confirmit-3" data-name="Confirmit" transform="translate(181.001 36.185)" font-size="16" font-family="Poppins-Regular, Poppins"><tspan x="0" y="0">Confirmit</tspan></text>
          <text id="_23-2" data-name="23" transform="translate(295.001 36.185)" font-size="16" font-family="Poppins-Regular, Poppins"><tspan x="-9.312" y="0">23</tspan></text>
          <text id="_15-2" data-name="15" transform="translate(406.001 36.185)" font-size="16" font-family="Poppins-Regular, Poppins"><tspan x="-7.584" y="0">15</tspan></text>
          <text id="_137-2" data-name="137" transform="translate(654.001 36.185)" font-size="16" font-family="Poppins-Regular, Poppins"><tspan x="0" y="0">137</tspan></text>
          <g id="Group_39-3" data-name="Group 39" transform="translate(768.884 22)">
            <g id="Component_6_20" data-name="Component 6 – 20" transform="translate(0)">
              <g id="icon-3" data-name="icon">
                <g id="Path_23-3" data-name="Path 23" fill="none">
                  <path d="M2.753,0h9.635a2.753,2.753,0,0,1,2.753,2.753v9.635a2.753,2.753,0,0,1-2.753,2.753H2.753A2.753,2.753,0,0,1,0,12.388V2.753A2.753,2.753,0,0,1,2.753,0Z" stroke="none"/>
                  <path d="M 2.752910614013672 2 C 2.337750434875488 2 2 2.337750434875488 2 2.752910614013672 L 2 12.38811016082764 C 2 12.80327033996582 2.337750434875488 13.14101982116699 2.752910614013672 13.14101982116699 L 12.38811016082764 13.14101982116699 C 12.80327033996582 13.14101982116699 13.14101982116699 12.80327033996582 13.14101982116699 12.38811016082764 L 13.14101982116699 2.752910614013672 C 13.14101982116699 2.337750434875488 12.80327033996582 2 12.38811016082764 2 L 2.752910614013672 2 M 2.752910614013672 0 L 12.38811016082764 0 C 13.90850067138672 0 15.14102077484131 1.23252010345459 15.14102077484131 2.752910614013672 L 15.14102077484131 12.38811016082764 C 15.14102077484131 13.90850067138672 13.90850067138672 15.14102077484131 12.38811016082764 15.14102077484131 L 2.752910614013672 15.14102077484131 C 1.23252010345459 15.14102077484131 0 13.90850067138672 0 12.38811016082764 L 0 2.752910614013672 C 0 1.23252010345459 1.23252010345459 0 2.752910614013672 0 Z" stroke="none" fill="#484848"/>
                </g>
                <path id="Icon_feather-check-3" data-name="Icon feather-check" d="M12.882,9,8.151,13.818,6,11.628" transform="translate(-1.799 -5.006)" fill="none" stroke="#484848" stroke-linecap="round" stroke-linejoin="round" stroke-width="2"/>
                <g id="Layer_1-5" data-name="Layer 1" transform="translate(9.992 5.721)">
                  <g id="Group_34-3" data-name="Group 34">
                    <path id="Path_14-3" data-name="Path 14" d="M31.957,39a2.3,2.3,0,0,1-.288-.379c-.285-.669-.9-.621-1.164-1.3-.533-.971-.657-.951-1.648-1.315-.7-.258-.9-.467-1.6-.744-.113-.045-.261-.182-.259-.275s.148-.229.262-.275a19.338,19.338,0,0,0,2.388-1.436c.938-.356,1.434-2.225,1.729-2.9a3.9,3.9,0,0,1,.389-.706,4.972,4.972,0,0,1,.469.706,6.274,6.274,0,0,0,1.606,2.295,7.3,7.3,0,0,0,2.679,2.03c.116.046.286.193.271.266a.5.5,0,0,1-.281.3c-.723.292-.786-.862-1.515-.583-.892.341-.678,1.834-1.335,2.642-.3.709-1.125.579-1.425,1.288a2.512,2.512,0,0,1-.281.389Z" transform="translate(-27.002 -29.666)" fill="#f9f9f9"/>
                    <path id="Path_2741-3" data-name="Path 2741" d="M30.39,35.591a1.719,1.719,0,0,1-.215-.284c-.213-.5-.424-1-.622-1.508a2.48,2.48,0,0,0-1.532-1.478c-.525-.193-1.049-.39-1.567-.6-.085-.034-.2-.136-.194-.206s.111-.171.2-.206c.535-.214,1.076-.411,1.614-.615a2.432,2.432,0,0,0,1.464-1.416c.205-.512.2-1.031.426-1.537a2.922,2.922,0,0,1,.291-.529,3.721,3.721,0,0,1,.351.529c.223.514.433,1.033.643,1.552a2.42,2.42,0,0,0,1.451,1.4c.538.2,1.08.4,1.614.615.087.034.214.145.2.2a.373.373,0,0,1-.211.221c-.542.219-1.09.421-1.636.63A2.385,2.385,0,0,0,31.261,33.7c-.224.531-.435,1.067-.66,1.6a1.879,1.879,0,0,1-.211.291Z" transform="translate(-25.437 -26.285)" fill="#484848"/>
                  </g>
                </g>
              </g>
            </g>
            <g id="Layer_1-6" data-name="Layer 1" transform="translate(26.642 1)">
              <g id="Group_38-3" data-name="Group 38" transform="translate(0)">
                <path id="Path_17-3" data-name="Path 17" d="M5.829,0A.293.293,0,0,1,6.1.152a1.915,1.915,0,0,0,1.434.853c.628.089,1.26.152,1.889.233.28.036.556.1.836.134A1.888,1.888,0,0,0,11.807.933.166.166,0,0,1,11.943.9a1.393,1.393,0,0,1,.363.16c.318.231.625.475.933.719a.911.911,0,0,1,.172.19.227.227,0,0,1,.008.261,1.767,1.767,0,0,0-.138,1.3,5.438,5.438,0,0,0,.224.706c.271.678.552,1.352.835,2.025a2.278,2.278,0,0,0,.581.855,1.559,1.559,0,0,0,.52.351.465.465,0,0,1,.346.52,3.387,3.387,0,0,1-.22,1.354.357.357,0,0,1-.354.255,1.476,1.476,0,0,0-.868.342,8.423,8.423,0,0,0-1.321,1.409q-.382.478-.766.954a2.6,2.6,0,0,0-.619,1.235,4.526,4.526,0,0,0-.007.533.2.2,0,0,1-.043.141,2.349,2.349,0,0,1-.423.293,3.748,3.748,0,0,1-1.32.414.2.2,0,0,1-.155-.055,1.979,1.979,0,0,0-1.444-.817c-.893-.139-1.784-.291-2.677-.429a2.133,2.133,0,0,0-1.226.142,1.372,1.372,0,0,0-.339.21.244.244,0,0,1-.272.05.7.7,0,0,1-.1-.04,4.233,4.233,0,0,1-1.178-.9.384.384,0,0,1-.082-.481,1.71,1.71,0,0,0,.068-1.3c-.168-.532-.37-1.054-.565-1.577-.138-.372-.277-.745-.437-1.108a2.173,2.173,0,0,0-1.3-1.252.2.2,0,0,1-.1-.115,1.05,1.05,0,0,1-.025-.567c.07-.347.133-.695.2-1.041a.316.316,0,0,1,.336-.3,2.208,2.208,0,0,0,1.518-.785Q2.889,3.6,3.667,2.6a2.224,2.224,0,0,0,.5-1.307A1.84,1.84,0,0,0,4.132.879a.179.179,0,0,1,.05-.194,1.324,1.324,0,0,1,.3-.22C4.837.317,5.2.185,5.562.053A1.7,1.7,0,0,1,5.829,0Zm7.048,7.483a5,5,0,0,0-9.994,0,5,5,0,0,0,9.994,0Z" transform="translate(0.011)" fill="#484848"/>
                <path id="Path_18-3" data-name="Path 18" d="M238.921,232.45l1.735,1.483-.735.863q-1.712,2.007-3.429,4.011a1.8,1.8,0,0,1-.492.391c-.627.342-1.264.665-1.9.994a.954.954,0,0,1-.128.06c-.2.067-.273.006-.242-.193a1.123,1.123,0,0,1,.05-.181c.234-.7.466-1.4.707-2.1a1.035,1.035,0,0,1,.181-.325q2.091-2.458,4.189-4.91a.868.868,0,0,0,.06-.1Zm-3.98,5.358c-.127.378-.243.71-.348,1.045-.046.146.231.448.366.388.344-.155.674-.34,1.038-.528l-1.056-.905Z" transform="translate(-229.179 -228.385)" fill="#484848"/>
                <path id="Path_19-3" data-name="Path 19" d="M206.64,186.14a2.753,2.753,0,0,1,1.991-.251,1.82,1.82,0,0,1,1.387,1.817,2.216,2.216,0,0,0,.685,1.765c.1.1.211.186.336.294L209.983,191a3.27,3.27,0,0,0-3.028-1.026l1.473-2.938Z" transform="translate(-202.299 -182.25)" fill="#484848"/>
                <path id="Path_20-3" data-name="Path 20" d="M326.739,311.48c.6.455,1.184.895,1.767,1.331q.349.261.7.512a1.162,1.162,0,0,1,.418,1.563,1.257,1.257,0,0,1-1.587.538,1.376,1.376,0,0,1-.411-.266c-.713-.7-1.417-1.4-2.122-2.1a.489.489,0,0,1-.048-.074l1.279-1.5Zm1.963,2.39a.617.617,0,1,0,0,1.234.641.641,0,0,0,.642-.618.631.631,0,0,0-.639-.616Z" transform="translate(-317.826 -304.357)" fill="#484848"/>
                <path id="Path_21-3" data-name="Path 21" d="M351.69,208.314c.184-.215.346-.417.522-.605a.427.427,0,0,1,.632-.047q.529.431,1.037.887a.424.424,0,0,1,.047.631c-.158.2-.333.395-.514.608Z" transform="translate(-342.793 -202.942)" fill="#484848"/>
                <path id="Path_22-3" data-name="Path 22" d="M188.41,211.5c.553.264,1.049.493,1.536.742.046.024.069.18.04.247-.139.315-.3.621-.455.928-.1.2-.218.224-.383.059A2.8,2.8,0,0,1,188.41,211.5Z" transform="translate(-184.227 -206.762)" fill="#484848"/>
              </g>
            </g>
            <g id="Icon_material-delete-outline-5" data-name="Icon material-delete-outline" transform="translate(89.113 0)">
              <path id="Icon_material-delete-outline-6" data-name="Icon material-delete-outline" d="M8.509,18.3a1.894,1.894,0,0,0,2.018,1.725H18.6A1.894,1.894,0,0,0,20.615,18.3V7.95H8.509Zm2.018-8.626H18.6V18.3h-8.07Zm7.566-4.313L17.084,4.5H12.04l-1.009.863H7.5V7.088H21.623V5.363Z" transform="translate(-7.5 -4.5)" fill="#484848"/>
            </g>
            <g id="download-5" data-name="download" transform="translate(49.144 0)">
              <g id="download-6" data-name="download">
                <path id="Path_4304-5" data-name="Path 4304" d="M25.283,52.875H16.974a2.06,2.06,0,0,1-2.1-2.014v-3a.93.93,0,0,1,.474-.852,1.013,1.013,0,0,1,1.007,0,.93.93,0,0,1,.474.852v3a.142.142,0,0,0,.144.139h8.308a.142.142,0,0,0,.144-.139v-3a.93.93,0,0,1,.474-.852,1.013,1.013,0,0,1,1.007,0,.93.93,0,0,1,.474.852v3A2.06,2.06,0,0,1,25.283,52.875Z" transform="translate(-14.875 -36.891)" fill="#484848"/>
                <path id="Path_4305-5" data-name="Path 4305" d="M25.547,8a.959.959,0,0,1,.976.936v5.992l1.991-1.911a1,1,0,0,1,1.381,0,.9.9,0,0,1,0,1.324l-3.656,3.512a1.026,1.026,0,0,1-1.384,0l-3.646-3.5a.914.914,0,0,1,0-1.329,1.009,1.009,0,0,1,1.385,0l1.991,1.911V8.936A.959.959,0,0,1,25.547,8Z" transform="translate(-19.415 -8)" fill="#484848"/>
              </g>
            </g>
            <g id="upload-5" data-name="upload" transform="translate(68.605 0)">
              <g id="upload-6" data-name="upload">
                <path id="Path_4304-6" data-name="Path 4304" d="M25.675,53.1H17.053a2.137,2.137,0,0,1-2.177-2.09V47.9a.965.965,0,0,1,.491-.885,1.052,1.052,0,0,1,1.044,0,.965.965,0,0,1,.492.885v3.116a.147.147,0,0,0,.15.144h8.621a.147.147,0,0,0,.15-.144V47.9a.965.965,0,0,1,.492-.885,1.052,1.052,0,0,1,1.044,0,.965.965,0,0,1,.492.885v3.116A2.137,2.137,0,0,1,25.675,53.1Z" transform="translate(-14.875 -36.515)" fill="#484848"/>
                <path id="Path_4305-6" data-name="Path 4305" d="M25.721,18.5a1,1,0,0,0,1.012-.972V11.313L28.8,13.3a1.04,1.04,0,0,0,1.433,0,.937.937,0,0,0,0-1.373L26.439,8.279a1.064,1.064,0,0,0-1.436,0L21.22,11.913a.948.948,0,0,0,0,1.38,1.047,1.047,0,0,0,1.437,0l2.066-1.983V17.53a1,1,0,0,0,1,.972Z" transform="translate(-19.359 -8)" fill="#484848"/>
              </g>
            </g>
          </g>
          <text id="_08-2" data-name="08" transform="translate(519.001 36.185)" font-size="16" font-family="Poppins-Regular, Poppins"><tspan x="0" y="0">08</tspan></text>
        </g>
        <g id="raw-4" data-name="raw" transform="translate(-13.398 182)">
          <rect id="Rectangle_11-4" data-name="Rectangle 11" width="879" height="60" transform="translate(0.399)" fill="#fcfcfc"/>
          <rect id="line-4" data-name="line" width="879" height="1" transform="translate(0.399 59)" fill="#e5e5e5"/>
          <text id="_3452_user-survey-4" data-name="3452_user-survey" transform="translate(3.001 36.185)" font-size="16" font-family="Poppins-Regular, Poppins"><tspan x="0" y="0">3452_user-survey</tspan></text>
          <text id="Confirmit-4" data-name="Confirmit" transform="translate(181.001 36.185)" font-size="16" font-family="Poppins-Regular, Poppins"><tspan x="0" y="0">Confirmit</tspan></text>
          <text id="_50-2" data-name="50" transform="translate(295.001 36.185)" font-size="16" font-family="Poppins-Regular, Poppins"><tspan x="-10.048" y="0">50</tspan></text>
          <text id="_30-2" data-name="30" transform="translate(406.001 36.185)" font-size="16" font-family="Poppins-Regular, Poppins"><tspan x="-9.736" y="0">30</tspan></text>
          <text id="_120-2" data-name="120" transform="translate(654.001 36.185)" font-size="16" font-family="Poppins-Regular, Poppins"><tspan x="0" y="0">120</tspan></text>
          <g id="Group_39-4" data-name="Group 39" transform="translate(768.884 22)">
            <g id="Component_6_21" data-name="Component 6 – 21" transform="translate(0)">
              <g id="icon-4" data-name="icon">
                <g id="Path_23-4" data-name="Path 23" fill="none">
                  <path d="M2.753,0h9.635a2.753,2.753,0,0,1,2.753,2.753v9.635a2.753,2.753,0,0,1-2.753,2.753H2.753A2.753,2.753,0,0,1,0,12.388V2.753A2.753,2.753,0,0,1,2.753,0Z" stroke="none"/>
                  <path d="M 2.752910614013672 2 C 2.337750434875488 2 2 2.337750434875488 2 2.752910614013672 L 2 12.38811016082764 C 2 12.80327033996582 2.337750434875488 13.14101982116699 2.752910614013672 13.14101982116699 L 12.38811016082764 13.14101982116699 C 12.80327033996582 13.14101982116699 13.14101982116699 12.80327033996582 13.14101982116699 12.38811016082764 L 13.14101982116699 2.752910614013672 C 13.14101982116699 2.337750434875488 12.80327033996582 2 12.38811016082764 2 L 2.752910614013672 2 M 2.752910614013672 0 L 12.38811016082764 0 C 13.90850067138672 0 15.14102077484131 1.23252010345459 15.14102077484131 2.752910614013672 L 15.14102077484131 12.38811016082764 C 15.14102077484131 13.90850067138672 13.90850067138672 15.14102077484131 12.38811016082764 15.14102077484131 L 2.752910614013672 15.14102077484131 C 1.23252010345459 15.14102077484131 0 13.90850067138672 0 12.38811016082764 L 0 2.752910614013672 C 0 1.23252010345459 1.23252010345459 0 2.752910614013672 0 Z" stroke="none" fill="#484848"/>
                </g>
                <path id="Icon_feather-check-4" data-name="Icon feather-check" d="M12.882,9,8.151,13.818,6,11.628" transform="translate(-1.799 -5.006)" fill="none" stroke="#484848" stroke-linecap="round" stroke-linejoin="round" stroke-width="2"/>
                <g id="Layer_1-7" data-name="Layer 1" transform="translate(9.992 5.721)">
                  <g id="Group_34-4" data-name="Group 34">
                    <path id="Path_14-4" data-name="Path 14" d="M31.957,39a2.3,2.3,0,0,1-.288-.379c-.285-.669-.9-.621-1.164-1.3-.533-.971-.657-.951-1.648-1.315-.7-.258-.9-.467-1.6-.744-.113-.045-.261-.182-.259-.275s.148-.229.262-.275a19.338,19.338,0,0,0,2.388-1.436c.938-.356,1.434-2.225,1.729-2.9a3.9,3.9,0,0,1,.389-.706,4.972,4.972,0,0,1,.469.706,6.274,6.274,0,0,0,1.606,2.295,7.3,7.3,0,0,0,2.679,2.03c.116.046.286.193.271.266a.5.5,0,0,1-.281.3c-.723.292-.786-.862-1.515-.583-.892.341-.678,1.834-1.335,2.642-.3.709-1.125.579-1.425,1.288a2.512,2.512,0,0,1-.281.389Z" transform="translate(-27.002 -29.666)" fill="#f9f9f9"/>
                    <path id="Path_2741-4" data-name="Path 2741" d="M30.39,35.591a1.719,1.719,0,0,1-.215-.284c-.213-.5-.424-1-.622-1.508a2.48,2.48,0,0,0-1.532-1.478c-.525-.193-1.049-.39-1.567-.6-.085-.034-.2-.136-.194-.206s.111-.171.2-.206c.535-.214,1.076-.411,1.614-.615a2.432,2.432,0,0,0,1.464-1.416c.205-.512.2-1.031.426-1.537a2.922,2.922,0,0,1,.291-.529,3.721,3.721,0,0,1,.351.529c.223.514.433,1.033.643,1.552a2.42,2.42,0,0,0,1.451,1.4c.538.2,1.08.4,1.614.615.087.034.214.145.2.2a.373.373,0,0,1-.211.221c-.542.219-1.09.421-1.636.63A2.385,2.385,0,0,0,31.261,33.7c-.224.531-.435,1.067-.66,1.6a1.879,1.879,0,0,1-.211.291Z" transform="translate(-25.437 -26.285)" fill="#484848"/>
                  </g>
                </g>
              </g>
            </g>
            <g id="Layer_1-8" data-name="Layer 1" transform="translate(26.642 1)">
              <g id="Group_38-4" data-name="Group 38" transform="translate(0)">
                <path id="Path_17-4" data-name="Path 17" d="M5.829,0A.293.293,0,0,1,6.1.152a1.915,1.915,0,0,0,1.434.853c.628.089,1.26.152,1.889.233.28.036.556.1.836.134A1.888,1.888,0,0,0,11.807.933.166.166,0,0,1,11.943.9a1.393,1.393,0,0,1,.363.16c.318.231.625.475.933.719a.911.911,0,0,1,.172.19.227.227,0,0,1,.008.261,1.767,1.767,0,0,0-.138,1.3,5.438,5.438,0,0,0,.224.706c.271.678.552,1.352.835,2.025a2.278,2.278,0,0,0,.581.855,1.559,1.559,0,0,0,.52.351.465.465,0,0,1,.346.52,3.387,3.387,0,0,1-.22,1.354.357.357,0,0,1-.354.255,1.476,1.476,0,0,0-.868.342,8.423,8.423,0,0,0-1.321,1.409q-.382.478-.766.954a2.6,2.6,0,0,0-.619,1.235,4.526,4.526,0,0,0-.007.533.2.2,0,0,1-.043.141,2.349,2.349,0,0,1-.423.293,3.748,3.748,0,0,1-1.32.414.2.2,0,0,1-.155-.055,1.979,1.979,0,0,0-1.444-.817c-.893-.139-1.784-.291-2.677-.429a2.133,2.133,0,0,0-1.226.142,1.372,1.372,0,0,0-.339.21.244.244,0,0,1-.272.05.7.7,0,0,1-.1-.04,4.233,4.233,0,0,1-1.178-.9.384.384,0,0,1-.082-.481,1.71,1.71,0,0,0,.068-1.3c-.168-.532-.37-1.054-.565-1.577-.138-.372-.277-.745-.437-1.108a2.173,2.173,0,0,0-1.3-1.252.2.2,0,0,1-.1-.115,1.05,1.05,0,0,1-.025-.567c.07-.347.133-.695.2-1.041a.316.316,0,0,1,.336-.3,2.208,2.208,0,0,0,1.518-.785Q2.889,3.6,3.667,2.6a2.224,2.224,0,0,0,.5-1.307A1.84,1.84,0,0,0,4.132.879a.179.179,0,0,1,.05-.194,1.324,1.324,0,0,1,.3-.22C4.837.317,5.2.185,5.562.053A1.7,1.7,0,0,1,5.829,0Zm7.048,7.483a5,5,0,0,0-9.994,0,5,5,0,0,0,9.994,0Z" transform="translate(0.011)" fill="#484848"/>
                <path id="Path_18-4" data-name="Path 18" d="M238.921,232.45l1.735,1.483-.735.863q-1.712,2.007-3.429,4.011a1.8,1.8,0,0,1-.492.391c-.627.342-1.264.665-1.9.994a.954.954,0,0,1-.128.06c-.2.067-.273.006-.242-.193a1.123,1.123,0,0,1,.05-.181c.234-.7.466-1.4.707-2.1a1.035,1.035,0,0,1,.181-.325q2.091-2.458,4.189-4.91a.868.868,0,0,0,.06-.1Zm-3.98,5.358c-.127.378-.243.71-.348,1.045-.046.146.231.448.366.388.344-.155.674-.34,1.038-.528l-1.056-.905Z" transform="translate(-229.179 -228.385)" fill="#484848"/>
                <path id="Path_19-4" data-name="Path 19" d="M206.64,186.14a2.753,2.753,0,0,1,1.991-.251,1.82,1.82,0,0,1,1.387,1.817,2.216,2.216,0,0,0,.685,1.765c.1.1.211.186.336.294L209.983,191a3.27,3.27,0,0,0-3.028-1.026l1.473-2.938Z" transform="translate(-202.299 -182.25)" fill="#484848"/>
                <path id="Path_20-4" data-name="Path 20" d="M326.739,311.48c.6.455,1.184.895,1.767,1.331q.349.261.7.512a1.162,1.162,0,0,1,.418,1.563,1.257,1.257,0,0,1-1.587.538,1.376,1.376,0,0,1-.411-.266c-.713-.7-1.417-1.4-2.122-2.1a.489.489,0,0,1-.048-.074l1.279-1.5Zm1.963,2.39a.617.617,0,1,0,0,1.234.641.641,0,0,0,.642-.618.631.631,0,0,0-.639-.616Z" transform="translate(-317.826 -304.357)" fill="#484848"/>
                <path id="Path_21-4" data-name="Path 21" d="M351.69,208.314c.184-.215.346-.417.522-.605a.427.427,0,0,1,.632-.047q.529.431,1.037.887a.424.424,0,0,1,.047.631c-.158.2-.333.395-.514.608Z" transform="translate(-342.793 -202.942)" fill="#484848"/>
                <path id="Path_22-4" data-name="Path 22" d="M188.41,211.5c.553.264,1.049.493,1.536.742.046.024.069.18.04.247-.139.315-.3.621-.455.928-.1.2-.218.224-.383.059A2.8,2.8,0,0,1,188.41,211.5Z" transform="translate(-184.227 -206.762)" fill="#484848"/>
              </g>
            </g>
            <g id="Icon_material-delete-outline-7" data-name="Icon material-delete-outline" transform="translate(89.113 0)">
              <path id="Icon_material-delete-outline-8" data-name="Icon material-delete-outline" d="M8.509,18.3a1.894,1.894,0,0,0,2.018,1.725H18.6A1.894,1.894,0,0,0,20.615,18.3V7.95H8.509Zm2.018-8.626H18.6V18.3h-8.07Zm7.566-4.313L17.084,4.5H12.04l-1.009.863H7.5V7.088H21.623V5.363Z" transform="translate(-7.5 -4.5)" fill="#484848"/>
            </g>
            <g id="download-7" data-name="download" transform="translate(49.144 0)">
              <g id="download-8" data-name="download">
                <path id="Path_4304-7" data-name="Path 4304" d="M25.283,52.875H16.974a2.06,2.06,0,0,1-2.1-2.014v-3a.93.93,0,0,1,.474-.852,1.013,1.013,0,0,1,1.007,0,.93.93,0,0,1,.474.852v3a.142.142,0,0,0,.144.139h8.308a.142.142,0,0,0,.144-.139v-3a.93.93,0,0,1,.474-.852,1.013,1.013,0,0,1,1.007,0,.93.93,0,0,1,.474.852v3A2.06,2.06,0,0,1,25.283,52.875Z" transform="translate(-14.875 -36.891)" fill="#484848"/>
                <path id="Path_4305-7" data-name="Path 4305" d="M25.547,8a.959.959,0,0,1,.976.936v5.992l1.991-1.911a1,1,0,0,1,1.381,0,.9.9,0,0,1,0,1.324l-3.656,3.512a1.026,1.026,0,0,1-1.384,0l-3.646-3.5a.914.914,0,0,1,0-1.329,1.009,1.009,0,0,1,1.385,0l1.991,1.911V8.936A.959.959,0,0,1,25.547,8Z" transform="translate(-19.415 -8)" fill="#484848"/>
              </g>
            </g>
            <g id="upload-7" data-name="upload" transform="translate(68.605 0)">
              <g id="upload-8" data-name="upload">
                <path id="Path_4304-8" data-name="Path 4304" d="M25.675,53.1H17.053a2.137,2.137,0,0,1-2.177-2.09V47.9a.965.965,0,0,1,.491-.885,1.052,1.052,0,0,1,1.044,0,.965.965,0,0,1,.492.885v3.116a.147.147,0,0,0,.15.144h8.621a.147.147,0,0,0,.15-.144V47.9a.965.965,0,0,1,.492-.885,1.052,1.052,0,0,1,1.044,0,.965.965,0,0,1,.492.885v3.116A2.137,2.137,0,0,1,25.675,53.1Z" transform="translate(-14.875 -36.515)" fill="#484848"/>
                <path id="Path_4305-8" data-name="Path 4305" d="M25.721,18.5a1,1,0,0,0,1.012-.972V11.313L28.8,13.3a1.04,1.04,0,0,0,1.433,0,.937.937,0,0,0,0-1.373L26.439,8.279a1.064,1.064,0,0,0-1.436,0L21.22,11.913a.948.948,0,0,0,0,1.38,1.047,1.047,0,0,0,1.437,0l2.066-1.983V17.53a1,1,0,0,0,1,.972Z" transform="translate(-19.359 -8)" fill="#484848"/>
              </g>
            </g>
          </g>
          <text id="_09-2" data-name="09" transform="translate(519.001 36.185)" font-size="16" font-family="Poppins-Regular, Poppins"><tspan x="0" y="0">09</tspan></text>
        </g>
      </g>
    </g>
    <g id="Group_37" data-name="Group 37" transform="translate(-984 -28)">
      <rect id="Rectangle_24" data-name="Rectangle 24" width="157" height="44" rx="6" transform="translate(1747 103)" fill="url(#linear-gradient)"/>
      <g id="Group_1964" data-name="Group 1964" transform="translate(1746.859 109)">
        <text id="Add_Project" data-name="Add Project" transform="translate(44.726 22)" fill="#fff" font-size="17" font-family="Poppins-Medium, Poppins" font-weight="500"><tspan x="0" y="0">Add Project</tspan></text>
        <g id="noun-plus-4829437" transform="translate(14.141 6)">
          <path id="Path_2196" data-name="Path 2196" d="M12.14,2.21a9.93,9.93,0,1,0,9.93,9.93A9.942,9.942,0,0,0,12.14,2.21Zm0,19.239a9.309,9.309,0,1,1,9.309-9.309A9.32,9.32,0,0,1,12.14,21.449Zm6.566-9.309a.311.311,0,0,1-.311.311H12.451V18.4a.311.311,0,0,1-.623,0V12.449H5.885a.311.311,0,1,1,0-.623h5.946V5.885a.311.311,0,1,1,.623,0v5.946H18.4A.308.308,0,0,1,18.706,12.14Z" transform="translate(-2.21 -2.21)" fill="#fff" stroke="#fff" stroke-width="1"/>
        </g>
      </g>
    </g>
    <g id="Group_396" data-name="Group 396" transform="translate(-25 -48)">
      <text id="Projects" transform="translate(25 143)" font-size="22" font-family="Poppins-Medium, Poppins" font-weight="500"><tspan x="0" y="0">Projects</tspan></text>
      <rect id="Rectangle_141" data-name="Rectangle 141" width="38" height="3" rx="1.5" transform="translate(26 153)" fill="#f05a5c"/>
    </g>
    <g id="Component_5_3" data-name="Component 5 – 3" transform="translate(343 75)">
      <g id="Rectangle_23" data-name="Rectangle 23" fill="#fff" stroke="#e6e6e6" stroke-width="1">
        <rect width="400" height="44" rx="4" stroke="none"/>
        <rect x="0.5" y="0.5" width="399" height="43" rx="3.5" fill="none"/>
      </g>
      <path id="Icon_akar-search" data-name="Icon akar-search" d="M25,25l-5.194-5.2m2.879-6.954A9.842,9.842,0,1,1,12.842,3a9.842,9.842,0,0,1,9.842,9.842Z" transform="translate(7 7)" fill="none" stroke="#707070" stroke-linecap="round" stroke-width="2"/>
      <line id="Line_9" data-name="Line 9" y2="34" transform="translate(42 4)" fill="none" stroke="#e8e8e8" stroke-width="1"/>
    </g>
    <g id="header">
      <rect id="Rectangle_4" data-name="Rectangle 4" width="920" height="64" fill="#fcfcfc"/>
      <line id="Line_1" data-name="Line 1" x2="920" transform="translate(0 64)" fill="none" stroke="#e8e8e8" stroke-width="1"/>
      <g id="Group_373" data-name="Group 373" transform="translate(-102 -20)">
        <g id="Component_4_31" data-name="Component 4 – 31" transform="translate(400 24)">
          <rect id="Rectangle_10" data-name="Rectangle 10" width="165" height="40" rx="4" fill="#f9f9f9"/>
          <g id="Group_1934" data-name="Group 1934" transform="translate(-1)">
            <text id="Dashboard" transform="translate(61 26)" font-size="16" font-family="Poppins-Regular, Poppins"><tspan x="0" y="0">Dashboard</tspan></text>
            <g id="Icon_material-dashboard" data-name="Icon material-dashboard" transform="translate(11.5 5.5)" fill="none">
              <path d="M4.5,15.611h8.889V4.5H4.5Zm0,8.889h8.889V17.833H4.5Zm11.111,0H24.5V13.389H15.611Zm0-20v6.667H24.5V4.5Z" stroke="none"/>
              <path d="M 22.5 22.5 L 22.5 15.38889026641846 L 17.61111068725586 15.38889026641846 L 17.61111068725586 22.5 L 22.5 22.5 M 11.38889026641846 22.5 L 11.38889026641846 19.83333015441895 L 6.5 19.83333015441895 L 6.5 22.5 L 11.38889026641846 22.5 M 11.38889026641846 13.61110973358154 L 11.38889026641846 6.5 L 6.5 6.5 L 6.5 13.61110973358154 L 11.38889026641846 13.61110973358154 M 22.5 9.166669845581055 L 22.5 6.5 L 17.61111068725586 6.5 L 17.61111068725586 9.166669845581055 L 22.5 9.166669845581055 M 24.5 24.5 L 15.61110973358154 24.5 L 15.61110973358154 13.38889026641846 L 24.5 13.38889026641846 L 24.5 24.5 Z M 13.38889026641846 24.5 L 4.5 24.5 L 4.5 17.83333015441895 L 13.38889026641846 17.83333015441895 L 13.38889026641846 24.5 Z M 13.38889026641846 15.61110973358154 L 4.5 15.61110973358154 L 4.5 4.5 L 13.38889026641846 4.5 L 13.38889026641846 15.61110973358154 Z M 24.5 11.16666984558105 L 15.61110973358154 11.16666984558105 L 15.61110973358154 4.5 L 24.5 4.5 L 24.5 11.16666984558105 Z" stroke="none" fill="#000"/>
            </g>
          </g>
        </g>
        <g id="Component_4_32" data-name="Component 4 – 32" transform="translate(583 24)">
          <rect id="Rectangle_10-2" data-name="Rectangle 10" width="165" height="40" rx="4" fill="#f2f2f2"/>
          <g id="Group_1935" data-name="Group 1935" transform="translate(11)">
            <text id="Projects-2" data-name="Projects" transform="translate(63 26)" font-size="16" font-family="Poppins-Regular, Poppins"><tspan x="0" y="0">Projects</tspan></text>
            <path id="Icon_feather-folder" data-name="Icon feather-folder" d="M25,22.278A2.211,2.211,0,0,1,22.8,24.5H5.2A2.211,2.211,0,0,1,3,22.278V6.722A2.211,2.211,0,0,1,5.2,4.5h5.5l2.2,3.333h9.9A2.211,2.211,0,0,1,25,10.056Z" transform="translate(13 5.5)"/>
          </g>
          <line id="Line_11" data-name="Line 11" x1="108" transform="translate(28.5 41)" fill="none" stroke="#f15b5b" stroke-linecap="round" stroke-width="2"/>
        </g>
        <g id="Component_4_33" data-name="Component 4 – 33" transform="translate(761 24)">
          <rect id="Rectangle_10-3" data-name="Rectangle 10" width="165" height="40" rx="4" fill="#f9f9f9"/>
          <g id="Group_1921" data-name="Group 1921" transform="translate(-1.098)">
            <text id="Add_Project-2" data-name="Add Project" transform="translate(60.822 26)" font-size="16" font-family="Poppins-Regular, Poppins"><tspan x="0" y="0">Add Project</tspan></text>
            <g id="Icon_feather-folder-plus" data-name="Icon feather-folder-plus" transform="translate(16.098 10)">
              <path id="Path_5" data-name="Path 5" d="M25.134,22.278A2.218,2.218,0,0,1,22.921,24.5H5.213A2.218,2.218,0,0,1,3,22.278V6.722A2.218,2.218,0,0,1,5.213,4.5h5.534L12.96,7.833h9.96a2.218,2.218,0,0,1,2.213,2.222Z" transform="translate(-3 -4.5)" fill="none" stroke="#000" stroke-linecap="round" stroke-linejoin="round" stroke-width="2"/>
              <path id="Path_6" data-name="Path 6" d="M18,16.5v6.667" transform="translate(-6.933 -7.611)" fill="none" stroke="#000" stroke-linecap="round" stroke-linejoin="round" stroke-width="2"/>
              <path id="Path_7" data-name="Path 7" d="M13.5,21h6.64" transform="translate(-5.753 -8.778)" fill="none" stroke="#000" stroke-linecap="round" stroke-linejoin="round" stroke-width="2"/>
            </g>
          </g>
        </g>
      </g>
      <g id="Component_2_10" data-name="Component 2 – 10" transform="translate(872 4)">
        <g id="Group_2" data-name="Group 2" transform="translate(-1719 -23)">
          <rect id="Rectangle_3" data-name="Rectangle 3" width="48" height="40" rx="5" transform="translate(1719 23)" fill="#e0e0e0"/>
          <text id="AG" transform="translate(1743 51)" font-size="20" font-family="Poppins-Medium, Poppins" font-weight="500"><tspan x="-14.7" y="0">AG</tspan></text>
        </g>
      </g>
      <g id="logo" transform="translate(-3453.317 -565.973)">
        <g id="Group_2661" data-name="Group 2661" transform="translate(3539.293 572.766) rotate(-8)">
          <g id="Group_2658" data-name="Group 2658" transform="translate(0 7.717)">
            <path id="Path_3839" data-name="Path 3839" d="M29.506,13.184A12.886,12.886,0,0,1,17.039,30.17,12.881,12.881,0,0,1,4.413,17.039a12.883,12.883,0,0,1,21-9.744,6.615,6.615,0,0,0,.854.567,19.712,19.712,0,0,1,1.351-1.606,17.263,17.263,0,0,1,1.461-1.577l-.064-.03.064.03.024-.011a17.293,17.293,0,1,0-18.86,28.422,17.3,17.3,0,0,0,23.1-22.215c-.069-.172-.142-.342-.215-.512a.148.148,0,0,0-.03.01" transform="translate(0 0)" fill="url(#linear-gradient-2)"/>
          </g>
          <path id="Path_3840" data-name="Path 3840" d="M13.52,25.452,0,11.131l11.769,6.494L36.127,0Z" transform="translate(3.414 7.707)" stroke="#fff" stroke-miterlimit="10" stroke-width="0.25" fill="url(#linear-gradient-3)"/>
          <g id="Group_2659" data-name="Group 2659" transform="translate(29.219 0)">
            <path id="Path_3841" data-name="Path 3841" d="M3.564.128a.567.567,0,1,1,.677.909L.9,3.535a.567.567,0,0,1-.678-.909Z" transform="translate(1.017 10.371)" fill="url(#linear-gradient-4)"/>
            <path id="Path_3842" data-name="Path 3842" d="M2.853.216a.567.567,0,1,1,.86.738L.994,4.122a.568.568,0,0,1-.86-.738Z" transform="translate(2.958 12.462)" fill="url(#linear-gradient-5)"/>
            <path id="Path_3843" data-name="Path 3843" d="M3.669,3.636,0,2.932C3.706-.168,3.907-.026,6.612.013A18.635,18.635,0,0,0,3.669,3.638Z" transform="translate(0 5.463)" fill-rule="evenodd" fill="url(#linear-gradient-6)"/>
            <path id="Path_3844" data-name="Path 3844" d="M0,2.355.1,6.044C3.727,2.853,3.617,2.634,4.031,0A26.582,26.582,0,0,1,0,2.357Z" transform="translate(8.406 12.269)" fill-rule="evenodd" fill="url(#linear-gradient-7)"/>
            <path id="Path_3845" data-name="Path 3845" d="M13.826,6.566C12.371,8.993,6.567,13.5,3.456,14.359L0,10.329C1.281,7.423,6.7,2.382,9.322,1.314c6.9-2.77,8.3-1.224,4.505,5.253ZM11.573,3.94a2.343,2.343,0,0,1-.3,3.319,2.342,2.342,0,0,1-3.326-.213A2.386,2.386,0,1,1,11.573,3.94Z" transform="translate(3.702 0)" fill-rule="evenodd" fill="url(#linear-gradient-8)"/>
            <circle id="Ellipse_15" data-name="Ellipse 15" cx="1.372" cy="1.372" r="1.372" transform="translate(12.092 4.122)" fill="url(#linear-gradient-9)"/>
          </g>
        </g>
        <path id="Path_3846" data-name="Path 3846" d="M4.97-23.184q-1.127,0-1.127-1.192V-44.54q0-1.192,1.127-1.192h5.508a7.321,7.321,0,0,1,6.249,2.738q2.062,2.738,2.062,8.5,0,5.8-2.062,8.552a7.3,7.3,0,0,1-6.249,2.754Zm3.157-3.608h2.384a3.129,3.129,0,0,0,3.012-1.82,13.871,13.871,0,0,0,.918-5.879,13.651,13.651,0,0,0-.918-5.83,3.133,3.133,0,0,0-3.012-1.8H8.127Zm17.459,3.833A4.386,4.386,0,0,1,22.155-24.3a5.3,5.3,0,0,1-1.208-3.688,5.783,5.783,0,0,1,.805-3.044,5.478,5.478,0,0,1,2.609-2.126,12.152,12.152,0,0,1,4.8-.789v-.87a2.4,2.4,0,0,0-.5-1.594,2.144,2.144,0,0,0-1.723-.6,7.873,7.873,0,0,0-2.094.258,12.936,12.936,0,0,0-1.546.515,2.685,2.685,0,0,1-.87.258q-.29,0-.467-.419a3.958,3.958,0,0,1-.258-.966,6.434,6.434,0,0,1-.081-.9q0-.419.821-.886a8.45,8.45,0,0,1,2.11-.789,10.849,10.849,0,0,1,2.641-.322q3.189,0,4.638,1.466a5.237,5.237,0,0,1,1.45,3.849v6.474a18.975,18.975,0,0,0,.161,2.963,8.436,8.436,0,0,1,.161,1.321.579.579,0,0,1-.37.515,3.561,3.561,0,0,1-.886.306,8.751,8.751,0,0,1-1,.161q-.483.048-.709.048a.784.784,0,0,1-.757-.387,5.381,5.381,0,0,1-.4-1.385A5.521,5.521,0,0,1,28-23.586,4.346,4.346,0,0,1,25.586-22.958Zm1.288-3.028a2.349,2.349,0,0,0,1.3-.387,3.119,3.119,0,0,0,.982-1.031v-3.93a4.99,4.99,0,0,0-3.173.773,2.861,2.861,0,0,0-.918,2.319,2.71,2.71,0,0,0,.451,1.643A1.572,1.572,0,0,0,26.874-25.986Zm13.948,3.028a4.078,4.078,0,0,1-2.835-1.015,4.39,4.39,0,0,1-1.127-3.4v-9.406h-.9q-.87,0-.87-1.385v-.483q0-1.385.87-1.385h.9l.483-3.157q.161-.934,1.417-.934h.773q1.45,0,1.45.934v3.157h1.643q.87,0,.87,1.385v.483q0,1.385-.87,1.385H40.983v8.987a2.573,2.573,0,0,0,.209,1.224.8.8,0,0,0,.757.354,2.446,2.446,0,0,0,.66-.064,1.47,1.47,0,0,1,.435-.064q.258,0,.419.4a4.271,4.271,0,0,1,.242.886,4.871,4.871,0,0,1,.081.741.874.874,0,0,1-.451.725,3.4,3.4,0,0,1-1.144.467A6.029,6.029,0,0,1,40.822-22.958Zm9.019,0A4.386,4.386,0,0,1,46.41-24.3,5.3,5.3,0,0,1,45.2-27.983a5.783,5.783,0,0,1,.805-3.044,5.478,5.478,0,0,1,2.609-2.126,12.152,12.152,0,0,1,4.8-.789v-.87a2.4,2.4,0,0,0-.5-1.594,2.144,2.144,0,0,0-1.723-.6,7.873,7.873,0,0,0-2.094.258,12.936,12.936,0,0,0-1.546.515,2.685,2.685,0,0,1-.87.258q-.29,0-.467-.419a3.957,3.957,0,0,1-.258-.966,6.434,6.434,0,0,1-.081-.9q0-.419.821-.886a8.45,8.45,0,0,1,2.11-.789,10.849,10.849,0,0,1,2.641-.322q3.189,0,4.638,1.466a5.237,5.237,0,0,1,1.45,3.849v6.474A18.975,18.975,0,0,0,57.7-25.5a8.436,8.436,0,0,1,.161,1.321.579.579,0,0,1-.37.515,3.561,3.561,0,0,1-.886.306,8.751,8.751,0,0,1-1,.161q-.483.048-.709.048a.784.784,0,0,1-.757-.387,5.381,5.381,0,0,1-.4-1.385,5.521,5.521,0,0,1-1.482,1.337A4.346,4.346,0,0,1,49.841-22.958Zm1.288-3.028a2.349,2.349,0,0,0,1.3-.387,3.119,3.119,0,0,0,.982-1.031v-3.93a4.99,4.99,0,0,0-3.173.773,2.861,2.861,0,0,0-.918,2.319,2.71,2.71,0,0,0,.451,1.643A1.572,1.572,0,0,0,51.129-25.986Zm11.725,2.867a2.734,2.734,0,0,1-1.337-.242.764.764,0,0,1-.4-.693V-44.54q0-1.192,1.127-1.192h5.283q6.668,0,6.668,6.861,0,6.893-6.668,6.893H65.4v7.924a.764.764,0,0,1-.4.693,2.734,2.734,0,0,1-1.337.242ZM65.4-35.585h2.126a2.215,2.215,0,0,0,1.917-.773,4.343,4.343,0,0,0,.564-2.512,4.272,4.272,0,0,0-.564-2.48,2.215,2.215,0,0,0-1.917-.773H65.4ZM77.543-23.119a2.647,2.647,0,0,1-1.3-.242.764.764,0,0,1-.4-.693V-39.161a.764.764,0,0,1,.4-.693,2.647,2.647,0,0,1,1.3-.242h.709a2.647,2.647,0,0,1,1.3.242.764.764,0,0,1,.4.693v15.107a.764.764,0,0,1-.4.693,2.647,2.647,0,0,1-1.3.242ZM77.929-41.9a3.769,3.769,0,0,1-1.578-.242.753.753,0,0,1-.483-.693v-2.319a.734.734,0,0,1,.483-.66,3.769,3.769,0,0,1,1.578-.242,3.9,3.9,0,0,1,1.546.225.723.723,0,0,1,.483.676v2.319a.753.753,0,0,1-.483.693A3.665,3.665,0,0,1,77.929-41.9Zm9.277,18.94a4.078,4.078,0,0,1-2.835-1.015,4.39,4.39,0,0,1-1.127-3.4V-46.5a.764.764,0,0,1,.4-.693,2.647,2.647,0,0,1,1.3-.242h.709a2.647,2.647,0,0,1,1.3.242.764.764,0,0,1,.4.693V-27.79a2.573,2.573,0,0,0,.209,1.224.8.8,0,0,0,.757.354,2.446,2.446,0,0,0,.66-.064,1.47,1.47,0,0,1,.435-.064q.258,0,.419.4a4.27,4.27,0,0,1,.242.886,4.871,4.871,0,0,1,.081.741.874.874,0,0,1-.451.725,3.4,3.4,0,0,1-1.144.467A6.029,6.029,0,0,1,87.206-22.958Zm48.575,0a4.078,4.078,0,0,1-2.835-1.015,4.39,4.39,0,0,1-1.127-3.4v-9.406h-.9q-.87,0-.87-1.385v-.483q0-1.385.87-1.385h.9l.483-3.157q.161-.934,1.417-.934h.773q1.45,0,1.45.934v3.157h1.643q.87,0,.87,1.385v.483q0,1.385-.87,1.385h-1.643v8.987a2.573,2.573,0,0,0,.209,1.224.8.8,0,0,0,.757.354,2.446,2.446,0,0,0,.66-.064,1.47,1.47,0,0,1,.435-.064q.258,0,.419.4a4.271,4.271,0,0,1,.242.886,4.871,4.871,0,0,1,.081.741.874.874,0,0,1-.451.725,3.4,3.4,0,0,1-1.144.467A6.029,6.029,0,0,1,135.781-22.958Z" transform="translate(3450.34 630.774)"/>
      </g>
    </g>
  </g>
</svg>
