<svg xmlns="http://www.w3.org/2000/svg" width="100%" height="100%" viewBox="0 0 62.5 55.637">
  <g id="noun-cross-platform-6195737" transform="translate(-2.5 -7.441)">
    <path id="Path_44851" data-name="Path 44851" d="M24.9,26.065H31a2.694,2.694,0,0,1,2.689,2.688v7.258H62.18V10.475H24.9ZM10.43,52.482H2.5v3.132a3.147,3.147,0,0,0,3.135,3.135h4.792V52.482ZM20.545,26.065V15.121H7.131A1.585,1.585,0,0,0,5.556,16.7V50.942h4.878V28.753a2.694,2.694,0,0,1,2.688-2.688ZM33.686,39.045V37.551H62.948a.769.769,0,0,0,.769-.768V9.7a.769.769,0,0,0-.769-.764H24.134a.769.769,0,0,0-.769.764v16.36H22.083V8.049a.612.612,0,0,1,.608-.608h41.7A.612.612,0,0,1,65,8.049v30.39a.61.61,0,0,1-.607.607Zm0,11.9H60.561V40.582H33.686Zm0,7.808H60.48a3.147,3.147,0,0,0,3.135-3.135V52.482H33.685v6.271Zm-7.278-17.76a6.155,6.155,0,1,1-4.351-1.8A6.155,6.155,0,0,1,26.408,40.989ZM22.058,37.65A7.692,7.692,0,1,1,16.621,39.9a7.692,7.692,0,0,1,5.437-2.253Zm-3.635,8.57a.769.769,0,0,1,1.087-1.087l1.777,1.777,3.853-3.851a.769.769,0,0,1,1.085,1.09l-4.4,4.394a.768.768,0,0,1-1.086,0l-2.321-2.32ZM48.611,18.172a7.174,7.174,0,1,1-5.069-2.1A7.174,7.174,0,0,1,48.611,18.172Zm-5.069-3.638a8.708,8.708,0,1,1-6.159,2.551,8.708,8.708,0,0,1,6.159-2.551ZM39.45,24.173a.769.769,0,1,1,1.087-1.087l2.119,2.119,4.5-4.5a.769.769,0,1,1,1.087,1.087L43.2,26.835a.768.768,0,0,1-1.086,0l-2.663-2.662Zm-7.3,35.3H11.967v2.451a1.157,1.157,0,0,0,1.151,1.151H31a1.156,1.156,0,0,0,1.151-1.151V59.475ZM18.051,27.6h8.012l-.628,1.933H18.681L18.056,27.6Zm9.624,0H31a1.156,1.156,0,0,1,1.151,1.151V57.939H11.967V28.753A1.157,1.157,0,0,1,13.118,27.6h3.321l.94,2.892a.769.769,0,0,0,.747.578h7.867a.764.764,0,0,0,.729-.53Z" fill-rule="evenodd"/>
  </g>
</svg>
