<svg xmlns="http://www.w3.org/2000/svg" width="100%" height="100%" viewBox="0 0 65.735 66">
  <g id="noun-data-collection-7284736" transform="translate(-9.398 -9.238)">
    <path id="Path_44878" data-name="Path 44878" d="M25,9.238H12.611A3.218,3.218,0,0,0,9.4,12.451V29.023a3.218,3.218,0,0,0,3.213,3.213H25a3.218,3.218,0,0,0,3.213-3.213V12.451A3.218,3.218,0,0,0,25,9.238ZM13.4,22.707h4.386a.632.632,0,0,1,0,1.265H13.4a.632.632,0,1,1,0-1.265Zm10.812,3.972H13.4a.632.632,0,1,1,0-1.265H24.214a.632.632,0,1,1,0,1.265Zm.866-10.661H22.212a.638.638,0,0,1-.632-.632V12.391a.632.632,0,1,1,1.265,0v2.362h2.236a.632.632,0,0,1,0,1.265Zm23.377-6.78H36.07a3.218,3.218,0,0,0-3.213,3.213V29.023a3.218,3.218,0,0,0,3.213,3.213H48.457a3.218,3.218,0,0,0,3.213-3.213V12.452a3.218,3.218,0,0,0-3.213-3.213ZM36.864,22.707H41.25a.632.632,0,0,1,0,1.265H36.864a.632.632,0,0,1,0-1.265Zm10.81,3.972H36.862a.632.632,0,0,1,0-1.265H47.674a.632.632,0,1,1,0,1.265Zm.87-10.661H45.675a.638.638,0,0,1-.632-.632V12.392a.632.632,0,1,1,1.265,0v2.362h2.236a.632.632,0,0,1,0,1.265ZM71.92,9.239H59.533a3.218,3.218,0,0,0-3.213,3.213V29.023a3.218,3.218,0,0,0,3.213,3.213H71.92a3.218,3.218,0,0,0,3.213-3.213V12.452A3.218,3.218,0,0,0,71.92,9.239Zm-11.6,13.469H64.71a.632.632,0,0,1,0,1.265H60.324a.632.632,0,0,1,0-1.265ZM71.135,26.68H60.324a.632.632,0,1,1,0-1.265H71.135a.632.632,0,0,1,0,1.265Zm.87-10.661H69.137a.638.638,0,0,1-.632-.632V12.392a.632.632,0,1,1,1.265,0v2.362h2.236a.632.632,0,0,1,0,1.265ZM34.992,42a.64.64,0,0,1,0,.895L31.07,46.818a1.527,1.527,0,0,1-2.157,0L24.992,42.9A.633.633,0,0,1,25.887,42l3.476,3.476V39.851a.545.545,0,0,0-.541-.541H19.993A1.807,1.807,0,0,1,18.187,37.5V34.181a.632.632,0,1,1,1.265,0V37.5a.545.545,0,0,0,.541.541h8.829a1.807,1.807,0,0,1,1.806,1.806v5.626L34.1,42A.64.64,0,0,1,35,42Zm31.371-7.824V37.5a1.807,1.807,0,0,1-1.806,1.806H55.728a.545.545,0,0,0-.541.541v5.626L58.663,42a.633.633,0,1,1,.895.895l-3.921,3.921a1.527,1.527,0,0,1-2.157,0l-3.921-3.921A.633.633,0,0,1,50.453,42l3.476,3.476V39.848a1.807,1.807,0,0,1,1.806-1.806h8.829A.545.545,0,0,0,65.1,37.5V34.178a.632.632,0,0,1,1.265,0ZM47.268,42a.64.64,0,0,1,0,.895l-3.921,3.921a1.527,1.527,0,0,1-2.157,0L37.269,42.9A.633.633,0,0,1,38.164,42l3.476,3.476v-11.3a.632.632,0,0,1,1.265,0v11.3L46.38,42a.64.64,0,0,1,.895,0ZM20.856,57.915V70.548a4.69,4.69,0,1,1-9.38,0V57.915a4.69,4.69,0,1,1,9.38,0Zm47.689-.032L52.733,67.918a22.194,22.194,0,0,1-11.9,3.457L22.1,71.1c.016-.187.025-.37.025-.557V57.906a6,6,0,0,0-.338-1.964l6.173-2.919a15.089,15.089,0,0,1,12.068-.37l5.718,2.286h.016A1.928,1.928,0,0,1,46.828,57.2L46.5,58.516a2.047,2.047,0,0,1-1,1.3,2.011,2.011,0,0,1-1.635.142l-4.57-1.534a8.36,8.36,0,0,0-4.832-.142l-1.67.455a.632.632,0,0,0,.329,1.221l1.67-.455a7.07,7.07,0,0,1,4.1.117l4.57,1.534a3.26,3.26,0,0,0,1.053.168,3.318,3.318,0,0,0,3.223-2.5l.2-.81a21.126,21.126,0,0,0,11.638-4.013l4.285-3.1a4.267,4.267,0,0,1,1.939-.825,4.222,4.222,0,0,1,4.772,3.381,4.329,4.329,0,0,1-2.008,4.427Z"/>
  </g>
</svg>
