<svg xmlns="http://www.w3.org/2000/svg" width="100%" height="100%" viewBox="0 0 71 62">
  <g id="noun-data-security-7300352" transform="translate(-5.07 -10.77)">
    <path id="Path_44881" data-name="Path 44881" d="M5.073,39.4V30.376c3.911,2.315,12.066,3.4,19.8,3.4,2.046,0,4.117-.08,6.139-.228V39.66a35.956,35.956,0,0,0,.188,3.7c-1.914.167-4.031.253-6.331.253-12.816,0-19.8-2.781-19.8-4.21Zm19.8,6.584c-7.735,0-15.889-1.083-19.8-3.389V51.46c0,1.429,6.985,4.21,19.8,4.21a71.5,71.5,0,0,0,9.544-.593,36.474,36.474,0,0,1-2.892-9.371c-2.182.188-4.432.278-6.655.278Zm0-14.578c2.219,0,4.275-.086,6.139-.228.482-.04.957-.08,1.414-.127a.124.124,0,0,0,.062-.009,8.274,8.274,0,0,0,6.8-8.139h5.374V18.171C40.757,20.486,32.6,21.56,24.873,21.56s-15.889-1.074-19.8-3.389V27.2c0,1.429,6.985,4.21,19.8,4.21Zm0-12.217c12.809,0,19.794-2.781,19.794-4.21s-6.985-4.21-19.794-4.21-19.8,2.781-19.8,4.21S12.061,19.19,24.877,19.19ZM76.071,33.277V39.66A34.411,34.411,0,0,1,62.3,67.1L54.727,72.77,47.149,67.1A34.4,34.4,0,0,1,36.861,54.688c-.1-.2-.2-.4-.293-.608a34.085,34.085,0,0,1-2.67-8.611.822.822,0,0,1-.031-.151c0-.015-.009-.025-.009-.04-.117-.648-.213-1.352-.3-2.148v-.015c-.111-1.139-.173-2.3-.173-3.454V33.277A10.655,10.655,0,0,0,41.4,25.27H68.054a10.663,10.663,0,0,0,8.013,8ZM69.891,36.62A5.294,5.294,0,0,1,64.6,31.326H44.859a4.987,4.987,0,0,1-.188,1.383,5.286,5.286,0,0,1-5.105,3.911v5.429a22.312,22.312,0,0,0,.127,2.411,23.4,23.4,0,0,0,9.275,16.356l5.76,4.3,5.76-4.3a23.432,23.432,0,0,0,9.4-18.766V36.62ZM62.6,33.7H46.85a7.66,7.66,0,0,1-4.917,4.914v3.438c0,.6.025,1.17.08,1.732.009.142.015.284.031.426a21.225,21.225,0,0,0,2.37,7.766c.015.031.031.056.046.086a21.022,21.022,0,0,0,5.917,6.858l4.346,3.241,4.346-3.241a21.176,21.176,0,0,0,8.448-16.872V38.617a7.716,7.716,0,0,1-4.923-4.923Z" transform="translate(0 0)"/>
  </g>
</svg>
