<svg xmlns="http://www.w3.org/2000/svg" width="100%" height="100%" viewBox="0 0 59.607 58.751">
  <g id="noun-global-reach-7341648" transform="translate(-20.156 -20.672)">
    <path id="Path_44869" data-name="Path 44869" d="M34.375,40.156h7.2a35.65,35.65,0,0,0,1.313,9.125,19.491,19.491,0,0,0-3.734,2.609,18.647,18.647,0,0,1-4.781-11.75Zm4.781-13.312a17.967,17.967,0,0,0,3.719,2.609,35.546,35.546,0,0,0-1.3,9.141h-7.2A18.806,18.806,0,0,1,39.156,26.844Zm27.922,0a18.647,18.647,0,0,1,4.781,11.75h-7.2a35.65,35.65,0,0,0-1.312-9.125,19.491,19.491,0,0,0,3.734-2.609Zm0,25.062A17.967,17.967,0,0,0,63.359,49.3a35.546,35.546,0,0,0,1.3-9.141h7.2a18.77,18.77,0,0,1-4.781,11.75ZM53.89,48.375a19.975,19.975,0,0,1,7.563,1.75,20.371,20.371,0,0,1-.969,2.375c-1.172,2.406-3.266,5.2-6.594,5.594Zm0-1.562V40.172h9.2a34.5,34.5,0,0,1-1.156,8.438,21.49,21.49,0,0,0-8.047-1.8Zm-1.562,0a21.405,21.405,0,0,0-8.016,1.781,34.032,34.032,0,0,1-1.172-8.422h9.2v6.641Zm0,1.563v9.734c-3.5-.422-6.031-3.625-7.547-7.984a20.263,20.263,0,0,1,7.547-1.75Zm9.563,4.813a22.914,22.914,0,0,0,.969-2.344,16.692,16.692,0,0,1,3.109,2.2,18.7,18.7,0,0,1-6.859,4.125,14.5,14.5,0,0,0,2.781-3.984Zm1.188-14.578h-9.2V31.969a21.405,21.405,0,0,0,8.016-1.781,34.032,34.032,0,0,1,1.172,8.422Zm-9.2-8.2V20.672c3.5.422,6.031,3.625,7.547,7.984A20.263,20.263,0,0,1,53.875,30.406Zm-1.562-9.734v9.734a19.672,19.672,0,0,1-7.547-1.75C46.281,24.3,48.812,21.094,52.312,20.672Zm0,11.3v6.641h-9.2a34.781,34.781,0,0,1,1.172-8.422A21.476,21.476,0,0,0,52.3,31.969ZM43.343,50.844a16.651,16.651,0,0,0,3.75,6.344,18.72,18.72,0,0,1-6.875-4.141,16.928,16.928,0,0,1,3.125-2.2ZM65.952,25.735a16.929,16.929,0,0,1-3.125,2.2,16.651,16.651,0,0,0-3.75-6.344,18.72,18.72,0,0,1,6.875,4.141ZM44.3,25.594a22.914,22.914,0,0,0-.969,2.344,16.692,16.692,0,0,1-3.109-2.2,18.7,18.7,0,0,1,6.859-4.125A14.5,14.5,0,0,0,44.3,25.594ZM27.484,78.188a1.227,1.227,0,0,1-1.234,1.234H21.391a1.227,1.227,0,0,1-1.234-1.234V57.8a1.227,1.227,0,0,1,1.234-1.234H26.25A1.227,1.227,0,0,1,27.484,57.8ZM78.406,62.219l-14.8,9.953a15.7,15.7,0,0,1-8.781,2.672H29.062V60.672a32,32,0,0,1,9.094-2.844,13.9,13.9,0,0,1,6.313.3l6.125,1.734a17.816,17.816,0,0,0,4.875.672H59.25A2.771,2.771,0,0,1,62.015,63.3a2.8,2.8,0,0,1-.172.969c-.016.031-.031.078-.047.109a2.759,2.759,0,0,1-2.547,1.688H44.828a.781.781,0,0,0,0,1.563H59.25a4.34,4.34,0,0,0,3.922-2.5L75.03,57.172a2.95,2.95,0,0,1,2.344-.437,3.036,3.036,0,0,1,1.047,5.484Z"/>
    <path id="Path_44870" data-name="Path 44870" d="M23.875,73.594a2.031,2.031,0,1,0,2.031,2.031A2.027,2.027,0,0,0,23.875,73.594Zm0,2.516a.47.47,0,0,1-.469-.469.469.469,0,1,1,.469.469Z"/>
  </g>
</svg>
