<svg xmlns="http://www.w3.org/2000/svg" width="100%" height="100%" viewBox="0 0 72.005 67.736">
  <g id="noun-quality-control-7350768" transform="translate(-7.168 -9.709)">
    <path id="Path_44868" data-name="Path 44868" d="M43.4,28.216a14.551,14.551,0,1,0,10.044-17.96A14.592,14.592,0,0,0,43.4,28.216ZM18.981,14.7v1.287H9.227a.771.771,0,0,0-.772.772V69.309a.771.771,0,0,0,.772.772H41.073v.177l1.921,1.11H7.168V14.7ZM52.025,45.228l-1.287.742V38.881c.42.194.85.368,1.287.525ZM44.48,14.7c-.305.417-.591.844-.857,1.287H40.211V14.7Zm27.489,38.61L58.04,61.353V77.445l4.646-2.683.043-.023,9.148-5.283Zm-19.691,5.6V64.84a.773.773,0,0,1-1.346.519l-2.075-2.3-1.914.765a.767.767,0,0,1-1.07-.706v-7.9l-3.3-1.908V69.4l7.352,4.245c.013.007.026.016.039.023L56.5,77.446l-.007-16.095Zm14.706-9.381L71.2,51.972,57.268,60.017l-4.219-2.436,10.28-5.936.624-.361ZM43.33,51.972l3.306,1.908,2.935-1.694.036-.023,10.963-6.33-3.306-1.908L49.913,48.17Zm18.785-5.25,2.466,1.422a.245.245,0,0,0,.039.023l.821.476-2.886,1.665-11.39,6.577a.774.774,0,0,0-.433.693v5.247l-1.087-1.208h0a.771.771,0,0,0-.857-.2l-1.382.552V55.21l2.929-1.691c.016-.007.03-.016.046-.023Zm16.05,3.769a2.9,2.9,0,0,1-4.071-.318l-7.634-8.934.6.706,4.39-3.75,7.03,8.228a2.889,2.889,0,0,1-.318,4.068ZM65.146,38.29a16,16,0,0,0,3.191-2.331l1.5,1.757-3,2.561ZM19.752,17.536H42.8a16,16,0,0,0,6.386,20.541v8.79l-.023.013-7.378,4.262-.719.417V68.544L10,68.538v-51ZM26.043,63.2H37.181a.772.772,0,1,0,0-1.543l-11.137,0a.773.773,0,0,0,0,1.546Zm0-37.953h9.075a.772.772,0,0,0,0-1.543l-9.075,0a.773.773,0,0,0,0,1.546Zm0,4H38.359a.772.772,0,0,0,0-1.543l-12.316,0a.773.773,0,0,0,0,1.546Zm0,7.319h9.075a.772.772,0,0,0,0-1.543l-9.075,0a.773.773,0,0,0,0,1.546Zm0,4a.772.772,0,1,1,0-1.543H43.886a.772.772,0,0,1,0,1.543Zm0,7.319h9.075a.772.772,0,1,0,0-1.543l-9.075,0a.773.773,0,0,0,0,1.546Zm0,4H37.3a.772.772,0,0,0,0-1.543l-11.259,0a.773.773,0,0,0,0,1.546Zm0,7.319h9.075a.772.772,0,0,0,0-1.543l-9.075,0a.773.773,0,0,0,0,1.546ZM15.307,22.78v7.381h7.381V22.78ZM16.7,26.825l1.231,1.491a.771.771,0,0,0,1.087.1.864.864,0,0,0,.131-.138l2.118-2.669a.771.771,0,0,0-1.208-.959L18.508,26.6l-.627-.755a.77.77,0,1,0-1.185.982ZM15.307,56.734v7.384h7.381V56.734ZM16.7,60.779l1.231,1.491a.771.771,0,0,0,1.087.1.864.864,0,0,0,.131-.138l2.118-2.669a.771.771,0,1,0-1.208-.959l-1.546,1.947-.627-.755a.77.77,0,1,0-1.185.982ZM15.307,45.416V52.8h7.381V45.416ZM16.7,49.461l1.231,1.491a.771.771,0,0,0,1.087.1.863.863,0,0,0,.131-.138l2.118-2.669a.771.771,0,0,0-1.208-.959l-1.546,1.947-.627-.755a.77.77,0,1,0-1.185.982ZM15.307,34.1v7.384h7.381V34.1ZM16.7,38.143l1.231,1.491a.771.771,0,0,0,1.087.1.863.863,0,0,0,.131-.138l2.118-2.669a.771.771,0,0,0-1.208-.959l-1.546,1.947-.627-.755a.77.77,0,1,0-1.185.982Zm3.828-22.153H38.665V10.133H20.524Zm7.164-2.157a.772.772,0,1,1,0-1.543h3.819a.772.772,0,1,1,0,1.543ZM60.5,35.225A11.395,11.395,0,1,1,54.3,13.3a11.395,11.395,0,1,1,6.2,21.93Z" transform="translate(0 0)" fill-rule="evenodd"/>
  </g>
</svg>
