<svg xmlns="http://www.w3.org/2000/svg" width="100%" height="100%" viewBox="0 0 68 68">
  <g id="noun-total-quality-management-6149300" transform="translate(-3 -3)">
    <path id="Path_44880" data-name="Path 44880" d="M46.609,3c1.887,0,3.477,2.342,5.238,2.756s4.167-.993,5.754-.215,1.928,3.533,3.293,4.629,4.121.826,5.216,2.191.24,4,1.018,5.588,3.4,2.554,3.813,4.314-1.492,3.843-1.492,5.729,1.906,3.969,1.492,5.729-3.035,2.728-3.813,4.314.078,4.223-1.018,5.588-3.851,1.095-5.216,2.191-1.706,3.85-3.293,4.629-3.993-.628-5.754-.215-3.351,2.756-5.238,2.756-3.477-2.342-5.238-2.756-4.167.993-5.754.215-1.928-3.533-3.293-4.629-4.121-.826-5.216-2.191-.24-4-1.018-5.588-3.4-2.554-3.813-4.314,1.492-3.843,1.492-5.73-1.906-3.969-1.492-5.729,3.035-2.728,3.813-4.314-.078-4.223,1.018-5.588,3.851-1.095,5.216-2.191,1.706-3.85,3.293-4.629,3.993.628,5.754.215S44.721,3,46.609,3ZM12.673,51.443,16.787,48a1.056,1.056,0,0,1,1.355,1.62L12.673,54.2V51.443Zm0-34.4L16.787,13.6a1.056,1.056,0,0,1,1.355,1.62L12.673,19.8V17.046ZM3,15.559h9.08v1.982l-3.221,2.7L7.074,18.342a1.055,1.055,0,1,0-1.537,1.446l2.469,2.619a1.055,1.055,0,0,0,1.445.086h0l2.629-2.2v4.9H3V15.559Zm9.673,18.685L16.787,30.8a1.056,1.056,0,0,1,1.355,1.62L12.673,37V34.244ZM3,32.758h9.08V34.74l-3.221,2.7L7.074,35.541a1.055,1.055,0,1,0-1.537,1.446l2.469,2.619a1.055,1.055,0,0,0,1.445.086h0l2.629-2.2v4.9H3V32.758Zm0,17.2h9.08v1.982l-3.221,2.7L7.075,52.739a1.055,1.055,0,0,0-1.537,1.446L8.007,56.8a1.055,1.055,0,0,0,1.445.086h0l2.629-2.2v4.9H3V49.956Zm39.327,3.236a5.651,5.651,0,0,0-1.44-.9,7.409,7.409,0,0,0-2.047.26,6.321,6.321,0,0,1-4.156-.2A6.245,6.245,0,0,1,31.99,49.19L26.925,68.149,33.4,65.274,37.57,71l4.757-17.809ZM61.221,49.2a6.223,6.223,0,0,1-2.689,3.146,6.316,6.316,0,0,1-4.156.206,7.409,7.409,0,0,0-2.047-.26,5.7,5.7,0,0,0-1.446.906L55.647,71l4.17-5.727,6.474,2.875L61.221,49.2ZM48.135,21.852l-.082-2.332-2.785-.046-.181,2.377a6.278,6.278,0,0,0-1.741.722L41.638,20.98l-2,1.937,1.553,1.809a6.283,6.283,0,0,0-.722,1.741l-2.332.082-.046,2.785,2.377.181a6.278,6.278,0,0,0,.722,1.741l-1.592,1.708,1.937,2,1.809-1.553a6.284,6.284,0,0,0,1.741.722l.082,2.332,2.785.046.181-2.377a6.278,6.278,0,0,0,1.741-.722l1.708,1.592,2-1.937L52.027,31.26a6.283,6.283,0,0,0,.722-1.741l2.332-.082.046-2.785-2.377-.18a6.292,6.292,0,0,0-.722-1.742l1.592-1.708-1.937-2-1.809,1.553a6.292,6.292,0,0,0-1.74-.722ZM46.644,25.8a2.2,2.2,0,1,0,2.162,2.234A2.2,2.2,0,0,0,46.644,25.8ZM46.609,15.4A12.59,12.59,0,1,0,59.2,27.993,12.59,12.59,0,0,0,46.609,15.4Z" fill-rule="evenodd"/>
  </g>
</svg>
