<svg xmlns="http://www.w3.org/2000/svg" width="100%" height="100%" viewBox="0 0 65.614 50.443">
  <g id="noun-real-time-data-5777006" transform="translate(-5.091 -15.475)">
    <path id="Path_44879" data-name="Path 44879" d="M23.195,23.31c.005.607.989,1.262,2.577,1.826a23.377,23.377,0,0,0,7.562,1.11,23.377,23.377,0,0,0,7.559-1.11c1.587-.568,2.571-1.222,2.577-1.826s-.989-1.262-2.577-1.826a23.377,23.377,0,0,0-7.562-1.11,23.377,23.377,0,0,0-7.559,1.105c-1.587.568-2.571,1.222-2.577,1.826Zm2.88,5.3a1.058,1.058,0,1,1-.662,2.009c-.137-.046-.321-.111-.55-.2-.2-.073-.378-.146-.526-.208a1.056,1.056,0,1,1,.827-1.943c.161.069.306.127.435.175Q25.754,28.5,26.075,28.611Zm-2.881,1.42c0,.609.985,1.265,2.577,1.834a23.377,23.377,0,0,0,7.562,1.11,23.377,23.377,0,0,0,7.559-1.11c1.593-.57,2.577-1.226,2.577-1.834V26.277a10.533,10.533,0,0,1-1.866.863,25.512,25.512,0,0,1-8.273,1.234,25.512,25.512,0,0,1-8.273-1.234,10.558,10.558,0,0,1-1.866-.863v3.754Zm2.881,5.3a1.058,1.058,0,0,1-.662,2.01c-.138-.046-.322-.112-.55-.2q-.3-.114-.526-.208a1.056,1.056,0,1,1,.827-1.943q.241.1.435.175Q25.754,35.224,26.075,35.33Zm-2.881,1.422c0,.609.985,1.265,2.577,1.834a23.377,23.377,0,0,0,7.562,1.11,23.377,23.377,0,0,0,7.559-1.11c1.593-.569,2.577-1.225,2.577-1.834V32.994a10.431,10.431,0,0,1-1.866.863,25.51,25.51,0,0,1-8.273,1.235,25.51,25.51,0,0,1-8.273-1.235,10.455,10.455,0,0,1-1.866-.863v3.758Zm2.881,5.3a1.058,1.058,0,1,1-.662,2.009q-.207-.068-.55-.2-.3-.114-.526-.209a1.056,1.056,0,1,1,.827-1.942c.161.069.306.127.435.175C25.7,41.927,25.861,41.981,26.075,42.051Zm-2.881,1.421c0,.609.985,1.265,2.577,1.834a23.377,23.377,0,0,0,7.562,1.11,23.377,23.377,0,0,0,7.559-1.108c1.593-.569,2.577-1.226,2.577-1.834V39.716a10.431,10.431,0,0,1-1.866.863,25.51,25.51,0,0,1-8.273,1.235,25.51,25.51,0,0,1-8.273-1.235,10.506,10.506,0,0,1-1.866-.863v3.756Zm22.4,0c0,1.6-1.522,2.947-3.983,3.827a25.512,25.512,0,0,1-8.273,1.234A25.512,25.512,0,0,1,25.061,47.3c-2.093-.748-3.507-1.833-3.882-3.126a1.05,1.05,0,0,1-.1-.451V23.31h0V23.3h0v-.024c.021-1.587,1.538-2.922,3.982-3.792a25.51,25.51,0,0,1,8.273-1.235,25.51,25.51,0,0,1,8.273,1.235c2.455.877,3.976,2.219,3.983,3.816h0v.007h0V43.472Zm1.294,20.044h-27.1a1.2,1.2,0,0,0,0,2.4h27.1a1.2,1.2,0,0,0,0-2.4Zm-9.6-4.957h-7.9V61.4h7.9ZM8.489,55.514a1.059,1.059,0,1,1,0-2.119h.194a1.059,1.059,0,1,1,0,2.119Zm56.658-1.922a1.055,1.055,0,1,1-1.505,1.48L59.3,50.646a1.053,1.053,0,0,1-.3-.74h0V44.678a1.059,1.059,0,1,1,2.119,0v4.8l4.04,4.114Zm2.438-11.222a10.658,10.658,0,1,0,3.121,7.535,10.658,10.658,0,0,0-3.121-7.535ZM49.075,56.443a12.691,12.691,0,0,1-1.6-4.287H5.091v4.287Zm10.973-19.31A12.773,12.773,0,0,0,47.275,49.907v.132H5.091V15.475H61.577V37.223A12.893,12.893,0,0,0,60.048,37.133Z" fill-rule="evenodd"/>
  </g>
</svg>
