<svg xmlns="http://www.w3.org/2000/svg" width="100%" height="100%" viewBox="0 0 66.49 66.493">
  <g id="noun-sampling-7322811" transform="translate(-2.626 -2.621)">
    <path id="Path_44867" data-name="Path 44867" d="M30.455,2.621h28.5v9.385a1.108,1.108,0,0,0,1.107,1.107h9.049V54.208H30.455V46.086a17.467,17.467,0,0,0,0-34.5Zm7.108,63.648a1.107,1.107,0,1,1,0-2.215H63.478a1.107,1.107,0,1,1,0,2.215Zm-15.616,0a1.107,1.107,0,1,1,0-2.215H33.441a1.107,1.107,0,1,1,0,2.215Zm26.46-6.288a1.107,1.107,0,0,1,0-2.215H63.48a1.107,1.107,0,0,1,0,2.215Zm-11.331,0a1.107,1.107,0,0,1,0-2.215h7.59a1.107,1.107,0,1,1,0,2.215Zm-15.128,0a1.107,1.107,0,0,1,0-2.215H33.334a1.107,1.107,0,0,1,0,2.215ZM19.941,44.494l-1.8,3.114-1.916-1.1,1.8-3.114c.3.2.617.4.94.584s.647.356.976.521Zm-5.09,3.774L17.3,49.686a2.393,2.393,0,0,1,.874,3.259L9.527,67.922a2.393,2.393,0,0,1-3.259.874L3.818,67.382a2.393,2.393,0,0,1-.874-3.259l8.648-14.98a2.39,2.39,0,0,1,3.259-.874ZM35.327,15.63A15.254,15.254,0,1,0,40.91,36.468,15.253,15.253,0,0,0,35.327,15.63ZM19.187,23.716H36.212a1.107,1.107,0,0,0,0-2.215H19.187a1.107,1.107,0,1,0,0,2.215Zm0,6.233H36.212a1.107,1.107,0,1,0,0-2.215H19.187a1.107,1.107,0,1,0,0,2.215Zm0,6.236H36.212a1.107,1.107,0,1,0,0-2.215H19.187a1.107,1.107,0,0,0,0,2.215ZM61.178,3.769V10.9h6.869Z" fill-rule="evenodd"/>
  </g>
</svg>
