<svg xmlns="http://www.w3.org/2000/svg" width="100%" height="100%" viewBox="0 0 62.401 62">
  <g id="noun-survey-6946697" transform="translate(89.999 -47)">
    <g id="Group_47257" data-name="Group 47257" transform="translate(-95 42)">
      <path id="Path_44871" data-name="Path 44871" d="M40.739,59.31a1.332,1.332,0,0,1,.083.468,1.378,1.378,0,0,1-1.378,1.378H25.667a1.378,1.378,0,1,1,0-2.756H39.026L40.4,54.267H25.667a1.378,1.378,0,0,1,0-2.756H41.318l1.047-3.135L53.223,37.512v-17A5.513,5.513,0,0,0,47.712,15H44.957v2.067a3.445,3.445,0,0,1-3.444,3.444h-24.8a3.444,3.444,0,0,1-3.444-3.444V15H10.512A5.511,5.511,0,0,0,5,20.51V64.6a5.513,5.513,0,0,0,5.511,5.511h37.2A5.513,5.513,0,0,0,53.223,64.6V53.1l-3.065,3.065ZM25.667,23.955H46.334a1.378,1.378,0,0,1,0,2.756H25.667a1.378,1.378,0,0,1,0-2.756Zm0,6.889H39.445a1.378,1.378,0,1,1,0,2.756H25.667a1.378,1.378,0,1,1,0-2.756Zm0,6.889H46.334a1.378,1.378,0,0,1,0,2.756H25.667a1.378,1.378,0,1,1,0-2.756Zm0,6.889H39.445a1.378,1.378,0,1,1,0,2.756H25.667a1.378,1.378,0,1,1,0-2.756ZM19.984,58.4A2.582,2.582,0,0,1,17.4,60.984H13.267A2.584,2.584,0,0,1,10.684,58.4V54.267a2.584,2.584,0,0,1,2.583-2.583H17.4a2.582,2.582,0,0,1,2.583,2.583Zm0-13.778A2.582,2.582,0,0,1,17.4,47.206H13.267a2.584,2.584,0,0,1-2.583-2.583V40.489a2.584,2.584,0,0,1,2.583-2.583H17.4a2.582,2.582,0,0,1,2.583,2.583Zm0-13.778A2.582,2.582,0,0,1,17.4,33.428H13.267a2.584,2.584,0,0,1-2.583-2.583V28.778a1.206,1.206,0,0,1,2.411,0v2.067a.175.175,0,0,0,.172.172H17.4a.175.175,0,0,0,.172-.172V28.778a1.206,1.206,0,0,1,2.411,0Zm2.968-8.226-6.889,6.889a1.03,1.03,0,0,1-1.459,0L11.16,26.063A1.032,1.032,0,0,1,12.618,24.6l2.715,2.713,6.16-6.16v0a1.032,1.032,0,0,1,1.459,1.459Z" transform="translate(0 -3.111)"/>
      <path id="Path_44872" data-name="Path 44872" d="M16.922,71.75h4.133a.185.185,0,0,1,.172.172v4.133a.173.173,0,0,1-.172.172H16.922a.185.185,0,0,1-.172-.172V71.922A.173.173,0,0,1,16.922,71.75Z" transform="translate(-3.655 -20.766)"/>
      <path id="Path_44873" data-name="Path 44873" d="M16.922,51.75h4.133a.185.185,0,0,1,.172.172v4.133a.173.173,0,0,1-.172.172H16.922a.185.185,0,0,1-.172-.172V51.922A.173.173,0,0,1,16.922,51.75Z" transform="translate(-3.655 -14.544)"/>
      <path id="Path_44874" data-name="Path 44874" d="M21.378,15.333h24.8a1.378,1.378,0,0,0,1.378-1.378V8.444L40.667,5H26.889L20,8.444v5.511a1.378,1.378,0,0,0,1.378,1.378Z" transform="translate(-4.666 0)"/>
      <path id="Path_44875" data-name="Path 44875" d="M75.939,44.831,63.269,57.5l4.871,4.871L81.781,48.731,76.91,43.86Z" transform="translate(-18.127 -12.089)"/>
      <path id="Path_44876" data-name="Path 44876" d="M64.163,70.431l1.467-.49-4.871-4.871-.49,1.467L58.321,72.38Z" transform="translate(-16.588 -18.688)"/>
      <path id="Path_44877" data-name="Path 44877" d="M91.312,40.205l-.95-.95a2.751,2.751,0,0,0-3.9,0L84.52,41.2l4.871,4.871,1.943-1.943a2.758,2.758,0,0,0-.021-3.921Z" transform="translate(-24.739 -10.405)"/>
    </g>
  </g>
</svg>
