<svg xmlns="http://www.w3.org/2000/svg" width="100%" height="100%" viewBox="0 0 57.206 59.333">
  <g id="noun-transparency-6569948" transform="translate(-7.674 -6.1)">
    <path id="Path_44882" data-name="Path 44882" d="M31.331,22.351a.743.743,0,0,1,0-1.487H49.485a.743.743,0,1,1,0,1.487ZM23.007,51.368a.743.743,0,1,1,0-1.487h4.924a.743.743,0,1,1,0,1.487Zm0-7.254a.743.743,0,0,1,0-1.487h2.838a.743.743,0,1,1,0,1.487Zm0-7.254a.743.743,0,0,1,0-1.487h4.031a.743.743,0,0,1,0,1.487Zm0-7.254a.743.743,0,0,1,0-1.487H32.4a.743.743,0,0,1,0,1.487ZM14.134,7.154,8.728,12.56h5.406Zm0,50.327V21.26h0a.743.743,0,0,1,.218-.526L22.3,12.79a.743.743,0,0,1,.533-.224H48.915V6.1H15.624v7.207a.743.743,0,0,1-.743.743H7.674V57.482ZM22.086,15.1v5.406H16.679Zm32.958,38.9a1.59,1.59,0,0,0-1.124,2.708l8.251,8.251h0a1.6,1.6,0,0,0,2.248,0h0a1.6,1.6,0,0,0,0-2.248l-8.251-8.248a1.582,1.582,0,0,0-1.124-.463Zm-14-23.047a10.633,10.633,0,1,1-7.518,18.151h0a10.633,10.633,0,0,1,0-15.037h0A10.6,10.6,0,0,1,41.041,30.961Zm9.206,18.516,3.379,3.379a3.073,3.073,0,0,0-1.32,1.319L48.928,50.8q.351-.3.685-.635t.635-.685ZM32.47,33.022A12.123,12.123,0,0,1,51.154,48.281l4.251,4.25.009.01a3.069,3.069,0,0,1,1.454.574V14.055h-33.3v7.2a.743.743,0,0,1-.743.743H15.624V65.433H56.868v-3.66l-4-4a3.061,3.061,0,0,1-.879-1.805l-.009-.01-4.251-4.25a12.129,12.129,0,0,1-15.259-1.542h0a12.121,12.121,0,0,1,0-17.143Zm13.836,3.307a7.444,7.444,0,1,1-5.264-2.181A7.444,7.444,0,0,1,46.306,36.329Zm-5.264-3.671a8.935,8.935,0,1,1-6.319,2.618A8.935,8.935,0,0,1,41.041,32.658ZM23.007,58.622a.743.743,0,1,1,0-1.487H41.161a.743.743,0,1,1,0,1.487Z" transform="translate(0 0)" fill-rule="evenodd"/>
  </g>
</svg>
