<svg xmlns="http://www.w3.org/2000/svg" width="88" height="88" viewBox="0 0 88 88">
  <g id="noun-industries-998945" transform="translate(-2 -2)">
    <g id="Group_48308" data-name="Group 48308" transform="translate(2 2)">
      <path id="Path_45556" data-name="Path 45556" d="M45.5,9.333h3.667V2H29V5.667H45.5Z" transform="translate(20.5 -2)"/>
      <path id="Path_45557" data-name="Path 45557" d="M29.5,9.333h3.667V2H13V5.667H29.5Z" transform="translate(7.167 -2)"/>
      <path id="Path_45558" data-name="Path 45558" d="M86.336,81.335V46.5A1.839,1.839,0,0,0,84.5,44.664H79V24.5L77.39,11.059A3.662,3.662,0,0,0,73.778,8H65.895a3.666,3.666,0,0,0-3.63,3.153L60.688,24.277l-.016,20.387h-11V24.5L48.056,11.059A3.662,3.662,0,0,0,44.445,8H36.561a3.666,3.666,0,0,0-3.63,3.153L31.355,24.277l-.016,20.387H24V31.831a1.83,1.83,0,0,0-.88-1.558,1.808,1.808,0,0,0-1.778-.073L6.678,37.532A1.811,1.811,0,0,0,5.67,39.164V81.335H2V85H90V81.335ZM20.333,74H16.667V70.335h3.667Zm0-14.667H16.667V55.669h3.667ZM31.333,74H27.667V70.335h3.667Zm0-14.667H27.667V55.669h3.667ZM64.333,74H60.667V70.335h3.667Zm0-14.667H60.667V55.669h3.667Zm7.333-3.667h3.667v3.667H71.667ZM75.336,74H71.67V70.331h3.667Z" transform="translate(-2 2.998)"/>
    </g>
  </g>
</svg>
