<svg xmlns="http://www.w3.org/2000/svg" width="78.499" height="89.713" viewBox="0 0 78.499 89.713">
  <g id="noun-management-426838" transform="translate(-7.3 -1.2)">
    <path id="Path_45554" data-name="Path 45554" d="M46.458,90.913H7.3c.184-16.362-.46-25,10.111-28.863a85.647,85.647,0,0,0,15.35-7.445l7.445,23.439,1.011,3.217,3.309-9.468c-7.629-10.663.552-11.122,2.022-11.122h0c1.379,0,9.652.552,2.022,11.122l3.309,9.376,1.011-3.217,7.445-23.347a89.969,89.969,0,0,0,15.35,7.445C86.259,65.911,85.615,74.643,85.8,90.913H46.458Zm-26.932-60.3V25.742A1.745,1.745,0,0,1,21.272,24h4.136a21,21,0,0,1,3.217-7.813l-2.849-2.849a1.671,1.671,0,0,1,0-2.482l3.4-3.4a1.671,1.671,0,0,1,2.482,0L34.508,10.3a21,21,0,0,1,7.813-3.217V2.946A1.745,1.745,0,0,1,44.068,1.2h4.872a1.745,1.745,0,0,1,1.746,1.746V6.991A21,21,0,0,1,58.5,10.208l2.849-2.849a1.671,1.671,0,0,1,2.482,0l3.4,3.4a1.671,1.671,0,0,1,0,2.482l-2.849,2.849A21,21,0,0,1,67.6,23.9h4.044A1.745,1.745,0,0,1,73.39,25.65v4.872a1.745,1.745,0,0,1-1.746,1.746H67.691a21,21,0,0,1-3.217,7.813l2.849,2.849a1.671,1.671,0,0,1,0,2.482l-3.4,3.4a1.671,1.671,0,0,1-2.482,0l-2.849-2.849a21,21,0,0,1-7.813,3.217V53.41a1.745,1.745,0,0,1-1.746,1.746H44.16a1.745,1.745,0,0,1-1.746-1.746V49.366A21,21,0,0,1,34.6,46.148L31.75,49a1.671,1.671,0,0,1-2.482,0l-3.4-3.4a1.671,1.671,0,0,1,0-2.482l2.849-2.849A21,21,0,0,1,25.5,32.453H21.456A1.925,1.925,0,0,1,19.525,30.614Zm21.049,11.4a24,24,0,0,1-3.217-6.526H33.405A14.57,14.57,0,0,0,40.575,42.012Zm4.5-6.526h-4.5a19.169,19.169,0,0,0,4.5,7.078Zm0-11.582H39.747a21.034,21.034,0,0,0-.368,4.32,31.537,31.537,0,0,0,.368,4.32h5.331ZM59.786,35.486H55.741a22.73,22.73,0,0,1-3.217,6.526A15.166,15.166,0,0,0,59.786,35.486ZM60.981,23.9h-4.5a30.314,30.314,0,0,1,.368,4.32,21.62,21.62,0,0,1-.368,4.32h4.5a16.34,16.34,0,0,0,.643-4.32A13.288,13.288,0,0,0,60.981,23.9Zm-8.457-9.56a24,24,0,0,1,3.217,6.526h3.953A14.57,14.57,0,0,0,52.524,14.344Zm-4.5,6.526h4.5a19.169,19.169,0,0,0-4.5-7.078Zm0,11.582h5.331a21.034,21.034,0,0,0,.368-4.32,31.538,31.538,0,0,0-.368-4.32H48.02Zm0,10.2a19.653,19.653,0,0,0,4.5-7.17h-4.5ZM40.483,20.871h4.5V13.7A20.948,20.948,0,0,0,40.483,20.871Zm-7.17,0h4.044a22.73,22.73,0,0,1,3.217-6.526A15.166,15.166,0,0,0,33.313,20.871Zm-1.838,7.354a13.672,13.672,0,0,0,.643,4.32h4.5a30.315,30.315,0,0,1-.368-4.32,21.62,21.62,0,0,1,.368-4.32h-4.5A13.288,13.288,0,0,0,31.475,28.224Z"/>
  </g>
</svg>
