<svg xmlns="http://www.w3.org/2000/svg" width="105.001" height="105" viewBox="0 0 105.001 105">
  <path id="Path_45555" data-name="Path 45555" d="M56.331,7.218A15.006,15.006,0,0,0,44.587,31.564a12.848,12.848,0,0,1,23.487,0A15.006,15.006,0,0,0,56.331,7.218ZM22.222,70.852a6.493,6.493,0,1,1-6.493,6.493,6.494,6.494,0,0,1,6.493-6.493Zm0,13.889a12.846,12.846,0,0,1,11.743,7.637,15,15,0,1,0-23.487,0,12.849,12.849,0,0,1,11.743-7.637Zm34.108-74.7a6.493,6.493,0,1,1-6.493,6.493,6.494,6.494,0,0,1,6.493-6.493ZM90.439,70.852a6.493,6.493,0,1,1-6.493,6.493,6.494,6.494,0,0,1,6.493-6.493Zm0,13.889a12.846,12.846,0,0,1,11.743,7.637,15,15,0,1,0-23.487,0,12.851,12.851,0,0,1,11.743-7.637Zm-68.216-47.7A6.668,6.668,0,1,1,15.554,43.7a6.669,6.669,0,0,1,6.668-6.668Zm68.216,0A6.668,6.668,0,1,1,83.771,43.7a6.669,6.669,0,0,1,6.668-6.668ZM56.331,95.494a6.668,6.668,0,1,1-6.668,6.668,6.669,6.669,0,0,1,6.668-6.668ZM70.786,73.64,58.017,66.269v25.98a10.127,10.127,0,0,0-3.373,0V66.265l-12.77,7.373a21.682,21.682,0,0,0-1.69-2.919l12.772-7.373L29.971,50.112a10.054,10.054,0,0,0,1.685-2.922L54.644,60.427V43.937c.556.043,1.12.064,1.687.064s1.13-.021,1.687-.064v16.49L81,47.19a10.027,10.027,0,0,0,1.685,2.922L59.71,63.343l12.769,7.373a21.878,21.878,0,0,0-1.693,2.924ZM56.331,3.83A18.392,18.392,0,1,1,37.938,22.222,18.393,18.393,0,0,1,56.331,3.83ZM90.439,64.644a18.392,18.392,0,1,0,18.392,18.392A18.393,18.393,0,0,0,90.439,64.644Zm-68.216,0A18.392,18.392,0,1,0,40.615,83.036,18.393,18.393,0,0,0,22.222,64.644Z" transform="translate(-3.83 -3.83)" fill-rule="evenodd"/>
</svg>
