<svg xmlns="http://www.w3.org/2000/svg" width="52.824" height="51.001" viewBox="0 0 52.824 51.001">
  <g id="noun-health-2797834" transform="translate(-6.736 -8.144)">
    <g id="Group_47206" data-name="Group 47206" transform="translate(6.736 8.144)">
      <path id="Path_44845" data-name="Path 44845" d="M46.267,8.144H33.553a7.619,7.619,0,0,0-7.609,7.61h4.477a3.136,3.136,0,0,1,3.133-3.133H46.267A3.136,3.136,0,0,1,49.4,15.754h4.477A7.62,7.62,0,0,0,46.267,8.144Z" transform="translate(-13.499 -8.144)"/>
      <path id="Path_44846" data-name="Path 44846" d="M57.29,21.915H9.006a2.269,2.269,0,0,0-2.27,2.27V61.723a2.269,2.269,0,0,0,2.27,2.27H57.29a2.27,2.27,0,0,0,2.27-2.27V24.185A2.271,2.271,0,0,0,57.29,21.915ZM46.8,44.059a3.234,3.234,0,0,1-3.236,3.234H37.936v5.629A3.235,3.235,0,0,1,34.7,56.157H32.275a3.235,3.235,0,0,1-3.236-3.234V47.294H23.411a3.233,3.233,0,0,1-3.234-3.234V41.633A3.234,3.234,0,0,1,23.411,38.4H29.04V32.77a3.234,3.234,0,0,1,3.236-3.235H34.7a3.235,3.235,0,0,1,3.236,3.235V38.4h5.627A3.236,3.236,0,0,1,46.8,41.633Z" transform="translate(-6.736 -12.992)"/>
    </g>
  </g>
</svg>
