<svg xmlns="http://www.w3.org/2000/svg" width="62.5" height="50.434" viewBox="0 0 62.5 50.434">
  <g id="noun-development-5823725" transform="translate(-2.5 -11.188)">
    <path id="Path_44847" data-name="Path 44847" d="M65,47.03H2.5v3.322a1.662,1.662,0,0,0,1.655,1.655h59.19A1.662,1.662,0,0,0,65,50.351ZM2.5,45.493H65V12.843a1.662,1.662,0,0,0-1.655-1.655H4.155A1.662,1.662,0,0,0,2.5,12.843V45.491ZM18.457,13.882l.249,1.7c.144.051.288.106.429.165s.282.122.422.19l1.378-1.027a1.458,1.458,0,0,1,.91-.292,1.332,1.332,0,0,1,.914.388l1.673,1.673a1.332,1.332,0,0,1,.388.914,1.458,1.458,0,0,1-.292.91L23.5,19.877q.1.208.19.422c.059.142.115.285.165.429l1.7.249a1.462,1.462,0,0,1,.853.439,1.333,1.333,0,0,1,.37.92V24.7a1.331,1.331,0,0,1-.37.92,1.465,1.465,0,0,1-.814.433l-.04.007-1.7.248q-.077.217-.165.43t-.19.422l1.027,1.378a1.458,1.458,0,0,1,.292.91,1.333,1.333,0,0,1-.388.915l-1.673,1.673a1.331,1.331,0,0,1-.914.387,1.458,1.458,0,0,1-.91-.292l-1.378-1.025q-.208.1-.422.19c-.139.059-.285.114-.429.165l-.249,1.7a1.462,1.462,0,0,1-.439.854,1.333,1.333,0,0,1-.92.37H14.733a1.333,1.333,0,0,1-.92-.37,1.467,1.467,0,0,1-.44-.854l-.248-1.7c-.144-.051-.288-.106-.43-.165s-.282-.122-.422-.19L10.9,32.132a1.452,1.452,0,0,1-.91.292,1.333,1.333,0,0,1-.915-.388L7.4,30.363a1.333,1.333,0,0,1-.388-.915,1.458,1.458,0,0,1,.292-.91L8.329,27.16q-.1-.208-.19-.422t-.165-.429l-1.7-.248h0a1.466,1.466,0,0,1-.854-.439,1.331,1.331,0,0,1-.369-.92V22.337a1.332,1.332,0,0,1,.369-.92,1.462,1.462,0,0,1,.854-.439l1.7-.249c.051-.144.106-.288.165-.43s.122-.281.189-.422L7.3,18.5a1.458,1.458,0,0,1-.292-.91,1.332,1.332,0,0,1,.388-.914L9.071,15a1.333,1.333,0,0,1,.915-.388,1.458,1.458,0,0,1,.91.292l1.378,1.027q.208-.1.422-.19t.429-.165l.248-1.7a1.467,1.467,0,0,1,.44-.853,1.331,1.331,0,0,1,.92-.37H17.1a1.333,1.333,0,0,1,.92.37,1.463,1.463,0,0,1,.439.853Zm-1.2,2.37a.77.77,0,0,0,.556.652,6.61,6.61,0,0,1,.742.258,6.79,6.79,0,0,1,.694.333.764.764,0,0,0,.847-.044l1.689-1.258,1.468,1.468-1.256,1.685a.767.767,0,0,0-.057.833,6.875,6.875,0,0,1,.343.711,6.659,6.659,0,0,1,.258.742.769.769,0,0,0,.625.549l2.083.3v2.073l-2.057.3a.769.769,0,0,0-.652.556,6.817,6.817,0,0,1-.59,1.433.764.764,0,0,0,.044.847l1.258,1.69-1.472,1.465L20.09,29.593a.764.764,0,0,0-.833-.057,7.022,7.022,0,0,1-.711.343,6.9,6.9,0,0,1-.742.258.768.768,0,0,0-.549.625l-.3,2.083H14.878l-.3-2.057a.764.764,0,0,0-.556-.651,6.917,6.917,0,0,1-1.433-.59.764.764,0,0,0-.847.043l-1.687,1.26L8.587,29.382,9.842,27.7a.764.764,0,0,0,.057-.833,6.856,6.856,0,0,1-.6-1.452.768.768,0,0,0-.625-.549l-2.083-.3V22.484l2.057-.3a.769.769,0,0,0,.651-.556,6.818,6.818,0,0,1,.258-.742,6.924,6.924,0,0,1,.332-.694.764.764,0,0,0-.043-.847L8.587,17.655l1.467-1.468,1.685,1.26a.764.764,0,0,0,.833.057,6.743,6.743,0,0,1,.711-.343,6.647,6.647,0,0,1,.741-.258.768.768,0,0,0,.549-.625l.3-2.083h2.072l.3,2.057Zm1.54,4.389a4.07,4.07,0,1,1-2.877-1.192A4.07,4.07,0,0,1,18.792,20.641Zm-2.877-2.728a5.606,5.606,0,1,1-3.964,1.642A5.606,5.606,0,0,1,15.915,17.912Zm8.617,20.506a1.674,1.674,0,1,1,0,3.347H8.264a1.674,1.674,0,1,1,0-3.347ZM8.264,36.878H24.533a3.21,3.21,0,1,1,0,6.421H8.264a3.21,3.21,0,1,1,0-6.421Zm3.628,3.978a.769.769,0,0,1,0-1.537H20.9a.769.769,0,0,1,0,1.537ZM35.508,19.868H59.119A3.338,3.338,0,0,1,62.453,23.2V39.969A3.338,3.338,0,0,1,59.119,43.3H35.508a3.338,3.338,0,0,1-3.333-3.333V23.2a3.338,3.338,0,0,1,3.333-3.333Zm25.4,6.3v13.8a1.8,1.8,0,0,1-1.794,1.794H35.5a1.8,1.8,0,0,1-1.794-1.794V26.17Zm-27.2-1.537V23.2A1.8,1.8,0,0,1,35.508,21.4H59.119A1.8,1.8,0,0,1,60.914,23.2v1.434Zm13.879,4.26a.768.768,0,0,1,1.483.4l-2.047,7.639a.767.767,0,1,1-1.483-.4l2.046-7.639Zm2.878.984a.769.769,0,0,1,1.087-1.087l3.58,3.577a.768.768,0,0,1,0,1.086l-3.58,3.576a.768.768,0,0,1-1.087-1.086l3.034-3.034Zm-7.406-1.087a.768.768,0,1,1,1.086,1.087L41.118,32.91l3.034,3.034a.768.768,0,0,1-1.086,1.085l-3.578-3.576a.768.768,0,0,1,0-1.086Zm10.861-5a.769.769,0,1,1,0-1.537H58.51a.769.769,0,1,1,0,1.537ZM36.111,22.25a.769.769,0,1,1,0,1.537h0a.769.769,0,0,1,0-1.537Zm2.669,0a.769.769,0,1,1,0,1.537h0a.769.769,0,0,1,0-1.537Zm2.669,0a.769.769,0,0,1,0,1.537h0a.769.769,0,0,1,0-1.537ZM40.43,60.085V53.542H27.07v6.543ZM17.588,21.495a.768.768,0,0,1,1.087,1.086L15.71,25.546a.769.769,0,0,1-1.087,0l-1.468-1.468a.768.768,0,0,1,1.086-1.087l.926.925,2.421-2.421ZM40.43,60.085h6.522a.769.769,0,1,1,0,1.537h-26.4a.769.769,0,1,1,0-1.537Z" fill-rule="evenodd"/>
  </g>
</svg>
