<svg xmlns="http://www.w3.org/2000/svg" width="45.467" height="57" viewBox="0 0 45.467 57">
  <g id="noun-security-7326557" transform="translate(-15.619 -7.177)">
    <path id="Path_44844" data-name="Path 44844" d="M57.329,14.713a31.017,31.017,0,0,1-7.92-1.821,30.977,30.977,0,0,1-8.5-4.815,4.084,4.084,0,0,0-5.117,0,31.06,31.06,0,0,1-8.5,4.815,31.012,31.012,0,0,1-7.92,1.821,4.124,4.124,0,0,0-3.756,4.112v20.43A22.61,22.61,0,0,0,28.186,59.587L36.5,63.745a4.132,4.132,0,0,0,1.847.431,4.178,4.178,0,0,0,1.849-.431l8.317-4.159A22.615,22.615,0,0,0,61.084,39.255l0-20.43a4.122,4.122,0,0,0-3.756-4.112ZM48.092,31.684,37.759,42.2a2.064,2.064,0,0,1-1.472.617h-.005a2.053,2.053,0,0,1-1.475-.625l-6.2-6.385a2.066,2.066,0,1,1,2.965-2.878L36.3,37.8l8.85-9.007a2.066,2.066,0,0,1,2.947,2.9Z" transform="translate(0)"/>
  </g>
</svg>
