<svg xmlns="http://www.w3.org/2000/svg" width="136" height="132.638" viewBox="0 0 136 132.638">
  <g id="disagree" transform="translate(-34.486 -119.168)">
    <g id="Group_285" data-name="Group 285" transform="translate(38.467 123.026)">
      <path id="Path_1081" data-name="Path 1081" d="M114.187,193.141c0-54.79.015-51.951,3.968-53.433,25.62-9.269,58.732-6.259,65.7-2.287,5.209,2.293,9.444,7.2,5.339,10.759-1.741,1.5,4.226,1.047-37.255,1.047-3.332,0-3.333,5.038,0,5.038,49.046,0,32.482-.556,38.736,1.441a8.287,8.287,0,0,1,4.5,4.805c1.505,3.655-1.142,4.728-2.065,6.266-32.818,0-34.656-1-34.656,2.519,0,3.457.595,2.518,35.059,2.518,1.205,1.486,2.235,1.091,4.311,2.921,3.376,2.991,2.67,7.042.584,9.007-1.278,1.179,3.448.826-32.077.826-3.332,0-3.333,5.037,0,5.037,42.414,0,28.7-.274,33.558,1,3.2.86,5.714,4.357,4.9,7.737-1.016,4.2-.491,3.2-41.053,3.2-5.918,0-12.063,4.251-10.6,10,.013.053,1.991,9.663,2.609,15.958.533,5.452.436,6.605-.7,10.8-.748,2.678-4.281,14.242-6.9,15.182-2.884,1.07-7.112.64-7.112-2.75.03-5.168-.765-20.209-4.664-27.634C120.723,193.273,118.26,196.008,114.187,193.141Z" transform="translate(-77.953 -130.174)" fill="#00b9e4"/>
      <g id="Group_284" data-name="Group 284" transform="translate(0 0)">
        <path id="Path_1082" data-name="Path 1082" d="M44.462,192.889V132.069a2.913,2.913,0,0,1,2.912-2.911H72.832a2.912,2.912,0,0,1,2.911,2.911v60.819a2.921,2.921,0,0,1-2.911,2.921H47.374A2.922,2.922,0,0,1,44.462,192.889Z" transform="translate(-43.409 -127.975)" fill="#00b9e4"/>
        <path id="Path_1083" data-name="Path 1083" d="M42.375,196.618H76.581v-69.8H63.713v34.527a18.336,18.336,0,0,1-18.336,18.336h-3Z" transform="translate(-42.375 -126.814)" fill="#35caed"/>
        <g id="Group_283" data-name="Group 283" transform="translate(76.312 5.037)">
          <path id="Path_1084" data-name="Path 1084" d="M193.617,151.934h37.805V139.783L221.97,136.8v1.015a7.54,7.54,0,0,1-7.54,7.54h-14.5a6.317,6.317,0,0,0-6.317,6.317Z" transform="translate(-193.617 -136.797)" fill="#35caed"/>
          <path id="Path_1085" data-name="Path 1085" d="M232.078,171.583v2.063a7.54,7.54,0,0,1-7.449,7.539l-13.15.157a6.317,6.317,0,0,0-6.241,6.317v.019h36.668v-6.261h-.375v-6.849Z" transform="translate(-199.374 -154.031)" fill="#35caed"/>
          <path id="Path_1086" data-name="Path 1086" d="M240.063,216.106l-9.308.131a6.317,6.317,0,0,0-6.229,6.317v.031H256.5v-4.122h.446v-7.939l-9.452-2.986v1.029A7.539,7.539,0,0,1,240.063,216.106Z" transform="translate(-208.93 -171.845)" fill="#35caed"/>
          <path id="Path_1087" data-name="Path 1087" d="M234.784,250.918l-21.95.2a6.317,6.317,0,0,0-6.26,6.317h45.133V246.364l-9.452-2.985h0A7.539,7.539,0,0,1,234.784,250.918Z" transform="translate(-200.036 -189.601)" fill="#35caed"/>
        </g>
        <path id="Path_1088" data-name="Path 1088" d="M118.225,195.964V168.423a36.451,36.451,0,0,1,26.858-35.387,23.9,23.9,0,0,1,5.212-.846s-29.835,2.794-37.269,7.288c0,0-.413,55.684,0,55.271S118.225,195.964,118.225,195.964Z" transform="translate(-77.287 -129.477)" fill="#008bad"/>
      </g>
    </g>
    <g id="Group_288" data-name="Group 288" transform="translate(34.486 119.168)">
      <g id="Group_287" data-name="Group 287">
        <g id="Group_286" data-name="Group 286">
          <path id="Path_1089" data-name="Path 1089" d="M42.434,195.895c24.376,0,30.888,1.918,33.088-5.771,3.609,2.539,14.176,22.949,14.943,24.429,1.325,2.559,6.131,9.611,6.036,29.005a8.2,8.2,0,0,0,8.429,8.247c6.587,0,10.377-1.076,15.471-19.3,1.387-5,1.431-6.878.869-12.644-2.43-24.272-13.335-20.559,36.807-20.372,5.875.029,10.612-.865,12.119-7.11a11.717,11.717,0,0,0-6.843-13.177c4.441-5.549,2.695-13.714-4.826-17.513,5.739-5.895.988-14.874-4.8-17.534,4.826-4.955,3.409-13.783-7.366-18.5-6.174-2.64-40.545-8.316-69.575,2.23-1.265.46-.954,1.259-.954-2.328a6.394,6.394,0,0,0-6.387-6.387H40.873a6.394,6.394,0,0,0-6.387,6.387v62.383A7.961,7.961,0,0,0,42.434,195.895Zm33.392-5.557,0,0C75.858,190.376,75.88,190.394,75.827,190.338ZM77.6,133.111c13.544-7.521,54.683-7.893,66.764-2.834,5.177,2.267,9.464,7.172,5.338,10.758-1.724,1.494,4.183,1.046-37.255,1.046-3.33,0-3.335,5.037,0,5.037,48.941,0,32.5-.587,38.735,1.444a8.258,8.258,0,0,1,4.506,4.8c1.519,3.705-1.166,4.743-2.068,6.272-32.808,0-34.651-1-34.651,2.519,0,3.457.589,2.519,35.054,2.519,1.216,1.471,2.318,1.138,4.31,2.913,3.39,3,2.667,7.067.59,9.007-1.28,1.181,3.5.826-32.076.826-3.33,0-3.335,5.037,0,5.037,42.438,0,28.668-.319,33.558,1,3.187.858,5.711,4.348,4.893,7.737-1.066,4.415-1.279,3.2-41.051,3.2-5.811,0-12.111,3.953-10.5,10.684,2.153,10.563,2.47,14.355,2.789,19.046.37,5.755-5.205,21.239-7.886,22.217-2.811,1.03-7.143.675-7.113-2.748.026-5.168-.764-20.208-4.667-27.638-8.273-15.81-13.418-26.428-21.037-31.771C75.835,128.343,75.078,134.513,77.6,133.111Zm-6.8-5.994c0,64.42,1.212,63.741-2.911,63.741-26.049,0-28.363,1.037-28.363-2.92,0-63.656-1.226-63.733,2.911-63.733C68.429,124.205,70.8,123.143,70.8,127.116Z" transform="translate(-34.486 -119.168)" fill="#005c73"/>
        </g>
      </g>
    </g>
  </g>
</svg>
