<svg xmlns="http://www.w3.org/2000/svg" width="100%" height="100%" viewBox="0 0 139.902 123.033">
  <g id="noun-execute-5881375" transform="translate(-10 -13.029)">
    <path id="Path_50553" data-name="Path 50553" d="M38.432,70.623l1.859-6.694A26.705,26.705,0,0,0,45,61.97l6.038,3.416a32.7,32.7,0,0,0,8.317-8.316l-3.414-6.034A26.655,26.655,0,0,0,57.9,46.325L64.6,44.464a33.064,33.064,0,0,0,0-11.752L57.9,30.852a26.7,26.7,0,0,0-1.959-4.712L59.362,20.1a32.737,32.737,0,0,0-8.317-8.317l-6.038,3.425a25.5,25.5,0,0,0-4.712-1.959L38.432,6.562a32.631,32.631,0,0,0-11.752,0l-1.862,6.692a25.444,25.444,0,0,0-4.71,1.959l-6.04-3.425A32.737,32.737,0,0,0,5.751,20.1l3.429,6.03a25.593,25.593,0,0,0-1.959,4.712L.534,32.71a32.554,32.554,0,0,0,0,11.752l6.69,1.861a25.553,25.553,0,0,0,1.959,4.712l-3.428,6.04a32.7,32.7,0,0,0,8.317,8.316l6.04-3.416a26.646,26.646,0,0,0,4.71,1.959l1.862,6.691a33.057,33.057,0,0,0,11.752,0ZM19.154,51.992a18.957,18.957,0,1,1,13.405,5.553,18.957,18.957,0,0,1-13.405-5.553Zm24.063-2.741a15.125,15.125,0,1,0,.013,0Zm-15-3.99L23.544,40.59a1.938,1.938,0,0,1,2.741-2.741l3.306,3.306,9.242-9.243a1.939,1.939,0,1,1,2.742,2.741L30.956,45.262a1.928,1.928,0,0,1-2.741,0Zm40.742-22.31a2.305,2.305,0,0,1,.28-.28L84.828,9.711A1.932,1.932,0,0,1,88,11.2h0v6.22h9.07q.672,0,1.391.048c6.455.47,10.648,4.091,13.225,9.211a38.753,38.753,0,0,1,3.358,16.994c0,1.484-.055,2.984-.164,4.477a1.939,1.939,0,0,1-3.723.613A79.874,79.874,0,0,0,104.7,37.327c-2.5-3.526-5.238-6.368-7.633-6.368H88v6.228a1.938,1.938,0,0,1-3.314,1.367L69.209,25.669a1.922,1.922,0,0,1-.252-2.717Zm6.575,81.342a1.875,1.875,0,0,1-.28.28L59.66,117.534a1.929,1.929,0,0,1-2.717-.243,1.9,1.9,0,0,1-.448-1.241h-.008v-6.219H47.409c-.448,0-.911-.017-1.389-.048-6.448-.471-10.649-4.084-13.225-9.213a38.821,38.821,0,0,1-3.345-16.994c0-1.483.055-2.984.165-4.477a1.936,1.936,0,0,1,3.714-.613A79.574,79.574,0,0,0,39.784,89.93c2.489,3.519,5.238,6.368,7.625,6.368h9.078V90.069a1.935,1.935,0,0,1,1.94-1.94,1.905,1.905,0,0,1,1.365.56L75.28,101.568a1.931,1.931,0,0,1,.25,2.725Zm12.134,21.384h44.17v1.445a1.943,1.943,0,0,1-1.939,1.939H79.59a1.943,1.943,0,0,1-1.945-1.939V62.947a1.938,1.938,0,0,1,1.939-1.939h2.258v58.861a5.816,5.816,0,0,0,5.821,5.809Zm39.458-59.149a.979.979,0,0,1-.29-.7V56.422l11.388,10.4h-10.4a.979.979,0,0,1-.7-.3Zm.7,4.17a4.864,4.864,0,0,1-4.869-4.869V53.751H87.664a1.935,1.935,0,0,0-1.94,1.94v64.177a1.939,1.939,0,0,0,1.94,1.94h50.3a1.939,1.939,0,0,0,1.939-1.94V70.7ZM96.8,63.843h20.08a1.94,1.94,0,0,1,0,3.879H96.8a1.94,1.94,0,1,1,0-3.879Zm32.037,47.865H96.8a1.94,1.94,0,1,1,0-3.879h32.038a1.94,1.94,0,1,1,0,3.879Zm0-10.993H96.8a1.94,1.94,0,1,1,0-3.879h32.038a1.94,1.94,0,1,1,0,3.879Zm0-10.995H96.8a1.94,1.94,0,1,1,0-3.879h32.037a1.94,1.94,0,1,1,0,3.879Zm0-11H96.8a1.936,1.936,0,1,1,0-3.872h32.037a1.936,1.936,0,1,1,0,3.872Z" transform="translate(10 7)"/>
  </g>
</svg>
