<svg xmlns="http://www.w3.org/2000/svg" width="100%" height="100%" viewBox="0 0 136.182 142.413">
  <g id="noun-cloud-security-2017311" transform="translate(-2.5 -1)">
    <g id="Group_57699" data-name="Group 57699" transform="translate(2.5 1)">
      <g id="Group_57696" data-name="Group 57696" transform="translate(0 36.809)">
        <path id="Path_50554" data-name="Path 50554" d="M121.771,50.159a31.008,31.008,0,0,0-8.233-22.475C98.629,11.218,71.7,15.446,62.358,35.7A26.911,26.911,0,0,0,22.527,49.269,23.5,23.5,0,0,0,2.5,72.634a23.837,23.837,0,0,0,23.81,23.81h22.92V88.655a6.134,6.134,0,0,1,5.786-6.231V78.2A20.184,20.184,0,0,1,75.042,57.725h.89A20.184,20.184,0,0,1,95.959,78.2v4.228a6.438,6.438,0,0,1,5.563,6.231v7.788h13.351a23.837,23.837,0,0,0,23.81-23.81A24.647,24.647,0,0,0,121.771,50.159ZM26.31,83.76a10.921,10.921,0,0,1-10.9-10.9,10.732,10.732,0,0,1,9.791-10.9,2.046,2.046,0,0,1,2.225,2,1.924,1.924,0,0,1-2,2.225,6.425,6.425,0,0,0-6.008,6.676,6.7,6.7,0,0,0,6.676,6.676,2.23,2.23,0,0,1,2.225,2.225A1.994,1.994,0,0,1,26.31,83.76Zm30.708-33.6a2.11,2.11,0,0,1-2.893.445,9.931,9.931,0,0,0-15.576,4.9,2.111,2.111,0,0,1-4.005-1.335,14.1,14.1,0,0,1,22.252-7.121A2.69,2.69,0,0,1,57.018,50.159Zm51.847.445a2.151,2.151,0,0,1-2,2h-.223a2.366,2.366,0,0,1-2-2.225c1.78-16.912-22.03-21.807-27.593-6.231a2.111,2.111,0,1,1-4.005-1.335C80.382,22.344,111.09,29.02,108.865,50.6Zm5.563,33.156a2.225,2.225,0,0,1,0-4.45,6.7,6.7,0,0,0,6.676-6.676,7.147,7.147,0,0,0-5.118-6.676,2.052,2.052,0,1,1,.89-4.005,10.967,10.967,0,0,1,8.456,10.681A10.7,10.7,0,0,1,114.428,83.76Z" transform="translate(-2.5 -17.542)"/>
      </g>
      <g id="Group_57697" data-name="Group 57697" transform="translate(4.228)">
        <path id="Path_50555" data-name="Path 50555" d="M6.625,54.182H25.984A31.354,31.354,0,0,1,58.25,50.177,36.294,36.294,0,0,1,66.038,41.5V32.6a2.23,2.23,0,0,0-2.225-2.225H59.14V24.365h4.9a2.23,2.23,0,0,0,2.225-2.225V3.225A2.23,2.23,0,0,0,64.035,1H6.625A2.23,2.23,0,0,0,4.4,3.225V22.584A2.23,2.23,0,0,0,6.625,24.81h4.9v6.008h-4.9A2.23,2.23,0,0,0,4.4,33.043V52.18A2.366,2.366,0,0,0,6.625,54.182Zm31.82-10.236a2.2,2.2,0,1,1,0-3.115A2.151,2.151,0,0,1,38.446,43.946Zm7.343,0a2.2,2.2,0,1,1,0-3.115A2.151,2.151,0,0,1,45.789,43.946Zm7.343,0a2.2,2.2,0,1,1,0-3.115A2.673,2.673,0,0,1,53.132,43.946ZM54.69,30.6H15.749V24.587H54.69ZM50.017,11.236a2.2,2.2,0,0,1,3.115,3.115,2.151,2.151,0,0,1-3.115,0A2.369,2.369,0,0,1,50.017,11.236Zm-7.343,0a2.2,2.2,0,1,1,3.115,3.115,2.151,2.151,0,0,1-3.115,0A2.673,2.673,0,0,1,42.674,11.236Zm-7.121,0a2.2,2.2,0,0,1,3.115,3.115,2.2,2.2,0,1,1-3.115-3.115Zm-20.694-.445H24.2a2.225,2.225,0,0,1,0,4.45H14.858a2.23,2.23,0,0,1-2.225-2.225A2.1,2.1,0,0,1,14.858,10.791Zm0,29.6H24.2a2.225,2.225,0,0,1,0,4.45H14.858a2.23,2.23,0,0,1-2.225-2.225A2.1,2.1,0,0,1,14.858,40.386Z" transform="translate(-4.4 -1)"/>
      </g>
      <g id="Group_57698" data-name="Group 57698" transform="translate(50.735 81.22)">
        <path id="Path_50556" data-name="Path 50556" d="M66.911,62.2h-3.56V53.744A16.1,16.1,0,0,0,47.552,37.5c-.223,0-16.467,0-16.467,16.244V62.2h-3.56A2.23,2.23,0,0,0,25.3,64.425V96.468a2.23,2.23,0,0,0,2.225,2.225H66.911a2.23,2.23,0,0,0,2.225-2.225V64.2A2.2,2.2,0,0,0,66.911,62.2Zm-7.788,0H35.313V53.744c0-12.239,12.016-12.016,12.239-12.016A11.735,11.735,0,0,1,59.123,53.744Z" transform="translate(-25.3 -37.5)"/>
      </g>
    </g>
  </g>
</svg>
