<svg xmlns="http://www.w3.org/2000/svg" width="100%" height="100%" viewBox="0 0 124.332 125.778">
  <g id="noun-survey-7117692" transform="translate(-6.023 -5.512)">
    <path id="Path_50551" data-name="Path 50551" d="M108.438,82.443a16.225,16.225,0,1,1-22.948,0,16.246,16.246,0,0,1,22.948,0Zm5.091-5.086a23.42,23.42,0,1,1-33.126,0A23.426,23.426,0,0,1,113.529,77.357ZM110.05,80.83a18.5,18.5,0,1,0,0,26.163,18.53,18.53,0,0,0,0-26.163Zm-3.782,37.04.387-.149v13.567H6.023V5.512H106.654V70.106a25.881,25.881,0,0,0-16.229-1.044l-38.807.011a1.138,1.138,0,0,0,0,2.275H84.6a27.247,27.247,0,0,0-5.815,4.4,25.328,25.328,0,0,0-3.048,3.689l-24.115-.006a1.138,1.138,0,0,0,0,2.275H74.34a25.42,25.42,0,0,0-3.02,13.711l.017.3H51.623a1.138,1.138,0,0,0,0,2.275H71.6a25.67,25.67,0,0,0,2.733,8.09H51.624a1.138,1.138,0,0,0,0,2.275H75.716a25.776,25.776,0,0,0,7.979,7.565l.872.53H51.624a1.138,1.138,0,0,0,0,2.275l38.7.011a25.836,25.836,0,0,0,15.947-.867ZM50.48,22.829a1.141,1.141,0,0,0,1.143,1.138H72.181a1.138,1.138,0,0,0,0-2.275H51.623a1.141,1.141,0,0,0-1.143,1.138Zm0,10.364a1.141,1.141,0,0,0,1.143,1.138h44.49a1.138,1.138,0,0,0,0-2.275H51.623a1.141,1.141,0,0,0-1.143,1.138Zm0,10.364A1.141,1.141,0,0,0,51.623,44.7h44.49a1.138,1.138,0,0,0,0-2.275H51.623a1.141,1.141,0,0,0-1.143,1.138Zm-8.509,53.3a1.141,1.141,0,0,0-1.143-1.137H20.11a1.141,1.141,0,0,0-1.143,1.137v20.729a1.141,1.141,0,0,0,1.143,1.137H40.828a1.141,1.141,0,0,0,1.143-1.137Zm0-37.014A1.141,1.141,0,0,0,40.828,58.7H20.11a1.141,1.141,0,0,0-1.143,1.138V80.57a1.141,1.141,0,0,0,1.143,1.138H40.828a1.141,1.141,0,0,0,1.143-1.138Zm0-37.014a1.141,1.141,0,0,0-1.143-1.138H20.11a1.141,1.141,0,0,0-1.143,1.138V43.557a1.141,1.141,0,0,0,1.143,1.138H40.828a1.141,1.141,0,0,0,1.143-1.138ZM50.48,59.841a1.141,1.141,0,0,0,1.143,1.138H72.181a1.138,1.138,0,0,0,0-2.275H51.623a1.141,1.141,0,0,0-1.143,1.138ZM21.241,23.966H39.706V42.415l-18.464.006ZM25.493,34l2.789,2.783a1.14,1.14,0,0,0,1.607-.006l5.555-5.561A1.138,1.138,0,0,0,33.837,29.6l-4.76,4.754-1.971-1.977A1.142,1.142,0,1,0,25.493,34Zm103.441,85.076-11.171-10.061a25.912,25.912,0,0,1-5.693,5.688l10.055,11.182a4.3,4.3,0,0,0,3.136,1.4c4.5.121,6.753-5.434,3.672-8.211ZM21.241,60.979H39.706L39.7,79.433H21.24Zm4.252,10.033L28.276,73.8a1.141,1.141,0,0,0,1.612,0l5.555-5.561a1.138,1.138,0,0,0-1.607-1.612l-4.76,4.754L27.106,69.4a1.14,1.14,0,0,0-1.612,1.612ZM21.241,98H39.706v18.454H21.241Zm4.252,10.028,2.783,2.777a1.136,1.136,0,0,0,1.612,0l5.555-5.561a1.138,1.138,0,0,0-1.612-1.607l-4.76,4.754L27.1,106.419a1.136,1.136,0,1,0-1.607,1.607Z" transform="translate(0 0)"/>
    <g id="noun-link-3798274" transform="translate(86.675 79.225)">
      <g id="_25_Link" data-name="25 Link" transform="translate(0 0)">
        <path id="Path_50550" data-name="Path 50550" d="M26.728,19.287,22.68,15.244l1.695-1.695a1.765,1.765,0,0,0,0-2.5l-10-10a1.765,1.765,0,0,0-2.5,0L6.047,6.872a1.765,1.765,0,0,0,0,2.5L10.1,13.42,8.4,15.109a1.765,1.765,0,0,0,0,2.5l10,10a1.765,1.765,0,0,0,2.5,0l5.825-5.825a1.765,1.765,0,0,0,0-2.5ZM13.137,4.807l7.5,7.5-.447.447L16.744,9.3a1.765,1.765,0,0,0-2.5,0l-1.63,1.642L9.807,8.137Zm4.554,10.438-.388.388-2.2-2.2.388-.388Zm1.965,8.626-7.5-7.5.447-.447,3.442,3.448a1.765,1.765,0,0,0,2.5,0l1.636-1.636,2.8,2.8Z" transform="translate(-5.528 -0.528)" fill="#fff"/>
      </g>
    </g>
  </g>
</svg>
