<svg xmlns="http://www.w3.org/2000/svg" width="100%" height="100%" viewBox="0 0 132.128 117.524">
  <g id="simulation" transform="translate(171.602 3.895)">
    <path id="Path_52702" data-name="Path 52702" d="M129.242,27.994a2.453,2.453,0,1,0,1.738.721,2.458,2.458,0,0,0-1.738-.721Zm0,17.445a2.456,2.456,0,1,0,1.738.721,2.432,2.432,0,0,0-1.738-.721Zm0,17.445a2.449,2.449,0,1,0,1.738.715,2.452,2.452,0,0,0-1.738-.715Zm-5.894-30.578H109.459a1.863,1.863,0,1,1,0-3.725h13.9a6.169,6.169,0,1,1,0,3.725Zm0,17.445H109.459a1.863,1.863,0,1,1,0-3.725h13.9a6.169,6.169,0,1,1,0,3.725Zm0,17.445H109.459a1.863,1.863,0,1,1,0-3.725h13.9a6.164,6.164,0,1,1,0,3.725ZM19.411,28.716a2.453,2.453,0,1,0,.721,1.732,2.45,2.45,0,0,0-.721-1.732Zm0,17.445a2.452,2.452,0,1,0,.721,1.732,2.45,2.45,0,0,0-.721-1.732Zm0,17.445V63.6a2.457,2.457,0,1,0,.721,1.738,2.458,2.458,0,0,0-.721-1.738Zm4.149-35.011h13.9a1.86,1.86,0,1,1,0,3.719h-13.9a6.16,6.16,0,1,1,0-3.719Zm0,17.445h13.9v-.006a1.863,1.863,0,1,1,0,3.725h-13.9a6.163,6.163,0,1,1,0-3.725Zm0,17.445h13.9v-.006a1.863,1.863,0,1,1,0,3.725h-13.9a6.164,6.164,0,1,1,0-3.725ZM71.6,74.17V48.953L49.782,36.36V61.577ZM97.138,36.36,75.32,48.953V74.17L97.138,61.577ZM99.9,31.538a1.723,1.723,0,0,1,.321.23l.024.018.055.055a1.727,1.727,0,0,1,.357.527l.018.03v.012a1.823,1.823,0,0,1,.157.691v.03h.006v29.5a1.86,1.86,0,0,1-1.084,1.69L74.532,78.894a1.857,1.857,0,0,1-2.144,0L47.008,64.241H47a1.854,1.854,0,0,1-.927-1.605h-.006V33.148a1.86,1.86,0,0,1,1.084-1.69L72.539,16.8v.006a1.841,1.841,0,0,1,1.86.012L99.893,31.537ZM51.623,33.149,73.46,20.544,95.3,33.155,73.46,45.761,51.623,33.155Zm46.9,88.23-50.13.006v8.244h50.13Zm-36.193-3.713H84.588V103.032H62.332ZM139.526,87.81,7.4,87.816v9.292a2.223,2.223,0,0,0,2.211,2.211H137.315a2.223,2.223,0,0,0,2.211-2.211ZM7.4,84.1V14.316a2.231,2.231,0,0,1,2.211-2.211H137.315a2.227,2.227,0,0,1,2.211,2.211V84.1Z" transform="translate(-179 -16)" fill-rule="evenodd"/>
  </g>
</svg>
