<svg xmlns="http://www.w3.org/2000/svg" width="25" height="50" viewBox="0 0 12.308 41.922">
  <g id="location_pin" transform="translate(-710.203 -458.934)">
    <path id="Path_52621" data-name="Path 52621" d="M345.937,219.021a5.675,5.675,0,1,1-8.011.494,5.675,5.675,0,0,1,8.011-.494" transform="translate(374.173 241.957)" fill="#fff"/>
    <rect id="Rectangle_33637" data-name="Rectangle 33637" width="0.701" height="21.119" transform="translate(715.973 471.832)" fill="#f05a5c"/>
    <path id="Path_52622" data-name="Path 52622" d="M341.539,233.784a1.956,1.956,0,1,1-2.762.171,1.96,1.96,0,0,1,2.762-.171" transform="translate(376.157 259.41)" fill="#f05a5c"/>
    <path id="Path_52623" data-name="Path 52623" d="M342.433,226.28c-3.816.057-3.816-5.945,0-5.886C346.25,220.337,346.247,226.335,342.433,226.28Zm6.154-3.21c-.247,5.288-5.573,9.29-6.45,9.007-.241-.163-5.859-3.962-5.859-9.007C336.323,215.383,348.543,215.38,348.587,223.07Zm-6.268,4.488c5.2.082,5.21-8.106,0-8.027-5.2-.082-5.208,8.106,0,8.027" transform="translate(373.924 241.63)" fill="#f05a5c"/>
    <g id="Rectangle_33652" data-name="Rectangle 33652" transform="translate(714 496.855)" fill="#fff" stroke="#707070" stroke-width="1" opacity="0">
      <rect width="5" height="4" stroke="none"/>
      <rect x="0.5" y="0.5" width="4" height="3" fill="none"/>
    </g>
  </g>
</svg>
